  0
SECTION
  2
HEADER
  9
$ACADVER
  1
AC1032
  9
$ACADMAINTVER
 90
4
  9
$DWGCODEPAGE
  3
ANSI_1252
  9
$LASTSAVEDBY
  1
ezdxf
  9
$REQUIREDVERSIONS
160
0
  9
$INSBASE
 10
0.0
 20
0.0
 30
0.0
  9
$EXTMIN
 10
1e+20
 20
1e+20
 30
1e+20
  9
$EXTMAX
 10
-1e+20
 20
-1e+20
 30
-1e+20
  9
$LIMMIN
 10
0.0
 20
0.0
  9
$LIMMAX
 10
420.0
 20
297.0
  9
$ORTHOMODE
 70
0
  9
$REGENMODE
 70
1
  9
$FILLMODE
 70
1
  9
$QTEXTMODE
 70
0
  9
$MIRRTEXT
 70
1
  9
$LTSCALE
 40
1.0
  9
$ATTMODE
 70
1
  9
$TEXTSIZE
 40
2.5
  9
$TRACEWID
 40
1.0
  9
$TEXTSTYLE
  7
Standard
  9
$CLAYER
  8
0
  9
$CELTYPE
  6
ByLayer
  9
$CECOLOR
 62
256
  9
$CELTSCALE
 40
1.0
  9
$DISPSILH
 70
0
  9
$DIMSCALE
 40
1.0
  9
$DIMASZ
 40
2.5
  9
$DIMEXO
 40
0.625
  9
$DIMDLI
 40
3.75
  9
$DIMRND
 40
0.0
  9
$DIMDLE
 40
0.0
  9
$DIMEXE
 40
1.25
  9
$DIMTP
 40
0.0
  9
$DIMTM
 40
0.0
  9
$DIMTXT
 40
2.5
  9
$DIMCEN
 40
2.5
  9
$DIMTSZ
 40
0.0
  9
$DIMTOL
 70
0
  9
$DIMLIM
 70
0
  9
$DIMTIH
 70
0
  9
$DIMTOH
 70
0
  9
$DIMSE1
 70
0
  9
$DIMSE2
 70
0
  9
$DIMTAD
 70
1
  9
$DIMZIN
 70
8
  9
$DIMBLK
  1

  9
$DIMASO
 70
1
  9
$DIMSHO
 70
1
  9
$DIMPOST
  1

  9
$DIMAPOST
  1

  9
$DIMALT
 70
0
  9
$DIMALTD
 70
3
  9
$DIMALTF
 40
0.03937007874
  9
$DIMLFAC
 40
1.0
  9
$DIMTOFL
 70
1
  9
$DIMTVP
 40
0.0
  9
$DIMTIX
 70
0
  9
$DIMSOXD
 70
0
  9
$DIMSAH
 70
0
  9
$DIMBLK1
  1

  9
$DIMBLK2
  1

  9
$DIMSTYLE
  2
ISO-25
  9
$DIMCLRD
 70
0
  9
$DIMCLRE
 70
0
  9
$DIMCLRT
 70
0
  9
$DIMTFAC
 40
1.0
  9
$DIMGAP
 40
0.625
  9
$DIMJUST
 70
0
  9
$DIMSD1
 70
0
  9
$DIMSD2
 70
0
  9
$DIMTOLJ
 70
0
  9
$DIMTZIN
 70
8
  9
$DIMALTZ
 70
0
  9
$DIMALTTZ
 70
0
  9
$DIMUPT
 70
0
  9
$DIMDEC
 70
2
  9
$DIMTDEC
 70
2
  9
$DIMALTU
 70
2
  9
$DIMALTTD
 70
3
  9
$DIMTXSTY
  7
Standard
  9
$DIMAUNIT
 70
0
  9
$DIMADEC
 70
0
  9
$DIMALTRND
 40
0.0
  9
$DIMAZIN
 70
0
  9
$DIMDSEP
 70
44
  9
$DIMATFIT
 70
3
  9
$DIMFRAC
 70
0
  9
$DIMLDRBLK
  1

  9
$DIMLUNIT
 70
2
  9
$DIMLWD
 70
-2
  9
$DIMLWE
 70
-2
  9
$DIMTMOVE
 70
0
  9
$DIMFXL
 40
1.0
  9
$DIMFXLON
 70
0
  9
$DIMJOGANG
 40
0.785398163397
  9
$DIMTFILL
 70
0
  9
$DIMTFILLCLR
 70
0
  9
$DIMARCSYM
 70
0
  9
$DIMLTYPE
  6

  9
$DIMLTEX1
  6

  9
$DIMLTEX2
  6

  9
$DIMTXTDIRECTION
 70
0
  9
$LUNITS
 70
2
  9
$LUPREC
 70
4
  9
$SKETCHINC
 40
1.0
  9
$FILLETRAD
 40
10.0
  9
$AUNITS
 70
0
  9
$AUPREC
 70
2
  9
$MENU
  1
.
  9
$ELEVATION
 40
0.0
  9
$PELEVATION
 40
0.0
  9
$THICKNESS
 40
0.0
  9
$LIMCHECK
 70
0
  9
$CHAMFERA
 40
0.0
  9
$CHAMFERB
 40
0.0
  9
$CHAMFERC
 40
0.0
  9
$CHAMFERD
 40
0.0
  9
$SKPOLY
 70
0
  9
$TDCREATE
 40
2461318.6811111113
  9
$TDUCREATE
 40
2458532.153996898
  9
$TDUPDATE
 40
2461318.6811111113
  9
$TDUUPDATE
 40
2458532.1544311
  9
$TDINDWG
 40
0.0
  9
$TDUSRTIMER
 40
0.0
  9
$USRTIMER
 70
1
  9
$ANGBASE
 50
0.0
  9
$ANGDIR
 70
0
  9
$PDMODE
 70
0
  9
$PDSIZE
 40
0.0
  9
$PLINEWID
 40
0.0
  9
$SPLFRAME
 70
0
  9
$SPLINETYPE
 70
6
  9
$SPLINESEGS
 70
8
  9
$HANDSEED
  5
1CC
  9
$SURFTAB1
 70
6
  9
$SURFTAB2
 70
6
  9
$SURFTYPE
 70
6
  9
$SURFU
 70
6
  9
$SURFV
 70
6
  9
$UCSBASE
  2

  9
$UCSNAME
  2

  9
$UCSORG
 10
0.0
 20
0.0
 30
0.0
  9
$UCSXDIR
 10
1.0
 20
0.0
 30
0.0
  9
$UCSYDIR
 10
0.0
 20
1.0
 30
0.0
  9
$UCSORTHOREF
  2

  9
$UCSORTHOVIEW
 70
0
  9
$UCSORGTOP
 10
0.0
 20
0.0
 30
0.0
  9
$UCSORGBOTTOM
 10
0.0
 20
0.0
 30
0.0
  9
$UCSORGLEFT
 10
0.0
 20
0.0
 30
0.0
  9
$UCSORGRIGHT
 10
0.0
 20
0.0
 30
0.0
  9
$UCSORGFRONT
 10
0.0
 20
0.0
 30
0.0
  9
$UCSORGBACK
 10
0.0
 20
0.0
 30
0.0
  9
$PUCSBASE
  2

  9
$PUCSNAME
  2

  9
$PUCSORG
 10
0.0
 20
0.0
 30
0.0
  9
$PUCSXDIR
 10
1.0
 20
0.0
 30
0.0
  9
$PUCSYDIR
 10
0.0
 20
1.0
 30
0.0
  9
$PUCSORTHOREF
  2

  9
$PUCSORTHOVIEW
 70
0
  9
$PUCSORGTOP
 10
0.0
 20
0.0
 30
0.0
  9
$PUCSORGBOTTOM
 10
0.0
 20
0.0
 30
0.0
  9
$PUCSORGLEFT
 10
0.0
 20
0.0
 30
0.0
  9
$PUCSORGRIGHT
 10
0.0
 20
0.0
 30
0.0
  9
$PUCSORGFRONT
 10
0.0
 20
0.0
 30
0.0
  9
$PUCSORGBACK
 10
0.0
 20
0.0
 30
0.0
  9
$USERI1
 70
0
  9
$USERI2
 70
0
  9
$USERI3
 70
0
  9
$USERI4
 70
0
  9
$USERI5
 70
0
  9
$USERR1
 40
0.0
  9
$USERR2
 40
0.0
  9
$USERR3
 40
0.0
  9
$USERR4
 40
0.0
  9
$USERR5
 40
0.0
  9
$WORLDVIEW
 70
1
  9
$SHADEDGE
 70
3
  9
$SHADEDIF
 70
70
  9
$TILEMODE
 70
1
  9
$MAXACTVP
 70
64
  9
$PINSBASE
 10
0.0
 20
0.0
 30
0.0
  9
$PLIMCHECK
 70
0
  9
$PEXTMIN
 10
1e+20
 20
1e+20
 30
1e+20
  9
$PEXTMAX
 10
-1e+20
 20
-1e+20
 30
-1e+20
  9
$PLIMMIN
 10
0.0
 20
0.0
  9
$PLIMMAX
 10
420.0
 20
297.0
  9
$UNITMODE
 70
0
  9
$VISRETAIN
 70
1
  9
$PLINEGEN
 70
0
  9
$PSLTSCALE
 70
1
  9
$TREEDEPTH
 70
3020
  9
$CMLSTYLE
  2
Standard
  9
$CMLJUST
 70
0
  9
$CMLSCALE
 40
20.0
  9
$PROXYGRAPHICS
 70
1
  9
$MEASUREMENT
 70
0
  9
$CELWEIGHT
370
-1
  9
$ENDCAPS
280
0
  9
$JOINSTYLE
280
0
  9
$LWDISPLAY
290
0
  9
$INSUNITS
 70
2
  9
$HYPERLINKBASE
  1

  9
$STYLESHEET
  1

  9
$XEDIT
290
1
  9
$CEPSNTYPE
380
0
  9
$PSTYLEMODE
290
1
  9
$FINGERPRINTGUID
  2
{DCCCAFF6-6395-42B7-B40B-F527C70E8CD0}
  9
$VERSIONGUID
  2
{604D6C1B-F0CA-4657-8027-F5C3A8D535D5}
  9
$EXTNAMES
290
1
  9
$PSVPSCALE
 40
0.0
  9
$OLESTARTUP
290
0
  9
$SORTENTS
280
127
  9
$INDEXCTL
280
0
  9
$HIDETEXT
280
1
  9
$XCLIPFRAME
280
1
  9
$HALOGAP
280
0
  9
$OBSCOLOR
 70
257
  9
$OBSLTYPE
280
0
  9
$INTERSECTIONDISPLAY
280
0
  9
$INTERSECTIONCOLOR
 70
257
  9
$DIMASSOC
280
2
  9
$PROJECTNAME
  1

  9
$CAMERADISPLAY
290
0
  9
$LENSLENGTH
 40
50.0
  9
$CAMERAHEIGHT
 40
0.0
  9
$STEPSPERSEC
 40
24.0
  9
$STEPSIZE
 40
100.0
  9
$3DDWFPREC
 40
2.0
  9
$PSOLWIDTH
 40
0.005
  9
$PSOLHEIGHT
 40
0.08
  9
$LOFTANG1
 40
1.570796326795
  9
$LOFTANG2
 40
1.570796326795
  9
$LOFTMAG1
 40
0.0
  9
$LOFTMAG2
 40
0.0
  9
$LOFTPARAM
 70
7
  9
$LOFTNORMALS
280
1
  9
$LATITUDE
 40
37.795
  9
$LONGITUDE
 40
-122.394
  9
$NORTHDIRECTION
 40
0.0
  9
$TIMEZONE
 70
-8000
  9
$LIGHTGLYPHDISPLAY
280
1
  9
$TILEMODELIGHTSYNCH
280
1
  9
$CMATERIAL
347
20
  9
$SOLIDHIST
280
0
  9
$SHOWHIST
280
1
  9
$DWFFRAME
280
2
  9
$DGNFRAME
280
2
  9
$REALWORLDSCALE
290
1
  9
$INTERFERECOLOR
 62
256
  9
$CSHADOW
280
0
  9
$SHADOWPLANELOCATION
 40
0.0
  0
ENDSEC
  0
SECTION
  2
CLASSES
  0
CLASS
  1
ACDBDICTIONARYWDFLT
  2
AcDbDictionaryWithDefault
  3
ObjectDBX Classes
 90
0
 91
0
280
0
281
0
  0
CLASS
  1
SUN
  2
AcDbSun
  3
SCENEOE
 90
1153
 91
0
280
0
281
0
  0
CLASS
  1
VISUALSTYLE
  2
AcDbVisualStyle
  3
ObjectDBX Classes
 90
4095
 91
0
280
0
281
0
  0
CLASS
  1
MATERIAL
  2
AcDbMaterial
  3
ObjectDBX Classes
 90
1153
 91
0
280
0
281
0
  0
CLASS
  1
SCALE
  2
AcDbScale
  3
ObjectDBX Classes
 90
1153
 91
0
280
0
281
0
  0
CLASS
  1
TABLESTYLE
  2
AcDbTableStyle
  3
ObjectDBX Classes
 90
4095
 91
0
280
0
281
0
  0
CLASS
  1
MLEADERSTYLE
  2
AcDbMLeaderStyle
  3
ACDB_MLEADERSTYLE_CLASS
 90
4095
 91
0
280
0
281
0
  0
CLASS
  1
DICTIONARYVAR
  2
AcDbDictionaryVar
  3
ObjectDBX Classes
 90
0
 91
0
280
0
281
0
  0
CLASS
  1
CELLSTYLEMAP
  2
AcDbCellStyleMap
  3
ObjectDBX Classes
 90
1152
 91
0
280
0
281
0
  0
CLASS
  1
MENTALRAYRENDERSETTINGS
  2
AcDbMentalRayRenderSettings
  3
SCENEOE
 90
1024
 91
0
280
0
281
0
  0
CLASS
  1
ACDBDETAILVIEWSTYLE
  2
AcDbDetailViewStyle
  3
ObjectDBX Classes
 90
1025
 91
0
280
0
281
0
  0
CLASS
  1
ACDBSECTIONVIEWSTYLE
  2
AcDbSectionViewStyle
  3
ObjectDBX Classes
 90
1025
 91
0
280
0
281
0
  0
CLASS
  1
RASTERVARIABLES
  2
AcDbRasterVariables
  3
ISM
 90
0
 91
0
280
0
281
0
  0
CLASS
  1
LAYOUT
  2
AcDbLayout
  3
ObjectDBX Classes
 90
0
 91
0
280
0
281
0
  0
CLASS
  1
ACDBPLACEHOLDER
  2
AcDbPlaceHolder
  3
ObjectDBX Classes
 90
0
 91
0
280
0
281
0
  0
ENDSEC
  0
SECTION
  2
TABLES
  0
TABLE
  2
VPORT
  5
8
330
0
100
AcDbSymbolTable
 70
1
  0
VPORT
  5
23
330
8
100
AcDbSymbolTableRecord
100
AcDbViewportTableRecord
  2
*Active
 70
0
 10
0.0
 20
0.0
 11
1.0
 21
1.0
 12
0.0
 22
0.0
 13
0.0
 23
0.0
 14
0.5
 24
0.5
 15
0.5
 25
0.5
 16
0.0
 26
0.0
 36
1.0
 17
0.0
 27
0.0
 37
0.0
 40
1000.0
 41
1.34
 42
50.0
 43
0.0
 44
0.0
 50
0.0
 51
0.0
 71
0
 72
1000
 73
1
 74
3
 75
0
 76
0
 77
0
 78
0
281
0
 65
0
146
0.0
  0
ENDTAB
  0
TABLE
  2
LTYPE
  5
2
330
0
100
AcDbSymbolTable
 70
3
  0
LTYPE
  5
24
330
2
100
AcDbSymbolTableRecord
100
AcDbLinetypeTableRecord
  2
ByBlock
 70
0
  3

 72
65
 73
0
 40
0.0
  0
LTYPE
  5
25
330
2
100
AcDbSymbolTableRecord
100
AcDbLinetypeTableRecord
  2
ByLayer
 70
0
  3

 72
65
 73
0
 40
0.0
  0
LTYPE
  5
26
330
2
100
AcDbSymbolTableRecord
100
AcDbLinetypeTableRecord
  2
Continuous
 70
0
  3

 72
65
 73
0
 40
0.0
  0
ENDTAB
  0
TABLE
  2
LAYER
  5
1
330
0
100
AcDbSymbolTable
 70
21
  0
LAYER
  5
27
330
1
100
AcDbSymbolTableRecord
100
AcDbLayerTableRecord
  2
0
 70
0
 62
7
  6
Continuous
370
-3
390
13
347
21
  0
LAYER
  5
28
330
1
100
AcDbSymbolTableRecord
100
AcDbLayerTableRecord
  2
Defpoints
 70
0
 62
7
  6
Continuous
290
0
370
-3
390
13
347
21
  0
LAYER
  5
2F
330
1
100
AcDbSymbolTableRecord
100
AcDbLayerTableRecord
  2
0_BOUNDARY
 70
0
 62
1
  6
Continuous
370
-3
390
13
347
21
  0
LAYER
  5
30
330
1
100
AcDbSymbolTableRecord
100
AcDbLayerTableRecord
  2
A_WALLS
 70
0
 62
7
  6
Continuous
370
-3
390
13
347
21
  0
LAYER
  5
31
330
1
100
AcDbSymbolTableRecord
100
AcDbLayerTableRecord
  2
S_COLUMNS
 70
0
 62
4
  6
Continuous
370
-3
390
13
347
21
  0
LAYER
  5
32
330
1
100
AcDbSymbolTableRecord
100
AcDbLayerTableRecord
  2
S_COLUMNS_HATCH
 70
0
 62
5
  6
Continuous
370
-3
390
13
347
21
  0
LAYER
  5
33
330
1
100
AcDbSymbolTableRecord
100
AcDbLayerTableRecord
  2
S_BEAMS
 70
0
 62
2
  6
DASHED
370
-3
390
13
347
21
  0
LAYER
  5
34
330
1
100
AcDbSymbolTableRecord
100
AcDbLayerTableRecord
  2
A_DOORS
 70
0
 62
2
  6
Continuous
370
-3
390
13
347
21
  0
LAYER
  5
35
330
1
100
AcDbSymbolTableRecord
100
AcDbLayerTableRecord
  2
A_WINDOWS
 70
0
 62
3
  6
Continuous
370
-3
390
13
347
21
  0
LAYER
  5
36
330
1
100
AcDbSymbolTableRecord
100
AcDbLayerTableRecord
  2
A_STAIRS
 70
0
 62
8
  6
Continuous
370
-3
390
13
347
21
  0
LAYER
  5
37
330
1
100
AcDbSymbolTableRecord
100
AcDbLayerTableRecord
  2
A_ROOM_LABELS
 70
0
 62
7
  6
Continuous
370
-3
390
13
347
21
  0
LAYER
  5
38
330
1
100
AcDbSymbolTableRecord
100
AcDbLayerTableRecord
  2
S_GRID_LINES
 70
0
 62
6
  6
Continuous
370
-3
390
13
347
21
  0
LAYER
  5
39
330
1
100
AcDbSymbolTableRecord
100
AcDbLayerTableRecord
  2
S_GRID_BUBBLES
 70
0
 62
6
  6
Continuous
370
-3
390
13
347
21
  0
LAYER
  5
3A
330
1
100
AcDbSymbolTableRecord
100
AcDbLayerTableRecord
  2
A_DIMENSIONS
 70
0
 62
1
  6
Continuous
370
-3
390
13
347
21
  0
LAYER
  5
3B
330
1
100
AcDbSymbolTableRecord
100
AcDbLayerTableRecord
  2
A_CANOPY
 70
0
 62
4
  6
Continuous
370
-3
390
13
347
21
  0
LAYER
  5
3C
330
1
100
AcDbSymbolTableRecord
100
AcDbLayerTableRecord
  2
A_PERGOLA
 70
0
 62
1
  6
Continuous
370
-3
390
13
347
21
  0
LAYER
  5
3D
330
1
100
AcDbSymbolTableRecord
100
AcDbLayerTableRecord
  2
A_ELEVATION_OUTLINE
 70
0
 62
7
  6
Continuous
370
-3
390
13
347
21
  0
LAYER
  5
3E
330
1
100
AcDbSymbolTableRecord
100
AcDbLayerTableRecord
  2
A_ELEVATION_GLASS
 70
0
 62
4
  6
Continuous
370
-3
390
13
347
21
  0
LAYER
  5
3F
330
1
100
AcDbSymbolTableRecord
100
AcDbLayerTableRecord
  2
A_ELEVATION_FIN
 70
0
 62
2
  6
Continuous
370
-3
390
13
347
21
  0
LAYER
  5
40
330
1
100
AcDbSymbolTableRecord
100
AcDbLayerTableRecord
  2
A_LEVELS
 70
0
 62
6
  6
Continuous
370
-3
390
13
347
21
  0
LAYER
  5
41
330
1
100
AcDbSymbolTableRecord
100
AcDbLayerTableRecord
  2
G_TITLEBLOCK
 70
0
 62
7
  6
Continuous
370
-3
390
13
347
21
  0
ENDTAB
  0
TABLE
  2
STYLE
  5
5
330
0
100
AcDbSymbolTable
 70
1
  0
STYLE
  5
29
330
5
100
AcDbSymbolTableRecord
100
AcDbTextStyleTableRecord
  2
Standard
 70
0
 40
0.0
 41
1.0
 50
0.0
 71
0
 42
2.5
  3
txt
  4

  0
ENDTAB
  0
TABLE
  2
VIEW
  5
7
330
0
100
AcDbSymbolTable
 70
0
  0
ENDTAB
  0
TABLE
  2
UCS
  5
6
330
0
100
AcDbSymbolTable
 70
0
  0
ENDTAB
  0
TABLE
  2
APPID
  5
3
330
0
100
AcDbSymbolTable
 70
3
  0
APPID
  5
2A
330
3
100
AcDbSymbolTableRecord
100
AcDbRegAppTableRecord
  2
ACAD
 70
0
  0
APPID
  5
1C9
330
3
100
AcDbSymbolTableRecord
100
AcDbRegAppTableRecord
  2
HATCHBACKGROUNDCOLOR
 70
0
  0
APPID
  5
1CA
330
3
100
AcDbSymbolTableRecord
100
AcDbRegAppTableRecord
  2
EZDXF
 70
0
  0
ENDTAB
  0
TABLE
  2
DIMSTYLE
  5
4
330
0
100
AcDbSymbolTable
 70
1
100
AcDbDimStyleTable
  0
DIMSTYLE
105
2B
330
4
100
AcDbSymbolTableRecord
100
AcDbDimStyleTableRecord
  2
Standard
 70
0
 40
1.0
 41
2.5
 42
0.625
 43
3.75
 44
1.25
 45
0.0
 46
0.0
 47
0.0
 48
0.0
 49
2.5
140
2.5
141
2.5
142
0.0
143
0.03937007874
144
1.0
145
0.0
146
1.0
147
0.625
148
0.0
 69
0
 70
0
 71
0
 72
0
 73
0
 74
0
 75
0
 76
0
 77
1
 78
8
 79
3
170
0
171
3
172
1
173
0
174
0
175
0
176
0
177
0
178
0
179
2
271
2
272
2
273
2
274
3
275
0
276
0
277
2
278
44
279
0
280
0
281
0
282
0
283
0
284
8
285
0
286
0
288
0
289
3
290
0
371
-2
372
-2
  0
ENDTAB
  0
TABLE
  2
BLOCK_RECORD
  5
9
330
0
100
AcDbSymbolTable
 70
2
  0
BLOCK_RECORD
  5
17
330
9
100
AcDbSymbolTableRecord
100
AcDbBlockTableRecord
  2
*Model_Space
340
1A
 70
0
280
1
281
0
  0
BLOCK_RECORD
  5
1B
330
9
100
AcDbSymbolTableRecord
100
AcDbBlockTableRecord
  2
*Paper_Space
340
1E
 70
0
280
1
281
0
  0
ENDTAB
  0
ENDSEC
  0
SECTION
  2
BLOCKS
  0
BLOCK
  5
18
330
17
100
AcDbEntity
  8
0
100
AcDbBlockBegin
  2
*Model_Space
 70
0
 10
0.0
 20
0.0
 30
0.0
  3
*Model_Space
  1

  0
ENDBLK
  5
19
330
17
100
AcDbEntity
  8
0
100
AcDbBlockEnd
  0
BLOCK
  5
1C
330
1B
100
AcDbEntity
  8
0
100
AcDbBlockBegin
  2
*Paper_Space
 70
0
 10
0.0
 20
0.0
 30
0.0
  3
*Paper_Space
  1

  0
ENDBLK
  5
1D
330
1B
100
AcDbEntity
  8
0
100
AcDbBlockEnd
  0
ENDSEC
  0
SECTION
  2
ENTITIES
  0
LWPOLYLINE
  5
42
330
17
100
AcDbEntity
  8
0_BOUNDARY
100
AcDbPolyline
 90
8
 70
1
 10
0.0
 20
0.0
 10
10.4884
 20
10.0122
 10
24.5949
 20
26.1267
 10
41.1897
 20
36.8354
 10
67.6992
 20
50.701
 10
84.8373
 20
57.6678
 10
88.8145
 20
62.1602
 10
87.9167
 20
0.0
  0
CIRCLE
  5
43
330
17
100
AcDbEntity
  8
0_BOUNDARY
100
AcDbCircle
 10
0.0
 20
0.0
 30
0.0
 40
0.5
  0
TEXT
  5
44
330
17
100
AcDbEntity
  8
0_BOUNDARY
100
AcDbText
 10
0.8
 20
0.8
 30
0.0
 40
0.8
  1
P1
 11
0.8
 21
0.8
 31
0.0
100
AcDbText
 73
1
  0
CIRCLE
  5
45
330
17
100
AcDbEntity
  8
0_BOUNDARY
100
AcDbCircle
 10
10.4884
 20
10.0122
 30
0.0
 40
0.5
  0
TEXT
  5
46
330
17
100
AcDbEntity
  8
0_BOUNDARY
100
AcDbText
 10
11.288400000000001
 20
10.8122
 30
0.0
 40
0.8
  1
P2
 11
11.288400000000001
 21
10.8122
 31
0.0
100
AcDbText
 73
1
  0
CIRCLE
  5
47
330
17
100
AcDbEntity
  8
0_BOUNDARY
100
AcDbCircle
 10
24.5949
 20
26.1267
 30
0.0
 40
0.5
  0
TEXT
  5
48
330
17
100
AcDbEntity
  8
0_BOUNDARY
100
AcDbText
 10
25.3949
 20
26.9267
 30
0.0
 40
0.8
  1
P3
 11
25.3949
 21
26.9267
 31
0.0
100
AcDbText
 73
1
  0
CIRCLE
  5
49
330
17
100
AcDbEntity
  8
0_BOUNDARY
100
AcDbCircle
 10
41.1897
 20
36.8354
 30
0.0
 40
0.5
  0
TEXT
  5
4A
330
17
100
AcDbEntity
  8
0_BOUNDARY
100
AcDbText
 10
41.9897
 20
37.6354
 30
0.0
 40
0.8
  1
P4
 11
41.9897
 21
37.6354
 31
0.0
100
AcDbText
 73
1
  0
CIRCLE
  5
4B
330
17
100
AcDbEntity
  8
0_BOUNDARY
100
AcDbCircle
 10
67.6992
 20
50.701
 30
0.0
 40
0.5
  0
TEXT
  5
4C
330
17
100
AcDbEntity
  8
0_BOUNDARY
100
AcDbText
 10
68.4992
 20
51.501
 30
0.0
 40
0.8
  1
P5
 11
68.4992
 21
51.501
 31
0.0
100
AcDbText
 73
1
  0
CIRCLE
  5
4D
330
17
100
AcDbEntity
  8
0_BOUNDARY
100
AcDbCircle
 10
84.8373
 20
57.6678
 30
0.0
 40
0.5
  0
TEXT
  5
4E
330
17
100
AcDbEntity
  8
0_BOUNDARY
100
AcDbText
 10
85.6373
 20
58.4678
 30
0.0
 40
0.8
  1
P6
 11
85.6373
 21
58.4678
 31
0.0
100
AcDbText
 73
1
  0
CIRCLE
  5
4F
330
17
100
AcDbEntity
  8
0_BOUNDARY
100
AcDbCircle
 10
88.8145
 20
62.1602
 30
0.0
 40
0.5
  0
TEXT
  5
50
330
17
100
AcDbEntity
  8
0_BOUNDARY
100
AcDbText
 10
89.61449999999999
 20
62.9602
 30
0.0
 40
0.8
  1
P7
 11
89.61449999999999
 21
62.9602
 31
0.0
100
AcDbText
 73
1
  0
CIRCLE
  5
51
330
17
100
AcDbEntity
  8
0_BOUNDARY
100
AcDbCircle
 10
87.9167
 20
0.0
 30
0.0
 40
0.5
  0
TEXT
  5
52
330
17
100
AcDbEntity
  8
0_BOUNDARY
100
AcDbText
 10
88.7167
 20
0.8
 30
0.0
 40
0.8
  1
P0
 11
88.7167
 21
0.8
 31
0.0
100
AcDbText
 73
1
  0
TEXT
  5
53
330
17
100
AcDbEntity
  8
0_BOUNDARY
100
AcDbText
 10
5.2442
 20
5.0061
 30
0.0
 40
0.7
  1
P1-P2: 14'-6"
 72
1
 11
5.2442
 21
5.0061
 31
0.0
100
AcDbText
 73
2
  0
TEXT
  5
54
330
17
100
AcDbEntity
  8
0_BOUNDARY
100
AcDbText
 10
17.54165
 20
18.06945
 30
0.0
 40
0.7
  1
P2-P3: 21'-5"
 72
1
 11
17.54165
 21
18.06945
 31
0.0
100
AcDbText
 73
2
  0
TEXT
  5
55
330
17
100
AcDbEntity
  8
0_BOUNDARY
100
AcDbText
 10
32.8923
 20
31.48105
 30
0.0
 40
0.7
  1
P3-P4: 19'-9"
 72
1
 11
32.8923
 21
31.48105
 31
0.0
100
AcDbText
 73
2
  0
TEXT
  5
56
330
17
100
AcDbEntity
  8
0_BOUNDARY
100
AcDbText
 10
54.44445
 20
43.7682
 30
0.0
 40
0.7
  1
P4-P5: 29'-11"
 72
1
 11
54.44445
 21
43.7682
 31
0.0
100
AcDbText
 73
2
  0
TEXT
  5
57
330
17
100
AcDbEntity
  8
0_BOUNDARY
100
AcDbText
 10
76.26825
 20
54.1844
 30
0.0
 40
0.7
  1
P5-P6: 18'-6"
 72
1
 11
76.26825
 21
54.1844
 31
0.0
100
AcDbText
 73
2
  0
TEXT
  5
58
330
17
100
AcDbEntity
  8
0_BOUNDARY
100
AcDbText
 10
86.82589999999999
 20
59.914
 30
0.0
 40
0.7
  1
P6-P7: 6'-0"
 72
1
 11
86.82589999999999
 21
59.914
 31
0.0
100
AcDbText
 73
2
  0
TEXT
  5
59
330
17
100
AcDbEntity
  8
0_BOUNDARY
100
AcDbText
 10
88.3656
 20
31.0801
 30
0.0
 40
0.7
  1
P7-P0: 62'-2"
 72
1
 11
88.3656
 21
31.0801
 31
0.0
100
AcDbText
 73
2
  0
TEXT
  5
5A
330
17
100
AcDbEntity
  8
0_BOUNDARY
100
AcDbText
 10
43.95835
 20
0.0
 30
0.0
 40
0.7
  1
P0-P1: 87'-11"
 72
1
 11
43.95835
 21
0.0
 31
0.0
100
AcDbText
 73
2
  0
LINE
  5
5B
330
17
100
AcDbEntity
  8
S_GRID_LINES
100
AcDbLine
 10
18.0
 20
-4.0
 30
0.0
 11
18.0
 21
65.0
 31
0.0
  0
CIRCLE
  5
5C
330
17
100
AcDbEntity
  8
S_GRID_BUBBLES
100
AcDbCircle
 10
18.0
 20
-5.7
 30
0.0
 40
1.2
  0
TEXT
  5
5D
330
17
100
AcDbEntity
  8
S_GRID_BUBBLES
100
AcDbText
 10
18.0
 20
-5.7
 30
0.0
 40
1.0
  1
A
 72
1
 11
18.0
 21
-5.7
 31
0.0
100
AcDbText
 73
2
  0
CIRCLE
  5
5E
330
17
100
AcDbEntity
  8
S_GRID_BUBBLES
100
AcDbCircle
 10
18.0
 20
66.7
 30
0.0
 40
1.2
  0
TEXT
  5
5F
330
17
100
AcDbEntity
  8
S_GRID_BUBBLES
100
AcDbText
 10
18.0
 20
66.7
 30
0.0
 40
1.0
  1
A
 72
1
 11
18.0
 21
66.7
 31
0.0
100
AcDbText
 73
2
  0
LINE
  5
60
330
17
100
AcDbEntity
  8
S_GRID_LINES
100
AcDbLine
 10
36.5
 20
-4.0
 30
0.0
 11
36.5
 21
65.0
 31
0.0
  0
CIRCLE
  5
61
330
17
100
AcDbEntity
  8
S_GRID_BUBBLES
100
AcDbCircle
 10
36.5
 20
-5.7
 30
0.0
 40
1.2
  0
TEXT
  5
62
330
17
100
AcDbEntity
  8
S_GRID_BUBBLES
100
AcDbText
 10
36.5
 20
-5.7
 30
0.0
 40
1.0
  1
B
 72
1
 11
36.5
 21
-5.7
 31
0.0
100
AcDbText
 73
2
  0
CIRCLE
  5
63
330
17
100
AcDbEntity
  8
S_GRID_BUBBLES
100
AcDbCircle
 10
36.5
 20
66.7
 30
0.0
 40
1.2
  0
TEXT
  5
64
330
17
100
AcDbEntity
  8
S_GRID_BUBBLES
100
AcDbText
 10
36.5
 20
66.7
 30
0.0
 40
1.0
  1
B
 72
1
 11
36.5
 21
66.7
 31
0.0
100
AcDbText
 73
2
  0
LINE
  5
65
330
17
100
AcDbEntity
  8
S_GRID_LINES
100
AcDbLine
 10
42.5
 20
-4.0
 30
0.0
 11
42.5
 21
65.0
 31
0.0
  0
CIRCLE
  5
66
330
17
100
AcDbEntity
  8
S_GRID_BUBBLES
100
AcDbCircle
 10
42.5
 20
-5.7
 30
0.0
 40
1.2
  0
TEXT
  5
67
330
17
100
AcDbEntity
  8
S_GRID_BUBBLES
100
AcDbText
 10
42.5
 20
-5.7
 30
0.0
 40
1.0
  1
B'
 72
1
 11
42.5
 21
-5.7
 31
0.0
100
AcDbText
 73
2
  0
CIRCLE
  5
68
330
17
100
AcDbEntity
  8
S_GRID_BUBBLES
100
AcDbCircle
 10
42.5
 20
66.7
 30
0.0
 40
1.2
  0
TEXT
  5
69
330
17
100
AcDbEntity
  8
S_GRID_BUBBLES
100
AcDbText
 10
42.5
 20
66.7
 30
0.0
 40
1.0
  1
B'
 72
1
 11
42.5
 21
66.7
 31
0.0
100
AcDbText
 73
2
  0
LINE
  5
6A
330
17
100
AcDbEntity
  8
S_GRID_LINES
100
AcDbLine
 10
51.75
 20
-4.0
 30
0.0
 11
51.75
 21
65.0
 31
0.0
  0
CIRCLE
  5
6B
330
17
100
AcDbEntity
  8
S_GRID_BUBBLES
100
AcDbCircle
 10
51.75
 20
-5.7
 30
0.0
 40
1.2
  0
TEXT
  5
6C
330
17
100
AcDbEntity
  8
S_GRID_BUBBLES
100
AcDbText
 10
51.75
 20
-5.7
 30
0.0
 40
1.0
  1
C
 72
1
 11
51.75
 21
-5.7
 31
0.0
100
AcDbText
 73
2
  0
CIRCLE
  5
6D
330
17
100
AcDbEntity
  8
S_GRID_BUBBLES
100
AcDbCircle
 10
51.75
 20
66.7
 30
0.0
 40
1.2
  0
TEXT
  5
6E
330
17
100
AcDbEntity
  8
S_GRID_BUBBLES
100
AcDbText
 10
51.75
 20
66.7
 30
0.0
 40
1.0
  1
C
 72
1
 11
51.75
 21
66.7
 31
0.0
100
AcDbText
 73
2
  0
LINE
  5
6F
330
17
100
AcDbEntity
  8
S_GRID_LINES
100
AcDbLine
 10
58.875
 20
-4.0
 30
0.0
 11
58.875
 21
65.0
 31
0.0
  0
CIRCLE
  5
70
330
17
100
AcDbEntity
  8
S_GRID_BUBBLES
100
AcDbCircle
 10
58.875
 20
-5.7
 30
0.0
 40
1.2
  0
TEXT
  5
71
330
17
100
AcDbEntity
  8
S_GRID_BUBBLES
100
AcDbText
 10
58.875
 20
-5.7
 30
0.0
 40
1.0
  1
C'
 72
1
 11
58.875
 21
-5.7
 31
0.0
100
AcDbText
 73
2
  0
CIRCLE
  5
72
330
17
100
AcDbEntity
  8
S_GRID_BUBBLES
100
AcDbCircle
 10
58.875
 20
66.7
 30
0.0
 40
1.2
  0
TEXT
  5
73
330
17
100
AcDbEntity
  8
S_GRID_BUBBLES
100
AcDbText
 10
58.875
 20
66.7
 30
0.0
 40
1.0
  1
C'
 72
1
 11
58.875
 21
66.7
 31
0.0
100
AcDbText
 73
2
  0
LINE
  5
74
330
17
100
AcDbEntity
  8
S_GRID_LINES
100
AcDbLine
 10
69.0
 20
-4.0
 30
0.0
 11
69.0
 21
65.0
 31
0.0
  0
CIRCLE
  5
75
330
17
100
AcDbEntity
  8
S_GRID_BUBBLES
100
AcDbCircle
 10
69.0
 20
-5.7
 30
0.0
 40
1.2
  0
TEXT
  5
76
330
17
100
AcDbEntity
  8
S_GRID_BUBBLES
100
AcDbText
 10
69.0
 20
-5.7
 30
0.0
 40
1.0
  1
D
 72
1
 11
69.0
 21
-5.7
 31
0.0
100
AcDbText
 73
2
  0
CIRCLE
  5
77
330
17
100
AcDbEntity
  8
S_GRID_BUBBLES
100
AcDbCircle
 10
69.0
 20
66.7
 30
0.0
 40
1.2
  0
TEXT
  5
78
330
17
100
AcDbEntity
  8
S_GRID_BUBBLES
100
AcDbText
 10
69.0
 20
66.7
 30
0.0
 40
1.0
  1
D
 72
1
 11
69.0
 21
66.7
 31
0.0
100
AcDbText
 73
2
  0
LINE
  5
79
330
17
100
AcDbEntity
  8
S_GRID_LINES
100
AcDbLine
 10
84.75
 20
-4.0
 30
0.0
 11
84.75
 21
65.0
 31
0.0
  0
CIRCLE
  5
7A
330
17
100
AcDbEntity
  8
S_GRID_BUBBLES
100
AcDbCircle
 10
84.75
 20
-5.7
 30
0.0
 40
1.2
  0
TEXT
  5
7B
330
17
100
AcDbEntity
  8
S_GRID_BUBBLES
100
AcDbText
 10
84.75
 20
-5.7
 30
0.0
 40
1.0
  1
E
 72
1
 11
84.75
 21
-5.7
 31
0.0
100
AcDbText
 73
2
  0
CIRCLE
  5
7C
330
17
100
AcDbEntity
  8
S_GRID_BUBBLES
100
AcDbCircle
 10
84.75
 20
66.7
 30
0.0
 40
1.2
  0
TEXT
  5
7D
330
17
100
AcDbEntity
  8
S_GRID_BUBBLES
100
AcDbText
 10
84.75
 20
66.7
 30
0.0
 40
1.0
  1
E
 72
1
 11
84.75
 21
66.7
 31
0.0
100
AcDbText
 73
2
  0
LINE
  5
7E
330
17
100
AcDbEntity
  8
S_GRID_LINES
100
AcDbLine
 10
-5.0
 20
3.375
 30
0.0
 11
93.0
 21
3.375
 31
0.0
  0
CIRCLE
  5
7F
330
17
100
AcDbEntity
  8
S_GRID_BUBBLES
100
AcDbCircle
 10
-6.7
 20
3.375
 30
0.0
 40
1.2
  0
TEXT
  5
80
330
17
100
AcDbEntity
  8
S_GRID_BUBBLES
100
AcDbText
 10
-6.7
 20
3.375
 30
0.0
 40
1.0
  1
1
 72
1
 11
-6.7
 21
3.375
 31
0.0
100
AcDbText
 73
2
  0
CIRCLE
  5
81
330
17
100
AcDbEntity
  8
S_GRID_BUBBLES
100
AcDbCircle
 10
94.7
 20
3.375
 30
0.0
 40
1.2
  0
TEXT
  5
82
330
17
100
AcDbEntity
  8
S_GRID_BUBBLES
100
AcDbText
 10
94.7
 20
3.375
 30
0.0
 40
1.0
  1
1
 72
1
 11
94.7
 21
3.375
 31
0.0
100
AcDbText
 73
2
  0
LINE
  5
83
330
17
100
AcDbEntity
  8
S_GRID_LINES
100
AcDbLine
 10
-5.0
 20
17.0
 30
0.0
 11
93.0
 21
17.0
 31
0.0
  0
CIRCLE
  5
84
330
17
100
AcDbEntity
  8
S_GRID_BUBBLES
100
AcDbCircle
 10
-6.7
 20
17.0
 30
0.0
 40
1.2
  0
TEXT
  5
85
330
17
100
AcDbEntity
  8
S_GRID_BUBBLES
100
AcDbText
 10
-6.7
 20
17.0
 30
0.0
 40
1.0
  1
2
 72
1
 11
-6.7
 21
17.0
 31
0.0
100
AcDbText
 73
2
  0
CIRCLE
  5
86
330
17
100
AcDbEntity
  8
S_GRID_BUBBLES
100
AcDbCircle
 10
94.7
 20
17.0
 30
0.0
 40
1.2
  0
TEXT
  5
87
330
17
100
AcDbEntity
  8
S_GRID_BUBBLES
100
AcDbText
 10
94.7
 20
17.0
 30
0.0
 40
1.0
  1
2
 72
1
 11
94.7
 21
17.0
 31
0.0
100
AcDbText
 73
2
  0
LINE
  5
88
330
17
100
AcDbEntity
  8
S_GRID_LINES
100
AcDbLine
 10
-5.0
 20
20.125
 30
0.0
 11
93.0
 21
20.125
 31
0.0
  0
CIRCLE
  5
89
330
17
100
AcDbEntity
  8
S_GRID_BUBBLES
100
AcDbCircle
 10
-6.7
 20
20.125
 30
0.0
 40
1.2
  0
TEXT
  5
8A
330
17
100
AcDbEntity
  8
S_GRID_BUBBLES
100
AcDbText
 10
-6.7
 20
20.125
 30
0.0
 40
1.0
  1
3
 72
1
 11
-6.7
 21
20.125
 31
0.0
100
AcDbText
 73
2
  0
CIRCLE
  5
8B
330
17
100
AcDbEntity
  8
S_GRID_BUBBLES
100
AcDbCircle
 10
94.7
 20
20.125
 30
0.0
 40
1.2
  0
TEXT
  5
8C
330
17
100
AcDbEntity
  8
S_GRID_BUBBLES
100
AcDbText
 10
94.7
 20
20.125
 30
0.0
 40
1.0
  1
3
 72
1
 11
94.7
 21
20.125
 31
0.0
100
AcDbText
 73
2
  0
LINE
  5
8D
330
17
100
AcDbEntity
  8
S_GRID_LINES
100
AcDbLine
 10
-5.0
 20
27.875
 30
0.0
 11
93.0
 21
27.875
 31
0.0
  0
CIRCLE
  5
8E
330
17
100
AcDbEntity
  8
S_GRID_BUBBLES
100
AcDbCircle
 10
-6.7
 20
27.875
 30
0.0
 40
1.2
  0
TEXT
  5
8F
330
17
100
AcDbEntity
  8
S_GRID_BUBBLES
100
AcDbText
 10
-6.7
 20
27.875
 30
0.0
 40
1.0
  1
4
 72
1
 11
-6.7
 21
27.875
 31
0.0
100
AcDbText
 73
2
  0
CIRCLE
  5
90
330
17
100
AcDbEntity
  8
S_GRID_BUBBLES
100
AcDbCircle
 10
94.7
 20
27.875
 30
0.0
 40
1.2
  0
TEXT
  5
91
330
17
100
AcDbEntity
  8
S_GRID_BUBBLES
100
AcDbText
 10
94.7
 20
27.875
 30
0.0
 40
1.0
  1
4
 72
1
 11
94.7
 21
27.875
 31
0.0
100
AcDbText
 73
2
  0
LINE
  5
92
330
17
100
AcDbEntity
  8
S_GRID_LINES
100
AcDbLine
 10
-5.0
 20
33.375
 30
0.0
 11
93.0
 21
33.375
 31
0.0
  0
CIRCLE
  5
93
330
17
100
AcDbEntity
  8
S_GRID_BUBBLES
100
AcDbCircle
 10
-6.7
 20
33.375
 30
0.0
 40
1.2
  0
TEXT
  5
94
330
17
100
AcDbEntity
  8
S_GRID_BUBBLES
100
AcDbText
 10
-6.7
 20
33.375
 30
0.0
 40
1.0
  1
5
 72
1
 11
-6.7
 21
33.375
 31
0.0
100
AcDbText
 73
2
  0
CIRCLE
  5
95
330
17
100
AcDbEntity
  8
S_GRID_BUBBLES
100
AcDbCircle
 10
94.7
 20
33.375
 30
0.0
 40
1.2
  0
TEXT
  5
96
330
17
100
AcDbEntity
  8
S_GRID_BUBBLES
100
AcDbText
 10
94.7
 20
33.375
 30
0.0
 40
1.0
  1
5
 72
1
 11
94.7
 21
33.375
 31
0.0
100
AcDbText
 73
2
  0
LINE
  5
97
330
17
100
AcDbEntity
  8
S_GRID_LINES
100
AcDbLine
 10
-5.0
 20
36.0
 30
0.0
 11
93.0
 21
36.0
 31
0.0
  0
CIRCLE
  5
98
330
17
100
AcDbEntity
  8
S_GRID_BUBBLES
100
AcDbCircle
 10
-6.7
 20
36.0
 30
0.0
 40
1.2
  0
TEXT
  5
99
330
17
100
AcDbEntity
  8
S_GRID_BUBBLES
100
AcDbText
 10
-6.7
 20
36.0
 30
0.0
 40
1.0
  1
6
 72
1
 11
-6.7
 21
36.0
 31
0.0
100
AcDbText
 73
2
  0
CIRCLE
  5
9A
330
17
100
AcDbEntity
  8
S_GRID_BUBBLES
100
AcDbCircle
 10
94.7
 20
36.0
 30
0.0
 40
1.2
  0
TEXT
  5
9B
330
17
100
AcDbEntity
  8
S_GRID_BUBBLES
100
AcDbText
 10
94.7
 20
36.0
 30
0.0
 40
1.0
  1
6
 72
1
 11
94.7
 21
36.0
 31
0.0
100
AcDbText
 73
2
  0
LINE
  5
9C
330
17
100
AcDbEntity
  8
S_GRID_LINES
100
AcDbLine
 10
-5.0
 20
42.125
 30
0.0
 11
93.0
 21
42.125
 31
0.0
  0
CIRCLE
  5
9D
330
17
100
AcDbEntity
  8
S_GRID_BUBBLES
100
AcDbCircle
 10
-6.7
 20
42.125
 30
0.0
 40
1.2
  0
TEXT
  5
9E
330
17
100
AcDbEntity
  8
S_GRID_BUBBLES
100
AcDbText
 10
-6.7
 20
42.125
 30
0.0
 40
1.0
  1
7
 72
1
 11
-6.7
 21
42.125
 31
0.0
100
AcDbText
 73
2
  0
CIRCLE
  5
9F
330
17
100
AcDbEntity
  8
S_GRID_BUBBLES
100
AcDbCircle
 10
94.7
 20
42.125
 30
0.0
 40
1.2
  0
TEXT
  5
A0
330
17
100
AcDbEntity
  8
S_GRID_BUBBLES
100
AcDbText
 10
94.7
 20
42.125
 30
0.0
 40
1.0
  1
7
 72
1
 11
94.7
 21
42.125
 31
0.0
100
AcDbText
 73
2
  0
LINE
  5
A1
330
17
100
AcDbEntity
  8
S_GRID_LINES
100
AcDbLine
 10
-5.0
 20
46.5
 30
0.0
 11
93.0
 21
46.5
 31
0.0
  0
CIRCLE
  5
A2
330
17
100
AcDbEntity
  8
S_GRID_BUBBLES
100
AcDbCircle
 10
-6.7
 20
46.5
 30
0.0
 40
1.2
  0
TEXT
  5
A3
330
17
100
AcDbEntity
  8
S_GRID_BUBBLES
100
AcDbText
 10
-6.7
 20
46.5
 30
0.0
 40
1.0
  1
7E
 72
1
 11
-6.7
 21
46.5
 31
0.0
100
AcDbText
 73
2
  0
CIRCLE
  5
A4
330
17
100
AcDbEntity
  8
S_GRID_BUBBLES
100
AcDbCircle
 10
94.7
 20
46.5
 30
0.0
 40
1.2
  0
TEXT
  5
A5
330
17
100
AcDbEntity
  8
S_GRID_BUBBLES
100
AcDbText
 10
94.7
 20
46.5
 30
0.0
 40
1.0
  1
7E
 72
1
 11
94.7
 21
46.5
 31
0.0
100
AcDbText
 73
2
  0
LINE
  5
A6
330
17
100
AcDbEntity
  8
S_GRID_LINES
100
AcDbLine
 10
-5.0
 20
49.0
 30
0.0
 11
93.0
 21
49.0
 31
0.0
  0
CIRCLE
  5
A7
330
17
100
AcDbEntity
  8
S_GRID_BUBBLES
100
AcDbCircle
 10
-6.7
 20
49.0
 30
0.0
 40
1.2
  0
TEXT
  5
A8
330
17
100
AcDbEntity
  8
S_GRID_BUBBLES
100
AcDbText
 10
-6.7
 20
49.0
 30
0.0
 40
1.0
  1
7A
 72
1
 11
-6.7
 21
49.0
 31
0.0
100
AcDbText
 73
2
  0
CIRCLE
  5
A9
330
17
100
AcDbEntity
  8
S_GRID_BUBBLES
100
AcDbCircle
 10
94.7
 20
49.0
 30
0.0
 40
1.2
  0
TEXT
  5
AA
330
17
100
AcDbEntity
  8
S_GRID_BUBBLES
100
AcDbText
 10
94.7
 20
49.0
 30
0.0
 40
1.0
  1
7A
 72
1
 11
94.7
 21
49.0
 31
0.0
100
AcDbText
 73
2
  0
LINE
  5
AB
330
17
100
AcDbEntity
  8
S_GRID_LINES
100
AcDbLine
 10
-5.0
 20
55.1
 30
0.0
 11
93.0
 21
55.1
 31
0.0
  0
CIRCLE
  5
AC
330
17
100
AcDbEntity
  8
S_GRID_BUBBLES
100
AcDbCircle
 10
-6.7
 20
55.1
 30
0.0
 40
1.2
  0
TEXT
  5
AD
330
17
100
AcDbEntity
  8
S_GRID_BUBBLES
100
AcDbText
 10
-6.7
 20
55.1
 30
0.0
 40
1.0
  1
8
 72
1
 11
-6.7
 21
55.1
 31
0.0
100
AcDbText
 73
2
  0
CIRCLE
  5
AE
330
17
100
AcDbEntity
  8
S_GRID_BUBBLES
100
AcDbCircle
 10
94.7
 20
55.1
 30
0.0
 40
1.2
  0
TEXT
  5
AF
330
17
100
AcDbEntity
  8
S_GRID_BUBBLES
100
AcDbText
 10
94.7
 20
55.1
 30
0.0
 40
1.0
  1
8
 72
1
 11
94.7
 21
55.1
 31
0.0
100
AcDbText
 73
2
  0
LWPOLYLINE
  5
B0
330
17
100
AcDbEntity
  8
S_COLUMNS
100
AcDbPolyline
 90
4
 70
1
 10
17.5
 20
2.625
 10
18.5
 20
2.625
 10
18.5
 20
4.125
 10
17.5
 20
4.125
  0
HATCH
  5
B1
330
17
100
AcDbEntity
  8
S_COLUMNS_HATCH
 62
7
100
AcDbHatch
 10
0.0
 20
0.0
 30
0.0
210
0.0
220
0.0
230
1.0
  2
SOLID
 70
0
 71
0
 91
1
 92
3
 72
0
 73
1
 93
4
 10
17.5
 20
2.625
 10
18.5
 20
2.625
 10
18.5
 20
4.125
 10
17.5
 20
4.125
 97
0
 75
1
 76
1
 52
0.0
 41
1.0
 77
0
 78
1
 53
45.0
 43
0.0
 44
0.0
 45
-0.0034798562
 46
0.0034798562
 79
0
 98
0
  0
TEXT
  5
B2
330
17
100
AcDbEntity
  8
S_COLUMNS
100
AcDbText
 10
18.0
 20
3.375
 30
0.0
 40
0.55
  1
A1
 72
1
 11
18.0
 21
3.375
 31
0.0
100
AcDbText
 73
2
  0
LWPOLYLINE
  5
B3
330
17
100
AcDbEntity
  8
S_COLUMNS
100
AcDbPolyline
 90
4
 70
1
 10
17.5
 20
16.25
 10
18.5
 20
16.25
 10
18.5
 20
17.75
 10
17.5
 20
17.75
  0
HATCH
  5
B4
330
17
100
AcDbEntity
  8
S_COLUMNS_HATCH
 62
7
100
AcDbHatch
 10
0.0
 20
0.0
 30
0.0
210
0.0
220
0.0
230
1.0
  2
SOLID
 70
0
 71
0
 91
1
 92
3
 72
0
 73
1
 93
4
 10
17.5
 20
16.25
 10
18.5
 20
16.25
 10
18.5
 20
17.75
 10
17.5
 20
17.75
 97
0
 75
1
 76
1
 52
0.0
 41
1.0
 77
0
 78
1
 53
45.0
 43
0.0
 44
0.0
 45
-0.0034798562
 46
0.0034798562
 79
0
 98
0
  0
TEXT
  5
B5
330
17
100
AcDbEntity
  8
S_COLUMNS
100
AcDbText
 10
18.0
 20
17.0
 30
0.0
 40
0.55
  1
A2
 72
1
 11
18.0
 21
17.0
 31
0.0
100
AcDbText
 73
2
  0
LWPOLYLINE
  5
B6
330
17
100
AcDbEntity
  8
S_COLUMNS
100
AcDbPolyline
 90
4
 70
1
 10
36.125
 20
3.0
 10
36.875
 20
3.0
 10
36.875
 20
4.5
 10
36.125
 20
4.5
  0
HATCH
  5
B7
330
17
100
AcDbEntity
  8
S_COLUMNS_HATCH
 62
7
100
AcDbHatch
 10
0.0
 20
0.0
 30
0.0
210
0.0
220
0.0
230
1.0
  2
SOLID
 70
0
 71
0
 91
1
 92
3
 72
0
 73
1
 93
4
 10
36.125
 20
3.0
 10
36.875
 20
3.0
 10
36.875
 20
4.5
 10
36.125
 20
4.5
 97
0
 75
1
 76
1
 52
0.0
 41
1.0
 77
0
 78
1
 53
45.0
 43
0.0
 44
0.0
 45
-0.0034798562
 46
0.0034798562
 79
0
 98
0
  0
TEXT
  5
B8
330
17
100
AcDbEntity
  8
S_COLUMNS
100
AcDbText
 10
36.5
 20
3.75
 30
0.0
 40
0.55
  1
B1
 72
1
 11
36.5
 21
3.75
 31
0.0
100
AcDbText
 73
2
  0
LWPOLYLINE
  5
B9
330
17
100
AcDbEntity
  8
S_COLUMNS
100
AcDbPolyline
 90
4
 70
1
 10
36.125
 20
16.25
 10
36.875
 20
16.25
 10
36.875
 20
17.75
 10
36.125
 20
17.75
  0
HATCH
  5
BA
330
17
100
AcDbEntity
  8
S_COLUMNS_HATCH
 62
7
100
AcDbHatch
 10
0.0
 20
0.0
 30
0.0
210
0.0
220
0.0
230
1.0
  2
SOLID
 70
0
 71
0
 91
1
 92
3
 72
0
 73
1
 93
4
 10
36.125
 20
16.25
 10
36.875
 20
16.25
 10
36.875
 20
17.75
 10
36.125
 20
17.75
 97
0
 75
1
 76
1
 52
0.0
 41
1.0
 77
0
 78
1
 53
45.0
 43
0.0
 44
0.0
 45
-0.0034798562
 46
0.0034798562
 79
0
 98
0
  0
TEXT
  5
BB
330
17
100
AcDbEntity
  8
S_COLUMNS
100
AcDbText
 10
36.5
 20
17.0
 30
0.0
 40
0.55
  1
B2
 72
1
 11
36.5
 21
17.0
 31
0.0
100
AcDbText
 73
2
  0
LWPOLYLINE
  5
BC
330
17
100
AcDbEntity
  8
S_COLUMNS
100
AcDbPolyline
 90
4
 70
1
 10
36.125
 20
19.375
 10
36.875
 20
19.375
 10
36.875
 20
20.875
 10
36.125
 20
20.875
  0
HATCH
  5
BD
330
17
100
AcDbEntity
  8
S_COLUMNS_HATCH
 62
7
100
AcDbHatch
 10
0.0
 20
0.0
 30
0.0
210
0.0
220
0.0
230
1.0
  2
SOLID
 70
0
 71
0
 91
1
 92
3
 72
0
 73
1
 93
4
 10
36.125
 20
19.375
 10
36.875
 20
19.375
 10
36.875
 20
20.875
 10
36.125
 20
20.875
 97
0
 75
1
 76
1
 52
0.0
 41
1.0
 77
0
 78
1
 53
45.0
 43
0.0
 44
0.0
 45
-0.0034798562
 46
0.0034798562
 79
0
 98
0
  0
TEXT
  5
BE
330
17
100
AcDbEntity
  8
S_COLUMNS
100
AcDbText
 10
36.5
 20
20.125
 30
0.0
 40
0.55
  1
B3
 72
1
 11
36.5
 21
20.125
 31
0.0
100
AcDbText
 73
2
  0
LWPOLYLINE
  5
BF
330
17
100
AcDbEntity
  8
S_COLUMNS
100
AcDbPolyline
 90
4
 70
1
 10
36.125
 20
27.125
 10
36.875
 20
27.125
 10
36.875
 20
28.625
 10
36.125
 20
28.625
  0
HATCH
  5
C0
330
17
100
AcDbEntity
  8
S_COLUMNS_HATCH
 62
7
100
AcDbHatch
 10
0.0
 20
0.0
 30
0.0
210
0.0
220
0.0
230
1.0
  2
SOLID
 70
0
 71
0
 91
1
 92
3
 72
0
 73
1
 93
4
 10
36.125
 20
27.125
 10
36.875
 20
27.125
 10
36.875
 20
28.625
 10
36.125
 20
28.625
 97
0
 75
1
 76
1
 52
0.0
 41
1.0
 77
0
 78
1
 53
45.0
 43
0.0
 44
0.0
 45
-0.0034798562
 46
0.0034798562
 79
0
 98
0
  0
TEXT
  5
C1
330
17
100
AcDbEntity
  8
S_COLUMNS
100
AcDbText
 10
36.5
 20
27.875
 30
0.0
 40
0.55
  1
B4
 72
1
 11
36.5
 21
27.875
 31
0.0
100
AcDbText
 73
2
  0
LWPOLYLINE
  5
C2
330
17
100
AcDbEntity
  8
S_COLUMNS
100
AcDbPolyline
 90
4
 70
1
 10
41.75
 20
33.0
 10
43.25
 20
33.0
 10
43.25
 20
33.75
 10
41.75
 20
33.75
  0
HATCH
  5
C3
330
17
100
AcDbEntity
  8
S_COLUMNS_HATCH
 62
7
100
AcDbHatch
 10
0.0
 20
0.0
 30
0.0
210
0.0
220
0.0
230
1.0
  2
SOLID
 70
0
 71
0
 91
1
 92
3
 72
0
 73
1
 93
4
 10
41.75
 20
33.0
 10
43.25
 20
33.0
 10
43.25
 20
33.75
 10
41.75
 20
33.75
 97
0
 75
1
 76
1
 52
0.0
 41
1.0
 77
0
 78
1
 53
45.0
 43
0.0
 44
0.0
 45
-0.0034798562
 46
0.0034798562
 79
0
 98
0
  0
TEXT
  5
C4
330
17
100
AcDbEntity
  8
S_COLUMNS
100
AcDbText
 10
42.5
 20
33.375
 30
0.0
 40
0.55
  1
B'5
 72
1
 11
42.5
 21
33.375
 31
0.0
100
AcDbText
 73
2
  0
LWPOLYLINE
  5
C5
330
17
100
AcDbEntity
  8
S_COLUMNS
100
AcDbPolyline
 90
4
 70
1
 10
51.375
 20
3.0
 10
52.125
 20
3.0
 10
52.125
 20
4.5
 10
51.375
 20
4.5
  0
HATCH
  5
C6
330
17
100
AcDbEntity
  8
S_COLUMNS_HATCH
 62
7
100
AcDbHatch
 10
0.0
 20
0.0
 30
0.0
210
0.0
220
0.0
230
1.0
  2
SOLID
 70
0
 71
0
 91
1
 92
3
 72
0
 73
1
 93
4
 10
51.375
 20
3.0
 10
52.125
 20
3.0
 10
52.125
 20
4.5
 10
51.375
 20
4.5
 97
0
 75
1
 76
1
 52
0.0
 41
1.0
 77
0
 78
1
 53
45.0
 43
0.0
 44
0.0
 45
-0.0034798562
 46
0.0034798562
 79
0
 98
0
  0
TEXT
  5
C7
330
17
100
AcDbEntity
  8
S_COLUMNS
100
AcDbText
 10
51.75
 20
3.75
 30
0.0
 40
0.55
  1
C1
 72
1
 11
51.75
 21
3.75
 31
0.0
100
AcDbText
 73
2
  0
LWPOLYLINE
  5
C8
330
17
100
AcDbEntity
  8
S_COLUMNS
100
AcDbPolyline
 90
4
 70
1
 10
51.375
 20
19.375
 10
52.125
 20
19.375
 10
52.125
 20
20.875
 10
51.375
 20
20.875
  0
HATCH
  5
C9
330
17
100
AcDbEntity
  8
S_COLUMNS_HATCH
 62
7
100
AcDbHatch
 10
0.0
 20
0.0
 30
0.0
210
0.0
220
0.0
230
1.0
  2
SOLID
 70
0
 71
0
 91
1
 92
3
 72
0
 73
1
 93
4
 10
51.375
 20
19.375
 10
52.125
 20
19.375
 10
52.125
 20
20.875
 10
51.375
 20
20.875
 97
0
 75
1
 76
1
 52
0.0
 41
1.0
 77
0
 78
1
 53
45.0
 43
0.0
 44
0.0
 45
-0.0034798562
 46
0.0034798562
 79
0
 98
0
  0
TEXT
  5
CA
330
17
100
AcDbEntity
  8
S_COLUMNS
100
AcDbText
 10
51.75
 20
20.125
 30
0.0
 40
0.55
  1
C3
 72
1
 11
51.75
 21
20.125
 31
0.0
100
AcDbText
 73
2
  0
LWPOLYLINE
  5
CB
330
17
100
AcDbEntity
  8
S_COLUMNS
100
AcDbPolyline
 90
4
 70
1
 10
51.375
 20
26.75
 10
52.125
 20
26.75
 10
52.125
 20
28.25
 10
51.375
 20
28.25
  0
HATCH
  5
CC
330
17
100
AcDbEntity
  8
S_COLUMNS_HATCH
 62
7
100
AcDbHatch
 10
0.0
 20
0.0
 30
0.0
210
0.0
220
0.0
230
1.0
  2
SOLID
 70
0
 71
0
 91
1
 92
3
 72
0
 73
1
 93
4
 10
51.375
 20
26.75
 10
52.125
 20
26.75
 10
52.125
 20
28.25
 10
51.375
 20
28.25
 97
0
 75
1
 76
1
 52
0.0
 41
1.0
 77
0
 78
1
 53
45.0
 43
0.0
 44
0.0
 45
-0.0034798562
 46
0.0034798562
 79
0
 98
0
  0
TEXT
  5
CD
330
17
100
AcDbEntity
  8
S_COLUMNS
100
AcDbText
 10
51.75
 20
27.5
 30
0.0
 40
0.55
  1
C4
 72
1
 11
51.75
 21
27.5
 31
0.0
100
AcDbText
 73
2
  0
LWPOLYLINE
  5
CE
330
17
100
AcDbEntity
  8
S_COLUMNS
100
AcDbPolyline
 90
4
 70
1
 10
51.375
 20
33.0
 10
52.125
 20
33.0
 10
52.125
 20
34.5
 10
51.375
 20
34.5
  0
HATCH
  5
CF
330
17
100
AcDbEntity
  8
S_COLUMNS_HATCH
 62
7
100
AcDbHatch
 10
0.0
 20
0.0
 30
0.0
210
0.0
220
0.0
230
1.0
  2
SOLID
 70
0
 71
0
 91
1
 92
3
 72
0
 73
1
 93
4
 10
51.375
 20
33.0
 10
52.125
 20
33.0
 10
52.125
 20
34.5
 10
51.375
 20
34.5
 97
0
 75
1
 76
1
 52
0.0
 41
1.0
 77
0
 78
1
 53
45.0
 43
0.0
 44
0.0
 45
-0.0034798562
 46
0.0034798562
 79
0
 98
0
  0
TEXT
  5
D0
330
17
100
AcDbEntity
  8
S_COLUMNS
100
AcDbText
 10
51.75
 20
33.75
 30
0.0
 40
0.55
  1
C5
 72
1
 11
51.75
 21
33.75
 31
0.0
100
AcDbText
 73
2
  0
LWPOLYLINE
  5
D1
330
17
100
AcDbEntity
  8
S_COLUMNS
100
AcDbPolyline
 90
4
 70
1
 10
58.125
 20
41.75
 10
59.625
 20
41.75
 10
59.625
 20
42.5
 10
58.125
 20
42.5
  0
HATCH
  5
D2
330
17
100
AcDbEntity
  8
S_COLUMNS_HATCH
 62
7
100
AcDbHatch
 10
0.0
 20
0.0
 30
0.0
210
0.0
220
0.0
230
1.0
  2
SOLID
 70
0
 71
0
 91
1
 92
3
 72
0
 73
1
 93
4
 10
58.125
 20
41.75
 10
59.625
 20
41.75
 10
59.625
 20
42.5
 10
58.125
 20
42.5
 97
0
 75
1
 76
1
 52
0.0
 41
1.0
 77
0
 78
1
 53
45.0
 43
0.0
 44
0.0
 45
-0.0034798562
 46
0.0034798562
 79
0
 98
0
  0
TEXT
  5
D3
330
17
100
AcDbEntity
  8
S_COLUMNS
100
AcDbText
 10
58.875
 20
42.125
 30
0.0
 40
0.55
  1
C'7
 72
1
 11
58.875
 21
42.125
 31
0.0
100
AcDbText
 73
2
  0
LWPOLYLINE
  5
D4
330
17
100
AcDbEntity
  8
S_COLUMNS
100
AcDbPolyline
 90
4
 70
1
 10
68.625
 20
3.0
 10
69.375
 20
3.0
 10
69.375
 20
4.5
 10
68.625
 20
4.5
  0
HATCH
  5
D5
330
17
100
AcDbEntity
  8
S_COLUMNS_HATCH
 62
7
100
AcDbHatch
 10
0.0
 20
0.0
 30
0.0
210
0.0
220
0.0
230
1.0
  2
SOLID
 70
0
 71
0
 91
1
 92
3
 72
0
 73
1
 93
4
 10
68.625
 20
3.0
 10
69.375
 20
3.0
 10
69.375
 20
4.5
 10
68.625
 20
4.5
 97
0
 75
1
 76
1
 52
0.0
 41
1.0
 77
0
 78
1
 53
45.0
 43
0.0
 44
0.0
 45
-0.0034798562
 46
0.0034798562
 79
0
 98
0
  0
TEXT
  5
D6
330
17
100
AcDbEntity
  8
S_COLUMNS
100
AcDbText
 10
69.0
 20
3.75
 30
0.0
 40
0.55
  1
D1
 72
1
 11
69.0
 21
3.75
 31
0.0
100
AcDbText
 73
2
  0
LWPOLYLINE
  5
D7
330
17
100
AcDbEntity
  8
S_COLUMNS
100
AcDbPolyline
 90
4
 70
1
 10
68.625
 20
19.375
 10
69.375
 20
19.375
 10
69.375
 20
20.875
 10
68.625
 20
20.875
  0
HATCH
  5
D8
330
17
100
AcDbEntity
  8
S_COLUMNS_HATCH
 62
7
100
AcDbHatch
 10
0.0
 20
0.0
 30
0.0
210
0.0
220
0.0
230
1.0
  2
SOLID
 70
0
 71
0
 91
1
 92
3
 72
0
 73
1
 93
4
 10
68.625
 20
19.375
 10
69.375
 20
19.375
 10
69.375
 20
20.875
 10
68.625
 20
20.875
 97
0
 75
1
 76
1
 52
0.0
 41
1.0
 77
0
 78
1
 53
45.0
 43
0.0
 44
0.0
 45
-0.0034798562
 46
0.0034798562
 79
0
 98
0
  0
TEXT
  5
D9
330
17
100
AcDbEntity
  8
S_COLUMNS
100
AcDbText
 10
69.0
 20
20.125
 30
0.0
 40
0.55
  1
D3
 72
1
 11
69.0
 21
20.125
 31
0.0
100
AcDbText
 73
2
  0
LWPOLYLINE
  5
DA
330
17
100
AcDbEntity
  8
S_COLUMNS
100
AcDbPolyline
 90
4
 70
1
 10
68.625
 20
26.75
 10
69.375
 20
26.75
 10
69.375
 20
28.25
 10
68.625
 20
28.25
  0
HATCH
  5
DB
330
17
100
AcDbEntity
  8
S_COLUMNS_HATCH
 62
7
100
AcDbHatch
 10
0.0
 20
0.0
 30
0.0
210
0.0
220
0.0
230
1.0
  2
SOLID
 70
0
 71
0
 91
1
 92
3
 72
0
 73
1
 93
4
 10
68.625
 20
26.75
 10
69.375
 20
26.75
 10
69.375
 20
28.25
 10
68.625
 20
28.25
 97
0
 75
1
 76
1
 52
0.0
 41
1.0
 77
0
 78
1
 53
45.0
 43
0.0
 44
0.0
 45
-0.0034798562
 46
0.0034798562
 79
0
 98
0
  0
TEXT
  5
DC
330
17
100
AcDbEntity
  8
S_COLUMNS
100
AcDbText
 10
69.0
 20
27.5
 30
0.0
 40
0.55
  1
D4
 72
1
 11
69.0
 21
27.5
 31
0.0
100
AcDbText
 73
2
  0
LWPOLYLINE
  5
DD
330
17
100
AcDbEntity
  8
S_COLUMNS
100
AcDbPolyline
 90
4
 70
1
 10
68.625
 20
35.625
 10
70.125
 20
35.625
 10
70.125
 20
36.375
 10
68.625
 20
36.375
  0
HATCH
  5
DE
330
17
100
AcDbEntity
  8
S_COLUMNS_HATCH
 62
7
100
AcDbHatch
 10
0.0
 20
0.0
 30
0.0
210
0.0
220
0.0
230
1.0
  2
SOLID
 70
0
 71
0
 91
1
 92
3
 72
0
 73
1
 93
4
 10
68.625
 20
35.625
 10
70.125
 20
35.625
 10
70.125
 20
36.375
 10
68.625
 20
36.375
 97
0
 75
1
 76
1
 52
0.0
 41
1.0
 77
0
 78
1
 53
45.0
 43
0.0
 44
0.0
 45
-0.0034798562
 46
0.0034798562
 79
0
 98
0
  0
TEXT
  5
DF
330
17
100
AcDbEntity
  8
S_COLUMNS
100
AcDbText
 10
69.375
 20
36.0
 30
0.0
 40
0.55
  1
D6
 72
1
 11
69.375
 21
36.0
 31
0.0
100
AcDbText
 73
2
  0
LWPOLYLINE
  5
E0
330
17
100
AcDbEntity
  8
S_COLUMNS
100
AcDbPolyline
 90
4
 70
1
 10
68.625
 20
41.75
 10
69.375
 20
41.75
 10
69.375
 20
43.25
 10
68.625
 20
43.25
  0
HATCH
  5
E1
330
17
100
AcDbEntity
  8
S_COLUMNS_HATCH
 62
7
100
AcDbHatch
 10
0.0
 20
0.0
 30
0.0
210
0.0
220
0.0
230
1.0
  2
SOLID
 70
0
 71
0
 91
1
 92
3
 72
0
 73
1
 93
4
 10
68.625
 20
41.75
 10
69.375
 20
41.75
 10
69.375
 20
43.25
 10
68.625
 20
43.25
 97
0
 75
1
 76
1
 52
0.0
 41
1.0
 77
0
 78
1
 53
45.0
 43
0.0
 44
0.0
 45
-0.0034798562
 46
0.0034798562
 79
0
 98
0
  0
TEXT
  5
E2
330
17
100
AcDbEntity
  8
S_COLUMNS
100
AcDbText
 10
69.0
 20
42.5
 30
0.0
 40
0.55
  1
D7
 72
1
 11
69.0
 21
42.5
 31
0.0
100
AcDbText
 73
2
  0
LWPOLYLINE
  5
E3
330
17
100
AcDbEntity
  8
S_COLUMNS
100
AcDbPolyline
 90
4
 70
1
 10
68.625
 20
48.25
 10
69.375
 20
48.25
 10
69.375
 20
49.75
 10
68.625
 20
49.75
  0
HATCH
  5
E4
330
17
100
AcDbEntity
  8
S_COLUMNS_HATCH
 62
7
100
AcDbHatch
 10
0.0
 20
0.0
 30
0.0
210
0.0
220
0.0
230
1.0
  2
SOLID
 70
0
 71
0
 91
1
 92
3
 72
0
 73
1
 93
4
 10
68.625
 20
48.25
 10
69.375
 20
48.25
 10
69.375
 20
49.75
 10
68.625
 20
49.75
 97
0
 75
1
 76
1
 52
0.0
 41
1.0
 77
0
 78
1
 53
45.0
 43
0.0
 44
0.0
 45
-0.0034798562
 46
0.0034798562
 79
0
 98
0
  0
TEXT
  5
E5
330
17
100
AcDbEntity
  8
S_COLUMNS
100
AcDbText
 10
69.0
 20
49.0
 30
0.0
 40
0.55
  1
D7A
 72
1
 11
69.0
 21
49.0
 31
0.0
100
AcDbText
 73
2
  0
LWPOLYLINE
  5
E6
330
17
100
AcDbEntity
  8
S_COLUMNS
100
AcDbPolyline
 90
4
 70
1
 10
84.375
 20
3.0
 10
85.125
 20
3.0
 10
85.125
 20
4.5
 10
84.375
 20
4.5
  0
HATCH
  5
E7
330
17
100
AcDbEntity
  8
S_COLUMNS_HATCH
 62
7
100
AcDbHatch
 10
0.0
 20
0.0
 30
0.0
210
0.0
220
0.0
230
1.0
  2
SOLID
 70
0
 71
0
 91
1
 92
3
 72
0
 73
1
 93
4
 10
84.375
 20
3.0
 10
85.125
 20
3.0
 10
85.125
 20
4.5
 10
84.375
 20
4.5
 97
0
 75
1
 76
1
 52
0.0
 41
1.0
 77
0
 78
1
 53
45.0
 43
0.0
 44
0.0
 45
-0.0034798562
 46
0.0034798562
 79
0
 98
0
  0
TEXT
  5
E8
330
17
100
AcDbEntity
  8
S_COLUMNS
100
AcDbText
 10
84.75
 20
3.75
 30
0.0
 40
0.55
  1
E1
 72
1
 11
84.75
 21
3.75
 31
0.0
100
AcDbText
 73
2
  0
LWPOLYLINE
  5
E9
330
17
100
AcDbEntity
  8
S_COLUMNS
100
AcDbPolyline
 90
4
 70
1
 10
84.375
 20
19.375
 10
85.125
 20
19.375
 10
85.125
 20
20.875
 10
84.375
 20
20.875
  0
HATCH
  5
EA
330
17
100
AcDbEntity
  8
S_COLUMNS_HATCH
 62
7
100
AcDbHatch
 10
0.0
 20
0.0
 30
0.0
210
0.0
220
0.0
230
1.0
  2
SOLID
 70
0
 71
0
 91
1
 92
3
 72
0
 73
1
 93
4
 10
84.375
 20
19.375
 10
85.125
 20
19.375
 10
85.125
 20
20.875
 10
84.375
 20
20.875
 97
0
 75
1
 76
1
 52
0.0
 41
1.0
 77
0
 78
1
 53
45.0
 43
0.0
 44
0.0
 45
-0.0034798562
 46
0.0034798562
 79
0
 98
0
  0
TEXT
  5
EB
330
17
100
AcDbEntity
  8
S_COLUMNS
100
AcDbText
 10
84.75
 20
20.125
 30
0.0
 40
0.55
  1
E3
 72
1
 11
84.75
 21
20.125
 31
0.0
100
AcDbText
 73
2
  0
LWPOLYLINE
  5
EC
330
17
100
AcDbEntity
  8
S_COLUMNS
100
AcDbPolyline
 90
4
 70
1
 10
84.375
 20
27.125
 10
85.125
 20
27.125
 10
85.125
 20
28.625
 10
84.375
 20
28.625
  0
HATCH
  5
ED
330
17
100
AcDbEntity
  8
S_COLUMNS_HATCH
 62
7
100
AcDbHatch
 10
0.0
 20
0.0
 30
0.0
210
0.0
220
0.0
230
1.0
  2
SOLID
 70
0
 71
0
 91
1
 92
3
 72
0
 73
1
 93
4
 10
84.375
 20
27.125
 10
85.125
 20
27.125
 10
85.125
 20
28.625
 10
84.375
 20
28.625
 97
0
 75
1
 76
1
 52
0.0
 41
1.0
 77
0
 78
1
 53
45.0
 43
0.0
 44
0.0
 45
-0.0034798562
 46
0.0034798562
 79
0
 98
0
  0
TEXT
  5
EE
330
17
100
AcDbEntity
  8
S_COLUMNS
100
AcDbText
 10
84.75
 20
27.875
 30
0.0
 40
0.55
  1
E4
 72
1
 11
84.75
 21
27.875
 31
0.0
100
AcDbText
 73
2
  0
LWPOLYLINE
  5
EF
330
17
100
AcDbEntity
  8
S_COLUMNS
100
AcDbPolyline
 90
4
 70
1
 10
84.375
 20
35.25
 10
85.125
 20
35.25
 10
85.125
 20
36.75
 10
84.375
 20
36.75
  0
HATCH
  5
F0
330
17
100
AcDbEntity
  8
S_COLUMNS_HATCH
 62
7
100
AcDbHatch
 10
0.0
 20
0.0
 30
0.0
210
0.0
220
0.0
230
1.0
  2
SOLID
 70
0
 71
0
 91
1
 92
3
 72
0
 73
1
 93
4
 10
84.375
 20
35.25
 10
85.125
 20
35.25
 10
85.125
 20
36.75
 10
84.375
 20
36.75
 97
0
 75
1
 76
1
 52
0.0
 41
1.0
 77
0
 78
1
 53
45.0
 43
0.0
 44
0.0
 45
-0.0034798562
 46
0.0034798562
 79
0
 98
0
  0
TEXT
  5
F1
330
17
100
AcDbEntity
  8
S_COLUMNS
100
AcDbText
 10
84.75
 20
36.0
 30
0.0
 40
0.55
  1
E6
 72
1
 11
84.75
 21
36.0
 31
0.0
100
AcDbText
 73
2
  0
LWPOLYLINE
  5
F2
330
17
100
AcDbEntity
  8
S_COLUMNS
100
AcDbPolyline
 90
4
 70
1
 10
84.375
 20
45.75
 10
85.125
 20
45.75
 10
85.125
 20
47.25
 10
84.375
 20
47.25
  0
HATCH
  5
F3
330
17
100
AcDbEntity
  8
S_COLUMNS_HATCH
 62
7
100
AcDbHatch
 10
0.0
 20
0.0
 30
0.0
210
0.0
220
0.0
230
1.0
  2
SOLID
 70
0
 71
0
 91
1
 92
3
 72
0
 73
1
 93
4
 10
84.375
 20
45.75
 10
85.125
 20
45.75
 10
85.125
 20
47.25
 10
84.375
 20
47.25
 97
0
 75
1
 76
1
 52
0.0
 41
1.0
 77
0
 78
1
 53
45.0
 43
0.0
 44
0.0
 45
-0.0034798562
 46
0.0034798562
 79
0
 98
0
  0
TEXT
  5
F4
330
17
100
AcDbEntity
  8
S_COLUMNS
100
AcDbText
 10
84.75
 20
46.5
 30
0.0
 40
0.55
  1
E7E
 72
1
 11
84.75
 21
46.5
 31
0.0
100
AcDbText
 73
2
  0
LWPOLYLINE
  5
F5
330
17
100
AcDbEntity
  8
S_COLUMNS
100
AcDbPolyline
 90
4
 70
1
 10
84.375
 20
54.35
 10
85.125
 20
54.35
 10
85.125
 20
55.85
 10
84.375
 20
55.85
  0
HATCH
  5
F6
330
17
100
AcDbEntity
  8
S_COLUMNS_HATCH
 62
7
100
AcDbHatch
 10
0.0
 20
0.0
 30
0.0
210
0.0
220
0.0
230
1.0
  2
SOLID
 70
0
 71
0
 91
1
 92
3
 72
0
 73
1
 93
4
 10
84.375
 20
54.35
 10
85.125
 20
54.35
 10
85.125
 20
55.85
 10
84.375
 20
55.85
 97
0
 75
1
 76
1
 52
0.0
 41
1.0
 77
0
 78
1
 53
45.0
 43
0.0
 44
0.0
 45
-0.0034798562
 46
0.0034798562
 79
0
 98
0
  0
TEXT
  5
F7
330
17
100
AcDbEntity
  8
S_COLUMNS
100
AcDbText
 10
84.75
 20
55.1
 30
0.0
 40
0.55
  1
E8
 72
1
 11
84.75
 21
55.1
 31
0.0
100
AcDbText
 73
2
  0
LWPOLYLINE
  5
F8
330
17
100
AcDbEntity
  8
A_WALLS
100
AcDbPolyline
 90
4
 70
1
 10
36.125
 20
3.0
 10
85.125
 20
3.0
 10
85.125
 20
3.75
 10
36.125
 20
3.75
  0
LWPOLYLINE
  5
F9
330
17
100
AcDbEntity
  8
A_WALLS
100
AcDbPolyline
 90
4
 70
1
 10
36.125
 20
3.0
 10
36.875
 20
3.0
 10
36.875
 20
30.294
 10
36.125
 20
30.294
  0
LWPOLYLINE
  5
FA
330
17
100
AcDbEntity
  8
A_WALLS
100
AcDbPolyline
 90
4
 70
1
 10
41.48
 20
33.0
 10
51.375
 20
33.0
 10
51.375
 20
33.75
 10
41.48
 20
33.75
  0
LWPOLYLINE
  5
FB
330
17
100
AcDbEntity
  8
A_WALLS
100
AcDbPolyline
 90
4
 70
1
 10
51.375
 20
3.75
 10
52.125
 20
3.75
 10
52.125
 20
19.75
 10
51.375
 20
19.75
  0
LWPOLYLINE
  5
FC
330
17
100
AcDbEntity
  8
A_WALLS
100
AcDbPolyline
 90
4
 70
1
 10
51.375
 20
20.5
 10
52.125
 20
20.5
 10
52.125
 20
33.0
 10
51.375
 20
33.0
  0
LWPOLYLINE
  5
FD
330
17
100
AcDbEntity
  8
A_WALLS
100
AcDbPolyline
 90
4
 70
1
 10
51.375
 20
33.0
 10
52.125
 20
33.0
 10
52.125
 20
39.059
 10
51.375
 20
39.059
  0
LWPOLYLINE
  5
FE
330
17
100
AcDbEntity
  8
A_WALLS
100
AcDbPolyline
 90
4
 70
1
 10
57.953
 20
41.75
 10
68.625
 20
41.75
 10
68.625
 20
42.5
 10
57.953
 20
42.5
  0
LWPOLYLINE
  5
FF
330
17
100
AcDbEntity
  8
A_WALLS
100
AcDbPolyline
 90
4
 70
1
 10
68.625
 20
3.75
 10
69.375
 20
3.75
 10
69.375
 20
19.75
 10
68.625
 20
19.75
  0
LWPOLYLINE
  5
100
330
17
100
AcDbEntity
  8
A_WALLS
100
AcDbPolyline
 90
4
 70
1
 10
68.625
 20
20.5
 10
69.375
 20
20.5
 10
69.375
 20
28.25
 10
68.625
 20
28.25
  0
LWPOLYLINE
  5
101
330
17
100
AcDbEntity
  8
A_WALLS
100
AcDbPolyline
 90
4
 70
1
 10
68.625
 20
35.625
 10
69.375
 20
35.625
 10
69.375
 20
49.763
 10
68.625
 20
49.763
  0
LWPOLYLINE
  5
102
330
17
100
AcDbEntity
  8
A_WALLS
100
AcDbPolyline
 90
4
 70
1
 10
84.375
 20
3.75
 10
85.125
 20
3.75
 10
85.125
 20
55.861
 10
84.375
 20
55.861
  0
LWPOLYLINE
  5
103
330
17
100
AcDbEntity
  8
A_WALLS
100
AcDbPolyline
 90
4
 70
1
 10
36.875
 20
19.75
 10
84.375
 20
19.75
 10
84.375
 20
20.5
 10
36.875
 20
20.5
  0
LWPOLYLINE
  5
104
330
17
100
AcDbEntity
  8
A_WALLS
100
AcDbPolyline
 90
4
 70
1
 10
36.875
 20
26.375
 10
45.375
 20
26.375
 10
45.375
 20
26.75
 10
36.875
 20
26.75
  0
LWPOLYLINE
  5
105
330
17
100
AcDbEntity
  8
A_WALLS
100
AcDbPolyline
 90
4
 70
1
 10
45.0
 20
26.75
 10
45.375
 20
26.75
 10
45.375
 20
33.0
 10
45.0
 20
33.0
  0
LWPOLYLINE
  5
106
330
17
100
AcDbEntity
  8
A_WALLS
100
AcDbPolyline
 90
4
 70
1
 10
72.625
 20
27.5
 10
84.375
 20
27.5
 10
84.375
 20
28.25
 10
72.625
 20
28.25
  0
LWPOLYLINE
  5
107
330
17
100
AcDbEntity
  8
A_WALLS
100
AcDbPolyline
 90
4
 70
1
 10
69.375
 20
35.625
 10
84.375
 20
35.625
 10
84.375
 20
36.375
 10
69.375
 20
36.375
  0
LWPOLYLINE
  5
108
330
17
100
AcDbEntity
  8
A_WALLS
100
AcDbPolyline
 90
4
 70
1
 10
69.375
 20
46.125
 10
84.375
 20
46.125
 10
84.375
 20
46.875
 10
69.375
 20
46.875
  0
LWPOLYLINE
  5
109
330
17
100
AcDbEntity
  8
A_WALLS
100
AcDbPolyline
 90
4
 70
1
 10
78.5
 20
20.5
 10
78.875
 20
20.5
 10
78.875
 20
27.5
 10
78.5
 20
27.5
  0
LWPOLYLINE
  5
10A
330
17
100
AcDbEntity
  8
A_WALLS
100
AcDbPolyline
 90
4
 70
1
 10
41.75
 20
26.75
 10
42.125
 20
26.75
 10
42.125
 20
33.0
 10
41.75
 20
33.0
  0
LWPOLYLINE
  5
10B
330
17
100
AcDbEntity
  8
A_WALLS
100
AcDbPolyline
 90
4
 70
1
 10
56.75
 20
20.5
 10
57.125
 20
20.5
 10
57.125
 20
26.5
 10
56.75
 20
26.5
  0
LWPOLYLINE
  5
10C
330
17
100
AcDbEntity
  8
A_WALLS
100
AcDbPolyline
 90
4
 70
1
 10
61.75
 20
20.5
 10
62.125
 20
20.5
 10
62.125
 20
26.5
 10
61.75
 20
26.5
  0
LWPOLYLINE
  5
10D
330
17
100
AcDbEntity
  8
A_WALLS
100
AcDbPolyline
 90
4
 70
1
 10
56.75
 20
26.125
 10
68.625
 20
26.125
 10
68.625
 20
26.5
 10
56.75
 20
26.5
  0
LWPOLYLINE
  5
10E
330
17
100
AcDbEntity
  8
A_WALLS
100
AcDbPolyline
 90
4
 70
1
 10
72.625
 20
31.75
 10
80.875
 20
31.75
 10
80.875
 20
32.125
 10
72.625
 20
32.125
  0
LWPOLYLINE
  5
10F
330
17
100
AcDbEntity
  8
A_WALLS
100
AcDbPolyline
 90
8
 70
1
 10
41.48
 20
33.74986453424604
 10
41.48
 20
33.0
 10
41.70119115527401
 20
33.0
 10
36.875
 20
29.885636872726227
 10
36.875
 20
30.294
 10
36.125
 20
30.294
 10
36.125
 20
30.294258651680426
 10
41.48
 20
33.74986453424604
  0
LWPOLYLINE
  5
110
330
17
100
AcDbEntity
  8
A_WALLS
100
AcDbPolyline
 90
8
 70
1
 10
57.953
 20
42.49987159636861
 10
57.953
 20
41.75
 10
58.13754288549904
 20
41.75
 10
52.125
 20
38.60518343864745
 10
52.125
 20
39.059
 10
51.375
 20
39.059
 10
51.375
 20
39.059296828832444
 10
57.953
 20
42.49987159636861
  0
LWPOLYLINE
  5
111
330
17
100
AcDbEntity
  8
A_WALLS
100
AcDbPolyline
 90
5
 70
1
 10
68.625
 20
50.2677
 10
85.125
 20
56.9752
 10
84.375
 20
55.8607
 10
69.375
 20
49.763
 10
68.625
 20
50.2677
  0
LWPOLYLINE
  5
112
330
17
100
AcDbEntity
  8
A_WALLS
100
AcDbPolyline
 90
5
 70
1
 10
42.246603264305996
 20
33.65143280257528
 10
42.753396735694004
 20
33.09856719742472
 10
36.753396735694004
 20
27.59856719742472
 10
36.246603264305996
 20
28.15143280257528
 10
42.246603264305996
 20
33.65143280257528
  0
LWPOLYLINE
  5
113
330
17
100
AcDbEntity
  8
A_WALLS
100
AcDbPolyline
 90
5
 70
1
 10
58.58421155246928
 20
42.36178487870359
 10
59.16578844753072
 20
41.88821512129641
 10
52.04078844753072
 20
33.13821512129641
 10
51.45921155246928
 20
33.61178487870359
 10
58.58421155246928
 20
42.36178487870359
  0
LWPOLYLINE
  5
114
330
17
100
AcDbEntity
  8
A_WALLS
100
AcDbPolyline
 90
5
 70
1
 10
84.61456492621257
 20
55.44968892002492
 10
84.88543507378743
 20
54.750311079975084
 10
69.13543507378743
 20
48.65031107997508
 10
68.86456492621257
 20
49.34968892002492
 10
84.61456492621257
 20
55.44968892002492
  0
LWPOLYLINE
  5
115
330
17
100
AcDbEntity
  8
A_WALLS
100
AcDbPolyline
 90
5
 70
1
 10
84.64963355108021
 20
46.86131921611123
 10
84.85036644891979
 20
46.13868078388877
 10
69.10036644891979
 20
41.76368078388877
 10
68.89963355108021
 20
42.48631921611123
 10
84.64963355108021
 20
46.86131921611123
  0
LWPOLYLINE
  5
116
330
17
100
AcDbEntity
  8
A_WALLS
100
AcDbPolyline
 90
15
 70
1
 10
51.375
 20
3.0
 10
36.125
 20
3.0
 10
36.125
 20
30.294258651680426
 10
41.480209925303136
 20
33.75
 10
51.375
 20
33.75
 10
51.375
 20
39.059296828832444
 10
57.95324549360045
 20
42.5
 10
68.625
 20
42.5
 10
68.625
 20
50.26774589095992
 10
85.125
 20
56.97515219620963
 10
85.125
 20
3.0
 10
69.375
 20
3.0
 10
68.625
 20
3.0
 10
52.125
 20
3.0
 10
51.375
 20
3.0
  0
LINE
  5
117
330
17
100
AcDbEntity
  8
A_WINDOWS
100
AcDbLine
 10
40.625
 20
3.0
 30
0.0
 11
47.625
 21
3.0
 31
0.0
  0
LINE
  5
118
330
17
100
AcDbEntity
  8
A_WINDOWS
100
AcDbLine
 10
40.625
 20
3.75
 30
0.0
 11
47.625
 21
3.75
 31
0.0
  0
LINE
  5
119
330
17
100
AcDbEntity
  8
A_WINDOWS
100
AcDbLine
 10
40.625
 20
3.375
 30
0.0
 11
47.625
 21
3.375
 31
0.0
  0
TEXT
  5
11A
330
17
100
AcDbEntity
  8
A_WINDOWS
100
AcDbText
 10
44.125
 20
4.075
 30
0.0
 40
0.6
  1
W1
 72
1
 11
44.125
 21
4.075
 31
0.0
100
AcDbText
 73
2
  0
LINE
  5
11B
330
17
100
AcDbEntity
  8
A_DOORS
100
AcDbLine
 10
53.5
 20
3.375
 30
0.0
 11
53.5
 21
-0.125
 31
0.0
  0
ARC
  5
11C
330
17
100
AcDbEntity
  8
A_DOORS
100
AcDbCircle
 10
53.5
 20
3.375
 30
0.0
 40
3.5
100
AcDbArc
 50
270.0
 51
360.0
  0
TEXT
  5
11D
330
17
100
AcDbEntity
  8
A_DOORS
100
AcDbText
 10
54.0
 20
3.875
 30
0.0
 40
0.6
  1
D-guest
 72
1
 11
54.0
 21
3.875
 31
0.0
100
AcDbText
 73
2
  0
LINE
  5
11E
330
17
100
AcDbEntity
  8
A_WINDOWS
100
AcDbLine
 10
59.0
 20
3.0
 30
0.0
 11
67.0
 21
3.0
 31
0.0
  0
LINE
  5
11F
330
17
100
AcDbEntity
  8
A_WINDOWS
100
AcDbLine
 10
59.0
 20
3.75
 30
0.0
 11
67.0
 21
3.75
 31
0.0
  0
LINE
  5
120
330
17
100
AcDbEntity
  8
A_WINDOWS
100
AcDbLine
 10
59.0
 20
3.375
 30
0.0
 11
67.0
 21
3.375
 31
0.0
  0
TEXT
  5
121
330
17
100
AcDbEntity
  8
A_WINDOWS
100
AcDbText
 10
63.0
 20
4.075
 30
0.0
 40
0.6
  1
W2
 72
1
 11
63.0
 21
4.075
 31
0.0
100
AcDbText
 73
2
  0
LINE
  5
122
330
17
100
AcDbEntity
  8
A_WINDOWS
100
AcDbLine
 10
73.375
 20
3.0
 30
0.0
 11
80.375
 21
3.0
 31
0.0
  0
LINE
  5
123
330
17
100
AcDbEntity
  8
A_WINDOWS
100
AcDbLine
 10
73.375
 20
3.75
 30
0.0
 11
80.375
 21
3.75
 31
0.0
  0
LINE
  5
124
330
17
100
AcDbEntity
  8
A_WINDOWS
100
AcDbLine
 10
73.375
 20
3.375
 30
0.0
 11
80.375
 21
3.375
 31
0.0
  0
TEXT
  5
125
330
17
100
AcDbEntity
  8
A_WINDOWS
100
AcDbText
 10
76.875
 20
4.075
 30
0.0
 40
0.6
  1
W1
 72
1
 11
76.875
 21
4.075
 31
0.0
100
AcDbText
 73
2
  0
LINE
  5
126
330
17
100
AcDbEntity
  8
A_DOORS
100
AcDbLine
 10
22.0
 20
36.5
 30
0.0
 11
26.5
 21
36.5
 31
0.0
  0
ARC
  5
127
330
17
100
AcDbEntity
  8
A_DOORS
100
AcDbCircle
 10
22.0
 20
36.5
 30
0.0
 40
4.5
100
AcDbArc
 50
0.0
 51
90.0
  0
TEXT
  5
128
330
17
100
AcDbEntity
  8
A_DOORS
100
AcDbText
 10
22.5
 20
37.0
 30
0.0
 40
0.6
  1
MAIN ENTRANCE
 72
1
 11
22.5
 21
37.0
 31
0.0
100
AcDbText
 73
2
  0
LINE
  5
129
330
17
100
AcDbEntity
  8
A_WINDOWS
100
AcDbLine
 10
36.25
 20
28.75
 30
0.0
 11
36.25
 21
30.25
 31
0.0
  0
LINE
  5
12A
330
17
100
AcDbEntity
  8
A_WINDOWS
100
AcDbLine
 10
36.75
 20
28.75
 30
0.0
 11
36.75
 21
30.25
 31
0.0
  0
TEXT
  5
12B
330
17
100
AcDbEntity
  8
A_WINDOWS
100
AcDbText
 10
37.1
 20
29.5
 30
0.0
 40
0.5
  1
V
 72
1
 11
37.1
 21
29.5
 31
0.0
100
AcDbText
 73
2
  0
LINE
  5
12C
330
17
100
AcDbEntity
  8
A_WINDOWS
100
AcDbLine
 10
61.6875
 20
22.5
 30
0.0
 11
61.6875
 21
24.5
 31
0.0
  0
LINE
  5
12D
330
17
100
AcDbEntity
  8
A_WINDOWS
100
AcDbLine
 10
62.1875
 20
22.5
 30
0.0
 11
62.1875
 21
24.5
 31
0.0
  0
TEXT
  5
12E
330
17
100
AcDbEntity
  8
A_WINDOWS
100
AcDbText
 10
62.5375
 20
23.5
 30
0.0
 40
0.5
  1
V
 72
1
 11
62.5375
 21
23.5
 31
0.0
100
AcDbText
 73
2
  0
LINE
  5
12F
330
17
100
AcDbEntity
  8
A_WINDOWS
100
AcDbLine
 10
57.5
 20
25.9375
 30
0.0
 11
61.0
 21
25.9375
 31
0.0
  0
LINE
  5
130
330
17
100
AcDbEntity
  8
A_WINDOWS
100
AcDbLine
 10
57.5
 20
26.6875
 30
0.0
 11
61.0
 21
26.6875
 31
0.0
  0
LINE
  5
131
330
17
100
AcDbEntity
  8
A_WINDOWS
100
AcDbLine
 10
57.5
 20
26.3125
 30
0.0
 11
61.0
 21
26.3125
 31
0.0
  0
TEXT
  5
132
330
17
100
AcDbEntity
  8
A_WINDOWS
100
AcDbText
 10
59.25
 20
27.0125
 30
0.0
 40
0.6
  1
W-COURT
 72
1
 11
59.25
 21
27.0125
 31
0.0
100
AcDbText
 73
2
  0
LINE
  5
133
330
17
100
AcDbEntity
  8
A_WINDOWS
100
AcDbLine
 10
84.5
 20
22.5
 30
0.0
 11
84.5
 21
24.5
 31
0.0
  0
LINE
  5
134
330
17
100
AcDbEntity
  8
A_WINDOWS
100
AcDbLine
 10
85.0
 20
22.5
 30
0.0
 11
85.0
 21
24.5
 31
0.0
  0
TEXT
  5
135
330
17
100
AcDbEntity
  8
A_WINDOWS
100
AcDbText
 10
85.35
 20
23.5
 30
0.0
 40
0.5
  1
V
 72
1
 11
85.35
 21
23.5
 31
0.0
100
AcDbText
 73
2
  0
LINE
  5
136
330
17
100
AcDbEntity
  8
A_WINDOWS
100
AcDbLine
 10
84.375
 20
29.5
 30
0.0
 11
84.375
 21
34.5
 31
0.0
  0
LINE
  5
137
330
17
100
AcDbEntity
  8
A_WINDOWS
100
AcDbLine
 10
85.125
 20
29.5
 30
0.0
 11
85.125
 21
34.5
 31
0.0
  0
LINE
  5
138
330
17
100
AcDbEntity
  8
A_WINDOWS
100
AcDbLine
 10
84.75
 20
29.5
 30
0.0
 11
84.75
 21
34.5
 31
0.0
  0
TEXT
  5
139
330
17
100
AcDbEntity
  8
A_WINDOWS
100
AcDbText
 10
85.45
 20
32.0
 30
0.0
 40
0.6
  1
STAIR-GL
 72
1
 11
85.45
 21
32.0
 31
0.0
100
AcDbText
 73
2
  0
LINE
  5
13A
330
17
100
AcDbEntity
  8
A_WINDOWS
100
AcDbLine
 10
84.375
 20
38.0
 30
0.0
 11
84.375
 21
43.5
 31
0.0
  0
LINE
  5
13B
330
17
100
AcDbEntity
  8
A_WINDOWS
100
AcDbLine
 10
85.125
 20
38.0
 30
0.0
 11
85.125
 21
43.5
 31
0.0
  0
LINE
  5
13C
330
17
100
AcDbEntity
  8
A_WINDOWS
100
AcDbLine
 10
84.75
 20
38.0
 30
0.0
 11
84.75
 21
43.5
 31
0.0
  0
TEXT
  5
13D
330
17
100
AcDbEntity
  8
A_WINDOWS
100
AcDbText
 10
85.45
 20
40.75
 30
0.0
 40
0.6
  1
KW
 72
1
 11
85.45
 21
40.75
 31
0.0
100
AcDbText
 73
2
  0
LINE
  5
13E
330
17
100
AcDbEntity
  8
A_DOORS
100
AcDbLine
 10
48.0
 20
84.75
 30
0.0
 11
51.0
 21
84.75
 31
0.0
  0
ARC
  5
13F
330
17
100
AcDbEntity
  8
A_DOORS
100
AcDbCircle
 10
48.0
 20
84.75
 30
0.0
 40
3.0
100
AcDbArc
 50
0.0
 51
90.0
  0
TEXT
  5
140
330
17
100
AcDbEntity
  8
A_DOORS
100
AcDbText
 10
48.5
 20
85.25
 30
0.0
 40
0.6
  1
D-COURT
 72
1
 11
48.5
 21
85.25
 31
0.0
100
AcDbText
 73
2
  0
LINE
  5
141
330
17
100
AcDbEntity
  8
A_WINDOWS
100
AcDbLine
 10
84.5
 20
51.5
 30
0.0
 11
84.5
 21
53.5
 31
0.0
  0
LINE
  5
142
330
17
100
AcDbEntity
  8
A_WINDOWS
100
AcDbLine
 10
85.0
 20
51.5
 30
0.0
 11
85.0
 21
53.5
 31
0.0
  0
TEXT
  5
143
330
17
100
AcDbEntity
  8
A_WINDOWS
100
AcDbText
 10
85.35
 20
52.5
 30
0.0
 40
0.5
  1
V
 72
1
 11
85.35
 21
52.5
 31
0.0
100
AcDbText
 73
2
  0
LINE
  5
144
330
17
100
AcDbEntity
  8
A_WINDOWS
100
AcDbLine
 10
51.375
 20
35.0
 30
0.0
 11
51.375
 21
38.25
 31
0.0
  0
LINE
  5
145
330
17
100
AcDbEntity
  8
A_WINDOWS
100
AcDbLine
 10
52.125
 20
35.0
 30
0.0
 11
52.125
 21
38.25
 31
0.0
  0
LINE
  5
146
330
17
100
AcDbEntity
  8
A_WINDOWS
100
AcDbLine
 10
51.75
 20
35.0
 30
0.0
 11
51.75
 21
38.25
 31
0.0
  0
TEXT
  5
147
330
17
100
AcDbEntity
  8
A_WINDOWS
100
AcDbText
 10
52.45
 20
36.625
 30
0.0
 40
0.6
  1
SL
 72
1
 11
52.45
 21
36.625
 31
0.0
100
AcDbText
 73
2
  0
LINE
  5
148
330
17
100
AcDbEntity
  8
A_WINDOWS
100
AcDbLine
 10
60.25
 20
41.75
 30
0.0
 11
67.25
 21
41.75
 31
0.0
  0
LINE
  5
149
330
17
100
AcDbEntity
  8
A_WINDOWS
100
AcDbLine
 10
60.25
 20
42.5
 30
0.0
 11
67.25
 21
42.5
 31
0.0
  0
LINE
  5
14A
330
17
100
AcDbEntity
  8
A_WINDOWS
100
AcDbLine
 10
60.25
 20
42.125
 30
0.0
 11
67.25
 21
42.125
 31
0.0
  0
TEXT
  5
14B
330
17
100
AcDbEntity
  8
A_WINDOWS
100
AcDbText
 10
63.75
 20
42.825
 30
0.0
 40
0.6
  1
W3
 72
1
 11
63.75
 21
42.825
 31
0.0
100
AcDbText
 73
2
  0
LINE
  5
14C
330
17
100
AcDbEntity
  8
A_DOORS
100
AcDbLine
 10
47.0
 20
20.125
 30
0.0
 11
47.0
 21
16.625
 31
0.0
  0
ARC
  5
14D
330
17
100
AcDbEntity
  8
A_DOORS
100
AcDbCircle
 10
47.0
 20
20.125
 30
0.0
 40
3.5
100
AcDbArc
 50
270.0
 51
360.0
  0
TEXT
  5
14E
330
17
100
AcDbEntity
  8
A_DOORS
100
AcDbText
 10
47.5
 20
20.625
 30
0.0
 40
0.6
  1
D2
 72
1
 11
47.5
 21
20.625
 31
0.0
100
AcDbText
 73
2
  0
LINE
  5
14F
330
17
100
AcDbEntity
  8
A_DOORS
100
AcDbLine
 10
42.0
 20
26.5
 30
0.0
 11
42.0
 21
29.0
 31
0.0
  0
ARC
  5
150
330
17
100
AcDbEntity
  8
A_DOORS
100
AcDbCircle
 10
42.0
 20
26.5
 30
0.0
 40
2.5
100
AcDbArc
 50
0.0
 51
90.0
  0
TEXT
  5
151
330
17
100
AcDbEntity
  8
A_DOORS
100
AcDbText
 10
42.5
 20
27.0
 30
0.0
 40
0.6
  1
D2
 72
1
 11
42.5
 21
27.0
 31
0.0
100
AcDbText
 73
2
  0
LINE
  5
152
330
17
100
AcDbEntity
  8
A_DOORS
100
AcDbLine
 10
28.5
 20
41.9375
 30
0.0
 11
31.0
 21
41.9375
 31
0.0
  0
ARC
  5
153
330
17
100
AcDbEntity
  8
A_DOORS
100
AcDbCircle
 10
28.5
 20
41.9375
 30
0.0
 40
2.5
100
AcDbArc
 50
0.0
 51
90.0
  0
TEXT
  5
154
330
17
100
AcDbEntity
  8
A_DOORS
100
AcDbText
 10
29.0
 20
42.4375
 30
0.0
 40
0.6
  1
D3
 72
1
 11
29.0
 21
42.4375
 31
0.0
100
AcDbText
 73
2
  0
LINE
  5
155
330
17
100
AcDbEntity
  8
A_DOORS
100
AcDbLine
 10
63.5
 20
20.125
 30
0.0
 11
63.5
 21
22.625
 31
0.0
  0
ARC
  5
156
330
17
100
AcDbEntity
  8
A_DOORS
100
AcDbCircle
 10
63.5
 20
20.125
 30
0.0
 40
2.5
100
AcDbArc
 50
0.0
 51
90.0
  0
TEXT
  5
157
330
17
100
AcDbEntity
  8
A_DOORS
100
AcDbText
 10
64.0
 20
20.625
 30
0.0
 40
0.6
  1
D3
 72
1
 11
64.0
 21
20.625
 31
0.0
100
AcDbText
 73
2
  0
LINE
  5
158
330
17
100
AcDbEntity
  8
A_DOORS
100
AcDbLine
 10
53.0
 20
20.125
 30
0.0
 11
53.0
 21
23.625
 31
0.0
  0
ARC
  5
159
330
17
100
AcDbEntity
  8
A_DOORS
100
AcDbCircle
 10
53.0
 20
20.125
 30
0.0
 40
3.5
100
AcDbArc
 50
0.0
 51
90.0
  0
TEXT
  5
15A
330
17
100
AcDbEntity
  8
A_DOORS
100
AcDbText
 10
53.5
 20
20.625
 30
0.0
 40
0.6
  1
D1
 72
1
 11
53.5
 21
20.625
 31
0.0
100
AcDbText
 73
2
  0
LINE
  5
15B
330
17
100
AcDbEntity
  8
A_DOORS
100
AcDbLine
 10
41.0
 20
69.0
 30
0.0
 11
44.5
 21
69.0
 31
0.0
  0
ARC
  5
15C
330
17
100
AcDbEntity
  8
A_DOORS
100
AcDbCircle
 10
41.0
 20
69.0
 30
0.0
 40
3.5
100
AcDbArc
 50
0.0
 51
90.0
  0
TEXT
  5
15D
330
17
100
AcDbEntity
  8
A_DOORS
100
AcDbText
 10
41.5
 20
69.5
 30
0.0
 40
0.6
  1
D1
 72
1
 11
41.5
 21
69.5
 31
0.0
100
AcDbText
 73
2
  0
LINE
  5
15E
330
17
100
AcDbEntity
  8
A_DOORS
100
AcDbLine
 10
74.0
 20
46.5
 30
0.0
 11
74.0
 21
49.5
 31
0.0
  0
ARC
  5
15F
330
17
100
AcDbEntity
  8
A_DOORS
100
AcDbCircle
 10
74.0
 20
46.5
 30
0.0
 40
3.0
100
AcDbArc
 50
0.0
 51
90.0
  0
TEXT
  5
160
330
17
100
AcDbEntity
  8
A_DOORS
100
AcDbText
 10
74.5
 20
47.0
 30
0.0
 40
0.6
  1
D2
 72
1
 11
74.5
 21
47.0
 31
0.0
100
AcDbText
 73
2
  0
LINE
  5
161
330
17
100
AcDbEntity
  8
A_DOORS
100
AcDbLine
 10
70.0
 20
20.125
 30
0.0
 11
70.0
 21
16.625
 31
0.0
  0
ARC
  5
162
330
17
100
AcDbEntity
  8
A_DOORS
100
AcDbCircle
 10
70.0
 20
20.125
 30
0.0
 40
3.5
100
AcDbArc
 50
270.0
 51
360.0
  0
TEXT
  5
163
330
17
100
AcDbEntity
  8
A_DOORS
100
AcDbText
 10
70.5
 20
20.625
 30
0.0
 40
0.6
  1
D2
 72
1
 11
70.5
 21
20.625
 31
0.0
100
AcDbText
 73
2
  0
LINE
  5
164
330
17
100
AcDbEntity
  8
A_DOORS
100
AcDbLine
 10
25.5
 20
78.6875
 30
0.0
 11
28.5
 21
78.6875
 31
0.0
  0
ARC
  5
165
330
17
100
AcDbEntity
  8
A_DOORS
100
AcDbCircle
 10
25.5
 20
78.6875
 30
0.0
 40
3.0
100
AcDbArc
 50
0.0
 51
90.0
  0
TEXT
  5
166
330
17
100
AcDbEntity
  8
A_DOORS
100
AcDbText
 10
26.0
 20
79.1875
 30
0.0
 40
0.6
  1
D3
 72
1
 11
26.0
 21
79.1875
 31
0.0
100
AcDbText
 73
2
  0
LINE
  5
167
330
17
100
AcDbEntity
  8
A_WINDOWS
100
AcDbLine
 10
37.75
 20
31.34
 30
0.0
 11
40.7
 21
33.24
 31
0.0
  0
TEXT
  5
168
330
17
100
AcDbEntity
  8
A_WINDOWS
100
AcDbText
 10
39.225
 20
32.79
 30
0.0
 40
0.6
  1
W-BATH
 72
1
 11
39.225
 21
32.79
 31
0.0
100
AcDbText
 73
2
  0
LINE
  5
169
330
17
100
AcDbEntity
  8
A_WINDOWS
100
AcDbLine
 10
53.38
 20
40.11
 30
0.0
 11
56.88
 21
41.94
 31
0.0
  0
TEXT
  5
16A
330
17
100
AcDbEntity
  8
A_WINDOWS
100
AcDbText
 10
55.13
 20
41.525
 30
0.0
 40
0.6
  1
W-LOUNGE
 72
1
 11
55.13
 21
41.525
 31
0.0
100
AcDbText
 73
2
  0
LINE
  5
16B
330
17
100
AcDbEntity
  8
A_STAIRS
100
AcDbLine
 10
72.625
 20
28.25
 30
0.0
 11
72.625
 21
31.75
 31
0.0
  0
LINE
  5
16C
330
17
100
AcDbEntity
  8
A_STAIRS
100
AcDbLine
 10
73.54166666666667
 20
28.25
 30
0.0
 11
73.54166666666667
 21
31.75
 31
0.0
  0
LINE
  5
16D
330
17
100
AcDbEntity
  8
A_STAIRS
100
AcDbLine
 10
74.45833333333333
 20
28.25
 30
0.0
 11
74.45833333333333
 21
31.75
 31
0.0
  0
LINE
  5
16E
330
17
100
AcDbEntity
  8
A_STAIRS
100
AcDbLine
 10
75.375
 20
28.25
 30
0.0
 11
75.375
 21
31.75
 31
0.0
  0
LINE
  5
16F
330
17
100
AcDbEntity
  8
A_STAIRS
100
AcDbLine
 10
76.29166666666667
 20
28.25
 30
0.0
 11
76.29166666666667
 21
31.75
 31
0.0
  0
LINE
  5
170
330
17
100
AcDbEntity
  8
A_STAIRS
100
AcDbLine
 10
77.20833333333333
 20
28.25
 30
0.0
 11
77.20833333333333
 21
31.75
 31
0.0
  0
LINE
  5
171
330
17
100
AcDbEntity
  8
A_STAIRS
100
AcDbLine
 10
78.125
 20
28.25
 30
0.0
 11
78.125
 21
31.75
 31
0.0
  0
LINE
  5
172
330
17
100
AcDbEntity
  8
A_STAIRS
100
AcDbLine
 10
79.04166666666667
 20
28.25
 30
0.0
 11
79.04166666666667
 21
31.75
 31
0.0
  0
LINE
  5
173
330
17
100
AcDbEntity
  8
A_STAIRS
100
AcDbLine
 10
79.95833333333333
 20
28.25
 30
0.0
 11
79.95833333333333
 21
31.75
 31
0.0
  0
LINE
  5
174
330
17
100
AcDbEntity
  8
A_STAIRS
100
AcDbLine
 10
80.875
 20
28.25
 30
0.0
 11
80.875
 21
31.75
 31
0.0
  0
LWPOLYLINE
  5
175
330
17
100
AcDbEntity
  8
A_STAIRS
100
AcDbPolyline
 90
4
 70
1
 10
80.875
 20
28.25
 10
84.375
 20
28.25
 10
84.375
 20
35.625
 10
80.875
 20
35.625
  0
TEXT
  5
176
330
17
100
AcDbEntity
  8
A_STAIRS
100
AcDbText
 10
82.625
 20
31.9375
 30
0.0
 40
0.7
  1
MID-LANDING (+5'-6")
 72
1
 11
82.625
 21
31.9375
 31
0.0
100
AcDbText
 73
2
  0
LINE
  5
177
330
17
100
AcDbEntity
  8
A_STAIRS
100
AcDbLine
 10
80.875
 20
32.125
 30
0.0
 11
80.875
 21
35.625
 31
0.0
  0
LINE
  5
178
330
17
100
AcDbEntity
  8
A_STAIRS
100
AcDbLine
 10
79.95833333333333
 20
32.125
 30
0.0
 11
79.95833333333333
 21
35.625
 31
0.0
  0
LINE
  5
179
330
17
100
AcDbEntity
  8
A_STAIRS
100
AcDbLine
 10
79.04166666666667
 20
32.125
 30
0.0
 11
79.04166666666667
 21
35.625
 31
0.0
  0
LINE
  5
17A
330
17
100
AcDbEntity
  8
A_STAIRS
100
AcDbLine
 10
78.125
 20
32.125
 30
0.0
 11
78.125
 21
35.625
 31
0.0
  0
LINE
  5
17B
330
17
100
AcDbEntity
  8
A_STAIRS
100
AcDbLine
 10
77.20833333333333
 20
32.125
 30
0.0
 11
77.20833333333333
 21
35.625
 31
0.0
  0
LINE
  5
17C
330
17
100
AcDbEntity
  8
A_STAIRS
100
AcDbLine
 10
76.29166666666667
 20
32.125
 30
0.0
 11
76.29166666666667
 21
35.625
 31
0.0
  0
LINE
  5
17D
330
17
100
AcDbEntity
  8
A_STAIRS
100
AcDbLine
 10
75.375
 20
32.125
 30
0.0
 11
75.375
 21
35.625
 31
0.0
  0
LINE
  5
17E
330
17
100
AcDbEntity
  8
A_STAIRS
100
AcDbLine
 10
74.45833333333333
 20
32.125
 30
0.0
 11
74.45833333333333
 21
35.625
 31
0.0
  0
LINE
  5
17F
330
17
100
AcDbEntity
  8
A_STAIRS
100
AcDbLine
 10
73.54166666666667
 20
32.125
 30
0.0
 11
73.54166666666667
 21
35.625
 31
0.0
  0
LINE
  5
180
330
17
100
AcDbEntity
  8
A_STAIRS
100
AcDbLine
 10
72.625
 20
32.125
 30
0.0
 11
72.625
 21
35.625
 31
0.0
  0
LINE
  5
181
330
17
100
AcDbEntity
  8
A_STAIRS
100
AcDbLine
 10
72.625
 20
31.9375
 30
0.0
 11
80.875
 21
31.9375
 31
0.0
  0
TEXT
  5
182
330
17
100
AcDbEntity
  8
A_ROOM_LABELS
100
AcDbText
 10
76.875
 20
12.35
 30
0.0
 40
0.9
  1
BED ROOM-1
 72
1
 11
76.875
 21
12.35
 31
0.0
100
AcDbText
 73
2
  0
TEXT
  5
183
330
17
100
AcDbEntity
  8
A_ROOM_LABELS
100
AcDbText
 10
76.875
 20
11.25
 30
0.0
 40
0.75
  1
15'-0" x 16'-0"
 72
1
 11
76.875
 21
11.25
 31
0.0
100
AcDbText
 73
2
  0
TEXT
  5
184
330
17
100
AcDbEntity
  8
A_ROOM_LABELS
100
AcDbText
 10
76.875
 20
10.35
 30
0.0
 40
0.65
  1
(240 sq.ft)
 72
1
 11
76.875
 21
10.35
 31
0.0
100
AcDbText
 73
2
  0
TEXT
  5
185
330
17
100
AcDbEntity
  8
A_ROOM_LABELS
100
AcDbText
 10
81.625
 20
24.6
 30
0.0
 40
0.9
  1
BATH
 72
1
 11
81.625
 21
24.6
 31
0.0
100
AcDbText
 73
2
  0
TEXT
  5
186
330
17
100
AcDbEntity
  8
A_ROOM_LABELS
100
AcDbText
 10
81.625
 20
23.5
 30
0.0
 40
0.75
  1
5'-6" x 7'-0"
 72
1
 11
81.625
 21
23.5
 31
0.0
100
AcDbText
 73
2
  0
TEXT
  5
187
330
17
100
AcDbEntity
  8
A_ROOM_LABELS
100
AcDbText
 10
81.625
 20
22.6
 30
0.0
 40
0.65
  1
(38 sq.ft)
 72
1
 11
81.625
 21
22.6
 31
0.0
100
AcDbText
 73
2
  0
TEXT
  5
188
330
17
100
AcDbEntity
  8
A_ROOM_LABELS
100
AcDbText
 10
74.0
 20
24.6
 30
0.0
 40
0.9
  1
DRESS & FOYER
 72
1
 11
74.0
 21
24.6
 31
0.0
100
AcDbText
 73
2
  0
TEXT
  5
189
330
17
100
AcDbEntity
  8
A_ROOM_LABELS
100
AcDbText
 10
74.0
 20
23.5
 30
0.0
 40
0.75
  1
9'-1½" x 7'-0"
 72
1
 11
74.0
 21
23.5
 31
0.0
100
AcDbText
 73
2
  0
TEXT
  5
18A
330
17
100
AcDbEntity
  8
A_ROOM_LABELS
100
AcDbText
 10
74.0
 20
22.6
 30
0.0
 40
0.65
  1
(63 sq.ft)
 72
1
 11
74.0
 21
22.6
 31
0.0
100
AcDbText
 73
2
  0
TEXT
  5
18B
330
17
100
AcDbEntity
  8
A_ROOM_LABELS
100
AcDbText
 10
60.375
 20
12.35
 30
0.0
 40
0.9
  1
DRAWING ROOM
 72
1
 11
60.375
 21
12.35
 31
0.0
100
AcDbText
 73
2
  0
TEXT
  5
18C
330
17
100
AcDbEntity
  8
A_ROOM_LABELS
100
AcDbText
 10
60.375
 20
11.25
 30
0.0
 40
0.75
  1
16'-6" x 16'-0"
 72
1
 11
60.375
 21
11.25
 31
0.0
100
AcDbText
 73
2
  0
TEXT
  5
18D
330
17
100
AcDbEntity
  8
A_ROOM_LABELS
100
AcDbText
 10
60.375
 20
10.35
 30
0.0
 40
0.65
  1
(264 sq.ft)
 72
1
 11
60.375
 21
10.35
 31
0.0
100
AcDbText
 73
2
  0
TEXT
  5
18E
330
17
100
AcDbEntity
  8
A_ROOM_LABELS
100
AcDbText
 10
65.4
 20
24.1
 30
0.0
 40
0.9
  1
POWDER
 72
1
 11
65.4
 21
24.1
 31
0.0
100
AcDbText
 73
2
  0
TEXT
  5
18F
330
17
100
AcDbEntity
  8
A_ROOM_LABELS
100
AcDbText
 10
65.4
 20
23.0
 30
0.0
 40
0.75
  1
6'-6" x 6'-0"
 72
1
 11
65.4
 21
23.0
 31
0.0
100
AcDbText
 73
2
  0
TEXT
  5
190
330
17
100
AcDbEntity
  8
A_ROOM_LABELS
100
AcDbText
 10
65.4
 20
22.1
 30
0.0
 40
0.65
  1
(39 sq.ft)
 72
1
 11
65.4
 21
22.1
 31
0.0
100
AcDbText
 73
2
  0
TEXT
  5
191
330
17
100
AcDbEntity
  8
A_ROOM_LABELS
100
AcDbText
 10
59.4
 20
24.1
 30
0.0
 40
0.9
  1
LIGHT COURT (OTS)
 72
1
 11
59.4
 21
24.1
 31
0.0
100
AcDbText
 73
2
  0
TEXT
  5
192
330
17
100
AcDbEntity
  8
A_ROOM_LABELS
100
AcDbText
 10
59.4
 20
23.0
 30
0.0
 40
0.75
  1
4'-7½" x 6'-0"
 72
1
 11
59.4
 21
23.0
 31
0.0
100
AcDbText
 73
2
  0
TEXT
  5
193
330
17
100
AcDbEntity
  8
A_ROOM_LABELS
100
AcDbText
 10
59.4
 20
22.1
 30
0.0
 40
0.65
  1
(27 sq.ft)
 72
1
 11
59.4
 21
22.1
 31
0.0
100
AcDbText
 73
2
  0
TEXT
  5
194
330
17
100
AcDbEntity
  8
A_ROOM_LABELS
100
AcDbText
 10
62.0
 20
34.6
 30
0.0
 40
0.9
  1
LOUNGE + DINING
 72
1
 11
62.0
 21
34.6
 31
0.0
100
AcDbText
 73
2
  0
TEXT
  5
195
330
17
100
AcDbEntity
  8
A_ROOM_LABELS
100
AcDbText
 10
62.0
 20
33.5
 30
0.0
 40
0.75
  1
16'-6" x 21'-3"
 72
1
 11
62.0
 21
33.5
 31
0.0
100
AcDbText
 73
2
  0
TEXT
  5
196
330
17
100
AcDbEntity
  8
A_ROOM_LABELS
100
AcDbText
 10
62.0
 20
32.6
 30
0.0
 40
0.65
  1
(269 sq.ft)
 72
1
 11
62.0
 21
32.6
 31
0.0
100
AcDbText
 73
2
  0
TEXT
  5
197
330
17
100
AcDbEntity
  8
A_ROOM_LABELS
100
AcDbText
 10
44.125
 20
12.35
 30
0.0
 40
0.9
  1
BED ROOM-2
 72
1
 11
44.125
 21
12.35
 31
0.0
100
AcDbText
 73
2
  0
TEXT
  5
198
330
17
100
AcDbEntity
  8
A_ROOM_LABELS
100
AcDbText
 10
44.125
 20
11.25
 30
0.0
 40
0.75
  1
14'-6" x 16'-0"
 72
1
 11
44.125
 21
11.25
 31
0.0
100
AcDbText
 73
2
  0
TEXT
  5
199
330
17
100
AcDbEntity
  8
A_ROOM_LABELS
100
AcDbText
 10
44.125
 20
10.35
 30
0.0
 40
0.65
  1
(232 sq.ft)
 72
1
 11
44.125
 21
10.35
 31
0.0
100
AcDbText
 73
2
  0
TEXT
  5
19A
330
17
100
AcDbEntity
  8
A_ROOM_LABELS
100
AcDbText
 10
39.5
 20
30.1
 30
0.0
 40
0.9
  1
BATH
 72
1
 11
39.5
 21
30.1
 31
0.0
100
AcDbText
 73
2
  0
TEXT
  5
19B
330
17
100
AcDbEntity
  8
A_ROOM_LABELS
100
AcDbText
 10
39.5
 20
29.0
 30
0.0
 40
0.75
  1
4'-10½" x 6'-3"
 72
1
 11
39.5
 21
29.0
 31
0.0
100
AcDbText
 73
2
  0
TEXT
  5
19C
330
17
100
AcDbEntity
  8
A_ROOM_LABELS
100
AcDbText
 10
39.5
 20
28.1
 30
0.0
 40
0.65
  1
(22 sq.ft)
 72
1
 11
39.5
 21
28.1
 31
0.0
100
AcDbText
 73
2
  0
TEXT
  5
19D
330
17
100
AcDbEntity
  8
A_ROOM_LABELS
100
AcDbText
 10
43.5
 20
30.1
 30
0.0
 40
0.9
  1
DRESS
 72
1
 11
43.5
 21
30.1
 31
0.0
100
AcDbText
 73
2
  0
TEXT
  5
19E
330
17
100
AcDbEntity
  8
A_ROOM_LABELS
100
AcDbText
 10
43.5
 20
28.1
 30
0.0
 40
0.65
  1
(17 sq.ft)
 72
1
 11
43.5
 21
28.1
 31
0.0
100
AcDbText
 73
2
  0
TEXT
  5
19F
330
17
100
AcDbEntity
  8
A_ROOM_LABELS
100
AcDbText
 10
44.0
 20
24.1
 30
0.0
 40
0.9
  1
ENTRANCE FOYER
 72
1
 11
44.0
 21
24.1
 31
0.0
100
AcDbText
 73
2
  0
TEXT
  5
1A0
330
17
100
AcDbEntity
  8
A_ROOM_LABELS
100
AcDbText
 10
44.0
 20
22.1
 30
0.0
 40
0.65
  1
(124 sq.ft)
 72
1
 11
44.0
 21
22.1
 31
0.0
100
AcDbText
 73
2
  0
TEXT
  5
1A1
330
17
100
AcDbEntity
  8
A_ROOM_LABELS
100
AcDbText
 10
77.0
 20
30.6
 30
0.0
 40
0.9
  1
STAIR
 72
1
 11
77.0
 21
30.6
 31
0.0
100
AcDbText
 73
2
  0
TEXT
  5
1A2
330
17
100
AcDbEntity
  8
A_ROOM_LABELS
100
AcDbText
 10
77.0
 20
28.6
 30
0.0
 40
0.65
  1
(110 sq.ft)
 72
1
 11
77.0
 21
28.6
 31
0.0
100
AcDbText
 73
2
  0
TEXT
  5
1A3
330
17
100
AcDbEntity
  8
A_ROOM_LABELS
100
AcDbText
 10
76.875
 20
41.85
 30
0.0
 40
0.9
  1
KITCHEN
 72
1
 11
76.875
 21
41.85
 31
0.0
100
AcDbText
 73
2
  0
TEXT
  5
1A4
330
17
100
AcDbEntity
  8
A_ROOM_LABELS
100
AcDbText
 10
76.875
 20
40.75
 30
0.0
 40
0.75
  1
15'-0" x 9'-9"
 72
1
 11
76.875
 21
40.75
 31
0.0
100
AcDbText
 73
2
  0
TEXT
  5
1A5
330
17
100
AcDbEntity
  8
A_ROOM_LABELS
100
AcDbText
 10
76.875
 20
39.85
 30
0.0
 40
0.65
  1
(146 sq.ft)
 72
1
 11
76.875
 21
39.85
 31
0.0
100
AcDbText
 73
2
  0
TEXT
  5
1A6
330
17
100
AcDbEntity
  8
A_ROOM_LABELS
100
AcDbText
 10
77.0
 20
51.1
 30
0.0
 40
0.9
  1
DIRTY KITCHEN
 72
1
 11
77.0
 21
51.1
 31
0.0
100
AcDbText
 73
2
  0
TEXT
  5
1A7
330
17
100
AcDbEntity
  8
A_ROOM_LABELS
100
AcDbText
 10
77.0
 20
50.0
 30
0.0
 40
0.75
  1
15'-0" x 9'-0"
 72
1
 11
77.0
 21
50.0
 31
0.0
100
AcDbText
 73
2
  0
TEXT
  5
1A8
330
17
100
AcDbEntity
  8
A_ROOM_LABELS
100
AcDbText
 10
77.0
 20
49.1
 30
0.0
 40
0.65
  1
(89 sq.ft)
 72
1
 11
77.0
 21
49.1
 31
0.0
100
AcDbText
 73
2
  0
LINE
  5
1A9
330
17
100
AcDbEntity
  8
A_DIMENSIONS
100
AcDbLine
 10
0.0
 20
-6.0
 30
0.0
 11
87.917
 21
-6.0
 31
0.0
  0
LINE
  5
1AA
330
17
100
AcDbEntity
  8
A_DIMENSIONS
100
AcDbLine
 10
0.0
 20
-6.8
 30
0.0
 11
0.0
 21
0.0
 31
0.0
  0
LINE
  5
1AB
330
17
100
AcDbEntity
  8
A_DIMENSIONS
100
AcDbLine
 10
87.917
 20
-6.8
 30
0.0
 11
87.917
 21
0.0
 31
0.0
  0
TEXT
  5
1AC
330
17
100
AcDbEntity
  8
A_DIMENSIONS
100
AcDbText
 10
43.9585
 20
-7.5
 30
0.0
 40
1.0
  1
OVERALL PLOT FRONTAGE = 87'-11"
 72
1
 11
43.9585
 21
-7.5
 31
0.0
100
AcDbText
 73
2
  0
LINE
  5
1AD
330
17
100
AcDbEntity
  8
A_DIMENSIONS
100
AcDbLine
 10
18.0
 20
-3.0
 30
0.0
 11
36.5
 21
-3.0
 31
0.0
  0
LINE
  5
1AE
330
17
100
AcDbEntity
  8
A_DIMENSIONS
100
AcDbLine
 10
18.0
 20
-3.5
 30
0.0
 11
18.0
 21
-2.5
 31
0.0
  0
LINE
  5
1AF
330
17
100
AcDbEntity
  8
A_DIMENSIONS
100
AcDbLine
 10
36.5
 20
-3.5
 30
0.0
 11
36.5
 21
-2.5
 31
0.0
  0
TEXT
  5
1B0
330
17
100
AcDbEntity
  8
A_DIMENSIONS
100
AcDbText
 10
27.25
 20
-2.2
 30
0.0
 40
0.7
  1
18'-6"
 72
1
 11
27.25
 21
-2.2
 31
0.0
100
AcDbText
 73
2
  0
LINE
  5
1B1
330
17
100
AcDbEntity
  8
A_DIMENSIONS
100
AcDbLine
 10
36.5
 20
-3.0
 30
0.0
 11
51.75
 21
-3.0
 31
0.0
  0
LINE
  5
1B2
330
17
100
AcDbEntity
  8
A_DIMENSIONS
100
AcDbLine
 10
36.5
 20
-3.5
 30
0.0
 11
36.5
 21
-2.5
 31
0.0
  0
LINE
  5
1B3
330
17
100
AcDbEntity
  8
A_DIMENSIONS
100
AcDbLine
 10
51.75
 20
-3.5
 30
0.0
 11
51.75
 21
-2.5
 31
0.0
  0
TEXT
  5
1B4
330
17
100
AcDbEntity
  8
A_DIMENSIONS
100
AcDbText
 10
44.125
 20
-2.2
 30
0.0
 40
0.7
  1
15'-3"
 72
1
 11
44.125
 21
-2.2
 31
0.0
100
AcDbText
 73
2
  0
LINE
  5
1B5
330
17
100
AcDbEntity
  8
A_DIMENSIONS
100
AcDbLine
 10
51.75
 20
-3.0
 30
0.0
 11
69.0
 21
-3.0
 31
0.0
  0
LINE
  5
1B6
330
17
100
AcDbEntity
  8
A_DIMENSIONS
100
AcDbLine
 10
51.75
 20
-3.5
 30
0.0
 11
51.75
 21
-2.5
 31
0.0
  0
LINE
  5
1B7
330
17
100
AcDbEntity
  8
A_DIMENSIONS
100
AcDbLine
 10
69.0
 20
-3.5
 30
0.0
 11
69.0
 21
-2.5
 31
0.0
  0
TEXT
  5
1B8
330
17
100
AcDbEntity
  8
A_DIMENSIONS
100
AcDbText
 10
60.375
 20
-2.2
 30
0.0
 40
0.7
  1
17'-3"
 72
1
 11
60.375
 21
-2.2
 31
0.0
100
AcDbText
 73
2
  0
LINE
  5
1B9
330
17
100
AcDbEntity
  8
A_DIMENSIONS
100
AcDbLine
 10
69.0
 20
-3.0
 30
0.0
 11
84.75
 21
-3.0
 31
0.0
  0
LINE
  5
1BA
330
17
100
AcDbEntity
  8
A_DIMENSIONS
100
AcDbLine
 10
69.0
 20
-3.5
 30
0.0
 11
69.0
 21
-2.5
 31
0.0
  0
LINE
  5
1BB
330
17
100
AcDbEntity
  8
A_DIMENSIONS
100
AcDbLine
 10
84.75
 20
-3.5
 30
0.0
 11
84.75
 21
-2.5
 31
0.0
  0
TEXT
  5
1BC
330
17
100
AcDbEntity
  8
A_DIMENSIONS
100
AcDbText
 10
76.875
 20
-2.2
 30
0.0
 40
0.7
  1
15'-9"
 72
1
 11
76.875
 21
-2.2
 31
0.0
100
AcDbText
 73
2
  0
LWPOLYLINE
  5
1BD
330
17
100
AcDbEntity
  8
A_CANOPY
100
AcDbPolyline
 90
7
 70
1
 10
18.477623704954205
 20
18.0
 10
36.125
 20
18.0
 10
36.125
 20
3.0
 10
36.125
 20
0.75
 10
17.5
 20
0.75
 10
17.5
 20
16.883215737887884
 10
18.477623704954205
 20
18.0
  0
LWPOLYLINE
  5
1BE
330
17
100
AcDbEntity
  8
A_CANOPY
100
AcDbPolyline
 90
5
 70
1
 10
58.0
 20
3.0
 10
58.0
 20
0.75
 10
53.0
 20
0.75
 10
53.0
 20
3.0
 10
58.0
 20
3.0
  0
LWPOLYLINE
  5
1BF
330
17
100
AcDbEntity
  8
A_CANOPY
100
AcDbPolyline
 90
10
 70
1
 10
68.625
 20
3.0
 10
69.375
 20
3.0
 10
85.125
 20
3.0
 10
87.20995175187616
 20
3.0
 10
87.17745426956432
 20
0.75
 10
36.125
 20
0.75
 10
36.125
 20
3.0
 10
51.375
 20
3.0
 10
52.125
 20
3.0
 10
68.625
 20
3.0
  0
LWPOLYLINE
  5
1C0
330
17
100
AcDbEntity
  8
A_CANOPY
100
AcDbPolyline
 90
5
 70
1
 10
17.5
 20
16.883215737887884
 10
17.5
 20
0.75
 10
1.8718481127148447
 20
0.75
 10
11.030584011346281
 20
9.492906026112436
 10
17.5
 20
16.883215737887884
  0
LWPOLYLINE
  5
1C1
330
17
100
AcDbEntity
  8
A_CANOPY
100
AcDbPolyline
 90
5
 70
1
 10
23.729974072635486
 20
24.0
 10
36.125
 20
24.0
 10
36.125
 20
18.0
 10
18.477623704954205
 20
18.0
 10
23.729974072635486
 20
24.0
  0
LWPOLYLINE
  5
1C2
330
17
100
AcDbEntity
  8
A_CANOPY
100
AcDbPolyline
 90
9
 70
1
 10
41.56761660986471
 20
36.186671115208924
 10
42.0
 20
36.412826083588556
 10
42.0
 20
33.75
 10
41.480209925303136
 20
33.75
 10
36.125
 20
30.294258651680426
 10
36.125
 20
24.0
 10
23.729974072635486
 20
24.0
 10
25.089940213187433
 20
25.553551509724194
 10
41.56761660986471
 20
36.186671115208924
  0
LWPOLYLINE
  5
1C3
330
17
100
AcDbEntity
  8
A_CANOPY
100
AcDbPolyline
 90
10
 70
1
 10
68.01494538435931
 20
50.019752910626885
 10
68.625
 20
50.26774589095992
 10
68.625
 20
42.5
 10
57.95324549360045
 20
42.5
 10
51.375
 20
39.059296828832444
 10
51.375
 20
33.75
 10
42.0
 20
33.75
 10
42.0
 20
36.412826083588556
 10
41.56761660986471
 20
36.186671115208924
 10
68.01494538435931
 20
50.019752910626885
  0
LWPOLYLINE
  5
1C4
330
17
100
AcDbEntity
  8
A_CANOPY
100
AcDbPolyline
 90
7
 70
1
 10
85.125
 20
56.97515219620963
 10
81.89368522259808
 20
55.66159212880404
 10
85.2824346116429
 20
57.039150857227696
 10
88.03536896614831
 20
60.148695837158336
 10
87.81657142169703
 20
45.0
 10
85.125
 20
45.0
 10
85.125
 20
56.97515219620963
  0
LWPOLYLINE
  5
1C5
330
17
100
AcDbEntity
  8
A_CANOPY
100
AcDbPolyline
 90
4
 70
1
 10
17.815635771712472
 20
17.243780913038393
 10
17.5
 20
16.883215737887884
 10
11.030584011346281
 20
9.492906026112436
 10
17.815635771712472
 20
17.243780913038393
  0
LWPOLYLINE
  5
1C6
330
17
100
AcDbEntity
  8
A_CANOPY
100
AcDbPolyline
 90
5
 70
1
 10
85.125
 20
45.0
 10
87.81657142169703
 20
45.0
 10
87.20995175187616
 20
3.0
 10
85.125
 20
3.0
 10
85.125
 20
45.0
  0
TEXT
  5
1C7
330
17
100
AcDbEntity
  8
G_TITLEBLOCK
100
AcDbText
 10
44.0
 20
-9.0
 30
0.0
 40
2.0
  1
GROUND FLOOR ARCHITECTURAL PLAN
 72
1
 11
44.0
 21
-9.0
 31
0.0
100
AcDbText
 73
2
  0
TEXT
  5
1C8
330
17
100
AcDbEntity
  8
G_TITLEBLOCK
100
AcDbText
 10
44.0
 20
-11.0
 30
0.0
 40
1.2
  1
DAATA HAMLET RESIDENCE | CANOPY ARCHITECTURE
 72
1
 11
44.0
 21
-11.0
 31
0.0
100
AcDbText
 73
2
  0
ENDSEC
  0
SECTION
  2
OBJECTS
  0
DICTIONARY
  5
A
330
0
100
AcDbDictionary
281
1
  3
ACAD_COLOR
350
B
  3
ACAD_GROUP
350
C
  3
ACAD_LAYOUT
350
D
  3
ACAD_MATERIAL
350
E
  3
ACAD_MLEADERSTYLE
350
F
  3
ACAD_MLINESTYLE
350
10
  3
ACAD_PLOTSETTINGS
350
11
  3
ACAD_PLOTSTYLENAME
350
12
  3
ACAD_SCALELIST
350
14
  3
ACAD_TABLESTYLE
350
15
  3
ACAD_VISUALSTYLE
350
16
  3
EZDXF_META
350
2D
  0
DICTIONARY
  5
B
330
A
100
AcDbDictionary
281
1
  0
DICTIONARY
  5
C
330
A
100
AcDbDictionary
281
1
  0
DICTIONARY
  5
D
330
A
100
AcDbDictionary
281
1
  3
Model
350
1A
  3
Layout1
350
1E
  0
DICTIONARY
  5
E
330
A
100
AcDbDictionary
281
1
  3
ByBlock
350
1F
  3
ByLayer
350
20
  3
Global
350
21
  0
DICTIONARY
  5
F
330
A
100
AcDbDictionary
281
1
  3
Standard
350
2C
  0
DICTIONARY
  5
10
330
A
100
AcDbDictionary
281
1
  3
Standard
350
22
  0
DICTIONARY
  5
11
330
A
100
AcDbDictionary
281
1
  0
ACDBDICTIONARYWDFLT
  5
12
330
A
100
AcDbDictionary
281
1
  3
Normal
350
13
100
AcDbDictionaryWithDefault
340
13
  0
ACDBPLACEHOLDER
  5
13
330
12
  0
DICTIONARY
  5
14
330
A
100
AcDbDictionary
281
1
  0
DICTIONARY
  5
15
330
A
100
AcDbDictionary
281
1
  0
DICTIONARY
  5
16
330
A
100
AcDbDictionary
281
1
  0
LAYOUT
  5
1A
330
D
100
AcDbPlotSettings
  1

  4
A3
  6

 40
7.5
 41
20.0
 42
7.5
 43
20.0
 44
420.0
 45
297.0
 46
0.0
 47
0.0
 48
0.0
 49
0.0
140
0.0
141
0.0
142
1.0
143
1.0
 70
1024
 72
1
 73
0
 74
5
  7

 75
16
 76
0
 77
2
 78
300
147
1.0
148
0.0
149
0.0
100
AcDbLayout
  1
Model
 70
1
 71
0
 10
0.0
 20
0.0
 11
420.0
 21
297.0
 12
0.0
 22
0.0
 32
0.0
 14
1e+20
 24
1e+20
 34
1e+20
 15
-1e+20
 25
-1e+20
 35
-1e+20
146
0.0
 13
0.0
 23
0.0
 33
0.0
 16
1.0
 26
0.0
 36
0.0
 17
0.0
 27
1.0
 37
0.0
 76
1
330
17
  0
LAYOUT
  5
1E
330
D
100
AcDbPlotSettings
  1

  4
A3
  6

 40
7.5
 41
20.0
 42
7.5
 43
20.0
 44
420.0
 45
297.0
 46
0.0
 47
0.0
 48
0.0
 49
0.0
140
0.0
141
0.0
142
1.0
143
1.0
 70
0
 72
1
 73
0
 74
5
  7

 75
16
 76
0
 77
2
 78
300
147
1.0
148
0.0
149
0.0
100
AcDbLayout
  1
Layout1
 70
1
 71
1
 10
0.0
 20
0.0
 11
420.0
 21
297.0
 12
0.0
 22
0.0
 32
0.0
 14
1e+20
 24
1e+20
 34
1e+20
 15
-1e+20
 25
-1e+20
 35
-1e+20
146
0.0
 13
0.0
 23
0.0
 33
0.0
 16
1.0
 26
0.0
 36
0.0
 17
0.0
 27
1.0
 37
0.0
 76
1
330
1B
  0
MATERIAL
  5
1F
102
{ACAD_REACTORS
330
E
102
}
330
E
100
AcDbMaterial
  1
ByBlock
  2

 70
0
 40
1.0
 71
1
 41
1.0
 91
-1023410177
 42
1.0
 72
1
  3

 73
1
 74
1
 75
1
 44
0.5
 73
0
 45
1.0
 46
1.0
 77
1
  4

 78
1
 79
1
170
1
 48
1.0
171
1
  6

172
1
173
1
174
1
140
1.0
141
1.0
175
1
  7

176
1
177
1
178
1
143
1.0
179
1
  8

270
1
271
1
272
1
145
1.0
146
1.0
273
1
  9

274
1
275
1
276
1
 42
1.0
 72
1
  3

 73
1
 74
1
 75
1
 94
63
  0
MATERIAL
  5
20
102
{ACAD_REACTORS
330
E
102
}
330
E
100
AcDbMaterial
  1
ByLayer
  2

 70
0
 40
1.0
 71
1
 41
1.0
 91
-1023410177
 42
1.0
 72
1
  3

 73
1
 74
1
 75
1
 44
0.5
 73
0
 45
1.0
 46
1.0
 77
1
  4

 78
1
 79
1
170
1
 48
1.0
171
1
  6

172
1
173
1
174
1
140
1.0
141
1.0
175
1
  7

176
1
177
1
178
1
143
1.0
179
1
  8

270
1
271
1
272
1
145
1.0
146
1.0
273
1
  9

274
1
275
1
276
1
 42
1.0
 72
1
  3

 73
1
 74
1
 75
1
 94
63
  0
MATERIAL
  5
21
102
{ACAD_REACTORS
330
E
102
}
330
E
100
AcDbMaterial
  1
Global
  2

 70
0
 40
1.0
 71
1
 41
1.0
 91
-1023410177
 42
1.0
 72
1
  3

 73
1
 74
1
 75
1
 44
0.5
 73
0
 45
1.0
 46
1.0
 77
1
  4

 78
1
 79
1
170
1
 48
1.0
171
1
  6

172
1
173
1
174
1
140
1.0
141
1.0
175
1
  7

176
1
177
1
178
1
143
1.0
179
1
  8

270
1
271
1
272
1
145
1.0
146
1.0
273
1
  9

274
1
275
1
276
1
 42
1.0
 72
1
  3

 73
1
 74
1
 75
1
 94
63
  0
MLINESTYLE
  5
22
102
{ACAD_REACTORS
330
10
102
}
330
10
100
AcDbMlineStyle
  2
Standard
 70
0
  3

 62
256
 51
90.0
 52
90.0
 71
2
 49
0.5
 62
256
  6
BYLAYER
 49
-0.5
 62
256
  6
BYLAYER
  0
MLEADERSTYLE
  5
2C
102
{ACAD_REACTORS
330
F
102
}
330
F
100
AcDbMLeaderStyle
179
2
170
2
171
1
172
0
 90
2
 40
0.0
 41
0.0
173
1
 91
-1056964608
 92
-2
290
1
 42
2.0
291
1
 43
8.0
  3
Standard
 44
4.0
300

342
29
174
1
175
1
176
0
178
1
 93
-1056964608
 45
4.0
292
0
297
0
 46
4.0
 94
-1056964608
 47
1.0
 49
1.0
140
1.0
294
1
141
0.0
177
0
142
1.0
295
0
296
0
143
3.75
271
0
272
9
273
9
  0
DICTIONARY
  5
2D
330
A
100
AcDbDictionary
280
1
281
1
  3
CREATED_BY_EZDXF
350
2E
  3
WRITTEN_BY_EZDXF
350
1CB
  0
DICTIONARYVAR
  5
2E
330
2D
100
DictionaryVariables
280
0
  1
1.4.4 @ 2026-10-04T11:20:48.204104+00:00
  0
DICTIONARYVAR
  5
1CB
330
2D
100
DictionaryVariables
280
0
  1
1.4.4 @ 2026-10-04T11:20:48.218854+00:00
  0
ENDSEC
  0
EOF
