<?xml version="1.0" encoding="UTF-8"?>
<svg xmlns="http://www.w3.org/2000/svg" width="2400" height="1500" viewBox="0 0 2400 1500">
<defs>
  <!-- Atmosphere Gradients -->
  <linearGradient id="skyGrad" x1="0" y1="0" x2="0" y2="1">
    <stop offset="0%" stop-color="#e2ebf5"/>
    <stop offset="45%" stop-color="#edf4fa"/>
    <stop offset="85%" stop-color="#fdfbf7"/>
    <stop offset="100%" stop-color="#fff8ec"/>
  </linearGradient>

  <linearGradient id="groundGrad" x1="0" y1="0" x2="0" y2="1">
    <stop offset="0%" stop-color="#2d3748"/>
    <stop offset="15%" stop-color="#1a202c"/>
    <stop offset="100%" stop-color="#0f172a"/>
  </linearGradient>

  <linearGradient id="bronzeCanopy" x1="0" y1="0" x2="0" y2="1">
    <stop offset="0%" stop-color="#2d3139"/>
    <stop offset="25%" stop-color="#1f232b"/>
    <stop offset="80%" stop-color="#16181f"/>
    <stop offset="100%" stop-color="#0d0e12"/>
  </linearGradient>

  <linearGradient id="bronzeTrim" x1="0" y1="0" x2="1" y2="0">
    <stop offset="0%" stop-color="#3b4252"/>
    <stop offset="50%" stop-color="#4c566a"/>
    <stop offset="100%" stop-color="#2e3440"/>
  </linearGradient>

  <linearGradient id="woodSoffit" x1="0" y1="0" x2="0" y2="1">
    <stop offset="0%" stop-color="#8a532b"/>
    <stop offset="50%" stop-color="#73411e"/>
    <stop offset="100%" stop-color="#5c3216"/>
  </linearGradient>

  <linearGradient id="teakLouver" x1="0" y1="0" x2="0" y2="1">
    <stop offset="0%" stop-color="#bc7a3d"/>
    <stop offset="50%" stop-color="#9d5d28"/>
    <stop offset="100%" stop-color="#7e461a"/>
  </linearGradient>

  <linearGradient id="glassReflection" x1="0" y1="0" x2="0.8" y2="1">
    <stop offset="0%" stop-color="#dbeafe" stop-opacity="0.85"/>
    <stop offset="30%" stop-color="#bfdbfe" stop-opacity="0.65"/>
    <stop offset="70%" stop-color="#93c5fd" stop-opacity="0.45"/>
    <stop offset="100%" stop-color="#60a5fa" stop-opacity="0.30"/>
  </linearGradient>

  <linearGradient id="glassBalustrade" x1="0" y1="0" x2="0" y2="1">
    <stop offset="0%" stop-color="#e0f2fe" stop-opacity="0.75"/>
    <stop offset="50%" stop-color="#bae6fd" stop-opacity="0.55"/>
    <stop offset="100%" stop-color="#7dd3fc" stop-opacity="0.35"/>
  </linearGradient>

  <linearGradient id="interiorWarmGlow" x1="0" y1="0" x2="0" y2="1">
    <stop offset="0%" stop-color="#fef08a" stop-opacity="0.75"/>
    <stop offset="50%" stop-color="#fed7aa" stop-opacity="0.50"/>
    <stop offset="100%" stop-color="#fdba74" stop-opacity="0.25"/>
  </linearGradient>

  <linearGradient id="stuccoWall" x1="0" y1="0" x2="1" y2="1">
    <stop offset="0%" stop-color="#ffffff"/>
    <stop offset="60%" stop-color="#f8fafc"/>
    <stop offset="100%" stop-color="#f1f5f9"/>
  </linearGradient>

  <linearGradient id="travertineSkin" x1="0" y1="0" x2="1" y2="0">
    <stop offset="0%" stop-color="#e8dec8"/>
    <stop offset="25%" stop-color="#decfae"/>
    <stop offset="50%" stop-color="#ebdcc0"/>
    <stop offset="75%" stop-color="#d6c59e"/>
    <stop offset="100%" stop-color="#e2d4b7"/>
  </linearGradient>

  <linearGradient id="dropShadowV" x1="0" y1="0" x2="0" y2="1">
    <stop offset="0%" stop-color="#000000" stop-opacity="0.45"/>
    <stop offset="40%" stop-color="#000000" stop-opacity="0.25"/>
    <stop offset="100%" stop-color="#000000" stop-opacity="0.0"/>
  </linearGradient>

  <linearGradient id="wallSconceGlow" x1="0" y1="0" x2="0" y2="1">
    <stop offset="0%" stop-color="#fef08a" stop-opacity="0.8"/>
    <stop offset="60%" stop-color="#fed7aa" stop-opacity="0.3"/>
    <stop offset="100%" stop-color="#f59e0b" stop-opacity="0.0"/>
  </linearGradient>

  <!-- Car Shaders -->
  <linearGradient id="suvBody" x1="0" y1="0" x2="1" y2="0">
    <stop offset="0%" stop-color="#1e293b"/>
    <stop offset="20%" stop-color="#334155"/>
    <stop offset="50%" stop-color="#475569"/>
    <stop offset="80%" stop-color="#334155"/>
    <stop offset="100%" stop-color="#1e293b"/>
  </linearGradient>

  <linearGradient id="sedanBody" x1="0" y1="0" x2="1" y2="0">
    <stop offset="0%" stop-color="#0f172a"/>
    <stop offset="25%" stop-color="#1e293b"/>
    <stop offset="50%" stop-color="#334155"/>
    <stop offset="75%" stop-color="#1e293b"/>
    <stop offset="100%" stop-color="#0f172a"/>
  </linearGradient>

  <linearGradient id="redLightbar" x1="0" y1="0" x2="1" y2="0">
    <stop offset="0%" stop-color="#b91c1c"/>
    <stop offset="15%" stop-color="#ef4444"/>
    <stop offset="50%" stop-color="#f87171"/>
    <stop offset="85%" stop-color="#ef4444"/>
    <stop offset="100%" stop-color="#b91c1c"/>
  </linearGradient>

  <pattern id="travertineJoints" width="40" height="14" patternUnits="userSpaceOnUse">
    <rect width="40" height="14" fill="none"/>
    <line x1="0" y1="14" x2="40" y2="14" stroke="#c4b595" stroke-width="0.75" stroke-opacity="0.8"/>
    <line x1="20" y1="0" x2="20" y2="14" stroke="#c4b595" stroke-width="0.75" stroke-opacity="0.8"/>
  </pattern>

  <pattern id="boundaryWallGroove" width="40" height="18" patternUnits="userSpaceOnUse">
    <rect width="40" height="18" fill="#e2e8f0"/>
    <line x1="0" y1="18" x2="40" y2="18" stroke="#cbd5e1" stroke-width="1.2"/>
  </pattern>

  <pattern id="carportBackSlats" width="10" height="40" patternUnits="userSpaceOnUse">
    <rect width="10" height="40" fill="#1e293b"/>
    <rect x="2" width="6" height="40" fill="#2d3748"/>
  </pattern>

  <pattern id="passageGateSlats" width="8" height="40" patternUnits="userSpaceOnUse">
    <rect width="8" height="40" fill="#0f172a"/>
    <rect x="2" width="4" height="40" fill="#bc7a3d"/>
  </pattern>

  <filter id="softGlow" x="-20%" y="-20%" width="140%" height="140%">
    <feGaussianBlur stdDeviation="5" result="blur"/>
    <feComposite in="SourceGraphic" in2="blur" operator="over"/>
  </filter>

  <filter id="crispShadow" x="-10%" y="-10%" width="130%" height="130%">
    <feDropShadow dx="2" dy="10" stdDeviation="6" flood-color="#000000" flood-opacity="0.30"/>
  </filter>

  <filter id="tailLightGlow" x="-20%" y="-20%" width="140%" height="140%">
    <feGaussianBlur stdDeviation="3" result="blur"/>
    <feComposite in="SourceGraphic" in2="blur" operator="over"/>
  </filter>
</defs>

<!-- 1. PRESENTATION CANVAS BACKGROUND -->
<rect width="2400" height="1500" fill="#fcfdfd"/>
<rect x="30" y="30" width="2340" height="1440" fill="none" stroke="#cbd5e1" stroke-width="1"/>
<rect x="34" y="34" width="2332" height="1432" fill="none" stroke="#94a3b8" stroke-width="1.5"/>

<!-- 2. ARCHITECTURAL SKY -->
<rect x="40" y="40" width="2320" height="1140.0" fill="url(#skyGrad)"/>
<ellipse cx="1200.0" cy="1060.0" rx="950" ry="300" fill="#fef3c7" opacity="0.35"/>

<!-- 3. GROUND STRATA & ROAD BASELINE -->
<rect x="40" y="1180.0" width="2320" height="280.0" fill="url(#groundGrad)"/>
<rect x="40" y="1210.0" width="2320" height="-30.0" fill="#1e293b"/>
<line x1="40" y1="1210.0" x2="2360" y2="1210.0" stroke="#475569" stroke-width="2"/>
<line x1="60" y1="1230.0" x2="2340" y2="1230.0" stroke="#e2e8f0" stroke-width="3" stroke-dasharray="35,30"/>
<rect x="280.0" y="1188.0" width="1840.0" height="22.0" fill="#cbd5e1" stroke="#94a3b8" stroke-width="1"/>
<line x1="280.0" y1="1188.0" x2="2120.0" y2="1188.0" stroke="#64748b" stroke-width="2"/>
<rect x="320.0" y="1180.0" width="1758.3400000000001" height="8.0" fill="#365314" stroke="#1e293b" stroke-width="1"/>

<!-- 4. STRUCTURAL COLUMN GRID LINES (A-E) -->

<line x1="680.0" y1="80" x2="680.0" y2="1220.0" stroke="#94a3b8" stroke-width="1.2" stroke-dasharray="8,6,2,6"/>
<circle cx="680.0" cy="80" r="16" fill="#ffffff" stroke="#0f172a" stroke-width="1.8"/>
<text x="680.0" y="85" font-family="'Helvetica Neue', Arial, sans-serif" font-size="14" font-weight="bold" fill="#0f172a" text-anchor="middle">A</text>
<circle cx="680.0" cy="1220.0" r="14" fill="#ffffff" stroke="#0f172a" stroke-width="1.5"/>
<text x="680.0" y="1225.0" font-family="'Helvetica Neue', Arial, sans-serif" font-size="12" font-weight="bold" fill="#0f172a" text-anchor="middle">A</text>


<line x1="1050.0" y1="80" x2="1050.0" y2="1220.0" stroke="#94a3b8" stroke-width="1.2" stroke-dasharray="8,6,2,6"/>
<circle cx="1050.0" cy="80" r="16" fill="#ffffff" stroke="#0f172a" stroke-width="1.8"/>
<text x="1050.0" y="85" font-family="'Helvetica Neue', Arial, sans-serif" font-size="14" font-weight="bold" fill="#0f172a" text-anchor="middle">B</text>
<circle cx="1050.0" cy="1220.0" r="14" fill="#ffffff" stroke="#0f172a" stroke-width="1.5"/>
<text x="1050.0" y="1225.0" font-family="'Helvetica Neue', Arial, sans-serif" font-size="12" font-weight="bold" fill="#0f172a" text-anchor="middle">B</text>


<line x1="1355.0" y1="80" x2="1355.0" y2="1220.0" stroke="#94a3b8" stroke-width="1.2" stroke-dasharray="8,6,2,6"/>
<circle cx="1355.0" cy="80" r="16" fill="#ffffff" stroke="#0f172a" stroke-width="1.8"/>
<text x="1355.0" y="85" font-family="'Helvetica Neue', Arial, sans-serif" font-size="14" font-weight="bold" fill="#0f172a" text-anchor="middle">C</text>
<circle cx="1355.0" cy="1220.0" r="14" fill="#ffffff" stroke="#0f172a" stroke-width="1.5"/>
<text x="1355.0" y="1225.0" font-family="'Helvetica Neue', Arial, sans-serif" font-size="12" font-weight="bold" fill="#0f172a" text-anchor="middle">C</text>


<line x1="1700.0" y1="80" x2="1700.0" y2="1220.0" stroke="#94a3b8" stroke-width="1.2" stroke-dasharray="8,6,2,6"/>
<circle cx="1700.0" cy="80" r="16" fill="#ffffff" stroke="#0f172a" stroke-width="1.8"/>
<text x="1700.0" y="85" font-family="'Helvetica Neue', Arial, sans-serif" font-size="14" font-weight="bold" fill="#0f172a" text-anchor="middle">D</text>
<circle cx="1700.0" cy="1220.0" r="14" fill="#ffffff" stroke="#0f172a" stroke-width="1.5"/>
<text x="1700.0" y="1225.0" font-family="'Helvetica Neue', Arial, sans-serif" font-size="12" font-weight="bold" fill="#0f172a" text-anchor="middle">D</text>


<line x1="2015.0" y1="80" x2="2015.0" y2="1220.0" stroke="#94a3b8" stroke-width="1.2" stroke-dasharray="8,6,2,6"/>
<circle cx="2015.0" cy="80" r="16" fill="#ffffff" stroke="#0f172a" stroke-width="1.8"/>
<text x="2015.0" y="85" font-family="'Helvetica Neue', Arial, sans-serif" font-size="14" font-weight="bold" fill="#0f172a" text-anchor="middle">E</text>
<circle cx="2015.0" cy="1220.0" r="14" fill="#ffffff" stroke="#0f172a" stroke-width="1.5"/>
<text x="2015.0" y="1225.0" font-family="'Helvetica Neue', Arial, sans-serif" font-size="12" font-weight="bold" fill="#0f172a" text-anchor="middle">E</text>


<!-- 5. THIRD FLOOR RISING STAIR MUMTY CORE (Z=32'-6" to 42'-0") -->
<g id="rising-stair-mumty-core" filter="url(#crispShadow)">
  <rect x="1692.5" y="340.0" width="330.0" height="190.0" fill="url(#stuccoWall)" stroke="#334155" stroke-width="2"/>
  <line x1="1692.5" y1="470.0" x2="2022.5" y2="470.0" stroke="#cbd5e1" stroke-width="1.5"/>
  <line x1="1692.5" y1="410.0" x2="2022.5" y2="410.0" stroke="#cbd5e1" stroke-width="1.5"/>

  <!-- Vertical Ribbon Glass Window on Mumty South Facade -->
  <rect x="1820.0" y="370.0" width="80.0" height="130.0" fill="#0f172a" stroke="#000" stroke-width="2"/>
  <rect x="1824.0" y="374.0" width="71.99999999999989" height="117.99999999999997" fill="url(#interiorWarmGlow)"/>
  <rect x="1824.0" y="374.0" width="71.99999999999989" height="117.99999999999997" fill="url(#glassReflection)"/>
  <line x1="1860.0" y1="370.0" x2="1860.0" y2="500.0" stroke="#0f172a" stroke-width="2"/>

  <!-- Floating Charcoal Bronze Mumty Roof Canopy Fascia (+42'-0") -->
  <rect x="1684.5" y="330.0" width="346.0" height="12" fill="url(#bronzeCanopy)" stroke="#020617" stroke-width="2"/>
  <rect x="1684.5" y="330.0" width="346.0" height="3" fill="url(#bronzeTrim)"/>
  <rect x="1686.5" y="342.0" width="342.0" height="3" fill="url(#woodSoffit)"/>
  <rect x="1692.5" y="342.0" width="330.0" height="14" fill="url(#dropShadowV)"/>

  <!-- Screened 800-Gallon Water Tank Enclosure atop Mumty Roof -->
  <rect x="1850.0" y="270.0" width="140.0" height="70.0" rx="3" fill="#e2e8f0" stroke="#64748b" stroke-width="1.5"/>
  <line x1="1850.0" y1="304.0" x2="1990.0" y2="304.0" stroke="#94a3b8" stroke-width="1"/>
  <text x="1920.0" y="310.0" font-family="'Helvetica Neue', Arial, sans-serif" font-size="8.5" font-weight="bold" fill="#64748b" text-anchor="middle">800-GAL TANK ENCLOSURE</text>
</g>


<!-- 6. SECOND FLOOR PENTHOUSE ROOMS (X=51'-4½" to 85'-1½", Z=22'-2" to 32'-6") -->
<rect x="1347.5" y="530.0" width="675.0" height="206.65999999999997" fill="url(#stuccoWall)" stroke="#334155" stroke-width="2"/>

<!-- Bedroom 7 Sliding Door (X=56.375 to 64.375) -->
<rect x="1447.5" y="580.0" width="160.0" height="110.0" fill="#0f172a" stroke="#000" stroke-width="2"/>
<rect x="1451.5" y="584.0" width="152.00000000000003" height="98.00000000000004" fill="url(#interiorWarmGlow)"/>
<rect x="1451.5" y="584.0" width="152.00000000000003" height="98.00000000000004" fill="url(#glassReflection)"/>
<line x1="1527.5" y1="580.0" x2="1527.5" y2="690.0" stroke="#0f172a" stroke-width="3"/>

<!-- Bedroom 6 Sliding Door (X=73.375 to 80.375) -->
<rect x="1787.5" y="580.0" width="140.0" height="110.0" fill="#0f172a" stroke="#000" stroke-width="2"/>
<rect x="1791.5" y="584.0" width="131.9999999999999" height="98.00000000000004" fill="url(#interiorWarmGlow)"/>
<rect x="1791.5" y="584.0" width="131.9999999999999" height="98.00000000000004" fill="url(#glassReflection)"/>
<line x1="1857.5" y1="580.0" x2="1857.5" y2="690.0" stroke="#0f172a" stroke-width="3"/>

<!-- Columns D & E in 2F Facade -->
<rect x="1692.5" y="530.0" width="15.0" height="206.65999999999997" fill="#1e293b" stroke="#0f172a" stroke-width="1.2"/>
<rect x="2007.5" y="530.0" width="15.0" height="206.65999999999997" fill="#1e293b" stroke="#0f172a" stroke-width="1.2"/>

<!-- 2F PENTHOUSE ROOF CANOPY SLAB -->
<g filter="url(#crispShadow)">
  <rect x="1337.5" y="524.0" width="695.0" height="18" fill="url(#bronzeCanopy)" stroke="#0f172a" stroke-width="2"/>
  <rect x="1337.5" y="524.0" width="695.0" height="4" fill="url(#bronzeTrim)"/>
  <rect x="1347.5" y="542.0" width="675.0" height="5" fill="url(#woodSoffit)"/>
</g>


<!-- 7. SECOND FLOOR OPEN-TO-SKY FRONT SUN TERRACE (OPEN TO SKY!) -->
<g id="second-floor-open-terrace">
  <polygon points="1130.0,736.66 1230.0,736.66 1250.0,724.66 1190.0,730.66 1130.0,730.66" fill="#475569" stroke="#334155" stroke-width="1"/>
  <rect x="1210.0" y="722.66" width="10" height="4" rx="2" fill="#f8fafc"/>
  <rect x="1260.0" y="726.66" width="12" height="10" rx="2" fill="#d97706" stroke="#92400e" stroke-width="1"/>
  <rect x="1070.0" y="720.66" width="28" height="16" rx="2" fill="#1e293b" stroke="#0f172a" stroke-width="1"/>
  <circle cx="1080.0" cy="718.66" r="8" fill="#15803d" opacity="0.8"/>
  <circle cx="1096.0" cy="714.66" r="10" fill="#22c55e" opacity="0.85"/>

  <!-- 2F Frameless Glass Balustrade -->
  <rect x="1057.5" y="666.5999999999999" width="290.0" height="70.0" fill="url(#glassBalustrade)" stroke="#93c5fd" stroke-width="1.2"/>
  <line x1="1057.5" y1="666.5999999999999" x2="1347.5" y2="666.5999999999999" stroke="#0f172a" stroke-width="3"/>
  <rect x="1057.5" y="732.0" width="290.0" height="6" fill="#64748b" stroke="#334155" stroke-width="1"/>
</g>


<!-- 8. FIRST FLOOR ARCHITECTURE (Z=11'-10" to 22'-2") -->
<rect x="1057.5" y="750.0" width="965.0" height="193.34" fill="url(#stuccoWall)" stroke="#334155" stroke-width="2"/>

<!-- 1F Bed-5 Feature Skin (Travertine) -->
<rect x="1057.5" y="750.0" width="290.0" height="193.34" fill="url(#travertineSkin)" stroke="#78350f" stroke-width="1.8"/>
<rect x="1057.5" y="750.0" width="290.0" height="193.34" fill="url(#travertineJoints)" opacity="0.65"/>

<!-- Bed-5 Window with Vertical Timber Fins -->
<rect x="1132.5" y="784.0" width="140.0" height="116.00000000000001" fill="#0f172a" stroke="#000" stroke-width="2"/>
<rect x="1136.5" y="788.0" width="132.00000000000003" height="103.99999999999999" fill="url(#interiorWarmGlow)"/>
<rect x="1136.5" y="788.0" width="132.00000000000003" height="103.99999999999999" fill="url(#glassReflection)"/>

<rect x="1142.0" y="776.0" width="6" height="132.0" fill="url(#teakLouver)" stroke="#5c3216" stroke-width="0.75" filter="url(#crispShadow)"/>

<rect x="1159.0" y="776.0" width="6" height="132.0" fill="url(#teakLouver)" stroke="#5c3216" stroke-width="0.75" filter="url(#crispShadow)"/>

<rect x="1176.0" y="776.0" width="6" height="132.0" fill="url(#teakLouver)" stroke="#5c3216" stroke-width="0.75" filter="url(#crispShadow)"/>

<rect x="1193.0" y="776.0" width="6" height="132.0" fill="url(#teakLouver)" stroke="#5c3216" stroke-width="0.75" filter="url(#crispShadow)"/>

<rect x="1210.0" y="776.0" width="6" height="132.0" fill="url(#teakLouver)" stroke="#5c3216" stroke-width="0.75" filter="url(#crispShadow)"/>

<rect x="1227.0" y="776.0" width="6" height="132.0" fill="url(#teakLouver)" stroke="#5c3216" stroke-width="0.75" filter="url(#crispShadow)"/>

<rect x="1244.0" y="776.0" width="6" height="132.0" fill="url(#teakLouver)" stroke="#5c3216" stroke-width="0.75" filter="url(#crispShadow)"/>

<rect x="1261.0" y="776.0" width="6" height="132.0" fill="url(#teakLouver)" stroke="#5c3216" stroke-width="0.75" filter="url(#crispShadow)"/>


<!-- 1F Family Lounge Ribbon Window (X=56.375 to 64.375) -->
<rect x="1447.5" y="784.0" width="160.0" height="116.00000000000001" fill="#0f172a" stroke="#000" stroke-width="2"/>
<rect x="1451.5" y="788.0" width="152.00000000000003" height="103.99999999999999" fill="url(#interiorWarmGlow)"/>
<rect x="1451.5" y="788.0" width="152.00000000000003" height="103.99999999999999" fill="url(#glassReflection)"/>
<line x1="1527.5" y1="784.0" x2="1527.5" y2="900.0" stroke="#0f172a" stroke-width="3"/>

<!-- 1F Master Suite 3 Window (X=73.375 to 80.375) -->
<rect x="1787.5" y="784.0" width="140.0" height="116.00000000000001" fill="#0f172a" stroke="#000" stroke-width="2"/>
<rect x="1791.5" y="788.0" width="131.9999999999999" height="103.99999999999999" fill="url(#interiorWarmGlow)"/>
<rect x="1791.5" y="788.0" width="131.9999999999999" height="103.99999999999999" fill="url(#glassReflection)"/>
<line x1="1857.5" y1="784.0" x2="1857.5" y2="900.0" stroke="#0f172a" stroke-width="3"/>

<!-- Columns B, C, D, E in 1F Facade -->
<rect x="1046.0" y="750.0" width="15" height="193.34" fill="#1e293b" stroke="#0f172a" stroke-width="1.2"/>
<rect x="1351.0" y="750.0" width="15" height="193.34" fill="#1e293b" stroke="#0f172a" stroke-width="1.2"/>
<rect x="1696.0" y="750.0" width="15" height="193.34" fill="#1e293b" stroke="#0f172a" stroke-width="1.2"/>
<rect x="2011.0" y="750.0" width="15" height="193.34" fill="#1e293b" stroke="#0f172a" stroke-width="1.2"/>

<!-- 1F Porch Terrace Planters -->
<rect x="720.0" y="910.0" width="24" height="18" rx="3" fill="#475569"/>
<rect x="760.0" y="896.0" width="20" height="8" rx="2" fill="#94a3b8"/>
<rect x="840.0" y="916.0" width="18" height="12" rx="2" fill="#d97706"/>
<rect x="940.0" y="908.0" width="36" height="14" fill="#334155" stroke="#1e293b" stroke-width="1"/>
<path d="M 940.0,908.0 Q 980.0,860.0 1020.0,908.0 Q 1060.0,850.0 1100.0,908.0" fill="#15803d" stroke="#166534" stroke-width="1.5"/>

<!-- FIRST FLOOR CONTINUOUS GLASS RAILING BALUSTRADE (17.5 to 85.125) -->
<g id="first-floor-glass-railing">
  <rect x="670.0" y="873.4" width="1352.5" height="70.0" fill="url(#glassBalustrade)" stroke="#93c5fd" stroke-width="1.2"/>
  <line x1="670.0" y1="873.4" x2="2022.5" y2="873.4" stroke="#0f172a" stroke-width="3"/>
  <rect x="670.0" y="940.0" width="1352.5" height="6" fill="#64748b" stroke="#334155" stroke-width="1"/>

<line x1="780.0" y1="873.4" x2="780.0" y2="940.0" stroke="#93c5fd" stroke-width="1.5" stroke-opacity="0.8"/>

<line x1="900.0" y1="873.4" x2="900.0" y2="940.0" stroke="#93c5fd" stroke-width="1.5" stroke-opacity="0.8"/>

<line x1="1020.0" y1="873.4" x2="1020.0" y2="940.0" stroke="#93c5fd" stroke-width="1.5" stroke-opacity="0.8"/>

<line x1="1140.0" y1="873.4" x2="1140.0" y2="940.0" stroke="#93c5fd" stroke-width="1.5" stroke-opacity="0.8"/>

<line x1="1260.0" y1="873.4" x2="1260.0" y2="940.0" stroke="#93c5fd" stroke-width="1.5" stroke-opacity="0.8"/>

<line x1="1380.0" y1="873.4" x2="1380.0" y2="940.0" stroke="#93c5fd" stroke-width="1.5" stroke-opacity="0.8"/>

<line x1="1500.0" y1="873.4" x2="1500.0" y2="940.0" stroke="#93c5fd" stroke-width="1.5" stroke-opacity="0.8"/>

<line x1="1620.0" y1="873.4" x2="1620.0" y2="940.0" stroke="#93c5fd" stroke-width="1.5" stroke-opacity="0.8"/>

<line x1="1740.0" y1="873.4" x2="1740.0" y2="940.0" stroke="#93c5fd" stroke-width="1.5" stroke-opacity="0.8"/>

<line x1="1860.0" y1="873.4" x2="1860.0" y2="940.0" stroke="#93c5fd" stroke-width="1.5" stroke-opacity="0.8"/>

<line x1="1980.0" y1="873.4" x2="1980.0" y2="940.0" stroke="#93c5fd" stroke-width="1.5" stroke-opacity="0.8"/>

</g>


<g filter="url(#crispShadow)">
  <rect x="600.0" y="970.0" width="1450.0" height="32" fill="url(#dropShadowV)"/>
  <rect x="600.0" y="940.0" width="1450.0" height="24" fill="url(#bronzeCanopy)" stroke="#020617" stroke-width="2.5"/>
  <rect x="600.0" y="940.0" width="1450.0" height="4" fill="url(#bronzeTrim)"/>
  <rect x="600.0" y="964.0" width="1450.0" height="2" fill="#0f172a"/>
  <rect x="604.0" y="966.0" width="1442.0" height="7" fill="url(#woodSoffit)"/>
  <line x1="620.0" y1="974.0" x2="2030.0" y2="974.0" stroke="#fde047" stroke-width="2.5" filter="url(#softGlow)"/>
</g>


<!-- 9. GROUND FLOOR ARCHITECTURE (Z=0'-0" to 10'-6") -->
<rect x="320.0" y="1150.0" width="1758.0" height="30.0" fill="#334155" stroke="#1e293b" stroke-width="2"/>
<line x1="320.0" y1="1150.0" x2="2078.0" y2="1150.0" stroke="#94a3b8" stroke-width="2"/>
<text x="360.0" y="1172.0" font-family="'Helvetica Neue', Arial, sans-serif" font-size="10" font-weight="bold" fill="#f8fafc">PLINTH BEAM (+1'-6" FFL)</text>

<!-- 2-Car Porch Opening (Columns A to B, X=17.5' to 36.125', Span = 18'-7½") -->
<rect x="670.0" y="970.0" width="15" height="180.0" fill="#1e293b" stroke="#0f172a" stroke-width="2"/>
<rect x="1027.5" y="970.0" width="15" height="180.0" fill="#1e293b" stroke="#0f172a" stroke-width="2"/>

<!-- Driveway Pavers under Porch -->
<polygon points="640.0,1180.0 1062.5,1180.0 1042.5,1150.0 660.0,1150.0" fill="#e2e8f0" stroke="#cbd5e1" stroke-width="1"/>


<!-- TWO LUXURY CARS (REAR VIEW) -->
<!-- CAR 1: LUXURY SUV -->
<g id="car-1-suv-rear" filter="url(#crispShadow)">
  <rect x="714.0" y="1122.0" width="20" height="28" rx="4" fill="#0f172a"/>
  <rect x="806.0" y="1122.0" width="20" height="28" rx="4" fill="#0f172a"/>
  <line x1="714.0" y1="1142.0" x2="734.0" y2="1142.0" stroke="#334155" stroke-width="2"/>
  <line x1="806.0" y1="1142.0" x2="826.0" y2="1142.0" stroke="#334155" stroke-width="2"/>
  <rect x="718.0" y="1126.0" width="104" height="18" rx="3" fill="#0f172a"/>
  <rect x="722.0" y="1132.0" width="16" height="8" rx="3" fill="#cbd5e1" stroke="#475569" stroke-width="1"/>
  <rect x="802.0" y="1132.0" width="16" height="8" rx="3" fill="#cbd5e1" stroke="#475569" stroke-width="1"/>
  <path d="M 710.0,1130.0 Q 708.0,1098.0 714.0,1088.0 L 826.0,1088.0 Q 832.0,1098.0 830.0,1130.0 Z" fill="url(#suvBody)" stroke="#0f172a" stroke-width="1.5"/>
  <rect x="748.0" y="1105.0" width="44" height="18" rx="2" fill="#0f172a"/>
  <rect x="750.0" y="1107.0" width="40" height="14" rx="1.5" fill="#f8fafc" stroke="#94a3b8" stroke-width="0.75"/>
  <text x="770.0" y="1118.0" font-family="'Helvetica Neue', Arial, sans-serif" font-size="8" font-weight="900" fill="#0f172a" text-anchor="middle" letter-spacing="1">ISB - 777</text>
  <rect x="716.0" y="1086.0" width="108" height="8" rx="3" fill="url(#redLightbar)" filter="url(#tailLightGlow)"/>
  <circle cx="722.0" cy="1090.0" r="2.5" fill="#fef2f2"/>
  <circle cx="818.0" cy="1090.0" r="2.5" fill="#fef2f2"/>
  <path d="M 718.0,1086.0 L 730.0,1046.0 L 810.0,1046.0 L 822.0,1086.0 Z" fill="#090d16" stroke="#0f172a" stroke-width="1.5"/>
  <polygon points="734.0,1050.0 760.0,1050.0 778.0,1082.0 752.0,1082.0" fill="#38bdf8" opacity="0.35"/>
  <rect x="754.0" y="1047.0" width="32" height="3" rx="1" fill="#ef4444"/>
  <rect x="727.0" y="1042.0" width="86" height="6" rx="2" fill="#1e293b"/>
  <polygon points="770.0,1036.0 767.0,1042.0 773.0,1042.0" fill="#0f172a"/>
  <ellipse cx="712.0" cy="1076.0" rx="7" ry="4" fill="#334155" stroke="#0f172a" stroke-width="1"/>
  <ellipse cx="828.0" cy="1076.0" rx="7" ry="4" fill="#334155" stroke="#0f172a" stroke-width="1"/>
</g>

<!-- CAR 2: LUXURY SPORTS SEDAN -->
<g id="car-2-sedan-rear" filter="url(#crispShadow)">
  <rect x="886.0" y="1126.0" width="18" height="24" rx="3" fill="#0f172a"/>
  <rect x="976.0" y="1126.0" width="18" height="24" rx="3" fill="#0f172a"/>
  <rect x="890.0" y="1130.0" width="100" height="15" rx="3" fill="#0f172a"/>
  <circle cx="898.0" cy="1138.0" r="4" fill="#cbd5e1" stroke="#334155" stroke-width="1"/>
  <circle cx="908.0" cy="1138.0" r="4" fill="#cbd5e1" stroke="#334155" stroke-width="1"/>
  <circle cx="972.0" cy="1138.0" r="4" fill="#cbd5e1" stroke="#334155" stroke-width="1"/>
  <circle cx="982.0" cy="1138.0" r="4" fill="#cbd5e1" stroke="#334155" stroke-width="1"/>
  <path d="M 882.0,1134.0 Q 880.0,1106.0 888.0,1098.0 L 992.0,1098.0 Q 1000.0,1106.0 998.0,1134.0 Z" fill="url(#sedanBody)" stroke="#0f172a" stroke-width="1.5"/>
  <rect x="920.0" y="1112.0" width="40" height="16" rx="2" fill="#020617"/>
  <rect x="922.0" y="1114.0" width="36" height="12" rx="1.5" fill="#f8fafc"/>
  <text x="940.0" y="1123.0" font-family="'Helvetica Neue', Arial, sans-serif" font-size="7.5" font-weight="900" fill="#0f172a" text-anchor="middle" letter-spacing="1">LHR - 888</text>
  <rect x="890.0" y="1096.0" width="100" height="6" rx="2" fill="url(#redLightbar)" filter="url(#tailLightGlow)"/>
  <path d="M 892.0,1096.0 L 906.0,1062.0 L 974.0,1062.0 L 988.0,1096.0 Z" fill="#0b0f19" stroke="#0f172a" stroke-width="1.5"/>
  <polygon points="910.0,1065.0 932.0,1065.0 952.0,1092.0 930.0,1092.0" fill="#60a5fa" opacity="0.30"/>
  <rect x="902.0" y="1059.0" width="76" height="5" rx="2" fill="#1e293b"/>
  <ellipse cx="886.0" cy="1086.0" rx="6" ry="3.5" fill="#334155" stroke="#0f172a" stroke-width="1"/>
  <ellipse cx="994.0" cy="1086.0" rx="6" ry="3.5" fill="#334155" stroke="#0f172a" stroke-width="1"/>
</g>


<!-- 1. BEDROOM 2 FAÇADE & WINDOW W1 (X=40'-7½" to 47'-7½", 7'x6') -->
<rect x="1042.5" y="970.0" width="305.0" height="180.0" fill="url(#travertineSkin)" stroke="#78350f" stroke-width="1.8"/>
<rect x="1042.5" y="970.0" width="305.0" height="180.0" fill="url(#travertineJoints)" opacity="0.65"/>
<rect x="1128.5" y="1016.0" width="148.0" height="128.0" rx="2" fill="#0f172a" stroke="#020617" stroke-width="2.5"/>
<rect x="1132.5" y="1020.0" width="140.0" height="120.0" fill="url(#interiorWarmGlow)"/>
<rect x="1132.5" y="1020.0" width="140.0" height="120.0" fill="url(#glassReflection)"/>
<line x1="1202.5" y1="1020.0" x2="1202.5" y2="1140.0" stroke="#0f172a" stroke-width="3"/>
<rect x="1126.5" y="1140.0" width="152.0" height="6" rx="1.5" fill="#decfae" stroke="#78350f" stroke-width="1"/>


<!-- 2. GUEST ENTRANCE & DRAWING ROOM FAÇADE (X=51'-4½" to 68'-7½") -->
<rect x="1347.5" y="970.0" width="345.0" height="180.0" fill="url(#stuccoWall)" stroke="#334155" stroke-width="2"/>

<!-- Illuminated Travertine Entrance Steps -->
<rect x="1380.0" y="1172.0" width="90.0" height="8.0" fill="#e2e8f0" stroke="#94a3b8" stroke-width="1"/>
<rect x="1384.0" y="1164.0" width="81.99999999999989" height="8.0" fill="#cbd5e1" stroke="#94a3b8" stroke-width="1"/>
<rect x="1390.0" y="1156.0" width="70.0" height="8.0" fill="#e2e8f0" stroke="#94a3b8" stroke-width="1"/>
<rect x="1390.0" y="1150.0" width="70.0" height="6.0" fill="#f8fafc" stroke="#94a3b8" stroke-width="1"/>

<!-- Guest Pivot Door (53.5 to 57.0, 3.5' x 8') -->
<rect x="1390.0" y="990.0" width="70.0" height="160.0" fill="#0f172a" stroke="#000" stroke-width="2"/>
<rect x="1394.0" y="994.0" width="62.00000000000003" height="152.0" fill="url(#woodSoffit)"/>
<line x1="1412.0" y1="994.0" x2="1412.0" y2="1146.0" stroke="#451a03" stroke-width="1.5"/>
<line x1="1432.0" y1="994.0" x2="1432.0" y2="1146.0" stroke="#451a03" stroke-width="1.5"/>
<rect x="1444.0" y="1050.0" width="4" height="70.0" rx="2" fill="#fbbf24" stroke="#d97706" stroke-width="1"/>
<circle cx="1425.0" cy="984.0" r="8" fill="#fef08a" filter="url(#softGlow)"/>

<!-- Drawing Room Picture Window W2 (X=59.0 to 67.0, 8'x6') -->
<rect x="1496.0" y="1016.0" width="168.0" height="128.0" rx="2" fill="#0f172a" stroke="#020617" stroke-width="2.5"/>
<rect x="1500.0" y="1020.0" width="160.0" height="120.0" fill="url(#interiorWarmGlow)"/>
<rect x="1500.0" y="1020.0" width="160.0" height="120.0" fill="url(#glassReflection)"/>
<circle cx="1580.0" cy="1052.0" r="14" fill="#fef08a" opacity="0.8" filter="url(#softGlow)"/>
<circle cx="1580.0" cy="1052.0" r="5" fill="#d97706"/>
<line x1="1580.0" y1="1020.0" x2="1580.0" y2="1046.0" stroke="#78350f" stroke-width="2"/>
<rect x="1500.0" y="1020.0" width="16" height="120.0" fill="#fef3c7" opacity="0.5"/>
<rect x="1644.0" y="1020.0" width="16" height="120.0" fill="#fef3c7" opacity="0.5"/>
<line x1="1580.0" y1="1020.0" x2="1580.0" y2="1140.0" stroke="#0f172a" stroke-width="3"/>
<rect x="1494.0" y="1140.0" width="172.0" height="6" rx="1.5" fill="#cbd5e1" stroke="#64748b" stroke-width="1"/>


<!-- 3. BEDROOM 1 FAÇADE & WINDOW W1 (X=73'-4½" to 80'-4½", 7'x6') -->
<rect x="1692.5" y="970.0" width="330.0" height="180.0" fill="url(#stuccoWall)" stroke="#334155" stroke-width="2"/>
<line x1="1692.5" y1="1100.0" x2="2022.5" y2="1100.0" stroke="#cbd5e1" stroke-width="1.5"/>
<line x1="1692.5" y1="1040.0" x2="2022.5" y2="1040.0" stroke="#cbd5e1" stroke-width="1.5"/>

<rect x="1783.5" y="1016.0" width="148.0" height="128.0" rx="2" fill="#0f172a" stroke="#000" stroke-width="2.5"/>
<rect x="1787.5" y="1020.0" width="140.0" height="120.0" fill="url(#interiorWarmGlow)"/>
<rect x="1787.5" y="1020.0" width="140.0" height="120.0" fill="url(#glassReflection)"/>
<line x1="1857.5" y1="1020.0" x2="1857.5" y2="1140.0" stroke="#0f172a" stroke-width="3"/>
<rect x="1781.5" y="1140.0" width="152.0" height="6" rx="1.5" fill="#cbd5e1" stroke="#64748b" stroke-width="1"/>

<!-- EAST PASSAGE ARCHITECTURAL REVEAL & FLUSH SLATTED GATE (X=85'-1½" to 87'-2½") -->
<g id="east-passage-reveal">
  <!-- Slim Stone Fin at Edge of Main Block -->
  <rect x="2022.5" y="970.0" width="7.0" height="180.0" fill="#334155" stroke="#0f172a" stroke-width="1.5"/>
  <!-- Recessed Slatted Bronze/Timber Security Gate (Height +6'-0") -->
  <rect x="2029.5" y="1060.0" width="34.699999999999875" height="120.0" fill="url(#passageGateSlats)" stroke="#0f172a" stroke-width="1.2"/>
  <rect x="2027.5" y="1056.0" width="38.699999999999875" height="4" fill="#0f172a"/>
</g>


<!-- 10. LANDSCAPE ENTOURAGE -->
<g id="west-tree-entourage">
  <path d="M 500.0,1180.0 Q 490.0,1080.0 480.0,960.0 Q 470.0,880.0 440.0,820.0" fill="none" stroke="#292524" stroke-width="3.5" stroke-linecap="round"/>
  <path d="M 480.0,960.0 Q 510.0,900.0 550.0,840.0" fill="none" stroke="#292524" stroke-width="2.5" stroke-linecap="round"/>
  <circle cx="440.0" cy="820.0" r="28" fill="#4d7c0f" opacity="0.6"/>
  <circle cx="490.0" cy="790.0" r="34" fill="#65a30d" opacity="0.7"/>
  <circle cx="550.0" cy="840.0" r="26" fill="#4d7c0f" opacity="0.65"/>
  <circle cx="420.0" cy="940.0" r="20" fill="#3f6212" opacity="0.75"/>
</g>

<g id="human-scale-figures" opacity="0.85">
  <circle cx="1550.0" cy="1060.0" r="5.5" fill="#0f172a"/>
  <path d="M 1550.0,1068.0 L 1550.0,1124.0 L 1536.0,1180.0" stroke="#0f172a" stroke-width="3.5" stroke-linecap="round"/>
  <line x1="1550.0" y1="1124.0" x2="1564.0" y2="1180.0" stroke="#0f172a" stroke-width="3.5" stroke-linecap="round"/>
  <circle cx="1580.0" cy="1068.0" r="5" fill="#334155"/>
  <path d="M 1580.0,1076.0 L 1580.0,1128.0 L 1568.0,1180.0" stroke="#334155" stroke-width="3" stroke-linecap="round"/>
  <line x1="1580.0" y1="1128.0" x2="1592.0" y2="1180.0" stroke="#334155" stroke-width="3" stroke-linecap="round"/>
</g>

<!-- 11. ARCHITECTURAL LEVEL DATUMS -->


<line x1="60" y1="1180.0" x2="2160.0" y2="1180.0" stroke="#94a3b8" stroke-width="0.75" stroke-dasharray="6,4"/>
<circle cx="110" cy="1180.0" r="12" fill="#ffffff" stroke="#0f172a" stroke-width="1.5"/>
<path d="M 98,1180.0 A 12,12 0 0,0 110,1168.0 L 110,1180.0 Z" fill="#0f172a"/>
<path d="M 110,1180.0 A 12,12 0 0,0 122,1192.0 L 110,1180.0 Z" fill="#0f172a"/>
<text x="135" y="1177.0" font-family="'Helvetica Neue', Arial, sans-serif" font-size="11" font-weight="bold" fill="#0f172a">FINISHED GROUND LEVEL</text>
<text x="135" y="1191.0" font-family="'Helvetica Neue', Arial, sans-serif" font-size="10" font-weight="600" fill="#475569">±0'-0"</text>


<line x1="60" y1="1150.0" x2="2160.0" y2="1150.0" stroke="#94a3b8" stroke-width="0.75" stroke-dasharray="6,4"/>
<circle cx="110" cy="1150.0" r="12" fill="#ffffff" stroke="#0f172a" stroke-width="1.5"/>
<path d="M 98,1150.0 A 12,12 0 0,0 110,1138.0 L 110,1150.0 Z" fill="#0f172a"/>
<path d="M 110,1150.0 A 12,12 0 0,0 122,1162.0 L 110,1150.0 Z" fill="#0f172a"/>
<text x="135" y="1147.0" font-family="'Helvetica Neue', Arial, sans-serif" font-size="11" font-weight="bold" fill="#0f172a">PLINTH FINISHED LEVEL</text>
<text x="135" y="1161.0" font-family="'Helvetica Neue', Arial, sans-serif" font-size="10" font-weight="600" fill="#475569">+1'-6"</text>


<line x1="60" y1="943.34" x2="2160.0" y2="943.34" stroke="#94a3b8" stroke-width="0.75" stroke-dasharray="6,4"/>
<circle cx="110" cy="943.34" r="12" fill="#ffffff" stroke="#0f172a" stroke-width="1.5"/>
<path d="M 98,943.34 A 12,12 0 0,0 110,931.34 L 110,943.34 Z" fill="#0f172a"/>
<path d="M 110,943.34 A 12,12 0 0,0 122,955.34 L 110,943.34 Z" fill="#0f172a"/>
<text x="135" y="940.34" font-family="'Helvetica Neue', Arial, sans-serif" font-size="11" font-weight="bold" fill="#0f172a">FIRST FLOOR FFL</text>
<text x="135" y="954.34" font-family="'Helvetica Neue', Arial, sans-serif" font-size="10" font-weight="600" fill="#475569">+11'-10"</text>


<line x1="60" y1="736.66" x2="2160.0" y2="736.66" stroke="#94a3b8" stroke-width="0.75" stroke-dasharray="6,4"/>
<circle cx="110" cy="736.66" r="12" fill="#ffffff" stroke="#0f172a" stroke-width="1.5"/>
<path d="M 98,736.66 A 12,12 0 0,0 110,724.66 L 110,736.66 Z" fill="#0f172a"/>
<path d="M 110,736.66 A 12,12 0 0,0 122,748.66 L 110,736.66 Z" fill="#0f172a"/>
<text x="135" y="733.66" font-family="'Helvetica Neue', Arial, sans-serif" font-size="11" font-weight="bold" fill="#0f172a">SECOND FLOOR FFL</text>
<text x="135" y="747.66" font-family="'Helvetica Neue', Arial, sans-serif" font-size="10" font-weight="600" fill="#475569">+22'-2"</text>


<line x1="60" y1="530.0" x2="2160.0" y2="530.0" stroke="#94a3b8" stroke-width="0.75" stroke-dasharray="6,4"/>
<circle cx="110" cy="530.0" r="12" fill="#ffffff" stroke="#0f172a" stroke-width="1.5"/>
<path d="M 98,530.0 A 12,12 0 0,0 110,518.0 L 110,530.0 Z" fill="#0f172a"/>
<path d="M 110,530.0 A 12,12 0 0,0 122,542.0 L 110,530.0 Z" fill="#0f172a"/>
<text x="135" y="527.0" font-family="'Helvetica Neue', Arial, sans-serif" font-size="11" font-weight="bold" fill="#0f172a">2F ROOF CANOPY LEVEL</text>
<text x="135" y="541.0" font-family="'Helvetica Neue', Arial, sans-serif" font-size="10" font-weight="600" fill="#475569">+32'-6"</text>


<line x1="60" y1="340.0" x2="2160.0" y2="340.0" stroke="#94a3b8" stroke-width="0.75" stroke-dasharray="6,4"/>
<circle cx="110" cy="340.0" r="12" fill="#ffffff" stroke="#0f172a" stroke-width="1.5"/>
<path d="M 98,340.0 A 12,12 0 0,0 110,328.0 L 110,340.0 Z" fill="#0f172a"/>
<path d="M 110,340.0 A 12,12 0 0,0 122,352.0 L 110,340.0 Z" fill="#0f172a"/>
<text x="135" y="337.0" font-family="'Helvetica Neue', Arial, sans-serif" font-size="11" font-weight="bold" fill="#0f172a">TOP OF MUMTY CORE &amp; TANK</text>
<text x="135" y="351.0" font-family="'Helvetica Neue', Arial, sans-serif" font-size="10" font-weight="600" fill="#475569">+42'-0"</text>

<!-- 12. MATERIAL SPECIFICATION LEADER LINES -->


<circle cx="1880.0" cy="340.0" r="3.5" fill="#e11d48"/>
<polyline points="1880.0,340.0 2080.0,260.0 2260.0,260.0" fill="none" stroke="#e11d48" stroke-width="1.2"/>
<text x="2090.0" y="255.0" font-family="'Helvetica Neue', Arial, sans-serif" font-size="10" font-weight="bold" fill="#0f172a" text-anchor="start">01. STAIRCASE MUMTY TOWER &amp; OVERHEAD WATER TANK (+42'-0")</text>


<circle cx="1200.0" cy="668.0" r="3.5" fill="#e11d48"/>
<polyline points="1200.0,668.0 920.0,600.0 740.0,600.0" fill="none" stroke="#e11d48" stroke-width="1.2"/>
<text x="910.0" y="595.0" font-family="'Helvetica Neue', Arial, sans-serif" font-size="10" font-weight="bold" fill="#0f172a" text-anchor="end">02. SECOND FLOOR OPEN-TO-SKY SUN TERRACE WITH 12mm TEMPERED GLASS RAILING</text>


<circle cx="800.0" cy="940.0" r="3.5" fill="#e11d48"/>
<polyline points="800.0,940.0 560.0,880.0 380.0,880.0" fill="none" stroke="#e11d48" stroke-width="1.2"/>
<text x="550.0" y="875.0" font-family="'Helvetica Neue', Arial, sans-serif" font-size="10" font-weight="bold" fill="#0f172a" text-anchor="end">03. 14" ANODIZED CHARCOAL BRONZE CANTILEVERED CANOPY FASCIA</text>


<circle cx="1320.0" cy="874.0" r="3.5" fill="#e11d48"/>
<polyline points="1320.0,874.0 960.0,800.0 780.0,800.0" fill="none" stroke="#e11d48" stroke-width="1.2"/>
<text x="950.0" y="795.0" font-family="'Helvetica Neue', Arial, sans-serif" font-size="10" font-weight="bold" fill="#0f172a" text-anchor="end">04. FIRST FLOOR CONTINUOUS FRAMELESS STRUCTURAL GLASS BALUSTRADE</text>


<circle cx="1200.0" cy="1020.0" r="3.5" fill="#e11d48"/>
<polyline points="1200.0,1020.0 1040.0,1090.0 860.0,1090.0" fill="none" stroke="#e11d48" stroke-width="1.2"/>
<text x="1030.0" y="1085.0" font-family="'Helvetica Neue', Arial, sans-serif" font-size="10" font-weight="bold" fill="#0f172a" text-anchor="end">05. BEDROOM 2 WINDOW W1 (7'-0" x 6'-0" ALUMINUM SECTION)</text>


<circle cx="1540.0" cy="1020.0" r="3.5" fill="#e11d48"/>
<polyline points="1540.0,1020.0 1540.0,1120.0 1720.0,1120.0" fill="none" stroke="#e11d48" stroke-width="1.2"/>
<text x="1550.0" y="1115.0" font-family="'Helvetica Neue', Arial, sans-serif" font-size="10" font-weight="bold" fill="#0f172a" text-anchor="start">06. DRAWING ROOM WINDOW W2 (8'-0" x 6'-0") &amp; GUEST PIVOT ENTRY DOOR</text>


<circle cx="1860.0" cy="1020.0" r="3.5" fill="#e11d48"/>
<polyline points="1860.0,1020.0 1860.0,1090.0 2040.0,1090.0" fill="none" stroke="#e11d48" stroke-width="1.2"/>
<text x="1870.0" y="1085.0" font-family="'Helvetica Neue', Arial, sans-serif" font-size="10" font-weight="bold" fill="#0f172a" text-anchor="start">07. BEDROOM 1 WINDOW W1 (7'-0" x 6'-0" ALUMINUM SECTION)</text>


<circle cx="860.0" cy="1130.0" r="3.5" fill="#e11d48"/>
<polyline points="860.0,1130.0 600.0,1170.0 420.0,1170.0" fill="none" stroke="#e11d48" stroke-width="1.2"/>
<text x="590.0" y="1165.0" font-family="'Helvetica Neue', Arial, sans-serif" font-size="10" font-weight="bold" fill="#0f172a" text-anchor="end">08. COVERED TWO-CAR PORCH (18'-7½" SPAN) WITH TRAVERTINE PAVING</text>


<circle cx="2040.0" cy="1080.0" r="3.5" fill="#e11d48"/>
<polyline points="2040.0,1080.0 2080.0,1150.0 2260.0,1150.0" fill="none" stroke="#e11d48" stroke-width="1.2"/>
<text x="2090.0" y="1145.0" font-family="'Helvetica Neue', Arial, sans-serif" font-size="10" font-weight="bold" fill="#0f172a" text-anchor="start">09. EAST PERIMETER PASSAGE REVEAL (2'-1" CLEAR) WITH SLATTED BRONZE GATE</text>


<!-- 13. OVERALL DIMENSIONS & SETBACK SPANS -->
<line x1="320.0" y1="1270.0" x2="2078.34" y2="1270.0" stroke="#0f172a" stroke-width="1.5"/>
<line x1="320.0" y1="1258.0" x2="320.0" y2="1282.0" stroke="#0f172a" stroke-width="2"/>
<line x1="2078.34" y1="1258.0" x2="2078.34" y2="1282.0" stroke="#0f172a" stroke-width="2"/>
<line x1="314.0" y1="1276.0" x2="326.0" y2="1264.0" stroke="#0f172a" stroke-width="2.5"/>
<line x1="2072.34" y1="1276.0" x2="2084.34" y2="1264.0" stroke="#0f172a" stroke-width="2.5"/>
<rect x="1060.0" y="1256.0" width="280" height="26" fill="#ffffff" stroke="#cbd5e1" stroke-width="1" rx="4"/>
<text x="1200.0" y="1274.0" font-family="'Helvetica Neue', Arial, sans-serif" font-size="14" font-weight="bold" fill="#0f172a" text-anchor="middle">OVERALL PLOT FRONTAGE = 87'-11" (26.80 m)</text>

<!-- Bay Sub-Dimensions -->
<line x1="670.0" y1="1296.0" x2="1042.5" y2="1296.0" stroke="#475569" stroke-width="1.2"/>
<line x1="666.0" y1="1300.0" x2="674.0" y2="1292.0" stroke="#475569" stroke-width="2"/>
<line x1="1038.5" y1="1300.0" x2="1046.5" y2="1292.0" stroke="#475569" stroke-width="2"/>
<text x="856.25" y="1310.0" font-family="'Helvetica Neue', Arial, sans-serif" font-size="11" font-weight="bold" fill="#334155" text-anchor="middle">2-CAR PORCH: 18'-7½"</text>

<line x1="1042.5" y1="1296.0" x2="1347.5" y2="1296.0" stroke="#475569" stroke-width="1.2"/>
<line x1="1343.5" y1="1300.0" x2="1351.5" y2="1292.0" stroke="#475569" stroke-width="2"/>
<text x="1195.0" y="1310.0" font-family="'Helvetica Neue', Arial, sans-serif" font-size="11" font-weight="bold" fill="#334155" text-anchor="middle">BEDROOM 2: 15'-3"</text>

<line x1="1347.5" y1="1296.0" x2="1692.5" y2="1296.0" stroke="#475569" stroke-width="1.2"/>
<line x1="1688.5" y1="1300.0" x2="1696.5" y2="1292.0" stroke="#475569" stroke-width="2"/>
<text x="1520.0" y="1310.0" font-family="'Helvetica Neue', Arial, sans-serif" font-size="11" font-weight="bold" fill="#334155" text-anchor="middle">DRAWING &amp; ENTRY: 17'-3"</text>

<line x1="1692.5" y1="1296.0" x2="2022.5" y2="1296.0" stroke="#475569" stroke-width="1.2"/>
<line x1="2018.5" y1="1300.0" x2="2026.5" y2="1292.0" stroke="#475569" stroke-width="2"/>
<text x="1857.5" y="1310.0" font-family="'Helvetica Neue', Arial, sans-serif" font-size="11" font-weight="bold" fill="#334155" text-anchor="middle">BEDROOM 1: 16'-6"</text>

<line x1="2022.5" y1="1296.0" x2="2064.2" y2="1296.0" stroke="#475569" stroke-width="1.2"/>
<line x1="2060.2" y1="1300.0" x2="2068.2" y2="1292.0" stroke="#475569" stroke-width="2"/>
<text x="2043.35" y="1310.0" font-family="'Helvetica Neue', Arial, sans-serif" font-size="10" font-weight="bold" fill="#334155" text-anchor="middle">PASSAGE: 2'-1"</text>


<!-- 14. PRESENTATION TITLE BLOCK -->
<g filter="url(#crispShadow)">
  <rect x="1720" y="1320" width="640" height="140" rx="8" fill="#0f172a" stroke="#1e293b" stroke-width="2"/>
  <rect x="1724" y="1324" width="632" height="32" rx="4" fill="#1e293b"/>
  <text x="1736" y="1345" font-family="'Helvetica Neue', Arial, sans-serif" font-size="13" font-weight="bold" fill="#f8fafc" letter-spacing="1.5">RESIDENCE FOR MR. DAATA HAMLET</text>
  <text x="2344" y="1345" font-family="'Helvetica Neue', Arial, sans-serif" font-size="11" font-weight="bold" fill="#f59e0b" text-anchor="end">WITHOUT BOUNDARY WALL</text>
  <text x="1736" y="1378" font-family="'Helvetica Neue', Arial, sans-serif" font-size="15" font-weight="800" fill="#ffffff" letter-spacing="0.5">SOUTH FRONT ELEVATION — PURE ARCHITECTURE (WITHOUT BOUNDARY WALL)</text>
  <text x="1736" y="1398" font-family="'Helvetica Neue', Arial, sans-serif" font-size="11" font-weight="500" fill="#94a3b8">ARCHITECTURAL TENDER DRAWING | 3-STOREY CANOPY RESIDENCE | SCALE 1:50</text>
  <line x1="1736" y1="1410" x2="2344" y2="1410" stroke="#334155" stroke-width="1"/>
  <text x="1736" y="1426" font-family="'Helvetica Neue', Arial, sans-serif" font-size="10" font-weight="bold" fill="#64748b">SHEET NO:</text>
  <text x="1800" y="1426" font-family="'Helvetica Neue', Arial, sans-serif" font-size="11" font-weight="bold" fill="#38bdf8">A-201B</text>
  <text x="1880" y="1426" font-family="'Helvetica Neue', Arial, sans-serif" font-size="10" font-weight="bold" fill="#64748b">SCALE:</text>
  <text x="1930" y="1426" font-family="'Helvetica Neue', Arial, sans-serif" font-size="11" font-weight="bold" fill="#f8fafc">1/4" = 1'-0" (1:50)</text>
  <text x="2060" y="1426" font-family="'Helvetica Neue', Arial, sans-serif" font-size="10" font-weight="bold" fill="#64748b">PLOT AREA:</text>
  <text x="2135" y="1426" font-family="'Helvetica Neue', Arial, sans-serif" font-size="11" font-weight="bold" fill="#f8fafc">3,129.1 SQ.FT (12.8 MARLA)</text>
  <text x="1736" y="1444" font-family="'Helvetica Neue', Arial, sans-serif" font-size="10" font-weight="bold" fill="#64748b">PROJECT:</text>
  <text x="1795" y="1444" font-family="'Helvetica Neue', Arial, sans-serif" font-size="11" font-weight="bold" fill="#f8fafc">CANOPY VILLA (GF + 1F + 2F + MUMTY)</text>
  <text x="2050" y="1444" font-family="'Helvetica Neue', Arial, sans-serif" font-size="10" font-weight="bold" fill="#64748b">STATUS:</text>
  <text x="2105" y="1444" font-family="'Helvetica Neue', Arial, sans-serif" font-size="11" font-weight="bold" fill="#4ade80">ISSUED FOR CONSTRUCTION</text>
</g>

<!-- Compass North -->
<g transform="translate(2300, 120)">
  <circle cx="0" cy="0" r="26" fill="#ffffff" stroke="#0f172a" stroke-width="1.8" filter="url(#crispShadow)"/>
  <polygon points="0,-20 -6,0 0,-4" fill="#e11d48"/>
  <polygon points="0,-20 6,0 0,-4" fill="#0f172a"/>
  <polygon points="0,20 -6,0 0,4" fill="#94a3b8"/>
  <polygon points="0,20 6,0 0,4" fill="#cbd5e1"/>
  <text x="0" y="-24" font-family="'Helvetica Neue', Arial, sans-serif" font-size="12" font-weight="bold" fill="#0f172a" text-anchor="middle">N</text>
  <text x="0" y="34" font-family="'Helvetica Neue', Arial, sans-serif" font-size="9" font-weight="bold" fill="#64748b" text-anchor="middle">SOUTH VIEW</text>
</g>

</svg>