  0
SECTION
  2
HEADER
  9
$ACADVER
  1
AC1032
  9
$ACADMAINTVER
 90
4
  9
$DWGCODEPAGE
  3
ANSI_1252
  9
$LASTSAVEDBY
  1
ezdxf
  9
$REQUIREDVERSIONS
160
0
  9
$INSBASE
 10
0.0
 20
0.0
 30
0.0
  9
$EXTMIN
 10
1e+20
 20
1e+20
 30
1e+20
  9
$EXTMAX
 10
-1e+20
 20
-1e+20
 30
-1e+20
  9
$LIMMIN
 10
0.0
 20
0.0
  9
$LIMMAX
 10
420.0
 20
297.0
  9
$ORTHOMODE
 70
0
  9
$REGENMODE
 70
1
  9
$FILLMODE
 70
1
  9
$QTEXTMODE
 70
0
  9
$MIRRTEXT
 70
1
  9
$LTSCALE
 40
1.0
  9
$ATTMODE
 70
1
  9
$TEXTSIZE
 40
2.5
  9
$TRACEWID
 40
1.0
  9
$TEXTSTYLE
  7
OpenSans
  9
$CLAYER
  8
0
  9
$CELTYPE
  6
ByLayer
  9
$CECOLOR
 62
256
  9
$CELTSCALE
 40
1.0
  9
$DISPSILH
 70
0
  9
$DIMSCALE
 40
1.0
  9
$DIMASZ
 40
0.175
  9
$DIMEXO
 40
0.125
  9
$DIMDLI
 40
3.75
  9
$DIMRND
 40
0.0
  9
$DIMDLE
 40
0.0
  9
$DIMEXE
 40
0.375
  9
$DIMTP
 40
0.0
  9
$DIMTM
 40
0.0
  9
$DIMTXT
 40
0.25
  9
$DIMCEN
 40
2.5
  9
$DIMTSZ
 40
0.0
  9
$DIMTOL
 70
0
  9
$DIMLIM
 70
0
  9
$DIMTIH
 70
0
  9
$DIMTOH
 70
0
  9
$DIMSE1
 70
0
  9
$DIMSE2
 70
0
  9
$DIMTAD
 70
1
  9
$DIMZIN
 70
12
  9
$DIMBLK
  1
ARCHTICK
  9
$DIMASO
 70
1
  9
$DIMSHO
 70
1
  9
$DIMPOST
  1

  9
$DIMAPOST
  1

  9
$DIMALT
 70
0
  9
$DIMALTD
 70
3
  9
$DIMALTF
 40
0.03937007874
  9
$DIMLFAC
 40
100.0
  9
$DIMTOFL
 70
1
  9
$DIMTVP
 40
0.0
  9
$DIMTIX
 70
0
  9
$DIMSOXD
 70
0
  9
$DIMSAH
 70
0
  9
$DIMBLK1
  1

  9
$DIMBLK2
  1

  9
$DIMSTYLE
  2
EZDXF
  9
$DIMCLRD
 70
0
  9
$DIMCLRE
 70
0
  9
$DIMCLRT
 70
0
  9
$DIMTFAC
 40
0.5
  9
$DIMGAP
 40
0.1
  9
$DIMJUST
 70
0
  9
$DIMSD1
 70
0
  9
$DIMSD2
 70
0
  9
$DIMTOLJ
 70
0
  9
$DIMTZIN
 70
8
  9
$DIMALTZ
 70
0
  9
$DIMALTTZ
 70
0
  9
$DIMUPT
 70
1
  9
$DIMDEC
 70
2
  9
$DIMTDEC
 70
2
  9
$DIMALTU
 70
2
  9
$DIMALTTD
 70
3
  9
$DIMTXSTY
  7
OpenSansCondensed-Light
  9
$DIMAUNIT
 70
0
  9
$DIMADEC
 70
2
  9
$DIMALTRND
 40
0.0
  9
$DIMAZIN
 70
3
  9
$DIMDSEP
 70
46
  9
$DIMATFIT
 70
3
  9
$DIMFRAC
 70
0
  9
$DIMLDRBLK
  1

  9
$DIMLUNIT
 70
2
  9
$DIMLWD
 70
-2
  9
$DIMLWE
 70
-2
  9
$DIMTMOVE
 70
2
  9
$DIMFXL
 40
1.0
  9
$DIMFXLON
 70
0
  9
$DIMJOGANG
 40
0.785398163397
  9
$DIMTFILL
 70
0
  9
$DIMTFILLCLR
 70
0
  9
$DIMARCSYM
 70
0
  9
$DIMLTYPE
  6

  9
$DIMLTEX1
  6

  9
$DIMLTEX2
  6

  9
$DIMTXTDIRECTION
 70
0
  9
$LUNITS
 70
2
  9
$LUPREC
 70
4
  9
$SKETCHINC
 40
1.0
  9
$FILLETRAD
 40
10.0
  9
$AUNITS
 70
0
  9
$AUPREC
 70
2
  9
$MENU
  1
.
  9
$ELEVATION
 40
0.0
  9
$PELEVATION
 40
0.0
  9
$THICKNESS
 40
0.0
  9
$LIMCHECK
 70
0
  9
$CHAMFERA
 40
0.0
  9
$CHAMFERB
 40
0.0
  9
$CHAMFERC
 40
0.0
  9
$CHAMFERD
 40
0.0
  9
$SKPOLY
 70
0
  9
$TDCREATE
 40
2461319.5475578704
  9
$TDUCREATE
 40
2458532.153996898
  9
$TDUPDATE
 40
2461319.5475578704
  9
$TDUUPDATE
 40
2458532.1544311
  9
$TDINDWG
 40
0.0
  9
$TDUSRTIMER
 40
0.0
  9
$USRTIMER
 70
1
  9
$ANGBASE
 50
0.0
  9
$ANGDIR
 70
0
  9
$PDMODE
 70
0
  9
$PDSIZE
 40
0.0
  9
$PLINEWID
 40
0.0
  9
$SPLFRAME
 70
0
  9
$SPLINETYPE
 70
6
  9
$SPLINESEGS
 70
8
  9
$HANDSEED
  5
2FB
  9
$SURFTAB1
 70
6
  9
$SURFTAB2
 70
6
  9
$SURFTYPE
 70
6
  9
$SURFU
 70
6
  9
$SURFV
 70
6
  9
$UCSBASE
  2

  9
$UCSNAME
  2

  9
$UCSORG
 10
0.0
 20
0.0
 30
0.0
  9
$UCSXDIR
 10
1.0
 20
0.0
 30
0.0
  9
$UCSYDIR
 10
0.0
 20
1.0
 30
0.0
  9
$UCSORTHOREF
  2

  9
$UCSORTHOVIEW
 70
0
  9
$UCSORGTOP
 10
0.0
 20
0.0
 30
0.0
  9
$UCSORGBOTTOM
 10
0.0
 20
0.0
 30
0.0
  9
$UCSORGLEFT
 10
0.0
 20
0.0
 30
0.0
  9
$UCSORGRIGHT
 10
0.0
 20
0.0
 30
0.0
  9
$UCSORGFRONT
 10
0.0
 20
0.0
 30
0.0
  9
$UCSORGBACK
 10
0.0
 20
0.0
 30
0.0
  9
$PUCSBASE
  2

  9
$PUCSNAME
  2

  9
$PUCSORG
 10
0.0
 20
0.0
 30
0.0
  9
$PUCSXDIR
 10
1.0
 20
0.0
 30
0.0
  9
$PUCSYDIR
 10
0.0
 20
1.0
 30
0.0
  9
$PUCSORTHOREF
  2

  9
$PUCSORTHOVIEW
 70
0
  9
$PUCSORGTOP
 10
0.0
 20
0.0
 30
0.0
  9
$PUCSORGBOTTOM
 10
0.0
 20
0.0
 30
0.0
  9
$PUCSORGLEFT
 10
0.0
 20
0.0
 30
0.0
  9
$PUCSORGRIGHT
 10
0.0
 20
0.0
 30
0.0
  9
$PUCSORGFRONT
 10
0.0
 20
0.0
 30
0.0
  9
$PUCSORGBACK
 10
0.0
 20
0.0
 30
0.0
  9
$USERI1
 70
0
  9
$USERI2
 70
0
  9
$USERI3
 70
0
  9
$USERI4
 70
0
  9
$USERI5
 70
0
  9
$USERR1
 40
0.0
  9
$USERR2
 40
0.0
  9
$USERR3
 40
0.0
  9
$USERR4
 40
0.0
  9
$USERR5
 40
0.0
  9
$WORLDVIEW
 70
1
  9
$SHADEDGE
 70
3
  9
$SHADEDIF
 70
70
  9
$TILEMODE
 70
1
  9
$MAXACTVP
 70
64
  9
$PINSBASE
 10
0.0
 20
0.0
 30
0.0
  9
$PLIMCHECK
 70
0
  9
$PEXTMIN
 10
1e+20
 20
1e+20
 30
1e+20
  9
$PEXTMAX
 10
-1e+20
 20
-1e+20
 30
-1e+20
  9
$PLIMMIN
 10
0.0
 20
0.0
  9
$PLIMMAX
 10
420.0
 20
297.0
  9
$UNITMODE
 70
0
  9
$VISRETAIN
 70
1
  9
$PLINEGEN
 70
0
  9
$PSLTSCALE
 70
1
  9
$TREEDEPTH
 70
3020
  9
$CMLSTYLE
  2
Standard
  9
$CMLJUST
 70
0
  9
$CMLSCALE
 40
20.0
  9
$PROXYGRAPHICS
 70
1
  9
$MEASUREMENT
 70
0
  9
$CELWEIGHT
370
-1
  9
$ENDCAPS
280
0
  9
$JOINSTYLE
280
0
  9
$LWDISPLAY
290
0
  9
$INSUNITS
 70
2
  9
$HYPERLINKBASE
  1

  9
$STYLESHEET
  1

  9
$XEDIT
290
1
  9
$CEPSNTYPE
380
0
  9
$PSTYLEMODE
290
1
  9
$FINGERPRINTGUID
  2
{B3EA10EC-C4ED-4B83-98D2-09687D15886C}
  9
$VERSIONGUID
  2
{753A1CA8-BF85-43D8-9E72-225B630FD0DB}
  9
$EXTNAMES
290
1
  9
$PSVPSCALE
 40
0.0
  9
$OLESTARTUP
290
0
  9
$SORTENTS
280
127
  9
$INDEXCTL
280
0
  9
$HIDETEXT
280
1
  9
$XCLIPFRAME
280
1
  9
$HALOGAP
280
0
  9
$OBSCOLOR
 70
257
  9
$OBSLTYPE
280
0
  9
$INTERSECTIONDISPLAY
280
0
  9
$INTERSECTIONCOLOR
 70
257
  9
$DIMASSOC
280
2
  9
$PROJECTNAME
  1

  9
$CAMERADISPLAY
290
0
  9
$LENSLENGTH
 40
50.0
  9
$CAMERAHEIGHT
 40
0.0
  9
$STEPSPERSEC
 40
24.0
  9
$STEPSIZE
 40
100.0
  9
$3DDWFPREC
 40
2.0
  9
$PSOLWIDTH
 40
0.005
  9
$PSOLHEIGHT
 40
0.08
  9
$LOFTANG1
 40
1.570796326795
  9
$LOFTANG2
 40
1.570796326795
  9
$LOFTMAG1
 40
0.0
  9
$LOFTMAG2
 40
0.0
  9
$LOFTPARAM
 70
7
  9
$LOFTNORMALS
280
1
  9
$LATITUDE
 40
37.795
  9
$LONGITUDE
 40
-122.394
  9
$NORTHDIRECTION
 40
0.0
  9
$TIMEZONE
 70
-8000
  9
$LIGHTGLYPHDISPLAY
280
1
  9
$TILEMODELIGHTSYNCH
280
1
  9
$CMATERIAL
347
20
  9
$SOLIDHIST
280
0
  9
$SHOWHIST
280
1
  9
$DWFFRAME
280
2
  9
$DGNFRAME
280
2
  9
$REALWORLDSCALE
290
1
  9
$INTERFERECOLOR
 62
256
  9
$CSHADOW
280
0
  9
$SHADOWPLANELOCATION
 40
0.0
  0
ENDSEC
  0
SECTION
  2
CLASSES
  0
CLASS
  1
ACDBDICTIONARYWDFLT
  2
AcDbDictionaryWithDefault
  3
ObjectDBX Classes
 90
0
 91
0
280
0
281
0
  0
CLASS
  1
SUN
  2
AcDbSun
  3
SCENEOE
 90
1153
 91
0
280
0
281
0
  0
CLASS
  1
VISUALSTYLE
  2
AcDbVisualStyle
  3
ObjectDBX Classes
 90
4095
 91
0
280
0
281
0
  0
CLASS
  1
MATERIAL
  2
AcDbMaterial
  3
ObjectDBX Classes
 90
1153
 91
0
280
0
281
0
  0
CLASS
  1
SCALE
  2
AcDbScale
  3
ObjectDBX Classes
 90
1153
 91
0
280
0
281
0
  0
CLASS
  1
TABLESTYLE
  2
AcDbTableStyle
  3
ObjectDBX Classes
 90
4095
 91
0
280
0
281
0
  0
CLASS
  1
MLEADERSTYLE
  2
AcDbMLeaderStyle
  3
ACDB_MLEADERSTYLE_CLASS
 90
4095
 91
0
280
0
281
0
  0
CLASS
  1
DICTIONARYVAR
  2
AcDbDictionaryVar
  3
ObjectDBX Classes
 90
0
 91
0
280
0
281
0
  0
CLASS
  1
CELLSTYLEMAP
  2
AcDbCellStyleMap
  3
ObjectDBX Classes
 90
1152
 91
0
280
0
281
0
  0
CLASS
  1
MENTALRAYRENDERSETTINGS
  2
AcDbMentalRayRenderSettings
  3
SCENEOE
 90
1024
 91
0
280
0
281
0
  0
CLASS
  1
ACDBDETAILVIEWSTYLE
  2
AcDbDetailViewStyle
  3
ObjectDBX Classes
 90
1025
 91
0
280
0
281
0
  0
CLASS
  1
ACDBSECTIONVIEWSTYLE
  2
AcDbSectionViewStyle
  3
ObjectDBX Classes
 90
1025
 91
0
280
0
281
0
  0
CLASS
  1
RASTERVARIABLES
  2
AcDbRasterVariables
  3
ISM
 90
0
 91
0
280
0
281
0
  0
CLASS
  1
LAYOUT
  2
AcDbLayout
  3
ObjectDBX Classes
 90
0
 91
0
280
0
281
0
  0
CLASS
  1
ACDBPLACEHOLDER
  2
AcDbPlaceHolder
  3
ObjectDBX Classes
 90
0
 91
0
280
0
281
0
  0
ENDSEC
  0
SECTION
  2
TABLES
  0
TABLE
  2
VPORT
  5
8
330
0
100
AcDbSymbolTable
 70
1
  0
VPORT
  5
23
330
8
100
AcDbSymbolTableRecord
100
AcDbViewportTableRecord
  2
*Active
 70
0
 10
0.0
 20
0.0
 11
1.0
 21
1.0
 12
0.0
 22
0.0
 13
0.0
 23
0.0
 14
0.5
 24
0.5
 15
0.5
 25
0.5
 16
0.0
 26
0.0
 36
1.0
 17
0.0
 27
0.0
 37
0.0
 40
1000.0
 41
1.34
 42
50.0
 43
0.0
 44
0.0
 50
0.0
 51
0.0
 71
0
 72
1000
 73
1
 74
3
 75
0
 76
0
 77
0
 78
0
281
0
 65
0
146
0.0
  0
ENDTAB
  0
TABLE
  2
LTYPE
  5
2
330
0
100
AcDbSymbolTable
 70
21
  0
LTYPE
  5
24
330
2
100
AcDbSymbolTableRecord
100
AcDbLinetypeTableRecord
  2
ByBlock
 70
0
  3

 72
65
 73
0
 40
0.0
  0
LTYPE
  5
25
330
2
100
AcDbSymbolTableRecord
100
AcDbLinetypeTableRecord
  2
ByLayer
 70
0
  3

 72
65
 73
0
 40
0.0
  0
LTYPE
  5
26
330
2
100
AcDbSymbolTableRecord
100
AcDbLinetypeTableRecord
  2
Continuous
 70
0
  3

 72
65
 73
0
 40
0.0
  0
LTYPE
  5
2F
330
2
100
AcDbSymbolTableRecord
100
AcDbLinetypeTableRecord
  2
CENTER
 70
0
  3
Center ____ _ ____ _ ____ _ ____ _ ____ _ ____
 72
65
 73
4
 40
5.08
 49
3.175
 74
0
 49
-0.635
 74
0
 49
0.635
 74
0
 49
-0.635
 74
0
  0
LTYPE
  5
30
330
2
100
AcDbSymbolTableRecord
100
AcDbLinetypeTableRecord
  2
CENTERX2
 70
0
  3
Center (2x) ________  __  ________  __  ________
 72
65
 73
4
 40
8.89
 49
6.35
 74
0
 49
-0.635
 74
0
 49
1.27
 74
0
 49
-0.635
 74
0
  0
LTYPE
  5
31
330
2
100
AcDbSymbolTableRecord
100
AcDbLinetypeTableRecord
  2
CENTER2
 70
0
  3
Center (.5x) ____ _ ____ _ ____ _ ____ _ ____
 72
65
 73
4
 40
2.54
 49
1.587
 74
0
 49
-0.318
 74
0
 49
0.318
 74
0
 49
-0.318
 74
0
  0
LTYPE
  5
32
330
2
100
AcDbSymbolTableRecord
100
AcDbLinetypeTableRecord
  2
DASHED
 70
0
  3
Dashed __ __ __ __ __ __ __ __ __ __ __ __ __ _
 72
65
 73
2
 40
1.524
 49
1.27
 74
0
 49
-0.254
 74
0
  0
LTYPE
  5
33
330
2
100
AcDbSymbolTableRecord
100
AcDbLinetypeTableRecord
  2
DASHEDX2
 70
0
  3
Dashed (2x) ____  ____  ____  ____  ____  ____
 72
65
 73
2
 40
3.048
 49
2.54
 74
0
 49
-0.508
 74
0
  0
LTYPE
  5
34
330
2
100
AcDbSymbolTableRecord
100
AcDbLinetypeTableRecord
  2
DASHED2
 70
0
  3
Dashed (.5x) _ _ _ _ _ _ _ _ _ _ _ _ _ _
 72
65
 73
2
 40
0.762
 49
0.635
 74
0
 49
-0.127
 74
0
  0
LTYPE
  5
35
330
2
100
AcDbSymbolTableRecord
100
AcDbLinetypeTableRecord
  2
PHANTOM
 70
0
  3
Phantom ______  __  __  ______  __  __  ______
 72
65
 73
6
 40
6.35
 49
3.175
 74
0
 49
-0.635
 74
0
 49
0.635
 74
0
 49
-0.635
 74
0
 49
0.635
 74
0
 49
-0.635
 74
0
  0
LTYPE
  5
36
330
2
100
AcDbSymbolTableRecord
100
AcDbLinetypeTableRecord
  2
PHANTOMX2
 70
0
  3
Phantom (2x)____________    ____    ____    ____________
 72
65
 73
6
 40
10.795
 49
6.35
 74
0
 49
-0.635
 74
0
 49
1.27
 74
0
 49
-0.635
 74
0
 49
1.27
 74
0
 49
-0.635
 74
0
  0
LTYPE
  5
37
330
2
100
AcDbSymbolTableRecord
100
AcDbLinetypeTableRecord
  2
PHANTOM2
 70
0
  3
Phantom (.5x) ___ _ _ ___ _ _ ___ _ _ ___ _ _ ___
 72
65
 73
6
 40
3.175
 49
1.587
 74
0
 49
-0.318
 74
0
 49
0.318
 74
0
 49
-0.318
 74
0
 49
0.318
 74
0
 49
-0.318
 74
0
  0
LTYPE
  5
38
330
2
100
AcDbSymbolTableRecord
100
AcDbLinetypeTableRecord
  2
DASHDOT
 70
0
  3
Dash dot __ . __ . __ . __ . __ . __ . __ . __
 72
65
 73
4
 40
3.556
 49
2.54
 74
0
 49
-0.508
 74
0
 49
0.0
 74
0
 49
-0.508
 74
0
  0
LTYPE
  5
39
330
2
100
AcDbSymbolTableRecord
100
AcDbLinetypeTableRecord
  2
DASHDOTX2
 70
0
  3
Dash dot (2x) ____  .  ____  .  ____  .  ____
 72
65
 73
4
 40
6.096
 49
5.08
 74
0
 49
-0.508
 74
0
 49
0.0
 74
0
 49
-0.508
 74
0
  0
LTYPE
  5
3A
330
2
100
AcDbSymbolTableRecord
100
AcDbLinetypeTableRecord
  2
DASHDOT2
 70
0
  3
Dash dot (.5x) _ . _ . _ . _ . _ . _ . _ . _
 72
65
 73
4
 40
1.778
 49
1.27
 74
0
 49
-0.254
 74
0
 49
0.0
 74
0
 49
-0.254
 74
0
  0
LTYPE
  5
3B
330
2
100
AcDbSymbolTableRecord
100
AcDbLinetypeTableRecord
  2
DOT
 70
0
  3
Dot .  .  .  .  .  .  .  .  .  .  .  .  .  .  .  .
 72
65
 73
2
 40
0.508
 49
0.0
 74
0
 49
-0.508
 74
0
  0
LTYPE
  5
3C
330
2
100
AcDbSymbolTableRecord
100
AcDbLinetypeTableRecord
  2
DOTX2
 70
0
  3
Dot (2x) .    .    .    .    .    .    .    . 
 72
65
 73
2
 40
1.016
 49
0.0
 74
0
 49
-1.016
 74
0
  0
LTYPE
  5
3D
330
2
100
AcDbSymbolTableRecord
100
AcDbLinetypeTableRecord
  2
DOT2
 70
0
  3
Dot (.5) . . . . . . . . . . . . . . . . . . . 
 72
65
 73
2
 40
0.254
 49
0.0
 74
0
 49
-0.254
 74
0
  0
LTYPE
  5
3E
330
2
100
AcDbSymbolTableRecord
100
AcDbLinetypeTableRecord
  2
DIVIDE
 70
0
  3
Divide __ . . __ . . __ . . __ . . __ . . __
 72
65
 73
6
 40
4.064
 49
2.54
 74
0
 49
-0.508
 74
0
 49
0.0
 74
0
 49
-0.508
 74
0
 49
0.0
 74
0
 49
-0.508
 74
0
  0
LTYPE
  5
3F
330
2
100
AcDbSymbolTableRecord
100
AcDbLinetypeTableRecord
  2
DIVIDEX2
 70
0
  3
Divide (2x) ____  . .  ____  . .  ____  . .  ____
 72
65
 73
6
 40
6.604
 49
5.08
 74
0
 49
-0.508
 74
0
 49
0.0
 74
0
 49
-0.508
 74
0
 49
0.0
 74
0
 49
-0.508
 74
0
  0
LTYPE
  5
40
330
2
100
AcDbSymbolTableRecord
100
AcDbLinetypeTableRecord
  2
DIVIDE2
 70
0
  3
Divide(.5x) _ . _ . _ . _ . _ . _ . _ . _
 72
65
 73
6
 40
2.032
 49
1.27
 74
0
 49
-0.254
 74
0
 49
0.0
 74
0
 49
-0.254
 74
0
 49
0.0
 74
0
 49
-0.254
 74
0
  0
ENDTAB
  0
TABLE
  2
LAYER
  5
1
330
0
100
AcDbSymbolTable
 70
17
  0
LAYER
  5
27
330
1
100
AcDbSymbolTableRecord
100
AcDbLayerTableRecord
  2
0
 70
0
 62
7
  6
Continuous
370
-3
390
13
347
21
  0
LAYER
  5
28
330
1
100
AcDbSymbolTableRecord
100
AcDbLayerTableRecord
  2
Defpoints
 70
0
 62
7
  6
Continuous
290
0
370
-3
390
13
347
21
  0
LAYER
  5
8A
330
1
100
AcDbSymbolTableRecord
100
AcDbLayerTableRecord
  2
0_SITE_BOUNDARY
 70
0
 62
1
  6
Continuous
370
-3
390
13
347
21
  0
LAYER
  5
8B
330
1
100
AcDbSymbolTableRecord
100
AcDbLayerTableRecord
  2
L-LAWN
 70
0
 62
3
  6
Continuous
370
-3
390
13
347
21
  0
LAYER
  5
8C
330
1
100
AcDbSymbolTableRecord
100
AcDbLayerTableRecord
  2
S-GRID
 70
0
 62
8
  6
CENTER
370
-3
390
13
347
21
  0
LAYER
  5
8D
330
1
100
AcDbSymbolTableRecord
100
AcDbLayerTableRecord
  2
S-COLS
 70
0
 62
7
  6
Continuous
370
-3
390
13
347
21
  0
LAYER
  5
8E
330
1
100
AcDbSymbolTableRecord
100
AcDbLayerTableRecord
  2
A-WALL
 70
0
 62
7
  6
Continuous
370
-3
390
13
347
21
  0
LAYER
  5
8F
330
1
100
AcDbSymbolTableRecord
100
AcDbLayerTableRecord
  2
A-WALL-HATCH
 70
0
 62
8
  6
Continuous
370
-3
390
13
347
21
  0
LAYER
  5
90
330
1
100
AcDbSymbolTableRecord
100
AcDbLayerTableRecord
  2
A-DOOR
 70
0
 62
4
  6
Continuous
370
-3
390
13
347
21
  0
LAYER
  5
91
330
1
100
AcDbSymbolTableRecord
100
AcDbLayerTableRecord
  2
A-GLAZ
 70
0
 62
5
  6
Continuous
370
-3
390
13
347
21
  0
LAYER
  5
92
330
1
100
AcDbSymbolTableRecord
100
AcDbLayerTableRecord
  2
A-STAIR
 70
0
 62
6
  6
Continuous
370
-3
390
13
347
21
  0
LAYER
  5
93
330
1
100
AcDbSymbolTableRecord
100
AcDbLayerTableRecord
  2
A-FURN
 70
0
 62
9
  6
Continuous
370
-3
390
13
347
21
  0
LAYER
  5
94
330
1
100
AcDbSymbolTableRecord
100
AcDbLayerTableRecord
  2
A-FIXT
 70
0
 62
140
  6
Continuous
370
-3
390
13
347
21
  0
LAYER
  5
95
330
1
100
AcDbSymbolTableRecord
100
AcDbLayerTableRecord
  2
A-ROOM-NAME
 70
0
 62
2
  6
Continuous
370
-3
390
13
347
21
  0
LAYER
  5
96
330
1
100
AcDbSymbolTableRecord
100
AcDbLayerTableRecord
  2
A-DIMS
 70
0
 62
1
  6
Continuous
370
-3
390
13
347
21
  0
LAYER
  5
97
330
1
100
AcDbSymbolTableRecord
100
AcDbLayerTableRecord
  2
A-ELEV
 70
0
 62
7
  6
Continuous
370
-3
390
13
347
21
  0
LAYER
  5
98
330
1
100
AcDbSymbolTableRecord
100
AcDbLayerTableRecord
  2
A-TEXT
 70
0
 62
7
  6
Continuous
370
-3
390
13
347
21
  0
ENDTAB
  0
TABLE
  2
STYLE
  5
5
330
0
100
AcDbSymbolTable
 70
26
  0
STYLE
  5
29
330
5
100
AcDbSymbolTableRecord
100
AcDbTextStyleTableRecord
  2
Standard
 70
0
 40
0.0
 41
1.0
 50
0.0
 71
0
 42
2.5
  3
txt
  4

  0
STYLE
  5
41
330
5
100
AcDbSymbolTableRecord
100
AcDbTextStyleTableRecord
  2
OpenSans-Light
 70
0
 40
0.0
 41
1.0
 50
0.0
 71
0
 42
2.5
  3
OpenSans-Light.ttf
  4

  0
STYLE
  5
42
330
5
100
AcDbSymbolTableRecord
100
AcDbTextStyleTableRecord
  2
OpenSans-Light-Italic
 70
0
 40
0.0
 41
1.0
 50
0.0
 71
0
 42
2.5
  3
OpenSans-LightItalic.ttf
  4

  0
STYLE
  5
43
330
5
100
AcDbSymbolTableRecord
100
AcDbTextStyleTableRecord
  2
OpenSans
 70
0
 40
0.0
 41
1.0
 50
0.0
 71
0
 42
2.5
  3
OpenSans-Regular.ttf
  4

  0
STYLE
  5
44
330
5
100
AcDbSymbolTableRecord
100
AcDbTextStyleTableRecord
  2
OpenSans-Italic
 70
0
 40
0.0
 41
1.0
 50
0.0
 71
0
 42
2.5
  3
OpenSans-Italic.ttf
  4

  0
STYLE
  5
45
330
5
100
AcDbSymbolTableRecord
100
AcDbTextStyleTableRecord
  2
OpenSans-SemiBold
 70
0
 40
0.0
 41
1.0
 50
0.0
 71
0
 42
2.5
  3
OpenSans-SemiBold.ttf
  4

  0
STYLE
  5
46
330
5
100
AcDbSymbolTableRecord
100
AcDbTextStyleTableRecord
  2
OpenSans-SemiBoldItalic
 70
0
 40
0.0
 41
1.0
 50
0.0
 71
0
 42
2.5
  3
OpenSans-SemiBoldItalic.ttf
  4

  0
STYLE
  5
47
330
5
100
AcDbSymbolTableRecord
100
AcDbTextStyleTableRecord
  2
OpenSans-Bold
 70
0
 40
0.0
 41
1.0
 50
0.0
 71
0
 42
2.5
  3
OpenSans-Bold.ttf
  4

  0
STYLE
  5
48
330
5
100
AcDbSymbolTableRecord
100
AcDbTextStyleTableRecord
  2
OpenSans-BoldItalic
 70
0
 40
0.0
 41
1.0
 50
0.0
 71
0
 42
2.5
  3
OpenSans-BoldItalic.ttf
  4

  0
STYLE
  5
49
330
5
100
AcDbSymbolTableRecord
100
AcDbTextStyleTableRecord
  2
OpenSans-ExtraBold
 70
0
 40
0.0
 41
1.0
 50
0.0
 71
0
 42
2.5
  3
OpenSans-ExtraBold.ttf
  4

  0
STYLE
  5
4A
330
5
100
AcDbSymbolTableRecord
100
AcDbTextStyleTableRecord
  2
OpenSans-ExtraBoldItalic
 70
0
 40
0.0
 41
1.0
 50
0.0
 71
0
 42
2.5
  3
OpenSans-ExtraBoldItalic.ttf
  4

  0
STYLE
  5
4B
330
5
100
AcDbSymbolTableRecord
100
AcDbTextStyleTableRecord
  2
OpenSansCondensed-Bold
 70
0
 40
0.0
 41
1.0
 50
0.0
 71
0
 42
2.5
  3
OpenSansCondensed-Bold.ttf
  4

  0
STYLE
  5
4C
330
5
100
AcDbSymbolTableRecord
100
AcDbTextStyleTableRecord
  2
OpenSansCondensed-Light
 70
0
 40
0.0
 41
1.0
 50
0.0
 71
0
 42
2.5
  3
OpenSansCondensed-Light.ttf
  4

  0
STYLE
  5
4D
330
5
100
AcDbSymbolTableRecord
100
AcDbTextStyleTableRecord
  2
OpenSansCondensed-Italic
 70
0
 40
0.0
 41
1.0
 50
0.0
 71
0
 42
2.5
  3
OpenSansCondensed-LightItalic.ttf
  4

  0
STYLE
  5
4E
330
5
100
AcDbSymbolTableRecord
100
AcDbTextStyleTableRecord
  2
LiberationSans
 70
0
 40
0.0
 41
1.0
 50
0.0
 71
0
 42
2.5
  3
LiberationSans-Regular.ttf
  4

  0
STYLE
  5
4F
330
5
100
AcDbSymbolTableRecord
100
AcDbTextStyleTableRecord
  2
LiberationSans-Bold
 70
0
 40
0.0
 41
1.0
 50
0.0
 71
0
 42
2.5
  3
LiberationSans-Bold.ttf
  4

  0
STYLE
  5
50
330
5
100
AcDbSymbolTableRecord
100
AcDbTextStyleTableRecord
  2
LiberationSans-BoldItalic
 70
0
 40
0.0
 41
1.0
 50
0.0
 71
0
 42
2.5
  3
LiberationSans-BoldItalic.ttf
  4

  0
STYLE
  5
51
330
5
100
AcDbSymbolTableRecord
100
AcDbTextStyleTableRecord
  2
LiberationSans-Italic
 70
0
 40
0.0
 41
1.0
 50
0.0
 71
0
 42
2.5
  3
LiberationSans-Italic.ttf
  4

  0
STYLE
  5
52
330
5
100
AcDbSymbolTableRecord
100
AcDbTextStyleTableRecord
  2
LiberationSerif
 70
0
 40
0.0
 41
1.0
 50
0.0
 71
0
 42
2.5
  3
LiberationSerif-Regular.ttf
  4

  0
STYLE
  5
53
330
5
100
AcDbSymbolTableRecord
100
AcDbTextStyleTableRecord
  2
LiberationSerif-Bold
 70
0
 40
0.0
 41
1.0
 50
0.0
 71
0
 42
2.5
  3
LiberationSerif-Bold.ttf
  4

  0
STYLE
  5
54
330
5
100
AcDbSymbolTableRecord
100
AcDbTextStyleTableRecord
  2
LiberationSerif-BoldItalic
 70
0
 40
0.0
 41
1.0
 50
0.0
 71
0
 42
2.5
  3
LiberationSerif-BoldItalic.ttf
  4

  0
STYLE
  5
55
330
5
100
AcDbSymbolTableRecord
100
AcDbTextStyleTableRecord
  2
LiberationSerif-Italic
 70
0
 40
0.0
 41
1.0
 50
0.0
 71
0
 42
2.5
  3
LiberationSerif-Italic.ttf
  4

  0
STYLE
  5
56
330
5
100
AcDbSymbolTableRecord
100
AcDbTextStyleTableRecord
  2
LiberationMono
 70
0
 40
0.0
 41
1.0
 50
0.0
 71
0
 42
2.5
  3
LiberationMono-Regular.ttf
  4

  0
STYLE
  5
57
330
5
100
AcDbSymbolTableRecord
100
AcDbTextStyleTableRecord
  2
LiberationMono-Bold
 70
0
 40
0.0
 41
1.0
 50
0.0
 71
0
 42
2.5
  3
LiberationMono-Bold.ttf
  4

  0
STYLE
  5
58
330
5
100
AcDbSymbolTableRecord
100
AcDbTextStyleTableRecord
  2
LiberationMono-BoldItalic
 70
0
 40
0.0
 41
1.0
 50
0.0
 71
0
 42
2.5
  3
LiberationMono-BoldItalic.ttf
  4

  0
STYLE
  5
59
330
5
100
AcDbSymbolTableRecord
100
AcDbTextStyleTableRecord
  2
LiberationMono-Italic
 70
0
 40
0.0
 41
1.0
 50
0.0
 71
0
 42
2.5
  3
LiberationMono-Italic.ttf
  4

  0
ENDTAB
  0
TABLE
  2
VIEW
  5
7
330
0
100
AcDbSymbolTable
 70
0
  0
ENDTAB
  0
TABLE
  2
UCS
  5
6
330
0
100
AcDbSymbolTable
 70
0
  0
ENDTAB
  0
TABLE
  2
APPID
  5
3
330
0
100
AcDbSymbolTable
 70
3
  0
APPID
  5
2A
330
3
100
AcDbSymbolTableRecord
100
AcDbRegAppTableRecord
  2
ACAD
 70
0
  0
APPID
  5
2F8
330
3
100
AcDbSymbolTableRecord
100
AcDbRegAppTableRecord
  2
HATCHBACKGROUNDCOLOR
 70
0
  0
APPID
  5
2F9
330
3
100
AcDbSymbolTableRecord
100
AcDbRegAppTableRecord
  2
EZDXF
 70
0
  0
ENDTAB
  0
TABLE
  2
DIMSTYLE
  5
4
330
0
100
AcDbSymbolTable
 70
13
100
AcDbDimStyleTable
  0
DIMSTYLE
105
2B
330
4
100
AcDbSymbolTableRecord
100
AcDbDimStyleTableRecord
  2
Standard
 70
0
 40
1.0
 41
2.5
 42
0.625
 43
3.75
 44
1.25
 45
0.0
 46
0.0
 47
0.0
 48
0.0
 49
2.5
140
2.5
141
2.5
142
0.0
143
0.03937007874
144
1.0
145
0.0
146
1.0
147
0.625
148
0.0
 69
0
 70
0
 71
0
 72
0
 73
0
 74
0
 75
0
 76
0
 77
1
 78
8
 79
3
170
0
171
3
172
1
173
0
174
0
175
0
176
0
177
0
178
0
179
2
271
2
272
2
273
2
274
3
275
0
276
0
277
2
278
44
279
0
280
0
281
0
282
0
283
0
284
8
285
0
286
0
288
0
289
3
290
0
371
-2
372
-2
  0
DIMSTYLE
105
73
330
4
100
AcDbSymbolTableRecord
100
AcDbDimStyleTableRecord
  2
EZDXF
 70
0
 40
1.0
 41
0.175
 42
0.125
 43
3.75
 44
0.375
 45
0.0
 46
0.0
 47
0.0
 48
0.0
 49
2.5
140
0.25
141
2.5
142
0.0
143
0.03937007874
144
100.0
145
0.0
146
0.5
147
0.1
148
0.0
 69
0
 70
0
 71
0
 72
0
 73
0
 74
0
 75
0
 76
0
 77
1
 78
12
 79
3
170
0
171
3
172
1
173
0
174
0
175
0
176
0
177
0
178
0
179
2
271
2
272
2
273
2
274
3
275
0
276
0
277
2
278
46
279
2
280
0
281
0
282
0
283
0
284
8
285
0
286
0
288
1
289
3
290
0
340
4C
342
74
371
-2
372
-2
  0
DIMSTYLE
105
7C
330
4
100
AcDbSymbolTableRecord
100
AcDbDimStyleTableRecord
  2
EZ_M_100_H25_CM
 70
0
 40
1.0
 41
0.25
 42
0.125
 43
3.75
 44
0.375
 45
0.0
 46
0.0
 47
0.0
 48
0.0
 49
2.5
140
0.25
141
2.5
142
0.125
143
0.03937007874
144
100.0
145
0.0
146
0.5
147
0.1
148
0.0
 69
0
 70
0
 71
0
 72
0
 73
0
 74
0
 75
0
 76
0
 77
1
 78
12
 79
3
170
0
171
3
172
1
173
0
174
0
175
0
176
0
177
0
178
0
179
2
271
2
272
2
273
2
274
3
275
0
276
0
277
2
278
46
279
2
280
0
281
0
282
0
283
0
284
8
285
0
286
0
288
1
289
3
290
0
340
4C
371
-2
372
-2
  0
DIMSTYLE
105
7D
330
4
100
AcDbSymbolTableRecord
100
AcDbDimStyleTableRecord
  2
EZ_M_50_H25_CM
 70
0
 40
1.0
 41
0.125
 42
0.0625
 43
3.75
 44
0.1875
 45
0.0
 46
0.0
 47
0.0
 48
0.0
 49
2.5
140
0.125
141
2.5
142
0.0625
143
0.03937007874
144
100.0
145
0.0
146
0.5
147
0.05
148
0.0
 69
0
 70
0
 71
0
 72
0
 73
0
 74
0
 75
0
 76
0
 77
1
 78
12
 79
3
170
0
171
3
172
1
173
0
174
0
175
0
176
0
177
0
178
0
179
2
271
2
272
2
273
2
274
3
275
0
276
0
277
2
278
46
279
2
280
0
281
0
282
0
283
0
284
8
285
0
286
0
288
1
289
3
290
0
340
4C
371
-2
372
-2
  0
DIMSTYLE
105
7E
330
4
100
AcDbSymbolTableRecord
100
AcDbDimStyleTableRecord
  2
EZ_M_25_H25_CM
 70
0
 40
1.0
 41
0.0625
 42
0.03125
 43
3.75
 44
0.09375
 45
0.0
 46
0.0
 47
0.0
 48
0.0
 49
2.5
140
0.0625
141
2.5
142
0.03125
143
0.03937007874
144
100.0
145
0.0
146
0.5
147
0.025
148
0.0
 69
0
 70
0
 71
0
 72
0
 73
0
 74
0
 75
0
 76
0
 77
1
 78
12
 79
3
170
0
171
3
172
1
173
0
174
0
175
0
176
0
177
0
178
0
179
2
271
2
272
2
273
2
274
3
275
0
276
0
277
2
278
46
279
2
280
0
281
0
282
0
283
0
284
8
285
0
286
0
288
1
289
3
290
0
340
4C
371
-2
372
-2
  0
DIMSTYLE
105
7F
330
4
100
AcDbSymbolTableRecord
100
AcDbDimStyleTableRecord
  2
EZ_M_20_H25_CM
 70
0
 40
1.0
 41
0.05
 42
0.025
 43
3.75
 44
0.07500000000000001
 45
0.0
 46
0.0
 47
0.0
 48
0.0
 49
2.5
140
0.05
141
2.5
142
0.025
143
0.03937007874
144
100.0
145
0.0
146
0.5
147
0.020000000000000004
148
0.0
 69
0
 70
0
 71
0
 72
0
 73
0
 74
0
 75
0
 76
0
 77
1
 78
12
 79
3
170
0
171
3
172
1
173
0
174
0
175
0
176
0
177
0
178
0
179
2
271
2
272
2
273
2
274
3
275
0
276
0
277
2
278
46
279
2
280
0
281
0
282
0
283
0
284
8
285
0
286
0
288
1
289
3
290
0
340
4C
371
-2
372
-2
  0
DIMSTYLE
105
80
330
4
100
AcDbSymbolTableRecord
100
AcDbDimStyleTableRecord
  2
EZ_M_10_H25_CM
 70
0
 40
1.0
 41
0.025
 42
0.0125
 43
3.75
 44
0.037500000000000006
 45
0.0
 46
0.0
 47
0.0
 48
0.0
 49
2.5
140
0.025
141
2.5
142
0.0125
143
0.03937007874
144
100.0
145
0.0
146
0.5
147
0.010000000000000002
148
0.0
 69
0
 70
0
 71
0
 72
0
 73
0
 74
0
 75
0
 76
0
 77
1
 78
12
 79
3
170
0
171
3
172
1
173
0
174
0
175
0
176
0
177
0
178
0
179
2
271
2
272
2
273
2
274
3
275
0
276
0
277
2
278
46
279
2
280
0
281
0
282
0
283
0
284
8
285
0
286
0
288
1
289
3
290
0
340
4C
371
-2
372
-2
  0
DIMSTYLE
105
81
330
4
100
AcDbSymbolTableRecord
100
AcDbDimStyleTableRecord
  2
EZ_M_5_H25_CM
 70
0
 40
1.0
 41
0.0125
 42
0.00625
 43
3.75
 44
0.018750000000000003
 45
0.0
 46
0.0
 47
0.0
 48
0.0
 49
2.5
140
0.0125
141
2.5
142
0.00625
143
0.03937007874
144
100.0
145
0.0
146
0.5
147
0.005000000000000001
148
0.0
 69
0
 70
0
 71
0
 72
0
 73
0
 74
0
 75
0
 76
0
 77
1
 78
12
 79
3
170
0
171
3
172
1
173
0
174
0
175
0
176
0
177
0
178
0
179
2
271
2
272
2
273
2
274
3
275
0
276
0
277
2
278
46
279
2
280
0
281
0
282
0
283
0
284
8
285
0
286
0
288
1
289
3
290
0
340
4C
371
-2
372
-2
  0
DIMSTYLE
105
82
330
4
100
AcDbSymbolTableRecord
100
AcDbDimStyleTableRecord
  2
EZ_M_1_H25_CM
 70
0
 40
1.0
 41
0.0025
 42
0.00125
 43
3.75
 44
0.00375
 45
0.0
 46
0.0
 47
0.0
 48
0.0
 49
2.5
140
0.0025
141
2.5
142
0.00125
143
0.03937007874
144
100.0
145
0.0
146
0.5
147
0.001
148
0.0
 69
0
 70
0
 71
0
 72
0
 73
0
 74
0
 75
0
 76
0
 77
1
 78
12
 79
3
170
0
171
3
172
1
173
0
174
0
175
0
176
0
177
0
178
0
179
2
271
2
272
2
273
2
274
3
275
0
276
0
277
2
278
46
279
2
280
0
281
0
282
0
283
0
284
8
285
0
286
0
288
1
289
3
290
0
340
4C
371
-2
372
-2
  0
DIMSTYLE
105
83
330
4
100
AcDbSymbolTableRecord
100
AcDbDimStyleTableRecord
  2
EZ_RADIUS
 70
0
 40
1.0
 41
0.25
 42
0.125
 43
3.75
 44
0.375
 45
0.0
 46
0.0
 47
0.0
 48
0.0
 49
2.5
140
0.25
141
0.0
142
0.0
143
0.03937007874
144
100.0
145
0.0
146
0.5
147
0.1
148
0.0
 69
0
 70
0
 71
0
 72
0
 73
0
 74
0
 75
0
 76
0
 77
1
 78
12
 79
3
170
0
171
3
172
0
173
0
174
0
175
0
176
0
177
0
178
0
179
2
271
2
272
2
273
2
274
3
275
0
276
0
277
2
278
46
279
1
280
0
281
0
282
0
283
0
284
8
285
0
286
0
288
1
289
3
290
0
340
4C
342
84
371
-2
372
-2
  0
DIMSTYLE
105
88
330
4
100
AcDbSymbolTableRecord
100
AcDbDimStyleTableRecord
  2
EZ_RADIUS_INSIDE
 70
0
 40
1.0
 41
0.25
 42
0.125
 43
3.75
 44
0.375
 45
0.0
 46
0.0
 47
0.0
 48
0.0
 49
2.5
140
0.25
141
0.0
142
0.0
143
0.03937007874
144
100.0
145
0.0
146
0.5
147
0.1
148
0.0
 69
0
 70
0
 71
0
 72
0
 73
0
 74
0
 75
0
 76
0
 77
0
 78
12
 79
3
170
0
171
3
172
0
173
0
174
1
175
0
176
0
177
0
178
0
179
2
271
2
272
2
273
2
274
3
275
0
276
0
277
2
278
46
279
0
280
0
281
0
282
0
283
0
284
8
285
0
286
0
288
1
289
0
290
0
340
4C
342
84
371
-2
372
-2
  0
DIMSTYLE
105
89
330
4
100
AcDbSymbolTableRecord
100
AcDbDimStyleTableRecord
  2
EZ_CURVED
 70
0
 40
1.0
 41
0.25
 42
0.125
 43
3.75
 44
0.375
 45
0.0
 46
0.0
 47
0.0
 48
0.0
 49
2.5
140
0.25
141
2.5
142
0.0
143
0.03937007874
144
100.0
145
0.0
146
0.5
147
0.1
148
0.0
 69
0
 70
0
 71
0
 72
0
 73
0
 74
0
 75
0
 76
0
 77
1
 78
12
 79
2
 90
2
170
0
171
3
172
1
173
0
174
0
175
0
176
0
177
0
178
0
179
2
271
2
272
2
273
2
274
3
275
0
276
0
277
2
278
46
279
2
280
0
281
0
282
0
283
0
284
8
285
0
286
0
288
1
289
3
290
0
340
4C
371
-2
372
-2
  0
DIMSTYLE
105
1F5
330
4
100
AcDbSymbolTableRecord
100
AcDbDimStyleTableRecord
  2
EZ_FEET
 70
0
 40
1.0
 41
0.35
 42
0.3
 43
3.75
 44
0.3
 45
0.0
 46
0.0
 47
0.0
 48
0.0
 49
2.5
140
0.45
141
2.5
142
0.3
143
0.03937007874
144
1.0
145
0.0
146
1.0
147
0.15
148
0.0
 69
0
 70
0
 71
0
 72
0
 73
0
 74
0
 75
0
 76
0
 77
1
 78
8
 79
3
170
0
171
3
172
1
173
0
174
0
175
0
176
0
177
0
178
0
179
2
271
2
272
2
273
2
274
3
275
0
276
0
277
2
278
44
279
0
280
0
281
0
282
0
283
0
284
8
285
0
286
0
288
0
289
3
290
0
371
-2
372
-2
  0
ENDTAB
  0
TABLE
  2
BLOCK_RECORD
  5
9
330
0
100
AcDbSymbolTable
 70
21
  0
BLOCK_RECORD
  5
17
330
9
100
AcDbSymbolTableRecord
100
AcDbBlockTableRecord
  2
*Model_Space
340
1A
 70
0
280
1
281
0
  0
BLOCK_RECORD
  5
1B
330
9
100
AcDbSymbolTableRecord
100
AcDbBlockTableRecord
  2
*Paper_Space
340
1E
 70
0
280
1
281
0
  0
BLOCK_RECORD
  5
74
330
9
100
AcDbSymbolTableRecord
100
AcDbBlockTableRecord
  2
_ARCHTICK
340
0
 70
0
280
1
281
0
  0
BLOCK_RECORD
  5
78
330
9
100
AcDbSymbolTableRecord
100
AcDbBlockTableRecord
  2
_CLOSEDFILLED
340
0
 70
0
280
1
281
0
  0
BLOCK_RECORD
  5
84
330
9
100
AcDbSymbolTableRecord
100
AcDbBlockTableRecord
  2
_CLOSEDBLANK
340
0
 70
0
280
1
281
0
  0
BLOCK_RECORD
  5
1F7
330
9
100
AcDbSymbolTableRecord
100
AcDbBlockTableRecord
  2
*D1
340
0
 70
0
280
1
281
0
  0
BLOCK_RECORD
  5
1FC
330
9
100
AcDbSymbolTableRecord
100
AcDbBlockTableRecord
  2
_OBLIQUE
340
0
 70
0
280
1
281
0
  0
BLOCK_RECORD
  5
20B
330
9
100
AcDbSymbolTableRecord
100
AcDbBlockTableRecord
  2
*D2
340
0
 70
0
280
1
281
0
  0
BLOCK_RECORD
  5
21B
330
9
100
AcDbSymbolTableRecord
100
AcDbBlockTableRecord
  2
*D3
340
0
 70
0
280
1
281
0
  0
BLOCK_RECORD
  5
22B
330
9
100
AcDbSymbolTableRecord
100
AcDbBlockTableRecord
  2
*D4
340
0
 70
0
280
1
281
0
  0
BLOCK_RECORD
  5
23B
330
9
100
AcDbSymbolTableRecord
100
AcDbBlockTableRecord
  2
*D5
340
0
 70
0
280
1
281
0
  0
BLOCK_RECORD
  5
24B
330
9
100
AcDbSymbolTableRecord
100
AcDbBlockTableRecord
  2
*D6
340
0
 70
0
280
1
281
0
  0
BLOCK_RECORD
  5
25A
330
9
100
AcDbSymbolTableRecord
100
AcDbBlockTableRecord
  2
*D7
340
0
 70
0
280
1
281
0
  0
BLOCK_RECORD
  5
26A
330
9
100
AcDbSymbolTableRecord
100
AcDbBlockTableRecord
  2
*D8
340
0
 70
0
280
1
281
0
  0
BLOCK_RECORD
  5
27A
330
9
100
AcDbSymbolTableRecord
100
AcDbBlockTableRecord
  2
*D9
340
0
 70
0
280
1
281
0
  0
BLOCK_RECORD
  5
289
330
9
100
AcDbSymbolTableRecord
100
AcDbBlockTableRecord
  2
*D10
340
0
 70
0
280
1
281
0
  0
BLOCK_RECORD
  5
299
330
9
100
AcDbSymbolTableRecord
100
AcDbBlockTableRecord
  2
*D11
340
0
 70
0
280
1
281
0
  0
BLOCK_RECORD
  5
2A9
330
9
100
AcDbSymbolTableRecord
100
AcDbBlockTableRecord
  2
*D12
340
0
 70
0
280
1
281
0
  0
BLOCK_RECORD
  5
2B9
330
9
100
AcDbSymbolTableRecord
100
AcDbBlockTableRecord
  2
*D13
340
0
 70
0
280
1
281
0
  0
BLOCK_RECORD
  5
2C9
330
9
100
AcDbSymbolTableRecord
100
AcDbBlockTableRecord
  2
*D14
340
0
 70
0
280
1
281
0
  0
BLOCK_RECORD
  5
2D9
330
9
100
AcDbSymbolTableRecord
100
AcDbBlockTableRecord
  2
*D15
340
0
 70
0
280
1
281
0
  0
ENDTAB
  0
ENDSEC
  0
SECTION
  2
BLOCKS
  0
BLOCK
  5
18
330
17
100
AcDbEntity
  8
0
100
AcDbBlockBegin
  2
*Model_Space
 70
0
 10
0.0
 20
0.0
 30
0.0
  3
*Model_Space
  1

  0
ENDBLK
  5
19
330
17
100
AcDbEntity
  8
0
100
AcDbBlockEnd
  0
BLOCK
  5
1C
330
1B
100
AcDbEntity
  8
0
100
AcDbBlockBegin
  2
*Paper_Space
 70
0
 10
0.0
 20
0.0
 30
0.0
  3
*Paper_Space
  1

  0
ENDBLK
  5
1D
330
1B
100
AcDbEntity
  8
0
100
AcDbBlockEnd
  0
BLOCK
  5
75
330
74
100
AcDbEntity
  8
0
100
AcDbBlockBegin
  2
_ARCHTICK
 70
0
 10
0.0
 20
0.0
 30
0.0
  3
_ARCHTICK
  1

  0
LWPOLYLINE
  5
77
330
74
100
AcDbEntity
  8
0
  6
BYBLOCK
 62
0
100
AcDbPolyline
 90
2
 70
0
 43
0.15
 10
-0.5
 20
-0.5
 10
0.5
 20
0.5
  0
ENDBLK
  5
76
330
74
100
AcDbEntity
  8
0
100
AcDbBlockEnd
  0
BLOCK
  5
79
330
78
100
AcDbEntity
  8
0
100
AcDbBlockBegin
  2
_CLOSEDFILLED
 70
0
 10
0.0
 20
0.0
 30
0.0
  3
_CLOSEDFILLED
  1

  0
SOLID
  5
7B
330
78
100
AcDbEntity
  8
0
  6
BYBLOCK
 62
0
100
AcDbTrace
 10
-1.0
 20
0.16439898372402537
 30
0.0
 11
0.0
 21
0.0
 31
0.0
 12
-1.0
 22
-0.16439898372402537
 32
0.0
 13
-1.0
 23
-0.16439898372402537
 33
0.0
  0
ENDBLK
  5
7A
330
78
100
AcDbEntity
  8
0
100
AcDbBlockEnd
  0
BLOCK
  5
85
330
84
100
AcDbEntity
  8
0
100
AcDbBlockBegin
  2
_CLOSEDBLANK
 70
0
 10
0.0
 20
0.0
 30
0.0
  3
_CLOSEDBLANK
  1

  0
LWPOLYLINE
  5
87
330
84
100
AcDbEntity
  8
0
  6
BYBLOCK
 62
0
100
AcDbPolyline
 90
3
 70
1
 10
-1.0
 20
0.16439898372402537
 10
0.0
 20
0.0
 10
-1.0
 20
-0.16439898372402537
  0
ENDBLK
  5
86
330
84
100
AcDbEntity
  8
0
100
AcDbBlockEnd
  0
BLOCK
  5
1F8
330
1F7
100
AcDbEntity
  8
0
100
AcDbBlockBegin
  2
*D1
 70
1
 10
0.0
 20
0.0
 30
0.0
  3
*D1
  1

  0
LINE
  5
1FA
330
1F7
100
AcDbEntity
  8
0
100
AcDbLine
 10
0.0
 20
-0.3
 30
0.0
 11
0.0
 21
-2.9
 31
0.0
  0
LINE
  5
1FB
330
1F7
100
AcDbEntity
  8
0
100
AcDbLine
 10
36.125
 20
-0.3
 30
0.0
 11
36.125
 21
-2.9
 31
0.0
  0
INSERT
  5
200
330
1F7
100
AcDbEntity
  8
A-DIMS
100
AcDbBlockReference
  2
_OBLIQUE
 10
0.0
 20
-2.6
 30
0.0
 41
0.6
 42
0.6
  0
INSERT
  5
202
330
1F7
100
AcDbEntity
  8
A-DIMS
100
AcDbBlockReference
  2
_OBLIQUE
 10
36.125
 20
-2.6
 30
0.0
 41
0.6
 42
0.6
  0
LINE
  5
204
330
1F7
100
AcDbEntity
  8
0
100
AcDbLine
 10
0.0
 20
-2.6
 30
0.0
 11
15.812499999999998
 21
-2.6
 31
0.0
  0
LINE
  5
205
330
1F7
100
AcDbEntity
  8
0
100
AcDbLine
 10
20.3125
 20
-2.6
 30
0.0
 11
36.125
 21
-2.6
 31
0.0
  0
MTEXT
  5
206
330
1F7
100
AcDbEntity
  8
A-DIMS
100
AcDbMText
 10
18.0625
 20
-2.6
 30
0.0
 40
0.45
 71
5
  1
36'-1 1/2"
  7
OpenSansCondensed-Light
  0
POINT
  5
207
330
1F7
100
AcDbEntity
  8
Defpoints
100
AcDbPoint
 10
0.0
 20
-2.6
 30
0.0
  0
POINT
  5
208
330
1F7
100
AcDbEntity
  8
Defpoints
100
AcDbPoint
 10
0.0
 20
0.0
 30
0.0
  0
POINT
  5
209
330
1F7
100
AcDbEntity
  8
Defpoints
100
AcDbPoint
 10
36.125
 20
0.0
 30
0.0
  0
ENDBLK
  5
1F9
330
1F7
100
AcDbEntity
  8
0
100
AcDbBlockEnd
  0
BLOCK
  5
1FD
330
1FC
100
AcDbEntity
  8
0
100
AcDbBlockBegin
  2
_OBLIQUE
 70
0
 10
0.0
 20
0.0
 30
0.0
  3
_OBLIQUE
  1

  0
LINE
  5
1FF
330
1FC
100
AcDbEntity
  8
0
  6
BYBLOCK
 62
0
100
AcDbLine
 10
-0.5
 20
-0.5
 30
0.0
 11
0.5
 21
0.5
 31
0.0
  0
ENDBLK
  5
1FE
330
1FC
100
AcDbEntity
  8
0
100
AcDbBlockEnd
  0
BLOCK
  5
20C
330
20B
100
AcDbEntity
  8
0
100
AcDbBlockBegin
  2
*D2
 70
1
 10
0.0
 20
0.0
 30
0.0
  3
*D2
  1

  0
LINE
  5
20E
330
20B
100
AcDbEntity
  8
0
100
AcDbLine
 10
36.125
 20
-0.3
 30
0.0
 11
36.125
 21
-2.9
 31
0.0
  0
LINE
  5
20F
330
20B
100
AcDbEntity
  8
0
100
AcDbLine
 10
50.625
 20
-0.3
 30
0.0
 11
50.625
 21
-2.9
 31
0.0
  0
INSERT
  5
210
330
20B
100
AcDbEntity
  8
A-DIMS
100
AcDbBlockReference
  2
_OBLIQUE
 10
36.125
 20
-2.6
 30
0.0
 41
0.6
 42
0.6
  0
INSERT
  5
212
330
20B
100
AcDbEntity
  8
A-DIMS
100
AcDbBlockReference
  2
_OBLIQUE
 10
50.625
 20
-2.6
 30
0.0
 41
0.6
 42
0.6
  0
LINE
  5
214
330
20B
100
AcDbEntity
  8
0
100
AcDbLine
 10
36.125
 20
-2.6
 30
0.0
 11
42.025
 21
-2.6
 31
0.0
  0
LINE
  5
215
330
20B
100
AcDbEntity
  8
0
100
AcDbLine
 10
44.725
 20
-2.6
 30
0.0
 11
50.625
 21
-2.6
 31
0.0
  0
MTEXT
  5
216
330
20B
100
AcDbEntity
  8
A-DIMS
100
AcDbMText
 10
43.375
 20
-2.6
 30
0.0
 40
0.45
 71
5
  1
14'-6"
  7
OpenSansCondensed-Light
  0
POINT
  5
217
330
20B
100
AcDbEntity
  8
Defpoints
100
AcDbPoint
 10
36.125
 20
-2.6
 30
0.0
  0
POINT
  5
218
330
20B
100
AcDbEntity
  8
Defpoints
100
AcDbPoint
 10
36.125
 20
0.0
 30
0.0
  0
POINT
  5
219
330
20B
100
AcDbEntity
  8
Defpoints
100
AcDbPoint
 10
50.625
 20
0.0
 30
0.0
  0
ENDBLK
  5
20D
330
20B
100
AcDbEntity
  8
0
100
AcDbBlockEnd
  0
BLOCK
  5
21C
330
21B
100
AcDbEntity
  8
0
100
AcDbBlockBegin
  2
*D3
 70
1
 10
0.0
 20
0.0
 30
0.0
  3
*D3
  1

  0
LINE
  5
21E
330
21B
100
AcDbEntity
  8
0
100
AcDbLine
 10
51.375
 20
-0.3
 30
0.0
 11
51.375
 21
-2.9
 31
0.0
  0
LINE
  5
21F
330
21B
100
AcDbEntity
  8
0
100
AcDbLine
 10
56.625
 20
-0.3
 30
0.0
 11
56.625
 21
-2.9
 31
0.0
  0
INSERT
  5
220
330
21B
100
AcDbEntity
  8
A-DIMS
100
AcDbBlockReference
  2
_OBLIQUE
 10
51.375
 20
-2.6
 30
0.0
 41
0.6
 42
0.6
  0
INSERT
  5
222
330
21B
100
AcDbEntity
  8
A-DIMS
100
AcDbBlockReference
  2
_OBLIQUE
 10
56.625
 20
-2.6
 30
0.0
 41
0.6
 42
0.6
  0
LINE
  5
224
330
21B
100
AcDbEntity
  8
0
100
AcDbLine
 10
51.375
 20
-2.6
 30
0.0
 11
52.875
 21
-2.6
 31
0.0
  0
LINE
  5
225
330
21B
100
AcDbEntity
  8
0
100
AcDbLine
 10
55.125
 20
-2.6
 30
0.0
 11
56.625
 21
-2.6
 31
0.0
  0
MTEXT
  5
226
330
21B
100
AcDbEntity
  8
A-DIMS
100
AcDbMText
 10
54.0
 20
-2.6
 30
0.0
 40
0.45
 71
5
  1
5'-3"
  7
OpenSansCondensed-Light
  0
POINT
  5
227
330
21B
100
AcDbEntity
  8
Defpoints
100
AcDbPoint
 10
51.375
 20
-2.6
 30
0.0
  0
POINT
  5
228
330
21B
100
AcDbEntity
  8
Defpoints
100
AcDbPoint
 10
51.375
 20
0.0
 30
0.0
  0
POINT
  5
229
330
21B
100
AcDbEntity
  8
Defpoints
100
AcDbPoint
 10
56.625
 20
0.0
 30
0.0
  0
ENDBLK
  5
21D
330
21B
100
AcDbEntity
  8
0
100
AcDbBlockEnd
  0
BLOCK
  5
22C
330
22B
100
AcDbEntity
  8
0
100
AcDbBlockBegin
  2
*D4
 70
1
 10
0.0
 20
0.0
 30
0.0
  3
*D4
  1

  0
LINE
  5
22E
330
22B
100
AcDbEntity
  8
0
100
AcDbLine
 10
57.375
 20
-0.3
 30
0.0
 11
57.375
 21
-2.9
 31
0.0
  0
LINE
  5
22F
330
22B
100
AcDbEntity
  8
0
100
AcDbLine
 10
68.625
 20
-0.3
 30
0.0
 11
68.625
 21
-2.9
 31
0.0
  0
INSERT
  5
230
330
22B
100
AcDbEntity
  8
A-DIMS
100
AcDbBlockReference
  2
_OBLIQUE
 10
57.375
 20
-2.6
 30
0.0
 41
0.6
 42
0.6
  0
INSERT
  5
232
330
22B
100
AcDbEntity
  8
A-DIMS
100
AcDbBlockReference
  2
_OBLIQUE
 10
68.625
 20
-2.6
 30
0.0
 41
0.6
 42
0.6
  0
LINE
  5
234
330
22B
100
AcDbEntity
  8
0
100
AcDbLine
 10
57.375
 20
-2.6
 30
0.0
 11
61.65
 21
-2.6
 31
0.0
  0
LINE
  5
235
330
22B
100
AcDbEntity
  8
0
100
AcDbLine
 10
64.35
 20
-2.6
 30
0.0
 11
68.625
 21
-2.6
 31
0.0
  0
MTEXT
  5
236
330
22B
100
AcDbEntity
  8
A-DIMS
100
AcDbMText
 10
63.0
 20
-2.6
 30
0.0
 40
0.45
 71
5
  1
11'-3"
  7
OpenSansCondensed-Light
  0
POINT
  5
237
330
22B
100
AcDbEntity
  8
Defpoints
100
AcDbPoint
 10
57.375
 20
-2.6
 30
0.0
  0
POINT
  5
238
330
22B
100
AcDbEntity
  8
Defpoints
100
AcDbPoint
 10
57.375
 20
0.0
 30
0.0
  0
POINT
  5
239
330
22B
100
AcDbEntity
  8
Defpoints
100
AcDbPoint
 10
68.625
 20
0.0
 30
0.0
  0
ENDBLK
  5
22D
330
22B
100
AcDbEntity
  8
0
100
AcDbBlockEnd
  0
BLOCK
  5
23C
330
23B
100
AcDbEntity
  8
0
100
AcDbBlockBegin
  2
*D5
 70
1
 10
0.0
 20
0.0
 30
0.0
  3
*D5
  1

  0
LINE
  5
23E
330
23B
100
AcDbEntity
  8
0
100
AcDbLine
 10
69.375
 20
-0.3
 30
0.0
 11
69.375
 21
-2.9
 31
0.0
  0
LINE
  5
23F
330
23B
100
AcDbEntity
  8
0
100
AcDbLine
 10
84.375
 20
-0.3
 30
0.0
 11
84.375
 21
-2.9
 31
0.0
  0
INSERT
  5
240
330
23B
100
AcDbEntity
  8
A-DIMS
100
AcDbBlockReference
  2
_OBLIQUE
 10
69.375
 20
-2.6
 30
0.0
 41
0.6
 42
0.6
  0
INSERT
  5
242
330
23B
100
AcDbEntity
  8
A-DIMS
100
AcDbBlockReference
  2
_OBLIQUE
 10
84.375
 20
-2.6
 30
0.0
 41
0.6
 42
0.6
  0
LINE
  5
244
330
23B
100
AcDbEntity
  8
0
100
AcDbLine
 10
69.375
 20
-2.6
 30
0.0
 11
75.525
 21
-2.6
 31
0.0
  0
LINE
  5
245
330
23B
100
AcDbEntity
  8
0
100
AcDbLine
 10
78.225
 20
-2.6
 30
0.0
 11
84.375
 21
-2.6
 31
0.0
  0
MTEXT
  5
246
330
23B
100
AcDbEntity
  8
A-DIMS
100
AcDbMText
 10
76.875
 20
-2.6
 30
0.0
 40
0.45
 71
5
  1
15'-0"
  7
OpenSansCondensed-Light
  0
POINT
  5
247
330
23B
100
AcDbEntity
  8
Defpoints
100
AcDbPoint
 10
69.375
 20
-2.6
 30
0.0
  0
POINT
  5
248
330
23B
100
AcDbEntity
  8
Defpoints
100
AcDbPoint
 10
69.375
 20
0.0
 30
0.0
  0
POINT
  5
249
330
23B
100
AcDbEntity
  8
Defpoints
100
AcDbPoint
 10
84.375
 20
0.0
 30
0.0
  0
ENDBLK
  5
23D
330
23B
100
AcDbEntity
  8
0
100
AcDbBlockEnd
  0
BLOCK
  5
24C
330
24B
100
AcDbEntity
  8
0
100
AcDbBlockBegin
  2
*D6
 70
1
 10
0.0
 20
0.0
 30
0.0
  3
*D6
  1

  0
LINE
  5
24E
330
24B
100
AcDbEntity
  8
0
100
AcDbLine
 10
85.125
 20
-0.3
 30
0.0
 11
85.125
 21
-2.9
 31
0.0
  0
LINE
  5
24F
330
24B
100
AcDbEntity
  8
0
100
AcDbLine
 10
87.9167
 20
-0.3
 30
0.0
 11
87.9167
 21
-2.9
 31
0.0
  0
INSERT
  5
250
330
24B
100
AcDbEntity
  8
A-DIMS
100
AcDbBlockReference
  2
_OBLIQUE
 10
85.125
 20
-2.6
 30
0.0
 41
0.6
 42
0.6
  0
INSERT
  5
252
330
24B
100
AcDbEntity
  8
A-DIMS
100
AcDbBlockReference
  2
_OBLIQUE
 10
87.9167
 20
-2.6
 30
0.0
 41
0.6
 42
0.6
  0
LINE
  5
254
330
24B
100
AcDbEntity
  8
0
100
AcDbLine
 10
85.125
 20
-2.6
 30
0.0
 11
87.9167
 21
-2.6
 31
0.0
  0
MTEXT
  5
255
330
24B
100
AcDbEntity
  8
A-DIMS
100
AcDbMText
 10
86.52085
 20
-1.9250000000000003
 30
0.0
 40
0.45
 71
5
  1
2'-9 1/2"
  7
OpenSansCondensed-Light
  0
POINT
  5
256
330
24B
100
AcDbEntity
  8
Defpoints
100
AcDbPoint
 10
85.125
 20
-2.6
 30
0.0
  0
POINT
  5
257
330
24B
100
AcDbEntity
  8
Defpoints
100
AcDbPoint
 10
85.125
 20
0.0
 30
0.0
  0
POINT
  5
258
330
24B
100
AcDbEntity
  8
Defpoints
100
AcDbPoint
 10
87.9167
 20
0.0
 30
0.0
  0
ENDBLK
  5
24D
330
24B
100
AcDbEntity
  8
0
100
AcDbBlockEnd
  0
BLOCK
  5
25B
330
25A
100
AcDbEntity
  8
0
100
AcDbBlockBegin
  2
*D7
 70
1
 10
0.0
 20
0.0
 30
0.0
  3
*D7
  1

  0
LINE
  5
25D
330
25A
100
AcDbEntity
  8
0
100
AcDbLine
 10
36.125
 20
-0.3
 30
0.0
 11
36.125
 21
-4.5
 31
0.0
  0
LINE
  5
25E
330
25A
100
AcDbEntity
  8
0
100
AcDbLine
 10
85.125
 20
-0.3
 30
0.0
 11
85.125
 21
-4.5
 31
0.0
  0
INSERT
  5
25F
330
25A
100
AcDbEntity
  8
A-DIMS
100
AcDbBlockReference
  2
_OBLIQUE
 10
36.125
 20
-4.2
 30
0.0
 41
0.6
 42
0.6
  0
INSERT
  5
261
330
25A
100
AcDbEntity
  8
A-DIMS
100
AcDbBlockReference
  2
_OBLIQUE
 10
85.125
 20
-4.2
 30
0.0
 41
0.6
 42
0.6
  0
LINE
  5
263
330
25A
100
AcDbEntity
  8
0
100
AcDbLine
 10
36.125
 20
-4.2
 30
0.0
 11
59.275000000000006
 21
-4.2
 31
0.0
  0
LINE
  5
264
330
25A
100
AcDbEntity
  8
0
100
AcDbLine
 10
61.97500000000001
 20
-4.2
 30
0.0
 11
85.125
 21
-4.2
 31
0.0
  0
MTEXT
  5
265
330
25A
100
AcDbEntity
  8
A-DIMS
100
AcDbMText
 10
60.625
 20
-4.2
 30
0.0
 40
0.45
 71
5
  1
49'-0"
  7
OpenSansCondensed-Light
  0
POINT
  5
266
330
25A
100
AcDbEntity
  8
Defpoints
100
AcDbPoint
 10
36.125
 20
-4.2
 30
0.0
  0
POINT
  5
267
330
25A
100
AcDbEntity
  8
Defpoints
100
AcDbPoint
 10
36.125
 20
0.0
 30
0.0
  0
POINT
  5
268
330
25A
100
AcDbEntity
  8
Defpoints
100
AcDbPoint
 10
85.125
 20
0.0
 30
0.0
  0
ENDBLK
  5
25C
330
25A
100
AcDbEntity
  8
0
100
AcDbBlockEnd
  0
BLOCK
  5
26B
330
26A
100
AcDbEntity
  8
0
100
AcDbBlockBegin
  2
*D8
 70
1
 10
0.0
 20
0.0
 30
0.0
  3
*D8
  1

  0
LINE
  5
26D
330
26A
100
AcDbEntity
  8
0
100
AcDbLine
 10
0.0
 20
-0.3
 30
0.0
 11
0.0
 21
-8.700000000000001
 31
0.0
  0
LINE
  5
26E
330
26A
100
AcDbEntity
  8
0
100
AcDbLine
 10
87.9167
 20
-0.3
 30
0.0
 11
87.9167
 21
-8.700000000000001
 31
0.0
  0
INSERT
  5
26F
330
26A
100
AcDbEntity
  8
A-DIMS
100
AcDbBlockReference
  2
_OBLIQUE
 10
0.0
 20
-8.4
 30
0.0
 41
0.6
 42
0.6
  0
INSERT
  5
271
330
26A
100
AcDbEntity
  8
A-DIMS
100
AcDbBlockReference
  2
_OBLIQUE
 10
87.9167
 20
-8.4
 30
0.0
 41
0.6
 42
0.6
  0
LINE
  5
273
330
26A
100
AcDbEntity
  8
0
100
AcDbLine
 10
0.0
 20
-8.4
 30
0.0
 11
42.38335
 21
-8.4
 31
0.0
  0
LINE
  5
274
330
26A
100
AcDbEntity
  8
0
100
AcDbLine
 10
45.533350000000006
 20
-8.4
 30
0.0
 11
87.9167
 21
-8.4
 31
0.0
  0
MTEXT
  5
275
330
26A
100
AcDbEntity
  8
A-DIMS
100
AcDbMText
 10
43.95835
 20
-8.4
 30
0.0
 40
0.45
 71
5
  1
87'-11"
  7
OpenSansCondensed-Light
  0
POINT
  5
276
330
26A
100
AcDbEntity
  8
Defpoints
100
AcDbPoint
 10
0.0
 20
-8.4
 30
0.0
  0
POINT
  5
277
330
26A
100
AcDbEntity
  8
Defpoints
100
AcDbPoint
 10
0.0
 20
0.0
 30
0.0
  0
POINT
  5
278
330
26A
100
AcDbEntity
  8
Defpoints
100
AcDbPoint
 10
87.9167
 20
0.0
 30
0.0
  0
ENDBLK
  5
26C
330
26A
100
AcDbEntity
  8
0
100
AcDbBlockEnd
  0
BLOCK
  5
27B
330
27A
100
AcDbEntity
  8
0
100
AcDbBlockBegin
  2
*D9
 70
1
 10
0.0
 20
0.0
 30
0.0
  3
*D9
  1

  0
LINE
  5
27D
330
27A
100
AcDbEntity
  8
0
100
AcDbLine
 10
88.2
 20
0.0
 30
0.0
 11
90.8
 21
0.0
 31
0.0
  0
LINE
  5
27E
330
27A
100
AcDbEntity
  8
0
100
AcDbLine
 10
88.2
 20
3.0
 30
0.0
 11
90.8
 21
3.0
 31
0.0
  0
INSERT
  5
27F
330
27A
100
AcDbEntity
  8
A-DIMS
100
AcDbBlockReference
  2
_OBLIQUE
 10
90.5
 20
0.0
 30
0.0
 41
0.6
 42
0.6
 50
90.0
  0
INSERT
  5
281
330
27A
100
AcDbEntity
  8
A-DIMS
100
AcDbBlockReference
  2
_OBLIQUE
 10
90.5
 20
3.0
 30
0.0
 41
0.6
 42
0.6
 50
90.0
  0
LINE
  5
283
330
27A
100
AcDbEntity
  8
0
100
AcDbLine
 10
90.5
 20
0.0
 30
0.0
 11
90.5
 21
3.0
 31
0.0
  0
MTEXT
  5
284
330
27A
100
AcDbEntity
  8
A-DIMS
100
AcDbMText
 10
89.825
 20
1.5
 30
0.0
 40
0.45
 71
5
  1
3'-0"
  7
OpenSansCondensed-Light
 50
90.0
  0
POINT
  5
285
330
27A
100
AcDbEntity
  8
Defpoints
100
AcDbPoint
 10
90.5
 20
0.0
 30
0.0
  0
POINT
  5
286
330
27A
100
AcDbEntity
  8
Defpoints
100
AcDbPoint
 10
87.9
 20
0.0
 30
0.0
  0
POINT
  5
287
330
27A
100
AcDbEntity
  8
Defpoints
100
AcDbPoint
 10
87.9
 20
3.0
 30
0.0
  0
ENDBLK
  5
27C
330
27A
100
AcDbEntity
  8
0
100
AcDbBlockEnd
  0
BLOCK
  5
28A
330
289
100
AcDbEntity
  8
0
100
AcDbBlockBegin
  2
*D10
 70
1
 10
0.0
 20
0.0
 30
0.0
  3
*D10
  1

  0
LINE
  5
28C
330
289
100
AcDbEntity
  8
0
100
AcDbLine
 10
88.2
 20
3.75
 30
0.0
 11
90.8
 21
3.75
 31
0.0
  0
LINE
  5
28D
330
289
100
AcDbEntity
  8
0
100
AcDbLine
 10
88.2
 20
19.75
 30
0.0
 11
90.8
 21
19.75
 31
0.0
  0
INSERT
  5
28E
330
289
100
AcDbEntity
  8
A-DIMS
100
AcDbBlockReference
  2
_OBLIQUE
 10
90.5
 20
3.75
 30
0.0
 41
0.6
 42
0.6
 50
90.0
  0
INSERT
  5
290
330
289
100
AcDbEntity
  8
A-DIMS
100
AcDbBlockReference
  2
_OBLIQUE
 10
90.5
 20
19.75
 30
0.0
 41
0.6
 42
0.6
 50
90.0
  0
LINE
  5
292
330
289
100
AcDbEntity
  8
0
100
AcDbLine
 10
90.5
 20
3.75
 30
0.0
 11
90.5
 21
10.4
 31
0.0
  0
LINE
  5
293
330
289
100
AcDbEntity
  8
0
100
AcDbLine
 10
90.5
 20
13.1
 30
0.0
 11
90.5
 21
19.75
 31
0.0
  0
MTEXT
  5
294
330
289
100
AcDbEntity
  8
A-DIMS
100
AcDbMText
 10
90.5
 20
11.75
 30
0.0
 40
0.45
 71
5
  1
16'-0"
  7
OpenSansCondensed-Light
 50
90.0
  0
POINT
  5
295
330
289
100
AcDbEntity
  8
Defpoints
100
AcDbPoint
 10
90.5
 20
3.75
 30
0.0
  0
POINT
  5
296
330
289
100
AcDbEntity
  8
Defpoints
100
AcDbPoint
 10
87.9
 20
3.75
 30
0.0
  0
POINT
  5
297
330
289
100
AcDbEntity
  8
Defpoints
100
AcDbPoint
 10
87.9
 20
19.75
 30
0.0
  0
ENDBLK
  5
28B
330
289
100
AcDbEntity
  8
0
100
AcDbBlockEnd
  0
BLOCK
  5
29A
330
299
100
AcDbEntity
  8
0
100
AcDbBlockBegin
  2
*D11
 70
1
 10
0.0
 20
0.0
 30
0.0
  3
*D11
  1

  0
LINE
  5
29C
330
299
100
AcDbEntity
  8
0
100
AcDbLine
 10
88.2
 20
20.5
 30
0.0
 11
90.8
 21
20.5
 31
0.0
  0
LINE
  5
29D
330
299
100
AcDbEntity
  8
0
100
AcDbLine
 10
88.2
 20
28.125
 30
0.0
 11
90.8
 21
28.125
 31
0.0
  0
INSERT
  5
29E
330
299
100
AcDbEntity
  8
A-DIMS
100
AcDbBlockReference
  2
_OBLIQUE
 10
90.5
 20
20.5
 30
0.0
 41
0.6
 42
0.6
 50
90.0
  0
INSERT
  5
2A0
330
299
100
AcDbEntity
  8
A-DIMS
100
AcDbBlockReference
  2
_OBLIQUE
 10
90.5
 20
28.125
 30
0.0
 41
0.6
 42
0.6
 50
90.0
  0
LINE
  5
2A2
330
299
100
AcDbEntity
  8
0
100
AcDbLine
 10
90.5
 20
20.5
 30
0.0
 11
90.5
 21
22.2875
 31
0.0
  0
LINE
  5
2A3
330
299
100
AcDbEntity
  8
0
100
AcDbLine
 10
90.5
 20
26.3375
 30
0.0
 11
90.5
 21
28.125
 31
0.0
  0
MTEXT
  5
2A4
330
299
100
AcDbEntity
  8
A-DIMS
100
AcDbMText
 10
90.5
 20
24.3125
 30
0.0
 40
0.45
 71
5
  1
7'-7 1/2"
  7
OpenSansCondensed-Light
 50
90.0
  0
POINT
  5
2A5
330
299
100
AcDbEntity
  8
Defpoints
100
AcDbPoint
 10
90.5
 20
20.5
 30
0.0
  0
POINT
  5
2A6
330
299
100
AcDbEntity
  8
Defpoints
100
AcDbPoint
 10
87.9
 20
20.5
 30
0.0
  0
POINT
  5
2A7
330
299
100
AcDbEntity
  8
Defpoints
100
AcDbPoint
 10
87.9
 20
28.125
 30
0.0
  0
ENDBLK
  5
29B
330
299
100
AcDbEntity
  8
0
100
AcDbBlockEnd
  0
BLOCK
  5
2AA
330
2A9
100
AcDbEntity
  8
0
100
AcDbBlockBegin
  2
*D12
 70
1
 10
0.0
 20
0.0
 30
0.0
  3
*D12
  1

  0
LINE
  5
2AC
330
2A9
100
AcDbEntity
  8
0
100
AcDbLine
 10
88.2
 20
28.875
 30
0.0
 11
90.8
 21
28.875
 31
0.0
  0
LINE
  5
2AD
330
2A9
100
AcDbEntity
  8
0
100
AcDbLine
 10
88.2
 20
43.875
 30
0.0
 11
90.8
 21
43.875
 31
0.0
  0
INSERT
  5
2AE
330
2A9
100
AcDbEntity
  8
A-DIMS
100
AcDbBlockReference
  2
_OBLIQUE
 10
90.5
 20
28.875
 30
0.0
 41
0.6
 42
0.6
 50
90.0
  0
INSERT
  5
2B0
330
2A9
100
AcDbEntity
  8
A-DIMS
100
AcDbBlockReference
  2
_OBLIQUE
 10
90.5
 20
43.875
 30
0.0
 41
0.6
 42
0.6
 50
90.0
  0
LINE
  5
2B2
330
2A9
100
AcDbEntity
  8
0
100
AcDbLine
 10
90.5
 20
28.875
 30
0.0
 11
90.5
 21
35.025
 31
0.0
  0
LINE
  5
2B3
330
2A9
100
AcDbEntity
  8
0
100
AcDbLine
 10
90.5
 20
37.725
 30
0.0
 11
90.5
 21
43.875
 31
0.0
  0
MTEXT
  5
2B4
330
2A9
100
AcDbEntity
  8
A-DIMS
100
AcDbMText
 10
90.5
 20
36.375
 30
0.0
 40
0.45
 71
5
  1
15'-0"
  7
OpenSansCondensed-Light
 50
90.0
  0
POINT
  5
2B5
330
2A9
100
AcDbEntity
  8
Defpoints
100
AcDbPoint
 10
90.5
 20
28.875
 30
0.0
  0
POINT
  5
2B6
330
2A9
100
AcDbEntity
  8
Defpoints
100
AcDbPoint
 10
87.9
 20
28.875
 30
0.0
  0
POINT
  5
2B7
330
2A9
100
AcDbEntity
  8
Defpoints
100
AcDbPoint
 10
87.9
 20
43.875
 30
0.0
  0
ENDBLK
  5
2AB
330
2A9
100
AcDbEntity
  8
0
100
AcDbBlockEnd
  0
BLOCK
  5
2BA
330
2B9
100
AcDbEntity
  8
0
100
AcDbBlockBegin
  2
*D13
 70
1
 10
0.0
 20
0.0
 30
0.0
  3
*D13
  1

  0
LINE
  5
2BC
330
2B9
100
AcDbEntity
  8
0
100
AcDbLine
 10
35.800000000000004
 20
3.75
 30
0.0
 11
33.7
 21
3.75
 31
0.0
  0
LINE
  5
2BD
330
2B9
100
AcDbEntity
  8
0
100
AcDbLine
 10
35.800000000000004
 20
19.75
 30
0.0
 11
33.7
 21
19.75
 31
0.0
  0
INSERT
  5
2BE
330
2B9
100
AcDbEntity
  8
A-DIMS
100
AcDbBlockReference
  2
_OBLIQUE
 10
34.0
 20
3.75
 30
0.0
 41
0.6
 42
0.6
 50
90.0
  0
INSERT
  5
2C0
330
2B9
100
AcDbEntity
  8
A-DIMS
100
AcDbBlockReference
  2
_OBLIQUE
 10
34.0
 20
19.75
 30
0.0
 41
0.6
 42
0.6
 50
90.0
  0
LINE
  5
2C2
330
2B9
100
AcDbEntity
  8
0
100
AcDbLine
 10
34.0
 20
3.75
 30
0.0
 11
34.0
 21
10.399999999999999
 31
0.0
  0
LINE
  5
2C3
330
2B9
100
AcDbEntity
  8
0
100
AcDbLine
 10
34.0
 20
13.1
 30
0.0
 11
34.0
 21
19.75
 31
0.0
  0
MTEXT
  5
2C4
330
2B9
100
AcDbEntity
  8
A-DIMS
100
AcDbMText
 10
34.0
 20
11.75
 30
0.0
 40
0.45
 71
5
  1
16'-0"
  7
OpenSansCondensed-Light
 50
90.0
  0
POINT
  5
2C5
330
2B9
100
AcDbEntity
  8
Defpoints
100
AcDbPoint
 10
34.0
 20
3.75
 30
0.0
  0
POINT
  5
2C6
330
2B9
100
AcDbEntity
  8
Defpoints
100
AcDbPoint
 10
36.1
 20
3.75
 30
0.0
  0
POINT
  5
2C7
330
2B9
100
AcDbEntity
  8
Defpoints
100
AcDbPoint
 10
36.1
 20
19.75
 30
0.0
  0
ENDBLK
  5
2BB
330
2B9
100
AcDbEntity
  8
0
100
AcDbBlockEnd
  0
BLOCK
  5
2CA
330
2C9
100
AcDbEntity
  8
0
100
AcDbBlockBegin
  2
*D14
 70
1
 10
0.0
 20
0.0
 30
0.0
  3
*D14
  1

  0
LINE
  5
2CC
330
2C9
100
AcDbEntity
  8
0
100
AcDbLine
 10
35.800000000000004
 20
20.5
 30
0.0
 11
33.7
 21
20.5
 31
0.0
  0
LINE
  5
2CD
330
2C9
100
AcDbEntity
  8
0
100
AcDbLine
 10
35.800000000000004
 20
24.5
 30
0.0
 11
33.7
 21
24.5
 31
0.0
  0
INSERT
  5
2CE
330
2C9
100
AcDbEntity
  8
A-DIMS
100
AcDbBlockReference
  2
_OBLIQUE
 10
34.0
 20
20.5
 30
0.0
 41
0.6
 42
0.6
 50
90.0
  0
INSERT
  5
2D0
330
2C9
100
AcDbEntity
  8
A-DIMS
100
AcDbBlockReference
  2
_OBLIQUE
 10
34.0
 20
24.5
 30
0.0
 41
0.6
 42
0.6
 50
90.0
  0
LINE
  5
2D2
330
2C9
100
AcDbEntity
  8
0
100
AcDbLine
 10
34.0
 20
20.5
 30
0.0
 11
34.0
 21
21.375
 31
0.0
  0
LINE
  5
2D3
330
2C9
100
AcDbEntity
  8
0
100
AcDbLine
 10
34.0
 20
23.625
 30
0.0
 11
34.0
 21
24.5
 31
0.0
  0
MTEXT
  5
2D4
330
2C9
100
AcDbEntity
  8
A-DIMS
100
AcDbMText
 10
34.0
 20
22.5
 30
0.0
 40
0.45
 71
5
  1
4'-0"
  7
OpenSansCondensed-Light
 50
90.0
  0
POINT
  5
2D5
330
2C9
100
AcDbEntity
  8
Defpoints
100
AcDbPoint
 10
34.0
 20
20.5
 30
0.0
  0
POINT
  5
2D6
330
2C9
100
AcDbEntity
  8
Defpoints
100
AcDbPoint
 10
36.1
 20
20.5
 30
0.0
  0
POINT
  5
2D7
330
2C9
100
AcDbEntity
  8
Defpoints
100
AcDbPoint
 10
36.1
 20
24.5
 30
0.0
  0
ENDBLK
  5
2CB
330
2C9
100
AcDbEntity
  8
0
100
AcDbBlockEnd
  0
BLOCK
  5
2DA
330
2D9
100
AcDbEntity
  8
0
100
AcDbBlockBegin
  2
*D15
 70
1
 10
0.0
 20
0.0
 30
0.0
  3
*D15
  1

  0
LINE
  5
2DC
330
2D9
100
AcDbEntity
  8
0
100
AcDbLine
 10
35.800000000000004
 20
24.875
 30
0.0
 11
33.7
 21
24.875
 31
0.0
  0
LINE
  5
2DD
330
2D9
100
AcDbEntity
  8
0
100
AcDbLine
 10
35.800000000000004
 20
33.0
 30
0.0
 11
33.7
 21
33.0
 31
0.0
  0
INSERT
  5
2DE
330
2D9
100
AcDbEntity
  8
A-DIMS
100
AcDbBlockReference
  2
_OBLIQUE
 10
34.0
 20
24.875
 30
0.0
 41
0.6
 42
0.6
 50
90.0
  0
INSERT
  5
2E0
330
2D9
100
AcDbEntity
  8
A-DIMS
100
AcDbBlockReference
  2
_OBLIQUE
 10
34.0
 20
33.0
 30
0.0
 41
0.6
 42
0.6
 50
90.0
  0
LINE
  5
2E2
330
2D9
100
AcDbEntity
  8
0
100
AcDbLine
 10
34.0
 20
24.875
 30
0.0
 11
34.0
 21
26.9125
 31
0.0
  0
LINE
  5
2E3
330
2D9
100
AcDbEntity
  8
0
100
AcDbLine
 10
34.0
 20
30.9625
 30
0.0
 11
34.0
 21
33.0
 31
0.0
  0
MTEXT
  5
2E4
330
2D9
100
AcDbEntity
  8
A-DIMS
100
AcDbMText
 10
34.0
 20
28.9375
 30
0.0
 40
0.45
 71
5
  1
8'-1 1/2"
  7
OpenSansCondensed-Light
 50
90.0
  0
POINT
  5
2E5
330
2D9
100
AcDbEntity
  8
Defpoints
100
AcDbPoint
 10
34.0
 20
24.875
 30
0.0
  0
POINT
  5
2E6
330
2D9
100
AcDbEntity
  8
Defpoints
100
AcDbPoint
 10
36.1
 20
24.875
 30
0.0
  0
POINT
  5
2E7
330
2D9
100
AcDbEntity
  8
Defpoints
100
AcDbPoint
 10
36.1
 20
33.0
 30
0.0
  0
ENDBLK
  5
2DB
330
2D9
100
AcDbEntity
  8
0
100
AcDbBlockEnd
  0
ENDSEC
  0
SECTION
  2
ENTITIES
  0
LWPOLYLINE
  5
99
330
17
100
AcDbEntity
  8
0_SITE_BOUNDARY
100
AcDbPolyline
 90
9
 70
1
 10
0.0
 20
0.0
 10
10.4884
 20
10.0122
 10
24.5949
 20
26.1267
 10
41.1897
 20
36.8354
 10
67.6992
 20
50.701
 10
84.8373
 20
57.6678
 10
88.8145
 20
62.1602
 10
87.9167
 20
0.0
 10
0.0
 20
0.0
  0
CIRCLE
  5
9A
330
17
100
AcDbEntity
  8
0_SITE_BOUNDARY
100
AcDbCircle
 10
0.0
 20
0.0
 30
0.0
 40
0.4
  0
TEXT
  5
9B
330
17
100
AcDbEntity
  8
0_SITE_BOUNDARY
100
AcDbText
 10
0.9
 20
0.9
 30
0.0
 40
0.55
  1
P1
  7
OpenSans
 72
1
 11
0.9
 21
0.9
 31
0.0
100
AcDbText
 73
2
  0
CIRCLE
  5
9C
330
17
100
AcDbEntity
  8
0_SITE_BOUNDARY
100
AcDbCircle
 10
10.4884
 20
10.0122
 30
0.0
 40
0.4
  0
TEXT
  5
9D
330
17
100
AcDbEntity
  8
0_SITE_BOUNDARY
100
AcDbText
 10
11.3884
 20
10.9122
 30
0.0
 40
0.55
  1
P2
  7
OpenSans
 72
1
 11
11.3884
 21
10.9122
 31
0.0
100
AcDbText
 73
2
  0
CIRCLE
  5
9E
330
17
100
AcDbEntity
  8
0_SITE_BOUNDARY
100
AcDbCircle
 10
24.5949
 20
26.1267
 30
0.0
 40
0.4
  0
TEXT
  5
9F
330
17
100
AcDbEntity
  8
0_SITE_BOUNDARY
100
AcDbText
 10
25.494899999999998
 20
27.026699999999998
 30
0.0
 40
0.55
  1
P3
  7
OpenSans
 72
1
 11
25.494899999999998
 21
27.026699999999998
 31
0.0
100
AcDbText
 73
2
  0
CIRCLE
  5
A0
330
17
100
AcDbEntity
  8
0_SITE_BOUNDARY
100
AcDbCircle
 10
41.1897
 20
36.8354
 30
0.0
 40
0.4
  0
TEXT
  5
A1
330
17
100
AcDbEntity
  8
0_SITE_BOUNDARY
100
AcDbText
 10
42.0897
 20
37.7354
 30
0.0
 40
0.55
  1
P4
  7
OpenSans
 72
1
 11
42.0897
 21
37.7354
 31
0.0
100
AcDbText
 73
2
  0
CIRCLE
  5
A2
330
17
100
AcDbEntity
  8
0_SITE_BOUNDARY
100
AcDbCircle
 10
67.6992
 20
50.701
 30
0.0
 40
0.4
  0
TEXT
  5
A3
330
17
100
AcDbEntity
  8
0_SITE_BOUNDARY
100
AcDbText
 10
68.59920000000001
 20
51.601
 30
0.0
 40
0.55
  1
P5
  7
OpenSans
 72
1
 11
68.59920000000001
 21
51.601
 31
0.0
100
AcDbText
 73
2
  0
CIRCLE
  5
A4
330
17
100
AcDbEntity
  8
0_SITE_BOUNDARY
100
AcDbCircle
 10
84.8373
 20
57.6678
 30
0.0
 40
0.4
  0
TEXT
  5
A5
330
17
100
AcDbEntity
  8
0_SITE_BOUNDARY
100
AcDbText
 10
85.7373
 20
58.5678
 30
0.0
 40
0.55
  1
P6
  7
OpenSans
 72
1
 11
85.7373
 21
58.5678
 31
0.0
100
AcDbText
 73
2
  0
CIRCLE
  5
A6
330
17
100
AcDbEntity
  8
0_SITE_BOUNDARY
100
AcDbCircle
 10
88.8145
 20
62.1602
 30
0.0
 40
0.4
  0
TEXT
  5
A7
330
17
100
AcDbEntity
  8
0_SITE_BOUNDARY
100
AcDbText
 10
89.7145
 20
63.0602
 30
0.0
 40
0.55
  1
P7
  7
OpenSans
 72
1
 11
89.7145
 21
63.0602
 31
0.0
100
AcDbText
 73
2
  0
CIRCLE
  5
A8
330
17
100
AcDbEntity
  8
0_SITE_BOUNDARY
100
AcDbCircle
 10
87.9167
 20
0.0
 30
0.0
 40
0.4
  0
TEXT
  5
A9
330
17
100
AcDbEntity
  8
0_SITE_BOUNDARY
100
AcDbText
 10
88.81670000000001
 20
0.9
 30
0.0
 40
0.55
  1
P0
  7
OpenSans
 72
1
 11
88.81670000000001
 21
0.9
 31
0.0
100
AcDbText
 73
2
  0
LWPOLYLINE
  5
AA
330
17
100
AcDbEntity
  8
L-LAWN
100
AcDbPolyline
 90
6
 70
1
 10
10.4884
 20
10.0122
 10
24.5949
 20
26.1267
 10
36.125
 20
33.567126029238075
 10
36.125
 20
0.0
 10
0.0
 20
0.0
 10
10.4884
 20
10.0122
  0
HATCH
  5
AB
330
17
100
AcDbEntity
  8
L-LAWN
 62
7
100
AcDbHatch
 10
0.0
 20
0.0
 30
0.0
210
0.0
220
0.0
230
1.0
  2
DOTS
 70
0
 71
0
 91
1
 92
3
 72
0
 73
1
 93
6
 10
10.4884
 20
10.0122
 10
24.5949
 20
26.1267
 10
36.125
 20
33.567126029238075
 10
36.125
 20
0.0
 10
0.0
 20
0.0
 10
10.4884
 20
10.0122
 97
0
 75
1
 76
1
 52
0.0
 41
1.5
 77
0
 78
1
 53
0.0
 43
0.0
 44
0.0
 45
0.046875
 46
0.09375
 79
2
 49
0.0
 49
-0.09375
 98
0
  0
TEXT
  5
AC
330
17
100
AcDbEntity
  8
L-LAWN
100
AcDbText
 10
18.0
 20
6.0
 30
0.0
 40
0.9
  1
MAIN LAWN  652 SQ.FT
  7
OpenSans
 72
1
 11
18.0
 21
6.0
 31
0.0
100
AcDbText
 73
2
  0
LINE
  5
AD
330
17
100
AcDbEntity
  8
0_SITE_BOUNDARY
  6
DASHED
100
AcDbLine
 10
36.125
 20
-1.5
 30
0.0
 11
36.125
 21
35.067126029238075
 31
0.0
  0
LINE
  5
AE
330
17
100
AcDbEntity
  8
S-GRID
100
AcDbLine
 10
36.5
 20
-4.5
 30
0.0
 11
36.5
 21
63.0
 31
0.0
  0
CIRCLE
  5
AF
330
17
100
AcDbEntity
  8
S-GRID
100
AcDbCircle
 10
36.5
 20
-6.0
 30
0.0
 40
1.1
  0
TEXT
  5
B0
330
17
100
AcDbEntity
  8
S-GRID
100
AcDbText
 10
36.5
 20
-6.0
 30
0.0
 40
0.8
  1
B
  7
OpenSans
 72
1
 11
36.5
 21
-6.0
 31
0.0
100
AcDbText
 73
2
  0
CIRCLE
  5
B1
330
17
100
AcDbEntity
  8
S-GRID
100
AcDbCircle
 10
36.5
 20
64.6
 30
0.0
 40
1.1
  0
TEXT
  5
B2
330
17
100
AcDbEntity
  8
S-GRID
100
AcDbText
 10
36.5
 20
64.6
 30
0.0
 40
0.8
  1
B
  7
OpenSans
 72
1
 11
36.5
 21
64.6
 31
0.0
100
AcDbText
 73
2
  0
LINE
  5
B3
330
17
100
AcDbEntity
  8
S-GRID
100
AcDbLine
 10
51.75
 20
-4.5
 30
0.0
 11
51.75
 21
63.0
 31
0.0
  0
CIRCLE
  5
B4
330
17
100
AcDbEntity
  8
S-GRID
100
AcDbCircle
 10
51.75
 20
-6.0
 30
0.0
 40
1.1
  0
TEXT
  5
B5
330
17
100
AcDbEntity
  8
S-GRID
100
AcDbText
 10
51.75
 20
-6.0
 30
0.0
 40
0.8
  1
C
  7
OpenSans
 72
1
 11
51.75
 21
-6.0
 31
0.0
100
AcDbText
 73
2
  0
CIRCLE
  5
B6
330
17
100
AcDbEntity
  8
S-GRID
100
AcDbCircle
 10
51.75
 20
64.6
 30
0.0
 40
1.1
  0
TEXT
  5
B7
330
17
100
AcDbEntity
  8
S-GRID
100
AcDbText
 10
51.75
 20
64.6
 30
0.0
 40
0.8
  1
C
  7
OpenSans
 72
1
 11
51.75
 21
64.6
 31
0.0
100
AcDbText
 73
2
  0
LINE
  5
B8
330
17
100
AcDbEntity
  8
S-GRID
100
AcDbLine
 10
57.0
 20
-4.5
 30
0.0
 11
57.0
 21
63.0
 31
0.0
  0
CIRCLE
  5
B9
330
17
100
AcDbEntity
  8
S-GRID
100
AcDbCircle
 10
57.0
 20
-6.0
 30
0.0
 40
1.1
  0
TEXT
  5
BA
330
17
100
AcDbEntity
  8
S-GRID
100
AcDbText
 10
57.0
 20
-6.0
 30
0.0
 40
0.8
  1
C'
  7
OpenSans
 72
1
 11
57.0
 21
-6.0
 31
0.0
100
AcDbText
 73
2
  0
CIRCLE
  5
BB
330
17
100
AcDbEntity
  8
S-GRID
100
AcDbCircle
 10
57.0
 20
64.6
 30
0.0
 40
1.1
  0
TEXT
  5
BC
330
17
100
AcDbEntity
  8
S-GRID
100
AcDbText
 10
57.0
 20
64.6
 30
0.0
 40
0.8
  1
C'
  7
OpenSans
 72
1
 11
57.0
 21
64.6
 31
0.0
100
AcDbText
 73
2
  0
LINE
  5
BD
330
17
100
AcDbEntity
  8
S-GRID
100
AcDbLine
 10
69.0
 20
-4.5
 30
0.0
 11
69.0
 21
63.0
 31
0.0
  0
CIRCLE
  5
BE
330
17
100
AcDbEntity
  8
S-GRID
100
AcDbCircle
 10
69.0
 20
-6.0
 30
0.0
 40
1.1
  0
TEXT
  5
BF
330
17
100
AcDbEntity
  8
S-GRID
100
AcDbText
 10
69.0
 20
-6.0
 30
0.0
 40
0.8
  1
D
  7
OpenSans
 72
1
 11
69.0
 21
-6.0
 31
0.0
100
AcDbText
 73
2
  0
CIRCLE
  5
C0
330
17
100
AcDbEntity
  8
S-GRID
100
AcDbCircle
 10
69.0
 20
64.6
 30
0.0
 40
1.1
  0
TEXT
  5
C1
330
17
100
AcDbEntity
  8
S-GRID
100
AcDbText
 10
69.0
 20
64.6
 30
0.0
 40
0.8
  1
D
  7
OpenSans
 72
1
 11
69.0
 21
64.6
 31
0.0
100
AcDbText
 73
2
  0
LINE
  5
C2
330
17
100
AcDbEntity
  8
S-GRID
100
AcDbLine
 10
84.75
 20
-4.5
 30
0.0
 11
84.75
 21
63.0
 31
0.0
  0
CIRCLE
  5
C3
330
17
100
AcDbEntity
  8
S-GRID
100
AcDbCircle
 10
84.75
 20
-6.0
 30
0.0
 40
1.1
  0
TEXT
  5
C4
330
17
100
AcDbEntity
  8
S-GRID
100
AcDbText
 10
84.75
 20
-6.0
 30
0.0
 40
0.8
  1
E
  7
OpenSans
 72
1
 11
84.75
 21
-6.0
 31
0.0
100
AcDbText
 73
2
  0
CIRCLE
  5
C5
330
17
100
AcDbEntity
  8
S-GRID
100
AcDbCircle
 10
84.75
 20
64.6
 30
0.0
 40
1.1
  0
TEXT
  5
C6
330
17
100
AcDbEntity
  8
S-GRID
100
AcDbText
 10
84.75
 20
64.6
 30
0.0
 40
0.8
  1
E
  7
OpenSans
 72
1
 11
84.75
 21
64.6
 31
0.0
100
AcDbText
 73
2
  0
LINE
  5
C7
330
17
100
AcDbEntity
  8
S-GRID
100
AcDbLine
 10
30.0
 20
3.375
 30
0.0
 11
93.5
 21
3.375
 31
0.0
  0
CIRCLE
  5
C8
330
17
100
AcDbEntity
  8
S-GRID
100
AcDbCircle
 10
95.2
 20
3.375
 30
0.0
 40
1.1
  0
TEXT
  5
C9
330
17
100
AcDbEntity
  8
S-GRID
100
AcDbText
 10
95.2
 20
3.375
 30
0.0
 40
0.8
  1
1
  7
OpenSans
 72
1
 11
95.2
 21
3.375
 31
0.0
100
AcDbText
 73
2
  0
LINE
  5
CA
330
17
100
AcDbEntity
  8
S-GRID
100
AcDbLine
 10
30.0
 20
20.125
 30
0.0
 11
93.5
 21
20.125
 31
0.0
  0
CIRCLE
  5
CB
330
17
100
AcDbEntity
  8
S-GRID
100
AcDbCircle
 10
95.2
 20
20.125
 30
0.0
 40
1.1
  0
TEXT
  5
CC
330
17
100
AcDbEntity
  8
S-GRID
100
AcDbText
 10
95.2
 20
20.125
 30
0.0
 40
0.8
  1
2
  7
OpenSans
 72
1
 11
95.2
 21
20.125
 31
0.0
100
AcDbText
 73
2
  0
LINE
  5
CD
330
17
100
AcDbEntity
  8
S-GRID
100
AcDbLine
 10
30.0
 20
28.5
 30
0.0
 11
93.5
 21
28.5
 31
0.0
  0
CIRCLE
  5
CE
330
17
100
AcDbEntity
  8
S-GRID
100
AcDbCircle
 10
95.2
 20
28.5
 30
0.0
 40
1.1
  0
TEXT
  5
CF
330
17
100
AcDbEntity
  8
S-GRID
100
AcDbText
 10
95.2
 20
28.5
 30
0.0
 40
0.8
  1
3
  7
OpenSans
 72
1
 11
95.2
 21
28.5
 31
0.0
100
AcDbText
 73
2
  0
LINE
  5
D0
330
17
100
AcDbEntity
  8
S-GRID
100
AcDbLine
 10
30.0
 20
33.1875
 30
0.0
 11
93.5
 21
33.1875
 31
0.0
  0
CIRCLE
  5
D1
330
17
100
AcDbEntity
  8
S-GRID
100
AcDbCircle
 10
95.2
 20
33.1875
 30
0.0
 40
1.1
  0
TEXT
  5
D2
330
17
100
AcDbEntity
  8
S-GRID
100
AcDbText
 10
95.2
 20
33.1875
 30
0.0
 40
0.8
  1
4
  7
OpenSans
 72
1
 11
95.2
 21
33.1875
 31
0.0
100
AcDbText
 73
2
  0
LINE
  5
D3
330
17
100
AcDbEntity
  8
S-GRID
100
AcDbLine
 10
30.0
 20
44.0625
 30
0.0
 11
93.5
 21
44.0625
 31
0.0
  0
CIRCLE
  5
D4
330
17
100
AcDbEntity
  8
S-GRID
100
AcDbCircle
 10
95.2
 20
44.0625
 30
0.0
 40
1.1
  0
TEXT
  5
D5
330
17
100
AcDbEntity
  8
S-GRID
100
AcDbText
 10
95.2
 20
44.0625
 30
0.0
 40
0.8
  1
5
  7
OpenSans
 72
1
 11
95.2
 21
44.0625
 31
0.0
100
AcDbText
 73
2
  0
LWPOLYLINE
  5
D6
330
17
100
AcDbEntity
  8
A-WALL
100
AcDbPolyline
 90
34
 70
1
 10
68.605
 20
19.75
 10
68.25
 20
19.75
 10
68.25
 20
20.5
 10
72.375
 20
20.5
 10
72.375
 20
24.0
 10
72.375
 20
28.125
 10
69.375
 20
28.125
 10
69.375
 20
24.0
 10
65.125
 20
24.0
 10
65.125
 20
23.5
 10
64.75
 20
23.5
 10
64.75
 20
24.375
 10
68.625
 20
24.375
 10
68.625
 20
37.5
 10
69.375
 20
37.5
 10
69.375
 20
28.875
 10
84.375
 20
28.875
 10
84.375
 20
32.5
 10
85.125
 20
32.5
 10
85.125
 20
25.0
 10
84.375
 20
25.0
 10
84.375
 20
28.125
 10
78.375
 20
28.125
 10
78.375
 20
25.25
 10
78.0
 20
25.25
 10
78.0
 20
28.125
 10
72.75
 20
28.125
 10
72.75
 20
20.5
 10
73.25
 20
20.5
 10
73.25
 20
19.75
 10
69.395
 20
19.75
 10
69.375
 20
19.75
 10
68.625
 20
19.75
 10
68.605
 20
19.75
  0
LWPOLYLINE
  5
D7
330
17
100
AcDbEntity
  8
A-WALL
100
AcDbPolyline
 90
9
 70
1
 10
64.75
 20
19.75
 10
64.75
 20
20.5
 10
64.75
 20
20.52
 10
64.75
 20
21.0
 10
65.125
 20
21.0
 10
65.125
 20
20.5
 10
65.5
 20
20.5
 10
65.5
 20
19.75
 10
64.75
 20
19.75
  0
LWPOLYLINE
  5
D8
330
17
100
AcDbEntity
  8
A-WALL
100
AcDbPolyline
 90
20
 70
1
 10
57.375
 20
19.75
 10
57.375
 20
3.0
 10
55.0
 20
3.0
 10
55.0
 20
3.75
 10
56.625
 20
3.75
 10
56.625
 20
10.75
 10
53.75
 20
10.75
 10
53.75
 20
11.125
 10
56.625
 20
11.125
 10
56.625
 20
19.75
 10
51.375
 20
19.75
 10
51.375
 20
15.5
 10
50.625
 20
15.5
 10
50.625
 20
19.75
 10
50.5
 20
19.75
 10
50.5
 20
20.5
 10
52.125
 20
20.5
 10
60.75
 20
20.5
 10
60.75
 20
19.75
 10
57.375
 20
19.75
  0
LWPOLYLINE
  5
D9
330
17
100
AcDbEntity
  8
A-WALL
100
AcDbPolyline
 90
13
 70
1
 10
47.25
 20
3.0
 10
47.25
 20
3.75
 10
50.625
 20
3.75
 10
50.625
 20
13.25
 10
51.375
 20
13.25
 10
51.375
 20
11.125
 10
51.5
 20
11.125
 10
51.5
 20
10.75
 10
51.375
 20
10.75
 10
51.375
 20
3.75
 10
53.0
 20
3.75
 10
53.0
 20
3.0
 10
47.25
 20
3.0
  0
LWPOLYLINE
  5
DA
330
17
100
AcDbEntity
  8
A-WALL
100
AcDbPolyline
 90
7
 70
1
 10
36.125
 20
3.0
 10
36.125
 20
4.75
 10
36.875
 20
4.75
 10
36.875
 20
3.75
 10
40.25
 20
3.75
 10
40.25
 20
3.0
 10
36.125
 20
3.0
  0
LWPOLYLINE
  5
DB
330
17
100
AcDbEntity
  8
A-WALL
100
AcDbPolyline
 90
9
 70
1
 10
36.125
 20
21.0
 10
36.875
 20
21.0
 10
36.875
 20
20.5
 10
48.0
 20
20.5
 10
48.0
 20
19.75
 10
36.875
 20
19.75
 10
36.875
 20
12.75
 10
36.125
 20
12.75
 10
36.125
 20
21.0
  0
LWPOLYLINE
  5
DC
330
17
100
AcDbEntity
  8
A-WALL
100
AcDbPolyline
 90
9
 70
1
 10
36.125
 20
26.0
 10
36.875
 20
26.0
 10
36.875
 20
24.875
 10
47.5
 20
24.875
 10
47.5
 20
24.5
 10
36.875
 20
24.5
 10
36.875
 20
24.0
 10
36.125
 20
24.0
 10
36.125
 20
26.0
  0
LWPOLYLINE
  5
DD
330
17
100
AcDbEntity
  8
A-WALL
100
AcDbPolyline
 90
37
 70
1
 10
36.125
 20
33.567126029238075
 10
41.1897
 20
36.8354
 10
67.6992
 20
50.701
 10
84.8373
 20
57.6678
 10
85.125
 20
57.99276818867545
 10
85.125
 20
50.5
 10
84.375
 20
50.5
 10
84.375
 20
56.67027009142555
 10
76.875
 20
53.621449043584775
 10
76.875
 20
49.75
 10
76.5
 20
49.75
 10
76.5
 20
53.46900799119273
 10
69.375
 20
50.572627995744
 10
69.375
 20
44.25
 10
70.0
 20
44.25
 10
70.0
 20
43.875
 10
69.375
 20
43.875
 10
69.375
 20
40.5
 10
68.625
 20
40.5
 10
68.625
 20
46.10686050198404
 10
64.17380263898191
 20
43.77869429255223
 10
63.82619736101809
 20
44.44327729770035
 10
68.625
 20
46.953255904277896
 10
68.625
 20
50.26774589095992
 10
68.01494538435931
 20
50.019752910626885
 10
52.125
 20
41.70863324705826
 10
52.125
 20
40.4
 10
51.375
 20
40.4
 10
51.375
 20
41.316351234949394
 10
41.56761660986471
 20
36.186671115208924
 10
37.21049391311636
 20
33.375
 10
46.75
 20
33.375
 10
46.75
 20
33.0
 10
36.875
 20
33.0
 10
36.875
 20
31.0
 10
36.125
 20
31.0
 10
36.125
 20
33.567126029238075
  0
LWPOLYLINE
  5
DE
330
17
100
AcDbEntity
  8
A-WALL
100
AcDbPolyline
 90
13
 70
1
 10
85.125
 20
38.0
 10
84.375
 20
38.0
 10
84.375
 20
43.875
 10
72.5
 20
43.875
 10
72.5
 20
44.25
 10
76.5
 20
44.25
 10
76.5
 20
47.5
 10
76.875
 20
47.5
 10
76.875
 20
44.25
 10
84.375
 20
44.25
 10
84.375
 20
47.5
 10
85.125
 20
47.5
 10
85.125
 20
38.0
  0
LWPOLYLINE
  5
DF
330
17
100
AcDbEntity
  8
A-WALL
100
AcDbPolyline
 90
13
 70
1
 10
85.125
 20
13.5
 10
84.375
 20
13.5
 10
84.375
 20
19.75
 10
75.75
 20
19.75
 10
75.75
 20
20.5
 10
78.0
 20
20.5
 10
78.0
 20
23.0
 10
78.375
 20
23.0
 10
78.375
 20
20.5
 10
84.375
 20
20.5
 10
84.375
 20
23.0
 10
85.125
 20
23.0
 10
85.125
 20
13.5
  0
LWPOLYLINE
  5
E0
330
17
100
AcDbEntity
  8
A-WALL
100
AcDbPolyline
 90
7
 70
1
 10
85.125
 20
3.0
 10
80.375
 20
3.0
 10
80.375
 20
3.75
 10
84.375
 20
3.75
 10
84.375
 20
8.5
 10
85.125
 20
8.5
 10
85.125
 20
3.0
  0
LWPOLYLINE
  5
E1
330
17
100
AcDbEntity
  8
A-WALL
100
AcDbPolyline
 90
7
 70
1
 10
68.625
 20
3.0
 10
68.625
 20
17.375
 10
69.375
 20
17.375
 10
69.375
 20
3.75
 10
73.375
 20
3.75
 10
73.375
 20
3.0
 10
68.625
 20
3.0
  0
LWPOLYLINE
  5
E2
330
17
100
AcDbEntity
  8
A-WALL
100
AcDbPolyline
 90
5
 70
1
 10
58.17380263898191
 20
40.640438195681305
 10
57.82619736101809
 20
41.30502120082941
 10
60.82619736101809
 20
42.874149249264875
 10
61.17380263898191
 20
42.209566244116765
 10
58.17380263898191
 20
40.640438195681305
  0
LWPOLYLINE
  5
E3
330
17
100
AcDbEntity
  8
A-WALL
100
AcDbPolyline
 90
15
 70
1
 10
52.125
 20
37.476656235588976
 10
52.125
 20
24.5
 10
50.0
 20
24.5
 10
50.0
 20
24.875
 10
51.375
 20
24.875
 10
51.375
 20
33.0
 10
49.25
 20
33.0
 10
49.25
 20
33.375
 10
51.375
 20
33.375
 10
51.375
 20
38.9
 10
52.125
 20
38.9
 10
52.125
 20
38.32305163788283
 10
53.82619736101809
 20
39.21285046958212
 10
54.17380263898191
 20
38.54826746443401
 10
52.125
 20
37.476656235588976
  0
HATCH
  5
E4
330
17
100
AcDbEntity
  8
A-WALL-HATCH
 62
8
100
AcDbHatch
 10
0.0
 20
0.0
 30
0.0
210
0.0
220
0.0
230
1.0
  2
SOLID
 70
1
 71
0
 91
1
 92
3
 72
0
 73
1
 93
34
 10
68.605
 20
19.75
 10
68.25
 20
19.75
 10
68.25
 20
20.5
 10
72.375
 20
20.5
 10
72.375
 20
24.0
 10
72.375
 20
28.125
 10
69.375
 20
28.125
 10
69.375
 20
24.0
 10
65.125
 20
24.0
 10
65.125
 20
23.5
 10
64.75
 20
23.5
 10
64.75
 20
24.375
 10
68.625
 20
24.375
 10
68.625
 20
37.5
 10
69.375
 20
37.5
 10
69.375
 20
28.875
 10
84.375
 20
28.875
 10
84.375
 20
32.5
 10
85.125
 20
32.5
 10
85.125
 20
25.0
 10
84.375
 20
25.0
 10
84.375
 20
28.125
 10
78.375
 20
28.125
 10
78.375
 20
25.25
 10
78.0
 20
25.25
 10
78.0
 20
28.125
 10
72.75
 20
28.125
 10
72.75
 20
20.5
 10
73.25
 20
20.5
 10
73.25
 20
19.75
 10
69.395
 20
19.75
 10
69.375
 20
19.75
 10
68.625
 20
19.75
 10
68.605
 20
19.75
 97
0
 75
0
 76
1
 98
0
  0
HATCH
  5
E5
330
17
100
AcDbEntity
  8
A-WALL-HATCH
 62
8
100
AcDbHatch
 10
0.0
 20
0.0
 30
0.0
210
0.0
220
0.0
230
1.0
  2
SOLID
 70
1
 71
0
 91
1
 92
3
 72
0
 73
1
 93
9
 10
64.75
 20
19.75
 10
64.75
 20
20.5
 10
64.75
 20
20.52
 10
64.75
 20
21.0
 10
65.125
 20
21.0
 10
65.125
 20
20.5
 10
65.5
 20
20.5
 10
65.5
 20
19.75
 10
64.75
 20
19.75
 97
0
 75
0
 76
1
 98
0
  0
HATCH
  5
E6
330
17
100
AcDbEntity
  8
A-WALL-HATCH
 62
8
100
AcDbHatch
 10
0.0
 20
0.0
 30
0.0
210
0.0
220
0.0
230
1.0
  2
SOLID
 70
1
 71
0
 91
1
 92
3
 72
0
 73
1
 93
20
 10
57.375
 20
19.75
 10
57.375
 20
3.0
 10
55.0
 20
3.0
 10
55.0
 20
3.75
 10
56.625
 20
3.75
 10
56.625
 20
10.75
 10
53.75
 20
10.75
 10
53.75
 20
11.125
 10
56.625
 20
11.125
 10
56.625
 20
19.75
 10
51.375
 20
19.75
 10
51.375
 20
15.5
 10
50.625
 20
15.5
 10
50.625
 20
19.75
 10
50.5
 20
19.75
 10
50.5
 20
20.5
 10
52.125
 20
20.5
 10
60.75
 20
20.5
 10
60.75
 20
19.75
 10
57.375
 20
19.75
 97
0
 75
0
 76
1
 98
0
  0
HATCH
  5
E7
330
17
100
AcDbEntity
  8
A-WALL-HATCH
 62
8
100
AcDbHatch
 10
0.0
 20
0.0
 30
0.0
210
0.0
220
0.0
230
1.0
  2
SOLID
 70
1
 71
0
 91
1
 92
3
 72
0
 73
1
 93
13
 10
47.25
 20
3.0
 10
47.25
 20
3.75
 10
50.625
 20
3.75
 10
50.625
 20
13.25
 10
51.375
 20
13.25
 10
51.375
 20
11.125
 10
51.5
 20
11.125
 10
51.5
 20
10.75
 10
51.375
 20
10.75
 10
51.375
 20
3.75
 10
53.0
 20
3.75
 10
53.0
 20
3.0
 10
47.25
 20
3.0
 97
0
 75
0
 76
1
 98
0
  0
HATCH
  5
E8
330
17
100
AcDbEntity
  8
A-WALL-HATCH
 62
8
100
AcDbHatch
 10
0.0
 20
0.0
 30
0.0
210
0.0
220
0.0
230
1.0
  2
SOLID
 70
1
 71
0
 91
1
 92
3
 72
0
 73
1
 93
7
 10
36.125
 20
3.0
 10
36.125
 20
4.75
 10
36.875
 20
4.75
 10
36.875
 20
3.75
 10
40.25
 20
3.75
 10
40.25
 20
3.0
 10
36.125
 20
3.0
 97
0
 75
0
 76
1
 98
0
  0
HATCH
  5
E9
330
17
100
AcDbEntity
  8
A-WALL-HATCH
 62
8
100
AcDbHatch
 10
0.0
 20
0.0
 30
0.0
210
0.0
220
0.0
230
1.0
  2
SOLID
 70
1
 71
0
 91
1
 92
3
 72
0
 73
1
 93
9
 10
36.125
 20
21.0
 10
36.875
 20
21.0
 10
36.875
 20
20.5
 10
48.0
 20
20.5
 10
48.0
 20
19.75
 10
36.875
 20
19.75
 10
36.875
 20
12.75
 10
36.125
 20
12.75
 10
36.125
 20
21.0
 97
0
 75
0
 76
1
 98
0
  0
HATCH
  5
EA
330
17
100
AcDbEntity
  8
A-WALL-HATCH
 62
8
100
AcDbHatch
 10
0.0
 20
0.0
 30
0.0
210
0.0
220
0.0
230
1.0
  2
SOLID
 70
1
 71
0
 91
1
 92
3
 72
0
 73
1
 93
9
 10
36.125
 20
26.0
 10
36.875
 20
26.0
 10
36.875
 20
24.875
 10
47.5
 20
24.875
 10
47.5
 20
24.5
 10
36.875
 20
24.5
 10
36.875
 20
24.0
 10
36.125
 20
24.0
 10
36.125
 20
26.0
 97
0
 75
0
 76
1
 98
0
  0
HATCH
  5
EB
330
17
100
AcDbEntity
  8
A-WALL-HATCH
 62
8
100
AcDbHatch
 10
0.0
 20
0.0
 30
0.0
210
0.0
220
0.0
230
1.0
  2
SOLID
 70
1
 71
0
 91
1
 92
3
 72
0
 73
1
 93
37
 10
36.125
 20
33.567126029238075
 10
41.1897
 20
36.8354
 10
67.6992
 20
50.701
 10
84.8373
 20
57.6678
 10
85.125
 20
57.99276818867545
 10
85.125
 20
50.5
 10
84.375
 20
50.5
 10
84.375
 20
56.67027009142555
 10
76.875
 20
53.621449043584775
 10
76.875
 20
49.75
 10
76.5
 20
49.75
 10
76.5
 20
53.46900799119273
 10
69.375
 20
50.572627995744
 10
69.375
 20
44.25
 10
70.0
 20
44.25
 10
70.0
 20
43.875
 10
69.375
 20
43.875
 10
69.375
 20
40.5
 10
68.625
 20
40.5
 10
68.625
 20
46.10686050198404
 10
64.17380263898191
 20
43.77869429255223
 10
63.82619736101809
 20
44.44327729770035
 10
68.625
 20
46.953255904277896
 10
68.625
 20
50.26774589095992
 10
68.01494538435931
 20
50.019752910626885
 10
52.125
 20
41.70863324705826
 10
52.125
 20
40.4
 10
51.375
 20
40.4
 10
51.375
 20
41.316351234949394
 10
41.56761660986471
 20
36.186671115208924
 10
37.21049391311636
 20
33.375
 10
46.75
 20
33.375
 10
46.75
 20
33.0
 10
36.875
 20
33.0
 10
36.875
 20
31.0
 10
36.125
 20
31.0
 10
36.125
 20
33.567126029238075
 97
0
 75
0
 76
1
 98
0
  0
HATCH
  5
EC
330
17
100
AcDbEntity
  8
A-WALL-HATCH
 62
8
100
AcDbHatch
 10
0.0
 20
0.0
 30
0.0
210
0.0
220
0.0
230
1.0
  2
SOLID
 70
1
 71
0
 91
1
 92
3
 72
0
 73
1
 93
13
 10
85.125
 20
38.0
 10
84.375
 20
38.0
 10
84.375
 20
43.875
 10
72.5
 20
43.875
 10
72.5
 20
44.25
 10
76.5
 20
44.25
 10
76.5
 20
47.5
 10
76.875
 20
47.5
 10
76.875
 20
44.25
 10
84.375
 20
44.25
 10
84.375
 20
47.5
 10
85.125
 20
47.5
 10
85.125
 20
38.0
 97
0
 75
0
 76
1
 98
0
  0
HATCH
  5
ED
330
17
100
AcDbEntity
  8
A-WALL-HATCH
 62
8
100
AcDbHatch
 10
0.0
 20
0.0
 30
0.0
210
0.0
220
0.0
230
1.0
  2
SOLID
 70
1
 71
0
 91
1
 92
3
 72
0
 73
1
 93
13
 10
85.125
 20
13.5
 10
84.375
 20
13.5
 10
84.375
 20
19.75
 10
75.75
 20
19.75
 10
75.75
 20
20.5
 10
78.0
 20
20.5
 10
78.0
 20
23.0
 10
78.375
 20
23.0
 10
78.375
 20
20.5
 10
84.375
 20
20.5
 10
84.375
 20
23.0
 10
85.125
 20
23.0
 10
85.125
 20
13.5
 97
0
 75
0
 76
1
 98
0
  0
HATCH
  5
EE
330
17
100
AcDbEntity
  8
A-WALL-HATCH
 62
8
100
AcDbHatch
 10
0.0
 20
0.0
 30
0.0
210
0.0
220
0.0
230
1.0
  2
SOLID
 70
1
 71
0
 91
1
 92
3
 72
0
 73
1
 93
7
 10
85.125
 20
3.0
 10
80.375
 20
3.0
 10
80.375
 20
3.75
 10
84.375
 20
3.75
 10
84.375
 20
8.5
 10
85.125
 20
8.5
 10
85.125
 20
3.0
 97
0
 75
0
 76
1
 98
0
  0
HATCH
  5
EF
330
17
100
AcDbEntity
  8
A-WALL-HATCH
 62
8
100
AcDbHatch
 10
0.0
 20
0.0
 30
0.0
210
0.0
220
0.0
230
1.0
  2
SOLID
 70
1
 71
0
 91
1
 92
3
 72
0
 73
1
 93
7
 10
68.625
 20
3.0
 10
68.625
 20
17.375
 10
69.375
 20
17.375
 10
69.375
 20
3.75
 10
73.375
 20
3.75
 10
73.375
 20
3.0
 10
68.625
 20
3.0
 97
0
 75
0
 76
1
 98
0
  0
HATCH
  5
F0
330
17
100
AcDbEntity
  8
A-WALL-HATCH
 62
8
100
AcDbHatch
 10
0.0
 20
0.0
 30
0.0
210
0.0
220
0.0
230
1.0
  2
SOLID
 70
1
 71
0
 91
1
 92
3
 72
0
 73
1
 93
5
 10
58.17380263898191
 20
40.640438195681305
 10
57.82619736101809
 20
41.30502120082941
 10
60.82619736101809
 20
42.874149249264875
 10
61.17380263898191
 20
42.209566244116765
 10
58.17380263898191
 20
40.640438195681305
 97
0
 75
0
 76
1
 98
0
  0
HATCH
  5
F1
330
17
100
AcDbEntity
  8
A-WALL-HATCH
 62
8
100
AcDbHatch
 10
0.0
 20
0.0
 30
0.0
210
0.0
220
0.0
230
1.0
  2
SOLID
 70
1
 71
0
 91
1
 92
3
 72
0
 73
1
 93
15
 10
52.125
 20
37.476656235588976
 10
52.125
 20
24.5
 10
50.0
 20
24.5
 10
50.0
 20
24.875
 10
51.375
 20
24.875
 10
51.375
 20
33.0
 10
49.25
 20
33.0
 10
49.25
 20
33.375
 10
51.375
 20
33.375
 10
51.375
 20
38.9
 10
52.125
 20
38.9
 10
52.125
 20
38.32305163788283
 10
53.82619736101809
 20
39.21285046958212
 10
54.17380263898191
 20
38.54826746443401
 10
52.125
 20
37.476656235588976
 97
0
 75
0
 76
1
 98
0
  0
LWPOLYLINE
  5
F2
330
17
100
AcDbEntity
  8
S-COLS
100
AcDbPolyline
 90
5
 70
1
 10
36.875
 20
2.625
 10
36.875
 20
4.125
 10
36.125
 20
4.125
 10
36.125
 20
2.625
 10
36.875
 20
2.625
  0
HATCH
  5
F3
330
17
100
AcDbEntity
  8
S-COLS
 62
7
100
AcDbHatch
 10
0.0
 20
0.0
 30
0.0
210
0.0
220
0.0
230
1.0
  2
SOLID
 70
1
 71
0
 91
1
 92
3
 72
0
 73
1
 93
5
 10
36.875
 20
2.625
 10
36.875
 20
4.125
 10
36.125
 20
4.125
 10
36.125
 20
2.625
 10
36.875
 20
2.625
 97
0
 75
0
 76
1
 98
0
  0
LWPOLYLINE
  5
F4
330
17
100
AcDbEntity
  8
S-COLS
100
AcDbPolyline
 90
5
 70
1
 10
51.375
 20
2.625
 10
51.375
 20
4.125
 10
50.625
 20
4.125
 10
50.625
 20
2.625
 10
51.375
 20
2.625
  0
HATCH
  5
F5
330
17
100
AcDbEntity
  8
S-COLS
 62
7
100
AcDbHatch
 10
0.0
 20
0.0
 30
0.0
210
0.0
220
0.0
230
1.0
  2
SOLID
 70
1
 71
0
 91
1
 92
3
 72
0
 73
1
 93
5
 10
51.375
 20
2.625
 10
51.375
 20
4.125
 10
50.625
 20
4.125
 10
50.625
 20
2.625
 10
51.375
 20
2.625
 97
0
 75
0
 76
1
 98
0
  0
LWPOLYLINE
  5
F6
330
17
100
AcDbEntity
  8
S-COLS
100
AcDbPolyline
 90
5
 70
1
 10
57.375
 20
2.625
 10
57.375
 20
4.125
 10
56.625
 20
4.125
 10
56.625
 20
2.625
 10
57.375
 20
2.625
  0
HATCH
  5
F7
330
17
100
AcDbEntity
  8
S-COLS
 62
7
100
AcDbHatch
 10
0.0
 20
0.0
 30
0.0
210
0.0
220
0.0
230
1.0
  2
SOLID
 70
1
 71
0
 91
1
 92
3
 72
0
 73
1
 93
5
 10
57.375
 20
2.625
 10
57.375
 20
4.125
 10
56.625
 20
4.125
 10
56.625
 20
2.625
 10
57.375
 20
2.625
 97
0
 75
0
 76
1
 98
0
  0
LWPOLYLINE
  5
F8
330
17
100
AcDbEntity
  8
S-COLS
100
AcDbPolyline
 90
5
 70
1
 10
69.375
 20
2.625
 10
69.375
 20
4.125
 10
68.625
 20
4.125
 10
68.625
 20
2.625
 10
69.375
 20
2.625
  0
HATCH
  5
F9
330
17
100
AcDbEntity
  8
S-COLS
 62
7
100
AcDbHatch
 10
0.0
 20
0.0
 30
0.0
210
0.0
220
0.0
230
1.0
  2
SOLID
 70
1
 71
0
 91
1
 92
3
 72
0
 73
1
 93
5
 10
69.375
 20
2.625
 10
69.375
 20
4.125
 10
68.625
 20
4.125
 10
68.625
 20
2.625
 10
69.375
 20
2.625
 97
0
 75
0
 76
1
 98
0
  0
LWPOLYLINE
  5
FA
330
17
100
AcDbEntity
  8
S-COLS
100
AcDbPolyline
 90
5
 70
1
 10
85.125
 20
2.625
 10
85.125
 20
4.125
 10
84.375
 20
4.125
 10
84.375
 20
2.625
 10
85.125
 20
2.625
  0
HATCH
  5
FB
330
17
100
AcDbEntity
  8
S-COLS
 62
7
100
AcDbHatch
 10
0.0
 20
0.0
 30
0.0
210
0.0
220
0.0
230
1.0
  2
SOLID
 70
1
 71
0
 91
1
 92
3
 72
0
 73
1
 93
5
 10
85.125
 20
2.625
 10
85.125
 20
4.125
 10
84.375
 20
4.125
 10
84.375
 20
2.625
 10
85.125
 20
2.625
 97
0
 75
0
 76
1
 98
0
  0
LWPOLYLINE
  5
FC
330
17
100
AcDbEntity
  8
S-COLS
100
AcDbPolyline
 90
5
 70
1
 10
36.875
 20
19.375
 10
36.875
 20
20.875
 10
36.125
 20
20.875
 10
36.125
 20
19.375
 10
36.875
 20
19.375
  0
HATCH
  5
FD
330
17
100
AcDbEntity
  8
S-COLS
 62
7
100
AcDbHatch
 10
0.0
 20
0.0
 30
0.0
210
0.0
220
0.0
230
1.0
  2
SOLID
 70
1
 71
0
 91
1
 92
3
 72
0
 73
1
 93
5
 10
36.875
 20
19.375
 10
36.875
 20
20.875
 10
36.125
 20
20.875
 10
36.125
 20
19.375
 10
36.875
 20
19.375
 97
0
 75
0
 76
1
 98
0
  0
LWPOLYLINE
  5
FE
330
17
100
AcDbEntity
  8
S-COLS
100
AcDbPolyline
 90
5
 70
1
 10
52.125
 20
19.75
 10
52.125
 20
20.5
 10
50.625
 20
20.5
 10
50.625
 20
19.75
 10
52.125
 20
19.75
  0
HATCH
  5
FF
330
17
100
AcDbEntity
  8
S-COLS
 62
7
100
AcDbHatch
 10
0.0
 20
0.0
 30
0.0
210
0.0
220
0.0
230
1.0
  2
SOLID
 70
1
 71
0
 91
1
 92
3
 72
0
 73
1
 93
5
 10
52.125
 20
19.75
 10
52.125
 20
20.5
 10
50.625
 20
20.5
 10
50.625
 20
19.75
 10
52.125
 20
19.75
 97
0
 75
0
 76
1
 98
0
  0
LWPOLYLINE
  5
100
330
17
100
AcDbEntity
  8
S-COLS
100
AcDbPolyline
 90
5
 70
1
 10
57.75
 20
19.75
 10
57.75
 20
20.5
 10
56.25
 20
20.5
 10
56.25
 20
19.75
 10
57.75
 20
19.75
  0
HATCH
  5
101
330
17
100
AcDbEntity
  8
S-COLS
 62
7
100
AcDbHatch
 10
0.0
 20
0.0
 30
0.0
210
0.0
220
0.0
230
1.0
  2
SOLID
 70
1
 71
0
 91
1
 92
3
 72
0
 73
1
 93
5
 10
57.75
 20
19.75
 10
57.75
 20
20.5
 10
56.25
 20
20.5
 10
56.25
 20
19.75
 10
57.75
 20
19.75
 97
0
 75
0
 76
1
 98
0
  0
LWPOLYLINE
  5
102
330
17
100
AcDbEntity
  8
S-COLS
100
AcDbPolyline
 90
5
 70
1
 10
69.75
 20
19.75
 10
69.75
 20
20.5
 10
68.25
 20
20.5
 10
68.25
 20
19.75
 10
69.75
 20
19.75
  0
HATCH
  5
103
330
17
100
AcDbEntity
  8
S-COLS
 62
7
100
AcDbHatch
 10
0.0
 20
0.0
 30
0.0
210
0.0
220
0.0
230
1.0
  2
SOLID
 70
1
 71
0
 91
1
 92
3
 72
0
 73
1
 93
5
 10
69.75
 20
19.75
 10
69.75
 20
20.5
 10
68.25
 20
20.5
 10
68.25
 20
19.75
 10
69.75
 20
19.75
 97
0
 75
0
 76
1
 98
0
  0
LWPOLYLINE
  5
104
330
17
100
AcDbEntity
  8
S-COLS
100
AcDbPolyline
 90
5
 70
1
 10
85.125
 20
19.375
 10
85.125
 20
20.875
 10
84.375
 20
20.875
 10
84.375
 20
19.375
 10
85.125
 20
19.375
  0
HATCH
  5
105
330
17
100
AcDbEntity
  8
S-COLS
 62
7
100
AcDbHatch
 10
0.0
 20
0.0
 30
0.0
210
0.0
220
0.0
230
1.0
  2
SOLID
 70
1
 71
0
 91
1
 92
3
 72
0
 73
1
 93
5
 10
85.125
 20
19.375
 10
85.125
 20
20.875
 10
84.375
 20
20.875
 10
84.375
 20
19.375
 10
85.125
 20
19.375
 97
0
 75
0
 76
1
 98
0
  0
LWPOLYLINE
  5
106
330
17
100
AcDbEntity
  8
S-COLS
100
AcDbPolyline
 90
5
 70
1
 10
36.875
 20
31.5
 10
36.875
 20
33.0
 10
36.125
 20
33.0
 10
36.125
 20
31.5
 10
36.875
 20
31.5
  0
HATCH
  5
107
330
17
100
AcDbEntity
  8
S-COLS
 62
7
100
AcDbHatch
 10
0.0
 20
0.0
 30
0.0
210
0.0
220
0.0
230
1.0
  2
SOLID
 70
1
 71
0
 91
1
 92
3
 72
0
 73
1
 93
5
 10
36.875
 20
31.5
 10
36.875
 20
33.0
 10
36.125
 20
33.0
 10
36.125
 20
31.5
 10
36.875
 20
31.5
 97
0
 75
0
 76
1
 98
0
  0
LWPOLYLINE
  5
108
330
17
100
AcDbEntity
  8
S-COLS
100
AcDbPolyline
 90
5
 70
1
 10
52.125
 20
32.4375
 10
52.125
 20
33.9375
 10
51.375
 20
33.9375
 10
51.375
 20
32.4375
 10
52.125
 20
32.4375
  0
HATCH
  5
109
330
17
100
AcDbEntity
  8
S-COLS
 62
7
100
AcDbHatch
 10
0.0
 20
0.0
 30
0.0
210
0.0
220
0.0
230
1.0
  2
SOLID
 70
1
 71
0
 91
1
 92
3
 72
0
 73
1
 93
5
 10
52.125
 20
32.4375
 10
52.125
 20
33.9375
 10
51.375
 20
33.9375
 10
51.375
 20
32.4375
 10
52.125
 20
32.4375
 97
0
 75
0
 76
1
 98
0
  0
LWPOLYLINE
  5
10A
330
17
100
AcDbEntity
  8
S-COLS
100
AcDbPolyline
 90
5
 70
1
 10
69.375
 20
27.75
 10
69.375
 20
29.25
 10
68.625
 20
29.25
 10
68.625
 20
27.75
 10
69.375
 20
27.75
  0
HATCH
  5
10B
330
17
100
AcDbEntity
  8
S-COLS
 62
7
100
AcDbHatch
 10
0.0
 20
0.0
 30
0.0
210
0.0
220
0.0
230
1.0
  2
SOLID
 70
1
 71
0
 91
1
 92
3
 72
0
 73
1
 93
5
 10
69.375
 20
27.75
 10
69.375
 20
29.25
 10
68.625
 20
29.25
 10
68.625
 20
27.75
 10
69.375
 20
27.75
 97
0
 75
0
 76
1
 98
0
  0
LWPOLYLINE
  5
10C
330
17
100
AcDbEntity
  8
S-COLS
100
AcDbPolyline
 90
5
 70
1
 10
85.125
 20
27.75
 10
85.125
 20
29.25
 10
84.375
 20
29.25
 10
84.375
 20
27.75
 10
85.125
 20
27.75
  0
HATCH
  5
10D
330
17
100
AcDbEntity
  8
S-COLS
 62
7
100
AcDbHatch
 10
0.0
 20
0.0
 30
0.0
210
0.0
220
0.0
230
1.0
  2
SOLID
 70
1
 71
0
 91
1
 92
3
 72
0
 73
1
 93
5
 10
85.125
 20
27.75
 10
85.125
 20
29.25
 10
84.375
 20
29.25
 10
84.375
 20
27.75
 10
85.125
 20
27.75
 97
0
 75
0
 76
1
 98
0
  0
LWPOLYLINE
  5
10E
330
17
100
AcDbEntity
  8
S-COLS
100
AcDbPolyline
 90
5
 70
1
 10
52.125
 20
39.0
 10
52.125
 20
40.5
 10
51.375
 20
40.5
 10
51.375
 20
39.0
 10
52.125
 20
39.0
  0
HATCH
  5
10F
330
17
100
AcDbEntity
  8
S-COLS
 62
7
100
AcDbHatch
 10
0.0
 20
0.0
 30
0.0
210
0.0
220
0.0
230
1.0
  2
SOLID
 70
1
 71
0
 91
1
 92
3
 72
0
 73
1
 93
5
 10
52.125
 20
39.0
 10
52.125
 20
40.5
 10
51.375
 20
40.5
 10
51.375
 20
39.0
 10
52.125
 20
39.0
 97
0
 75
0
 76
1
 98
0
  0
LWPOLYLINE
  5
110
330
17
100
AcDbEntity
  8
S-COLS
100
AcDbPolyline
 90
5
 70
1
 10
60.75
 20
41.987899374840936
 10
59.25
 20
41.203335350623206
 10
59.25
 20
42.049730752917064
 10
60.75
 20
42.834294777134794
 10
60.75
 20
41.987899374840936
  0
HATCH
  5
111
330
17
100
AcDbEntity
  8
S-COLS
 62
7
100
AcDbHatch
 10
0.0
 20
0.0
 30
0.0
210
0.0
220
0.0
230
1.0
  2
SOLID
 70
1
 71
0
 91
1
 92
3
 72
0
 73
1
 93
5
 10
60.75
 20
41.987899374840936
 10
59.25
 20
41.203335350623206
 10
59.25
 20
42.049730752917064
 10
60.75
 20
42.834294777134794
 10
60.75
 20
41.987899374840936
 97
0
 75
0
 76
1
 98
0
  0
LWPOLYLINE
  5
112
330
17
100
AcDbEntity
  8
S-COLS
100
AcDbPolyline
 90
5
 70
1
 10
69.375
 20
43.3125
 10
69.375
 20
44.8125
 10
68.625
 20
44.8125
 10
68.625
 20
43.3125
 10
69.375
 20
43.3125
  0
HATCH
  5
113
330
17
100
AcDbEntity
  8
S-COLS
 62
7
100
AcDbHatch
 10
0.0
 20
0.0
 30
0.0
210
0.0
220
0.0
230
1.0
  2
SOLID
 70
1
 71
0
 91
1
 92
3
 72
0
 73
1
 93
5
 10
69.375
 20
43.3125
 10
69.375
 20
44.8125
 10
68.625
 20
44.8125
 10
68.625
 20
43.3125
 10
69.375
 20
43.3125
 97
0
 75
0
 76
1
 98
0
  0
LWPOLYLINE
  5
114
330
17
100
AcDbEntity
  8
S-COLS
100
AcDbPolyline
 90
5
 70
1
 10
85.125
 20
43.3125
 10
85.125
 20
44.8125
 10
84.375
 20
44.8125
 10
84.375
 20
43.3125
 10
85.125
 20
43.3125
  0
HATCH
  5
115
330
17
100
AcDbEntity
  8
S-COLS
 62
7
100
AcDbHatch
 10
0.0
 20
0.0
 30
0.0
210
0.0
220
0.0
230
1.0
  2
SOLID
 70
1
 71
0
 91
1
 92
3
 72
0
 73
1
 93
5
 10
85.125
 20
43.3125
 10
85.125
 20
44.8125
 10
84.375
 20
44.8125
 10
84.375
 20
43.3125
 10
85.125
 20
43.3125
 97
0
 75
0
 76
1
 98
0
  0
LWPOLYLINE
  5
116
330
17
100
AcDbEntity
  8
S-COLS
100
AcDbPolyline
 90
5
 70
1
 10
69.375
 20
48.75
 10
69.375
 20
50.25
 10
68.625
 20
50.25
 10
68.625
 20
48.75
 10
69.375
 20
48.75
  0
HATCH
  5
117
330
17
100
AcDbEntity
  8
S-COLS
 62
7
100
AcDbHatch
 10
0.0
 20
0.0
 30
0.0
210
0.0
220
0.0
230
1.0
  2
SOLID
 70
1
 71
0
 91
1
 92
3
 72
0
 73
1
 93
5
 10
69.375
 20
48.75
 10
69.375
 20
50.25
 10
68.625
 20
50.25
 10
68.625
 20
48.75
 10
69.375
 20
48.75
 97
0
 75
0
 76
1
 98
0
  0
LWPOLYLINE
  5
118
330
17
100
AcDbEntity
  8
S-COLS
100
AcDbPolyline
 90
5
 70
1
 10
85.125
 20
55.0
 10
85.125
 20
56.5
 10
84.375
 20
56.5
 10
84.375
 20
55.0
 10
85.125
 20
55.0
  0
HATCH
  5
119
330
17
100
AcDbEntity
  8
S-COLS
 62
7
100
AcDbHatch
 10
0.0
 20
0.0
 30
0.0
210
0.0
220
0.0
230
1.0
  2
SOLID
 70
1
 71
0
 91
1
 92
3
 72
0
 73
1
 93
5
 10
85.125
 20
55.0
 10
85.125
 20
56.5
 10
84.375
 20
56.5
 10
84.375
 20
55.0
 10
85.125
 20
55.0
 97
0
 75
0
 76
1
 98
0
  0
LINE
  5
11A
330
17
100
AcDbEntity
  8
A-GLAZ
100
AcDbLine
 10
36.875
 20
4.75
 30
0.0
 11
36.875
 21
12.75
 31
0.0
  0
LINE
  5
11B
330
17
100
AcDbEntity
  8
A-GLAZ
100
AcDbLine
 10
36.625
 20
4.75
 30
0.0
 11
36.625
 21
12.75
 31
0.0
  0
LINE
  5
11C
330
17
100
AcDbEntity
  8
A-GLAZ
100
AcDbLine
 10
36.375
 20
4.75
 30
0.0
 11
36.375
 21
12.75
 31
0.0
  0
LINE
  5
11D
330
17
100
AcDbEntity
  8
A-GLAZ
100
AcDbLine
 10
36.125
 20
4.75
 30
0.0
 11
36.125
 21
12.75
 31
0.0
  0
TEXT
  5
11E
330
17
100
AcDbEntity
  8
A-GLAZ
100
AcDbText
 10
35.0
 20
8.75
 30
0.0
 40
0.45
  1
SL1
  7
OpenSans
 72
1
 11
35.0
 21
8.75
 31
0.0
100
AcDbText
 73
2
  0
LINE
  5
11F
330
17
100
AcDbEntity
  8
A-GLAZ
100
AcDbLine
 10
40.25
 20
3.0
 30
0.0
 11
47.25
 21
3.0
 31
0.0
  0
LINE
  5
120
330
17
100
AcDbEntity
  8
A-GLAZ
100
AcDbLine
 10
40.25
 20
3.25
 30
0.0
 11
47.25
 21
3.25
 31
0.0
  0
LINE
  5
121
330
17
100
AcDbEntity
  8
A-GLAZ
100
AcDbLine
 10
40.25
 20
3.5
 30
0.0
 11
47.25
 21
3.5
 31
0.0
  0
LINE
  5
122
330
17
100
AcDbEntity
  8
A-GLAZ
100
AcDbLine
 10
40.25
 20
3.75
 30
0.0
 11
47.25
 21
3.75
 31
0.0
  0
TEXT
  5
123
330
17
100
AcDbEntity
  8
A-GLAZ
100
AcDbText
 10
43.75
 20
4.875
 30
0.0
 40
0.45
  1
W1
  7
OpenSans
 72
1
 11
43.75
 21
4.875
 31
0.0
100
AcDbText
 73
2
  0
LINE
  5
124
330
17
100
AcDbEntity
  8
A-GLAZ
100
AcDbLine
 10
53.0
 20
3.0
 30
0.0
 11
55.0
 21
3.0
 31
0.0
  0
LINE
  5
125
330
17
100
AcDbEntity
  8
A-GLAZ
100
AcDbLine
 10
53.0
 20
3.25
 30
0.0
 11
55.0
 21
3.25
 31
0.0
  0
LINE
  5
126
330
17
100
AcDbEntity
  8
A-GLAZ
100
AcDbLine
 10
53.0
 20
3.5
 30
0.0
 11
55.0
 21
3.5
 31
0.0
  0
LINE
  5
127
330
17
100
AcDbEntity
  8
A-GLAZ
100
AcDbLine
 10
53.0
 20
3.75
 30
0.0
 11
55.0
 21
3.75
 31
0.0
  0
TEXT
  5
128
330
17
100
AcDbEntity
  8
A-GLAZ
100
AcDbText
 10
54.0
 20
4.875
 30
0.0
 40
0.45
  1
V1
  7
OpenSans
 72
1
 11
54.0
 21
4.875
 31
0.0
100
AcDbText
 73
2
  0
LINE
  5
129
330
17
100
AcDbEntity
  8
A-GLAZ
100
AcDbLine
 10
36.875
 20
26.0
 30
0.0
 11
36.875
 21
31.0
 31
0.0
  0
LINE
  5
12A
330
17
100
AcDbEntity
  8
A-GLAZ
100
AcDbLine
 10
36.625
 20
26.0
 30
0.0
 11
36.625
 21
31.0
 31
0.0
  0
LINE
  5
12B
330
17
100
AcDbEntity
  8
A-GLAZ
100
AcDbLine
 10
36.375
 20
26.0
 30
0.0
 11
36.375
 21
31.0
 31
0.0
  0
LINE
  5
12C
330
17
100
AcDbEntity
  8
A-GLAZ
100
AcDbLine
 10
36.125
 20
26.0
 30
0.0
 11
36.125
 21
31.0
 31
0.0
  0
TEXT
  5
12D
330
17
100
AcDbEntity
  8
A-GLAZ
100
AcDbText
 10
35.0
 20
28.5
 30
0.0
 40
0.45
  1
W2
  7
OpenSans
 72
1
 11
35.0
 21
28.5
 31
0.0
100
AcDbText
 73
2
  0
LINE
  5
12E
330
17
100
AcDbEntity
  8
A-GLAZ
100
AcDbLine
 10
52.125
 20
38.9
 30
0.0
 11
52.125
 21
40.4
 31
0.0
  0
LINE
  5
12F
330
17
100
AcDbEntity
  8
A-GLAZ
100
AcDbLine
 10
51.875
 20
38.9
 30
0.0
 11
51.875
 21
40.4
 31
0.0
  0
LINE
  5
130
330
17
100
AcDbEntity
  8
A-GLAZ
100
AcDbLine
 10
51.625
 20
38.9
 30
0.0
 11
51.625
 21
40.4
 31
0.0
  0
LINE
  5
131
330
17
100
AcDbEntity
  8
A-GLAZ
100
AcDbLine
 10
51.375
 20
38.9
 30
0.0
 11
51.375
 21
40.4
 31
0.0
  0
TEXT
  5
132
330
17
100
AcDbEntity
  8
A-GLAZ
100
AcDbText
 10
50.25
 20
39.65
 30
0.0
 40
0.45
  1
V2
  7
OpenSans
 72
1
 11
50.25
 21
39.65
 31
0.0
100
AcDbText
 73
2
  0
LINE
  5
133
330
17
100
AcDbEntity
  8
A-GLAZ
100
AcDbLine
 10
65.5
 20
19.75
 30
0.0
 11
68.25
 21
19.75
 31
0.0
  0
LINE
  5
134
330
17
100
AcDbEntity
  8
A-GLAZ
100
AcDbLine
 10
65.5
 20
20.0
 30
0.0
 11
68.25
 21
20.0
 31
0.0
  0
LINE
  5
135
330
17
100
AcDbEntity
  8
A-GLAZ
100
AcDbLine
 10
65.5
 20
20.25
 30
0.0
 11
68.25
 21
20.25
 31
0.0
  0
LINE
  5
136
330
17
100
AcDbEntity
  8
A-GLAZ
100
AcDbLine
 10
65.5
 20
20.5
 30
0.0
 11
68.25
 21
20.5
 31
0.0
  0
TEXT
  5
137
330
17
100
AcDbEntity
  8
A-GLAZ
100
AcDbText
 10
66.875
 20
21.625
 30
0.0
 40
0.45
  1
V3
  7
OpenSans
 72
1
 11
66.875
 21
21.625
 31
0.0
100
AcDbText
 73
2
  0
LINE
  5
138
330
17
100
AcDbEntity
  8
A-GLAZ
100
AcDbLine
 10
73.375
 20
3.0
 30
0.0
 11
80.375
 21
3.0
 31
0.0
  0
LINE
  5
139
330
17
100
AcDbEntity
  8
A-GLAZ
100
AcDbLine
 10
73.375
 20
3.25
 30
0.0
 11
80.375
 21
3.25
 31
0.0
  0
LINE
  5
13A
330
17
100
AcDbEntity
  8
A-GLAZ
100
AcDbLine
 10
73.375
 20
3.5
 30
0.0
 11
80.375
 21
3.5
 31
0.0
  0
LINE
  5
13B
330
17
100
AcDbEntity
  8
A-GLAZ
100
AcDbLine
 10
73.375
 20
3.75
 30
0.0
 11
80.375
 21
3.75
 31
0.0
  0
TEXT
  5
13C
330
17
100
AcDbEntity
  8
A-GLAZ
100
AcDbText
 10
76.875
 20
4.875
 30
0.0
 40
0.45
  1
W3
  7
OpenSans
 72
1
 11
76.875
 21
4.875
 31
0.0
100
AcDbText
 73
2
  0
LINE
  5
13D
330
17
100
AcDbEntity
  8
A-GLAZ
100
AcDbLine
 10
85.125
 20
8.5
 30
0.0
 11
85.125
 21
13.5
 31
0.0
  0
LINE
  5
13E
330
17
100
AcDbEntity
  8
A-GLAZ
100
AcDbLine
 10
84.875
 20
8.5
 30
0.0
 11
84.875
 21
13.5
 31
0.0
  0
LINE
  5
13F
330
17
100
AcDbEntity
  8
A-GLAZ
100
AcDbLine
 10
84.625
 20
8.5
 30
0.0
 11
84.625
 21
13.5
 31
0.0
  0
LINE
  5
140
330
17
100
AcDbEntity
  8
A-GLAZ
100
AcDbLine
 10
84.375
 20
8.5
 30
0.0
 11
84.375
 21
13.5
 31
0.0
  0
TEXT
  5
141
330
17
100
AcDbEntity
  8
A-GLAZ
100
AcDbText
 10
83.25
 20
11.0
 30
0.0
 40
0.45
  1
W4
  7
OpenSans
 72
1
 11
83.25
 21
11.0
 31
0.0
100
AcDbText
 73
2
  0
LINE
  5
142
330
17
100
AcDbEntity
  8
A-GLAZ
100
AcDbLine
 10
85.125
 20
23.0
 30
0.0
 11
85.125
 21
25.0
 31
0.0
  0
LINE
  5
143
330
17
100
AcDbEntity
  8
A-GLAZ
100
AcDbLine
 10
84.875
 20
23.0
 30
0.0
 11
84.875
 21
25.0
 31
0.0
  0
LINE
  5
144
330
17
100
AcDbEntity
  8
A-GLAZ
100
AcDbLine
 10
84.625
 20
23.0
 30
0.0
 11
84.625
 21
25.0
 31
0.0
  0
LINE
  5
145
330
17
100
AcDbEntity
  8
A-GLAZ
100
AcDbLine
 10
84.375
 20
23.0
 30
0.0
 11
84.375
 21
25.0
 31
0.0
  0
TEXT
  5
146
330
17
100
AcDbEntity
  8
A-GLAZ
100
AcDbText
 10
83.25
 20
24.0
 30
0.0
 40
0.45
  1
V4
  7
OpenSans
 72
1
 11
83.25
 21
24.0
 31
0.0
100
AcDbText
 73
2
  0
LINE
  5
147
330
17
100
AcDbEntity
  8
A-GLAZ
100
AcDbLine
 10
85.125
 20
32.5
 30
0.0
 11
85.125
 21
38.0
 31
0.0
  0
LINE
  5
148
330
17
100
AcDbEntity
  8
A-GLAZ
100
AcDbLine
 10
84.875
 20
32.5
 30
0.0
 11
84.875
 21
38.0
 31
0.0
  0
LINE
  5
149
330
17
100
AcDbEntity
  8
A-GLAZ
100
AcDbLine
 10
84.625
 20
32.5
 30
0.0
 11
84.625
 21
38.0
 31
0.0
  0
LINE
  5
14A
330
17
100
AcDbEntity
  8
A-GLAZ
100
AcDbLine
 10
84.375
 20
32.5
 30
0.0
 11
84.375
 21
38.0
 31
0.0
  0
TEXT
  5
14B
330
17
100
AcDbEntity
  8
A-GLAZ
100
AcDbText
 10
83.25
 20
35.25
 30
0.0
 40
0.45
  1
W5
  7
OpenSans
 72
1
 11
83.25
 21
35.25
 31
0.0
100
AcDbText
 73
2
  0
LINE
  5
14C
330
17
100
AcDbEntity
  8
A-GLAZ
100
AcDbLine
 10
85.125
 20
47.5
 30
0.0
 11
85.125
 21
50.5
 31
0.0
  0
LINE
  5
14D
330
17
100
AcDbEntity
  8
A-GLAZ
100
AcDbLine
 10
84.875
 20
47.5
 30
0.0
 11
84.875
 21
50.5
 31
0.0
  0
LINE
  5
14E
330
17
100
AcDbEntity
  8
A-GLAZ
100
AcDbLine
 10
84.625
 20
47.5
 30
0.0
 11
84.625
 21
50.5
 31
0.0
  0
LINE
  5
14F
330
17
100
AcDbEntity
  8
A-GLAZ
100
AcDbLine
 10
84.375
 20
47.5
 30
0.0
 11
84.375
 21
50.5
 31
0.0
  0
TEXT
  5
150
330
17
100
AcDbEntity
  8
A-GLAZ
100
AcDbText
 10
83.25
 20
49.0
 30
0.0
 40
0.45
  1
W6
  7
OpenSans
 72
1
 11
83.25
 21
49.0
 31
0.0
100
AcDbText
 73
2
  0
LINE
  5
151
330
17
100
AcDbEntity
  8
A-GLAZ
100
AcDbLine
 10
54.173802638981904
 20
38.54826746443401
 30
0.0
 11
58.173802638981904
 21
40.6404381956813
 31
0.0
  0
LINE
  5
152
330
17
100
AcDbEntity
  8
A-GLAZ
100
AcDbLine
 10
54.05793421299397
 20
38.76979513281672
 30
0.0
 11
58.05793421299397
 21
40.861965864064004
 31
0.0
  0
LINE
  5
153
330
17
100
AcDbEntity
  8
A-GLAZ
100
AcDbLine
 10
53.94206578700603
 20
38.99132280119942
 30
0.0
 11
57.94206578700603
 21
41.08349353244671
 31
0.0
  0
LINE
  5
154
330
17
100
AcDbEntity
  8
A-GLAZ
100
AcDbLine
 10
53.826197361018096
 20
39.21285046958213
 30
0.0
 11
57.826197361018096
 21
41.305021200829415
 31
0.0
  0
TEXT
  5
155
330
17
100
AcDbEntity
  8
A-GLAZ
100
AcDbText
 10
55.30478944407238
 20
41.255810342927944
 30
0.0
 40
0.45
  1
W7
  7
OpenSans
 72
1
 11
55.30478944407238
 21
41.255810342927944
 31
0.0
100
AcDbText
 73
2
  0
LINE
  5
156
330
17
100
AcDbEntity
  8
A-GLAZ
100
AcDbLine
 10
61.173802638981904
 20
42.209566244116765
 30
0.0
 11
64.17380263898191
 21
43.77869429255223
 31
0.0
  0
LINE
  5
157
330
17
100
AcDbEntity
  8
A-GLAZ
100
AcDbLine
 10
61.05793421299397
 20
42.43109391249947
 30
0.0
 11
64.05793421299397
 21
44.00022196093494
 31
0.0
  0
LINE
  5
158
330
17
100
AcDbEntity
  8
A-GLAZ
100
AcDbLine
 10
60.94206578700603
 20
42.652621580882176
 30
0.0
 11
63.94206578700603
 21
44.22174962931764
 31
0.0
  0
LINE
  5
159
330
17
100
AcDbEntity
  8
A-GLAZ
100
AcDbLine
 10
60.826197361018096
 20
42.87414924926488
 30
0.0
 11
63.826197361018096
 21
44.44327729770035
 31
0.0
  0
TEXT
  5
15A
330
17
100
AcDbEntity
  8
A-GLAZ
100
AcDbText
 10
61.80478944407238
 20
44.65558778120479
 30
0.0
 40
0.45
  1
W8
  7
OpenSans
 72
1
 11
61.80478944407238
 21
44.65558778120479
 31
0.0
100
AcDbText
 73
2
  0
LINE
  5
15B
330
17
100
AcDbEntity
  8
A-DOOR
100
AcDbLine
 10
60.75
 20
20.5
 30
0.0
 11
60.75
 21
22.5
 31
0.0
  0
ARC
  5
15C
330
17
100
AcDbEntity
  8
A-DOOR
100
AcDbCircle
 10
60.75
 20
20.5
 30
0.0
 40
2.0
100
AcDbArc
 50
0.0
 51
90.0
  0
TEXT
  5
15D
330
17
100
AcDbEntity
  8
A-DOOR
100
AcDbText
 10
61.75
 20
20.125
 30
0.0
 40
0.4
  1
D1
  7
OpenSans
 72
1
 11
61.75
 21
20.125
 31
0.0
100
AcDbText
 73
2
  0
LINE
  5
15E
330
17
100
AcDbEntity
  8
A-DOOR
100
AcDbLine
 10
64.75
 20
20.5
 30
0.0
 11
64.75
 21
22.5
 31
0.0
  0
ARC
  5
15F
330
17
100
AcDbEntity
  8
A-DOOR
100
AcDbCircle
 10
64.75
 20
20.5
 30
0.0
 40
2.0
100
AcDbArc
 50
90.0
 51
180.0
  0
LINE
  5
160
330
17
100
AcDbEntity
  8
A-DOOR
100
AcDbLine
 10
50.5
 20
19.75
 30
0.0
 11
50.5
 21
17.25
 31
0.0
  0
ARC
  5
161
330
17
100
AcDbEntity
  8
A-DOOR
100
AcDbCircle
 10
50.5
 20
19.75
 30
0.0
 40
2.5
100
AcDbArc
 50
180.0
 51
270.0
  0
TEXT
  5
162
330
17
100
AcDbEntity
  8
A-DOOR
100
AcDbText
 10
49.25
 20
20.125
 30
0.0
 40
0.4
  1
D2
  7
OpenSans
 72
1
 11
49.25
 21
20.125
 31
0.0
100
AcDbText
 73
2
  0
LINE
  5
163
330
17
100
AcDbEntity
  8
A-DOOR
100
AcDbLine
 10
51.375
 20
15.5
 30
0.0
 11
53.625
 21
15.5
 31
0.0
  0
ARC
  5
164
330
17
100
AcDbEntity
  8
A-DOOR
100
AcDbCircle
 10
51.375
 20
15.5
 30
0.0
 40
2.25
100
AcDbArc
 50
-90.0
 51
0.0
  0
TEXT
  5
165
330
17
100
AcDbEntity
  8
A-DOOR
100
AcDbText
 10
51.0
 20
14.375
 30
0.0
 40
0.4
  1
D4
  7
OpenSans
 72
1
 11
51.0
 21
14.375
 31
0.0
100
AcDbText
 73
2
  0
LINE
  5
166
330
17
100
AcDbEntity
  8
A-DOOR
100
AcDbLine
 10
51.5
 20
10.75
 30
0.0
 11
51.5
 21
8.5
 31
0.0
  0
ARC
  5
167
330
17
100
AcDbEntity
  8
A-DOOR
100
AcDbCircle
 10
51.5
 20
10.75
 30
0.0
 40
2.25
100
AcDbArc
 50
-90.0
 51
0.0
  0
TEXT
  5
168
330
17
100
AcDbEntity
  8
A-DOOR
100
AcDbText
 10
52.625
 20
10.9375
 30
0.0
 40
0.4
  1
D3
  7
OpenSans
 72
1
 11
52.625
 21
10.9375
 31
0.0
100
AcDbText
 73
2
  0
LINE
  5
169
330
17
100
AcDbEntity
  8
A-DOOR
100
AcDbLine
 10
36.125
 20
21.0
 30
0.0
 11
33.125
 21
21.0
 31
0.0
  0
ARC
  5
16A
330
17
100
AcDbEntity
  8
A-DOOR
100
AcDbCircle
 10
36.125
 20
21.0
 30
0.0
 40
3.0
100
AcDbArc
 50
90.0
 51
180.0
  0
TEXT
  5
16B
330
17
100
AcDbEntity
  8
A-DOOR
100
AcDbText
 10
36.5
 20
22.5
 30
0.0
 40
0.4
  1
D5
  7
OpenSans
 72
1
 11
36.5
 21
22.5
 31
0.0
100
AcDbText
 73
2
  0
LINE
  5
16C
330
17
100
AcDbEntity
  8
A-DOOR
100
AcDbLine
 10
47.5
 20
24.875
 30
0.0
 11
47.5
 21
27.375
 31
0.0
  0
ARC
  5
16D
330
17
100
AcDbEntity
  8
A-DOOR
100
AcDbCircle
 10
47.5
 20
24.875
 30
0.0
 40
2.5
100
AcDbArc
 50
0.0
 51
90.0
  0
TEXT
  5
16E
330
17
100
AcDbEntity
  8
A-DOOR
100
AcDbText
 10
48.75
 20
24.6875
 30
0.0
 40
0.4
  1
D6
  7
OpenSans
 72
1
 11
48.75
 21
24.6875
 31
0.0
100
AcDbText
 73
2
  0
LINE
  5
16F
330
17
100
AcDbEntity
  8
A-DOOR
100
AcDbLine
 10
46.75
 20
33.375
 30
0.0
 11
46.75
 21
35.875
 31
0.0
  0
ARC
  5
170
330
17
100
AcDbEntity
  8
A-DOOR
100
AcDbCircle
 10
46.75
 20
33.375
 30
0.0
 40
2.5
100
AcDbArc
 50
0.0
 51
90.0
  0
TEXT
  5
171
330
17
100
AcDbEntity
  8
A-DOOR
100
AcDbText
 10
48.0
 20
33.1875
 30
0.0
 40
0.4
  1
D7
  7
OpenSans
 72
1
 11
48.0
 21
33.1875
 31
0.0
100
AcDbText
 73
2
  0
LINE
  5
172
330
17
100
AcDbEntity
  8
A-DOOR
100
AcDbLine
 10
65.125
 20
21.0
 30
0.0
 11
67.625
 21
21.0
 31
0.0
  0
ARC
  5
173
330
17
100
AcDbEntity
  8
A-DOOR
100
AcDbCircle
 10
65.125
 20
21.0
 30
0.0
 40
2.5
100
AcDbArc
 50
0.0
 51
90.0
  0
TEXT
  5
174
330
17
100
AcDbEntity
  8
A-DOOR
100
AcDbText
 10
64.9375
 20
22.25
 30
0.0
 40
0.4
  1
D8
  7
OpenSans
 72
1
 11
64.9375
 21
22.25
 31
0.0
100
AcDbText
 73
2
  0
LINE
  5
175
330
17
100
AcDbEntity
  8
A-DOOR
100
AcDbLine
 10
69.375
 20
19.75
 30
0.0
 11
71.75
 21
19.75
 31
0.0
  0
ARC
  5
176
330
17
100
AcDbEntity
  8
A-DOOR
100
AcDbCircle
 10
69.375
 20
19.75
 30
0.0
 40
2.375
100
AcDbArc
 50
-90.0
 51
0.0
  0
TEXT
  5
177
330
17
100
AcDbEntity
  8
A-DOOR
100
AcDbText
 10
69.0
 20
18.5625
 30
0.0
 40
0.4
  1
D9
  7
OpenSans
 72
1
 11
69.0
 21
18.5625
 31
0.0
100
AcDbText
 73
2
  0
LINE
  5
178
330
17
100
AcDbEntity
  8
A-DOOR
100
AcDbLine
 10
73.25
 20
20.5
 30
0.0
 11
73.25
 21
23.0
 31
0.0
  0
ARC
  5
179
330
17
100
AcDbEntity
  8
A-DOOR
100
AcDbCircle
 10
73.25
 20
20.5
 30
0.0
 40
2.5
100
AcDbArc
 50
0.0
 51
90.0
  0
TEXT
  5
17A
330
17
100
AcDbEntity
  8
A-DOOR
100
AcDbText
 10
74.5
 20
20.125
 30
0.0
 40
0.4
  1
D10
  7
OpenSans
 72
1
 11
74.5
 21
20.125
 31
0.0
100
AcDbText
 73
2
  0
LINE
  5
17B
330
17
100
AcDbEntity
  8
A-DOOR
100
AcDbLine
 10
78.375
 20
23.0
 30
0.0
 11
80.625
 21
23.0
 31
0.0
  0
ARC
  5
17C
330
17
100
AcDbEntity
  8
A-DOOR
100
AcDbCircle
 10
78.375
 20
23.0
 30
0.0
 40
2.25
100
AcDbArc
 50
0.0
 51
90.0
  0
TEXT
  5
17D
330
17
100
AcDbEntity
  8
A-DOOR
100
AcDbText
 10
78.1875
 20
24.125
 30
0.0
 40
0.4
  1
D11
  7
OpenSans
 72
1
 11
78.1875
 21
24.125
 31
0.0
100
AcDbText
 73
2
  0
LINE
  5
17E
330
17
100
AcDbEntity
  8
A-DOOR
100
AcDbLine
 10
69.375
 20
40.5
 30
0.0
 11
72.375
 21
40.5
 31
0.0
  0
ARC
  5
17F
330
17
100
AcDbEntity
  8
A-DOOR
100
AcDbCircle
 10
69.375
 20
40.5
 30
0.0
 40
3.0
100
AcDbArc
 50
-90.0
 51
0.0
  0
TEXT
  5
180
330
17
100
AcDbEntity
  8
A-DOOR
100
AcDbText
 10
69.0
 20
39.0
 30
0.0
 40
0.4
  1
D12
  7
OpenSans
 72
1
 11
69.0
 21
39.0
 31
0.0
100
AcDbText
 73
2
  0
LINE
  5
181
330
17
100
AcDbEntity
  8
A-DOOR
100
AcDbLine
 10
70.0
 20
44.25
 30
0.0
 11
70.0
 21
46.75
 31
0.0
  0
ARC
  5
182
330
17
100
AcDbEntity
  8
A-DOOR
100
AcDbCircle
 10
70.0
 20
44.25
 30
0.0
 40
2.5
100
AcDbArc
 50
0.0
 51
90.0
  0
TEXT
  5
183
330
17
100
AcDbEntity
  8
A-DOOR
100
AcDbText
 10
71.25
 20
44.0625
 30
0.0
 40
0.4
  1
D13
  7
OpenSans
 72
1
 11
71.25
 21
44.0625
 31
0.0
100
AcDbText
 73
2
  0
LINE
  5
184
330
17
100
AcDbEntity
  8
A-DOOR
100
AcDbLine
 10
76.5
 20
49.75
 30
0.0
 11
74.25
 21
49.75
 31
0.0
  0
ARC
  5
185
330
17
100
AcDbEntity
  8
A-DOOR
100
AcDbCircle
 10
76.5
 20
49.75
 30
0.0
 40
2.25
100
AcDbArc
 50
-180.0
 51
-90.0
  0
TEXT
  5
186
330
17
100
AcDbEntity
  8
A-DOOR
100
AcDbText
 10
76.6875
 20
48.625
 30
0.0
 40
0.4
  1
D14
  7
OpenSans
 72
1
 11
76.6875
 21
48.625
 31
0.0
100
AcDbText
 73
2
  0
LWPOLYLINE
  5
187
330
17
100
AcDbEntity
  8
A-STAIR
100
AcDbPolyline
 90
5
 70
1
 10
68.625
 20
33.166666666666664
 10
68.625
 20
34.0
 10
65.125
 20
34.0
 10
65.125
 20
33.166666666666664
 10
68.625
 20
33.166666666666664
  0
LWPOLYLINE
  5
188
330
17
100
AcDbEntity
  8
A-STAIR
100
AcDbPolyline
 90
5
 70
1
 10
68.625
 20
32.33333333333333
 10
68.625
 20
33.166666666666664
 10
65.125
 20
33.166666666666664
 10
65.125
 20
32.33333333333333
 10
68.625
 20
32.33333333333333
  0
LWPOLYLINE
  5
189
330
17
100
AcDbEntity
  8
A-STAIR
100
AcDbPolyline
 90
5
 70
1
 10
68.625
 20
31.500000000000004
 10
68.625
 20
32.333333333333336
 10
65.125
 20
32.333333333333336
 10
65.125
 20
31.500000000000004
 10
68.625
 20
31.500000000000004
  0
LWPOLYLINE
  5
18A
330
17
100
AcDbEntity
  8
A-STAIR
100
AcDbPolyline
 90
5
 70
1
 10
68.625
 20
30.666666666666668
 10
68.625
 20
31.5
 10
65.125
 20
31.5
 10
65.125
 20
30.666666666666668
 10
68.625
 20
30.666666666666668
  0
LWPOLYLINE
  5
18B
330
17
100
AcDbEntity
  8
A-STAIR
100
AcDbPolyline
 90
5
 70
1
 10
68.625
 20
29.833333333333336
 10
68.625
 20
30.666666666666668
 10
65.125
 20
30.666666666666668
 10
65.125
 20
29.833333333333336
 10
68.625
 20
29.833333333333336
  0
LWPOLYLINE
  5
18C
330
17
100
AcDbEntity
  8
A-STAIR
100
AcDbPolyline
 90
5
 70
1
 10
68.625
 20
29.0
 10
68.625
 20
29.833333333333332
 10
65.125
 20
29.833333333333332
 10
65.125
 20
29.0
 10
68.625
 20
29.0
  0
LWPOLYLINE
  5
18D
330
17
100
AcDbEntity
  8
A-STAIR
100
AcDbPolyline
 90
5
 70
1
 10
68.625
 20
28.166666666666668
 10
68.625
 20
29.0
 10
65.125
 20
29.0
 10
65.125
 20
28.166666666666668
 10
68.625
 20
28.166666666666668
  0
LWPOLYLINE
  5
18E
330
17
100
AcDbEntity
  8
A-STAIR
100
AcDbPolyline
 90
5
 70
1
 10
68.625
 20
27.333333333333332
 10
68.625
 20
28.166666666666664
 10
65.125
 20
28.166666666666664
 10
65.125
 20
27.333333333333332
 10
68.625
 20
27.333333333333332
  0
LWPOLYLINE
  5
18F
330
17
100
AcDbEntity
  8
A-STAIR
100
AcDbPolyline
 90
5
 70
1
 10
68.625
 20
26.5
 10
68.625
 20
27.333333333333332
 10
65.125
 20
27.333333333333332
 10
65.125
 20
26.5
 10
68.625
 20
26.5
  0
LWPOLYLINE
  5
190
330
17
100
AcDbEntity
  8
A-STAIR
100
AcDbPolyline
 90
5
 70
1
 10
68.625
 20
25.666666666666668
 10
68.625
 20
26.5
 10
65.125
 20
26.5
 10
65.125
 20
25.666666666666668
 10
68.625
 20
25.666666666666668
  0
LWPOLYLINE
  5
191
330
17
100
AcDbEntity
  8
A-STAIR
100
AcDbPolyline
 90
5
 70
1
 10
68.625
 20
24.833333333333332
 10
68.625
 20
25.666666666666664
 10
65.125
 20
25.666666666666664
 10
65.125
 20
24.833333333333332
 10
68.625
 20
24.833333333333332
  0
LWPOLYLINE
  5
192
330
17
100
AcDbEntity
  8
A-STAIR
100
AcDbPolyline
 90
5
 70
1
 10
68.625
 20
24.0
 10
68.625
 20
24.833333333333332
 10
65.125
 20
24.833333333333332
 10
65.125
 20
24.0
 10
68.625
 20
24.0
  0
LWPOLYLINE
  5
193
330
17
100
AcDbEntity
  8
A-STAIR
100
AcDbPolyline
 90
5
 70
1
 10
68.625
 20
20.5
 10
68.625
 20
24.0
 10
65.125
 20
24.0
 10
65.125
 20
20.5
 10
68.625
 20
20.5
  0
LWPOLYLINE
  5
194
330
17
100
AcDbEntity
  8
A-STAIR
100
AcDbPolyline
 90
5
 70
1
 10
65.125
 20
20.5
 10
65.125
 20
24.0
 10
64.29166666666667
 20
24.0
 10
64.29166666666667
 20
20.5
 10
65.125
 20
20.5
  0
LWPOLYLINE
  5
195
330
17
100
AcDbEntity
  8
A-STAIR
100
AcDbPolyline
 90
5
 70
1
 10
64.29166666666667
 20
20.5
 10
64.29166666666667
 20
24.0
 10
63.458333333333336
 20
24.0
 10
63.458333333333336
 20
20.5
 10
64.29166666666667
 20
20.5
  0
LWPOLYLINE
  5
196
330
17
100
AcDbEntity
  8
A-STAIR
100
AcDbPolyline
 90
5
 70
1
 10
63.458333333333336
 20
20.5
 10
63.458333333333336
 20
24.0
 10
62.625
 20
24.0
 10
62.625
 20
20.5
 10
63.458333333333336
 20
20.5
  0
LWPOLYLINE
  5
197
330
17
100
AcDbEntity
  8
A-STAIR
100
AcDbPolyline
 90
5
 70
1
 10
62.625
 20
20.5
 10
62.625
 20
24.0
 10
61.791666666666664
 20
24.0
 10
61.791666666666664
 20
20.5
 10
62.625
 20
20.5
  0
LWPOLYLINE
  5
198
330
17
100
AcDbEntity
  8
A-STAIR
100
AcDbPolyline
 90
5
 70
1
 10
61.791666666666664
 20
20.5
 10
61.791666666666664
 20
24.0
 10
60.95833333333333
 20
24.0
 10
60.95833333333333
 20
20.5
 10
61.791666666666664
 20
20.5
  0
LINE
  5
199
330
17
100
AcDbEntity
  8
A-STAIR
100
AcDbLine
 10
66.875
 20
33.4
 30
0.0
 11
66.875
 21
25.2
 31
0.0
  0
TEXT
  5
19A
330
17
100
AcDbEntity
  8
A-STAIR
100
AcDbText
 10
66.875
 20
33.9
 30
0.0
 40
0.45
  1
UP
  7
OpenSans
 72
1
 11
66.875
 21
33.9
 31
0.0
100
AcDbText
 73
2
  0
TEXT
  5
19B
330
17
100
AcDbEntity
  8
A-STAIR
100
AcDbText
 10
66.875
 20
22.25
 30
0.0
 40
0.32
  1
LANDING +7'-6 1/2"
  7
OpenSans
 72
1
 11
66.875
 21
22.25
 31
0.0
100
AcDbText
 73
2
  0
LWPOLYLINE
  5
19C
330
17
100
AcDbEntity
  8
A-STAIR
100
AcDbPolyline
 90
5
 70
1
 10
68.625
 20
17.25
 10
68.625
 20
19.75
 10
57.375
 20
19.75
 10
57.375
 20
17.25
 10
68.625
 20
17.25
  0
TEXT
  5
19D
330
17
100
AcDbEntity
  8
A-STAIR
100
AcDbText
 10
62.75
 20
18.5
 30
0.0
 40
0.35
  1
ENTRANCE LANDING 2'-6" @ FFL +0'-6"
  7
OpenSans
 72
1
 11
62.75
 21
18.5
 31
0.0
100
AcDbText
 73
2
  0
LWPOLYLINE
  5
19E
330
17
100
AcDbEntity
  8
A-STAIR
100
AcDbPolyline
 90
5
 70
1
 10
68.625
 20
16.25
 10
68.625
 20
17.25
 10
57.375
 20
17.25
 10
57.375
 20
16.25
 10
68.625
 20
16.25
  0
TEXT
  5
19F
330
17
100
AcDbEntity
  8
A-STAIR
100
AcDbText
 10
62.75
 20
16.75
 30
0.0
 40
0.3
  1
2 RISERS @ 7 1/2" UP
  7
OpenSans
 72
1
 11
62.75
 21
16.75
 31
0.0
100
AcDbText
 73
2
  0
LWPOLYLINE
  5
1A0
330
17
100
AcDbEntity
  8
A-STAIR
100
AcDbPolyline
 90
5
 70
1
 10
34.75
 20
0.375
 10
34.75
 20
1.2083333333333335
 10
31.25
 20
1.2083333333333335
 10
31.25
 20
0.375
 10
34.75
 20
0.375
  0
LWPOLYLINE
  5
1A1
330
17
100
AcDbEntity
  8
A-STAIR
100
AcDbPolyline
 90
5
 70
1
 10
34.75
 20
1.2083333333333335
 10
34.75
 20
2.041666666666667
 10
31.25
 20
2.041666666666667
 10
31.25
 20
1.2083333333333335
 10
34.75
 20
1.2083333333333335
  0
LWPOLYLINE
  5
1A2
330
17
100
AcDbEntity
  8
A-STAIR
100
AcDbPolyline
 90
5
 70
1
 10
34.75
 20
2.041666666666667
 10
34.75
 20
2.875
 10
31.25
 20
2.875
 10
31.25
 20
2.041666666666667
 10
34.75
 20
2.041666666666667
  0
LINE
  5
1A3
330
17
100
AcDbEntity
  8
A-STAIR
100
AcDbLine
 10
58.4
 20
1.0
 30
0.0
 11
58.4
 21
16.0
 31
0.0
  0
TEXT
  5
1A4
330
17
100
AcDbEntity
  8
A-STAIR
100
AcDbText
 10
58.0
 20
8.5
 30
0.0
 40
0.4
  1
RAMP 1:4.6 UP
 50
90.0
  7
OpenSans
 72
1
 11
58.0
 21
8.5
 31
0.0
100
AcDbText
 73
2
  0
LWPOLYLINE
  5
1A5
330
17
100
AcDbEntity
  8
L-LAWN
100
AcDbPolyline
 90
9
 70
1
 10
31.25
 20
0.375
 10
31.25
 20
20.5
 10
31.25
 20
21.0
 10
31.25
 20
24.5
 10
36.125
 20
24.5
 10
36.125
 20
20.5
 10
34.75
 20
20.5
 10
34.75
 20
0.375
 10
31.25
 20
0.375
  0
TEXT
  5
1A6
330
17
100
AcDbEntity
  8
L-LAWN
100
AcDbText
 10
33.0
 20
12.0
 30
0.0
 40
0.35
  1
STONE PATH
 50
90.0
  7
OpenSans
 72
1
 11
33.0
 21
12.0
 31
0.0
100
AcDbText
 73
2
  0
LINE
  5
1A7
330
17
100
AcDbEntity
  8
A-DOOR
  6
DASHED
100
AcDbLine
 10
31.25
 20
0.19
 30
0.0
 11
34.75
 21
0.19
 31
0.0
  0
TEXT
  5
1A8
330
17
100
AcDbEntity
  8
A-DOOR
100
AcDbText
 10
33.0
 20
-1.2
 30
0.0
 40
0.35
  1
PEDESTRIAN GATE 3'-6"
  7
OpenSans
 72
1
 11
33.0
 21
-1.2
 31
0.0
100
AcDbText
 73
2
  0
TEXT
  5
1A9
330
17
100
AcDbEntity
  8
A-DIMS
100
AcDbText
 10
0.0
 20
-1.2
 30
0.0
 40
0.4
  1
ROAD +/-0'-0" (DATUM)
  7
OpenSans
 72
1
 11
0.0
 21
-1.2
 31
0.0
100
AcDbText
 73
2
  0
TEXT
  5
1AA
330
17
100
AcDbEntity
  8
A-DIMS
100
AcDbText
 10
87.9167
 20
-1.2
 30
0.0
 40
0.4
  1
ROAD -6'-0"
  7
OpenSans
 72
1
 11
87.9167
 21
-1.2
 31
0.0
100
AcDbText
 73
2
  0
TEXT
  5
1AB
330
17
100
AcDbEntity
  8
A-DIMS
100
AcDbText
 10
62.5
 20
0.6
 30
0.0
 40
0.4
  1
GATE -4'-3 1/2"
  7
OpenSans
 72
1
 11
62.5
 21
0.6
 31
0.0
100
AcDbText
 73
2
  0
TEXT
  5
1AC
330
17
100
AcDbEntity
  8
L-LAWN
100
AcDbText
 10
18.0
 20
3.5
 30
0.0
 40
0.5
  1
LAWN / PLOT LEVEL +/-0'-0" (= ROAD AT P1)
  7
OpenSans
 72
1
 11
18.0
 21
3.5
 31
0.0
100
AcDbText
 73
2
  0
LWPOLYLINE
  5
1AD
330
17
100
AcDbEntity
  8
A-FURN
100
AcDbPolyline
 90
5
 70
1
 10
46.5
 20
13.25
 10
46.5
 20
19.75
 10
40.5
 20
19.75
 10
40.5
 20
13.25
 10
46.5
 20
13.25
  0
LWPOLYLINE
  5
1AE
330
17
100
AcDbEntity
  8
A-FURN
100
AcDbPolyline
 90
5
 70
1
 10
40.5
 20
18.25
 10
40.5
 20
19.75
 10
39.0
 20
19.75
 10
39.0
 20
18.25
 10
40.5
 20
18.25
  0
LWPOLYLINE
  5
1AF
330
17
100
AcDbEntity
  8
A-FURN
100
AcDbPolyline
 90
5
 70
1
 10
48.0
 20
18.25
 10
48.0
 20
19.75
 10
46.5
 20
19.75
 10
46.5
 20
18.25
 10
48.0
 20
18.25
  0
LWPOLYLINE
  5
1B0
330
17
100
AcDbEntity
  8
A-FURN
100
AcDbPolyline
 90
5
 70
1
 10
39.0
 20
14.0
 10
39.0
 20
17.5
 10
37.0
 20
17.5
 10
37.0
 20
14.0
 10
39.0
 20
14.0
  0
LWPOLYLINE
  5
1B1
330
17
100
AcDbEntity
  8
A-FIXT
100
AcDbPolyline
 90
5
 70
1
 10
56.625
 20
3.75
 10
56.625
 20
6.75
 10
51.375
 20
6.75
 10
51.375
 20
3.75
 10
56.625
 20
3.75
  0
LWPOLYLINE
  5
1B2
330
17
100
AcDbEntity
  8
A-FIXT
100
AcDbPolyline
 90
5
 70
1
 10
56.625
 20
7.25
 10
56.625
 20
8.5
 10
54.375
 20
8.5
 10
54.375
 20
7.25
 10
56.625
 20
7.25
  0
LWPOLYLINE
  5
1B3
330
17
100
AcDbEntity
  8
A-FIXT
100
AcDbPolyline
 90
5
 70
1
 10
56.625
 20
9.0
 10
56.625
 20
10.75
 10
55.125
 20
10.75
 10
55.125
 20
9.0
 10
56.625
 20
9.0
  0
LWPOLYLINE
  5
1B4
330
17
100
AcDbEntity
  8
A-FURN
100
AcDbPolyline
 90
5
 70
1
 10
56.625
 20
11.125
 10
56.625
 20
19.75
 10
54.625
 20
19.75
 10
54.625
 20
11.125
 10
56.625
 20
11.125
  0
LWPOLYLINE
  5
1B5
330
17
100
AcDbEntity
  8
A-FIXT
100
AcDbPolyline
 90
5
 70
1
 10
38.875
 20
24.875
 10
38.875
 20
31.0
 10
36.875
 20
31.0
 10
36.875
 20
24.875
 10
38.875
 20
24.875
  0
LWPOLYLINE
  5
1B6
330
17
100
AcDbEntity
  8
A-FIXT
100
AcDbPolyline
 90
5
 70
1
 10
46.5
 20
31.0
 10
46.5
 20
33.0
 10
36.875
 20
33.0
 10
36.875
 20
31.0
 10
46.5
 20
31.0
  0
LWPOLYLINE
  5
1B7
330
17
100
AcDbEntity
  8
A-FIXT
100
AcDbPolyline
 90
5
 70
1
 10
46.5
 20
24.875
 10
46.5
 20
26.875
 10
38.875
 20
26.875
 10
38.875
 20
24.875
 10
46.5
 20
24.875
  0
LWPOLYLINE
  5
1B8
330
17
100
AcDbEntity
  8
A-FIXT
100
AcDbPolyline
 90
5
 70
1
 10
51.375
 20
31.0
 10
51.375
 20
33.0
 10
49.5
 20
33.0
 10
49.5
 20
31.0
 10
51.375
 20
31.0
  0
LWPOLYLINE
  5
1B9
330
17
100
AcDbEntity
  8
A-FIXT
100
AcDbPolyline
 90
5
 70
1
 10
46.5
 20
33.375
 10
46.5
 20
35.375
 10
40.75
 20
35.375
 10
40.75
 20
33.375
 10
46.5
 20
33.375
  0
LWPOLYLINE
  5
1BA
330
17
100
AcDbEntity
  8
A-FURN
100
AcDbPolyline
 90
5
 70
1
 10
58.5
 20
25.0
 10
58.5
 20
30.5
 10
55.5
 20
30.5
 10
55.5
 20
25.0
 10
58.5
 20
25.0
  0
LWPOLYLINE
  5
1BB
330
17
100
AcDbEntity
  8
A-FURN
100
AcDbPolyline
 90
5
 70
1
 10
55.5
 20
25.5
 10
55.5
 20
30.0
 10
54.25
 20
30.0
 10
54.25
 20
25.5
 10
55.5
 20
25.5
  0
LWPOLYLINE
  5
1BC
330
17
100
AcDbEntity
  8
A-FURN
100
AcDbPolyline
 90
5
 70
1
 10
59.75
 20
25.5
 10
59.75
 20
30.0
 10
58.5
 20
30.0
 10
58.5
 20
25.5
 10
59.75
 20
25.5
  0
LWPOLYLINE
  5
1BD
330
17
100
AcDbEntity
  8
A-FURN
100
AcDbPolyline
 90
5
 70
1
 10
53.5
 20
32.0
 10
53.5
 20
36.5
 10
52.125
 20
36.5
 10
52.125
 20
32.0
 10
53.5
 20
32.0
  0
LWPOLYLINE
  5
1BE
330
17
100
AcDbEntity
  8
A-FURN
100
AcDbPolyline
 90
5
 70
1
 10
62.0
 20
31.5
 10
62.0
 20
38.0
 10
59.0
 20
38.0
 10
59.0
 20
31.5
 10
62.0
 20
31.5
  0
LWPOLYLINE
  5
1BF
330
17
100
AcDbEntity
  8
A-FURN
100
AcDbPolyline
 90
5
 70
1
 10
57.5
 20
33.0
 10
57.5
 20
36.5
 10
55.5
 20
36.5
 10
55.5
 20
33.0
 10
57.5
 20
33.0
  0
LWPOLYLINE
  5
1C0
330
17
100
AcDbEntity
  8
A-FIXT
100
AcDbPolyline
 90
5
 70
1
 10
71.5
 20
25.875
 10
71.5
 20
28.125
 10
70.25
 20
28.125
 10
70.25
 20
25.875
 10
71.5
 20
25.875
  0
LWPOLYLINE
  5
1C1
330
17
100
AcDbEntity
  8
A-FIXT
100
AcDbPolyline
 90
5
 70
1
 10
72.375
 20
21.25
 10
72.375
 20
23.0
 10
70.875
 20
23.0
 10
70.875
 20
21.25
 10
72.375
 20
21.25
  0
LWPOLYLINE
  5
1C2
330
17
100
AcDbEntity
  8
A-FURN
100
AcDbPolyline
 90
5
 70
1
 10
83.5
 20
16.75
 10
83.5
 20
19.75
 10
76.5
 20
19.75
 10
76.5
 20
16.75
 10
83.5
 20
16.75
  0
LWPOLYLINE
  5
1C3
330
17
100
AcDbEntity
  8
A-FURN
100
AcDbPolyline
 90
5
 70
1
 10
84.375
 20
7.5
 10
84.375
 20
12.5
 10
81.375
 20
12.5
 10
81.375
 20
7.5
 10
84.375
 20
7.5
  0
LWPOLYLINE
  5
1C4
330
17
100
AcDbEntity
  8
A-FURN
100
AcDbPolyline
 90
5
 70
1
 10
75.75
 20
9.0
 10
75.75
 20
11.75
 10
73.0
 20
11.75
 10
73.0
 20
9.0
 10
75.75
 20
9.0
  0
LWPOLYLINE
  5
1C5
330
17
100
AcDbEntity
  8
A-FURN
100
AcDbPolyline
 90
5
 70
1
 10
75.75
 20
12.5
 10
75.75
 20
15.25
 10
73.0
 20
15.25
 10
73.0
 20
12.5
 10
75.75
 20
12.5
  0
LWPOLYLINE
  5
1C6
330
17
100
AcDbEntity
  8
A-FURN
100
AcDbPolyline
 90
5
 70
1
 10
80.0
 20
10.0
 10
80.0
 20
14.0
 10
77.0
 20
14.0
 10
77.0
 20
10.0
 10
80.0
 20
10.0
  0
LWPOLYLINE
  5
1C7
330
17
100
AcDbEntity
  8
A-FURN
100
AcDbPolyline
 90
5
 70
1
 10
78.0
 20
26.125
 10
78.0
 20
28.125
 10
72.75
 20
28.125
 10
72.75
 20
26.125
 10
78.0
 20
26.125
  0
LWPOLYLINE
  5
1C8
330
17
100
AcDbEntity
  8
A-FIXT
100
AcDbPolyline
 90
5
 70
1
 10
81.0
 20
20.5
 10
81.0
 20
22.0
 10
79.0
 20
22.0
 10
79.0
 20
20.5
 10
81.0
 20
20.5
  0
LWPOLYLINE
  5
1C9
330
17
100
AcDbEntity
  8
A-FIXT
100
AcDbPolyline
 90
5
 70
1
 10
84.375
 20
21.0
 10
84.375
 20
22.25
 10
82.125
 20
22.25
 10
82.125
 20
21.0
 10
84.375
 20
21.0
  0
LWPOLYLINE
  5
1CA
330
17
100
AcDbEntity
  8
A-FIXT
100
AcDbPolyline
 90
5
 70
1
 10
84.375
 20
25.5
 10
84.375
 20
28.125
 10
78.375
 20
28.125
 10
78.375
 20
25.5
 10
84.375
 20
25.5
  0
LWPOLYLINE
  5
1CB
330
17
100
AcDbEntity
  8
A-FURN
100
AcDbPolyline
 90
5
 70
1
 10
80.375
 20
28.875
 10
80.375
 20
35.375
 10
74.375
 20
35.375
 10
74.375
 20
28.875
 10
80.375
 20
28.875
  0
LWPOLYLINE
  5
1CC
330
17
100
AcDbEntity
  8
A-FURN
100
AcDbPolyline
 90
5
 70
1
 10
74.375
 20
28.875
 10
74.375
 20
30.375
 10
72.875
 20
30.375
 10
72.875
 20
28.875
 10
74.375
 20
28.875
  0
LWPOLYLINE
  5
1CD
330
17
100
AcDbEntity
  8
A-FURN
100
AcDbPolyline
 90
5
 70
1
 10
81.875
 20
28.875
 10
81.875
 20
30.375
 10
80.375
 20
30.375
 10
80.375
 20
28.875
 10
81.875
 20
28.875
  0
LWPOLYLINE
  5
1CE
330
17
100
AcDbEntity
  8
A-FURN
100
AcDbPolyline
 90
5
 70
1
 10
80.0
 20
42.375
 10
80.0
 20
43.875
 10
74.0
 20
43.875
 10
74.0
 20
42.375
 10
80.0
 20
42.375
  0
LWPOLYLINE
  5
1CF
330
17
100
AcDbEntity
  8
A-FURN
100
AcDbPolyline
 90
5
 70
1
 10
71.375
 20
47.0
 10
71.375
 20
50.4
 10
69.375
 20
50.4
 10
69.375
 20
47.0
 10
71.375
 20
47.0
  0
LWPOLYLINE
  5
1D0
330
17
100
AcDbEntity
  8
A-FURN
100
AcDbPolyline
 90
5
 70
1
 10
76.5
 20
44.25
 10
76.5
 20
46.25
 10
72.875
 20
46.25
 10
72.875
 20
44.25
 10
76.5
 20
44.25
  0
LWPOLYLINE
  5
1D1
330
17
100
AcDbEntity
  8
A-FIXT
100
AcDbPolyline
 90
5
 70
1
 10
82.0
 20
44.25
 10
82.0
 20
45.75
 10
79.5
 20
45.75
 10
79.5
 20
44.25
 10
82.0
 20
44.25
  0
LWPOLYLINE
  5
1D2
330
17
100
AcDbEntity
  8
A-FIXT
100
AcDbPolyline
 90
5
 70
1
 10
84.375
 20
45.25
 10
84.375
 20
46.5
 10
82.125
 20
46.5
 10
82.125
 20
45.25
 10
84.375
 20
45.25
  0
LWPOLYLINE
  5
1D3
330
17
100
AcDbEntity
  8
A-FIXT
100
AcDbPolyline
 90
5
 70
1
 10
84.375
 20
50.5
 10
84.375
 20
53.5
 10
79.5
 20
53.5
 10
79.5
 20
50.5
 10
84.375
 20
50.5
  0
LWPOLYLINE
  5
1D4
330
17
100
AcDbEntity
  8
A-FURN
100
AcDbPolyline
 90
5
 70
1
 10
65.625
 20
0.25
 10
65.625
 20
16.0
 10
59.375
 20
16.0
 10
59.375
 20
0.25
 10
65.625
 20
0.25
  0
TEXT
  5
1D5
330
17
100
AcDbEntity
  8
A-ROOM-NAME
100
AcDbText
 10
43.75
 20
9.0
 30
0.0
 40
0.55
  1
BED ROOM-2
  7
OpenSans
 72
1
 11
43.75
 21
9.0
 31
0.0
100
AcDbText
 73
2
  0
TEXT
  5
1D6
330
17
100
AcDbEntity
  8
A-ROOM-NAME
100
AcDbText
 10
43.75
 20
8.1
 30
0.0
 40
0.35
  1
13'-9" x 16'-0"
  7
OpenSans
 72
1
 11
43.75
 21
8.1
 31
0.0
100
AcDbText
 73
2
  0
TEXT
  5
1D7
330
17
100
AcDbEntity
  8
A-ROOM-NAME
100
AcDbText
 10
53.6
 20
8.0
 30
0.0
 40
0.4
  1
BATH (BED-2)
  7
OpenSans
 72
1
 11
53.6
 21
8.0
 31
0.0
100
AcDbText
 73
2
  0
TEXT
  5
1D8
330
17
100
AcDbEntity
  8
A-ROOM-NAME
100
AcDbText
 10
53.6
 20
7.1
 30
0.0
 40
0.35
  1
5'-3" x 7'-0"
  7
OpenSans
 72
1
 11
53.6
 21
7.1
 31
0.0
100
AcDbText
 73
2
  0
TEXT
  5
1D9
330
17
100
AcDbEntity
  8
A-ROOM-NAME
100
AcDbText
 10
53.0
 20
17.2
 30
0.0
 40
0.4
  1
DRESS (BED-2)
  7
OpenSans
 72
1
 11
53.0
 21
17.2
 31
0.0
100
AcDbText
 73
2
  0
TEXT
  5
1DA
330
17
100
AcDbEntity
  8
A-ROOM-NAME
100
AcDbText
 10
53.0
 20
16.3
 30
0.0
 40
0.35
  1
5'-3" x 8'-7 1/2"
  7
OpenSans
 72
1
 11
53.0
 21
16.3
 31
0.0
100
AcDbText
 73
2
  0
TEXT
  5
1DB
330
17
100
AcDbEntity
  8
A-ROOM-NAME
100
AcDbText
 10
43.5
 20
22.5
 30
0.0
 40
0.4
  1
PASSAGE 4'-0" WIDE
  7
OpenSans
 72
1
 11
43.5
 21
22.5
 31
0.0
100
AcDbText
 73
2
  0
TEXT
  5
1DC
330
17
100
AcDbEntity
  8
A-ROOM-NAME
100
AcDbText
 10
43.5
 20
21.6
 30
0.0
 40
0.35
  1
15'-3" x 4'-0"
  7
OpenSans
 72
1
 11
43.5
 21
21.6
 31
0.0
100
AcDbText
 73
2
  0
TEXT
  5
1DD
330
17
100
AcDbEntity
  8
A-ROOM-NAME
100
AcDbText
 10
44.0
 20
26.0
 30
0.0
 40
0.55
  1
KITCHEN
  7
OpenSans
 72
1
 11
44.0
 21
26.0
 31
0.0
100
AcDbText
 73
2
  0
TEXT
  5
1DE
330
17
100
AcDbEntity
  8
A-ROOM-NAME
100
AcDbText
 10
44.0
 20
25.1
 30
0.0
 40
0.35
  1
14'-6" x 8'-1 1/2"
  7
OpenSans
 72
1
 11
44.0
 21
25.1
 31
0.0
100
AcDbText
 73
2
  0
TEXT
  5
1DF
330
17
100
AcDbEntity
  8
A-ROOM-NAME
100
AcDbText
 10
45.5
 20
37.2
 30
0.0
 40
0.4
  1
DIRTY KITCHEN
  7
OpenSans
 72
1
 11
45.5
 21
37.2
 31
0.0
100
AcDbText
 73
2
  0
TEXT
  5
1E0
330
17
100
AcDbEntity
  8
A-ROOM-NAME
100
AcDbText
 10
45.5
 20
36.300000000000004
 30
0.0
 40
0.35
  1
14'-2" x 7'-11 1/2"
  7
OpenSans
 72
1
 11
45.5
 21
36.300000000000004
 31
0.0
100
AcDbText
 73
2
  0
TEXT
  5
1E1
330
17
100
AcDbEntity
  8
A-ROOM-NAME
100
AcDbText
 10
61.6
 20
39.9
 30
0.0
 40
0.55
  1
FAMILY LOUNGE + DINING
  7
OpenSans
 72
1
 11
61.6
 21
39.9
 31
0.0
100
AcDbText
 73
2
  0
TEXT
  5
1E2
330
17
100
AcDbEntity
  8
A-ROOM-NAME
100
AcDbText
 10
61.6
 20
39.0
 30
0.0
 40
0.35
  1
336 SQ.FT
  7
OpenSans
 72
1
 11
61.6
 21
39.0
 31
0.0
100
AcDbText
 73
2
  0
TEXT
  5
1E3
330
17
100
AcDbEntity
  8
A-ROOM-NAME
100
AcDbText
 10
61.0
 20
45.2
 30
0.0
 40
0.4
  1
OTS (OPEN TO SKY)
  7
OpenSans
 72
1
 11
61.0
 21
45.2
 31
0.0
100
AcDbText
 73
2
  0
TEXT
  5
1E4
330
17
100
AcDbEntity
  8
A-ROOM-NAME
100
AcDbText
 10
61.0
 20
44.300000000000004
 30
0.0
 40
0.35
  1
56 SQ.FT
  7
OpenSans
 72
1
 11
61.0
 21
44.300000000000004
 31
0.0
100
AcDbText
 73
2
  0
TEXT
  5
1E5
330
17
100
AcDbEntity
  8
A-ROOM-NAME
100
AcDbText
 10
70.9
 20
24.4
 30
0.0
 40
0.4
  1
POWDER
  7
OpenSans
 72
1
 11
70.9
 21
24.4
 31
0.0
100
AcDbText
 73
2
  0
TEXT
  5
1E6
330
17
100
AcDbEntity
  8
A-ROOM-NAME
100
AcDbText
 10
70.9
 20
23.5
 30
0.0
 40
0.35
  1
38 SQ.FT
  7
OpenSans
 72
1
 11
70.9
 21
23.5
 31
0.0
100
AcDbText
 73
2
  0
TEXT
  5
1E7
330
17
100
AcDbEntity
  8
A-ROOM-NAME
100
AcDbText
 10
75.4
 20
23.8
 30
0.0
 40
0.4
  1
DRESS (DRAWING)
  7
OpenSans
 72
1
 11
75.4
 21
23.8
 31
0.0
100
AcDbText
 73
2
  0
TEXT
  5
1E8
330
17
100
AcDbEntity
  8
A-ROOM-NAME
100
AcDbText
 10
75.4
 20
22.900000000000002
 30
0.0
 40
0.35
  1
5'-3" x 7'-7 1/2"
  7
OpenSans
 72
1
 11
75.4
 21
22.900000000000002
 31
0.0
100
AcDbText
 73
2
  0
TEXT
  5
1E9
330
17
100
AcDbEntity
  8
A-ROOM-NAME
100
AcDbText
 10
81.4
 20
23.9
 30
0.0
 40
0.4
  1
BATH (DRAWING)
  7
OpenSans
 72
1
 11
81.4
 21
23.9
 31
0.0
100
AcDbText
 73
2
  0
TEXT
  5
1EA
330
17
100
AcDbEntity
  8
A-ROOM-NAME
100
AcDbText
 10
81.4
 20
23.0
 30
0.0
 40
0.35
  1
6'-0" x 7'-7 1/2"
  7
OpenSans
 72
1
 11
81.4
 21
23.0
 31
0.0
100
AcDbText
 73
2
  0
TEXT
  5
1EB
330
17
100
AcDbEntity
  8
A-ROOM-NAME
100
AcDbText
 10
77.0
 20
5.6
 30
0.0
 40
0.55
  1
DRAWING ROOM
  7
OpenSans
 72
1
 11
77.0
 21
5.6
 31
0.0
100
AcDbText
 73
2
  0
TEXT
  5
1EC
330
17
100
AcDbEntity
  8
A-ROOM-NAME
100
AcDbText
 10
77.0
 20
4.699999999999999
 30
0.0
 40
0.35
  1
15'-0" x 16'-0"
  7
OpenSans
 72
1
 11
77.0
 21
4.699999999999999
 31
0.0
100
AcDbText
 73
2
  0
TEXT
  5
1ED
330
17
100
AcDbEntity
  8
A-ROOM-NAME
100
AcDbText
 10
77.4
 20
39.0
 30
0.0
 40
0.55
  1
BED-1
  7
OpenSans
 72
1
 11
77.4
 21
39.0
 31
0.0
100
AcDbText
 73
2
  0
TEXT
  5
1EE
330
17
100
AcDbEntity
  8
A-ROOM-NAME
100
AcDbText
 10
77.4
 20
38.1
 30
0.0
 40
0.35
  1
15'-0" x 15'-0"
  7
OpenSans
 72
1
 11
77.4
 21
38.1
 31
0.0
100
AcDbText
 73
2
  0
TEXT
  5
1EF
330
17
100
AcDbEntity
  8
A-ROOM-NAME
100
AcDbText
 10
72.9
 20
48.6
 30
0.0
 40
0.4
  1
DRESSING (BED-1)
  7
OpenSans
 72
1
 11
72.9
 21
48.6
 31
0.0
100
AcDbText
 73
2
  0
TEXT
  5
1F0
330
17
100
AcDbEntity
  8
A-ROOM-NAME
100
AcDbText
 10
72.9
 20
47.7
 30
0.0
 40
0.35
  1
7'-1 1/2" x 9'-2 1/2"
  7
OpenSans
 72
1
 11
72.9
 21
47.7
 31
0.0
100
AcDbText
 73
2
  0
TEXT
  5
1F1
330
17
100
AcDbEntity
  8
A-ROOM-NAME
100
AcDbText
 10
80.8
 20
48.6
 30
0.0
 40
0.4
  1
WASHROOM (BED-1)
  7
OpenSans
 72
1
 11
80.8
 21
48.6
 31
0.0
100
AcDbText
 73
2
  0
TEXT
  5
1F2
330
17
100
AcDbEntity
  8
A-ROOM-NAME
100
AcDbText
 10
80.8
 20
47.7
 30
0.0
 40
0.35
  1
7'-6" x 12'-5"
  7
OpenSans
 72
1
 11
80.8
 21
47.7
 31
0.0
100
AcDbText
 73
2
  0
TEXT
  5
1F3
330
17
100
AcDbEntity
  8
A-ROOM-NAME
100
AcDbText
 10
62.5
 20
6.0
 30
0.0
 40
0.55
  1
CAR PORCH
  7
OpenSans
 72
1
 11
62.5
 21
6.0
 31
0.0
100
AcDbText
 73
2
  0
TEXT
  5
1F4
330
17
100
AcDbEntity
  8
A-ROOM-NAME
100
AcDbText
 10
62.5
 20
5.1
 30
0.0
 40
0.35
  1
11'-3" x 19'-9"
  7
OpenSans
 72
1
 11
62.5
 21
5.1
 31
0.0
100
AcDbText
 73
2
  0
DIMENSION
  5
1F6
330
17
100
AcDbEntity
  8
A-DIMS
100
AcDbDimension
280
0
  2
*D1
  3
EZ_FEET
 10
0.0
 20
-2.6
 30
0.0
 11
18.0625
 21
-2.6
 31
0.0
 70
32
 71
5
  1
36'-1 1/2"
100
AcDbAlignedDimension
 13
0.0
 23
0.0
 33
0.0
 14
36.125
 24
0.0
 34
0.0
 50
0.0
100
AcDbRotatedDimension
  0
DIMENSION
  5
20A
330
17
100
AcDbEntity
  8
A-DIMS
100
AcDbDimension
280
0
  2
*D2
  3
EZ_FEET
 10
36.125
 20
-2.6
 30
0.0
 11
43.375
 21
-2.6
 31
0.0
 70
32
 71
5
  1
14'-6"
100
AcDbAlignedDimension
 13
36.125
 23
0.0
 33
0.0
 14
50.625
 24
0.0
 34
0.0
 50
0.0
100
AcDbRotatedDimension
  0
DIMENSION
  5
21A
330
17
100
AcDbEntity
  8
A-DIMS
100
AcDbDimension
280
0
  2
*D3
  3
EZ_FEET
 10
51.375
 20
-2.6
 30
0.0
 11
54.0
 21
-2.6
 31
0.0
 70
32
 71
5
  1
5'-3"
100
AcDbAlignedDimension
 13
51.375
 23
0.0
 33
0.0
 14
56.625
 24
0.0
 34
0.0
 50
0.0
100
AcDbRotatedDimension
  0
DIMENSION
  5
22A
330
17
100
AcDbEntity
  8
A-DIMS
100
AcDbDimension
280
0
  2
*D4
  3
EZ_FEET
 10
57.375
 20
-2.6
 30
0.0
 11
63.0
 21
-2.6
 31
0.0
 70
32
 71
5
  1
11'-3"
100
AcDbAlignedDimension
 13
57.375
 23
0.0
 33
0.0
 14
68.625
 24
0.0
 34
0.0
 50
0.0
100
AcDbRotatedDimension
  0
DIMENSION
  5
23A
330
17
100
AcDbEntity
  8
A-DIMS
100
AcDbDimension
280
0
  2
*D5
  3
EZ_FEET
 10
69.375
 20
-2.6
 30
0.0
 11
76.875
 21
-2.6
 31
0.0
 70
32
 71
5
  1
15'-0"
100
AcDbAlignedDimension
 13
69.375
 23
0.0
 33
0.0
 14
84.375
 24
0.0
 34
0.0
 50
0.0
100
AcDbRotatedDimension
  0
DIMENSION
  5
24A
330
17
100
AcDbEntity
  8
A-DIMS
100
AcDbDimension
280
0
  2
*D6
  3
EZ_FEET
 10
85.125
 20
-2.6
 30
0.0
 11
86.52085
 21
-1.9250000000000003
 31
0.0
 70
32
 71
5
  1
2'-9 1/2"
100
AcDbAlignedDimension
 13
85.125
 23
0.0
 33
0.0
 14
87.9167
 24
0.0
 34
0.0
 50
0.0
100
AcDbRotatedDimension
  0
DIMENSION
  5
259
330
17
100
AcDbEntity
  8
A-DIMS
100
AcDbDimension
280
0
  2
*D7
  3
EZ_FEET
 10
36.125
 20
-4.2
 30
0.0
 11
60.625
 21
-4.2
 31
0.0
 70
32
 71
5
  1
49'-0"
100
AcDbAlignedDimension
 13
36.125
 23
0.0
 33
0.0
 14
85.125
 24
0.0
 34
0.0
 50
0.0
100
AcDbRotatedDimension
  0
DIMENSION
  5
269
330
17
100
AcDbEntity
  8
A-DIMS
100
AcDbDimension
280
0
  2
*D8
  3
EZ_FEET
 10
0.0
 20
-8.4
 30
0.0
 11
43.95835
 21
-8.4
 31
0.0
 70
32
 71
5
  1
87'-11"
100
AcDbAlignedDimension
 13
0.0
 23
0.0
 33
0.0
 14
87.9167
 24
0.0
 34
0.0
 50
0.0
100
AcDbRotatedDimension
  0
DIMENSION
  5
279
330
17
100
AcDbEntity
  8
A-DIMS
100
AcDbDimension
280
0
  2
*D9
  3
EZ_FEET
 10
90.5
 20
0.0
 30
0.0
 11
89.825
 21
1.5
 31
0.0
 70
32
 71
5
  1
3'-0"
100
AcDbAlignedDimension
 13
87.9
 23
0.0
 33
0.0
 14
87.9
 24
3.0
 34
0.0
 50
90.0
100
AcDbRotatedDimension
  0
DIMENSION
  5
288
330
17
100
AcDbEntity
  8
A-DIMS
100
AcDbDimension
280
0
  2
*D10
  3
EZ_FEET
 10
90.5
 20
3.75
 30
0.0
 11
90.5
 21
11.75
 31
0.0
 70
32
 71
5
  1
16'-0"
100
AcDbAlignedDimension
 13
87.9
 23
3.75
 33
0.0
 14
87.9
 24
19.75
 34
0.0
 50
90.0
100
AcDbRotatedDimension
  0
DIMENSION
  5
298
330
17
100
AcDbEntity
  8
A-DIMS
100
AcDbDimension
280
0
  2
*D11
  3
EZ_FEET
 10
90.5
 20
20.5
 30
0.0
 11
90.5
 21
24.3125
 31
0.0
 70
32
 71
5
  1
7'-7 1/2"
100
AcDbAlignedDimension
 13
87.9
 23
20.5
 33
0.0
 14
87.9
 24
28.125
 34
0.0
 50
90.0
100
AcDbRotatedDimension
  0
DIMENSION
  5
2A8
330
17
100
AcDbEntity
  8
A-DIMS
100
AcDbDimension
280
0
  2
*D12
  3
EZ_FEET
 10
90.5
 20
28.875
 30
0.0
 11
90.5
 21
36.375
 31
0.0
 70
32
 71
5
  1
15'-0"
100
AcDbAlignedDimension
 13
87.9
 23
28.875
 33
0.0
 14
87.9
 24
43.875
 34
0.0
 50
90.0
100
AcDbRotatedDimension
  0
DIMENSION
  5
2B8
330
17
100
AcDbEntity
  8
A-DIMS
100
AcDbDimension
280
0
  2
*D13
  3
EZ_FEET
 10
34.0
 20
3.75
 30
0.0
 11
34.0
 21
11.75
 31
0.0
 70
32
 71
5
  1
16'-0"
100
AcDbAlignedDimension
 13
36.1
 23
3.75
 33
0.0
 14
36.1
 24
19.75
 34
0.0
 50
90.0
100
AcDbRotatedDimension
  0
DIMENSION
  5
2C8
330
17
100
AcDbEntity
  8
A-DIMS
100
AcDbDimension
280
0
  2
*D14
  3
EZ_FEET
 10
34.0
 20
20.5
 30
0.0
 11
34.0
 21
22.5
 31
0.0
 70
32
 71
5
  1
4'-0"
100
AcDbAlignedDimension
 13
36.1
 23
20.5
 33
0.0
 14
36.1
 24
24.5
 34
0.0
 50
90.0
100
AcDbRotatedDimension
  0
DIMENSION
  5
2D8
330
17
100
AcDbEntity
  8
A-DIMS
100
AcDbDimension
280
0
  2
*D15
  3
EZ_FEET
 10
34.0
 20
24.875
 30
0.0
 11
34.0
 21
28.9375
 31
0.0
 70
32
 71
5
  1
8'-1 1/2"
100
AcDbAlignedDimension
 13
36.1
 23
24.875
 33
0.0
 14
36.1
 24
33.0
 34
0.0
 50
90.0
100
AcDbRotatedDimension
  0
TEXT
  5
2E8
330
17
100
AcDbEntity
  8
A-TEXT
100
AcDbText
 10
14.0
 20
57.0
 30
0.0
 40
1.0
  1
DAATA HAMLET RESIDENCE - GROUND FLOOR PLAN (v2)  |  UNITS: FEET  |  ORIGIN = PEG P1
  7
OpenSans
 11
14.0
 21
57.0
 31
0.0
100
AcDbText
  0
LINE
  5
2E9
330
17
100
AcDbEntity
  8
A-ELEV
100
AcDbLine
 10
-3.0
 20
-40.0
 30
0.0
 11
91.0
 21
-40.0
 31
0.0
  0
LWPOLYLINE
  5
2EA
330
17
100
AcDbEntity
  8
A-ELEV
100
AcDbPolyline
 90
4
 70
1
 10
36.125
 20
-40.0
 10
85.125
 20
-40.0
 10
85.125
 20
-38.5
 10
36.125
 20
-38.5
  0
LWPOLYLINE
  5
2EB
330
17
100
AcDbEntity
  8
A-ELEV
100
AcDbPolyline
 90
4
 70
1
 10
36.125
 20
-38.5
 10
52.125
 20
-38.5
 10
52.125
 20
-28.0
 10
36.125
 20
-28.0
  0
LWPOLYLINE
  5
2EC
330
17
100
AcDbEntity
  8
A-ELEV
100
AcDbPolyline
 90
4
 70
1
 10
52.125
 20
-38.5
 10
57.375
 20
-38.5
 10
57.375
 20
-28.0
 10
52.125
 20
-28.0
  0
LWPOLYLINE
  5
2ED
330
17
100
AcDbEntity
  8
A-ELEV
100
AcDbPolyline
 90
4
 70
1
 10
68.625
 20
-38.5
 10
85.125
 20
-38.5
 10
85.125
 20
-28.0
 10
68.625
 20
-28.0
  0
LWPOLYLINE
  5
2EE
330
17
100
AcDbEntity
  8
A-ELEV
100
AcDbPolyline
 90
4
 70
1
 10
56.625
 20
-38.5
 10
57.375
 20
-38.5
 10
57.375
 20
-28.0
 10
56.625
 20
-28.0
  0
LWPOLYLINE
  5
2EF
330
17
100
AcDbEntity
  8
A-ELEV
100
AcDbPolyline
 90
4
 70
1
 10
68.625
 20
-38.5
 10
69.375
 20
-38.5
 10
69.375
 20
-28.0
 10
68.625
 20
-28.0
  0
LWPOLYLINE
  5
2F0
330
17
100
AcDbEntity
  8
A-ELEV
100
AcDbPolyline
 90
4
 70
1
 10
56.625
 20
-28.75
 10
69.375
 20
-28.75
 10
69.375
 20
-28.0
 10
56.625
 20
-28.0
  0
LWPOLYLINE
  5
2F1
330
17
100
AcDbEntity
  8
A-ELEV
100
AcDbPolyline
 90
4
 70
1
 10
35.875
 20
-28.0
 10
85.375
 20
-28.0
 10
85.375
 20
-27.5
 10
35.875
 20
-27.5
  0
LWPOLYLINE
  5
2F2
330
17
100
AcDbEntity
  8
A-GLAZ
100
AcDbPolyline
 90
4
 70
1
 10
40.25
 20
-36.0
 10
47.25
 20
-36.0
 10
47.25
 20
-31.5
 10
40.25
 20
-31.5
  0
LWPOLYLINE
  5
2F3
330
17
100
AcDbEntity
  8
A-ELEV
100
AcDbPolyline
 90
4
 70
1
 10
39.5
 20
-31.25
 10
48.0
 20
-31.25
 10
48.0
 20
-30.9
 10
39.5
 20
-30.9
  0
LWPOLYLINE
  5
2F4
330
17
100
AcDbEntity
  8
A-GLAZ
100
AcDbPolyline
 90
4
 70
1
 10
53.0
 20
-32.5
 10
55.0
 20
-32.5
 10
55.0
 20
-31.5
 10
53.0
 20
-31.5
  0
LWPOLYLINE
  5
2F5
330
17
100
AcDbEntity
  8
A-GLAZ
100
AcDbPolyline
 90
4
 70
1
 10
73.375
 20
-36.0
 10
80.375
 20
-36.0
 10
80.375
 20
-31.5
 10
73.375
 20
-31.5
  0
LWPOLYLINE
  5
2F6
330
17
100
AcDbEntity
  8
A-ELEV
100
AcDbPolyline
 90
4
 70
1
 10
72.625
 20
-31.25
 10
81.125
 20
-31.25
 10
81.125
 20
-30.9
 10
72.625
 20
-30.9
  0
TEXT
  5
2F7
330
17
100
AcDbEntity
  8
A-TEXT
100
AcDbText
 10
36.125
 20
-24.5
 30
0.0
 40
1.0
  1
SOUTH (ROAD-SIDE) ELEVATION - GROUND FLOOR
  7
OpenSans
 11
36.125
 21
-24.5
 31
0.0
100
AcDbText
  0
ENDSEC
  0
SECTION
  2
OBJECTS
  0
DICTIONARY
  5
A
330
0
100
AcDbDictionary
281
1
  3
ACAD_COLOR
350
B
  3
ACAD_GROUP
350
C
  3
ACAD_LAYOUT
350
D
  3
ACAD_MATERIAL
350
E
  3
ACAD_MLEADERSTYLE
350
F
  3
ACAD_MLINESTYLE
350
10
  3
ACAD_PLOTSETTINGS
350
11
  3
ACAD_PLOTSTYLENAME
350
12
  3
ACAD_SCALELIST
350
14
  3
ACAD_TABLESTYLE
350
15
  3
ACAD_VISUALSTYLE
350
16
  3
EZDXF_META
350
2D
  0
DICTIONARY
  5
B
330
A
100
AcDbDictionary
281
1
  0
DICTIONARY
  5
C
330
A
100
AcDbDictionary
281
1
  0
DICTIONARY
  5
D
330
A
100
AcDbDictionary
281
1
  3
Model
350
1A
  3
Layout1
350
1E
  0
DICTIONARY
  5
E
330
A
100
AcDbDictionary
281
1
  3
ByBlock
350
1F
  3
ByLayer
350
20
  3
Global
350
21
  0
DICTIONARY
  5
F
330
A
100
AcDbDictionary
281
1
  3
Standard
350
2C
  0
DICTIONARY
  5
10
330
A
100
AcDbDictionary
281
1
  3
Standard
350
22
  0
DICTIONARY
  5
11
330
A
100
AcDbDictionary
281
1
  0
ACDBDICTIONARYWDFLT
  5
12
330
A
100
AcDbDictionary
281
1
  3
Normal
350
13
100
AcDbDictionaryWithDefault
340
13
  0
ACDBPLACEHOLDER
  5
13
330
12
  0
DICTIONARY
  5
14
330
A
100
AcDbDictionary
281
1
  0
DICTIONARY
  5
15
330
A
100
AcDbDictionary
281
1
  0
DICTIONARY
  5
16
330
A
100
AcDbDictionary
281
1
  3
2dWireframe
350
5A
  3
Basic
350
5B
  3
Brighten
350
5C
  3
ColorChange
350
5D
  3
Conceptual
350
5E
  3
Dim
350
5F
  3
EdgeColorOff
350
60
  3
Facepattern
350
61
  3
Flat
350
62
  3
FlatWithEdges
350
63
  3
Gouraud
350
64
  3
GouraudWithEdges
350
65
  3
Hidden
350
66
  3
JitterOff
350
67
  3
Linepattern
350
68
  3
Modeling
350
69
  3
OverhangOff
350
6A
  3
Realistic
350
6B
  3
Shaded
350
6C
  3
Shaded with edges
350
6D
  3
Shades of Gray
350
6E
  3
Sketchy
350
6F
  3
Thicken
350
70
  3
Wireframe
350
71
  3
X-Ray
350
72
  0
LAYOUT
  5
1A
330
D
100
AcDbPlotSettings
  1

  4
A3
  6

 40
7.5
 41
20.0
 42
7.5
 43
20.0
 44
420.0
 45
297.0
 46
0.0
 47
0.0
 48
0.0
 49
0.0
140
0.0
141
0.0
142
1.0
143
1.0
 70
1024
 72
1
 73
0
 74
5
  7

 75
16
 76
0
 77
2
 78
300
147
1.0
148
0.0
149
0.0
100
AcDbLayout
  1
Model
 70
1
 71
0
 10
0.0
 20
0.0
 11
420.0
 21
297.0
 12
0.0
 22
0.0
 32
0.0
 14
1e+20
 24
1e+20
 34
1e+20
 15
-1e+20
 25
-1e+20
 35
-1e+20
146
0.0
 13
0.0
 23
0.0
 33
0.0
 16
1.0
 26
0.0
 36
0.0
 17
0.0
 27
1.0
 37
0.0
 76
1
330
17
  0
LAYOUT
  5
1E
330
D
100
AcDbPlotSettings
  1

  4
A3
  6

 40
7.5
 41
20.0
 42
7.5
 43
20.0
 44
420.0
 45
297.0
 46
0.0
 47
0.0
 48
0.0
 49
0.0
140
0.0
141
0.0
142
1.0
143
1.0
 70
0
 72
1
 73
0
 74
5
  7

 75
16
 76
0
 77
2
 78
300
147
1.0
148
0.0
149
0.0
100
AcDbLayout
  1
Layout1
 70
1
 71
1
 10
0.0
 20
0.0
 11
420.0
 21
297.0
 12
0.0
 22
0.0
 32
0.0
 14
1e+20
 24
1e+20
 34
1e+20
 15
-1e+20
 25
-1e+20
 35
-1e+20
146
0.0
 13
0.0
 23
0.0
 33
0.0
 16
1.0
 26
0.0
 36
0.0
 17
0.0
 27
1.0
 37
0.0
 76
1
330
1B
  0
MATERIAL
  5
1F
102
{ACAD_REACTORS
330
E
102
}
330
E
100
AcDbMaterial
  1
ByBlock
  2

 70
0
 40
1.0
 71
1
 41
1.0
 91
-1023410177
 42
1.0
 72
1
  3

 73
1
 74
1
 75
1
 44
0.5
 73
0
 45
1.0
 46
1.0
 77
1
  4

 78
1
 79
1
170
1
 48
1.0
171
1
  6

172
1
173
1
174
1
140
1.0
141
1.0
175
1
  7

176
1
177
1
178
1
143
1.0
179
1
  8

270
1
271
1
272
1
145
1.0
146
1.0
273
1
  9

274
1
275
1
276
1
 42
1.0
 72
1
  3

 73
1
 74
1
 75
1
 94
63
  0
MATERIAL
  5
20
102
{ACAD_REACTORS
330
E
102
}
330
E
100
AcDbMaterial
  1
ByLayer
  2

 70
0
 40
1.0
 71
1
 41
1.0
 91
-1023410177
 42
1.0
 72
1
  3

 73
1
 74
1
 75
1
 44
0.5
 73
0
 45
1.0
 46
1.0
 77
1
  4

 78
1
 79
1
170
1
 48
1.0
171
1
  6

172
1
173
1
174
1
140
1.0
141
1.0
175
1
  7

176
1
177
1
178
1
143
1.0
179
1
  8

270
1
271
1
272
1
145
1.0
146
1.0
273
1
  9

274
1
275
1
276
1
 42
1.0
 72
1
  3

 73
1
 74
1
 75
1
 94
63
  0
MATERIAL
  5
21
102
{ACAD_REACTORS
330
E
102
}
330
E
100
AcDbMaterial
  1
Global
  2

 70
0
 40
1.0
 71
1
 41
1.0
 91
-1023410177
 42
1.0
 72
1
  3

 73
1
 74
1
 75
1
 44
0.5
 73
0
 45
1.0
 46
1.0
 77
1
  4

 78
1
 79
1
170
1
 48
1.0
171
1
  6

172
1
173
1
174
1
140
1.0
141
1.0
175
1
  7

176
1
177
1
178
1
143
1.0
179
1
  8

270
1
271
1
272
1
145
1.0
146
1.0
273
1
  9

274
1
275
1
276
1
 42
1.0
 72
1
  3

 73
1
 74
1
 75
1
 94
63
  0
MLINESTYLE
  5
22
102
{ACAD_REACTORS
330
10
102
}
330
10
100
AcDbMlineStyle
  2
Standard
 70
0
  3

 62
256
 51
90.0
 52
90.0
 71
2
 49
0.5
 62
256
  6
BYLAYER
 49
-0.5
 62
256
  6
BYLAYER
  0
MLEADERSTYLE
  5
2C
102
{ACAD_REACTORS
330
F
102
}
330
F
100
AcDbMLeaderStyle
179
2
170
2
171
1
172
0
 90
2
 40
0.0
 41
0.0
173
1
 91
-1056964608
 92
-2
290
1
 42
2.0
291
1
 43
8.0
  3
Standard
 44
4.0
300

342
29
174
1
175
1
176
0
178
1
 93
-1056964608
 45
4.0
292
0
297
0
 46
4.0
 94
-1056964608
 47
1.0
 49
1.0
140
1.0
294
1
141
0.0
177
0
142
1.0
295
0
296
0
143
3.75
271
0
272
9
273
9
  0
DICTIONARY
  5
2D
330
A
100
AcDbDictionary
280
1
281
1
  3
CREATED_BY_EZDXF
350
2E
  3
WRITTEN_BY_EZDXF
350
2FA
  0
DICTIONARYVAR
  5
2E
330
2D
100
DictionaryVariables
280
0
  1
1.4.4 @ 2026-10-05T08:08:29.030563+00:00
  0
VISUALSTYLE
  5
5A
102
{ACAD_REACTORS
330
16
102
}
330
16
100
AcDbVisualStyle
  2
2dWireframe
 70
4
177
3
291
0
 70
58
 90
2
176
1
 90
2
176
1
 90
0
176
1
 90
0
176
1
 40
0.6
176
1
 40
30.0
176
1
 62
7
420
16777215
176
1
 90
1
176
1
 90
4
176
1
 62
7
176
1
 62
257
176
1
 90
1
176
1
 90
1
176
1
 40
1.0
176
1
 90
8
176
1
 62
7
176
1
 40
1.0
176
1
 90
1
176
1
 90
6
176
1
 90
2
176
1
 62
7
176
1
 90
5
176
1
 90
0
176
1
 90
0
176
1
290
0
176
1
 90
1
176
1
 40
0.0
176
1
 90
0
176
1
290
1
176
1
290
1
176
1
290
0
176
1
290
0
176
1
290
0
176
1
290
0
176
1
290
0
176
1
290
0
176
1
290
0
176
1
 90
50
176
1
 40
0.0
176
1
 40
1.0
176
1
 90
0
176
1
 62
18
420
0
176
1
 90
50
176
1
 90
3
176
1
 62
5
420
255
176
1
290
0
176
1
 90
50
176
1
 90
50
176
1
 90
50
176
1
290
0
176
1
 90
50
176
1
 62
256
176
0
 40
1.0
176
0
 90
2
176
1
  1
strokes_ogs.tif
176
1
290
0
176
1
 40
1.0
176
1
 40
1.0
176
1
  0
VISUALSTYLE
  5
5B
102
{ACAD_REACTORS
330
16
102
}
330
16
100
AcDbVisualStyle
  2
Basic
 70
7
177
3
291
1
 70
58
 90
2
176
1
 90
2
176
1
 90
0
176
1
 90
1
176
1
 40
0.6
176
1
 40
30.0
176
1
 62
7
420
16777215
176
1
 90
1
176
1
 90
4
176
1
 62
7
176
1
 62
257
176
1
 90
1
176
1
 90
1
176
1
 40
1.0
176
1
 90
8
176
1
 62
7
176
1
 40
1.0
176
1
 90
1
176
1
 90
6
176
1
 90
2
176
1
 62
7
176
1
 90
5
176
1
 90
0
176
1
 90
0
176
1
290
0
176
1
 90
1
176
1
 40
0.0
176
1
 90
0
176
1
290
0
176
1
290
1
176
1
290
1
176
1
290
0
176
1
290
0
176
1
290
0
176
1
290
0
176
1
290
0
176
1
290
0
176
1
 90
50
176
1
 40
0.0
176
1
 40
1.0
176
1
 90
0
176
1
 62
18
420
0
176
1
 90
50
176
1
 90
3
176
1
 62
5
420
255
176
1
290
0
176
1
 90
50
176
1
 90
50
176
1
 90
50
176
1
290
0
176
1
 90
50
176
1
 62
256
176
0
 40
1.0
176
0
 90
2
176
1
  1
strokes_ogs.tif
176
1
290
0
176
1
 40
1.0
176
1
 40
1.0
176
1
  0
VISUALSTYLE
  5
5C
102
{ACAD_REACTORS
330
16
102
}
330
16
100
AcDbVisualStyle
  2
Brighten
 70
12
177
3
291
1
 70
58
 90
2
176
1
 90
2
176
1
 90
0
176
1
 90
2
176
1
 40
0.6
176
1
 40
30.0
176
1
 62
7
420
16777215
176
1
 90
1
176
1
 90
4
176
1
 62
7
176
1
 62
257
176
1
 90
1
176
1
 90
1
176
1
 40
1.0
176
1
 90
8
176
1
 62
7
176
1
 40
1.0
176
1
 90
1
176
1
 90
6
176
1
 90
2
176
1
 62
7
176
1
 90
5
176
1
 90
0
176
1
 90
0
176
1
290
0
176
1
 90
1
176
1
 40
0.0
176
1
 90
0
176
1
290
0
176
1
290
1
176
1
290
1
176
1
290
0
176
1
290
0
176
1
290
0
176
1
290
0
176
1
290
0
176
1
290
0
176
1
 90
50
176
1
 40
0.0
176
1
 40
1.0
176
1
 90
0
176
1
 62
18
420
0
176
1
 90
50
176
1
 90
3
176
1
 62
5
420
255
176
1
290
0
176
1
 90
50
176
1
 90
50
176
1
 90
50
176
1
290
0
176
1
 90
50
176
1
 62
256
176
0
 40
1.0
176
0
 90
2
176
1
  1
strokes_ogs.tif
176
1
290
0
176
1
 40
1.0
176
1
 40
1.0
176
1
  0
VISUALSTYLE
  5
5D
102
{ACAD_REACTORS
330
16
102
}
330
16
100
AcDbVisualStyle
  2
ColorChange
 70
16
177
3
291
1
 70
58
 90
2
176
1
 90
2
176
1
 90
0
176
1
 90
2
176
1
 40
0.6
176
1
 40
30.0
176
1
 62
7
420
16777215
176
1
 90
1
176
1
 90
4
176
1
 62
7
176
1
 62
257
176
1
 90
1
176
1
 90
1
176
1
 40
1.0
176
1
 90
8
176
1
 62
7
176
1
 40
1.0
176
1
 90
1
176
1
 90
6
176
1
 90
2
176
1
 62
7
176
1
 90
5
176
1
 90
0
176
1
 90
0
176
1
290
0
176
1
 90
1
176
1
 40
0.0
176
1
 90
0
176
1
290
0
176
1
290
1
176
1
290
1
176
1
290
0
176
1
290
0
176
1
290
0
176
1
290
0
176
1
290
0
176
1
290
0
176
1
 90
50
176
1
 40
0.0
176
1
 40
1.0
176
1
 90
0
176
1
 62
18
420
0
176
1
 90
50
176
1
 90
3
176
1
 62
5
420
255
176
1
290
0
176
1
 90
50
176
1
 90
50
176
1
 90
50
176
1
290
0
176
1
 90
50
176
1
 62
256
176
0
 40
1.0
176
0
 90
2
176
1
  1
strokes_ogs.tif
176
1
290
0
176
1
 40
1.0
176
1
 40
1.0
176
1
  0
VISUALSTYLE
  5
5E
102
{ACAD_REACTORS
330
16
102
}
330
16
100
AcDbVisualStyle
  2
Conceptual
 70
9
177
3
291
0
 70
58
 90
2
176
1
 90
2
176
1
 90
0
176
1
 90
3
176
1
 40
0.6
176
1
 40
30.0
176
1
 62
7
420
16777215
176
1
 90
1
176
1
 90
4
176
1
 62
7
176
1
 62
257
176
1
 90
1
176
1
 90
1
176
1
 40
1.0
176
1
 90
8
176
1
 62
7
176
1
 40
1.0
176
1
 90
1
176
1
 90
6
176
1
 90
2
176
1
 62
7
176
1
 90
5
176
1
 90
0
176
1
 90
0
176
1
290
0
176
1
 90
1
176
1
 40
0.0
176
1
 90
0
176
1
290
0
176
1
290
1
176
1
290
1
176
1
290
0
176
1
290
0
176
1
290
0
176
1
290
0
176
1
290
0
176
1
290
0
176
1
 90
50
176
1
 40
0.0
176
1
 40
1.0
176
1
 90
0
176
1
 62
18
420
0
176
1
 90
50
176
1
 90
3
176
1
 62
5
420
255
176
1
290
0
176
1
 90
50
176
1
 90
50
176
1
 90
50
176
1
290
0
176
1
 90
50
176
1
 62
256
176
0
 40
1.0
176
0
 90
2
176
1
  1
strokes_ogs.tif
176
1
290
0
176
1
 40
1.0
176
1
 40
1.0
176
1
  0
VISUALSTYLE
  5
5F
102
{ACAD_REACTORS
330
16
102
}
330
16
100
AcDbVisualStyle
  2
Dim
 70
11
177
3
291
1
 70
58
 90
2
176
1
 90
2
176
1
 90
0
176
1
 90
2
176
1
 40
0.6
176
1
 40
30.0
176
1
 62
7
420
16777215
176
1
 90
1
176
1
 90
4
176
1
 62
7
176
1
 62
257
176
1
 90
1
176
1
 90
1
176
1
 40
1.0
176
1
 90
8
176
1
 62
7
176
1
 40
1.0
176
1
 90
1
176
1
 90
6
176
1
 90
2
176
1
 62
7
176
1
 90
5
176
1
 90
0
176
1
 90
0
176
1
290
0
176
1
 90
1
176
1
 40
0.0
176
1
 90
0
176
1
290
0
176
1
290
1
176
1
290
1
176
1
290
0
176
1
290
0
176
1
290
0
176
1
290
0
176
1
290
0
176
1
290
0
176
1
 90
50
176
1
 40
0.0
176
1
 40
1.0
176
1
 90
0
176
1
 62
18
420
0
176
1
 90
50
176
1
 90
3
176
1
 62
5
420
255
176
1
290
0
176
1
 90
50
176
1
 90
50
176
1
 90
50
176
1
290
0
176
1
 90
50
176
1
 62
256
176
0
 40
1.0
176
0
 90
2
176
1
  1
strokes_ogs.tif
176
1
290
0
176
1
 40
1.0
176
1
 40
1.0
176
1
  0
VISUALSTYLE
  5
60
102
{ACAD_REACTORS
330
16
102
}
330
16
100
AcDbVisualStyle
  2
EdgeColorOff
 70
22
177
3
291
1
 70
58
 90
2
176
1
 90
2
176
1
 90
0
176
1
 90
2
176
1
 40
0.6
176
1
 40
30.0
176
1
 62
7
420
16777215
176
1
 90
1
176
1
 90
4
176
1
 62
7
176
1
 62
257
176
1
 90
1
176
1
 90
1
176
1
 40
1.0
176
1
 90
8
176
1
 62
7
176
1
 40
1.0
176
1
 90
1
176
1
 90
6
176
1
 90
2
176
1
 62
7
176
1
 90
5
176
1
 90
0
176
1
 90
0
176
1
290
0
176
1
 90
1
176
1
 40
0.0
176
1
 90
0
176
1
290
0
176
1
290
1
176
1
290
1
176
1
290
0
176
1
290
0
176
1
290
0
176
1
290
0
176
1
290
0
176
1
290
0
176
1
 90
50
176
1
 40
0.0
176
1
 40
1.0
176
1
 90
0
176
1
 62
18
420
0
176
1
 90
50
176
1
 90
3
176
1
 62
5
420
255
176
1
290
0
176
1
 90
50
176
1
 90
50
176
1
 90
50
176
1
290
0
176
1
 90
50
176
1
 62
256
176
0
 40
1.0
176
0
 90
2
176
1
  1
strokes_ogs.tif
176
1
290
0
176
1
 40
1.0
176
1
 40
1.0
176
1
  0
VISUALSTYLE
  5
61
102
{ACAD_REACTORS
330
16
102
}
330
16
100
AcDbVisualStyle
  2
Facepattern
 70
15
177
3
291
1
 70
58
 90
2
176
1
 90
2
176
1
 90
0
176
1
 90
2
176
1
 40
0.6
176
1
 40
30.0
176
1
 62
7
420
16777215
176
1
 90
1
176
1
 90
4
176
1
 62
7
176
1
 62
257
176
1
 90
1
176
1
 90
1
176
1
 40
1.0
176
1
 90
8
176
1
 62
7
176
1
 40
1.0
176
1
 90
1
176
1
 90
6
176
1
 90
2
176
1
 62
7
176
1
 90
5
176
1
 90
0
176
1
 90
0
176
1
290
0
176
1
 90
1
176
1
 40
0.0
176
1
 90
0
176
1
290
0
176
1
290
1
176
1
290
1
176
1
290
0
176
1
290
0
176
1
290
0
176
1
290
0
176
1
290
0
176
1
290
0
176
1
 90
50
176
1
 40
0.0
176
1
 40
1.0
176
1
 90
0
176
1
 62
18
420
0
176
1
 90
50
176
1
 90
3
176
1
 62
5
420
255
176
1
290
0
176
1
 90
50
176
1
 90
50
176
1
 90
50
176
1
290
0
176
1
 90
50
176
1
 62
256
176
0
 40
1.0
176
0
 90
2
176
1
  1
strokes_ogs.tif
176
1
290
0
176
1
 40
1.0
176
1
 40
1.0
176
1
  0
VISUALSTYLE
  5
62
102
{ACAD_REACTORS
330
16
102
}
330
16
100
AcDbVisualStyle
  2
Flat
 70
0
177
3
291
1
 70
58
 90
2
176
1
 90
2
176
1
 90
0
176
1
 90
2
176
1
 40
0.6
176
1
 40
30.0
176
1
 62
7
420
16777215
176
1
 90
1
176
1
 90
4
176
1
 62
7
176
1
 62
257
176
1
 90
1
176
1
 90
1
176
1
 40
1.0
176
1
 90
8
176
1
 62
7
176
1
 40
1.0
176
1
 90
1
176
1
 90
6
176
1
 90
2
176
1
 62
7
176
1
 90
5
176
1
 90
0
176
1
 90
0
176
1
290
0
176
1
 90
1
176
1
 40
0.0
176
1
 90
0
176
1
290
0
176
1
290
1
176
1
290
1
176
1
290
0
176
1
290
0
176
1
290
0
176
1
290
0
176
1
290
0
176
1
290
0
176
1
 90
50
176
1
 40
0.0
176
1
 40
1.0
176
1
 90
0
176
1
 62
18
420
0
176
1
 90
50
176
1
 90
3
176
1
 62
5
420
255
176
1
290
0
176
1
 90
50
176
1
 90
50
176
1
 90
50
176
1
290
0
176
1
 90
50
176
1
 62
256
176
0
 40
1.0
176
0
 90
2
176
1
  1
strokes_ogs.tif
176
1
290
0
176
1
 40
1.0
176
1
 40
1.0
176
1
  0
VISUALSTYLE
  5
63
102
{ACAD_REACTORS
330
16
102
}
330
16
100
AcDbVisualStyle
  2
FlatWithEdges
 70
1
177
3
291
1
 70
58
 90
2
176
1
 90
2
176
1
 90
0
176
1
 90
2
176
1
 40
0.6
176
1
 40
30.0
176
1
 62
7
420
16777215
176
1
 90
1
176
1
 90
4
176
1
 62
7
176
1
 62
257
176
1
 90
1
176
1
 90
1
176
1
 40
1.0
176
1
 90
8
176
1
 62
7
176
1
 40
1.0
176
1
 90
1
176
1
 90
6
176
1
 90
2
176
1
 62
7
176
1
 90
5
176
1
 90
0
176
1
 90
0
176
1
290
0
176
1
 90
1
176
1
 40
0.0
176
1
 90
0
176
1
290
0
176
1
290
1
176
1
290
1
176
1
290
0
176
1
290
0
176
1
290
0
176
1
290
0
176
1
290
0
176
1
290
0
176
1
 90
50
176
1
 40
0.0
176
1
 40
1.0
176
1
 90
0
176
1
 62
18
420
0
176
1
 90
50
176
1
 90
3
176
1
 62
5
420
255
176
1
290
0
176
1
 90
50
176
1
 90
50
176
1
 90
50
176
1
290
0
176
1
 90
50
176
1
 62
256
176
0
 40
1.0
176
0
 90
2
176
1
  1
strokes_ogs.tif
176
1
290
0
176
1
 40
1.0
176
1
 40
1.0
176
1
  0
VISUALSTYLE
  5
64
102
{ACAD_REACTORS
330
16
102
}
330
16
100
AcDbVisualStyle
  2
Gouraud
 70
2
177
3
291
1
 70
58
 90
2
176
1
 90
2
176
1
 90
0
176
1
 90
2
176
1
 40
0.6
176
1
 40
30.0
176
1
 62
7
420
16777215
176
1
 90
1
176
1
 90
4
176
1
 62
7
176
1
 62
257
176
1
 90
1
176
1
 90
1
176
1
 40
1.0
176
1
 90
8
176
1
 62
7
176
1
 40
1.0
176
1
 90
1
176
1
 90
6
176
1
 90
2
176
1
 62
7
176
1
 90
5
176
1
 90
0
176
1
 90
0
176
1
290
0
176
1
 90
1
176
1
 40
0.0
176
1
 90
0
176
1
290
0
176
1
290
1
176
1
290
1
176
1
290
0
176
1
290
0
176
1
290
0
176
1
290
0
176
1
290
0
176
1
290
0
176
1
 90
50
176
1
 40
0.0
176
1
 40
1.0
176
1
 90
0
176
1
 62
18
420
0
176
1
 90
50
176
1
 90
3
176
1
 62
5
420
255
176
1
290
0
176
1
 90
50
176
1
 90
50
176
1
 90
50
176
1
290
0
176
1
 90
50
176
1
 62
256
176
0
 40
1.0
176
0
 90
2
176
1
  1
strokes_ogs.tif
176
1
290
0
176
1
 40
1.0
176
1
 40
1.0
176
1
  0
VISUALSTYLE
  5
65
102
{ACAD_REACTORS
330
16
102
}
330
16
100
AcDbVisualStyle
  2
GouraudWithEdges
 70
3
177
3
291
1
 70
58
 90
2
176
1
 90
2
176
1
 90
0
176
1
 90
2
176
1
 40
0.6
176
1
 40
30.0
176
1
 62
7
420
16777215
176
1
 90
1
176
1
 90
4
176
1
 62
7
176
1
 62
257
176
1
 90
1
176
1
 90
1
176
1
 40
1.0
176
1
 90
8
176
1
 62
7
176
1
 40
1.0
176
1
 90
1
176
1
 90
6
176
1
 90
2
176
1
 62
7
176
1
 90
5
176
1
 90
0
176
1
 90
0
176
1
290
0
176
1
 90
1
176
1
 40
0.0
176
1
 90
0
176
1
290
0
176
1
290
1
176
1
290
1
176
1
290
0
176
1
290
0
176
1
290
0
176
1
290
0
176
1
290
0
176
1
290
0
176
1
 90
50
176
1
 40
0.0
176
1
 40
1.0
176
1
 90
0
176
1
 62
18
420
0
176
1
 90
50
176
1
 90
3
176
1
 62
5
420
255
176
1
290
0
176
1
 90
50
176
1
 90
50
176
1
 90
50
176
1
290
0
176
1
 90
50
176
1
 62
256
176
0
 40
1.0
176
0
 90
2
176
1
  1
strokes_ogs.tif
176
1
290
0
176
1
 40
1.0
176
1
 40
1.0
176
1
  0
VISUALSTYLE
  5
66
102
{ACAD_REACTORS
330
16
102
}
330
16
100
AcDbVisualStyle
  2
Hidden
 70
6
177
3
291
0
 70
58
 90
2
176
1
 90
2
176
1
 90
0
176
1
 90
1
176
1
 40
0.6
176
1
 40
30.0
176
1
 62
7
420
16777215
176
1
 90
1
176
1
 90
4
176
1
 62
7
176
1
 62
257
176
1
 90
1
176
1
 90
1
176
1
 40
1.0
176
1
 90
8
176
1
 62
7
176
1
 40
1.0
176
1
 90
1
176
1
 90
6
176
1
 90
2
176
1
 62
7
176
1
 90
5
176
1
 90
0
176
1
 90
0
176
1
290
0
176
1
 90
1
176
1
 40
0.0
176
1
 90
0
176
1
290
0
176
1
290
1
176
1
290
1
176
1
290
0
176
1
290
0
176
1
290
0
176
1
290
0
176
1
290
0
176
1
290
0
176
1
 90
50
176
1
 40
0.0
176
1
 40
1.0
176
1
 90
0
176
1
 62
18
420
0
176
1
 90
50
176
1
 90
3
176
1
 62
5
420
255
176
1
290
0
176
1
 90
50
176
1
 90
50
176
1
 90
50
176
1
290
0
176
1
 90
50
176
1
 62
256
176
0
 40
1.0
176
0
 90
2
176
1
  1
strokes_ogs.tif
176
1
290
0
176
1
 40
1.0
176
1
 40
1.0
176
1
  0
VISUALSTYLE
  5
67
102
{ACAD_REACTORS
330
16
102
}
330
16
100
AcDbVisualStyle
  2
JitterOff
 70
20
177
3
291
1
 70
58
 90
2
176
1
 90
2
176
1
 90
0
176
1
 90
2
176
1
 40
0.6
176
1
 40
30.0
176
1
 62
7
420
16777215
176
1
 90
1
176
1
 90
4
176
1
 62
7
176
1
 62
257
176
1
 90
1
176
1
 90
1
176
1
 40
1.0
176
1
 90
8
176
1
 62
7
176
1
 40
1.0
176
1
 90
1
176
1
 90
6
176
1
 90
2
176
1
 62
7
176
1
 90
5
176
1
 90
0
176
1
 90
0
176
1
290
0
176
1
 90
1
176
1
 40
0.0
176
1
 90
0
176
1
290
0
176
1
290
1
176
1
290
1
176
1
290
0
176
1
290
0
176
1
290
0
176
1
290
0
176
1
290
0
176
1
290
0
176
1
 90
50
176
1
 40
0.0
176
1
 40
1.0
176
1
 90
0
176
1
 62
18
420
0
176
1
 90
50
176
1
 90
3
176
1
 62
5
420
255
176
1
290
0
176
1
 90
50
176
1
 90
50
176
1
 90
50
176
1
290
0
176
1
 90
50
176
1
 62
256
176
0
 40
1.0
176
0
 90
2
176
1
  1
strokes_ogs.tif
176
1
290
0
176
1
 40
1.0
176
1
 40
1.0
176
1
  0
VISUALSTYLE
  5
68
102
{ACAD_REACTORS
330
16
102
}
330
16
100
AcDbVisualStyle
  2
Linepattern
 70
14
177
3
291
1
 70
58
 90
2
176
1
 90
2
176
1
 90
0
176
1
 90
2
176
1
 40
0.6
176
1
 40
30.0
176
1
 62
7
420
16777215
176
1
 90
1
176
1
 90
4
176
1
 62
7
176
1
 62
257
176
1
 90
1
176
1
 90
1
176
1
 40
1.0
176
1
 90
8
176
1
 62
7
176
1
 40
1.0
176
1
 90
1
176
1
 90
6
176
1
 90
2
176
1
 62
7
176
1
 90
5
176
1
 90
0
176
1
 90
0
176
1
290
0
176
1
 90
1
176
1
 40
0.0
176
1
 90
0
176
1
290
0
176
1
290
1
176
1
290
1
176
1
290
0
176
1
290
0
176
1
290
0
176
1
290
0
176
1
290
0
176
1
290
0
176
1
 90
50
176
1
 40
0.0
176
1
 40
1.0
176
1
 90
0
176
1
 62
18
420
0
176
1
 90
50
176
1
 90
3
176
1
 62
5
420
255
176
1
290
0
176
1
 90
50
176
1
 90
50
176
1
 90
50
176
1
290
0
176
1
 90
50
176
1
 62
256
176
0
 40
1.0
176
0
 90
2
176
1
  1
strokes_ogs.tif
176
1
290
0
176
1
 40
1.0
176
1
 40
1.0
176
1
  0
VISUALSTYLE
  5
69
102
{ACAD_REACTORS
330
16
102
}
330
16
100
AcDbVisualStyle
  2
Modeling
 70
10
177
3
291
0
 70
58
 90
2
176
1
 90
2
176
1
 90
0
176
1
 90
2
176
1
 40
0.6
176
1
 40
30.0
176
1
 62
7
420
16777215
176
1
 90
1
176
1
 90
4
176
1
 62
7
176
1
 62
257
176
1
 90
1
176
1
 90
1
176
1
 40
1.0
176
1
 90
8
176
1
 62
7
176
1
 40
1.0
176
1
 90
1
176
1
 90
6
176
1
 90
2
176
1
 62
7
176
1
 90
5
176
1
 90
0
176
1
 90
0
176
1
290
0
176
1
 90
1
176
1
 40
0.0
176
1
 90
0
176
1
290
0
176
1
290
1
176
1
290
1
176
1
290
0
176
1
290
0
176
1
290
0
176
1
290
0
176
1
290
0
176
1
290
0
176
1
 90
50
176
1
 40
0.0
176
1
 40
1.0
176
1
 90
0
176
1
 62
18
420
0
176
1
 90
50
176
1
 90
3
176
1
 62
5
420
255
176
1
290
0
176
1
 90
50
176
1
 90
50
176
1
 90
50
176
1
290
0
176
1
 90
50
176
1
 62
256
176
0
 40
1.0
176
0
 90
2
176
1
  1
strokes_ogs.tif
176
1
290
0
176
1
 40
1.0
176
1
 40
1.0
176
1
  0
VISUALSTYLE
  5
6A
102
{ACAD_REACTORS
330
16
102
}
330
16
100
AcDbVisualStyle
  2
OverhangOff
 70
21
177
3
291
1
 70
58
 90
2
176
1
 90
2
176
1
 90
0
176
1
 90
2
176
1
 40
0.6
176
1
 40
30.0
176
1
 62
7
420
16777215
176
1
 90
1
176
1
 90
4
176
1
 62
7
176
1
 62
257
176
1
 90
1
176
1
 90
1
176
1
 40
1.0
176
1
 90
8
176
1
 62
7
176
1
 40
1.0
176
1
 90
1
176
1
 90
6
176
1
 90
2
176
1
 62
7
176
1
 90
5
176
1
 90
0
176
1
 90
0
176
1
290
0
176
1
 90
1
176
1
 40
0.0
176
1
 90
0
176
1
290
0
176
1
290
1
176
1
290
1
176
1
290
0
176
1
290
0
176
1
290
0
176
1
290
0
176
1
290
0
176
1
290
0
176
1
 90
50
176
1
 40
0.0
176
1
 40
1.0
176
1
 90
0
176
1
 62
18
420
0
176
1
 90
50
176
1
 90
3
176
1
 62
5
420
255
176
1
290
0
176
1
 90
50
176
1
 90
50
176
1
 90
50
176
1
290
0
176
1
 90
50
176
1
 62
256
176
0
 40
1.0
176
0
 90
2
176
1
  1
strokes_ogs.tif
176
1
290
0
176
1
 40
1.0
176
1
 40
1.0
176
1
  0
VISUALSTYLE
  5
6B
102
{ACAD_REACTORS
330
16
102
}
330
16
100
AcDbVisualStyle
  2
Realistic
 70
8
177
3
291
0
 70
58
 90
2
176
1
 90
2
176
1
 90
0
176
1
 90
2
176
1
 40
0.6
176
1
 40
30.0
176
1
 62
7
420
16777215
176
1
 90
1
176
1
 90
4
176
1
 62
7
176
1
 62
257
176
1
 90
1
176
1
 90
1
176
1
 40
1.0
176
1
 90
8
176
1
 62
7
176
1
 40
1.0
176
1
 90
1
176
1
 90
6
176
1
 90
2
176
1
 62
7
176
1
 90
5
176
1
 90
0
176
1
 90
0
176
1
290
0
176
1
 90
1
176
1
 40
0.0
176
1
 90
0
176
1
290
0
176
1
290
1
176
1
290
1
176
1
290
0
176
1
290
0
176
1
290
0
176
1
290
0
176
1
290
0
176
1
290
0
176
1
 90
50
176
1
 40
0.0
176
1
 40
1.0
176
1
 90
0
176
1
 62
18
420
0
176
1
 90
50
176
1
 90
3
176
1
 62
5
420
255
176
1
290
0
176
1
 90
50
176
1
 90
50
176
1
 90
50
176
1
290
0
176
1
 90
50
176
1
 62
256
176
0
 40
1.0
176
0
 90
2
176
1
  1
strokes_ogs.tif
176
1
290
0
176
1
 40
1.0
176
1
 40
1.0
176
1
  0
VISUALSTYLE
  5
6C
102
{ACAD_REACTORS
330
16
102
}
330
16
100
AcDbVisualStyle
  2
Shaded
 70
27
177
3
291
0
 70
58
 90
2
176
1
 90
2
176
1
 90
0
176
1
 90
2
176
1
 40
0.6
176
1
 40
30.0
176
1
 62
7
420
16777215
176
1
 90
1
176
1
 90
4
176
1
 62
7
176
1
 62
257
176
1
 90
1
176
1
 90
1
176
1
 40
1.0
176
1
 90
8
176
1
 62
7
176
1
 40
1.0
176
1
 90
1
176
1
 90
6
176
1
 90
2
176
1
 62
7
176
1
 90
5
176
1
 90
0
176
1
 90
0
176
1
290
0
176
1
 90
1
176
1
 40
0.0
176
1
 90
0
176
1
290
0
176
1
290
1
176
1
290
1
176
1
290
0
176
1
290
0
176
1
290
0
176
1
290
0
176
1
290
0
176
1
290
0
176
1
 90
50
176
1
 40
0.0
176
1
 40
1.0
176
1
 90
0
176
1
 62
18
420
0
176
1
 90
50
176
1
 90
3
176
1
 62
5
420
255
176
1
290
0
176
1
 90
50
176
1
 90
50
176
1
 90
50
176
1
290
0
176
1
 90
50
176
1
 62
256
176
0
 40
1.0
176
0
 90
2
176
1
  1
strokes_ogs.tif
176
1
290
0
176
1
 40
1.0
176
1
 40
1.0
176
1
  0
VISUALSTYLE
  5
6D
102
{ACAD_REACTORS
330
16
102
}
330
16
100
AcDbVisualStyle
  2
Shaded with edges
 70
26
177
3
291
0
 70
58
 90
2
176
1
 90
2
176
1
 90
0
176
1
 90
2
176
1
 40
0.6
176
1
 40
30.0
176
1
 62
7
420
16777215
176
1
 90
1
176
1
 90
4
176
1
 62
7
176
1
 62
257
176
1
 90
1
176
1
 90
1
176
1
 40
1.0
176
1
 90
8
176
1
 62
7
176
1
 40
1.0
176
1
 90
1
176
1
 90
6
176
1
 90
2
176
1
 62
7
176
1
 90
5
176
1
 90
0
176
1
 90
0
176
1
290
0
176
1
 90
1
176
1
 40
0.0
176
1
 90
0
176
1
290
0
176
1
290
1
176
1
290
1
176
1
290
0
176
1
290
0
176
1
290
0
176
1
290
0
176
1
290
0
176
1
290
0
176
1
 90
50
176
1
 40
0.0
176
1
 40
1.0
176
1
 90
0
176
1
 62
18
420
0
176
1
 90
50
176
1
 90
3
176
1
 62
5
420
255
176
1
290
0
176
1
 90
50
176
1
 90
50
176
1
 90
50
176
1
290
0
176
1
 90
50
176
1
 62
256
176
0
 40
1.0
176
0
 90
2
176
1
  1
strokes_ogs.tif
176
1
290
0
176
1
 40
1.0
176
1
 40
1.0
176
1
  0
VISUALSTYLE
  5
6E
102
{ACAD_REACTORS
330
16
102
}
330
16
100
AcDbVisualStyle
  2
Shades of Gray
 70
23
177
3
291
0
 70
58
 90
2
176
1
 90
2
176
1
 90
0
176
1
 90
2
176
1
 40
0.6
176
1
 40
30.0
176
1
 62
7
420
16777215
176
1
 90
1
176
1
 90
4
176
1
 62
7
176
1
 62
257
176
1
 90
1
176
1
 90
1
176
1
 40
1.0
176
1
 90
8
176
1
 62
7
176
1
 40
1.0
176
1
 90
1
176
1
 90
6
176
1
 90
2
176
1
 62
7
176
1
 90
5
176
1
 90
0
176
1
 90
0
176
1
290
0
176
1
 90
1
176
1
 40
0.0
176
1
 90
0
176
1
290
0
176
1
290
1
176
1
290
1
176
1
290
0
176
1
290
0
176
1
290
0
176
1
290
0
176
1
290
0
176
1
290
0
176
1
 90
50
176
1
 40
0.0
176
1
 40
1.0
176
1
 90
0
176
1
 62
18
420
0
176
1
 90
50
176
1
 90
3
176
1
 62
5
420
255
176
1
290
0
176
1
 90
50
176
1
 90
50
176
1
 90
50
176
1
290
0
176
1
 90
50
176
1
 62
256
176
0
 40
1.0
176
0
 90
2
176
1
  1
strokes_ogs.tif
176
1
290
0
176
1
 40
1.0
176
1
 40
1.0
176
1
  0
VISUALSTYLE
  5
6F
102
{ACAD_REACTORS
330
16
102
}
330
16
100
AcDbVisualStyle
  2
Sketchy
 70
24
177
3
291
0
 70
58
 90
2
176
1
 90
2
176
1
 90
0
176
1
 90
1
176
1
 40
0.6
176
1
 40
30.0
176
1
 62
7
420
16777215
176
1
 90
1
176
1
 90
4
176
1
 62
7
176
1
 62
257
176
1
 90
1
176
1
 90
1
176
1
 40
1.0
176
1
 90
8
176
1
 62
7
176
1
 40
1.0
176
1
 90
1
176
1
 90
6
176
1
 90
2
176
1
 62
7
176
1
 90
5
176
1
 90
0
176
1
 90
0
176
1
290
0
176
1
 90
1
176
1
 40
0.0
176
1
 90
0
176
1
290
0
176
1
290
1
176
1
290
1
176
1
290
0
176
1
290
0
176
1
290
0
176
1
290
0
176
1
290
0
176
1
290
0
176
1
 90
50
176
1
 40
0.0
176
1
 40
1.0
176
1
 90
0
176
1
 62
18
420
0
176
1
 90
50
176
1
 90
3
176
1
 62
5
420
255
176
1
290
0
176
1
 90
50
176
1
 90
50
176
1
 90
50
176
1
290
0
176
1
 90
50
176
1
 62
256
176
0
 40
1.0
176
0
 90
2
176
1
  1
strokes_ogs.tif
176
1
290
0
176
1
 40
1.0
176
1
 40
1.0
176
1
  0
VISUALSTYLE
  5
70
102
{ACAD_REACTORS
330
16
102
}
330
16
100
AcDbVisualStyle
  2
Thicken
 70
13
177
3
291
1
 70
58
 90
2
176
1
 90
2
176
1
 90
0
176
1
 90
2
176
1
 40
0.6
176
1
 40
30.0
176
1
 62
7
420
16777215
176
1
 90
1
176
1
 90
4
176
1
 62
7
176
1
 62
257
176
1
 90
1
176
1
 90
1
176
1
 40
1.0
176
1
 90
8
176
1
 62
7
176
1
 40
1.0
176
1
 90
1
176
1
 90
6
176
1
 90
2
176
1
 62
7
176
1
 90
5
176
1
 90
0
176
1
 90
0
176
1
290
0
176
1
 90
1
176
1
 40
0.0
176
1
 90
0
176
1
290
0
176
1
290
1
176
1
290
1
176
1
290
0
176
1
290
0
176
1
290
0
176
1
290
0
176
1
290
0
176
1
290
0
176
1
 90
50
176
1
 40
0.0
176
1
 40
1.0
176
1
 90
0
176
1
 62
18
420
0
176
1
 90
50
176
1
 90
3
176
1
 62
5
420
255
176
1
290
0
176
1
 90
50
176
1
 90
50
176
1
 90
50
176
1
290
0
176
1
 90
50
176
1
 62
256
176
0
 40
1.0
176
0
 90
2
176
1
  1
strokes_ogs.tif
176
1
290
0
176
1
 40
1.0
176
1
 40
1.0
176
1
  0
VISUALSTYLE
  5
71
102
{ACAD_REACTORS
330
16
102
}
330
16
100
AcDbVisualStyle
  2
Wireframe
 70
5
177
3
291
0
 70
58
 90
2
176
1
 90
2
176
1
 90
0
176
1
 90
0
176
1
 40
0.6
176
1
 40
30.0
176
1
 62
7
420
16777215
176
1
 90
1
176
1
 90
4
176
1
 62
7
176
1
 62
257
176
1
 90
1
176
1
 90
1
176
1
 40
1.0
176
1
 90
8
176
1
 62
7
176
1
 40
1.0
176
1
 90
1
176
1
 90
6
176
1
 90
2
176
1
 62
7
176
1
 90
5
176
1
 90
0
176
1
 90
0
176
1
290
0
176
1
 90
1
176
1
 40
0.0
176
1
 90
0
176
1
290
0
176
1
290
1
176
1
290
1
176
1
290
0
176
1
290
0
176
1
290
0
176
1
290
0
176
1
290
0
176
1
290
0
176
1
 90
50
176
1
 40
0.0
176
1
 40
1.0
176
1
 90
0
176
1
 62
18
420
0
176
1
 90
50
176
1
 90
3
176
1
 62
5
420
255
176
1
290
0
176
1
 90
50
176
1
 90
50
176
1
 90
50
176
1
290
0
176
1
 90
50
176
1
 62
256
176
0
 40
1.0
176
0
 90
2
176
1
  1
strokes_ogs.tif
176
1
290
0
176
1
 40
1.0
176
1
 40
1.0
176
1
  0
VISUALSTYLE
  5
72
102
{ACAD_REACTORS
330
16
102
}
330
16
100
AcDbVisualStyle
  2
X-Ray
 70
25
177
3
291
0
 70
58
 90
2
176
1
 90
2
176
1
 90
0
176
1
 90
2
176
1
 40
0.5
176
1
 40
30.0
176
1
 62
7
420
16777215
176
1
 90
1
176
1
 90
4
176
1
 62
7
176
1
 62
257
176
1
 90
1
176
1
 90
1
176
1
 40
1.0
176
1
 90
8
176
1
 62
7
176
1
 40
1.0
176
1
 90
1
176
1
 90
6
176
1
 90
2
176
1
 62
7
176
1
 90
5
176
1
 90
0
176
1
 90
0
176
1
290
0
176
1
 90
1
176
1
 40
0.0
176
1
 90
0
176
1
290
0
176
1
290
1
176
1
290
1
176
1
290
0
176
1
290
0
176
1
290
0
176
1
290
0
176
1
290
0
176
1
290
0
176
1
 90
50
176
1
 40
0.0
176
1
 40
1.0
176
1
 90
0
176
1
 62
18
420
0
176
1
 90
50
176
1
 90
3
176
1
 62
5
420
255
176
1
290
0
176
1
 90
50
176
1
 90
50
176
1
 90
50
176
1
290
0
176
1
 90
50
176
1
 62
256
176
0
 40
1.0
176
0
 90
2
176
1
  1
strokes_ogs.tif
176
1
290
0
176
1
 40
1.0
176
1
 40
1.0
176
1
  0
DICTIONARYVAR
  5
2FA
330
2D
100
DictionaryVariables
280
0
  1
1.4.4 @ 2026-10-05T08:08:29.064565+00:00
  0
ENDSEC
  0
EOF
