<?xml version="1.0" encoding="UTF-8"?>
<svg xmlns="http://www.w3.org/2000/svg" width="1600" height="1150" viewBox="0 0 1600 1150">
<defs>
  <style>
    text { user-select: none; }
    .grid-line { stroke: #bdc3c7; stroke-width: 0.8; stroke-dasharray: 4,4; }
    .col-rcc { fill: #2c3e50; stroke: #1a252f; stroke-width: 1; }
    .wall-brick { fill: #ecf0f1; stroke: #2c3e50; stroke-width: 1.5; }
    .part-wall { fill: #f8f9fa; stroke: #7f8c8d; stroke-width: 1.2; }
  </style>
  <pattern id="shaftHatch" width="8" height="8" patternUnits="userSpaceOnUse">
    <line x1="0" y1="0" x2="8" y2="8" stroke="#7f8c8d" stroke-width="1"/>
    <line x1="8" y1="0" x2="0" y2="8" stroke="#7f8c8d" stroke-width="1"/>
  </pattern>
  <pattern id="passageHatch" width="12" height="12" patternUnits="userSpaceOnUse">
    <line x1="0" y1="12" x2="12" y2="0" stroke="#bdc3c7" stroke-width="0.75"/>
  </pattern>
  
</defs>
<rect width="1600" height="1150" fill="#fcfdfd"/>
<polygon points="180.0,960.0 321.6,824.8 512.0,607.3 736.1,462.7 1093.9,275.5 1325.3,181.5 1379.0,120.8 1366.9,960.0" fill="none" stroke="#e74c3c" stroke-width="2.0" class=""/>
<circle cx="180.0" cy="960.0" r="6.8" fill="#e74c3c" stroke="#ffffff" stroke-width="1" class=""/>
<text x="200.2" y="939.8" font-size="10" font-family="Arial, sans-serif" font-weight="bold" text-anchor="middle" fill="#c0392b">P1</text>
<circle cx="321.6" cy="824.8" r="6.8" fill="#e74c3c" stroke="#ffffff" stroke-width="1" class=""/>
<text x="341.8" y="804.6" font-size="10" font-family="Arial, sans-serif" font-weight="bold" text-anchor="middle" fill="#c0392b">P2</text>
<circle cx="512.0" cy="607.3" r="6.8" fill="#e74c3c" stroke="#ffffff" stroke-width="1" class=""/>
<text x="532.3" y="587.0" font-size="10" font-family="Arial, sans-serif" font-weight="bold" text-anchor="middle" fill="#c0392b">P3</text>
<circle cx="736.1" cy="462.7" r="6.8" fill="#e74c3c" stroke="#ffffff" stroke-width="1" class=""/>
<text x="756.3" y="442.5" font-size="10" font-family="Arial, sans-serif" font-weight="bold" text-anchor="middle" fill="#c0392b">P4</text>
<circle cx="1093.9" cy="275.5" r="6.8" fill="#e74c3c" stroke="#ffffff" stroke-width="1" class=""/>
<text x="1073.7" y="295.8" font-size="10" font-family="Arial, sans-serif" font-weight="bold" text-anchor="middle" fill="#c0392b">P5</text>
<circle cx="1325.3" cy="181.5" r="6.8" fill="#e74c3c" stroke="#ffffff" stroke-width="1" class=""/>
<text x="1305.1" y="201.7" font-size="10" font-family="Arial, sans-serif" font-weight="bold" text-anchor="middle" fill="#c0392b">P6</text>
<circle cx="1379.0" cy="120.8" r="6.8" fill="#e74c3c" stroke="#ffffff" stroke-width="1" class=""/>
<text x="1358.7" y="141.1" font-size="10" font-family="Arial, sans-serif" font-weight="bold" text-anchor="middle" fill="#c0392b">P7</text>
<circle cx="1366.9" cy="960.0" r="6.8" fill="#e74c3c" stroke="#ffffff" stroke-width="1" class=""/>
<text x="1346.6" y="939.8" font-size="10" font-family="Arial, sans-serif" font-weight="bold" text-anchor="middle" fill="#c0392b">P0</text>
<text x="230.3" y="875.0" font-size="9" font-family="Arial, sans-serif" font-weight="bold" text-anchor="middle" fill="#c0392b">14'-6"</text>
<text x="394.5" y="700.5" font-size="9" font-family="Arial, sans-serif" font-weight="bold" text-anchor="middle" fill="#c0392b">21'-5"</text>
<text x="607.9" y="514.1" font-size="9" font-family="Arial, sans-serif" font-weight="bold" text-anchor="middle" fill="#c0392b">19'-9"</text>
<text x="901.2" y="346.9" font-size="9" font-family="Arial, sans-serif" font-weight="bold" text-anchor="middle" fill="#c0392b">29'-11"</text>
<text x="1198.4" y="205.0" font-size="9" font-family="Arial, sans-serif" font-weight="bold" text-anchor="middle" fill="#c0392b">18'-6"</text>
<text x="1329.9" y="135.5" font-size="9" font-family="Arial, sans-serif" font-weight="bold" text-anchor="middle" fill="#c0392b">6'-0"</text>
<text x="1402.6" y="544.9" font-size="9" font-family="Arial, sans-serif" font-weight="bold" text-anchor="middle" fill="#c0392b">62'-2"</text>
<text x="773.4" y="993.8" font-size="9" font-family="Arial, sans-serif" font-weight="bold" text-anchor="middle" fill="#c0392b">87'-11"</text>
<line x1="423.0" y1="1027.5" x2="423.0" y2="82.5" stroke="#bdc3c7" stroke-width="0.8" stroke-dasharray="5,5" class=""/>
<circle cx="423.0" cy="1003.2" r="16.9" fill="#ffffff" stroke="#2c3e50" stroke-width="1.2" class=""/>
<text x="423.0" y="1007.9" font-size="11" font-family="Arial, sans-serif" font-weight="bold" text-anchor="middle" fill="#2c3e50">A</text>
<circle cx="423.0" cy="48.8" r="18.2" fill="#ffffff" stroke="#2c3e50" stroke-width="1.2" class=""/>
<text x="423.0" y="54.2" font-size="11" font-family="Arial, sans-serif" font-weight="bold" text-anchor="middle" fill="#2c3e50">A</text>
<line x1="672.8" y1="1027.5" x2="672.8" y2="82.5" stroke="#bdc3c7" stroke-width="0.8" stroke-dasharray="5,5" class=""/>
<circle cx="672.8" cy="1003.2" r="16.9" fill="#ffffff" stroke="#2c3e50" stroke-width="1.2" class=""/>
<text x="672.8" y="1007.9" font-size="11" font-family="Arial, sans-serif" font-weight="bold" text-anchor="middle" fill="#2c3e50">B</text>
<circle cx="672.8" cy="48.8" r="18.2" fill="#ffffff" stroke="#2c3e50" stroke-width="1.2" class=""/>
<text x="672.8" y="54.2" font-size="11" font-family="Arial, sans-serif" font-weight="bold" text-anchor="middle" fill="#2c3e50">B</text>
<line x1="878.6" y1="1027.5" x2="878.6" y2="82.5" stroke="#bdc3c7" stroke-width="0.8" stroke-dasharray="5,5" class=""/>
<circle cx="878.6" cy="1003.2" r="16.9" fill="#ffffff" stroke="#2c3e50" stroke-width="1.2" class=""/>
<text x="878.6" y="1007.9" font-size="11" font-family="Arial, sans-serif" font-weight="bold" text-anchor="middle" fill="#2c3e50">C</text>
<circle cx="878.6" cy="48.8" r="18.2" fill="#ffffff" stroke="#2c3e50" stroke-width="1.2" class=""/>
<text x="878.6" y="54.2" font-size="11" font-family="Arial, sans-serif" font-weight="bold" text-anchor="middle" fill="#2c3e50">C</text>
<line x1="949.5" y1="1027.5" x2="949.5" y2="82.5" stroke="#bdc3c7" stroke-width="0.8" stroke-dasharray="5,5" class=""/>
<circle cx="949.5" cy="1003.2" r="16.9" fill="#ffffff" stroke="#2c3e50" stroke-width="1.2" class=""/>
<text x="949.5" y="1007.9" font-size="11" font-family="Arial, sans-serif" font-weight="bold" text-anchor="middle" fill="#2c3e50">C'</text>
<circle cx="949.5" cy="48.8" r="18.2" fill="#ffffff" stroke="#2c3e50" stroke-width="1.2" class=""/>
<text x="949.5" y="54.2" font-size="11" font-family="Arial, sans-serif" font-weight="bold" text-anchor="middle" fill="#2c3e50">C'</text>
<line x1="1111.5" y1="1027.5" x2="1111.5" y2="82.5" stroke="#bdc3c7" stroke-width="0.8" stroke-dasharray="5,5" class=""/>
<circle cx="1111.5" cy="1003.2" r="16.9" fill="#ffffff" stroke="#2c3e50" stroke-width="1.2" class=""/>
<text x="1111.5" y="1007.9" font-size="11" font-family="Arial, sans-serif" font-weight="bold" text-anchor="middle" fill="#2c3e50">D</text>
<circle cx="1111.5" cy="48.8" r="18.2" fill="#ffffff" stroke="#2c3e50" stroke-width="1.2" class=""/>
<text x="1111.5" y="54.2" font-size="11" font-family="Arial, sans-serif" font-weight="bold" text-anchor="middle" fill="#2c3e50">D</text>
<line x1="1324.1" y1="1027.5" x2="1324.1" y2="82.5" stroke="#bdc3c7" stroke-width="0.8" stroke-dasharray="5,5" class=""/>
<circle cx="1324.1" cy="1003.2" r="16.9" fill="#ffffff" stroke="#2c3e50" stroke-width="1.2" class=""/>
<text x="1324.1" y="1007.9" font-size="11" font-family="Arial, sans-serif" font-weight="bold" text-anchor="middle" fill="#2c3e50">E</text>
<circle cx="1324.1" cy="48.8" r="18.2" fill="#ffffff" stroke="#2c3e50" stroke-width="1.2" class=""/>
<text x="1324.1" y="54.2" font-size="11" font-family="Arial, sans-serif" font-weight="bold" text-anchor="middle" fill="#2c3e50">E</text>
<line x1="315.0" y1="914.4" x2="1422.0" y2="914.4" stroke="#bdc3c7" stroke-width="0.8" stroke-dasharray="5,5" class=""/>
<circle cx="1455.8" cy="914.4" r="18.2" fill="#ffffff" stroke="#2c3e50" stroke-width="1.2" class=""/>
<text x="1455.8" y="919.8" font-size="11" font-family="Arial, sans-serif" font-weight="bold" text-anchor="middle" fill="#2c3e50">1</text>
<line x1="315.0" y1="688.3" x2="1422.0" y2="688.3" stroke="#bdc3c7" stroke-width="0.8" stroke-dasharray="5,5" class=""/>
<circle cx="1455.8" cy="688.3" r="18.2" fill="#ffffff" stroke="#2c3e50" stroke-width="1.2" class=""/>
<text x="1455.8" y="693.7" font-size="11" font-family="Arial, sans-serif" font-weight="bold" text-anchor="middle" fill="#2c3e50">2</text>
<line x1="315.0" y1="575.2" x2="1422.0" y2="575.2" stroke="#bdc3c7" stroke-width="0.8" stroke-dasharray="5,5" class=""/>
<circle cx="1455.8" cy="575.2" r="18.2" fill="#ffffff" stroke="#2c3e50" stroke-width="1.2" class=""/>
<text x="1455.8" y="580.6" font-size="11" font-family="Arial, sans-serif" font-weight="bold" text-anchor="middle" fill="#2c3e50">3</text>
<line x1="315.0" y1="467.2" x2="1422.0" y2="467.2" stroke="#bdc3c7" stroke-width="0.8" stroke-dasharray="5,5" class=""/>
<circle cx="1455.8" cy="467.2" r="18.2" fill="#ffffff" stroke="#2c3e50" stroke-width="1.2" class=""/>
<text x="1455.8" y="472.6" font-size="11" font-family="Arial, sans-serif" font-weight="bold" text-anchor="middle" fill="#2c3e50">4</text>
<line x1="315.0" y1="391.3" x2="1422.0" y2="391.3" stroke="#bdc3c7" stroke-width="0.8" stroke-dasharray="5,5" class=""/>
<circle cx="1455.8" cy="391.3" r="18.2" fill="#ffffff" stroke="#2c3e50" stroke-width="1.2" class=""/>
<text x="1455.8" y="396.7" font-size="11" font-family="Arial, sans-serif" font-weight="bold" text-anchor="middle" fill="#2c3e50">5</text>
<line x1="315.0" y1="312.0" x2="1422.0" y2="312.0" stroke="#bdc3c7" stroke-width="0.8" stroke-dasharray="5,5" class=""/>
<circle cx="1455.8" cy="312.0" r="18.2" fill="#ffffff" stroke="#2c3e50" stroke-width="1.2" class=""/>
<text x="1455.8" y="317.4" font-size="11" font-family="Arial, sans-serif" font-weight="bold" text-anchor="middle" fill="#2c3e50">6</text>
<line x1="315.0" y1="210.8" x2="1422.0" y2="210.8" stroke="#bdc3c7" stroke-width="0.8" stroke-dasharray="5,5" class=""/>
<circle cx="1455.8" cy="210.8" r="18.2" fill="#ffffff" stroke="#2c3e50" stroke-width="1.2" class=""/>
<text x="1455.8" y="216.1" font-size="11" font-family="Arial, sans-serif" font-weight="bold" text-anchor="middle" fill="#2c3e50">7</text>
<rect x="954.6" y="683.2" width="151.9" height="276.8" fill="#fdfefe" stroke="#95a5a6" stroke-width="1" rx="0" stroke-dasharray="4,4" class=""/>
<rect x="667.7" y="909.4" width="38.8" height="10.1" fill="#ffffff" stroke="#2c3e50" stroke-width="1.5" rx="0" class=""/>
<rect x="706.5" y="909.4" width="121.5" height="10.1" fill="#ffffff" stroke="#2c3e50" stroke-width="1.5" rx="0" class=""/>
<rect x="706.5" y="909.4" width="121.5" height="10.1" fill="#ffffff" stroke="#2c3e50" stroke-width="1.5" rx="0" class=""/>
<rect x="828.0" y="909.4" width="126.6" height="10.1" fill="#ffffff" stroke="#2c3e50" stroke-width="1.5" rx="0" class=""/>
<rect x="1106.4" y="909.4" width="45.6" height="10.1" fill="#ffffff" stroke="#2c3e50" stroke-width="1.5" rx="0" class=""/>
<rect x="1152.0" y="909.4" width="121.5" height="10.1" fill="#ffffff" stroke="#2c3e50" stroke-width="1.5" rx="0" class=""/>
<rect x="1152.0" y="909.4" width="121.5" height="10.1" fill="#ffffff" stroke="#2c3e50" stroke-width="1.5" rx="0" class=""/>
<rect x="1273.5" y="909.4" width="55.7" height="10.1" fill="#ffffff" stroke="#2c3e50" stroke-width="1.5" rx="0" class=""/>
<rect x="667.7" y="683.2" width="79.3" height="10.1" fill="#ffffff" stroke="#2c3e50" stroke-width="1.5" rx="0" class=""/>
<rect x="747.0" y="683.2" width="47.2" height="10.1" fill="#ffffff" stroke="#2c3e50" stroke-width="1.5" rx="0" class=""/>
<rect x="794.2" y="683.2" width="79.3" height="10.1" fill="#ffffff" stroke="#2c3e50" stroke-width="1.5" rx="0" class=""/>
<rect x="873.6" y="683.2" width="81.0" height="10.1" fill="#ffffff" stroke="#2c3e50" stroke-width="1.5" rx="0" class=""/>
<rect x="944.4" y="673.1" width="81.0" height="10.1" fill="#ffffff" stroke="#2c3e50" stroke-width="1.5" rx="0" class=""/>
<rect x="1025.4" y="673.1" width="91.1" height="10.1" fill="#ffffff" stroke="#2c3e50" stroke-width="1.5" rx="0" class=""/>
<rect x="1106.4" y="683.2" width="45.6" height="10.1" fill="#ffffff" stroke="#2c3e50" stroke-width="1.5" rx="0" class=""/>
<rect x="1152.0" y="683.2" width="47.2" height="10.1" fill="#ffffff" stroke="#2c3e50" stroke-width="1.5" rx="0" class=""/>
<rect x="1199.2" y="683.2" width="129.9" height="10.1" fill="#ffffff" stroke="#2c3e50" stroke-width="1.5" rx="0" class=""/>
<rect x="1319.1" y="852.0" width="10.1" height="67.5" fill="#ffffff" stroke="#2c3e50" stroke-width="1.5" rx="0" class=""/>
<rect x="1319.1" y="771.0" width="10.1" height="81.0" fill="#ffffff" stroke="#2c3e50" stroke-width="1.5" rx="0" class=""/>
<rect x="1319.1" y="771.0" width="10.1" height="81.0" fill="#ffffff" stroke="#2c3e50" stroke-width="1.5" rx="0" class=""/>
<rect x="1319.1" y="663.0" width="10.1" height="108.0" fill="#ffffff" stroke="#2c3e50" stroke-width="1.5" rx="0" class=""/>
<rect x="1319.1" y="609.0" width="10.1" height="54.0" fill="#ffffff" stroke="#2c3e50" stroke-width="1.5" rx="0" class=""/>
<rect x="1319.1" y="609.0" width="10.1" height="54.0" fill="#ffffff" stroke="#2c3e50" stroke-width="1.5" rx="0" class=""/>
<rect x="1319.1" y="177.0" width="10.1" height="432.0" fill="#ffffff" stroke="#2c3e50" stroke-width="1.5" rx="0" class=""/>
<rect x="667.7" y="683.2" width="10.1" height="236.2" fill="#ffffff" stroke="#2c3e50" stroke-width="1.5" rx="0" class=""/>
<rect x="873.6" y="683.2" width="10.1" height="236.2" fill="#ffffff" stroke="#2c3e50" stroke-width="1.5" rx="0" class=""/>
<rect x="944.4" y="683.2" width="10.1" height="236.2" fill="#ffffff" stroke="#2c3e50" stroke-width="1.5" rx="0" class=""/>
<rect x="1106.4" y="683.2" width="10.1" height="276.8" fill="#ffffff" stroke="#2c3e50" stroke-width="1.5" rx="0" class=""/>
<rect x="883.7" y="794.6" width="60.8" height="10.1" fill="#ffffff" stroke="#2c3e50" stroke-width="1.5" rx="0" class=""/>
<rect x="667.7" y="506.8" width="10.1" height="176.4" fill="#ffffff" stroke="#2c3e50" stroke-width="1.5" rx="0" class=""/>
<rect x="667.7" y="619.1" width="205.9" height="10.1" fill="#ffffff" stroke="#2c3e50" stroke-width="1.5" rx="0" class=""/>
<rect x="736.1" y="457.7" width="147.6" height="10.1" fill="#ffffff" stroke="#2c3e50" stroke-width="1.5" rx="0" class=""/>
<rect x="873.6" y="462.7" width="10.1" height="220.5" fill="#ffffff" stroke="#2c3e50" stroke-width="1.5" rx="0" class=""/>
<rect x="873.6" y="390.8" width="10.1" height="71.9" fill="#ffffff" stroke="#2c3e50" stroke-width="1.5" rx="0" class=""/>
<rect x="1025.4" y="629.2" width="10.1" height="54.0" fill="#ffffff" stroke="#2c3e50" stroke-width="1.5" rx="0" class=""/>
<rect x="1025.4" y="629.2" width="91.1" height="10.1" fill="#ffffff" stroke="#2c3e50" stroke-width="1.5" rx="0" class=""/>
<rect x="1212.8" y="588.8" width="10.1" height="94.5" fill="#ffffff" stroke="#2c3e50" stroke-width="1.5" rx="0" class=""/>
<rect x="1106.4" y="578.6" width="222.8" height="10.1" fill="#ffffff" stroke="#2c3e50" stroke-width="1.5" rx="0" class=""/>
<rect x="1106.4" y="561.8" width="10.1" height="16.9" fill="#ffffff" stroke="#2c3e50" stroke-width="1.5" rx="0" class=""/>
<rect x="1106.4" y="514.5" width="10.1" height="47.2" fill="#ffffff" stroke="#2c3e50" stroke-width="1.5" rx="0" class=""/>
<rect x="1106.4" y="386.2" width="10.1" height="128.2" fill="#ffffff" stroke="#2c3e50" stroke-width="1.5" rx="0" class=""/>
<rect x="1106.4" y="376.1" width="222.8" height="10.1" fill="#ffffff" stroke="#2c3e50" stroke-width="1.5" rx="0" class=""/>
<rect x="1212.8" y="190.5" width="10.1" height="185.6" fill="#ffffff" stroke="#2c3e50" stroke-width="1.5" rx="0" class=""/>
<rect x="667.7" y="899.2" width="10.1" height="20.2" fill="#34495e" stroke="#1a252f" stroke-width="1.2" rx="0" class="col-rcc"/>
<line x1="667.7" y1="919.5" x2="677.8" y2="899.2" stroke="#ecf0f1" stroke-width="0.5" class=""/>
<line x1="667.7" y1="899.2" x2="677.8" y2="919.5" stroke="#ecf0f1" stroke-width="0.5" class=""/>
<rect x="667.7" y="678.2" width="10.1" height="20.2" fill="#34495e" stroke="#1a252f" stroke-width="1.2" rx="0" class="col-rcc"/>
<line x1="667.7" y1="698.4" x2="677.8" y2="678.2" stroke="#ecf0f1" stroke-width="0.5" class=""/>
<line x1="667.7" y1="678.2" x2="677.8" y2="698.4" stroke="#ecf0f1" stroke-width="0.5" class=""/>
<rect x="667.7" y="565.1" width="10.1" height="20.2" fill="#34495e" stroke="#1a252f" stroke-width="1.2" rx="0" class="col-rcc"/>
<line x1="667.7" y1="585.4" x2="677.8" y2="565.1" stroke="#ecf0f1" stroke-width="0.5" class=""/>
<line x1="667.7" y1="565.1" x2="677.8" y2="585.4" stroke="#ecf0f1" stroke-width="0.5" class=""/>
<rect x="667.7" y="514.5" width="10.1" height="20.2" fill="#34495e" stroke="#1a252f" stroke-width="1.2" rx="0" class="col-rcc"/>
<line x1="667.7" y1="534.8" x2="677.8" y2="514.5" stroke="#ecf0f1" stroke-width="0.5" class=""/>
<line x1="667.7" y1="514.5" x2="677.8" y2="534.8" stroke="#ecf0f1" stroke-width="0.5" class=""/>
<rect x="873.6" y="899.2" width="10.1" height="20.2" fill="#34495e" stroke="#1a252f" stroke-width="1.2" rx="0" class="col-rcc"/>
<line x1="873.6" y1="919.5" x2="883.7" y2="899.2" stroke="#ecf0f1" stroke-width="0.5" class=""/>
<line x1="873.6" y1="899.2" x2="883.7" y2="919.5" stroke="#ecf0f1" stroke-width="0.5" class=""/>
<rect x="873.6" y="678.2" width="10.1" height="20.2" fill="#34495e" stroke="#1a252f" stroke-width="1.2" rx="0" class="col-rcc"/>
<line x1="873.6" y1="698.4" x2="883.7" y2="678.2" stroke="#ecf0f1" stroke-width="0.5" class=""/>
<line x1="873.6" y1="678.2" x2="883.7" y2="698.4" stroke="#ecf0f1" stroke-width="0.5" class=""/>
<rect x="873.6" y="565.1" width="10.1" height="20.2" fill="#34495e" stroke="#1a252f" stroke-width="1.2" rx="0" class="col-rcc"/>
<line x1="873.6" y1="585.4" x2="883.7" y2="565.1" stroke="#ecf0f1" stroke-width="0.5" class=""/>
<line x1="873.6" y1="565.1" x2="883.7" y2="585.4" stroke="#ecf0f1" stroke-width="0.5" class=""/>
<rect x="873.6" y="457.1" width="10.1" height="20.2" fill="#34495e" stroke="#1a252f" stroke-width="1.2" rx="0" class="col-rcc"/>
<line x1="873.6" y1="477.4" x2="883.7" y2="457.1" stroke="#ecf0f1" stroke-width="0.5" class=""/>
<line x1="873.6" y1="457.1" x2="883.7" y2="477.4" stroke="#ecf0f1" stroke-width="0.5" class=""/>
<rect x="944.4" y="899.2" width="10.1" height="20.2" fill="#34495e" stroke="#1a252f" stroke-width="1.2" rx="0" class="col-rcc"/>
<line x1="944.4" y1="919.5" x2="954.6" y2="899.2" stroke="#ecf0f1" stroke-width="0.5" class=""/>
<line x1="944.4" y1="899.2" x2="954.6" y2="919.5" stroke="#ecf0f1" stroke-width="0.5" class=""/>
<rect x="944.4" y="678.2" width="10.1" height="20.2" fill="#34495e" stroke="#1a252f" stroke-width="1.2" rx="0" class="col-rcc"/>
<line x1="944.4" y1="698.4" x2="954.6" y2="678.2" stroke="#ecf0f1" stroke-width="0.5" class=""/>
<line x1="944.4" y1="678.2" x2="954.6" y2="698.4" stroke="#ecf0f1" stroke-width="0.5" class=""/>
<rect x="944.4" y="565.1" width="10.1" height="20.2" fill="#34495e" stroke="#1a252f" stroke-width="1.2" rx="0" class="col-rcc"/>
<line x1="944.4" y1="585.4" x2="954.6" y2="565.1" stroke="#ecf0f1" stroke-width="0.5" class=""/>
<line x1="944.4" y1="565.1" x2="954.6" y2="585.4" stroke="#ecf0f1" stroke-width="0.5" class=""/>
<rect x="1106.4" y="899.2" width="10.1" height="20.2" fill="#34495e" stroke="#1a252f" stroke-width="1.2" rx="0" class="col-rcc"/>
<line x1="1106.4" y1="919.5" x2="1116.6" y2="899.2" stroke="#ecf0f1" stroke-width="0.5" class=""/>
<line x1="1106.4" y1="899.2" x2="1116.6" y2="919.5" stroke="#ecf0f1" stroke-width="0.5" class=""/>
<rect x="1106.4" y="678.2" width="10.1" height="20.2" fill="#34495e" stroke="#1a252f" stroke-width="1.2" rx="0" class="col-rcc"/>
<line x1="1106.4" y1="698.4" x2="1116.6" y2="678.2" stroke="#ecf0f1" stroke-width="0.5" class=""/>
<line x1="1106.4" y1="678.2" x2="1116.6" y2="698.4" stroke="#ecf0f1" stroke-width="0.5" class=""/>
<rect x="1106.4" y="565.1" width="10.1" height="20.2" fill="#34495e" stroke="#1a252f" stroke-width="1.2" rx="0" class="col-rcc"/>
<line x1="1106.4" y1="585.4" x2="1116.6" y2="565.1" stroke="#ecf0f1" stroke-width="0.5" class=""/>
<line x1="1106.4" y1="565.1" x2="1116.6" y2="585.4" stroke="#ecf0f1" stroke-width="0.5" class=""/>
<rect x="1106.4" y="457.1" width="10.1" height="20.2" fill="#34495e" stroke="#1a252f" stroke-width="1.2" rx="0" class="col-rcc"/>
<line x1="1106.4" y1="477.4" x2="1116.6" y2="457.1" stroke="#ecf0f1" stroke-width="0.5" class=""/>
<line x1="1106.4" y1="457.1" x2="1116.6" y2="477.4" stroke="#ecf0f1" stroke-width="0.5" class=""/>
<rect x="1106.4" y="381.2" width="10.1" height="20.2" fill="#34495e" stroke="#1a252f" stroke-width="1.2" rx="0" class="col-rcc"/>
<line x1="1106.4" y1="401.4" x2="1116.6" y2="381.2" stroke="#ecf0f1" stroke-width="0.5" class=""/>
<line x1="1106.4" y1="381.2" x2="1116.6" y2="401.4" stroke="#ecf0f1" stroke-width="0.5" class=""/>
<rect x="1319.1" y="899.2" width="10.1" height="20.2" fill="#34495e" stroke="#1a252f" stroke-width="1.2" rx="0" class="col-rcc"/>
<line x1="1319.1" y1="919.5" x2="1329.2" y2="899.2" stroke="#ecf0f1" stroke-width="0.5" class=""/>
<line x1="1319.1" y1="899.2" x2="1329.2" y2="919.5" stroke="#ecf0f1" stroke-width="0.5" class=""/>
<rect x="1319.1" y="678.2" width="10.1" height="20.2" fill="#34495e" stroke="#1a252f" stroke-width="1.2" rx="0" class="col-rcc"/>
<line x1="1319.1" y1="698.4" x2="1329.2" y2="678.2" stroke="#ecf0f1" stroke-width="0.5" class=""/>
<line x1="1319.1" y1="678.2" x2="1329.2" y2="698.4" stroke="#ecf0f1" stroke-width="0.5" class=""/>
<rect x="1319.1" y="565.1" width="10.1" height="20.2" fill="#34495e" stroke="#1a252f" stroke-width="1.2" rx="0" class="col-rcc"/>
<line x1="1319.1" y1="585.4" x2="1329.2" y2="565.1" stroke="#ecf0f1" stroke-width="0.5" class=""/>
<line x1="1319.1" y1="565.1" x2="1329.2" y2="585.4" stroke="#ecf0f1" stroke-width="0.5" class=""/>
<rect x="1319.1" y="457.1" width="10.1" height="20.2" fill="#34495e" stroke="#1a252f" stroke-width="1.2" rx="0" class="col-rcc"/>
<line x1="1319.1" y1="477.4" x2="1329.2" y2="457.1" stroke="#ecf0f1" stroke-width="0.5" class=""/>
<line x1="1319.1" y1="457.1" x2="1329.2" y2="477.4" stroke="#ecf0f1" stroke-width="0.5" class=""/>
<rect x="1319.1" y="381.2" width="10.1" height="20.2" fill="#34495e" stroke="#1a252f" stroke-width="1.2" rx="0" class="col-rcc"/>
<line x1="1319.1" y1="401.4" x2="1329.2" y2="381.2" stroke="#ecf0f1" stroke-width="0.5" class=""/>
<line x1="1319.1" y1="381.2" x2="1329.2" y2="401.4" stroke="#ecf0f1" stroke-width="0.5" class=""/>
<rect x="1319.1" y="301.9" width="10.1" height="20.2" fill="#34495e" stroke="#1a252f" stroke-width="1.2" rx="0" class="col-rcc"/>
<line x1="1319.1" y1="322.1" x2="1329.2" y2="301.9" stroke="#ecf0f1" stroke-width="0.5" class=""/>
<line x1="1319.1" y1="301.9" x2="1329.2" y2="322.1" stroke="#ecf0f1" stroke-width="0.5" class=""/>
<rect x="944.4" y="672.8" width="81.0" height="10.8" fill="#ffffff" stroke="#ffffff" stroke-width="1" rx="0" class=""/>
<line x1="944.4" y1="681.6" x2="1025.4" y2="681.6" stroke="#3498db" stroke-width="1.2" class=""/>
<line x1="944.4" y1="674.8" x2="1025.4" y2="674.8" stroke="#3498db" stroke-width="1.2" class=""/>
<line x1="944.4" y1="678.2" x2="1025.4" y2="678.2" stroke="#2980b9" stroke-width="0.8" class=""/>
<line x1="944.4" y1="683.2" x2="944.4" y2="673.1" stroke="#2c3e50" stroke-width="1.2" class=""/>
<line x1="1025.4" y1="683.2" x2="1025.4" y2="673.1" stroke="#2c3e50" stroke-width="1.2" class=""/>
<rect x="706.5" y="909.0" width="121.5" height="10.8" fill="#ffffff" stroke="#ffffff" stroke-width="1" rx="0" class=""/>
<line x1="706.5" y1="917.8" x2="828.0" y2="917.8" stroke="#3498db" stroke-width="1.2" class=""/>
<line x1="706.5" y1="911.1" x2="828.0" y2="911.1" stroke="#3498db" stroke-width="1.2" class=""/>
<line x1="706.5" y1="914.4" x2="828.0" y2="914.4" stroke="#2980b9" stroke-width="0.8" class=""/>
<line x1="706.5" y1="919.5" x2="706.5" y2="909.4" stroke="#2c3e50" stroke-width="1.2" class=""/>
<line x1="828.0" y1="919.5" x2="828.0" y2="909.4" stroke="#2c3e50" stroke-width="1.2" class=""/>
<rect x="1152.0" y="909.0" width="121.5" height="10.8" fill="#ffffff" stroke="#ffffff" stroke-width="1" rx="0" class=""/>
<line x1="1152.0" y1="917.8" x2="1273.5" y2="917.8" stroke="#3498db" stroke-width="1.2" class=""/>
<line x1="1152.0" y1="911.1" x2="1273.5" y2="911.1" stroke="#3498db" stroke-width="1.2" class=""/>
<line x1="1152.0" y1="914.4" x2="1273.5" y2="914.4" stroke="#2980b9" stroke-width="0.8" class=""/>
<line x1="1152.0" y1="919.5" x2="1152.0" y2="909.4" stroke="#2c3e50" stroke-width="1.2" class=""/>
<line x1="1273.5" y1="919.5" x2="1273.5" y2="909.4" stroke="#2c3e50" stroke-width="1.2" class=""/>
<rect x="1313.7" y="771.0" width="10.8" height="81.0" fill="#ffffff" stroke="#ffffff" stroke-width="1" rx="0" class=""/>
<line x1="1315.7" y1="852.0" x2="1315.7" y2="771.0" stroke="#3498db" stroke-width="1.2" class=""/>
<line x1="1322.4" y1="852.0" x2="1322.4" y2="771.0" stroke="#3498db" stroke-width="1.2" class=""/>
<line x1="1319.1" y1="852.0" x2="1319.1" y2="771.0" stroke="#2980b9" stroke-width="0.8" class=""/>
<line x1="1314.0" y1="852.0" x2="1324.1" y2="852.0" stroke="#2c3e50" stroke-width="1.2" class=""/>
<line x1="1314.0" y1="771.0" x2="1324.1" y2="771.0" stroke="#2c3e50" stroke-width="1.2" class=""/>
<rect x="1313.7" y="609.0" width="10.8" height="54.0" fill="#ffffff" stroke="#ffffff" stroke-width="1" rx="0" class=""/>
<line x1="1315.7" y1="663.0" x2="1315.7" y2="609.0" stroke="#e67e22" stroke-width="1.2" class=""/>
<line x1="1322.4" y1="663.0" x2="1322.4" y2="609.0" stroke="#e67e22" stroke-width="1.2" class=""/>
<text x="1327.2" y="640.0" font-size="8" font-family="Arial, sans-serif" font-weight="bold" text-anchor="middle" fill="#e67e22">V</text>
<rect x="747.0" y="682.9" width="47.2" height="10.8" fill="#ffffff" stroke="#ffffff" stroke-width="1" rx="0" class=""/>
<line x1="747.0" y1="688.3" x2="747.0" y2="641.1" stroke="#8b4513" stroke-width="1.2" class=""/>
<path d="M 794.2 688.3 A 47.2 47.2 0 0 1 747.0 641.1" fill="none" stroke="#b08d57" stroke-width="0.8" stroke-dasharray="2,2"/>
<rect x="1152.0" y="682.9" width="47.2" height="10.8" fill="#ffffff" stroke="#ffffff" stroke-width="1" rx="0" class=""/>
<line x1="1152.0" y1="688.3" x2="1152.0" y2="641.1" stroke="#8b4513" stroke-width="1.2" class=""/>
<path d="M 1199.2 688.3 A 47.2 47.2 0 0 1 1152.0 641.1" fill="none" stroke="#b08d57" stroke-width="0.8" stroke-dasharray="2,2"/>
<rect x="1101.0" y="514.5" width="10.8" height="47.2" fill="#ffffff" stroke="#ffffff" stroke-width="1" rx="0" class=""/>
<line x1="578.2" y1="33.6" x2="625.5" y2="33.6" stroke="#8b4513" stroke-width="1.2" class=""/>
<path d="M 1106.4 514.5 A 47.2 47.2 0 0 0 625.5 33.6" fill="none" stroke="#b08d57" stroke-width="0.8" stroke-dasharray="2,2"/>
<rect x="1025.4" y="629.2" width="81.0" height="54.0" fill="#f4f6f7" stroke="#2c3e50" stroke-width="1.2" rx="0" class=""/>
<text x="1065.9" y="638.7" font-size="7.5" font-family="Arial, sans-serif" font-weight="bold" text-anchor="middle" fill="#2c3e50">MID-LANDING (+7'-0")</text>
<line x1="1064.2" y1="629.2" x2="1064.2" y2="514.5" stroke="#2c3e50" stroke-width="1.2" class=""/>
<line x1="1067.6" y1="629.2" x2="1067.6" y2="514.5" stroke="#2c3e50" stroke-width="1.2" class=""/>
<line x1="1025.4" y1="629.2" x2="1025.4" y2="514.5" stroke="#2c3e50" stroke-width="1.2" class=""/>
<line x1="1106.4" y1="629.2" x2="1106.4" y2="568.5" stroke="#2c3e50" stroke-width="1.2" class=""/>
<line x1="1025.4" y1="514.5" x2="1064.2" y2="514.5" stroke="#2c3e50" stroke-width="1" class=""/>
<text x="1044.8" y="524.3" font-size="7.0" font-family="Arial, sans-serif" font-weight="normal" text-anchor="middle" fill="#7f8c8d">1</text>
<line x1="1025.4" y1="526.0" x2="1064.2" y2="526.0" stroke="#2c3e50" stroke-width="1" class=""/>
<text x="1044.8" y="535.8" font-size="7.0" font-family="Arial, sans-serif" font-weight="normal" text-anchor="middle" fill="#7f8c8d">2</text>
<line x1="1025.4" y1="537.5" x2="1064.2" y2="537.5" stroke="#2c3e50" stroke-width="1" class=""/>
<text x="1044.8" y="547.2" font-size="7.0" font-family="Arial, sans-serif" font-weight="normal" text-anchor="middle" fill="#7f8c8d">3</text>
<line x1="1025.4" y1="548.9" x2="1064.2" y2="548.9" stroke="#2c3e50" stroke-width="1" class=""/>
<text x="1044.8" y="558.7" font-size="7.0" font-family="Arial, sans-serif" font-weight="normal" text-anchor="middle" fill="#7f8c8d">4</text>
<line x1="1025.4" y1="560.4" x2="1064.2" y2="560.4" stroke="#2c3e50" stroke-width="1" class=""/>
<text x="1044.8" y="570.2" font-size="7.0" font-family="Arial, sans-serif" font-weight="normal" text-anchor="middle" fill="#7f8c8d">5</text>
<line x1="1025.4" y1="571.9" x2="1064.2" y2="571.9" stroke="#2c3e50" stroke-width="1" class=""/>
<line x1="1025.4" y1="583.4" x2="1064.2" y2="583.4" stroke="#2c3e50" stroke-width="1" class=""/>
<line x1="1025.4" y1="594.8" x2="1064.2" y2="594.8" stroke="#2c3e50" stroke-width="1" class=""/>
<line x1="1025.4" y1="606.3" x2="1064.2" y2="606.3" stroke="#2c3e50" stroke-width="1" class=""/>
<line x1="1025.4" y1="617.8" x2="1064.2" y2="617.8" stroke="#2c3e50" stroke-width="1" class=""/>
<line x1="1044.8" y1="521.2" x2="1044.8" y2="561.8" stroke="#e67e22" stroke-width="1.5" class=""/>
<circle cx="1044.8" cy="521.2" r="3.4" fill="#e67e22" stroke="#e67e22" stroke-width="1" class=""/>
<polygon points="1044.8,568.5 1040.1,559.0 1049.6,559.0" fill="#e67e22" stroke="#000" stroke-width="1" class=""/>
<text x="1030.0" y="541.5" font-size="7.5" font-family="Arial, sans-serif" font-weight="bold" text-anchor="middle" fill="#e67e22" transform="rotate(90 1030.0 541.5)">UP (TO +7')</text>
<line x1="1067.6" y1="617.1" x2="1106.4" y2="617.1" stroke="#2c3e50" stroke-width="1" class=""/>
<text x="1087.0" y="627.2" font-size="7.0" font-family="Arial, sans-serif" font-weight="normal" text-anchor="middle" fill="#7f8c8d">12</text>
<line x1="1067.6" y1="605.0" x2="1106.4" y2="605.0" stroke="#2c3e50" stroke-width="1" class=""/>
<text x="1087.0" y="615.1" font-size="7.0" font-family="Arial, sans-serif" font-weight="normal" text-anchor="middle" fill="#7f8c8d">13</text>
<line x1="1067.6" y1="592.8" x2="1106.4" y2="592.8" stroke="#2c3e50" stroke-width="1" class=""/>
<text x="1087.0" y="602.9" font-size="7.0" font-family="Arial, sans-serif" font-weight="normal" text-anchor="middle" fill="#7f8c8d">14</text>
<line x1="1067.6" y1="580.6" x2="1106.4" y2="580.6" stroke="#2c3e50" stroke-width="1" class=""/>
<text x="1087.0" y="590.8" font-size="7.0" font-family="Arial, sans-serif" font-weight="normal" text-anchor="middle" fill="#7f8c8d">15</text>
<line x1="1067.6" y1="568.5" x2="1106.4" y2="568.5" stroke="#2c3e50" stroke-width="1" class=""/>
<text x="1087.0" y="578.6" font-size="7.0" font-family="Arial, sans-serif" font-weight="normal" text-anchor="middle" fill="#7f8c8d">16</text>
<line x1="1087.0" y1="622.5" x2="1087.0" y2="582.0" stroke="#27ae60" stroke-width="1.2" class=""/>
<circle cx="1087.0" cy="622.5" r="3.4" fill="#27ae60" stroke="#27ae60" stroke-width="1" class=""/>
<polygon points="1087.0,575.2 1082.3,584.7 1091.8,584.7" fill="#27ae60" stroke="#000" stroke-width="1" class=""/>
<text x="1101.9" y="602.2" font-size="7.5" font-family="Arial, sans-serif" font-weight="bold" text-anchor="middle" fill="#27ae60" transform="rotate(-90 1101.9 602.2)">UP TO 1F</text>
<line x1="1067.6" y1="568.5" x2="1106.4" y2="568.5" stroke="#2c3e50" stroke-width="1.2" class=""/>
<rect x="730.1" y="757.5" width="87.8" height="87.8" fill="#fdfefe" stroke="#bdc3c7" stroke-width="0.8" rx="0" class=""/>
<rect x="732.8" y="811.5" width="16.2" height="27.0" fill="#fdfefe" stroke="#bdc3c7" stroke-width="0.8" rx="0" class=""/>
<rect x="732.8" y="764.2" width="16.2" height="27.0" fill="#fdfefe" stroke="#bdc3c7" stroke-width="0.8" rx="0" class=""/>
<rect x="1175.6" y="757.5" width="87.8" height="87.8" fill="#fdfefe" stroke="#bdc3c7" stroke-width="0.8" rx="0" class=""/>
<rect x="1244.5" y="811.5" width="16.2" height="27.0" fill="#fdfefe" stroke="#bdc3c7" stroke-width="0.8" rx="0" class=""/>
<rect x="1244.5" y="764.2" width="16.2" height="27.0" fill="#fdfefe" stroke="#bdc3c7" stroke-width="0.8" rx="0" class=""/>
<rect x="1175.6" y="443.6" width="87.8" height="87.8" fill="#fdfefe" stroke="#bdc3c7" stroke-width="0.8" rx="0" class=""/>
<rect x="1244.5" y="497.6" width="16.2" height="27.0" fill="#fdfefe" stroke="#bdc3c7" stroke-width="0.8" rx="0" class=""/>
<rect x="1244.5" y="450.4" width="16.2" height="27.0" fill="#fdfefe" stroke="#bdc3c7" stroke-width="0.8" rx="0" class=""/>
<rect x="895.5" y="487.5" width="81.0" height="67.5" fill="#fdfefe" stroke="#bdc3c7" stroke-width="0.8" rx="0" class=""/>
<text x="1025.1" y="816.9" font-size="11.0" font-family="Arial, sans-serif" font-weight="bold" text-anchor="middle" fill="#2c3e50">FRONT SUN TERRACE</text>
<text x="1025.1" y="835.8" font-size="9.0" font-family="Arial, sans-serif" font-weight="bold" text-anchor="middle" fill="#7f8c8d">11'-3"  ×  20'-6"</text>
<text x="770.6" y="793.3" font-size="11.0" font-family="Arial, sans-serif" font-weight="bold" text-anchor="middle" fill="#2c3e50">BED ROOM-4</text>
<text x="770.6" y="812.2" font-size="9.0" font-family="Arial, sans-serif" font-weight="bold" text-anchor="middle" fill="#7f8c8d">14'-6"  ×  16'-0"</text>
<text x="909.0" y="796.0" font-size="8.0" font-family="Arial, sans-serif" font-weight="bold" text-anchor="middle" fill="#2c3e50">BATH &amp; DRESS</text>
<text x="909.0" y="808.1" font-size="7.0" font-family="Arial, sans-serif" font-weight="bold" text-anchor="middle" fill="#7f8c8d">4'-6"  ×  16'-0"</text>
<text x="1219.5" y="793.3" font-size="11.0" font-family="Arial, sans-serif" font-weight="bold" text-anchor="middle" fill="#2c3e50">BED ROOM-3</text>
<text x="1219.5" y="812.2" font-size="9.0" font-family="Arial, sans-serif" font-weight="bold" text-anchor="middle" fill="#7f8c8d">15'-0"  ×  16'-0"</text>
<text x="1219.5" y="630.6" font-size="8.0" font-family="Arial, sans-serif" font-weight="bold" text-anchor="middle" fill="#2c3e50">BATH &amp; DRESS</text>
<text x="1219.5" y="642.8" font-size="7.0" font-family="Arial, sans-serif" font-weight="bold" text-anchor="middle" fill="#7f8c8d">15'-0"  ×  7'-3"</text>
<text x="1219.5" y="479.4" font-size="11.0" font-family="Arial, sans-serif" font-weight="bold" text-anchor="middle" fill="#2c3e50">BED ROOM-5</text>
<text x="1219.5" y="498.3" font-size="9.0" font-family="Arial, sans-serif" font-weight="bold" text-anchor="middle" fill="#7f8c8d">15'-0"  ×  13'-6"</text>
<text x="1219.5" y="293.1" font-size="8.0" font-family="Arial, sans-serif" font-weight="bold" text-anchor="middle" fill="#2c3e50">MASTER BATH &amp; DRESS</text>
<text x="1219.5" y="305.2" font-size="7.0" font-family="Arial, sans-serif" font-weight="bold" text-anchor="middle" fill="#7f8c8d">15'-0"  ×  11'-9"</text>
<text x="936.0" y="492.9" font-size="11.0" font-family="Arial, sans-serif" font-weight="bold" text-anchor="middle" fill="#2c3e50">FAMILY LOUNGE</text>
<text x="936.0" y="511.8" font-size="9.0" font-family="Arial, sans-serif" font-weight="bold" text-anchor="middle" fill="#7f8c8d">16'-6"  ×  23'-6"</text>
<text x="774.0" y="567.1" font-size="11.0" font-family="Arial, sans-serif" font-weight="bold" text-anchor="middle" fill="#2c3e50">UTILITY TERRACE</text>
<text x="774.0" y="586.0" font-size="9.0" font-family="Arial, sans-serif" font-weight="bold" text-anchor="middle" fill="#7f8c8d">15'-3"  ×  16'-4"</text>
<line x1="667.7" y1="973.5" x2="1329.2" y2="973.5" stroke="#2c3e50" stroke-width="1" class=""/>
<line x1="667.7" y1="919.5" x2="667.7" y2="980.2" stroke="#7f8c8d" stroke-width="0.75" class=""/>
<line x1="1329.2" y1="919.5" x2="1329.2" y2="980.2" stroke="#7f8c8d" stroke-width="0.75" class=""/>
<line x1="663.0" y1="978.2" x2="672.4" y2="968.8" stroke="#2c3e50" stroke-width="1.5" class=""/>
<line x1="1324.5" y1="978.2" x2="1333.9" y2="968.8" stroke="#2c3e50" stroke-width="1.5" class=""/>
<text x="998.4" y="967.4" font-size="10" font-family="Arial, sans-serif" font-weight="bold" text-anchor="middle" fill="#2c3e50">MAIN FACADE: 49'-0"</text>
<line x1="667.7" y1="949.2" x2="873.6" y2="949.2" stroke="#2c3e50" stroke-width="1" class=""/>
<line x1="667.7" y1="919.5" x2="667.7" y2="956.0" stroke="#7f8c8d" stroke-width="0.75" class=""/>
<line x1="873.6" y1="919.5" x2="873.6" y2="956.0" stroke="#7f8c8d" stroke-width="0.75" class=""/>
<line x1="663.0" y1="953.9" x2="672.4" y2="944.5" stroke="#2c3e50" stroke-width="1.5" class=""/>
<line x1="868.8" y1="953.9" x2="878.3" y2="944.5" stroke="#2c3e50" stroke-width="1.5" class=""/>
<text x="770.6" y="943.1" font-size="10" font-family="Arial, sans-serif" font-weight="bold" text-anchor="middle" fill="#2c3e50">BED-2: 15'-3"</text>
<line x1="873.6" y1="949.2" x2="944.4" y2="949.2" stroke="#2c3e50" stroke-width="1" class=""/>
<line x1="873.6" y1="919.5" x2="873.6" y2="956.0" stroke="#7f8c8d" stroke-width="0.75" class=""/>
<line x1="944.4" y1="919.5" x2="944.4" y2="956.0" stroke="#7f8c8d" stroke-width="0.75" class=""/>
<line x1="868.8" y1="953.9" x2="878.3" y2="944.5" stroke="#2c3e50" stroke-width="1.5" class=""/>
<line x1="939.7" y1="953.9" x2="949.2" y2="944.5" stroke="#2c3e50" stroke-width="1.5" class=""/>
<text x="909.0" y="943.1" font-size="10" font-family="Arial, sans-serif" font-weight="bold" text-anchor="middle" fill="#2c3e50">BATH: 5'-3"</text>
<line x1="954.6" y1="949.2" x2="1106.4" y2="949.2" stroke="#2c3e50" stroke-width="1" class=""/>
<line x1="954.6" y1="919.5" x2="954.6" y2="956.0" stroke="#7f8c8d" stroke-width="0.75" class=""/>
<line x1="1106.4" y1="919.5" x2="1106.4" y2="956.0" stroke="#7f8c8d" stroke-width="0.75" class=""/>
<line x1="949.8" y1="953.9" x2="959.3" y2="944.5" stroke="#2c3e50" stroke-width="1.5" class=""/>
<line x1="1101.7" y1="953.9" x2="1111.2" y2="944.5" stroke="#2c3e50" stroke-width="1.5" class=""/>
<text x="1030.5" y="943.1" font-size="10" font-family="Arial, sans-serif" font-weight="bold" text-anchor="middle" fill="#2c3e50">PORCH: 11'-3"</text>
<line x1="1116.6" y1="949.2" x2="1329.2" y2="949.2" stroke="#2c3e50" stroke-width="1" class=""/>
<line x1="1116.6" y1="919.5" x2="1116.6" y2="956.0" stroke="#7f8c8d" stroke-width="0.75" class=""/>
<line x1="1329.2" y1="919.5" x2="1329.2" y2="956.0" stroke="#7f8c8d" stroke-width="0.75" class=""/>
<line x1="1111.8" y1="953.9" x2="1121.3" y2="944.5" stroke="#2c3e50" stroke-width="1.5" class=""/>
<line x1="1324.5" y1="953.9" x2="1333.9" y2="944.5" stroke="#2c3e50" stroke-width="1.5" class=""/>
<text x="1222.9" y="943.1" font-size="10" font-family="Arial, sans-serif" font-weight="bold" text-anchor="middle" fill="#2c3e50">DRAWING: 15'-9"</text>
<line x1="1383.2" y1="909.4" x2="1383.2" y2="693.4" stroke="#2c3e50" stroke-width="1" class=""/>
<line x1="1329.2" y1="909.4" x2="1389.9" y2="909.4" stroke="#7f8c8d" stroke-width="0.75" class=""/>
<line x1="1329.2" y1="693.4" x2="1389.9" y2="693.4" stroke="#7f8c8d" stroke-width="0.75" class=""/>
<line x1="1378.5" y1="914.1" x2="1387.9" y2="904.6" stroke="#2c3e50" stroke-width="1.5" class=""/>
<line x1="1378.5" y1="698.1" x2="1387.9" y2="688.6" stroke="#2c3e50" stroke-width="1.5" class=""/>
<text x="1394.0" y="801.4" font-size="10" font-family="Arial, sans-serif" font-weight="bold" text-anchor="middle" fill="#2c3e50" transform="rotate(-90 1394.0 801.4)">16'-0"</text>
<line x1="1383.2" y1="683.2" x2="1383.2" y2="588.8" stroke="#2c3e50" stroke-width="1" class=""/>
<line x1="1329.2" y1="683.2" x2="1389.9" y2="683.2" stroke="#7f8c8d" stroke-width="0.75" class=""/>
<line x1="1329.2" y1="588.8" x2="1389.9" y2="588.8" stroke="#7f8c8d" stroke-width="0.75" class=""/>
<line x1="1378.5" y1="688.0" x2="1387.9" y2="678.5" stroke="#2c3e50" stroke-width="1.5" class=""/>
<line x1="1378.5" y1="593.5" x2="1387.9" y2="584.0" stroke="#2c3e50" stroke-width="1.5" class=""/>
<text x="1394.0" y="636.0" font-size="10" font-family="Arial, sans-serif" font-weight="bold" text-anchor="middle" fill="#2c3e50" transform="rotate(-90 1394.0 636.0)">7'-0"</text>
<line x1="1383.2" y1="578.6" x2="1383.2" y2="479.1" stroke="#2c3e50" stroke-width="1" class=""/>
<line x1="1329.2" y1="578.6" x2="1389.9" y2="578.6" stroke="#7f8c8d" stroke-width="0.75" class=""/>
<line x1="1329.2" y1="479.1" x2="1389.9" y2="479.1" stroke="#7f8c8d" stroke-width="0.75" class=""/>
<line x1="1378.5" y1="583.4" x2="1387.9" y2="573.9" stroke="#2c3e50" stroke-width="1.5" class=""/>
<line x1="1378.5" y1="483.8" x2="1387.9" y2="474.3" stroke="#2c3e50" stroke-width="1.5" class=""/>
<text x="1394.0" y="528.8" font-size="10" font-family="Arial, sans-serif" font-weight="bold" text-anchor="middle" fill="#2c3e50" transform="rotate(-90 1394.0 528.8)">7'-4½"</text>
<line x1="1383.2" y1="468.9" x2="1383.2" y2="352.5" stroke="#2c3e50" stroke-width="1" class=""/>
<line x1="1329.2" y1="468.9" x2="1389.9" y2="468.9" stroke="#7f8c8d" stroke-width="0.75" class=""/>
<line x1="1329.2" y1="352.5" x2="1389.9" y2="352.5" stroke="#7f8c8d" stroke-width="0.75" class=""/>
<line x1="1378.5" y1="473.7" x2="1387.9" y2="464.2" stroke="#2c3e50" stroke-width="1.5" class=""/>
<line x1="1378.5" y1="357.2" x2="1387.9" y2="347.8" stroke="#2c3e50" stroke-width="1.5" class=""/>
<text x="1394.0" y="410.7" font-size="10" font-family="Arial, sans-serif" font-weight="bold" text-anchor="middle" fill="#2c3e50" transform="rotate(-90 1394.0 410.7)">8'-7½"</text>
<line x1="1430.4" y1="919.5" x2="1430.4" y2="258.0" stroke="#2c3e50" stroke-width="1" class=""/>
<line x1="1329.2" y1="919.5" x2="1437.2" y2="919.5" stroke="#7f8c8d" stroke-width="0.75" class=""/>
<line x1="1329.2" y1="258.0" x2="1437.2" y2="258.0" stroke="#7f8c8d" stroke-width="0.75" class=""/>
<line x1="1425.7" y1="924.2" x2="1435.2" y2="914.8" stroke="#2c3e50" stroke-width="1.5" class=""/>
<line x1="1425.7" y1="262.7" x2="1435.2" y2="253.3" stroke="#2c3e50" stroke-width="1.5" class=""/>
<text x="1441.2" y="588.8" font-size="10" font-family="Arial, sans-serif" font-weight="bold" text-anchor="middle" fill="#2c3e50" transform="rotate(-90 1441.2 588.8)">OVERALL BUILDING DEPTH: 49'-0"</text>
<line x1="20" y1="20" x2="1580" y2="20" stroke="#1a252f" stroke-width="2"/>
<line x1="1580" y1="20" x2="1580" y2="1130" stroke="#1a252f" stroke-width="2"/>
<line x1="1580" y1="1130" x2="20" y2="1130" stroke="#1a252f" stroke-width="2"/>
<line x1="20" y1="1130" x2="20" y2="20" stroke="#1a252f" stroke-width="2"/>
<line x1="30" y1="30" x2="1570" y2="30" stroke="#7f8c8d" stroke-width="0.75"/>
<line x1="1570" y1="30" x2="1570" y2="1120" stroke="#7f8c8d" stroke-width="0.75"/>
<line x1="1570" y1="1120" x2="30" y2="1120" stroke="#7f8c8d" stroke-width="0.75"/>
<line x1="30" y1="1120" x2="30" y2="30" stroke="#7f8c8d" stroke-width="0.75"/>
<rect x="1050" y="1030" width="520" height="90" fill="#ffffff" stroke="#1a252f" stroke-width="1.5"/>
<line x1="1050" y1="1060" x2="1570" y2="1060" stroke="#bdc3c7" stroke-width="1"/>
<line x1="1050" y1="1090" x2="1570" y2="1090" stroke="#bdc3c7" stroke-width="1"/>
<line x1="1420" y1="1060" x2="1420" y2="1120" stroke="#bdc3c7" stroke-width="1"/>
<text x="1064" y="1050" font-size="14" font-family="Arial, sans-serif" font-weight="bold" text-anchor="start" fill="#2c3e50">DAATA HAMLET RESIDENCE</text>
<text x="1435" y="1050" font-size="10" font-family="Arial, sans-serif" font-weight="normal" text-anchor="start" fill="#7f8c8d">PLOT: 3,129.1 SQ.FT.</text>
<text x="1064" y="1078" font-size="11" font-family="Arial, sans-serif" font-weight="bold" text-anchor="start" fill="#16a085">DRAWING: FIRST FLOOR ARCHITECTURAL PLAN</text>
<text x="1435" y="1078" font-size="12" font-family="Arial, sans-serif" font-weight="bold" text-anchor="start" fill="#c0392b">SHEET: A-102</text>
<text x="1064" y="1108" font-size="9.5" font-family="Arial, sans-serif" font-weight="normal" text-anchor="start" fill="#7f8c8d">SCALE: 1/8" = 1'-0"  |  STATUS: APPROVED FOR CAD</text>
<text x="1435" y="1108" font-size="10" font-family="Arial, sans-serif" font-weight="bold" text-anchor="start" fill="#2c3e50">UNITS: FEET-INCHES</text>
<g transform="translate(1515,90)"><circle cx="0" cy="0" r="26" fill="#ffffff" stroke="#2c3e50" stroke-width="1.5"/><polygon points="0,-22 7,16 0,10" fill="#2c3e50"/><polygon points="0,-22 -7,16 0,10" fill="#bdc3c7"/><text x="0" y="-26" font-size="12" font-family="Arial" font-weight="bold" text-anchor="middle" fill="#2c3e50">N</text></g>
</svg>