# https://github.com/mikedh/trimesh

o geometry_0
v -0.63189423 0.00000000 0.06145510 0.86274510 0.72549020 0.54901961
v -0.62959992 0.00000000 0.06473171 0.86274510 0.72549020 0.54901961
v -0.63189423 0.55000000 0.06145510 0.86274510 0.72549020 0.54901961
v -0.62959992 0.55000000 0.06473171 0.86274510 0.72549020 0.54901961
v -0.45168078 0.00000000 -0.06473171 0.86274510 0.72549020 0.54901961
v -0.44938647 0.00000000 -0.06145510 0.86274510 0.72549020 0.54901961
v -0.45168078 0.55000000 -0.06473171 0.86274510 0.72549020 0.54901961
v -0.44938647 0.55000000 -0.06145510 0.86274510 0.72549020 0.54901961
f 2 4 1
f 5 2 1
f 1 4 3
f 3 5 1
f 2 8 4
f 6 2 5
f 6 8 2
f 4 8 3
f 7 5 3
f 3 8 7
f 7 6 5
f 8 6 7

o geometry_1
v -0.44938647 0.00000000 0.06145510 0.29411765 0.30588235 0.33333333
v -0.45168078 0.00000000 0.06473171 0.29411765 0.30588235 0.33333333
v -0.44938647 0.55000000 0.06145510 0.29411765 0.30588235 0.33333333
v -0.45168078 0.55000000 0.06473171 0.29411765 0.30588235 0.33333333
v -0.26917302 0.00000000 0.18764192 0.29411765 0.30588235 0.33333333
v -0.27146733 0.00000000 0.19091853 0.29411765 0.30588235 0.33333333
v -0.26917302 0.55000000 0.18764192 0.29411765 0.30588235 0.33333333
v -0.27146733 0.55000000 0.19091853 0.29411765 0.30588235 0.33333333
f 10 12 9
f 13 10 9
f 9 12 11
f 11 13 9
f 10 16 12
f 14 10 13
f 14 16 10
f 12 16 11
f 15 13 11
f 11 16 15
f 15 14 13
f 16 14 15

o geometry_2
v -0.36042690 0.27500000 -0.13131318 1.00000000 0.96078431 0.82352941
v -0.35442690 0.27500000 -0.13131318 1.00000000 0.96078431 0.82352941
v -0.35442690 0.27500000 0.36368682 1.00000000 0.96078431 0.82352941
v -0.36042690 0.27500000 0.36368682 1.00000000 0.96078431 0.82352941
v -0.35488362 0.27729610 -0.13131318 1.00000000 0.96078431 0.82352941
v -0.35488362 0.27729610 0.36368682 1.00000000 0.96078431 0.82352941
v -0.35618426 0.27924264 -0.13131318 1.00000000 0.96078431 0.82352941
v -0.35618426 0.27924264 0.36368682 1.00000000 0.96078431 0.82352941
v -0.35813080 0.28054328 -0.13131318 1.00000000 0.96078431 0.82352941
v -0.35813080 0.28054328 0.36368682 1.00000000 0.96078431 0.82352941
v -0.36042690 0.28100000 -0.13131318 1.00000000 0.96078431 0.82352941
v -0.36042690 0.28100000 0.36368682 1.00000000 0.96078431 0.82352941
v -0.36272300 0.28054328 -0.13131318 1.00000000 0.96078431 0.82352941
v -0.36272300 0.28054328 0.36368682 1.00000000 0.96078431 0.82352941
v -0.36466954 0.27924264 -0.13131318 1.00000000 0.96078431 0.82352941
v -0.36466954 0.27924264 0.36368682 1.00000000 0.96078431 0.82352941
v -0.36597018 0.27729610 -0.13131318 1.00000000 0.96078431 0.82352941
v -0.36597018 0.27729610 0.36368682 1.00000000 0.96078431 0.82352941
v -0.36642690 0.27500000 -0.13131318 1.00000000 0.96078431 0.82352941
v -0.36642690 0.27500000 0.36368682 1.00000000 0.96078431 0.82352941
v -0.36597018 0.27270390 -0.13131318 1.00000000 0.96078431 0.82352941
v -0.36597018 0.27270390 0.36368682 1.00000000 0.96078431 0.82352941
v -0.36466954 0.27075736 -0.13131318 1.00000000 0.96078431 0.82352941
v -0.36466954 0.27075736 0.36368682 1.00000000 0.96078431 0.82352941
v -0.36272300 0.26945672 -0.13131318 1.00000000 0.96078431 0.82352941
v -0.36272300 0.26945672 0.36368682 1.00000000 0.96078431 0.82352941
v -0.36042690 0.26900000 -0.13131318 1.00000000 0.96078431 0.82352941
v -0.36042690 0.26900000 0.36368682 1.00000000 0.96078431 0.82352941
v -0.35813080 0.26945672 -0.13131318 1.00000000 0.96078431 0.82352941
v -0.35813080 0.26945672 0.36368682 1.00000000 0.96078431 0.82352941
v -0.35618426 0.27075736 -0.13131318 1.00000000 0.96078431 0.82352941
v -0.35618426 0.27075736 0.36368682 1.00000000 0.96078431 0.82352941
v -0.35488362 0.27270390 -0.13131318 1.00000000 0.96078431 0.82352941
v -0.35488362 0.27270390 0.36368682 1.00000000 0.96078431 0.82352941
f 18 17 21
f 18 21 19
f 19 21 22
f 19 22 20
f 21 17 23
f 21 23 22
f 22 23 24
f 22 24 20
f 23 17 25
f 23 25 24
f 24 25 26
f 24 26 20
f 25 17 27
f 25 27 26
f 26 27 28
f 26 28 20
f 27 17 29
f 27 29 28
f 28 29 30
f 28 30 20
f 29 17 31
f 29 31 30
f 30 31 32
f 30 32 20
f 31 17 33
f 31 33 32
f 32 33 34
f 32 34 20
f 33 17 35
f 33 35 34
f 34 35 36
f 34 36 20
f 35 17 37
f 35 37 36
f 36 37 38
f 36 38 20
f 37 17 39
f 37 39 38
f 38 39 40
f 38 40 20
f 39 17 41
f 39 41 40
f 40 41 42
f 40 42 20
f 41 17 43
f 41 43 42
f 42 43 44
f 42 44 20
f 43 17 45
f 43 45 44
f 44 45 46
f 44 46 20
f 45 17 47
f 45 47 46
f 46 47 48
f 46 48 20
f 47 17 49
f 47 49 48
f 48 49 50
f 48 50 20
f 49 17 18
f 49 18 50
f 50 18 19
f 50 19 20

o geometry_3
v -0.27146733 0.00000000 0.06145510 0.86274510 0.72549020 0.54901961
v -0.26917302 0.00000000 0.06473171 0.86274510 0.72549020 0.54901961
v -0.27146733 0.55000000 0.06145510 0.86274510 0.72549020 0.54901961
v -0.26917302 0.55000000 0.06473171 0.86274510 0.72549020 0.54901961
v -0.09125388 0.00000000 -0.06473171 0.86274510 0.72549020 0.54901961
v -0.08895957 0.00000000 -0.06145510 0.86274510 0.72549020 0.54901961
v -0.09125388 0.55000000 -0.06473171 0.86274510 0.72549020 0.54901961
v -0.08895957 0.55000000 -0.06145510 0.86274510 0.72549020 0.54901961
f 52 54 51
f 55 52 51
f 51 54 53
f 53 55 51
f 52 58 54
f 56 52 55
f 56 58 52
f 54 58 53
f 57 55 53
f 53 58 57
f 57 56 55
f 58 56 57

o geometry_4
v -0.08895957 0.00000000 0.06145510 0.29411765 0.30588235 0.33333333
v -0.09125388 0.00000000 0.06473171 0.29411765 0.30588235 0.33333333
v -0.08895957 0.55000000 0.06145510 0.29411765 0.30588235 0.33333333
v -0.09125388 0.55000000 0.06473171 0.29411765 0.30588235 0.33333333
v 0.09125388 0.00000000 0.18764192 0.29411765 0.30588235 0.33333333
v 0.08895957 0.00000000 0.19091853 0.29411765 0.30588235 0.33333333
v 0.09125388 0.55000000 0.18764192 0.29411765 0.30588235 0.33333333
v 0.08895957 0.55000000 0.19091853 0.29411765 0.30588235 0.33333333
f 60 62 59
f 63 60 59
f 59 62 61
f 61 63 59
f 60 66 62
f 64 60 63
f 64 66 60
f 62 66 61
f 65 63 61
f 61 66 65
f 65 64 63
f 66 64 65

o geometry_5
v 0.00000000 0.27500000 -0.13131318 1.00000000 0.96078431 0.82352941
v 0.00600000 0.27500000 -0.13131318 1.00000000 0.96078431 0.82352941
v 0.00600000 0.27500000 0.36368682 1.00000000 0.96078431 0.82352941
v 0.00000000 0.27500000 0.36368682 1.00000000 0.96078431 0.82352941
v 0.00554328 0.27729610 -0.13131318 1.00000000 0.96078431 0.82352941
v 0.00554328 0.27729610 0.36368682 1.00000000 0.96078431 0.82352941
v 0.00424264 0.27924264 -0.13131318 1.00000000 0.96078431 0.82352941
v 0.00424264 0.27924264 0.36368682 1.00000000 0.96078431 0.82352941
v 0.00229610 0.28054328 -0.13131318 1.00000000 0.96078431 0.82352941
v 0.00229610 0.28054328 0.36368682 1.00000000 0.96078431 0.82352941
v 0.00000000 0.28100000 -0.13131318 1.00000000 0.96078431 0.82352941
v 0.00000000 0.28100000 0.36368682 1.00000000 0.96078431 0.82352941
v -0.00229610 0.28054328 -0.13131318 1.00000000 0.96078431 0.82352941
v -0.00229610 0.28054328 0.36368682 1.00000000 0.96078431 0.82352941
v -0.00424264 0.27924264 -0.13131318 1.00000000 0.96078431 0.82352941
v -0.00424264 0.27924264 0.36368682 1.00000000 0.96078431 0.82352941
v -0.00554328 0.27729610 -0.13131318 1.00000000 0.96078431 0.82352941
v -0.00554328 0.27729610 0.36368682 1.00000000 0.96078431 0.82352941
v -0.00600000 0.27500000 -0.13131318 1.00000000 0.96078431 0.82352941
v -0.00600000 0.27500000 0.36368682 1.00000000 0.96078431 0.82352941
v -0.00554328 0.27270390 -0.13131318 1.00000000 0.96078431 0.82352941
v -0.00554328 0.27270390 0.36368682 1.00000000 0.96078431 0.82352941
v -0.00424264 0.27075736 -0.13131318 1.00000000 0.96078431 0.82352941
v -0.00424264 0.27075736 0.36368682 1.00000000 0.96078431 0.82352941
v -0.00229610 0.26945672 -0.13131318 1.00000000 0.96078431 0.82352941
v -0.00229610 0.26945672 0.36368682 1.00000000 0.96078431 0.82352941
v -0.00000000 0.26900000 -0.13131318 1.00000000 0.96078431 0.82352941
v -0.00000000 0.26900000 0.36368682 1.00000000 0.96078431 0.82352941
v 0.00229610 0.26945672 -0.13131318 1.00000000 0.96078431 0.82352941
v 0.00229610 0.26945672 0.36368682 1.00000000 0.96078431 0.82352941
v 0.00424264 0.27075736 -0.13131318 1.00000000 0.96078431 0.82352941
v 0.00424264 0.27075736 0.36368682 1.00000000 0.96078431 0.82352941
v 0.00554328 0.27270390 -0.13131318 1.00000000 0.96078431 0.82352941
v 0.00554328 0.27270390 0.36368682 1.00000000 0.96078431 0.82352941
f 68 67 71
f 68 71 69
f 69 71 72
f 69 72 70
f 71 67 73
f 71 73 72
f 72 73 74
f 72 74 70
f 73 67 75
f 73 75 74
f 74 75 76
f 74 76 70
f 75 67 77
f 75 77 76
f 76 77 78
f 76 78 70
f 77 67 79
f 77 79 78
f 78 79 80
f 78 80 70
f 79 67 81
f 79 81 80
f 80 81 82
f 80 82 70
f 81 67 83
f 81 83 82
f 82 83 84
f 82 84 70
f 83 67 85
f 83 85 84
f 84 85 86
f 84 86 70
f 85 67 87
f 85 87 86
f 86 87 88
f 86 88 70
f 87 67 89
f 87 89 88
f 88 89 90
f 88 90 70
f 89 67 91
f 89 91 90
f 90 91 92
f 90 92 70
f 91 67 93
f 91 93 92
f 92 93 94
f 92 94 70
f 93 67 95
f 93 95 94
f 94 95 96
f 94 96 70
f 95 67 97
f 95 97 96
f 96 97 98
f 96 98 70
f 97 67 99
f 97 99 98
f 98 99 100
f 98 100 70
f 99 67 68
f 99 68 100
f 100 68 69
f 100 69 70

o geometry_6
v 0.08895957 0.00000000 0.06145510 0.86274510 0.72549020 0.54901961
v 0.09125388 0.00000000 0.06473171 0.86274510 0.72549020 0.54901961
v 0.08895957 0.55000000 0.06145510 0.86274510 0.72549020 0.54901961
v 0.09125388 0.55000000 0.06473171 0.86274510 0.72549020 0.54901961
v 0.26917302 0.00000000 -0.06473171 0.86274510 0.72549020 0.54901961
v 0.27146733 0.00000000 -0.06145510 0.86274510 0.72549020 0.54901961
v 0.26917302 0.55000000 -0.06473171 0.86274510 0.72549020 0.54901961
v 0.27146733 0.55000000 -0.06145510 0.86274510 0.72549020 0.54901961
f 102 104 101
f 105 102 101
f 101 104 103
f 103 105 101
f 102 108 104
f 106 102 105
f 106 108 102
f 104 108 103
f 107 105 103
f 103 108 107
f 107 106 105
f 108 106 107

o geometry_7
v 0.27146733 0.00000000 0.06145510 0.29411765 0.30588235 0.33333333
v 0.26917302 0.00000000 0.06473171 0.29411765 0.30588235 0.33333333
v 0.27146733 0.55000000 0.06145510 0.29411765 0.30588235 0.33333333
v 0.26917302 0.55000000 0.06473171 0.29411765 0.30588235 0.33333333
v 0.45168078 0.00000000 0.18764192 0.29411765 0.30588235 0.33333333
v 0.44938647 0.00000000 0.19091853 0.29411765 0.30588235 0.33333333
v 0.45168078 0.55000000 0.18764192 0.29411765 0.30588235 0.33333333
v 0.44938647 0.55000000 0.19091853 0.29411765 0.30588235 0.33333333
f 110 112 109
f 113 110 109
f 109 112 111
f 111 113 109
f 110 116 112
f 114 110 113
f 114 116 110
f 112 116 111
f 115 113 111
f 111 116 115
f 115 114 113
f 116 114 115

o geometry_8
v 0.36042690 0.27500000 -0.13131318 1.00000000 0.96078431 0.82352941
v 0.36642690 0.27500000 -0.13131318 1.00000000 0.96078431 0.82352941
v 0.36642690 0.27500000 0.36368682 1.00000000 0.96078431 0.82352941
v 0.36042690 0.27500000 0.36368682 1.00000000 0.96078431 0.82352941
v 0.36597018 0.27729610 -0.13131318 1.00000000 0.96078431 0.82352941
v 0.36597018 0.27729610 0.36368682 1.00000000 0.96078431 0.82352941
v 0.36466954 0.27924264 -0.13131318 1.00000000 0.96078431 0.82352941
v 0.36466954 0.27924264 0.36368682 1.00000000 0.96078431 0.82352941
v 0.36272300 0.28054328 -0.13131318 1.00000000 0.96078431 0.82352941
v 0.36272300 0.28054328 0.36368682 1.00000000 0.96078431 0.82352941
v 0.36042690 0.28100000 -0.13131318 1.00000000 0.96078431 0.82352941
v 0.36042690 0.28100000 0.36368682 1.00000000 0.96078431 0.82352941
v 0.35813080 0.28054328 -0.13131318 1.00000000 0.96078431 0.82352941
v 0.35813080 0.28054328 0.36368682 1.00000000 0.96078431 0.82352941
v 0.35618426 0.27924264 -0.13131318 1.00000000 0.96078431 0.82352941
v 0.35618426 0.27924264 0.36368682 1.00000000 0.96078431 0.82352941
v 0.35488362 0.27729610 -0.13131318 1.00000000 0.96078431 0.82352941
v 0.35488362 0.27729610 0.36368682 1.00000000 0.96078431 0.82352941
v 0.35442690 0.27500000 -0.13131318 1.00000000 0.96078431 0.82352941
v 0.35442690 0.27500000 0.36368682 1.00000000 0.96078431 0.82352941
v 0.35488362 0.27270390 -0.13131318 1.00000000 0.96078431 0.82352941
v 0.35488362 0.27270390 0.36368682 1.00000000 0.96078431 0.82352941
v 0.35618426 0.27075736 -0.13131318 1.00000000 0.96078431 0.82352941
v 0.35618426 0.27075736 0.36368682 1.00000000 0.96078431 0.82352941
v 0.35813080 0.26945672 -0.13131318 1.00000000 0.96078431 0.82352941
v 0.35813080 0.26945672 0.36368682 1.00000000 0.96078431 0.82352941
v 0.36042690 0.26900000 -0.13131318 1.00000000 0.96078431 0.82352941
v 0.36042690 0.26900000 0.36368682 1.00000000 0.96078431 0.82352941
v 0.36272300 0.26945672 -0.13131318 1.00000000 0.96078431 0.82352941
v 0.36272300 0.26945672 0.36368682 1.00000000 0.96078431 0.82352941
v 0.36466954 0.27075736 -0.13131318 1.00000000 0.96078431 0.82352941
v 0.36466954 0.27075736 0.36368682 1.00000000 0.96078431 0.82352941
v 0.36597018 0.27270390 -0.13131318 1.00000000 0.96078431 0.82352941
v 0.36597018 0.27270390 0.36368682 1.00000000 0.96078431 0.82352941
f 118 117 121
f 118 121 119
f 119 121 122
f 119 122 120
f 121 117 123
f 121 123 122
f 122 123 124
f 122 124 120
f 123 117 125
f 123 125 124
f 124 125 126
f 124 126 120
f 125 117 127
f 125 127 126
f 126 127 128
f 126 128 120
f 127 117 129
f 127 129 128
f 128 129 130
f 128 130 120
f 129 117 131
f 129 131 130
f 130 131 132
f 130 132 120
f 131 117 133
f 131 133 132
f 132 133 134
f 132 134 120
f 133 117 135
f 133 135 134
f 134 135 136
f 134 136 120
f 135 117 137
f 135 137 136
f 136 137 138
f 136 138 120
f 137 117 139
f 137 139 138
f 138 139 140
f 138 140 120
f 139 117 141
f 139 141 140
f 140 141 142
f 140 142 120
f 141 117 143
f 141 143 142
f 142 143 144
f 142 144 120
f 143 117 145
f 143 145 144
f 144 145 146
f 144 146 120
f 145 117 147
f 145 147 146
f 146 147 148
f 146 148 120
f 147 117 149
f 147 149 148
f 148 149 150
f 148 150 120
f 149 117 118
f 149 118 150
f 150 118 119
f 150 119 120

