# https://github.com/mikedh/trimesh

o geometry_0
v 0.19801479 0.09500000 0.09188076 0.86274510 0.72549020 0.54901961
v 0.34290367 0.09500000 0.05305790 0.86274510 0.72549020 0.54901961
v 0.29046076 0.26857364 0.14711604 0.86274510 0.72549020 0.54901961
v 0.19872412 0.09377979 0.09452801 0.86274510 0.72549020 0.54901961
v 0.34361300 0.09377979 0.05570516 0.86274510 0.72549020 0.54901961
v 0.29117009 0.26735343 0.14976330 0.86274510 0.72549020 0.54901961
f 1 3 2
f 4 5 6
f 1 2 5
f 1 5 4
f 2 3 6
f 2 6 5
f 3 1 4
f 3 4 6

o geometry_1
v 0.34290367 -0.09500000 0.05305790 0.29411765 0.30588235 0.33333333
v 0.19801479 -0.09500000 0.09188076 0.29411765 0.30588235 0.33333333
v 0.29046076 -0.26857364 0.14711604 0.29411765 0.30588235 0.33333333
v 0.34361300 -0.09377979 0.05570516 0.29411765 0.30588235 0.33333333
v 0.19872412 -0.09377979 0.09452801 0.29411765 0.30588235 0.33333333
v 0.29117009 -0.26735343 0.14976330 0.29411765 0.30588235 0.33333333
f 7 9 8
f 10 11 12
f 7 8 11
f 7 11 10
f 8 9 12
f 8 12 11
f 9 7 10
f 9 10 12

o geometry_2
v 0.14495689 0.09500000 0.25102291 0.86274510 0.72549020 0.54901961
v 0.25102291 0.09500000 0.14495689 0.86274510 0.72549020 0.54901961
v 0.25263508 0.26857364 0.25263508 0.86274510 0.72549020 0.54901961
v 0.14689481 0.09377979 0.25296083 0.86274510 0.72549020 0.54901961
v 0.25296083 0.09377979 0.14689481 0.86274510 0.72549020 0.54901961
v 0.25457301 0.26735343 0.25457301 0.86274510 0.72549020 0.54901961
f 13 15 14
f 16 17 18
f 13 14 17
f 13 17 16
f 14 15 18
f 14 18 17
f 15 13 16
f 15 16 18

o geometry_3
v 0.25102291 -0.09500000 0.14495689 0.29411765 0.30588235 0.33333333
v 0.14495689 -0.09500000 0.25102291 0.29411765 0.30588235 0.33333333
v 0.25263508 -0.26857364 0.25263508 0.29411765 0.30588235 0.33333333
v 0.25296083 -0.09377979 0.14689481 0.29411765 0.30588235 0.33333333
v 0.14689481 -0.09377979 0.25296083 0.29411765 0.30588235 0.33333333
v 0.25457301 -0.26735343 0.25457301 0.29411765 0.30588235 0.33333333
f 19 21 20
f 22 23 24
f 19 20 23
f 19 23 22
f 20 21 24
f 20 24 23
f 21 19 22
f 21 22 24

o geometry_4
v 0.05305790 0.09500000 0.34290367 0.86274510 0.72549020 0.54901961
v 0.09188076 0.09500000 0.19801479 0.86274510 0.72549020 0.54901961
v 0.14711604 0.26857364 0.29046076 0.86274510 0.72549020 0.54901961
v 0.05570516 0.09377979 0.34361300 0.86274510 0.72549020 0.54901961
v 0.09452801 0.09377979 0.19872412 0.86274510 0.72549020 0.54901961
v 0.14976330 0.26735343 0.29117009 0.86274510 0.72549020 0.54901961
f 25 27 26
f 28 29 30
f 25 26 29
f 25 29 28
f 26 27 30
f 26 30 29
f 27 25 28
f 27 28 30

o geometry_5
v 0.09188076 -0.09500000 0.19801479 0.29411765 0.30588235 0.33333333
v 0.05305790 -0.09500000 0.34290367 0.29411765 0.30588235 0.33333333
v 0.14711604 -0.26857364 0.29046076 0.29411765 0.30588235 0.33333333
v 0.09452801 -0.09377979 0.19872412 0.29411765 0.30588235 0.33333333
v 0.05570516 -0.09377979 0.34361300 0.29411765 0.30588235 0.33333333
v 0.14976330 -0.26735343 0.29117009 0.29411765 0.30588235 0.33333333
f 31 33 32
f 34 35 36
f 31 32 35
f 31 35 34
f 32 33 36
f 32 36 35
f 33 31 34
f 33 34 36

o geometry_6
v -0.05305790 0.09500000 0.34290367 0.86274510 0.72549020 0.54901961
v -0.09188076 0.09500000 0.19801479 0.86274510 0.72549020 0.54901961
v 0.00217738 0.26857364 0.25045771 0.86274510 0.72549020 0.54901961
v -0.05041065 0.09377979 0.34219434 0.86274510 0.72549020 0.54901961
v -0.08923351 0.09377979 0.19730547 0.86274510 0.72549020 0.54901961
v 0.00482463 0.26735343 0.24974838 0.86274510 0.72549020 0.54901961
f 37 39 38
f 40 41 42
f 37 38 41
f 37 41 40
f 38 39 42
f 38 42 41
f 39 37 40
f 39 40 42

o geometry_7
v -0.09188076 -0.09500000 0.19801479 0.29411765 0.30588235 0.33333333
v -0.05305790 -0.09500000 0.34290367 0.29411765 0.30588235 0.33333333
v 0.00217738 -0.26857364 0.25045771 0.29411765 0.30588235 0.33333333
v -0.08923351 -0.09377979 0.19730547 0.29411765 0.30588235 0.33333333
v -0.05041065 -0.09377979 0.34219434 0.29411765 0.30588235 0.33333333
v 0.00482463 -0.26735343 0.24974838 0.29411765 0.30588235 0.33333333
f 43 45 44
f 46 47 48
f 43 44 47
f 43 47 46
f 44 45 48
f 44 48 47
f 45 43 46
f 45 46 48

o geometry_8
v -0.14495689 0.09500000 0.25102291 0.86274510 0.72549020 0.54901961
v -0.25102291 0.09500000 0.14495689 0.86274510 0.72549020 0.54901961
v -0.14334471 0.26857364 0.14334471 0.86274510 0.72549020 0.54901961
v -0.14301897 0.09377979 0.24908498 0.86274510 0.72549020 0.54901961
v -0.24908498 0.09377979 0.14301897 0.86274510 0.72549020 0.54901961
v -0.14140679 0.26735343 0.14140679 0.86274510 0.72549020 0.54901961
f 49 51 50
f 52 53 54
f 49 50 53
f 49 53 52
f 50 51 54
f 50 54 53
f 51 49 52
f 51 52 54

o geometry_9
v -0.25102291 -0.09500000 0.14495689 0.29411765 0.30588235 0.33333333
v -0.14495689 -0.09500000 0.25102291 0.29411765 0.30588235 0.33333333
v -0.14334471 -0.26857364 0.14334471 0.29411765 0.30588235 0.33333333
v -0.24908498 -0.09377979 0.14301897 0.29411765 0.30588235 0.33333333
v -0.14301897 -0.09377979 0.24908498 0.29411765 0.30588235 0.33333333
v -0.14140679 -0.26735343 0.14140679 0.29411765 0.30588235 0.33333333
f 55 57 56
f 58 59 60
f 55 56 59
f 55 59 58
f 56 57 60
f 56 60 59
f 57 55 58
f 57 58 60

o geometry_10
v -0.19801479 0.09500000 0.09188076 0.86274510 0.72549020 0.54901961
v -0.34290367 0.09500000 0.05305790 0.86274510 0.72549020 0.54901961
v -0.25045771 0.26857364 -0.00217738 0.86274510 0.72549020 0.54901961
v -0.19730547 0.09377979 0.08923351 0.86274510 0.72549020 0.54901961
v -0.34219434 0.09377979 0.05041065 0.86274510 0.72549020 0.54901961
v -0.24974838 0.26735343 -0.00482463 0.86274510 0.72549020 0.54901961
f 61 63 62
f 64 65 66
f 61 62 65
f 61 65 64
f 62 63 66
f 62 66 65
f 63 61 64
f 63 64 66

o geometry_11
v -0.34290367 -0.09500000 0.05305790 0.29411765 0.30588235 0.33333333
v -0.19801479 -0.09500000 0.09188076 0.29411765 0.30588235 0.33333333
v -0.25045771 -0.26857364 -0.00217738 0.29411765 0.30588235 0.33333333
v -0.34219434 -0.09377979 0.05041065 0.29411765 0.30588235 0.33333333
v -0.19730547 -0.09377979 0.08923351 0.29411765 0.30588235 0.33333333
v -0.24974838 -0.26735343 -0.00482463 0.29411765 0.30588235 0.33333333
f 67 69 68
f 70 71 72
f 67 68 71
f 67 71 70
f 68 69 72
f 68 72 71
f 69 67 70
f 69 70 72

o geometry_12
v -0.19801479 0.09500000 -0.09188076 0.86274510 0.72549020 0.54901961
v -0.34290367 0.09500000 -0.05305790 0.86274510 0.72549020 0.54901961
v -0.29046076 0.26857364 -0.14711604 0.86274510 0.72549020 0.54901961
v -0.19872412 0.09377979 -0.09452801 0.86274510 0.72549020 0.54901961
v -0.34361300 0.09377979 -0.05570516 0.86274510 0.72549020 0.54901961
v -0.29117009 0.26735343 -0.14976330 0.86274510 0.72549020 0.54901961
f 73 75 74
f 76 77 78
f 73 74 77
f 73 77 76
f 74 75 78
f 74 78 77
f 75 73 76
f 75 76 78

o geometry_13
v -0.34290367 -0.09500000 -0.05305790 0.29411765 0.30588235 0.33333333
v -0.19801479 -0.09500000 -0.09188076 0.29411765 0.30588235 0.33333333
v -0.29046076 -0.26857364 -0.14711604 0.29411765 0.30588235 0.33333333
v -0.34361300 -0.09377979 -0.05570516 0.29411765 0.30588235 0.33333333
v -0.19872412 -0.09377979 -0.09452801 0.29411765 0.30588235 0.33333333
v -0.29117009 -0.26735343 -0.14976330 0.29411765 0.30588235 0.33333333
f 79 81 80
f 82 83 84
f 79 80 83
f 79 83 82
f 80 81 84
f 80 84 83
f 81 79 82
f 81 82 84

o geometry_14
v -0.14495689 0.09500000 -0.25102291 0.86274510 0.72549020 0.54901961
v -0.25102291 0.09500000 -0.14495689 0.86274510 0.72549020 0.54901961
v -0.25263508 0.26857364 -0.25263508 0.86274510 0.72549020 0.54901961
v -0.14689481 0.09377979 -0.25296083 0.86274510 0.72549020 0.54901961
v -0.25296083 0.09377979 -0.14689481 0.86274510 0.72549020 0.54901961
v -0.25457301 0.26735343 -0.25457301 0.86274510 0.72549020 0.54901961
f 85 87 86
f 88 89 90
f 85 86 89
f 85 89 88
f 86 87 90
f 86 90 89
f 87 85 88
f 87 88 90

o geometry_15
v -0.25102291 -0.09500000 -0.14495689 0.29411765 0.30588235 0.33333333
v -0.14495689 -0.09500000 -0.25102291 0.29411765 0.30588235 0.33333333
v -0.25263508 -0.26857364 -0.25263508 0.29411765 0.30588235 0.33333333
v -0.25296083 -0.09377979 -0.14689481 0.29411765 0.30588235 0.33333333
v -0.14689481 -0.09377979 -0.25296083 0.29411765 0.30588235 0.33333333
v -0.25457301 -0.26735343 -0.25457301 0.29411765 0.30588235 0.33333333
f 91 93 92
f 94 95 96
f 91 92 95
f 91 95 94
f 92 93 96
f 92 96 95
f 93 91 94
f 93 94 96

o geometry_16
v -0.05305790 0.09500000 -0.34290367 0.86274510 0.72549020 0.54901961
v -0.09188076 0.09500000 -0.19801479 0.86274510 0.72549020 0.54901961
v -0.14711604 0.26857364 -0.29046076 0.86274510 0.72549020 0.54901961
v -0.05570516 0.09377979 -0.34361300 0.86274510 0.72549020 0.54901961
v -0.09452801 0.09377979 -0.19872412 0.86274510 0.72549020 0.54901961
v -0.14976330 0.26735343 -0.29117009 0.86274510 0.72549020 0.54901961
f 97 99 98
f 100 101 102
f 97 98 101
f 97 101 100
f 98 99 102
f 98 102 101
f 99 97 100
f 99 100 102

o geometry_17
v -0.09188076 -0.09500000 -0.19801479 0.29411765 0.30588235 0.33333333
v -0.05305790 -0.09500000 -0.34290367 0.29411765 0.30588235 0.33333333
v -0.14711604 -0.26857364 -0.29046076 0.29411765 0.30588235 0.33333333
v -0.09452801 -0.09377979 -0.19872412 0.29411765 0.30588235 0.33333333
v -0.05570516 -0.09377979 -0.34361300 0.29411765 0.30588235 0.33333333
v -0.14976330 -0.26735343 -0.29117009 0.29411765 0.30588235 0.33333333
f 103 105 104
f 106 107 108
f 103 104 107
f 103 107 106
f 104 105 108
f 104 108 107
f 105 103 106
f 105 106 108

o geometry_18
v 0.05305790 0.09500000 -0.34290367 0.86274510 0.72549020 0.54901961
v 0.09188076 0.09500000 -0.19801479 0.86274510 0.72549020 0.54901961
v -0.00217738 0.26857364 -0.25045771 0.86274510 0.72549020 0.54901961
v 0.05041065 0.09377979 -0.34219434 0.86274510 0.72549020 0.54901961
v 0.08923351 0.09377979 -0.19730547 0.86274510 0.72549020 0.54901961
v -0.00482463 0.26735343 -0.24974838 0.86274510 0.72549020 0.54901961
f 109 111 110
f 112 113 114
f 109 110 113
f 109 113 112
f 110 111 114
f 110 114 113
f 111 109 112
f 111 112 114

o geometry_19
v 0.09188076 -0.09500000 -0.19801479 0.29411765 0.30588235 0.33333333
v 0.05305790 -0.09500000 -0.34290367 0.29411765 0.30588235 0.33333333
v -0.00217738 -0.26857364 -0.25045771 0.29411765 0.30588235 0.33333333
v 0.08923351 -0.09377979 -0.19730547 0.29411765 0.30588235 0.33333333
v 0.05041065 -0.09377979 -0.34219434 0.29411765 0.30588235 0.33333333
v -0.00482463 -0.26735343 -0.24974838 0.29411765 0.30588235 0.33333333
f 115 117 116
f 118 119 120
f 115 116 119
f 115 119 118
f 116 117 120
f 116 120 119
f 117 115 118
f 117 118 120

o geometry_20
v 0.14495689 0.09500000 -0.25102291 0.86274510 0.72549020 0.54901961
v 0.25102291 0.09500000 -0.14495689 0.86274510 0.72549020 0.54901961
v 0.14334471 0.26857364 -0.14334471 0.86274510 0.72549020 0.54901961
v 0.14301897 0.09377979 -0.24908498 0.86274510 0.72549020 0.54901961
v 0.24908498 0.09377979 -0.14301897 0.86274510 0.72549020 0.54901961
v 0.14140679 0.26735343 -0.14140679 0.86274510 0.72549020 0.54901961
f 121 123 122
f 124 125 126
f 121 122 125
f 121 125 124
f 122 123 126
f 122 126 125
f 123 121 124
f 123 124 126

o geometry_21
v 0.25102291 -0.09500000 -0.14495689 0.29411765 0.30588235 0.33333333
v 0.14495689 -0.09500000 -0.25102291 0.29411765 0.30588235 0.33333333
v 0.14334471 -0.26857364 -0.14334471 0.29411765 0.30588235 0.33333333
v 0.24908498 -0.09377979 -0.14301897 0.29411765 0.30588235 0.33333333
v 0.14301897 -0.09377979 -0.24908498 0.29411765 0.30588235 0.33333333
v 0.14140679 -0.26735343 -0.14140679 0.29411765 0.30588235 0.33333333
f 127 129 128
f 130 131 132
f 127 128 131
f 127 131 130
f 128 129 132
f 128 132 131
f 129 127 130
f 129 130 132

o geometry_22
v 0.19801479 0.09500000 -0.09188076 0.86274510 0.72549020 0.54901961
v 0.34290367 0.09500000 -0.05305790 0.86274510 0.72549020 0.54901961
v 0.25045771 0.26857364 0.00217738 0.86274510 0.72549020 0.54901961
v 0.19730547 0.09377979 -0.08923351 0.86274510 0.72549020 0.54901961
v 0.34219434 0.09377979 -0.05041065 0.86274510 0.72549020 0.54901961
v 0.24974838 0.26735343 0.00482463 0.86274510 0.72549020 0.54901961
f 133 135 134
f 136 137 138
f 133 134 137
f 133 137 136
f 134 135 138
f 134 138 137
f 135 133 136
f 135 136 138

o geometry_23
v 0.34290367 -0.09500000 -0.05305790 0.29411765 0.30588235 0.33333333
v 0.19801479 -0.09500000 -0.09188076 0.29411765 0.30588235 0.33333333
v 0.25045771 -0.26857364 0.00217738 0.29411765 0.30588235 0.33333333
v 0.34219434 -0.09377979 -0.05041065 0.29411765 0.30588235 0.33333333
v 0.19730547 -0.09377979 -0.08923351 0.29411765 0.30588235 0.33333333
v 0.24974838 -0.26735343 0.00482463 0.29411765 0.30588235 0.33333333
f 139 141 140
f 142 143 144
f 139 140 143
f 139 143 142
f 140 141 144
f 140 144 143
f 141 139 142
f 141 142 144

o geometry_24
v -0.04205849 0.06805206 0.00000000 1.00000000 0.94117647 0.78431373
v 0.04205849 0.06805206 0.00000000 1.00000000 0.94117647 0.78431373
v -0.04205849 -0.06805206 0.00000000 1.00000000 0.94117647 0.78431373
v 0.04205849 -0.06805206 0.00000000 1.00000000 0.94117647 0.78431373
v 0.00000000 -0.04205849 0.06805206 1.00000000 0.94117647 0.78431373
v 0.00000000 0.04205849 0.06805206 1.00000000 0.94117647 0.78431373
v 0.00000000 -0.04205849 -0.06805206 1.00000000 0.94117647 0.78431373
v 0.00000000 0.04205849 -0.06805206 1.00000000 0.94117647 0.78431373
v 0.06805206 0.00000000 -0.04205849 1.00000000 0.94117647 0.78431373
v 0.06805206 0.00000000 0.04205849 1.00000000 0.94117647 0.78431373
v -0.06805206 0.00000000 -0.04205849 1.00000000 0.94117647 0.78431373
v -0.06805206 0.00000000 0.04205849 1.00000000 0.94117647 0.78431373
v 0.00000000 0.08000000 0.00000000 1.00000000 0.94117647 0.78431373
v 0.00000000 -0.08000000 0.00000000 1.00000000 0.94117647 0.78431373
v -0.02472136 -0.06472136 0.04000000 1.00000000 0.94117647 0.78431373
v 0.02472136 -0.06472136 0.04000000 1.00000000 0.94117647 0.78431373
v -0.02472136 0.06472136 0.04000000 1.00000000 0.94117647 0.78431373
v 0.02472136 0.06472136 0.04000000 1.00000000 0.94117647 0.78431373
v 0.00000000 0.00000000 0.08000000 1.00000000 0.94117647 0.78431373
v -0.02472136 -0.06472136 -0.04000000 1.00000000 0.94117647 0.78431373
v 0.02472136 -0.06472136 -0.04000000 1.00000000 0.94117647 0.78431373
v -0.02472136 0.06472136 -0.04000000 1.00000000 0.94117647 0.78431373
v 0.02472136 0.06472136 -0.04000000 1.00000000 0.94117647 0.78431373
v 0.00000000 0.00000000 -0.08000000 1.00000000 0.94117647 0.78431373
v 0.06472136 0.04000000 -0.02472136 1.00000000 0.94117647 0.78431373
v 0.06472136 -0.04000000 -0.02472136 1.00000000 0.94117647 0.78431373
v 0.04000000 -0.02472136 -0.06472136 1.00000000 0.94117647 0.78431373
v 0.04000000 0.02472136 -0.06472136 1.00000000 0.94117647 0.78431373
v 0.06472136 0.04000000 0.02472136 1.00000000 0.94117647 0.78431373
v 0.06472136 -0.04000000 0.02472136 1.00000000 0.94117647 0.78431373
v 0.04000000 -0.02472136 0.06472136 1.00000000 0.94117647 0.78431373
v 0.04000000 0.02472136 0.06472136 1.00000000 0.94117647 0.78431373
v 0.08000000 0.00000000 0.00000000 1.00000000 0.94117647 0.78431373
v -0.06472136 0.04000000 -0.02472136 1.00000000 0.94117647 0.78431373
v -0.06472136 -0.04000000 -0.02472136 1.00000000 0.94117647 0.78431373
v -0.04000000 -0.02472136 -0.06472136 1.00000000 0.94117647 0.78431373
v -0.04000000 0.02472136 -0.06472136 1.00000000 0.94117647 0.78431373
v -0.06472136 0.04000000 0.02472136 1.00000000 0.94117647 0.78431373
v -0.06472136 -0.04000000 0.02472136 1.00000000 0.94117647 0.78431373
v -0.04000000 -0.02472136 0.06472136 1.00000000 0.94117647 0.78431373
v -0.04000000 0.02472136 0.06472136 1.00000000 0.94117647 0.78431373
v -0.08000000 0.00000000 0.00000000 1.00000000 0.94117647 0.78431373
v -0.02186132 0.07695507 0.00000000 1.00000000 0.94117647 0.78431373
v 0.02186132 0.07695507 0.00000000 1.00000000 0.94117647 0.78431373
v -0.02186132 -0.07695507 0.00000000 1.00000000 0.94117647 0.78431373
v 0.02186132 -0.07695507 0.00000000 1.00000000 0.94117647 0.78431373
v -0.03471109 -0.06901348 0.02079135 1.00000000 0.94117647 0.78431373
v -0.01284976 -0.05550244 0.05616372 1.00000000 0.94117647 0.78431373
v -0.01299679 -0.07608452 0.02102924 1.00000000 0.94117647 0.78431373
v 0.03471109 -0.06901348 0.02079135 1.00000000 0.94117647 0.78431373
v 0.01284976 -0.05550244 0.05616372 1.00000000 0.94117647 0.78431373
v 0.01299679 -0.07608452 0.02102924 1.00000000 0.94117647 0.78431373
v 0.00000000 -0.06805206 0.04205849 1.00000000 0.94117647 0.78431373
v -0.03471109 0.06901348 0.02079135 1.00000000 0.94117647 0.78431373
v -0.01284976 0.05550244 0.05616372 1.00000000 0.94117647 0.78431373
v -0.01299679 0.07608452 0.02102924 1.00000000 0.94117647 0.78431373
v 0.03471109 0.06901348 0.02079135 1.00000000 0.94117647 0.78431373
v 0.01284976 0.05550244 0.05616372 1.00000000 0.94117647 0.78431373
v 0.01299679 0.07608452 0.02102924 1.00000000 0.94117647 0.78431373
v 0.00000000 0.06805206 0.04205849 1.00000000 0.94117647 0.78431373
v 0.00000000 -0.02186132 0.07695507 1.00000000 0.94117647 0.78431373
v 0.00000000 0.02186132 0.07695507 1.00000000 0.94117647 0.78431373
v -0.03471109 -0.06901348 -0.02079135 1.00000000 0.94117647 0.78431373
v -0.01284976 -0.05550244 -0.05616372 1.00000000 0.94117647 0.78431373
v -0.01299679 -0.07608452 -0.02102924 1.00000000 0.94117647 0.78431373
v 0.03471109 -0.06901348 -0.02079135 1.00000000 0.94117647 0.78431373
v 0.01284976 -0.05550244 -0.05616372 1.00000000 0.94117647 0.78431373
v 0.01299679 -0.07608452 -0.02102924 1.00000000 0.94117647 0.78431373
v 0.00000000 -0.06805206 -0.04205849 1.00000000 0.94117647 0.78431373
v -0.03471109 0.06901348 -0.02079135 1.00000000 0.94117647 0.78431373
v -0.01284976 0.05550244 -0.05616372 1.00000000 0.94117647 0.78431373
v -0.01299679 0.07608452 -0.02102924 1.00000000 0.94117647 0.78431373
v 0.03471109 0.06901348 -0.02079135 1.00000000 0.94117647 0.78431373
v 0.01284976 0.05550244 -0.05616372 1.00000000 0.94117647 0.78431373
v 0.01299679 0.07608452 -0.02102924 1.00000000 0.94117647 0.78431373
v 0.00000000 0.06805206 -0.04205849 1.00000000 0.94117647 0.78431373
v 0.00000000 -0.02186132 -0.07695507 1.00000000 0.94117647 0.78431373
v 0.00000000 0.02186132 -0.07695507 1.00000000 0.94117647 0.78431373
v 0.05550244 0.05616372 -0.01284976 1.00000000 0.94117647 0.78431373
v 0.06901348 0.02079135 -0.03471109 1.00000000 0.94117647 0.78431373
v 0.04702282 0.05505528 -0.03402603 1.00000000 0.94117647 0.78431373
v 0.05550244 -0.05616372 -0.01284976 1.00000000 0.94117647 0.78431373
v 0.06901348 -0.02079135 -0.03471109 1.00000000 0.94117647 0.78431373
v 0.04702282 -0.05505528 -0.03402603 1.00000000 0.94117647 0.78431373
v 0.02079135 -0.03471109 -0.06901348 1.00000000 0.94117647 0.78431373
v 0.05616372 -0.01284976 -0.05550244 1.00000000 0.94117647 0.78431373
v 0.03402603 -0.04702282 -0.05505528 1.00000000 0.94117647 0.78431373
v 0.02102924 -0.01299679 -0.07608452 1.00000000 0.94117647 0.78431373
v 0.05505528 -0.03402603 -0.04702282 1.00000000 0.94117647 0.78431373
v 0.02079135 0.03471109 -0.06901348 1.00000000 0.94117647 0.78431373
v 0.05616372 0.01284976 -0.05550244 1.00000000 0.94117647 0.78431373
v 0.03402603 0.04702282 -0.05505528 1.00000000 0.94117647 0.78431373
v 0.02102924 0.01299679 -0.07608452 1.00000000 0.94117647 0.78431373
v 0.05505528 0.03402603 -0.04702282 1.00000000 0.94117647 0.78431373
v 0.04205849 0.00000000 -0.06805206 1.00000000 0.94117647 0.78431373
v 0.05550244 0.05616372 0.01284976 1.00000000 0.94117647 0.78431373
v 0.06901348 0.02079135 0.03471109 1.00000000 0.94117647 0.78431373
v 0.04702282 0.05505528 0.03402603 1.00000000 0.94117647 0.78431373
v 0.06805206 0.04205849 0.00000000 1.00000000 0.94117647 0.78431373
v 0.05550244 -0.05616372 0.01284976 1.00000000 0.94117647 0.78431373
v 0.06901348 -0.02079135 0.03471109 1.00000000 0.94117647 0.78431373
v 0.04702282 -0.05505528 0.03402603 1.00000000 0.94117647 0.78431373
v 0.06805206 -0.04205849 0.00000000 1.00000000 0.94117647 0.78431373
v 0.02079135 -0.03471109 0.06901348 1.00000000 0.94117647 0.78431373
v 0.05616372 -0.01284976 0.05550244 1.00000000 0.94117647 0.78431373
v 0.03402603 -0.04702282 0.05505528 1.00000000 0.94117647 0.78431373
v 0.02102924 -0.01299679 0.07608452 1.00000000 0.94117647 0.78431373
v 0.05505528 -0.03402603 0.04702282 1.00000000 0.94117647 0.78431373
v 0.02079135 0.03471109 0.06901348 1.00000000 0.94117647 0.78431373
v 0.05616372 0.01284976 0.05550244 1.00000000 0.94117647 0.78431373
v 0.03402603 0.04702282 0.05505528 1.00000000 0.94117647 0.78431373
v 0.02102924 0.01299679 0.07608452 1.00000000 0.94117647 0.78431373
v 0.05505528 0.03402603 0.04702282 1.00000000 0.94117647 0.78431373
v 0.04205849 0.00000000 0.06805206 1.00000000 0.94117647 0.78431373
v 0.07695507 0.00000000 -0.02186132 1.00000000 0.94117647 0.78431373
v 0.07695507 0.00000000 0.02186132 1.00000000 0.94117647 0.78431373
v 0.07608452 0.02102924 -0.01299679 1.00000000 0.94117647 0.78431373
v 0.07608452 -0.02102924 -0.01299679 1.00000000 0.94117647 0.78431373
v 0.07608452 0.02102924 0.01299679 1.00000000 0.94117647 0.78431373
v 0.07608452 -0.02102924 0.01299679 1.00000000 0.94117647 0.78431373
v -0.05550244 0.05616372 -0.01284976 1.00000000 0.94117647 0.78431373
v -0.06901348 0.02079135 -0.03471109 1.00000000 0.94117647 0.78431373
v -0.04702282 0.05505528 -0.03402603 1.00000000 0.94117647 0.78431373
v -0.05550244 -0.05616372 -0.01284976 1.00000000 0.94117647 0.78431373
v -0.06901348 -0.02079135 -0.03471109 1.00000000 0.94117647 0.78431373
v -0.04702282 -0.05505528 -0.03402603 1.00000000 0.94117647 0.78431373
v -0.02079135 -0.03471109 -0.06901348 1.00000000 0.94117647 0.78431373
v -0.05616372 -0.01284976 -0.05550244 1.00000000 0.94117647 0.78431373
v -0.03402603 -0.04702282 -0.05505528 1.00000000 0.94117647 0.78431373
v -0.02102924 -0.01299679 -0.07608452 1.00000000 0.94117647 0.78431373
v -0.05505528 -0.03402603 -0.04702282 1.00000000 0.94117647 0.78431373
v -0.02079135 0.03471109 -0.06901348 1.00000000 0.94117647 0.78431373
v -0.05616372 0.01284976 -0.05550244 1.00000000 0.94117647 0.78431373
v -0.03402603 0.04702282 -0.05505528 1.00000000 0.94117647 0.78431373
v -0.02102924 0.01299679 -0.07608452 1.00000000 0.94117647 0.78431373
v -0.05505528 0.03402603 -0.04702282 1.00000000 0.94117647 0.78431373
v -0.04205849 0.00000000 -0.06805206 1.00000000 0.94117647 0.78431373
v -0.05550244 0.05616372 0.01284976 1.00000000 0.94117647 0.78431373
v -0.06901348 0.02079135 0.03471109 1.00000000 0.94117647 0.78431373
v -0.04702282 0.05505528 0.03402603 1.00000000 0.94117647 0.78431373
v -0.06805206 0.04205849 0.00000000 1.00000000 0.94117647 0.78431373
v -0.05550244 -0.05616372 0.01284976 1.00000000 0.94117647 0.78431373
v -0.06901348 -0.02079135 0.03471109 1.00000000 0.94117647 0.78431373
v -0.04702282 -0.05505528 0.03402603 1.00000000 0.94117647 0.78431373
v -0.06805206 -0.04205849 0.00000000 1.00000000 0.94117647 0.78431373
v -0.02079135 -0.03471109 0.06901348 1.00000000 0.94117647 0.78431373
v -0.05616372 -0.01284976 0.05550244 1.00000000 0.94117647 0.78431373
v -0.03402603 -0.04702282 0.05505528 1.00000000 0.94117647 0.78431373
v -0.02102924 -0.01299679 0.07608452 1.00000000 0.94117647 0.78431373
v -0.05505528 -0.03402603 0.04702282 1.00000000 0.94117647 0.78431373
v -0.02079135 0.03471109 0.06901348 1.00000000 0.94117647 0.78431373
v -0.05616372 0.01284976 0.05550244 1.00000000 0.94117647 0.78431373
v -0.03402603 0.04702282 0.05505528 1.00000000 0.94117647 0.78431373
v -0.02102924 0.01299679 0.07608452 1.00000000 0.94117647 0.78431373
v -0.05505528 0.03402603 0.04702282 1.00000000 0.94117647 0.78431373
v -0.04205849 0.00000000 0.06805206 1.00000000 0.94117647 0.78431373
v -0.07695507 0.00000000 -0.02186132 1.00000000 0.94117647 0.78431373
v -0.07695507 0.00000000 0.02186132 1.00000000 0.94117647 0.78431373
v -0.07608452 0.02102924 -0.01299679 1.00000000 0.94117647 0.78431373
v -0.07608452 -0.02102924 -0.01299679 1.00000000 0.94117647 0.78431373
v -0.07608452 0.02102924 0.01299679 1.00000000 0.94117647 0.78431373
v -0.07608452 -0.02102924 0.01299679 1.00000000 0.94117647 0.78431373
v -0.03226843 0.07320347 0.00000000 1.00000000 0.94117647 0.78431373
v -0.01103618 0.07923511 0.00000000 1.00000000 0.94117647 0.78431373
v 0.03226843 0.07320347 0.00000000 1.00000000 0.94117647 0.78431373
v 0.01103618 0.07923511 0.00000000 1.00000000 0.94117647 0.78431373
v -0.03226843 -0.07320347 0.00000000 1.00000000 0.94117647 0.78431373
v -0.01103618 -0.07923511 0.00000000 1.00000000 0.94117647 0.78431373
v 0.03226843 -0.07320347 0.00000000 1.00000000 0.94117647 0.78431373
v 0.01103618 -0.07923511 0.00000000 1.00000000 0.94117647 0.78431373
v -0.03875533 -0.06919435 0.01049603 1.00000000 0.94117647 0.78431373
v -0.03000309 -0.06751292 0.03068910 1.00000000 0.94117647 0.78431373
v -0.02865830 -0.07394437 0.01053243 1.00000000 0.94117647 0.78431373
v -0.00648690 -0.04925136 0.06270744 1.00000000 0.94117647 0.78431373
v -0.01896691 -0.06069218 0.04854601 1.00000000 0.94117647 0.78431373
v -0.00657940 -0.07901507 0.01064569 1.00000000 0.94117647 0.78431373
v -0.01909415 -0.07128052 0.03089499 1.00000000 0.94117647 0.78431373
v -0.01760936 -0.07731141 0.01062340 1.00000000 0.94117647 0.78431373
v -0.02410071 -0.07329953 0.02112662 1.00000000 0.94117647 0.78431373
v 0.03875533 -0.06919435 0.01049603 1.00000000 0.94117647 0.78431373
v 0.03000309 -0.06751292 0.03068910 1.00000000 0.94117647 0.78431373
v 0.02865830 -0.07394437 0.01053243 1.00000000 0.94117647 0.78431373
v 0.00648690 -0.04925136 0.06270744 1.00000000 0.94117647 0.78431373
v 0.01896691 -0.06069218 0.04854601 1.00000000 0.94117647 0.78431373
v 0.00000000 -0.05623256 0.05690254 1.00000000 0.94117647 0.78431373
v 0.00657940 -0.07901507 0.01064569 1.00000000 0.94117647 0.78431373
v 0.01909415 -0.07128052 0.03089499 1.00000000 0.94117647 0.78431373
v 0.01760936 -0.07731141 0.01062340 1.00000000 0.94117647 0.78431373
v 0.00000000 -0.07710890 0.02131238 1.00000000 0.94117647 0.78431373
v 0.02410071 -0.07329953 0.02112662 1.00000000 0.94117647 0.78431373
v -0.01251476 -0.06721423 0.04154068 1.00000000 0.94117647 0.78431373
v 0.01251476 -0.06721423 0.04154068 1.00000000 0.94117647 0.78431373
v -0.00649135 -0.06241635 0.04961917 1.00000000 0.94117647 0.78431373
v -0.00658589 -0.07303860 0.03196856 1.00000000 0.94117647 0.78431373
v 0.00649135 -0.06241635 0.04961917 1.00000000 0.94117647 0.78431373
v 0.00658589 -0.07303860 0.03196856 1.00000000 0.94117647 0.78431373
v -0.03875533 0.06919435 0.01049603 1.00000000 0.94117647 0.78431373
v -0.03000309 0.06751292 0.03068910 1.00000000 0.94117647 0.78431373
v -0.02865830 0.07394437 0.01053243 1.00000000 0.94117647 0.78431373
v -0.00648690 0.04925136 0.06270744 1.00000000 0.94117647 0.78431373
v -0.01896691 0.06069218 0.04854601 1.00000000 0.94117647 0.78431373
v -0.00657940 0.07901507 0.01064569 1.00000000 0.94117647 0.78431373
v -0.01909415 0.07128052 0.03089499 1.00000000 0.94117647 0.78431373
v -0.01760936 0.07731141 0.01062340 1.00000000 0.94117647 0.78431373
v -0.02410071 0.07329953 0.02112662 1.00000000 0.94117647 0.78431373
v 0.03875533 0.06919435 0.01049603 1.00000000 0.94117647 0.78431373
v 0.03000309 0.06751292 0.03068910 1.00000000 0.94117647 0.78431373
v 0.02865830 0.07394437 0.01053243 1.00000000 0.94117647 0.78431373
v 0.00648690 0.04925136 0.06270744 1.00000000 0.94117647 0.78431373
v 0.01896691 0.06069218 0.04854601 1.00000000 0.94117647 0.78431373
v 0.00000000 0.05623256 0.05690254 1.00000000 0.94117647 0.78431373
v 0.00657940 0.07901507 0.01064569 1.00000000 0.94117647 0.78431373
v 0.01909415 0.07128052 0.03089499 1.00000000 0.94117647 0.78431373
v 0.01760936 0.07731141 0.01062340 1.00000000 0.94117647 0.78431373
v 0.00000000 0.07710890 0.02131238 1.00000000 0.94117647 0.78431373
v 0.02410071 0.07329953 0.02112662 1.00000000 0.94117647 0.78431373
v -0.01251476 0.06721423 0.04154068 1.00000000 0.94117647 0.78431373
v 0.01251476 0.06721423 0.04154068 1.00000000 0.94117647 0.78431373
v -0.00649135 0.06241635 0.04961917 1.00000000 0.94117647 0.78431373
v -0.00658589 0.07303860 0.03196856 1.00000000 0.94117647 0.78431373
v 0.00649135 0.06241635 0.04961917 1.00000000 0.94117647 0.78431373
v 0.00658589 0.07303860 0.03196856 1.00000000 0.94117647 0.78431373
v 0.00000000 -0.03226843 0.07320347 1.00000000 0.94117647 0.78431373
v 0.00000000 -0.01103618 0.07923511 1.00000000 0.94117647 0.78431373
v 0.00000000 0.03226843 0.07320347 1.00000000 0.94117647 0.78431373
v 0.00000000 0.01103618 0.07923511 1.00000000 0.94117647 0.78431373
v -0.03875533 -0.06919435 -0.01049603 1.00000000 0.94117647 0.78431373
v -0.03000309 -0.06751292 -0.03068910 1.00000000 0.94117647 0.78431373
v -0.02865830 -0.07394437 -0.01053243 1.00000000 0.94117647 0.78431373
v -0.00648690 -0.04925136 -0.06270744 1.00000000 0.94117647 0.78431373
v -0.01896691 -0.06069218 -0.04854601 1.00000000 0.94117647 0.78431373
v -0.00657940 -0.07901507 -0.01064569 1.00000000 0.94117647 0.78431373
v -0.01909415 -0.07128052 -0.03089499 1.00000000 0.94117647 0.78431373
v -0.01760936 -0.07731141 -0.01062340 1.00000000 0.94117647 0.78431373
v -0.02410071 -0.07329953 -0.02112662 1.00000000 0.94117647 0.78431373
v 0.03875533 -0.06919435 -0.01049603 1.00000000 0.94117647 0.78431373
v 0.03000309 -0.06751292 -0.03068910 1.00000000 0.94117647 0.78431373
v 0.02865830 -0.07394437 -0.01053243 1.00000000 0.94117647 0.78431373
v 0.00648690 -0.04925136 -0.06270744 1.00000000 0.94117647 0.78431373
v 0.01896691 -0.06069218 -0.04854601 1.00000000 0.94117647 0.78431373
v 0.00000000 -0.05623256 -0.05690254 1.00000000 0.94117647 0.78431373
v 0.00657940 -0.07901507 -0.01064569 1.00000000 0.94117647 0.78431373
v 0.01909415 -0.07128052 -0.03089499 1.00000000 0.94117647 0.78431373
v 0.01760936 -0.07731141 -0.01062340 1.00000000 0.94117647 0.78431373
v 0.00000000 -0.07710890 -0.02131238 1.00000000 0.94117647 0.78431373
v 0.02410071 -0.07329953 -0.02112662 1.00000000 0.94117647 0.78431373
v -0.01251476 -0.06721423 -0.04154068 1.00000000 0.94117647 0.78431373
v 0.01251476 -0.06721423 -0.04154068 1.00000000 0.94117647 0.78431373
v -0.00649135 -0.06241635 -0.04961917 1.00000000 0.94117647 0.78431373
v -0.00658589 -0.07303860 -0.03196856 1.00000000 0.94117647 0.78431373
v 0.00649135 -0.06241635 -0.04961917 1.00000000 0.94117647 0.78431373
v 0.00658589 -0.07303860 -0.03196856 1.00000000 0.94117647 0.78431373
v -0.03875533 0.06919435 -0.01049603 1.00000000 0.94117647 0.78431373
v -0.03000309 0.06751292 -0.03068910 1.00000000 0.94117647 0.78431373
v -0.02865830 0.07394437 -0.01053243 1.00000000 0.94117647 0.78431373
v -0.00648690 0.04925136 -0.06270744 1.00000000 0.94117647 0.78431373
v -0.01896691 0.06069218 -0.04854601 1.00000000 0.94117647 0.78431373
v -0.00657940 0.07901507 -0.01064569 1.00000000 0.94117647 0.78431373
v -0.01909415 0.07128052 -0.03089499 1.00000000 0.94117647 0.78431373
v -0.01760936 0.07731141 -0.01062340 1.00000000 0.94117647 0.78431373
v -0.02410071 0.07329953 -0.02112662 1.00000000 0.94117647 0.78431373
v 0.03875533 0.06919435 -0.01049603 1.00000000 0.94117647 0.78431373
v 0.03000309 0.06751292 -0.03068910 1.00000000 0.94117647 0.78431373
v 0.02865830 0.07394437 -0.01053243 1.00000000 0.94117647 0.78431373
v 0.00648690 0.04925136 -0.06270744 1.00000000 0.94117647 0.78431373
v 0.01896691 0.06069218 -0.04854601 1.00000000 0.94117647 0.78431373
v 0.00000000 0.05623256 -0.05690254 1.00000000 0.94117647 0.78431373
v 0.00657940 0.07901507 -0.01064569 1.00000000 0.94117647 0.78431373
v 0.01909415 0.07128052 -0.03089499 1.00000000 0.94117647 0.78431373
v 0.01760936 0.07731141 -0.01062340 1.00000000 0.94117647 0.78431373
v 0.00000000 0.07710890 -0.02131238 1.00000000 0.94117647 0.78431373
v 0.02410071 0.07329953 -0.02112662 1.00000000 0.94117647 0.78431373
v -0.01251476 0.06721423 -0.04154068 1.00000000 0.94117647 0.78431373
v 0.01251476 0.06721423 -0.04154068 1.00000000 0.94117647 0.78431373
v -0.00649135 0.06241635 -0.04961917 1.00000000 0.94117647 0.78431373
v -0.00658589 0.07303860 -0.03196856 1.00000000 0.94117647 0.78431373
v 0.00649135 0.06241635 -0.04961917 1.00000000 0.94117647 0.78431373
v 0.00658589 0.07303860 -0.03196856 1.00000000 0.94117647 0.78431373
v 0.00000000 -0.03226843 -0.07320347 1.00000000 0.94117647 0.78431373
v 0.00000000 -0.01103618 -0.07923511 1.00000000 0.94117647 0.78431373
v 0.00000000 0.03226843 -0.07320347 1.00000000 0.94117647 0.78431373
v 0.00000000 0.01103618 -0.07923511 1.00000000 0.94117647 0.78431373
v 0.04925136 0.06270744 -0.00648690 1.00000000 0.94117647 0.78431373
v 0.06069218 0.04854601 -0.01896691 1.00000000 0.94117647 0.78431373
v 0.04570013 0.06341194 -0.01704183 1.00000000 0.94117647 0.78431373
v 0.06919435 0.01049603 -0.03875533 1.00000000 0.94117647 0.78431373
v 0.06751292 0.03068910 -0.03000309 1.00000000 0.94117647 0.78431373
v 0.03631924 0.06063483 -0.03747439 1.00000000 0.94117647 0.78431373
v 0.05656854 0.04812008 -0.02973984 1.00000000 0.94117647 0.78431373
v 0.04128973 0.06267614 -0.02769224 1.00000000 0.94117647 0.78431373
v 0.05179295 0.05618479 -0.02368037 1.00000000 0.94117647 0.78431373
v 0.04925136 -0.06270744 -0.00648690 1.00000000 0.94117647 0.78431373
v 0.06069218 -0.04854601 -0.01896691 1.00000000 0.94117647 0.78431373
v 0.04570013 -0.06341194 -0.01704183 1.00000000 0.94117647 0.78431373
v 0.06919435 -0.01049603 -0.03875533 1.00000000 0.94117647 0.78431373
v 0.06751292 -0.03068910 -0.03000309 1.00000000 0.94117647 0.78431373
v 0.03631924 -0.06063483 -0.03747439 1.00000000 0.94117647 0.78431373
v 0.05656854 -0.04812008 -0.02973984 1.00000000 0.94117647 0.78431373
v 0.04128973 -0.06267614 -0.02769224 1.00000000 0.94117647 0.78431373
v 0.05179295 -0.05618479 -0.02368037 1.00000000 0.94117647 0.78431373
v 0.01049603 -0.03875533 -0.06919435 1.00000000 0.94117647 0.78431373
v 0.03068910 -0.03000309 -0.06751292 1.00000000 0.94117647 0.78431373
v 0.01704183 -0.04570013 -0.06341194 1.00000000 0.94117647 0.78431373
v 0.01053243 -0.02865830 -0.07394437 1.00000000 0.94117647 0.78431373
v 0.06270744 -0.00648690 -0.04925136 1.00000000 0.94117647 0.78431373
v 0.04854601 -0.01896691 -0.06069218 1.00000000 0.94117647 0.78431373
v 0.06341194 -0.01704183 -0.04570013 1.00000000 0.94117647 0.78431373
v 0.02973984 -0.05656854 -0.04812008 1.00000000 0.94117647 0.78431373
v 0.03747439 -0.03631924 -0.06063483 1.00000000 0.94117647 0.78431373
v 0.02368037 -0.05179295 -0.05618479 1.00000000 0.94117647 0.78431373
v 0.04107004 -0.05172622 -0.04514034 1.00000000 0.94117647 0.78431373
v 0.02769224 -0.04128973 -0.06267614 1.00000000 0.94117647 0.78431373
v 0.01064569 -0.00657940 -0.07901507 1.00000000 0.94117647 0.78431373
v 0.03089499 -0.01909415 -0.07128052 1.00000000 0.94117647 0.78431373
v 0.01062340 -0.01760936 -0.07731141 1.00000000 0.94117647 0.78431373
v 0.02112662 -0.02410071 -0.07329953 1.00000000 0.94117647 0.78431373
v 0.06063483 -0.03747439 -0.03631924 1.00000000 0.94117647 0.78431373
v 0.04812008 -0.02973984 -0.05656854 1.00000000 0.94117647 0.78431373
v 0.06267614 -0.02769224 -0.04128973 1.00000000 0.94117647 0.78431373
v 0.05172622 -0.04514034 -0.04107004 1.00000000 0.94117647 0.78431373
v 0.05618479 -0.02368037 -0.05179295 1.00000000 0.94117647 0.78431373
v 0.04514034 -0.04107004 -0.05172622 1.00000000 0.94117647 0.78431373
v 0.01049603 0.03875533 -0.06919435 1.00000000 0.94117647 0.78431373
v 0.03068910 0.03000309 -0.06751292 1.00000000 0.94117647 0.78431373
v 0.01704183 0.04570013 -0.06341194 1.00000000 0.94117647 0.78431373
v 0.01053243 0.02865830 -0.07394437 1.00000000 0.94117647 0.78431373
v 0.06270744 0.00648690 -0.04925136 1.00000000 0.94117647 0.78431373
v 0.04854601 0.01896691 -0.06069218 1.00000000 0.94117647 0.78431373
v 0.06341194 0.01704183 -0.04570013 1.00000000 0.94117647 0.78431373
v 0.05690254 0.00000000 -0.05623256 1.00000000 0.94117647 0.78431373
v 0.02973984 0.05656854 -0.04812008 1.00000000 0.94117647 0.78431373
v 0.03747439 0.03631924 -0.06063483 1.00000000 0.94117647 0.78431373
v 0.02368037 0.05179295 -0.05618479 1.00000000 0.94117647 0.78431373
v 0.04107004 0.05172622 -0.04514034 1.00000000 0.94117647 0.78431373
v 0.02769224 0.04128973 -0.06267614 1.00000000 0.94117647 0.78431373
v 0.01064569 0.00657940 -0.07901507 1.00000000 0.94117647 0.78431373
v 0.03089499 0.01909415 -0.07128052 1.00000000 0.94117647 0.78431373
v 0.01062340 0.01760936 -0.07731141 1.00000000 0.94117647 0.78431373
v 0.02131238 0.00000000 -0.07710890 1.00000000 0.94117647 0.78431373
v 0.02112662 0.02410071 -0.07329953 1.00000000 0.94117647 0.78431373
v 0.06063483 0.03747439 -0.03631924 1.00000000 0.94117647 0.78431373
v 0.04812008 0.02973984 -0.05656854 1.00000000 0.94117647 0.78431373
v 0.06267614 0.02769224 -0.04128973 1.00000000 0.94117647 0.78431373
v 0.05172622 0.04514034 -0.04107004 1.00000000 0.94117647 0.78431373
v 0.05618479 0.02368037 -0.05179295 1.00000000 0.94117647 0.78431373
v 0.04514034 0.04107004 -0.05172622 1.00000000 0.94117647 0.78431373
v 0.04154068 -0.01251476 -0.06721423 1.00000000 0.94117647 0.78431373
v 0.04154068 0.01251476 -0.06721423 1.00000000 0.94117647 0.78431373
v 0.04961917 -0.00649135 -0.06241635 1.00000000 0.94117647 0.78431373
v 0.03196856 -0.00658589 -0.07303860 1.00000000 0.94117647 0.78431373
v 0.04961917 0.00649135 -0.06241635 1.00000000 0.94117647 0.78431373
v 0.03196856 0.00658589 -0.07303860 1.00000000 0.94117647 0.78431373
v 0.04925136 0.06270744 0.00648690 1.00000000 0.94117647 0.78431373
v 0.06069218 0.04854601 0.01896691 1.00000000 0.94117647 0.78431373
v 0.04570013 0.06341194 0.01704183 1.00000000 0.94117647 0.78431373
v 0.05623256 0.05690254 0.00000000 1.00000000 0.94117647 0.78431373
v 0.06919435 0.01049603 0.03875533 1.00000000 0.94117647 0.78431373
v 0.06751292 0.03068910 0.03000309 1.00000000 0.94117647 0.78431373
v 0.03631924 0.06063483 0.03747439 1.00000000 0.94117647 0.78431373
v 0.05656854 0.04812008 0.02973984 1.00000000 0.94117647 0.78431373
v 0.04128973 0.06267614 0.02769224 1.00000000 0.94117647 0.78431373
v 0.05179295 0.05618479 0.02368037 1.00000000 0.94117647 0.78431373
v 0.06721423 0.04154068 -0.01251476 1.00000000 0.94117647 0.78431373
v 0.06721423 0.04154068 0.01251476 1.00000000 0.94117647 0.78431373
v 0.06241635 0.04961917 -0.00649135 1.00000000 0.94117647 0.78431373
v 0.06241635 0.04961917 0.00649135 1.00000000 0.94117647 0.78431373
v 0.04925136 -0.06270744 0.00648690 1.00000000 0.94117647 0.78431373
v 0.06069218 -0.04854601 0.01896691 1.00000000 0.94117647 0.78431373
v 0.04570013 -0.06341194 0.01704183 1.00000000 0.94117647 0.78431373
v 0.05623256 -0.05690254 0.00000000 1.00000000 0.94117647 0.78431373
v 0.06919435 -0.01049603 0.03875533 1.00000000 0.94117647 0.78431373
v 0.06751292 -0.03068910 0.03000309 1.00000000 0.94117647 0.78431373
v 0.03631924 -0.06063483 0.03747439 1.00000000 0.94117647 0.78431373
v 0.05656854 -0.04812008 0.02973984 1.00000000 0.94117647 0.78431373
v 0.04128973 -0.06267614 0.02769224 1.00000000 0.94117647 0.78431373
v 0.05179295 -0.05618479 0.02368037 1.00000000 0.94117647 0.78431373
v 0.06721423 -0.04154068 -0.01251476 1.00000000 0.94117647 0.78431373
v 0.06721423 -0.04154068 0.01251476 1.00000000 0.94117647 0.78431373
v 0.06241635 -0.04961917 -0.00649135 1.00000000 0.94117647 0.78431373
v 0.06241635 -0.04961917 0.00649135 1.00000000 0.94117647 0.78431373
v 0.01049603 -0.03875533 0.06919435 1.00000000 0.94117647 0.78431373
v 0.03068910 -0.03000309 0.06751292 1.00000000 0.94117647 0.78431373
v 0.01704183 -0.04570013 0.06341194 1.00000000 0.94117647 0.78431373
v 0.01053243 -0.02865830 0.07394437 1.00000000 0.94117647 0.78431373
v 0.06270744 -0.00648690 0.04925136 1.00000000 0.94117647 0.78431373
v 0.04854601 -0.01896691 0.06069218 1.00000000 0.94117647 0.78431373
v 0.06341194 -0.01704183 0.04570013 1.00000000 0.94117647 0.78431373
v 0.02973984 -0.05656854 0.04812008 1.00000000 0.94117647 0.78431373
v 0.03747439 -0.03631924 0.06063483 1.00000000 0.94117647 0.78431373
v 0.02368037 -0.05179295 0.05618479 1.00000000 0.94117647 0.78431373
v 0.04107004 -0.05172622 0.04514034 1.00000000 0.94117647 0.78431373
v 0.02769224 -0.04128973 0.06267614 1.00000000 0.94117647 0.78431373
v 0.01064569 -0.00657940 0.07901507 1.00000000 0.94117647 0.78431373
v 0.03089499 -0.01909415 0.07128052 1.00000000 0.94117647 0.78431373
v 0.01062340 -0.01760936 0.07731141 1.00000000 0.94117647 0.78431373
v 0.02112662 -0.02410071 0.07329953 1.00000000 0.94117647 0.78431373
v 0.06063483 -0.03747439 0.03631924 1.00000000 0.94117647 0.78431373
v 0.04812008 -0.02973984 0.05656854 1.00000000 0.94117647 0.78431373
v 0.06267614 -0.02769224 0.04128973 1.00000000 0.94117647 0.78431373
v 0.05172622 -0.04514034 0.04107004 1.00000000 0.94117647 0.78431373
v 0.05618479 -0.02368037 0.05179295 1.00000000 0.94117647 0.78431373
v 0.04514034 -0.04107004 0.05172622 1.00000000 0.94117647 0.78431373
v 0.01049603 0.03875533 0.06919435 1.00000000 0.94117647 0.78431373
v 0.03068910 0.03000309 0.06751292 1.00000000 0.94117647 0.78431373
v 0.01704183 0.04570013 0.06341194 1.00000000 0.94117647 0.78431373
v 0.01053243 0.02865830 0.07394437 1.00000000 0.94117647 0.78431373
v 0.06270744 0.00648690 0.04925136 1.00000000 0.94117647 0.78431373
v 0.04854601 0.01896691 0.06069218 1.00000000 0.94117647 0.78431373
v 0.06341194 0.01704183 0.04570013 1.00000000 0.94117647 0.78431373
v 0.05690254 0.00000000 0.05623256 1.00000000 0.94117647 0.78431373
v 0.02973984 0.05656854 0.04812008 1.00000000 0.94117647 0.78431373
v 0.03747439 0.03631924 0.06063483 1.00000000 0.94117647 0.78431373
v 0.02368037 0.05179295 0.05618479 1.00000000 0.94117647 0.78431373
v 0.04107004 0.05172622 0.04514034 1.00000000 0.94117647 0.78431373
v 0.02769224 0.04128973 0.06267614 1.00000000 0.94117647 0.78431373
v 0.01064569 0.00657940 0.07901507 1.00000000 0.94117647 0.78431373
v 0.03089499 0.01909415 0.07128052 1.00000000 0.94117647 0.78431373
v 0.01062340 0.01760936 0.07731141 1.00000000 0.94117647 0.78431373
v 0.02131238 0.00000000 0.07710890 1.00000000 0.94117647 0.78431373
v 0.02112662 0.02410071 0.07329953 1.00000000 0.94117647 0.78431373
v 0.06063483 0.03747439 0.03631924 1.00000000 0.94117647 0.78431373
v 0.04812008 0.02973984 0.05656854 1.00000000 0.94117647 0.78431373
v 0.06267614 0.02769224 0.04128973 1.00000000 0.94117647 0.78431373
v 0.05172622 0.04514034 0.04107004 1.00000000 0.94117647 0.78431373
v 0.05618479 0.02368037 0.05179295 1.00000000 0.94117647 0.78431373
v 0.04514034 0.04107004 0.05172622 1.00000000 0.94117647 0.78431373
v 0.04154068 -0.01251476 0.06721423 1.00000000 0.94117647 0.78431373
v 0.04154068 0.01251476 0.06721423 1.00000000 0.94117647 0.78431373
v 0.04961917 -0.00649135 0.06241635 1.00000000 0.94117647 0.78431373
v 0.03196856 -0.00658589 0.07303860 1.00000000 0.94117647 0.78431373
v 0.04961917 0.00649135 0.06241635 1.00000000 0.94117647 0.78431373
v 0.03196856 0.00658589 0.07303860 1.00000000 0.94117647 0.78431373
v 0.07320347 0.00000000 -0.03226843 1.00000000 0.94117647 0.78431373
v 0.07923511 0.00000000 -0.01103618 1.00000000 0.94117647 0.78431373
v 0.07394437 0.01053243 -0.02865830 1.00000000 0.94117647 0.78431373
v 0.07394437 -0.01053243 -0.02865830 1.00000000 0.94117647 0.78431373
v 0.07320347 0.00000000 0.03226843 1.00000000 0.94117647 0.78431373
v 0.07923511 0.00000000 0.01103618 1.00000000 0.94117647 0.78431373
v 0.07394437 0.01053243 0.02865830 1.00000000 0.94117647 0.78431373
v 0.07394437 -0.01053243 0.02865830 1.00000000 0.94117647 0.78431373
v 0.07128052 0.03089499 -0.01909415 1.00000000 0.94117647 0.78431373
v 0.07901507 0.01064569 -0.00657940 1.00000000 0.94117647 0.78431373
v 0.07329953 0.02112662 -0.02410071 1.00000000 0.94117647 0.78431373
v 0.07303860 0.03196856 -0.00658589 1.00000000 0.94117647 0.78431373
v 0.07731141 0.01062340 -0.01760936 1.00000000 0.94117647 0.78431373
v 0.07128052 -0.03089499 -0.01909415 1.00000000 0.94117647 0.78431373
v 0.07901507 -0.01064569 -0.00657940 1.00000000 0.94117647 0.78431373
v 0.07329953 -0.02112662 -0.02410071 1.00000000 0.94117647 0.78431373
v 0.07303860 -0.03196856 -0.00658589 1.00000000 0.94117647 0.78431373
v 0.07731141 -0.01062340 -0.01760936 1.00000000 0.94117647 0.78431373
v 0.07128052 0.03089499 0.01909415 1.00000000 0.94117647 0.78431373
v 0.07901507 0.01064569 0.00657940 1.00000000 0.94117647 0.78431373
v 0.07329953 0.02112662 0.02410071 1.00000000 0.94117647 0.78431373
v 0.07303860 0.03196856 0.00658589 1.00000000 0.94117647 0.78431373
v 0.07731141 0.01062340 0.01760936 1.00000000 0.94117647 0.78431373
v 0.07710890 0.02131238 0.00000000 1.00000000 0.94117647 0.78431373
v 0.07128052 -0.03089499 0.01909415 1.00000000 0.94117647 0.78431373
v 0.07901507 -0.01064569 0.00657940 1.00000000 0.94117647 0.78431373
v 0.07329953 -0.02112662 0.02410071 1.00000000 0.94117647 0.78431373
v 0.07303860 -0.03196856 0.00658589 1.00000000 0.94117647 0.78431373
v 0.07731141 -0.01062340 0.01760936 1.00000000 0.94117647 0.78431373
v 0.07710890 -0.02131238 0.00000000 1.00000000 0.94117647 0.78431373
v -0.04925136 0.06270744 -0.00648690 1.00000000 0.94117647 0.78431373
v -0.06069218 0.04854601 -0.01896691 1.00000000 0.94117647 0.78431373
v -0.04570013 0.06341194 -0.01704183 1.00000000 0.94117647 0.78431373
v -0.06919435 0.01049603 -0.03875533 1.00000000 0.94117647 0.78431373
v -0.06751292 0.03068910 -0.03000309 1.00000000 0.94117647 0.78431373
v -0.03631924 0.06063483 -0.03747439 1.00000000 0.94117647 0.78431373
v -0.05656854 0.04812008 -0.02973984 1.00000000 0.94117647 0.78431373
v -0.04128973 0.06267614 -0.02769224 1.00000000 0.94117647 0.78431373
v -0.05179295 0.05618479 -0.02368037 1.00000000 0.94117647 0.78431373
v -0.04925136 -0.06270744 -0.00648690 1.00000000 0.94117647 0.78431373
v -0.06069218 -0.04854601 -0.01896691 1.00000000 0.94117647 0.78431373
v -0.04570013 -0.06341194 -0.01704183 1.00000000 0.94117647 0.78431373
v -0.06919435 -0.01049603 -0.03875533 1.00000000 0.94117647 0.78431373
v -0.06751292 -0.03068910 -0.03000309 1.00000000 0.94117647 0.78431373
v -0.03631924 -0.06063483 -0.03747439 1.00000000 0.94117647 0.78431373
v -0.05656854 -0.04812008 -0.02973984 1.00000000 0.94117647 0.78431373
v -0.04128973 -0.06267614 -0.02769224 1.00000000 0.94117647 0.78431373
v -0.05179295 -0.05618479 -0.02368037 1.00000000 0.94117647 0.78431373
v -0.01049603 -0.03875533 -0.06919435 1.00000000 0.94117647 0.78431373
v -0.03068910 -0.03000309 -0.06751292 1.00000000 0.94117647 0.78431373
v -0.01704183 -0.04570013 -0.06341194 1.00000000 0.94117647 0.78431373
v -0.01053243 -0.02865830 -0.07394437 1.00000000 0.94117647 0.78431373
v -0.06270744 -0.00648690 -0.04925136 1.00000000 0.94117647 0.78431373
v -0.04854601 -0.01896691 -0.06069218 1.00000000 0.94117647 0.78431373
v -0.06341194 -0.01704183 -0.04570013 1.00000000 0.94117647 0.78431373
v -0.02973984 -0.05656854 -0.04812008 1.00000000 0.94117647 0.78431373
v -0.03747439 -0.03631924 -0.06063483 1.00000000 0.94117647 0.78431373
v -0.02368037 -0.05179295 -0.05618479 1.00000000 0.94117647 0.78431373
v -0.04107004 -0.05172622 -0.04514034 1.00000000 0.94117647 0.78431373
v -0.02769224 -0.04128973 -0.06267614 1.00000000 0.94117647 0.78431373
v -0.01064569 -0.00657940 -0.07901507 1.00000000 0.94117647 0.78431373
v -0.03089499 -0.01909415 -0.07128052 1.00000000 0.94117647 0.78431373
v -0.01062340 -0.01760936 -0.07731141 1.00000000 0.94117647 0.78431373
v -0.02112662 -0.02410071 -0.07329953 1.00000000 0.94117647 0.78431373
v -0.06063483 -0.03747439 -0.03631924 1.00000000 0.94117647 0.78431373
v -0.04812008 -0.02973984 -0.05656854 1.00000000 0.94117647 0.78431373
v -0.06267614 -0.02769224 -0.04128973 1.00000000 0.94117647 0.78431373
v -0.05172622 -0.04514034 -0.04107004 1.00000000 0.94117647 0.78431373
v -0.05618479 -0.02368037 -0.05179295 1.00000000 0.94117647 0.78431373
v -0.04514034 -0.04107004 -0.05172622 1.00000000 0.94117647 0.78431373
v -0.01049603 0.03875533 -0.06919435 1.00000000 0.94117647 0.78431373
v -0.03068910 0.03000309 -0.06751292 1.00000000 0.94117647 0.78431373
v -0.01704183 0.04570013 -0.06341194 1.00000000 0.94117647 0.78431373
v -0.01053243 0.02865830 -0.07394437 1.00000000 0.94117647 0.78431373
v -0.06270744 0.00648690 -0.04925136 1.00000000 0.94117647 0.78431373
v -0.04854601 0.01896691 -0.06069218 1.00000000 0.94117647 0.78431373
v -0.06341194 0.01704183 -0.04570013 1.00000000 0.94117647 0.78431373
v -0.05690254 0.00000000 -0.05623256 1.00000000 0.94117647 0.78431373
v -0.02973984 0.05656854 -0.04812008 1.00000000 0.94117647 0.78431373
v -0.03747439 0.03631924 -0.06063483 1.00000000 0.94117647 0.78431373
v -0.02368037 0.05179295 -0.05618479 1.00000000 0.94117647 0.78431373
v -0.04107004 0.05172622 -0.04514034 1.00000000 0.94117647 0.78431373
v -0.02769224 0.04128973 -0.06267614 1.00000000 0.94117647 0.78431373
v -0.01064569 0.00657940 -0.07901507 1.00000000 0.94117647 0.78431373
v -0.03089499 0.01909415 -0.07128052 1.00000000 0.94117647 0.78431373
v -0.01062340 0.01760936 -0.07731141 1.00000000 0.94117647 0.78431373
v -0.02131238 0.00000000 -0.07710890 1.00000000 0.94117647 0.78431373
v -0.02112662 0.02410071 -0.07329953 1.00000000 0.94117647 0.78431373
v -0.06063483 0.03747439 -0.03631924 1.00000000 0.94117647 0.78431373
v -0.04812008 0.02973984 -0.05656854 1.00000000 0.94117647 0.78431373
v -0.06267614 0.02769224 -0.04128973 1.00000000 0.94117647 0.78431373
v -0.05172622 0.04514034 -0.04107004 1.00000000 0.94117647 0.78431373
v -0.05618479 0.02368037 -0.05179295 1.00000000 0.94117647 0.78431373
v -0.04514034 0.04107004 -0.05172622 1.00000000 0.94117647 0.78431373
v -0.04154068 -0.01251476 -0.06721423 1.00000000 0.94117647 0.78431373
v -0.04154068 0.01251476 -0.06721423 1.00000000 0.94117647 0.78431373
v -0.04961917 -0.00649135 -0.06241635 1.00000000 0.94117647 0.78431373
v -0.03196856 -0.00658589 -0.07303860 1.00000000 0.94117647 0.78431373
v -0.04961917 0.00649135 -0.06241635 1.00000000 0.94117647 0.78431373
v -0.03196856 0.00658589 -0.07303860 1.00000000 0.94117647 0.78431373
v -0.04925136 0.06270744 0.00648690 1.00000000 0.94117647 0.78431373
v -0.06069218 0.04854601 0.01896691 1.00000000 0.94117647 0.78431373
v -0.04570013 0.06341194 0.01704183 1.00000000 0.94117647 0.78431373
v -0.05623256 0.05690254 0.00000000 1.00000000 0.94117647 0.78431373
v -0.06919435 0.01049603 0.03875533 1.00000000 0.94117647 0.78431373
v -0.06751292 0.03068910 0.03000309 1.00000000 0.94117647 0.78431373
v -0.03631924 0.06063483 0.03747439 1.00000000 0.94117647 0.78431373
v -0.05656854 0.04812008 0.02973984 1.00000000 0.94117647 0.78431373
v -0.04128973 0.06267614 0.02769224 1.00000000 0.94117647 0.78431373
v -0.05179295 0.05618479 0.02368037 1.00000000 0.94117647 0.78431373
v -0.06721423 0.04154068 -0.01251476 1.00000000 0.94117647 0.78431373
v -0.06721423 0.04154068 0.01251476 1.00000000 0.94117647 0.78431373
v -0.06241635 0.04961917 -0.00649135 1.00000000 0.94117647 0.78431373
v -0.06241635 0.04961917 0.00649135 1.00000000 0.94117647 0.78431373
v -0.04925136 -0.06270744 0.00648690 1.00000000 0.94117647 0.78431373
v -0.06069218 -0.04854601 0.01896691 1.00000000 0.94117647 0.78431373
v -0.04570013 -0.06341194 0.01704183 1.00000000 0.94117647 0.78431373
v -0.05623256 -0.05690254 0.00000000 1.00000000 0.94117647 0.78431373
v -0.06919435 -0.01049603 0.03875533 1.00000000 0.94117647 0.78431373
v -0.06751292 -0.03068910 0.03000309 1.00000000 0.94117647 0.78431373
v -0.03631924 -0.06063483 0.03747439 1.00000000 0.94117647 0.78431373
v -0.05656854 -0.04812008 0.02973984 1.00000000 0.94117647 0.78431373
v -0.04128973 -0.06267614 0.02769224 1.00000000 0.94117647 0.78431373
v -0.05179295 -0.05618479 0.02368037 1.00000000 0.94117647 0.78431373
v -0.06721423 -0.04154068 -0.01251476 1.00000000 0.94117647 0.78431373
v -0.06721423 -0.04154068 0.01251476 1.00000000 0.94117647 0.78431373
v -0.06241635 -0.04961917 -0.00649135 1.00000000 0.94117647 0.78431373
v -0.06241635 -0.04961917 0.00649135 1.00000000 0.94117647 0.78431373
v -0.01049603 -0.03875533 0.06919435 1.00000000 0.94117647 0.78431373
v -0.03068910 -0.03000309 0.06751292 1.00000000 0.94117647 0.78431373
v -0.01704183 -0.04570013 0.06341194 1.00000000 0.94117647 0.78431373
v -0.01053243 -0.02865830 0.07394437 1.00000000 0.94117647 0.78431373
v -0.06270744 -0.00648690 0.04925136 1.00000000 0.94117647 0.78431373
v -0.04854601 -0.01896691 0.06069218 1.00000000 0.94117647 0.78431373
v -0.06341194 -0.01704183 0.04570013 1.00000000 0.94117647 0.78431373
v -0.02973984 -0.05656854 0.04812008 1.00000000 0.94117647 0.78431373
v -0.03747439 -0.03631924 0.06063483 1.00000000 0.94117647 0.78431373
v -0.02368037 -0.05179295 0.05618479 1.00000000 0.94117647 0.78431373
v -0.04107004 -0.05172622 0.04514034 1.00000000 0.94117647 0.78431373
v -0.02769224 -0.04128973 0.06267614 1.00000000 0.94117647 0.78431373
v -0.01064569 -0.00657940 0.07901507 1.00000000 0.94117647 0.78431373
v -0.03089499 -0.01909415 0.07128052 1.00000000 0.94117647 0.78431373
v -0.01062340 -0.01760936 0.07731141 1.00000000 0.94117647 0.78431373
v -0.02112662 -0.02410071 0.07329953 1.00000000 0.94117647 0.78431373
v -0.06063483 -0.03747439 0.03631924 1.00000000 0.94117647 0.78431373
v -0.04812008 -0.02973984 0.05656854 1.00000000 0.94117647 0.78431373
v -0.06267614 -0.02769224 0.04128973 1.00000000 0.94117647 0.78431373
v -0.05172622 -0.04514034 0.04107004 1.00000000 0.94117647 0.78431373
v -0.05618479 -0.02368037 0.05179295 1.00000000 0.94117647 0.78431373
v -0.04514034 -0.04107004 0.05172622 1.00000000 0.94117647 0.78431373
v -0.01049603 0.03875533 0.06919435 1.00000000 0.94117647 0.78431373
v -0.03068910 0.03000309 0.06751292 1.00000000 0.94117647 0.78431373
v -0.01704183 0.04570013 0.06341194 1.00000000 0.94117647 0.78431373
v -0.01053243 0.02865830 0.07394437 1.00000000 0.94117647 0.78431373
v -0.06270744 0.00648690 0.04925136 1.00000000 0.94117647 0.78431373
v -0.04854601 0.01896691 0.06069218 1.00000000 0.94117647 0.78431373
v -0.06341194 0.01704183 0.04570013 1.00000000 0.94117647 0.78431373
v -0.05690254 0.00000000 0.05623256 1.00000000 0.94117647 0.78431373
v -0.02973984 0.05656854 0.04812008 1.00000000 0.94117647 0.78431373
v -0.03747439 0.03631924 0.06063483 1.00000000 0.94117647 0.78431373
v -0.02368037 0.05179295 0.05618479 1.00000000 0.94117647 0.78431373
v -0.04107004 0.05172622 0.04514034 1.00000000 0.94117647 0.78431373
v -0.02769224 0.04128973 0.06267614 1.00000000 0.94117647 0.78431373
v -0.01064569 0.00657940 0.07901507 1.00000000 0.94117647 0.78431373
v -0.03089499 0.01909415 0.07128052 1.00000000 0.94117647 0.78431373
v -0.01062340 0.01760936 0.07731141 1.00000000 0.94117647 0.78431373
v -0.02131238 0.00000000 0.07710890 1.00000000 0.94117647 0.78431373
v -0.02112662 0.02410071 0.07329953 1.00000000 0.94117647 0.78431373
v -0.06063483 0.03747439 0.03631924 1.00000000 0.94117647 0.78431373
v -0.04812008 0.02973984 0.05656854 1.00000000 0.94117647 0.78431373
v -0.06267614 0.02769224 0.04128973 1.00000000 0.94117647 0.78431373
v -0.05172622 0.04514034 0.04107004 1.00000000 0.94117647 0.78431373
v -0.05618479 0.02368037 0.05179295 1.00000000 0.94117647 0.78431373
v -0.04514034 0.04107004 0.05172622 1.00000000 0.94117647 0.78431373
v -0.04154068 -0.01251476 0.06721423 1.00000000 0.94117647 0.78431373
v -0.04154068 0.01251476 0.06721423 1.00000000 0.94117647 0.78431373
v -0.04961917 -0.00649135 0.06241635 1.00000000 0.94117647 0.78431373
v -0.03196856 -0.00658589 0.07303860 1.00000000 0.94117647 0.78431373
v -0.04961917 0.00649135 0.06241635 1.00000000 0.94117647 0.78431373
v -0.03196856 0.00658589 0.07303860 1.00000000 0.94117647 0.78431373
v -0.07320347 0.00000000 -0.03226843 1.00000000 0.94117647 0.78431373
v -0.07923511 0.00000000 -0.01103618 1.00000000 0.94117647 0.78431373
v -0.07394437 0.01053243 -0.02865830 1.00000000 0.94117647 0.78431373
v -0.07394437 -0.01053243 -0.02865830 1.00000000 0.94117647 0.78431373
v -0.07320347 0.00000000 0.03226843 1.00000000 0.94117647 0.78431373
v -0.07923511 0.00000000 0.01103618 1.00000000 0.94117647 0.78431373
v -0.07394437 0.01053243 0.02865830 1.00000000 0.94117647 0.78431373
v -0.07394437 -0.01053243 0.02865830 1.00000000 0.94117647 0.78431373
v -0.07128052 0.03089499 -0.01909415 1.00000000 0.94117647 0.78431373
v -0.07901507 0.01064569 -0.00657940 1.00000000 0.94117647 0.78431373
v -0.07329953 0.02112662 -0.02410071 1.00000000 0.94117647 0.78431373
v -0.07303860 0.03196856 -0.00658589 1.00000000 0.94117647 0.78431373
v -0.07731141 0.01062340 -0.01760936 1.00000000 0.94117647 0.78431373
v -0.07128052 -0.03089499 -0.01909415 1.00000000 0.94117647 0.78431373
v -0.07901507 -0.01064569 -0.00657940 1.00000000 0.94117647 0.78431373
v -0.07329953 -0.02112662 -0.02410071 1.00000000 0.94117647 0.78431373
v -0.07303860 -0.03196856 -0.00658589 1.00000000 0.94117647 0.78431373
v -0.07731141 -0.01062340 -0.01760936 1.00000000 0.94117647 0.78431373
v -0.07128052 0.03089499 0.01909415 1.00000000 0.94117647 0.78431373
v -0.07901507 0.01064569 0.00657940 1.00000000 0.94117647 0.78431373
v -0.07329953 0.02112662 0.02410071 1.00000000 0.94117647 0.78431373
v -0.07303860 0.03196856 0.00658589 1.00000000 0.94117647 0.78431373
v -0.07731141 0.01062340 0.01760936 1.00000000 0.94117647 0.78431373
v -0.07710890 0.02131238 0.00000000 1.00000000 0.94117647 0.78431373
v -0.07128052 -0.03089499 0.01909415 1.00000000 0.94117647 0.78431373
v -0.07901507 -0.01064569 0.00657940 1.00000000 0.94117647 0.78431373
v -0.07329953 -0.02112662 0.02410071 1.00000000 0.94117647 0.78431373
v -0.07303860 -0.03196856 0.00658589 1.00000000 0.94117647 0.78431373
v -0.07731141 -0.01062340 0.01760936 1.00000000 0.94117647 0.78431373
v -0.07710890 -0.02131238 0.00000000 1.00000000 0.94117647 0.78431373
f 145 677 341
f 677 282 679
f 341 679 198
f 677 679 341
f 282 678 686
f 678 182 684
f 686 684 284
f 678 684 686
f 198 685 342
f 685 284 683
f 342 683 161
f 685 683 342
f 282 686 679
f 686 284 685
f 679 685 198
f 686 685 679
f 182 682 745
f 682 283 747
f 745 747 299
f 682 747 745
f 283 681 733
f 681 156 731
f 733 731 296
f 681 731 733
f 299 749 746
f 749 296 732
f 746 732 185
f 749 732 746
f 283 733 747
f 733 296 749
f 747 749 299
f 733 749 747
f 161 735 345
f 735 297 737
f 345 737 199
f 735 737 345
f 297 736 739
f 736 185 728
f 739 728 295
f 736 728 739
f 199 729 344
f 729 295 727
f 344 727 150
f 729 727 344
f 297 739 737
f 739 295 729
f 737 729 199
f 739 729 737
f 182 745 684
f 745 299 748
f 684 748 284
f 745 748 684
f 299 746 750
f 746 185 736
f 750 736 297
f 746 736 750
f 284 738 683
f 738 297 735
f 683 735 161
f 738 735 683
f 299 750 748
f 750 297 738
f 748 738 284
f 750 738 748
f 145 341 307
f 341 198 343
f 307 343 187
f 341 343 307
f 198 342 349
f 342 161 347
f 349 347 200
f 342 347 349
f 187 348 308
f 348 200 346
f 308 346 157
f 348 346 308
f 198 349 343
f 349 200 348
f 343 348 187
f 349 348 343
f 161 345 361
f 345 199 363
f 361 363 204
f 345 363 361
f 199 344 355
f 344 150 353
f 355 353 202
f 344 353 355
f 204 365 362
f 365 202 354
f 362 354 162
f 365 354 362
f 199 355 363
f 355 202 365
f 363 365 204
f 355 365 363
f 157 356 310
f 356 203 358
f 310 358 188
f 356 358 310
f 203 357 360
f 357 162 351
f 360 351 201
f 357 351 360
f 188 352 309
f 352 201 350
f 309 350 146
f 352 350 309
f 203 360 358
f 360 201 352
f 358 352 188
f 360 352 358
f 161 361 347
f 361 204 364
f 347 364 200
f 361 364 347
f 204 362 366
f 362 162 357
f 366 357 203
f 362 357 366
f 200 359 346
f 359 203 356
f 346 356 157
f 359 356 346
f 204 366 364
f 366 203 359
f 364 359 200
f 366 359 364
f 145 307 397
f 307 187 399
f 397 399 214
f 307 399 397
f 187 308 404
f 308 157 402
f 404 402 216
f 308 402 404
f 214 405 398
f 405 216 403
f 398 403 166
f 405 403 398
f 187 404 399
f 404 216 405
f 399 405 214
f 404 405 399
f 157 310 412
f 310 188 414
f 412 414 219
f 310 414 412
f 188 309 408
f 309 146 406
f 408 406 217
f 309 406 408
f 219 416 413
f 416 217 407
f 413 407 167
f 416 407 413
f 188 408 414
f 408 217 416
f 414 416 219
f 408 416 414
f 166 417 401
f 417 220 419
f 401 419 215
f 417 419 401
f 220 418 421
f 418 167 410
f 421 410 218
f 418 410 421
f 215 411 400
f 411 218 409
f 400 409 152
f 411 409 400
f 220 421 419
f 421 218 411
f 419 411 215
f 421 411 419
f 157 412 402
f 412 219 415
f 402 415 216
f 412 415 402
f 219 413 422
f 413 167 418
f 422 418 220
f 413 418 422
f 216 420 403
f 420 220 417
f 403 417 166
f 420 417 403
f 219 422 415
f 422 220 420
f 415 420 216
f 422 420 415
f 145 397 607
f 397 214 609
f 607 609 265
f 397 609 607
f 214 398 614
f 398 166 612
f 614 612 267
f 398 612 614
f 265 615 608
f 615 267 613
f 608 613 178
f 615 613 608
f 214 614 609
f 614 267 615
f 609 615 265
f 614 615 609
f 166 401 655
f 401 215 657
f 655 657 278
f 401 657 655
f 215 400 649
f 400 152 647
f 649 647 276
f 400 647 649
f 278 659 656
f 659 276 648
f 656 648 181
f 659 648 656
f 215 649 657
f 649 276 659
f 657 659 278
f 649 659 657
f 178 665 611
f 665 280 667
f 611 667 266
f 665 667 611
f 280 666 669
f 666 181 652
f 669 652 277
f 666 652 669
f 266 653 610
f 653 277 651
f 610 651 155
f 653 651 610
f 280 669 667
f 669 277 653
f 667 653 266
f 669 653 667
f 166 655 612
f 655 278 658
f 612 658 267
f 655 658 612
f 278 656 670
f 656 181 666
f 670 666 280
f 656 666 670
f 267 668 613
f 668 280 665
f 613 665 178
f 668 665 613
f 278 670 658
f 670 280 668
f 658 668 267
f 670 668 658
f 145 607 677
f 607 265 680
f 677 680 282
f 607 680 677
f 265 608 689
f 608 178 687
f 689 687 285
f 608 687 689
f 282 690 678
f 690 285 688
f 678 688 182
f 690 688 678
f 265 689 680
f 689 285 690
f 680 690 282
f 689 690 680
f 178 611 765
f 611 266 767
f 765 767 303
f 611 767 765
f 266 610 759
f 610 155 757
f 759 757 301
f 610 757 759
f 303 769 766
f 769 301 758
f 766 758 186
f 769 758 766
f 266 759 767
f 759 301 769
f 767 769 303
f 759 769 767
f 182 775 682
f 775 305 777
f 682 777 283
f 775 777 682
f 305 776 779
f 776 186 762
f 779 762 302
f 776 762 779
f 283 763 681
f 763 302 761
f 681 761 156
f 763 761 681
f 305 779 777
f 779 302 763
f 777 763 283
f 779 763 777
f 178 765 687
f 765 303 768
f 687 768 285
f 765 768 687
f 303 766 780
f 766 186 776
f 780 776 305
f 766 776 780
f 285 778 688
f 778 305 775
f 688 775 182
f 778 775 688
f 303 780 768
f 780 305 778
f 768 778 285
f 780 778 768
f 146 350 497
f 350 201 499
f 497 499 240
f 350 499 497
f 201 351 505
f 351 162 503
f 505 503 242
f 351 503 505
f 240 506 498
f 506 242 504
f 498 504 173
f 506 504 498
f 201 505 499
f 505 242 506
f 499 506 240
f 505 506 499
f 162 354 555
f 354 202 557
f 555 557 255
f 354 557 555
f 202 353 549
f 353 150 547
f 549 547 253
f 353 547 549
f 255 559 556
f 559 253 548
f 556 548 176
f 559 548 556
f 202 549 557
f 549 253 559
f 557 559 255
f 549 559 557
f 173 565 502
f 565 257 567
f 502 567 241
f 565 567 502
f 257 566 569
f 566 176 552
f 569 552 254
f 566 552 569
f 241 553 501
f 553 254 551
f 501 551 154
f 553 551 501
f 257 569 567
f 569 254 553
f 567 553 241
f 569 553 567
f 162 555 503
f 555 255 558
f 503 558 242
f 555 558 503
f 255 556 570
f 556 176 566
f 570 566 257
f 556 566 570
f 242 568 504
f 568 257 565
f 504 565 173
f 568 565 504
f 255 570 558
f 570 257 568
f 558 568 242
f 570 568 558
f 150 727 369
f 727 295 730
f 369 730 206
f 727 730 369
f 295 728 744
f 728 185 741
f 744 741 298
f 728 741 744
f 206 742 370
f 742 298 740
f 370 740 163
f 742 740 370
f 295 744 730
f 744 298 742
f 730 742 206
f 744 742 730
f 185 732 752
f 732 296 755
f 752 755 300
f 732 755 752
f 296 731 734
f 731 156 709
f 734 709 291
f 731 709 734
f 300 753 751
f 753 291 710
f 751 710 184
f 753 710 751
f 296 734 755
f 734 291 753
f 755 753 300
f 734 753 755
f 163 717 368
f 717 293 719
f 368 719 205
f 717 719 368
f 293 718 720
f 718 184 706
f 720 706 290
f 718 706 720
f 205 708 367
f 708 290 705
f 367 705 149
f 708 705 367
f 293 720 719
f 720 290 708
f 719 708 205
f 720 708 719
f 185 752 741
f 752 300 756
f 741 756 298
f 752 756 741
f 300 751 754
f 751 184 718
f 754 718 293
f 751 718 754
f 298 743 740
f 743 293 717
f 740 717 163
f 743 717 740
f 300 754 756
f 754 293 743
f 756 743 298
f 754 743 756
f 156 761 695
f 761 302 764
f 695 764 287
f 761 764 695
f 302 762 785
f 762 186 782
f 785 782 306
f 762 782 785
f 287 783 696
f 783 306 781
f 696 781 183
f 783 781 696
f 302 785 764
f 785 306 783
f 764 783 287
f 785 783 764
f 186 758 771
f 758 301 774
f 771 774 304
f 758 774 771
f 301 757 760
f 757 155 619
f 760 619 269
f 757 619 760
f 304 772 770
f 772 269 620
f 770 620 179
f 772 620 770
f 301 760 774
f 760 269 772
f 774 772 304
f 760 772 774
f 183 702 692
f 702 289 704
f 692 704 286
f 702 704 692
f 289 701 703
f 701 179 617
f 703 617 268
f 701 617 703
f 286 694 691
f 694 268 616
f 691 616 147
f 694 616 691
f 289 703 704
f 703 268 694
f 704 694 286
f 703 694 704
f 186 771 782
f 771 304 786
f 782 786 306
f 771 786 782
f 304 770 773
f 770 179 701
f 773 701 289
f 770 701 773
f 306 784 781
f 784 289 702
f 781 702 183
f 784 702 781
f 304 773 786
f 773 289 784
f 786 784 306
f 773 784 786
f 155 651 629
f 651 277 654
f 629 654 272
f 651 654 629
f 277 652 675
f 652 181 672
f 675 672 281
f 652 672 675
f 272 673 630
f 673 281 671
f 630 671 180
f 673 671 630
f 277 675 654
f 675 281 673
f 654 673 272
f 675 673 654
f 181 648 661
f 648 276 664
f 661 664 279
f 648 664 661
f 276 647 650
f 647 152 425
f 650 425 222
f 647 425 650
f 279 662 660
f 662 222 426
f 660 426 168
f 662 426 660
f 276 650 664
f 650 222 662
f 664 662 279
f 650 662 664
f 180 638 626
f 638 274 640
f 626 640 271
f 638 640 626
f 274 637 639
f 637 168 424
f 639 424 221
f 637 424 639
f 271 628 625
f 628 221 423
f 625 423 151
f 628 423 625
f 274 639 640
f 639 221 628
f 640 628 271
f 639 628 640
f 181 661 672
f 661 279 676
f 672 676 281
f 661 676 672
f 279 660 663
f 660 168 637
f 663 637 274
f 660 637 663
f 281 674 671
f 674 274 638
f 671 638 180
f 674 638 671
f 279 663 676
f 663 274 674
f 676 674 281
f 663 674 676
f 152 409 467
f 409 218 469
f 467 469 234
f 409 469 467
f 218 410 477
f 410 167 475
f 477 475 236
f 410 475 477
f 234 479 468
f 479 236 476
f 468 476 172
f 479 476 468
f 218 477 469
f 477 236 479
f 469 479 234
f 477 479 469
f 167 407 432
f 407 217 434
f 432 434 225
f 407 434 432
f 217 406 429
f 406 146 427
f 429 427 223
f 406 427 429
f 225 435 433
f 435 223 428
f 433 428 169
f 435 428 433
f 217 429 434
f 429 223 435
f 434 435 225
f 429 435 434
f 172 486 472
f 486 238 489
f 472 489 235
f 486 489 472
f 238 485 487
f 485 169 431
f 487 431 224
f 485 431 487
f 235 473 471
f 473 224 430
f 471 430 153
f 473 430 471
f 238 487 489
f 487 224 473
f 489 473 235
f 487 473 489
f 167 432 475
f 432 225 478
f 475 478 236
f 432 478 475
f 225 433 488
f 433 169 485
f 488 485 238
f 433 485 488
f 236 490 476
f 490 238 486
f 476 486 172
f 490 486 476
f 225 488 478
f 488 238 490
f 478 490 236
f 488 490 478
f 148 511 324
f 511 244 513
f 324 513 194
f 511 513 324
f 244 512 520
f 512 174 518
f 520 518 246
f 512 518 520
f 194 519 325
f 519 246 517
f 325 517 160
f 519 517 325
f 244 520 513
f 520 246 519
f 513 519 194
f 520 519 513
f 174 516 541
f 516 245 543
f 541 543 252
f 516 543 541
f 245 515 531
f 515 154 529
f 531 529 249
f 515 529 531
f 252 545 542
f 545 249 530
f 542 530 175
f 545 530 542
f 245 531 543
f 531 249 545
f 543 545 252
f 531 545 543
f 160 532 328
f 532 250 534
f 328 534 195
f 532 534 328
f 250 533 536
f 533 175 526
f 536 526 248
f 533 526 536
f 195 527 327
f 527 248 525
f 327 525 149
f 527 525 327
f 250 536 534
f 536 248 527
f 534 527 195
f 536 527 534
f 174 541 518
f 541 252 544
f 518 544 246
f 541 544 518
f 252 542 546
f 542 175 533
f 546 533 250
f 542 533 546
f 246 535 517
f 535 250 532
f 517 532 160
f 535 532 517
f 252 546 544
f 546 250 535
f 544 535 246
f 546 535 544
f 148 324 313
f 324 194 326
f 313 326 190
f 324 326 313
f 194 325 334
f 325 160 331
f 334 331 196
f 325 331 334
f 190 332 314
f 332 196 330
f 314 330 158
f 332 330 314
f 194 334 326
f 334 196 332
f 326 332 190
f 334 332 326
f 160 328 336
f 328 195 339
f 336 339 197
f 328 339 336
f 195 327 329
f 327 149 318
f 329 318 192
f 327 318 329
f 197 337 335
f 337 192 319
f 335 319 159
f 337 319 335
f 195 329 339
f 329 192 337
f 339 337 197
f 329 337 339
f 158 320 312
f 320 193 322
f 312 322 189
f 320 322 312
f 193 321 323
f 321 159 316
f 323 316 191
f 321 316 323
f 189 317 311
f 317 191 315
f 311 315 147
f 317 315 311
f 193 323 322
f 323 191 317
f 322 317 189
f 323 317 322
f 160 336 331
f 336 197 340
f 331 340 196
f 336 340 331
f 197 335 338
f 335 159 321
f 338 321 193
f 335 321 338
f 196 333 330
f 333 193 320
f 330 320 158
f 333 320 330
f 197 338 340
f 338 193 333
f 340 333 196
f 338 333 340
f 148 313 380
f 313 190 382
f 380 382 210
f 313 382 380
f 190 314 388
f 314 158 386
f 388 386 212
f 314 386 388
f 210 390 381
f 390 212 387
f 381 387 165
f 390 387 381
f 190 388 382
f 388 212 390
f 382 390 210
f 388 390 382
f 158 312 376
f 312 189 378
f 376 378 209
f 312 378 376
f 189 311 373
f 311 147 371
f 373 371 207
f 311 371 373
f 209 379 377
f 379 207 372
f 377 372 164
f 379 372 377
f 189 373 378
f 373 207 379
f 378 379 209
f 373 379 378
f 165 392 384
f 392 213 395
f 384 395 211
f 392 395 384
f 213 391 393
f 391 164 375
f 393 375 208
f 391 375 393
f 211 385 383
f 385 208 374
f 383 374 151
f 385 374 383
f 213 393 395
f 393 208 385
f 395 385 211
f 393 385 395
f 158 376 386
f 376 209 389
f 386 389 212
f 376 389 386
f 209 377 394
f 377 164 391
f 394 391 213
f 377 391 394
f 212 396 387
f 396 213 392
f 387 392 165
f 396 392 387
f 209 394 389
f 394 213 396
f 389 396 212
f 394 396 389
f 148 380 436
f 380 210 438
f 436 438 226
f 380 438 436
f 210 381 443
f 381 165 441
f 443 441 228
f 381 441 443
f 226 444 437
f 444 228 442
f 437 442 170
f 444 442 437
f 210 443 438
f 443 228 444
f 438 444 226
f 443 444 438
f 165 384 452
f 384 211 454
f 452 454 231
f 384 454 452
f 211 383 447
f 383 151 445
f 447 445 229
f 383 445 447
f 231 456 453
f 456 229 446
f 453 446 171
f 456 446 453
f 211 447 454
f 447 229 456
f 454 456 231
f 447 456 454
f 170 461 440
f 461 233 463
f 440 463 227
f 461 463 440
f 233 462 465
f 462 171 450
f 465 450 230
f 462 450 465
f 227 451 439
f 451 230 449
f 439 449 153
f 451 449 439
f 233 465 463
f 465 230 451
f 463 451 227
f 465 451 463
f 165 452 441
f 452 231 455
f 441 455 228
f 452 455 441
f 231 453 466
f 453 171 462
f 466 462 233
f 453 462 466
f 228 464 442
f 464 233 461
f 442 461 170
f 464 461 442
f 231 466 455
f 466 233 464
f 455 464 228
f 466 464 455
f 148 436 511
f 436 226 514
f 511 514 244
f 436 514 511
f 226 437 523
f 437 170 521
f 523 521 247
f 437 521 523
f 244 524 512
f 524 247 522
f 512 522 174
f 524 522 512
f 226 523 514
f 523 247 524
f 514 524 244
f 523 524 514
f 170 440 590
f 440 227 592
f 590 592 262
f 440 592 590
f 227 439 580
f 439 153 577
f 580 577 259
f 439 577 580
f 262 594 591
f 594 259 578
f 591 578 177
f 594 578 591
f 227 580 592
f 580 259 594
f 592 594 262
f 580 594 592
f 174 601 516
f 601 264 603
f 516 603 245
f 601 603 516
f 264 602 605
f 602 177 582
f 605 582 260
f 602 582 605
f 245 584 515
f 584 260 581
f 515 581 154
f 584 581 515
f 264 605 603
f 605 260 584
f 603 584 245
f 605 584 603
f 170 590 521
f 590 262 593
f 521 593 247
f 590 593 521
f 262 591 606
f 591 177 602
f 606 602 264
f 591 602 606
f 247 604 522
f 604 264 601
f 522 601 174
f 604 601 522
f 262 606 593
f 606 264 604
f 593 604 247
f 606 604 593
f 149 525 367
f 525 248 528
f 367 528 205
f 525 528 367
f 248 526 540
f 526 175 538
f 540 538 251
f 526 538 540
f 205 539 368
f 539 251 537
f 368 537 163
f 539 537 368
f 248 540 528
f 540 251 539
f 528 539 205
f 540 539 528
f 175 530 571
f 530 249 573
f 571 573 258
f 530 573 571
f 249 529 554
f 529 154 551
f 554 551 254
f 529 551 554
f 258 575 572
f 575 254 552
f 572 552 176
f 575 552 572
f 249 554 573
f 554 254 575
f 573 575 258
f 554 575 573
f 163 560 370
f 560 256 562
f 370 562 206
f 560 562 370
f 256 561 564
f 561 176 548
f 564 548 253
f 561 548 564
f 206 550 369
f 550 253 547
f 369 547 150
f 550 547 369
f 256 564 562
f 564 253 550
f 562 550 206
f 564 550 562
f 175 571 538
f 571 258 574
f 538 574 251
f 571 574 538
f 258 572 576
f 572 176 561
f 576 561 256
f 572 561 576
f 251 563 537
f 563 256 560
f 537 560 163
f 563 560 537
f 258 576 574
f 576 256 563
f 574 563 251
f 576 563 574
f 147 315 691
f 315 191 693
f 691 693 286
f 315 693 691
f 191 316 699
f 316 159 697
f 699 697 288
f 316 697 699
f 286 700 692
f 700 288 698
f 692 698 183
f 700 698 692
f 191 699 693
f 699 288 700
f 693 700 286
f 699 700 693
f 159 319 712
f 319 192 714
f 712 714 292
f 319 714 712
f 192 318 707
f 318 149 705
f 707 705 290
f 318 705 707
f 292 716 713
f 716 290 706
f 713 706 184
f 716 706 713
f 192 707 714
f 707 290 716
f 714 716 292
f 707 716 714
f 183 721 696
f 721 294 723
f 696 723 287
f 721 723 696
f 294 722 725
f 722 184 710
f 725 710 291
f 722 710 725
f 287 711 695
f 711 291 709
f 695 709 156
f 711 709 695
f 294 725 723
f 725 291 711
f 723 711 287
f 725 711 723
f 159 712 697
f 712 292 715
f 697 715 288
f 712 715 697
f 292 713 726
f 713 184 722
f 726 722 294
f 713 722 726
f 288 724 698
f 724 294 721
f 698 721 183
f 724 721 698
f 292 726 715
f 726 294 724
f 715 724 288
f 726 724 715
f 151 374 625
f 374 208 627
f 625 627 271
f 374 627 625
f 208 375 634
f 375 164 632
f 634 632 273
f 375 632 634
f 271 636 626
f 636 273 633
f 626 633 180
f 636 633 626
f 208 634 627
f 634 273 636
f 627 636 271
f 634 636 627
f 164 372 621
f 372 207 623
f 621 623 270
f 372 623 621
f 207 371 618
f 371 147 616
f 618 616 268
f 371 616 618
f 270 624 622
f 624 268 617
f 622 617 179
f 624 617 622
f 207 618 623
f 618 268 624
f 623 624 270
f 618 624 623
f 180 642 630
f 642 275 645
f 630 645 272
f 642 645 630
f 275 641 643
f 641 179 620
f 643 620 269
f 641 620 643
f 272 631 629
f 631 269 619
f 629 619 155
f 631 619 629
f 275 643 645
f 643 269 631
f 645 631 272
f 643 631 645
f 164 621 632
f 621 270 635
f 632 635 273
f 621 635 632
f 270 622 644
f 622 179 641
f 644 641 275
f 622 641 644
f 273 646 633
f 646 275 642
f 633 642 180
f 646 642 633
f 270 644 635
f 644 275 646
f 635 646 273
f 644 646 635
f 153 449 471
f 449 230 474
f 471 474 235
f 449 474 471
f 230 450 493
f 450 171 491
f 493 491 239
f 450 491 493
f 235 495 472
f 495 239 492
f 472 492 172
f 495 492 472
f 230 493 474
f 493 239 495
f 474 495 235
f 493 495 474
f 171 446 458
f 446 229 460
f 458 460 232
f 446 460 458
f 229 445 448
f 445 151 423
f 448 423 221
f 445 423 448
f 232 459 457
f 459 221 424
f 457 424 168
f 459 424 457
f 229 448 460
f 448 221 459
f 460 459 232
f 448 459 460
f 172 481 468
f 481 237 484
f 468 484 234
f 481 484 468
f 237 480 482
f 480 168 426
f 482 426 222
f 480 426 482
f 234 470 467
f 470 222 425
f 467 425 152
f 470 425 467
f 237 482 484
f 482 222 470
f 484 470 234
f 482 470 484
f 171 458 491
f 458 232 494
f 491 494 239
f 458 494 491
f 232 457 483
f 457 168 480
f 483 480 237
f 457 480 483
f 239 496 492
f 496 237 481
f 492 481 172
f 496 481 492
f 232 483 494
f 483 237 496
f 494 496 239
f 483 496 494
f 154 581 501
f 581 260 583
f 501 583 241
f 581 583 501
f 260 582 599
f 582 177 596
f 599 596 263
f 582 596 599
f 241 597 502
f 597 263 595
f 502 595 173
f 597 595 502
f 260 599 583
f 599 263 597
f 583 597 241
f 599 597 583
f 177 578 586
f 578 259 589
f 586 589 261
f 578 589 586
f 259 577 579
f 577 153 430
f 579 430 224
f 577 430 579
f 261 587 585
f 587 224 431
f 585 431 169
f 587 431 585
f 259 579 589
f 579 224 587
f 589 587 261
f 579 587 589
f 173 508 498
f 508 243 510
f 498 510 240
f 508 510 498
f 243 507 509
f 507 169 428
f 509 428 223
f 507 428 509
f 240 500 497
f 500 223 427
f 497 427 146
f 500 427 497
f 243 509 510
f 509 223 500
f 510 500 240
f 509 500 510
f 177 586 596
f 586 261 600
f 596 600 263
f 586 600 596
f 261 585 588
f 585 169 507
f 588 507 243
f 585 507 588
f 263 598 595
f 598 243 508
f 595 508 173
f 598 508 595
f 261 588 600
f 588 243 598
f 600 598 263
f 588 598 600

o geometry_25
v 0.00000000 0.49000000 -0.30000000 0.19607843 0.19607843 0.19607843
v 0.00200000 0.49000000 -0.30000000 0.19607843 0.19607843 0.19607843
v 0.00200000 0.49000000 0.30000000 0.19607843 0.19607843 0.19607843
v 0.00000000 0.49000000 0.30000000 0.19607843 0.19607843 0.19607843
v 0.00173205 0.49100000 -0.30000000 0.19607843 0.19607843 0.19607843
v 0.00173205 0.49100000 0.30000000 0.19607843 0.19607843 0.19607843
v 0.00100000 0.49173205 -0.30000000 0.19607843 0.19607843 0.19607843
v 0.00100000 0.49173205 0.30000000 0.19607843 0.19607843 0.19607843
v 0.00000000 0.49200000 -0.30000000 0.19607843 0.19607843 0.19607843
v 0.00000000 0.49200000 0.30000000 0.19607843 0.19607843 0.19607843
v -0.00100000 0.49173205 -0.30000000 0.19607843 0.19607843 0.19607843
v -0.00100000 0.49173205 0.30000000 0.19607843 0.19607843 0.19607843
v -0.00173205 0.49100000 -0.30000000 0.19607843 0.19607843 0.19607843
v -0.00173205 0.49100000 0.30000000 0.19607843 0.19607843 0.19607843
v -0.00200000 0.49000000 -0.30000000 0.19607843 0.19607843 0.19607843
v -0.00200000 0.49000000 0.30000000 0.19607843 0.19607843 0.19607843
v -0.00173205 0.48900000 -0.30000000 0.19607843 0.19607843 0.19607843
v -0.00173205 0.48900000 0.30000000 0.19607843 0.19607843 0.19607843
v -0.00100000 0.48826795 -0.30000000 0.19607843 0.19607843 0.19607843
v -0.00100000 0.48826795 0.30000000 0.19607843 0.19607843 0.19607843
v -0.00000000 0.48800000 -0.30000000 0.19607843 0.19607843 0.19607843
v -0.00000000 0.48800000 0.30000000 0.19607843 0.19607843 0.19607843
v 0.00100000 0.48826795 -0.30000000 0.19607843 0.19607843 0.19607843
v 0.00100000 0.48826795 0.30000000 0.19607843 0.19607843 0.19607843
v 0.00173205 0.48900000 -0.30000000 0.19607843 0.19607843 0.19607843
v 0.00173205 0.48900000 0.30000000 0.19607843 0.19607843 0.19607843
f 788 787 791
f 788 791 789
f 789 791 792
f 789 792 790
f 791 787 793
f 791 793 792
f 792 793 794
f 792 794 790
f 793 787 795
f 793 795 794
f 794 795 796
f 794 796 790
f 795 787 797
f 795 797 796
f 796 797 798
f 796 798 790
f 797 787 799
f 797 799 798
f 798 799 800
f 798 800 790
f 799 787 801
f 799 801 800
f 800 801 802
f 800 802 790
f 801 787 803
f 801 803 802
f 802 803 804
f 802 804 790
f 803 787 805
f 803 805 804
f 804 805 806
f 804 806 790
f 805 787 807
f 805 807 806
f 806 807 808
f 806 808 790
f 807 787 809
f 807 809 808
f 808 809 810
f 808 810 790
f 809 787 811
f 809 811 810
f 810 811 812
f 810 812 790
f 811 787 788
f 811 788 812
f 812 788 789
f 812 789 790

o geometry_26
v 0.00000000 0.20000000 -0.01000000 0.85490196 0.64705882 0.12549020
v 0.04000000 0.20000000 -0.01000000 0.85490196 0.64705882 0.12549020
v 0.04000000 0.20000000 0.01000000 0.85490196 0.64705882 0.12549020
v 0.00000000 0.20000000 0.01000000 0.85490196 0.64705882 0.12549020
v 0.03863703 0.21035276 -0.01000000 0.85490196 0.64705882 0.12549020
v 0.03863703 0.21035276 0.01000000 0.85490196 0.64705882 0.12549020
v 0.03464102 0.22000000 -0.01000000 0.85490196 0.64705882 0.12549020
v 0.03464102 0.22000000 0.01000000 0.85490196 0.64705882 0.12549020
v 0.02828427 0.22828427 -0.01000000 0.85490196 0.64705882 0.12549020
v 0.02828427 0.22828427 0.01000000 0.85490196 0.64705882 0.12549020
v 0.02000000 0.23464102 -0.01000000 0.85490196 0.64705882 0.12549020
v 0.02000000 0.23464102 0.01000000 0.85490196 0.64705882 0.12549020
v 0.01035276 0.23863703 -0.01000000 0.85490196 0.64705882 0.12549020
v 0.01035276 0.23863703 0.01000000 0.85490196 0.64705882 0.12549020
v 0.00000000 0.24000000 -0.01000000 0.85490196 0.64705882 0.12549020
v 0.00000000 0.24000000 0.01000000 0.85490196 0.64705882 0.12549020
v -0.01035276 0.23863703 -0.01000000 0.85490196 0.64705882 0.12549020
v -0.01035276 0.23863703 0.01000000 0.85490196 0.64705882 0.12549020
v -0.02000000 0.23464102 -0.01000000 0.85490196 0.64705882 0.12549020
v -0.02000000 0.23464102 0.01000000 0.85490196 0.64705882 0.12549020
v -0.02828427 0.22828427 -0.01000000 0.85490196 0.64705882 0.12549020
v -0.02828427 0.22828427 0.01000000 0.85490196 0.64705882 0.12549020
v -0.03464102 0.22000000 -0.01000000 0.85490196 0.64705882 0.12549020
v -0.03464102 0.22000000 0.01000000 0.85490196 0.64705882 0.12549020
v -0.03863703 0.21035276 -0.01000000 0.85490196 0.64705882 0.12549020
v -0.03863703 0.21035276 0.01000000 0.85490196 0.64705882 0.12549020
v -0.04000000 0.20000000 -0.01000000 0.85490196 0.64705882 0.12549020
v -0.04000000 0.20000000 0.01000000 0.85490196 0.64705882 0.12549020
v -0.03863703 0.18964724 -0.01000000 0.85490196 0.64705882 0.12549020
v -0.03863703 0.18964724 0.01000000 0.85490196 0.64705882 0.12549020
v -0.03464102 0.18000000 -0.01000000 0.85490196 0.64705882 0.12549020
v -0.03464102 0.18000000 0.01000000 0.85490196 0.64705882 0.12549020
v -0.02828427 0.17171573 -0.01000000 0.85490196 0.64705882 0.12549020
v -0.02828427 0.17171573 0.01000000 0.85490196 0.64705882 0.12549020
v -0.02000000 0.16535898 -0.01000000 0.85490196 0.64705882 0.12549020
v -0.02000000 0.16535898 0.01000000 0.85490196 0.64705882 0.12549020
v -0.01035276 0.16136297 -0.01000000 0.85490196 0.64705882 0.12549020
v -0.01035276 0.16136297 0.01000000 0.85490196 0.64705882 0.12549020
v -0.00000000 0.16000000 -0.01000000 0.85490196 0.64705882 0.12549020
v -0.00000000 0.16000000 0.01000000 0.85490196 0.64705882 0.12549020
v 0.01035276 0.16136297 -0.01000000 0.85490196 0.64705882 0.12549020
v 0.01035276 0.16136297 0.01000000 0.85490196 0.64705882 0.12549020
v 0.02000000 0.16535898 -0.01000000 0.85490196 0.64705882 0.12549020
v 0.02000000 0.16535898 0.01000000 0.85490196 0.64705882 0.12549020
v 0.02828427 0.17171573 -0.01000000 0.85490196 0.64705882 0.12549020
v 0.02828427 0.17171573 0.01000000 0.85490196 0.64705882 0.12549020
v 0.03464102 0.18000000 -0.01000000 0.85490196 0.64705882 0.12549020
v 0.03464102 0.18000000 0.01000000 0.85490196 0.64705882 0.12549020
v 0.03863703 0.18964724 -0.01000000 0.85490196 0.64705882 0.12549020
v 0.03863703 0.18964724 0.01000000 0.85490196 0.64705882 0.12549020
f 814 813 817
f 814 817 815
f 815 817 818
f 815 818 816
f 817 813 819
f 817 819 818
f 818 819 820
f 818 820 816
f 819 813 821
f 819 821 820
f 820 821 822
f 820 822 816
f 821 813 823
f 821 823 822
f 822 823 824
f 822 824 816
f 823 813 825
f 823 825 824
f 824 825 826
f 824 826 816
f 825 813 827
f 825 827 826
f 826 827 828
f 826 828 816
f 827 813 829
f 827 829 828
f 828 829 830
f 828 830 816
f 829 813 831
f 829 831 830
f 830 831 832
f 830 832 816
f 831 813 833
f 831 833 832
f 832 833 834
f 832 834 816
f 833 813 835
f 833 835 834
f 834 835 836
f 834 836 816
f 835 813 837
f 835 837 836
f 836 837 838
f 836 838 816
f 837 813 839
f 837 839 838
f 838 839 840
f 838 840 816
f 839 813 841
f 839 841 840
f 840 841 842
f 840 842 816
f 841 813 843
f 841 843 842
f 842 843 844
f 842 844 816
f 843 813 845
f 843 845 844
f 844 845 846
f 844 846 816
f 845 813 847
f 845 847 846
f 846 847 848
f 846 848 816
f 847 813 849
f 847 849 848
f 848 849 850
f 848 850 816
f 849 813 851
f 849 851 850
f 850 851 852
f 850 852 816
f 851 813 853
f 851 853 852
f 852 853 854
f 852 854 816
f 853 813 855
f 853 855 854
f 854 855 856
f 854 856 816
f 855 813 857
f 855 857 856
f 856 857 858
f 856 858 816
f 857 813 859
f 857 859 858
f 858 859 860
f 858 860 816
f 859 813 861
f 859 861 860
f 860 861 862
f 860 862 816
f 861 813 814
f 861 814 862
f 862 814 815
f 862 815 816

