# https://github.com/mikedh/trimesh

o geometry_0
v -0.60000000 -0.30000000 -0.00050000 0.92156863 0.90196078 0.86274510
v -0.60000000 -0.30000000 0.00050000 0.92156863 0.90196078 0.86274510
v -0.60000000 0.30000000 -0.00050000 0.92156863 0.90196078 0.86274510
v -0.60000000 0.30000000 0.00050000 0.92156863 0.90196078 0.86274510
v 0.60000000 -0.30000000 -0.00050000 0.92156863 0.90196078 0.86274510
v 0.60000000 -0.30000000 0.00050000 0.92156863 0.90196078 0.86274510
v 0.60000000 0.30000000 -0.00050000 0.92156863 0.90196078 0.86274510
v 0.60000000 0.30000000 0.00050000 0.92156863 0.90196078 0.86274510
f 2 4 1
f 5 2 1
f 1 4 3
f 3 5 1
f 2 8 4
f 6 2 5
f 6 8 2
f 4 8 3
f 7 5 3
f 3 8 7
f 7 6 5
f 8 6 7

o geometry_1
v -0.57500000 -0.21500000 0.00200000 0.86274510 0.72549020 0.54901961
v -0.29500000 -0.21500000 0.00200000 0.86274510 0.72549020 0.54901961
v -0.43500000 0.06500000 0.00200000 0.86274510 0.72549020 0.54901961
v -0.57500000 -0.21500000 0.00500000 0.86274510 0.72549020 0.54901961
v -0.29500000 -0.21500000 0.00500000 0.86274510 0.72549020 0.54901961
v -0.43500000 0.06500000 0.00500000 0.86274510 0.72549020 0.54901961
f 9 11 10
f 12 13 14
f 9 10 13
f 9 13 12
f 10 11 14
f 10 14 13
f 11 9 12
f 11 12 14

o geometry_2
v -0.29500000 -0.07500000 0.00200000 0.29411765 0.30588235 0.33333333
v -0.57500000 -0.07500000 0.00200000 0.29411765 0.30588235 0.33333333
v -0.43500000 -0.35500000 0.00200000 0.29411765 0.30588235 0.33333333
v -0.29500000 -0.07500000 0.00500000 0.29411765 0.30588235 0.33333333
v -0.57500000 -0.07500000 0.00500000 0.29411765 0.30588235 0.33333333
v -0.43500000 -0.35500000 0.00500000 0.29411765 0.30588235 0.33333333
f 15 17 16
f 18 19 20
f 15 16 19
f 15 19 18
f 16 17 20
f 16 20 19
f 17 15 18
f 17 18 20

o geometry_3
v -0.28500000 -0.21500000 0.00200000 0.86274510 0.72549020 0.54901961
v -0.00500000 -0.21500000 0.00200000 0.86274510 0.72549020 0.54901961
v -0.14500000 0.06500000 0.00200000 0.86274510 0.72549020 0.54901961
v -0.28500000 -0.21500000 0.00500000 0.86274510 0.72549020 0.54901961
v -0.00500000 -0.21500000 0.00500000 0.86274510 0.72549020 0.54901961
v -0.14500000 0.06500000 0.00500000 0.86274510 0.72549020 0.54901961
f 21 23 22
f 24 25 26
f 21 22 25
f 21 25 24
f 22 23 26
f 22 26 25
f 23 21 24
f 23 24 26

o geometry_4
v -0.00500000 -0.07500000 0.00200000 0.29411765 0.30588235 0.33333333
v -0.28500000 -0.07500000 0.00200000 0.29411765 0.30588235 0.33333333
v -0.14500000 -0.35500000 0.00200000 0.29411765 0.30588235 0.33333333
v -0.00500000 -0.07500000 0.00500000 0.29411765 0.30588235 0.33333333
v -0.28500000 -0.07500000 0.00500000 0.29411765 0.30588235 0.33333333
v -0.14500000 -0.35500000 0.00500000 0.29411765 0.30588235 0.33333333
f 27 29 28
f 30 31 32
f 27 28 31
f 27 31 30
f 28 29 32
f 28 32 31
f 29 27 30
f 29 30 32

o geometry_5
v 0.00500000 -0.21500000 0.00200000 0.86274510 0.72549020 0.54901961
v 0.28500000 -0.21500000 0.00200000 0.86274510 0.72549020 0.54901961
v 0.14500000 0.06500000 0.00200000 0.86274510 0.72549020 0.54901961
v 0.00500000 -0.21500000 0.00500000 0.86274510 0.72549020 0.54901961
v 0.28500000 -0.21500000 0.00500000 0.86274510 0.72549020 0.54901961
v 0.14500000 0.06500000 0.00500000 0.86274510 0.72549020 0.54901961
f 33 35 34
f 36 37 38
f 33 34 37
f 33 37 36
f 34 35 38
f 34 38 37
f 35 33 36
f 35 36 38

o geometry_6
v 0.28500000 -0.07500000 0.00200000 0.29411765 0.30588235 0.33333333
v 0.00500000 -0.07500000 0.00200000 0.29411765 0.30588235 0.33333333
v 0.14500000 -0.35500000 0.00200000 0.29411765 0.30588235 0.33333333
v 0.28500000 -0.07500000 0.00500000 0.29411765 0.30588235 0.33333333
v 0.00500000 -0.07500000 0.00500000 0.29411765 0.30588235 0.33333333
v 0.14500000 -0.35500000 0.00500000 0.29411765 0.30588235 0.33333333
f 39 41 40
f 42 43 44
f 39 40 43
f 39 43 42
f 40 41 44
f 40 44 43
f 41 39 42
f 41 42 44

o geometry_7
v 0.29500000 -0.21500000 0.00200000 0.86274510 0.72549020 0.54901961
v 0.57500000 -0.21500000 0.00200000 0.86274510 0.72549020 0.54901961
v 0.43500000 0.06500000 0.00200000 0.86274510 0.72549020 0.54901961
v 0.29500000 -0.21500000 0.00500000 0.86274510 0.72549020 0.54901961
v 0.57500000 -0.21500000 0.00500000 0.86274510 0.72549020 0.54901961
v 0.43500000 0.06500000 0.00500000 0.86274510 0.72549020 0.54901961
f 45 47 46
f 48 49 50
f 45 46 49
f 45 49 48
f 46 47 50
f 46 50 49
f 47 45 48
f 47 48 50

o geometry_8
v 0.57500000 -0.07500000 0.00200000 0.29411765 0.30588235 0.33333333
v 0.29500000 -0.07500000 0.00200000 0.29411765 0.30588235 0.33333333
v 0.43500000 -0.35500000 0.00200000 0.29411765 0.30588235 0.33333333
v 0.57500000 -0.07500000 0.00500000 0.29411765 0.30588235 0.33333333
v 0.29500000 -0.07500000 0.00500000 0.29411765 0.30588235 0.33333333
v 0.43500000 -0.35500000 0.00500000 0.29411765 0.30588235 0.33333333
f 51 53 52
f 54 55 56
f 51 52 55
f 51 55 54
f 52 53 56
f 52 56 55
f 53 51 54
f 53 54 56

o geometry_9
v -0.57500000 0.07500000 0.00200000 0.86274510 0.72549020 0.54901961
v -0.29500000 0.07500000 0.00200000 0.86274510 0.72549020 0.54901961
v -0.43500000 0.35500000 0.00200000 0.86274510 0.72549020 0.54901961
v -0.57500000 0.07500000 0.00500000 0.86274510 0.72549020 0.54901961
v -0.29500000 0.07500000 0.00500000 0.86274510 0.72549020 0.54901961
v -0.43500000 0.35500000 0.00500000 0.86274510 0.72549020 0.54901961
f 57 59 58
f 60 61 62
f 57 58 61
f 57 61 60
f 58 59 62
f 58 62 61
f 59 57 60
f 59 60 62

o geometry_10
v -0.29500000 0.21500000 0.00200000 0.29411765 0.30588235 0.33333333
v -0.57500000 0.21500000 0.00200000 0.29411765 0.30588235 0.33333333
v -0.43500000 -0.06500000 0.00200000 0.29411765 0.30588235 0.33333333
v -0.29500000 0.21500000 0.00500000 0.29411765 0.30588235 0.33333333
v -0.57500000 0.21500000 0.00500000 0.29411765 0.30588235 0.33333333
v -0.43500000 -0.06500000 0.00500000 0.29411765 0.30588235 0.33333333
f 63 65 64
f 66 67 68
f 63 64 67
f 63 67 66
f 64 65 68
f 64 68 67
f 65 63 66
f 65 66 68

o geometry_11
v -0.28500000 0.07500000 0.00200000 0.86274510 0.72549020 0.54901961
v -0.00500000 0.07500000 0.00200000 0.86274510 0.72549020 0.54901961
v -0.14500000 0.35500000 0.00200000 0.86274510 0.72549020 0.54901961
v -0.28500000 0.07500000 0.00500000 0.86274510 0.72549020 0.54901961
v -0.00500000 0.07500000 0.00500000 0.86274510 0.72549020 0.54901961
v -0.14500000 0.35500000 0.00500000 0.86274510 0.72549020 0.54901961
f 69 71 70
f 72 73 74
f 69 70 73
f 69 73 72
f 70 71 74
f 70 74 73
f 71 69 72
f 71 72 74

o geometry_12
v -0.00500000 0.21500000 0.00200000 0.29411765 0.30588235 0.33333333
v -0.28500000 0.21500000 0.00200000 0.29411765 0.30588235 0.33333333
v -0.14500000 -0.06500000 0.00200000 0.29411765 0.30588235 0.33333333
v -0.00500000 0.21500000 0.00500000 0.29411765 0.30588235 0.33333333
v -0.28500000 0.21500000 0.00500000 0.29411765 0.30588235 0.33333333
v -0.14500000 -0.06500000 0.00500000 0.29411765 0.30588235 0.33333333
f 75 77 76
f 78 79 80
f 75 76 79
f 75 79 78
f 76 77 80
f 76 80 79
f 77 75 78
f 77 78 80

o geometry_13
v 0.00500000 0.07500000 0.00200000 0.86274510 0.72549020 0.54901961
v 0.28500000 0.07500000 0.00200000 0.86274510 0.72549020 0.54901961
v 0.14500000 0.35500000 0.00200000 0.86274510 0.72549020 0.54901961
v 0.00500000 0.07500000 0.00500000 0.86274510 0.72549020 0.54901961
v 0.28500000 0.07500000 0.00500000 0.86274510 0.72549020 0.54901961
v 0.14500000 0.35500000 0.00500000 0.86274510 0.72549020 0.54901961
f 81 83 82
f 84 85 86
f 81 82 85
f 81 85 84
f 82 83 86
f 82 86 85
f 83 81 84
f 83 84 86

o geometry_14
v 0.28500000 0.21500000 0.00200000 0.29411765 0.30588235 0.33333333
v 0.00500000 0.21500000 0.00200000 0.29411765 0.30588235 0.33333333
v 0.14500000 -0.06500000 0.00200000 0.29411765 0.30588235 0.33333333
v 0.28500000 0.21500000 0.00500000 0.29411765 0.30588235 0.33333333
v 0.00500000 0.21500000 0.00500000 0.29411765 0.30588235 0.33333333
v 0.14500000 -0.06500000 0.00500000 0.29411765 0.30588235 0.33333333
f 87 89 88
f 90 91 92
f 87 88 91
f 87 91 90
f 88 89 92
f 88 92 91
f 89 87 90
f 89 90 92

o geometry_15
v 0.29500000 0.07500000 0.00200000 0.86274510 0.72549020 0.54901961
v 0.57500000 0.07500000 0.00200000 0.86274510 0.72549020 0.54901961
v 0.43500000 0.35500000 0.00200000 0.86274510 0.72549020 0.54901961
v 0.29500000 0.07500000 0.00500000 0.86274510 0.72549020 0.54901961
v 0.57500000 0.07500000 0.00500000 0.86274510 0.72549020 0.54901961
v 0.43500000 0.35500000 0.00500000 0.86274510 0.72549020 0.54901961
f 93 95 94
f 96 97 98
f 93 94 97
f 93 97 96
f 94 95 98
f 94 98 97
f 95 93 96
f 95 96 98

o geometry_16
v 0.57500000 0.21500000 0.00200000 0.29411765 0.30588235 0.33333333
v 0.29500000 0.21500000 0.00200000 0.29411765 0.30588235 0.33333333
v 0.43500000 -0.06500000 0.00200000 0.29411765 0.30588235 0.33333333
v 0.57500000 0.21500000 0.00500000 0.29411765 0.30588235 0.33333333
v 0.29500000 0.21500000 0.00500000 0.29411765 0.30588235 0.33333333
v 0.43500000 -0.06500000 0.00500000 0.29411765 0.30588235 0.33333333
f 99 101 100
f 102 103 104
f 99 100 103
f 99 103 102
f 100 101 104
f 100 104 103
f 101 99 102
f 101 102 104

o geometry_17
v -0.57500000 0.27250000 -0.00800000 1.00000000 0.96078431 0.82352941
v -0.57500000 0.27250000 -0.00200000 1.00000000 0.96078431 0.82352941
v -0.57500000 0.28750000 -0.00800000 1.00000000 0.96078431 0.82352941
v -0.57500000 0.28750000 -0.00200000 1.00000000 0.96078431 0.82352941
v 0.57500000 0.27250000 -0.00800000 1.00000000 0.96078431 0.82352941
v 0.57500000 0.27250000 -0.00200000 1.00000000 0.96078431 0.82352941
v 0.57500000 0.28750000 -0.00800000 1.00000000 0.96078431 0.82352941
v 0.57500000 0.28750000 -0.00200000 1.00000000 0.96078431 0.82352941
f 106 108 105
f 109 106 105
f 105 108 107
f 107 109 105
f 106 112 108
f 110 106 109
f 110 112 106
f 108 112 107
f 111 109 107
f 107 112 111
f 111 110 109
f 112 110 111

o geometry_18
v -0.57500000 -0.28750000 -0.00800000 1.00000000 0.96078431 0.82352941
v -0.57500000 -0.28750000 -0.00200000 1.00000000 0.96078431 0.82352941
v -0.57500000 -0.27250000 -0.00800000 1.00000000 0.96078431 0.82352941
v -0.57500000 -0.27250000 -0.00200000 1.00000000 0.96078431 0.82352941
v 0.57500000 -0.28750000 -0.00800000 1.00000000 0.96078431 0.82352941
v 0.57500000 -0.28750000 -0.00200000 1.00000000 0.96078431 0.82352941
v 0.57500000 -0.27250000 -0.00800000 1.00000000 0.96078431 0.82352941
v 0.57500000 -0.27250000 -0.00200000 1.00000000 0.96078431 0.82352941
f 114 116 113
f 117 114 113
f 113 116 115
f 115 117 113
f 114 120 116
f 118 114 117
f 118 120 114
f 116 120 115
f 119 117 115
f 115 120 119
f 119 118 117
f 120 118 119

