# https://github.com/mikedh/trimesh
v 1.14800000 -0.51800000 0.46800000
v 1.14800000 -0.51800000 0.47600000
v 1.14800000 -0.30600000 0.46800000
v 1.14800000 -0.30600000 0.47600000
v 1.45200000 -0.51800000 0.46800000
v 1.45200000 -0.51800000 0.47600000
v 1.45200000 -0.30600000 0.46800000
v 1.45200000 -0.30600000 0.47600000
v 1.14800000 -0.31485317 0.47507295
v 1.14800000 -0.37603853 0.66338214
v 1.14800000 -0.30914683 0.47692705
v 1.14800000 -0.37033220 0.66523624
v 1.45200000 -0.31485317 0.47507295
v 1.45200000 -0.37603853 0.66338214
v 1.45200000 -0.30914683 0.47692705
v 1.45200000 -0.37033220 0.66523624
f 2 4 1
f 5 2 1
f 1 4 3
f 3 5 1
f 2 8 4
f 6 2 5
f 6 8 2
f 4 8 3
f 7 5 3
f 3 8 7
f 7 6 5
f 8 6 7
f 10 12 9
f 13 10 9
f 9 12 11
f 11 13 9
f 10 16 12
f 14 10 13
f 14 16 10
f 12 16 11
f 15 13 11
f 11 16 15
f 15 14 13
f 16 14 15

