# https://github.com/mikedh/trimesh
v -0.45000000 -0.22500000 0.00000000
v -0.45000000 -0.22500000 0.45000000
v -0.45000000 0.22500000 0.00000000
v -0.45000000 0.22500000 0.45000000
v -0.43200000 -0.22500000 0.00000000
v -0.43200000 -0.22500000 0.45000000
v -0.43200000 0.22500000 0.00000000
v -0.43200000 0.22500000 0.45000000
v -0.01800000 -0.22500000 0.00000000
v -0.01800000 -0.22500000 0.45000000
v -0.01800000 0.22500000 0.00000000
v -0.01800000 0.22500000 0.45000000
v 0.00000000 -0.22500000 0.00000000
v 0.00000000 -0.22500000 0.45000000
v 0.00000000 0.22500000 0.00000000
v 0.00000000 0.22500000 0.45000000
v -0.43200000 -0.22500000 0.43200000
v -0.43200000 -0.22500000 0.45000000
v -0.43200000 0.22500000 0.43200000
v -0.43200000 0.22500000 0.45000000
v -0.01800000 -0.22500000 0.43200000
v -0.01800000 -0.22500000 0.45000000
v -0.01800000 0.22500000 0.43200000
v -0.01800000 0.22500000 0.45000000
v -0.43200000 -0.22500000 0.00000000
v -0.43200000 -0.22500000 0.01800000
v -0.43200000 0.22500000 0.00000000
v -0.43200000 0.22500000 0.01800000
v -0.01800000 -0.22500000 0.00000000
v -0.01800000 -0.22500000 0.01800000
v -0.01800000 0.22500000 0.00000000
v -0.01800000 0.22500000 0.01800000
v -0.43200000 0.20700000 0.01800000
v -0.43200000 0.20700000 0.43200000
v -0.43200000 0.22500000 0.01800000
v -0.43200000 0.22500000 0.43200000
v -0.01800000 0.20700000 0.01800000
v -0.01800000 0.20700000 0.43200000
v -0.01800000 0.22500000 0.01800000
v -0.01800000 0.22500000 0.43200000
v -0.43200000 -0.22500000 0.01800000
v -0.43200000 -0.22500000 0.43200000
v -0.43200000 -0.20700000 0.01800000
v -0.43200000 -0.20700000 0.43200000
v -0.01800000 -0.22500000 0.01800000
v -0.01800000 -0.22500000 0.43200000
v -0.01800000 -0.20700000 0.01800000
v -0.01800000 -0.20700000 0.43200000
v 0.00000000 -0.22500000 0.00000000
v 0.00000000 -0.22500000 0.45000000
v 0.00000000 0.22500000 0.00000000
v 0.00000000 0.22500000 0.45000000
v 0.01800000 -0.22500000 0.00000000
v 0.01800000 -0.22500000 0.45000000
v 0.01800000 0.22500000 0.00000000
v 0.01800000 0.22500000 0.45000000
v 0.43200000 -0.22500000 0.00000000
v 0.43200000 -0.22500000 0.45000000
v 0.43200000 0.22500000 0.00000000
v 0.43200000 0.22500000 0.45000000
v 0.45000000 -0.22500000 0.00000000
v 0.45000000 -0.22500000 0.45000000
v 0.45000000 0.22500000 0.00000000
v 0.45000000 0.22500000 0.45000000
v 0.01800000 -0.22500000 0.43200000
v 0.01800000 -0.22500000 0.45000000
v 0.01800000 0.22500000 0.43200000
v 0.01800000 0.22500000 0.45000000
v 0.43200000 -0.22500000 0.43200000
v 0.43200000 -0.22500000 0.45000000
v 0.43200000 0.22500000 0.43200000
v 0.43200000 0.22500000 0.45000000
v 0.01800000 -0.22500000 0.00000000
v 0.01800000 -0.22500000 0.01800000
v 0.01800000 0.22500000 0.00000000
v 0.01800000 0.22500000 0.01800000
v 0.43200000 -0.22500000 0.00000000
v 0.43200000 -0.22500000 0.01800000
v 0.43200000 0.22500000 0.00000000
v 0.43200000 0.22500000 0.01800000
v 0.01800000 0.20700000 0.01800000
v 0.01800000 0.20700000 0.43200000
v 0.01800000 0.22500000 0.01800000
v 0.01800000 0.22500000 0.43200000
v 0.43200000 0.20700000 0.01800000
v 0.43200000 0.20700000 0.43200000
v 0.43200000 0.22500000 0.01800000
v 0.43200000 0.22500000 0.43200000
v 0.01800000 -0.22500000 0.01800000
v 0.01800000 -0.22500000 0.43200000
v 0.01800000 -0.20700000 0.01800000
v 0.01800000 -0.20700000 0.43200000
v 0.43200000 -0.22500000 0.01800000
v 0.43200000 -0.22500000 0.43200000
v 0.43200000 -0.20700000 0.01800000
v 0.43200000 -0.20700000 0.43200000
v 0.00000000 0.22500000 0.45300000
v 0.00180000 0.22500000 0.45300000
v 0.00180000 -0.22500000 0.45300000
v 0.00000000 -0.22500000 0.45300000
v 0.00176541 0.22500000 0.45335116
v 0.00176541 -0.22500000 0.45335116
v 0.00166298 0.22500000 0.45368883
v 0.00166298 -0.22500000 0.45368883
v 0.00149665 0.22500000 0.45400003
v 0.00149665 -0.22500000 0.45400003
v 0.00127279 0.22500000 0.45427279
v 0.00127279 -0.22500000 0.45427279
v 0.00100003 0.22500000 0.45449665
v 0.00100003 -0.22500000 0.45449665
v 0.00068883 0.22500000 0.45466298
v 0.00068883 -0.22500000 0.45466298
v 0.00035116 0.22500000 0.45476541
v 0.00035116 -0.22500000 0.45476541
v 0.00000000 0.22500000 0.45480000
v 0.00000000 -0.22500000 0.45480000
v -0.00035116 0.22500000 0.45476541
v -0.00035116 -0.22500000 0.45476541
v -0.00068883 0.22500000 0.45466298
v -0.00068883 -0.22500000 0.45466298
v -0.00100003 0.22500000 0.45449665
v -0.00100003 -0.22500000 0.45449665
v -0.00127279 0.22500000 0.45427279
v -0.00127279 -0.22500000 0.45427279
v -0.00149665 0.22500000 0.45400003
v -0.00149665 -0.22500000 0.45400003
v -0.00166298 0.22500000 0.45368883
v -0.00166298 -0.22500000 0.45368883
v -0.00176541 0.22500000 0.45335116
v -0.00176541 -0.22500000 0.45335116
v -0.00180000 0.22500000 0.45300000
v -0.00180000 -0.22500000 0.45300000
v -0.00176541 0.22500000 0.45264884
v -0.00176541 -0.22500000 0.45264884
v -0.00166298 0.22500000 0.45231117
v -0.00166298 -0.22500000 0.45231117
v -0.00149665 0.22500000 0.45199997
v -0.00149665 -0.22500000 0.45199997
v -0.00127279 0.22500000 0.45172721
v -0.00127279 -0.22500000 0.45172721
v -0.00100003 0.22500000 0.45150335
v -0.00100003 -0.22500000 0.45150335
v -0.00068883 0.22500000 0.45133702
v -0.00068883 -0.22500000 0.45133702
v -0.00035116 0.22500000 0.45123459
v -0.00035116 -0.22500000 0.45123459
v -0.00000000 0.22500000 0.45120000
v -0.00000000 -0.22500000 0.45120000
v 0.00035116 0.22500000 0.45123459
v 0.00035116 -0.22500000 0.45123459
v 0.00068883 0.22500000 0.45133702
v 0.00068883 -0.22500000 0.45133702
v 0.00100003 0.22500000 0.45150335
v 0.00100003 -0.22500000 0.45150335
v 0.00127279 0.22500000 0.45172721
v 0.00127279 -0.22500000 0.45172721
v 0.00149665 0.22500000 0.45199997
v 0.00149665 -0.22500000 0.45199997
v 0.00166298 0.22500000 0.45231117
v 0.00166298 -0.22500000 0.45231117
v 0.00176541 0.22500000 0.45264884
v 0.00176541 -0.22500000 0.45264884
v 0.00000000 -0.20062500 0.45300000
v 0.00350000 -0.20062500 0.45300000
v 0.00350000 -0.22437500 0.45300000
v 0.00000000 -0.22437500 0.45300000
v 0.00343275 -0.20062500 0.45368282
v 0.00343275 -0.22437500 0.45368282
v 0.00323358 -0.20062500 0.45433939
v 0.00323358 -0.22437500 0.45433939
v 0.00291014 -0.20062500 0.45494450
v 0.00291014 -0.22437500 0.45494450
v 0.00247487 -0.20062500 0.45547487
v 0.00247487 -0.22437500 0.45547487
v 0.00194450 -0.20062500 0.45591014
v 0.00194450 -0.22437500 0.45591014
v 0.00133939 -0.20062500 0.45623358
v 0.00133939 -0.22437500 0.45623358
v 0.00068282 -0.20062500 0.45643275
v 0.00068282 -0.22437500 0.45643275
v 0.00000000 -0.20062500 0.45650000
v 0.00000000 -0.22437500 0.45650000
v -0.00068282 -0.20062500 0.45643275
v -0.00068282 -0.22437500 0.45643275
v -0.00133939 -0.20062500 0.45623358
v -0.00133939 -0.22437500 0.45623358
v -0.00194450 -0.20062500 0.45591014
v -0.00194450 -0.22437500 0.45591014
v -0.00247487 -0.20062500 0.45547487
v -0.00247487 -0.22437500 0.45547487
v -0.00291014 -0.20062500 0.45494450
v -0.00291014 -0.22437500 0.45494450
v -0.00323358 -0.20062500 0.45433939
v -0.00323358 -0.22437500 0.45433939
v -0.00343275 -0.20062500 0.45368282
v -0.00343275 -0.22437500 0.45368282
v -0.00350000 -0.20062500 0.45300000
v -0.00350000 -0.22437500 0.45300000
v -0.00343275 -0.20062500 0.45231718
v -0.00343275 -0.22437500 0.45231718
v -0.00323358 -0.20062500 0.45166061
v -0.00323358 -0.22437500 0.45166061
v -0.00291014 -0.20062500 0.45105550
v -0.00291014 -0.22437500 0.45105550
v -0.00247487 -0.20062500 0.45052513
v -0.00247487 -0.22437500 0.45052513
v -0.00194450 -0.20062500 0.45008986
v -0.00194450 -0.22437500 0.45008986
v -0.00133939 -0.20062500 0.44976642
v -0.00133939 -0.22437500 0.44976642
v -0.00068282 -0.20062500 0.44956725
v -0.00068282 -0.22437500 0.44956725
v -0.00000000 -0.20062500 0.44950000
v -0.00000000 -0.22437500 0.44950000
v 0.00068282 -0.20062500 0.44956725
v 0.00068282 -0.22437500 0.44956725
v 0.00133939 -0.20062500 0.44976642
v 0.00133939 -0.22437500 0.44976642
v 0.00194450 -0.20062500 0.45008986
v 0.00194450 -0.22437500 0.45008986
v 0.00247487 -0.20062500 0.45052513
v 0.00247487 -0.22437500 0.45052513
v 0.00291014 -0.20062500 0.45105550
v 0.00291014 -0.22437500 0.45105550
v 0.00323358 -0.20062500 0.45166061
v 0.00323358 -0.22437500 0.45166061
v 0.00343275 -0.20062500 0.45231718
v 0.00343275 -0.22437500 0.45231718
v 0.00000000 -0.17562500 0.45300000
v 0.00350000 -0.17562500 0.45300000
v 0.00350000 -0.19937500 0.45300000
v 0.00000000 -0.19937500 0.45300000
v 0.00343275 -0.17562500 0.45368282
v 0.00343275 -0.19937500 0.45368282
v 0.00323358 -0.17562500 0.45433939
v 0.00323358 -0.19937500 0.45433939
v 0.00291014 -0.17562500 0.45494450
v 0.00291014 -0.19937500 0.45494450
v 0.00247487 -0.17562500 0.45547487
v 0.00247487 -0.19937500 0.45547487
v 0.00194450 -0.17562500 0.45591014
v 0.00194450 -0.19937500 0.45591014
v 0.00133939 -0.17562500 0.45623358
v 0.00133939 -0.19937500 0.45623358
v 0.00068282 -0.17562500 0.45643275
v 0.00068282 -0.19937500 0.45643275
v 0.00000000 -0.17562500 0.45650000
v 0.00000000 -0.19937500 0.45650000
v -0.00068282 -0.17562500 0.45643275
v -0.00068282 -0.19937500 0.45643275
v -0.00133939 -0.17562500 0.45623358
v -0.00133939 -0.19937500 0.45623358
v -0.00194450 -0.17562500 0.45591014
v -0.00194450 -0.19937500 0.45591014
v -0.00247487 -0.17562500 0.45547487
v -0.00247487 -0.19937500 0.45547487
v -0.00291014 -0.17562500 0.45494450
v -0.00291014 -0.19937500 0.45494450
v -0.00323358 -0.17562500 0.45433939
v -0.00323358 -0.19937500 0.45433939
v -0.00343275 -0.17562500 0.45368282
v -0.00343275 -0.19937500 0.45368282
v -0.00350000 -0.17562500 0.45300000
v -0.00350000 -0.19937500 0.45300000
v -0.00343275 -0.17562500 0.45231718
v -0.00343275 -0.19937500 0.45231718
v -0.00323358 -0.17562500 0.45166061
v -0.00323358 -0.19937500 0.45166061
v -0.00291014 -0.17562500 0.45105550
v -0.00291014 -0.19937500 0.45105550
v -0.00247487 -0.17562500 0.45052513
v -0.00247487 -0.19937500 0.45052513
v -0.00194450 -0.17562500 0.45008986
v -0.00194450 -0.19937500 0.45008986
v -0.00133939 -0.17562500 0.44976642
v -0.00133939 -0.19937500 0.44976642
v -0.00068282 -0.17562500 0.44956725
v -0.00068282 -0.19937500 0.44956725
v -0.00000000 -0.17562500 0.44950000
v -0.00000000 -0.19937500 0.44950000
v 0.00068282 -0.17562500 0.44956725
v 0.00068282 -0.19937500 0.44956725
v 0.00133939 -0.17562500 0.44976642
v 0.00133939 -0.19937500 0.44976642
v 0.00194450 -0.17562500 0.45008986
v 0.00194450 -0.19937500 0.45008986
v 0.00247487 -0.17562500 0.45052513
v 0.00247487 -0.19937500 0.45052513
v 0.00291014 -0.17562500 0.45105550
v 0.00291014 -0.19937500 0.45105550
v 0.00323358 -0.17562500 0.45166061
v 0.00323358 -0.19937500 0.45166061
v 0.00343275 -0.17562500 0.45231718
v 0.00343275 -0.19937500 0.45231718
v 0.00000000 -0.15062500 0.45300000
v 0.00350000 -0.15062500 0.45300000
v 0.00350000 -0.17437500 0.45300000
v 0.00000000 -0.17437500 0.45300000
v 0.00343275 -0.15062500 0.45368282
v 0.00343275 -0.17437500 0.45368282
v 0.00323358 -0.15062500 0.45433939
v 0.00323358 -0.17437500 0.45433939
v 0.00291014 -0.15062500 0.45494450
v 0.00291014 -0.17437500 0.45494450
v 0.00247487 -0.15062500 0.45547487
v 0.00247487 -0.17437500 0.45547487
v 0.00194450 -0.15062500 0.45591014
v 0.00194450 -0.17437500 0.45591014
v 0.00133939 -0.15062500 0.45623358
v 0.00133939 -0.17437500 0.45623358
v 0.00068282 -0.15062500 0.45643275
v 0.00068282 -0.17437500 0.45643275
v 0.00000000 -0.15062500 0.45650000
v 0.00000000 -0.17437500 0.45650000
v -0.00068282 -0.15062500 0.45643275
v -0.00068282 -0.17437500 0.45643275
v -0.00133939 -0.15062500 0.45623358
v -0.00133939 -0.17437500 0.45623358
v -0.00194450 -0.15062500 0.45591014
v -0.00194450 -0.17437500 0.45591014
v -0.00247487 -0.15062500 0.45547487
v -0.00247487 -0.17437500 0.45547487
v -0.00291014 -0.15062500 0.45494450
v -0.00291014 -0.17437500 0.45494450
v -0.00323358 -0.15062500 0.45433939
v -0.00323358 -0.17437500 0.45433939
v -0.00343275 -0.15062500 0.45368282
v -0.00343275 -0.17437500 0.45368282
v -0.00350000 -0.15062500 0.45300000
v -0.00350000 -0.17437500 0.45300000
v -0.00343275 -0.15062500 0.45231718
v -0.00343275 -0.17437500 0.45231718
v -0.00323358 -0.15062500 0.45166061
v -0.00323358 -0.17437500 0.45166061
v -0.00291014 -0.15062500 0.45105550
v -0.00291014 -0.17437500 0.45105550
v -0.00247487 -0.15062500 0.45052513
v -0.00247487 -0.17437500 0.45052513
v -0.00194450 -0.15062500 0.45008986
v -0.00194450 -0.17437500 0.45008986
v -0.00133939 -0.15062500 0.44976642
v -0.00133939 -0.17437500 0.44976642
v -0.00068282 -0.15062500 0.44956725
v -0.00068282 -0.17437500 0.44956725
v -0.00000000 -0.15062500 0.44950000
v -0.00000000 -0.17437500 0.44950000
v 0.00068282 -0.15062500 0.44956725
v 0.00068282 -0.17437500 0.44956725
v 0.00133939 -0.15062500 0.44976642
v 0.00133939 -0.17437500 0.44976642
v 0.00194450 -0.15062500 0.45008986
v 0.00194450 -0.17437500 0.45008986
v 0.00247487 -0.15062500 0.45052513
v 0.00247487 -0.17437500 0.45052513
v 0.00291014 -0.15062500 0.45105550
v 0.00291014 -0.17437500 0.45105550
v 0.00323358 -0.15062500 0.45166061
v 0.00323358 -0.17437500 0.45166061
v 0.00343275 -0.15062500 0.45231718
v 0.00343275 -0.17437500 0.45231718
v 0.00000000 -0.12562500 0.45300000
v 0.00350000 -0.12562500 0.45300000
v 0.00350000 -0.14937500 0.45300000
v 0.00000000 -0.14937500 0.45300000
v 0.00343275 -0.12562500 0.45368282
v 0.00343275 -0.14937500 0.45368282
v 0.00323358 -0.12562500 0.45433939
v 0.00323358 -0.14937500 0.45433939
v 0.00291014 -0.12562500 0.45494450
v 0.00291014 -0.14937500 0.45494450
v 0.00247487 -0.12562500 0.45547487
v 0.00247487 -0.14937500 0.45547487
v 0.00194450 -0.12562500 0.45591014
v 0.00194450 -0.14937500 0.45591014
v 0.00133939 -0.12562500 0.45623358
v 0.00133939 -0.14937500 0.45623358
v 0.00068282 -0.12562500 0.45643275
v 0.00068282 -0.14937500 0.45643275
v 0.00000000 -0.12562500 0.45650000
v 0.00000000 -0.14937500 0.45650000
v -0.00068282 -0.12562500 0.45643275
v -0.00068282 -0.14937500 0.45643275
v -0.00133939 -0.12562500 0.45623358
v -0.00133939 -0.14937500 0.45623358
v -0.00194450 -0.12562500 0.45591014
v -0.00194450 -0.14937500 0.45591014
v -0.00247487 -0.12562500 0.45547487
v -0.00247487 -0.14937500 0.45547487
v -0.00291014 -0.12562500 0.45494450
v -0.00291014 -0.14937500 0.45494450
v -0.00323358 -0.12562500 0.45433939
v -0.00323358 -0.14937500 0.45433939
v -0.00343275 -0.12562500 0.45368282
v -0.00343275 -0.14937500 0.45368282
v -0.00350000 -0.12562500 0.45300000
v -0.00350000 -0.14937500 0.45300000
v -0.00343275 -0.12562500 0.45231718
v -0.00343275 -0.14937500 0.45231718
v -0.00323358 -0.12562500 0.45166061
v -0.00323358 -0.14937500 0.45166061
v -0.00291014 -0.12562500 0.45105550
v -0.00291014 -0.14937500 0.45105550
v -0.00247487 -0.12562500 0.45052513
v -0.00247487 -0.14937500 0.45052513
v -0.00194450 -0.12562500 0.45008986
v -0.00194450 -0.14937500 0.45008986
v -0.00133939 -0.12562500 0.44976642
v -0.00133939 -0.14937500 0.44976642
v -0.00068282 -0.12562500 0.44956725
v -0.00068282 -0.14937500 0.44956725
v -0.00000000 -0.12562500 0.44950000
v -0.00000000 -0.14937500 0.44950000
v 0.00068282 -0.12562500 0.44956725
v 0.00068282 -0.14937500 0.44956725
v 0.00133939 -0.12562500 0.44976642
v 0.00133939 -0.14937500 0.44976642
v 0.00194450 -0.12562500 0.45008986
v 0.00194450 -0.14937500 0.45008986
v 0.00247487 -0.12562500 0.45052513
v 0.00247487 -0.14937500 0.45052513
v 0.00291014 -0.12562500 0.45105550
v 0.00291014 -0.14937500 0.45105550
v 0.00323358 -0.12562500 0.45166061
v 0.00323358 -0.14937500 0.45166061
v 0.00343275 -0.12562500 0.45231718
v 0.00343275 -0.14937500 0.45231718
v 0.00000000 -0.10062500 0.45300000
v 0.00350000 -0.10062500 0.45300000
v 0.00350000 -0.12437500 0.45300000
v 0.00000000 -0.12437500 0.45300000
v 0.00343275 -0.10062500 0.45368282
v 0.00343275 -0.12437500 0.45368282
v 0.00323358 -0.10062500 0.45433939
v 0.00323358 -0.12437500 0.45433939
v 0.00291014 -0.10062500 0.45494450
v 0.00291014 -0.12437500 0.45494450
v 0.00247487 -0.10062500 0.45547487
v 0.00247487 -0.12437500 0.45547487
v 0.00194450 -0.10062500 0.45591014
v 0.00194450 -0.12437500 0.45591014
v 0.00133939 -0.10062500 0.45623358
v 0.00133939 -0.12437500 0.45623358
v 0.00068282 -0.10062500 0.45643275
v 0.00068282 -0.12437500 0.45643275
v 0.00000000 -0.10062500 0.45650000
v 0.00000000 -0.12437500 0.45650000
v -0.00068282 -0.10062500 0.45643275
v -0.00068282 -0.12437500 0.45643275
v -0.00133939 -0.10062500 0.45623358
v -0.00133939 -0.12437500 0.45623358
v -0.00194450 -0.10062500 0.45591014
v -0.00194450 -0.12437500 0.45591014
v -0.00247487 -0.10062500 0.45547487
v -0.00247487 -0.12437500 0.45547487
v -0.00291014 -0.10062500 0.45494450
v -0.00291014 -0.12437500 0.45494450
v -0.00323358 -0.10062500 0.45433939
v -0.00323358 -0.12437500 0.45433939
v -0.00343275 -0.10062500 0.45368282
v -0.00343275 -0.12437500 0.45368282
v -0.00350000 -0.10062500 0.45300000
v -0.00350000 -0.12437500 0.45300000
v -0.00343275 -0.10062500 0.45231718
v -0.00343275 -0.12437500 0.45231718
v -0.00323358 -0.10062500 0.45166061
v -0.00323358 -0.12437500 0.45166061
v -0.00291014 -0.10062500 0.45105550
v -0.00291014 -0.12437500 0.45105550
v -0.00247487 -0.10062500 0.45052513
v -0.00247487 -0.12437500 0.45052513
v -0.00194450 -0.10062500 0.45008986
v -0.00194450 -0.12437500 0.45008986
v -0.00133939 -0.10062500 0.44976642
v -0.00133939 -0.12437500 0.44976642
v -0.00068282 -0.10062500 0.44956725
v -0.00068282 -0.12437500 0.44956725
v -0.00000000 -0.10062500 0.44950000
v -0.00000000 -0.12437500 0.44950000
v 0.00068282 -0.10062500 0.44956725
v 0.00068282 -0.12437500 0.44956725
v 0.00133939 -0.10062500 0.44976642
v 0.00133939 -0.12437500 0.44976642
v 0.00194450 -0.10062500 0.45008986
v 0.00194450 -0.12437500 0.45008986
v 0.00247487 -0.10062500 0.45052513
v 0.00247487 -0.12437500 0.45052513
v 0.00291014 -0.10062500 0.45105550
v 0.00291014 -0.12437500 0.45105550
v 0.00323358 -0.10062500 0.45166061
v 0.00323358 -0.12437500 0.45166061
v 0.00343275 -0.10062500 0.45231718
v 0.00343275 -0.12437500 0.45231718
v 0.00000000 -0.07562500 0.45300000
v 0.00350000 -0.07562500 0.45300000
v 0.00350000 -0.09937500 0.45300000
v 0.00000000 -0.09937500 0.45300000
v 0.00343275 -0.07562500 0.45368282
v 0.00343275 -0.09937500 0.45368282
v 0.00323358 -0.07562500 0.45433939
v 0.00323358 -0.09937500 0.45433939
v 0.00291014 -0.07562500 0.45494450
v 0.00291014 -0.09937500 0.45494450
v 0.00247487 -0.07562500 0.45547487
v 0.00247487 -0.09937500 0.45547487
v 0.00194450 -0.07562500 0.45591014
v 0.00194450 -0.09937500 0.45591014
v 0.00133939 -0.07562500 0.45623358
v 0.00133939 -0.09937500 0.45623358
v 0.00068282 -0.07562500 0.45643275
v 0.00068282 -0.09937500 0.45643275
v 0.00000000 -0.07562500 0.45650000
v 0.00000000 -0.09937500 0.45650000
v -0.00068282 -0.07562500 0.45643275
v -0.00068282 -0.09937500 0.45643275
v -0.00133939 -0.07562500 0.45623358
v -0.00133939 -0.09937500 0.45623358
v -0.00194450 -0.07562500 0.45591014
v -0.00194450 -0.09937500 0.45591014
v -0.00247487 -0.07562500 0.45547487
v -0.00247487 -0.09937500 0.45547487
v -0.00291014 -0.07562500 0.45494450
v -0.00291014 -0.09937500 0.45494450
v -0.00323358 -0.07562500 0.45433939
v -0.00323358 -0.09937500 0.45433939
v -0.00343275 -0.07562500 0.45368282
v -0.00343275 -0.09937500 0.45368282
v -0.00350000 -0.07562500 0.45300000
v -0.00350000 -0.09937500 0.45300000
v -0.00343275 -0.07562500 0.45231718
v -0.00343275 -0.09937500 0.45231718
v -0.00323358 -0.07562500 0.45166061
v -0.00323358 -0.09937500 0.45166061
v -0.00291014 -0.07562500 0.45105550
v -0.00291014 -0.09937500 0.45105550
v -0.00247487 -0.07562500 0.45052513
v -0.00247487 -0.09937500 0.45052513
v -0.00194450 -0.07562500 0.45008986
v -0.00194450 -0.09937500 0.45008986
v -0.00133939 -0.07562500 0.44976642
v -0.00133939 -0.09937500 0.44976642
v -0.00068282 -0.07562500 0.44956725
v -0.00068282 -0.09937500 0.44956725
v -0.00000000 -0.07562500 0.44950000
v -0.00000000 -0.09937500 0.44950000
v 0.00068282 -0.07562500 0.44956725
v 0.00068282 -0.09937500 0.44956725
v 0.00133939 -0.07562500 0.44976642
v 0.00133939 -0.09937500 0.44976642
v 0.00194450 -0.07562500 0.45008986
v 0.00194450 -0.09937500 0.45008986
v 0.00247487 -0.07562500 0.45052513
v 0.00247487 -0.09937500 0.45052513
v 0.00291014 -0.07562500 0.45105550
v 0.00291014 -0.09937500 0.45105550
v 0.00323358 -0.07562500 0.45166061
v 0.00323358 -0.09937500 0.45166061
v 0.00343275 -0.07562500 0.45231718
v 0.00343275 -0.09937500 0.45231718
v 0.00000000 -0.05062500 0.45300000
v 0.00350000 -0.05062500 0.45300000
v 0.00350000 -0.07437500 0.45300000
v 0.00000000 -0.07437500 0.45300000
v 0.00343275 -0.05062500 0.45368282
v 0.00343275 -0.07437500 0.45368282
v 0.00323358 -0.05062500 0.45433939
v 0.00323358 -0.07437500 0.45433939
v 0.00291014 -0.05062500 0.45494450
v 0.00291014 -0.07437500 0.45494450
v 0.00247487 -0.05062500 0.45547487
v 0.00247487 -0.07437500 0.45547487
v 0.00194450 -0.05062500 0.45591014
v 0.00194450 -0.07437500 0.45591014
v 0.00133939 -0.05062500 0.45623358
v 0.00133939 -0.07437500 0.45623358
v 0.00068282 -0.05062500 0.45643275
v 0.00068282 -0.07437500 0.45643275
v 0.00000000 -0.05062500 0.45650000
v 0.00000000 -0.07437500 0.45650000
v -0.00068282 -0.05062500 0.45643275
v -0.00068282 -0.07437500 0.45643275
v -0.00133939 -0.05062500 0.45623358
v -0.00133939 -0.07437500 0.45623358
v -0.00194450 -0.05062500 0.45591014
v -0.00194450 -0.07437500 0.45591014
v -0.00247487 -0.05062500 0.45547487
v -0.00247487 -0.07437500 0.45547487
v -0.00291014 -0.05062500 0.45494450
v -0.00291014 -0.07437500 0.45494450
v -0.00323358 -0.05062500 0.45433939
v -0.00323358 -0.07437500 0.45433939
v -0.00343275 -0.05062500 0.45368282
v -0.00343275 -0.07437500 0.45368282
v -0.00350000 -0.05062500 0.45300000
v -0.00350000 -0.07437500 0.45300000
v -0.00343275 -0.05062500 0.45231718
v -0.00343275 -0.07437500 0.45231718
v -0.00323358 -0.05062500 0.45166061
v -0.00323358 -0.07437500 0.45166061
v -0.00291014 -0.05062500 0.45105550
v -0.00291014 -0.07437500 0.45105550
v -0.00247487 -0.05062500 0.45052513
v -0.00247487 -0.07437500 0.45052513
v -0.00194450 -0.05062500 0.45008986
v -0.00194450 -0.07437500 0.45008986
v -0.00133939 -0.05062500 0.44976642
v -0.00133939 -0.07437500 0.44976642
v -0.00068282 -0.05062500 0.44956725
v -0.00068282 -0.07437500 0.44956725
v -0.00000000 -0.05062500 0.44950000
v -0.00000000 -0.07437500 0.44950000
v 0.00068282 -0.05062500 0.44956725
v 0.00068282 -0.07437500 0.44956725
v 0.00133939 -0.05062500 0.44976642
v 0.00133939 -0.07437500 0.44976642
v 0.00194450 -0.05062500 0.45008986
v 0.00194450 -0.07437500 0.45008986
v 0.00247487 -0.05062500 0.45052513
v 0.00247487 -0.07437500 0.45052513
v 0.00291014 -0.05062500 0.45105550
v 0.00291014 -0.07437500 0.45105550
v 0.00323358 -0.05062500 0.45166061
v 0.00323358 -0.07437500 0.45166061
v 0.00343275 -0.05062500 0.45231718
v 0.00343275 -0.07437500 0.45231718
v 0.00000000 -0.02562500 0.45300000
v 0.00350000 -0.02562500 0.45300000
v 0.00350000 -0.04937500 0.45300000
v 0.00000000 -0.04937500 0.45300000
v 0.00343275 -0.02562500 0.45368282
v 0.00343275 -0.04937500 0.45368282
v 0.00323358 -0.02562500 0.45433939
v 0.00323358 -0.04937500 0.45433939
v 0.00291014 -0.02562500 0.45494450
v 0.00291014 -0.04937500 0.45494450
v 0.00247487 -0.02562500 0.45547487
v 0.00247487 -0.04937500 0.45547487
v 0.00194450 -0.02562500 0.45591014
v 0.00194450 -0.04937500 0.45591014
v 0.00133939 -0.02562500 0.45623358
v 0.00133939 -0.04937500 0.45623358
v 0.00068282 -0.02562500 0.45643275
v 0.00068282 -0.04937500 0.45643275
v 0.00000000 -0.02562500 0.45650000
v 0.00000000 -0.04937500 0.45650000
v -0.00068282 -0.02562500 0.45643275
v -0.00068282 -0.04937500 0.45643275
v -0.00133939 -0.02562500 0.45623358
v -0.00133939 -0.04937500 0.45623358
v -0.00194450 -0.02562500 0.45591014
v -0.00194450 -0.04937500 0.45591014
v -0.00247487 -0.02562500 0.45547487
v -0.00247487 -0.04937500 0.45547487
v -0.00291014 -0.02562500 0.45494450
v -0.00291014 -0.04937500 0.45494450
v -0.00323358 -0.02562500 0.45433939
v -0.00323358 -0.04937500 0.45433939
v -0.00343275 -0.02562500 0.45368282
v -0.00343275 -0.04937500 0.45368282
v -0.00350000 -0.02562500 0.45300000
v -0.00350000 -0.04937500 0.45300000
v -0.00343275 -0.02562500 0.45231718
v -0.00343275 -0.04937500 0.45231718
v -0.00323358 -0.02562500 0.45166061
v -0.00323358 -0.04937500 0.45166061
v -0.00291014 -0.02562500 0.45105550
v -0.00291014 -0.04937500 0.45105550
v -0.00247487 -0.02562500 0.45052513
v -0.00247487 -0.04937500 0.45052513
v -0.00194450 -0.02562500 0.45008986
v -0.00194450 -0.04937500 0.45008986
v -0.00133939 -0.02562500 0.44976642
v -0.00133939 -0.04937500 0.44976642
v -0.00068282 -0.02562500 0.44956725
v -0.00068282 -0.04937500 0.44956725
v -0.00000000 -0.02562500 0.44950000
v -0.00000000 -0.04937500 0.44950000
v 0.00068282 -0.02562500 0.44956725
v 0.00068282 -0.04937500 0.44956725
v 0.00133939 -0.02562500 0.44976642
v 0.00133939 -0.04937500 0.44976642
v 0.00194450 -0.02562500 0.45008986
v 0.00194450 -0.04937500 0.45008986
v 0.00247487 -0.02562500 0.45052513
v 0.00247487 -0.04937500 0.45052513
v 0.00291014 -0.02562500 0.45105550
v 0.00291014 -0.04937500 0.45105550
v 0.00323358 -0.02562500 0.45166061
v 0.00323358 -0.04937500 0.45166061
v 0.00343275 -0.02562500 0.45231718
v 0.00343275 -0.04937500 0.45231718
v 0.00000000 -0.00062500 0.45300000
v 0.00350000 -0.00062500 0.45300000
v 0.00350000 -0.02437500 0.45300000
v 0.00000000 -0.02437500 0.45300000
v 0.00343275 -0.00062500 0.45368282
v 0.00343275 -0.02437500 0.45368282
v 0.00323358 -0.00062500 0.45433939
v 0.00323358 -0.02437500 0.45433939
v 0.00291014 -0.00062500 0.45494450
v 0.00291014 -0.02437500 0.45494450
v 0.00247487 -0.00062500 0.45547487
v 0.00247487 -0.02437500 0.45547487
v 0.00194450 -0.00062500 0.45591014
v 0.00194450 -0.02437500 0.45591014
v 0.00133939 -0.00062500 0.45623358
v 0.00133939 -0.02437500 0.45623358
v 0.00068282 -0.00062500 0.45643275
v 0.00068282 -0.02437500 0.45643275
v 0.00000000 -0.00062500 0.45650000
v 0.00000000 -0.02437500 0.45650000
v -0.00068282 -0.00062500 0.45643275
v -0.00068282 -0.02437500 0.45643275
v -0.00133939 -0.00062500 0.45623358
v -0.00133939 -0.02437500 0.45623358
v -0.00194450 -0.00062500 0.45591014
v -0.00194450 -0.02437500 0.45591014
v -0.00247487 -0.00062500 0.45547487
v -0.00247487 -0.02437500 0.45547487
v -0.00291014 -0.00062500 0.45494450
v -0.00291014 -0.02437500 0.45494450
v -0.00323358 -0.00062500 0.45433939
v -0.00323358 -0.02437500 0.45433939
v -0.00343275 -0.00062500 0.45368282
v -0.00343275 -0.02437500 0.45368282
v -0.00350000 -0.00062500 0.45300000
v -0.00350000 -0.02437500 0.45300000
v -0.00343275 -0.00062500 0.45231718
v -0.00343275 -0.02437500 0.45231718
v -0.00323358 -0.00062500 0.45166061
v -0.00323358 -0.02437500 0.45166061
v -0.00291014 -0.00062500 0.45105550
v -0.00291014 -0.02437500 0.45105550
v -0.00247487 -0.00062500 0.45052513
v -0.00247487 -0.02437500 0.45052513
v -0.00194450 -0.00062500 0.45008986
v -0.00194450 -0.02437500 0.45008986
v -0.00133939 -0.00062500 0.44976642
v -0.00133939 -0.02437500 0.44976642
v -0.00068282 -0.00062500 0.44956725
v -0.00068282 -0.02437500 0.44956725
v -0.00000000 -0.00062500 0.44950000
v -0.00000000 -0.02437500 0.44950000
v 0.00068282 -0.00062500 0.44956725
v 0.00068282 -0.02437500 0.44956725
v 0.00133939 -0.00062500 0.44976642
v 0.00133939 -0.02437500 0.44976642
v 0.00194450 -0.00062500 0.45008986
v 0.00194450 -0.02437500 0.45008986
v 0.00247487 -0.00062500 0.45052513
v 0.00247487 -0.02437500 0.45052513
v 0.00291014 -0.00062500 0.45105550
v 0.00291014 -0.02437500 0.45105550
v 0.00323358 -0.00062500 0.45166061
v 0.00323358 -0.02437500 0.45166061
v 0.00343275 -0.00062500 0.45231718
v 0.00343275 -0.02437500 0.45231718
v 0.00000000 0.02437500 0.45300000
v 0.00350000 0.02437500 0.45300000
v 0.00350000 0.00062500 0.45300000
v 0.00000000 0.00062500 0.45300000
v 0.00343275 0.02437500 0.45368282
v 0.00343275 0.00062500 0.45368282
v 0.00323358 0.02437500 0.45433939
v 0.00323358 0.00062500 0.45433939
v 0.00291014 0.02437500 0.45494450
v 0.00291014 0.00062500 0.45494450
v 0.00247487 0.02437500 0.45547487
v 0.00247487 0.00062500 0.45547487
v 0.00194450 0.02437500 0.45591014
v 0.00194450 0.00062500 0.45591014
v 0.00133939 0.02437500 0.45623358
v 0.00133939 0.00062500 0.45623358
v 0.00068282 0.02437500 0.45643275
v 0.00068282 0.00062500 0.45643275
v 0.00000000 0.02437500 0.45650000
v 0.00000000 0.00062500 0.45650000
v -0.00068282 0.02437500 0.45643275
v -0.00068282 0.00062500 0.45643275
v -0.00133939 0.02437500 0.45623358
v -0.00133939 0.00062500 0.45623358
v -0.00194450 0.02437500 0.45591014
v -0.00194450 0.00062500 0.45591014
v -0.00247487 0.02437500 0.45547487
v -0.00247487 0.00062500 0.45547487
v -0.00291014 0.02437500 0.45494450
v -0.00291014 0.00062500 0.45494450
v -0.00323358 0.02437500 0.45433939
v -0.00323358 0.00062500 0.45433939
v -0.00343275 0.02437500 0.45368282
v -0.00343275 0.00062500 0.45368282
v -0.00350000 0.02437500 0.45300000
v -0.00350000 0.00062500 0.45300000
v -0.00343275 0.02437500 0.45231718
v -0.00343275 0.00062500 0.45231718
v -0.00323358 0.02437500 0.45166061
v -0.00323358 0.00062500 0.45166061
v -0.00291014 0.02437500 0.45105550
v -0.00291014 0.00062500 0.45105550
v -0.00247487 0.02437500 0.45052513
v -0.00247487 0.00062500 0.45052513
v -0.00194450 0.02437500 0.45008986
v -0.00194450 0.00062500 0.45008986
v -0.00133939 0.02437500 0.44976642
v -0.00133939 0.00062500 0.44976642
v -0.00068282 0.02437500 0.44956725
v -0.00068282 0.00062500 0.44956725
v -0.00000000 0.02437500 0.44950000
v -0.00000000 0.00062500 0.44950000
v 0.00068282 0.02437500 0.44956725
v 0.00068282 0.00062500 0.44956725
v 0.00133939 0.02437500 0.44976642
v 0.00133939 0.00062500 0.44976642
v 0.00194450 0.02437500 0.45008986
v 0.00194450 0.00062500 0.45008986
v 0.00247487 0.02437500 0.45052513
v 0.00247487 0.00062500 0.45052513
v 0.00291014 0.02437500 0.45105550
v 0.00291014 0.00062500 0.45105550
v 0.00323358 0.02437500 0.45166061
v 0.00323358 0.00062500 0.45166061
v 0.00343275 0.02437500 0.45231718
v 0.00343275 0.00062500 0.45231718
v 0.00000000 0.04937500 0.45300000
v 0.00350000 0.04937500 0.45300000
v 0.00350000 0.02562500 0.45300000
v 0.00000000 0.02562500 0.45300000
v 0.00343275 0.04937500 0.45368282
v 0.00343275 0.02562500 0.45368282
v 0.00323358 0.04937500 0.45433939
v 0.00323358 0.02562500 0.45433939
v 0.00291014 0.04937500 0.45494450
v 0.00291014 0.02562500 0.45494450
v 0.00247487 0.04937500 0.45547487
v 0.00247487 0.02562500 0.45547487
v 0.00194450 0.04937500 0.45591014
v 0.00194450 0.02562500 0.45591014
v 0.00133939 0.04937500 0.45623358
v 0.00133939 0.02562500 0.45623358
v 0.00068282 0.04937500 0.45643275
v 0.00068282 0.02562500 0.45643275
v 0.00000000 0.04937500 0.45650000
v 0.00000000 0.02562500 0.45650000
v -0.00068282 0.04937500 0.45643275
v -0.00068282 0.02562500 0.45643275
v -0.00133939 0.04937500 0.45623358
v -0.00133939 0.02562500 0.45623358
v -0.00194450 0.04937500 0.45591014
v -0.00194450 0.02562500 0.45591014
v -0.00247487 0.04937500 0.45547487
v -0.00247487 0.02562500 0.45547487
v -0.00291014 0.04937500 0.45494450
v -0.00291014 0.02562500 0.45494450
v -0.00323358 0.04937500 0.45433939
v -0.00323358 0.02562500 0.45433939
v -0.00343275 0.04937500 0.45368282
v -0.00343275 0.02562500 0.45368282
v -0.00350000 0.04937500 0.45300000
v -0.00350000 0.02562500 0.45300000
v -0.00343275 0.04937500 0.45231718
v -0.00343275 0.02562500 0.45231718
v -0.00323358 0.04937500 0.45166061
v -0.00323358 0.02562500 0.45166061
v -0.00291014 0.04937500 0.45105550
v -0.00291014 0.02562500 0.45105550
v -0.00247487 0.04937500 0.45052513
v -0.00247487 0.02562500 0.45052513
v -0.00194450 0.04937500 0.45008986
v -0.00194450 0.02562500 0.45008986
v -0.00133939 0.04937500 0.44976642
v -0.00133939 0.02562500 0.44976642
v -0.00068282 0.04937500 0.44956725
v -0.00068282 0.02562500 0.44956725
v -0.00000000 0.04937500 0.44950000
v -0.00000000 0.02562500 0.44950000
v 0.00068282 0.04937500 0.44956725
v 0.00068282 0.02562500 0.44956725
v 0.00133939 0.04937500 0.44976642
v 0.00133939 0.02562500 0.44976642
v 0.00194450 0.04937500 0.45008986
v 0.00194450 0.02562500 0.45008986
v 0.00247487 0.04937500 0.45052513
v 0.00247487 0.02562500 0.45052513
v 0.00291014 0.04937500 0.45105550
v 0.00291014 0.02562500 0.45105550
v 0.00323358 0.04937500 0.45166061
v 0.00323358 0.02562500 0.45166061
v 0.00343275 0.04937500 0.45231718
v 0.00343275 0.02562500 0.45231718
v 0.00000000 0.07437500 0.45300000
v 0.00350000 0.07437500 0.45300000
v 0.00350000 0.05062500 0.45300000
v 0.00000000 0.05062500 0.45300000
v 0.00343275 0.07437500 0.45368282
v 0.00343275 0.05062500 0.45368282
v 0.00323358 0.07437500 0.45433939
v 0.00323358 0.05062500 0.45433939
v 0.00291014 0.07437500 0.45494450
v 0.00291014 0.05062500 0.45494450
v 0.00247487 0.07437500 0.45547487
v 0.00247487 0.05062500 0.45547487
v 0.00194450 0.07437500 0.45591014
v 0.00194450 0.05062500 0.45591014
v 0.00133939 0.07437500 0.45623358
v 0.00133939 0.05062500 0.45623358
v 0.00068282 0.07437500 0.45643275
v 0.00068282 0.05062500 0.45643275
v 0.00000000 0.07437500 0.45650000
v 0.00000000 0.05062500 0.45650000
v -0.00068282 0.07437500 0.45643275
v -0.00068282 0.05062500 0.45643275
v -0.00133939 0.07437500 0.45623358
v -0.00133939 0.05062500 0.45623358
v -0.00194450 0.07437500 0.45591014
v -0.00194450 0.05062500 0.45591014
v -0.00247487 0.07437500 0.45547487
v -0.00247487 0.05062500 0.45547487
v -0.00291014 0.07437500 0.45494450
v -0.00291014 0.05062500 0.45494450
v -0.00323358 0.07437500 0.45433939
v -0.00323358 0.05062500 0.45433939
v -0.00343275 0.07437500 0.45368282
v -0.00343275 0.05062500 0.45368282
v -0.00350000 0.07437500 0.45300000
v -0.00350000 0.05062500 0.45300000
v -0.00343275 0.07437500 0.45231718
v -0.00343275 0.05062500 0.45231718
v -0.00323358 0.07437500 0.45166061
v -0.00323358 0.05062500 0.45166061
v -0.00291014 0.07437500 0.45105550
v -0.00291014 0.05062500 0.45105550
v -0.00247487 0.07437500 0.45052513
v -0.00247487 0.05062500 0.45052513
v -0.00194450 0.07437500 0.45008986
v -0.00194450 0.05062500 0.45008986
v -0.00133939 0.07437500 0.44976642
v -0.00133939 0.05062500 0.44976642
v -0.00068282 0.07437500 0.44956725
v -0.00068282 0.05062500 0.44956725
v -0.00000000 0.07437500 0.44950000
v -0.00000000 0.05062500 0.44950000
v 0.00068282 0.07437500 0.44956725
v 0.00068282 0.05062500 0.44956725
v 0.00133939 0.07437500 0.44976642
v 0.00133939 0.05062500 0.44976642
v 0.00194450 0.07437500 0.45008986
v 0.00194450 0.05062500 0.45008986
v 0.00247487 0.07437500 0.45052513
v 0.00247487 0.05062500 0.45052513
v 0.00291014 0.07437500 0.45105550
v 0.00291014 0.05062500 0.45105550
v 0.00323358 0.07437500 0.45166061
v 0.00323358 0.05062500 0.45166061
v 0.00343275 0.07437500 0.45231718
v 0.00343275 0.05062500 0.45231718
v 0.00000000 0.09937500 0.45300000
v 0.00350000 0.09937500 0.45300000
v 0.00350000 0.07562500 0.45300000
v 0.00000000 0.07562500 0.45300000
v 0.00343275 0.09937500 0.45368282
v 0.00343275 0.07562500 0.45368282
v 0.00323358 0.09937500 0.45433939
v 0.00323358 0.07562500 0.45433939
v 0.00291014 0.09937500 0.45494450
v 0.00291014 0.07562500 0.45494450
v 0.00247487 0.09937500 0.45547487
v 0.00247487 0.07562500 0.45547487
v 0.00194450 0.09937500 0.45591014
v 0.00194450 0.07562500 0.45591014
v 0.00133939 0.09937500 0.45623358
v 0.00133939 0.07562500 0.45623358
v 0.00068282 0.09937500 0.45643275
v 0.00068282 0.07562500 0.45643275
v 0.00000000 0.09937500 0.45650000
v 0.00000000 0.07562500 0.45650000
v -0.00068282 0.09937500 0.45643275
v -0.00068282 0.07562500 0.45643275
v -0.00133939 0.09937500 0.45623358
v -0.00133939 0.07562500 0.45623358
v -0.00194450 0.09937500 0.45591014
v -0.00194450 0.07562500 0.45591014
v -0.00247487 0.09937500 0.45547487
v -0.00247487 0.07562500 0.45547487
v -0.00291014 0.09937500 0.45494450
v -0.00291014 0.07562500 0.45494450
v -0.00323358 0.09937500 0.45433939
v -0.00323358 0.07562500 0.45433939
v -0.00343275 0.09937500 0.45368282
v -0.00343275 0.07562500 0.45368282
v -0.00350000 0.09937500 0.45300000
v -0.00350000 0.07562500 0.45300000
v -0.00343275 0.09937500 0.45231718
v -0.00343275 0.07562500 0.45231718
v -0.00323358 0.09937500 0.45166061
v -0.00323358 0.07562500 0.45166061
v -0.00291014 0.09937500 0.45105550
v -0.00291014 0.07562500 0.45105550
v -0.00247487 0.09937500 0.45052513
v -0.00247487 0.07562500 0.45052513
v -0.00194450 0.09937500 0.45008986
v -0.00194450 0.07562500 0.45008986
v -0.00133939 0.09937500 0.44976642
v -0.00133939 0.07562500 0.44976642
v -0.00068282 0.09937500 0.44956725
v -0.00068282 0.07562500 0.44956725
v -0.00000000 0.09937500 0.44950000
v -0.00000000 0.07562500 0.44950000
v 0.00068282 0.09937500 0.44956725
v 0.00068282 0.07562500 0.44956725
v 0.00133939 0.09937500 0.44976642
v 0.00133939 0.07562500 0.44976642
v 0.00194450 0.09937500 0.45008986
v 0.00194450 0.07562500 0.45008986
v 0.00247487 0.09937500 0.45052513
v 0.00247487 0.07562500 0.45052513
v 0.00291014 0.09937500 0.45105550
v 0.00291014 0.07562500 0.45105550
v 0.00323358 0.09937500 0.45166061
v 0.00323358 0.07562500 0.45166061
v 0.00343275 0.09937500 0.45231718
v 0.00343275 0.07562500 0.45231718
v 0.00000000 0.12437500 0.45300000
v 0.00350000 0.12437500 0.45300000
v 0.00350000 0.10062500 0.45300000
v 0.00000000 0.10062500 0.45300000
v 0.00343275 0.12437500 0.45368282
v 0.00343275 0.10062500 0.45368282
v 0.00323358 0.12437500 0.45433939
v 0.00323358 0.10062500 0.45433939
v 0.00291014 0.12437500 0.45494450
v 0.00291014 0.10062500 0.45494450
v 0.00247487 0.12437500 0.45547487
v 0.00247487 0.10062500 0.45547487
v 0.00194450 0.12437500 0.45591014
v 0.00194450 0.10062500 0.45591014
v 0.00133939 0.12437500 0.45623358
v 0.00133939 0.10062500 0.45623358
v 0.00068282 0.12437500 0.45643275
v 0.00068282 0.10062500 0.45643275
v 0.00000000 0.12437500 0.45650000
v 0.00000000 0.10062500 0.45650000
v -0.00068282 0.12437500 0.45643275
v -0.00068282 0.10062500 0.45643275
v -0.00133939 0.12437500 0.45623358
v -0.00133939 0.10062500 0.45623358
v -0.00194450 0.12437500 0.45591014
v -0.00194450 0.10062500 0.45591014
v -0.00247487 0.12437500 0.45547487
v -0.00247487 0.10062500 0.45547487
v -0.00291014 0.12437500 0.45494450
v -0.00291014 0.10062500 0.45494450
v -0.00323358 0.12437500 0.45433939
v -0.00323358 0.10062500 0.45433939
v -0.00343275 0.12437500 0.45368282
v -0.00343275 0.10062500 0.45368282
v -0.00350000 0.12437500 0.45300000
v -0.00350000 0.10062500 0.45300000
v -0.00343275 0.12437500 0.45231718
v -0.00343275 0.10062500 0.45231718
v -0.00323358 0.12437500 0.45166061
v -0.00323358 0.10062500 0.45166061
v -0.00291014 0.12437500 0.45105550
v -0.00291014 0.10062500 0.45105550
v -0.00247487 0.12437500 0.45052513
v -0.00247487 0.10062500 0.45052513
v -0.00194450 0.12437500 0.45008986
v -0.00194450 0.10062500 0.45008986
v -0.00133939 0.12437500 0.44976642
v -0.00133939 0.10062500 0.44976642
v -0.00068282 0.12437500 0.44956725
v -0.00068282 0.10062500 0.44956725
v -0.00000000 0.12437500 0.44950000
v -0.00000000 0.10062500 0.44950000
v 0.00068282 0.12437500 0.44956725
v 0.00068282 0.10062500 0.44956725
v 0.00133939 0.12437500 0.44976642
v 0.00133939 0.10062500 0.44976642
v 0.00194450 0.12437500 0.45008986
v 0.00194450 0.10062500 0.45008986
v 0.00247487 0.12437500 0.45052513
v 0.00247487 0.10062500 0.45052513
v 0.00291014 0.12437500 0.45105550
v 0.00291014 0.10062500 0.45105550
v 0.00323358 0.12437500 0.45166061
v 0.00323358 0.10062500 0.45166061
v 0.00343275 0.12437500 0.45231718
v 0.00343275 0.10062500 0.45231718
v 0.00000000 0.14937500 0.45300000
v 0.00350000 0.14937500 0.45300000
v 0.00350000 0.12562500 0.45300000
v 0.00000000 0.12562500 0.45300000
v 0.00343275 0.14937500 0.45368282
v 0.00343275 0.12562500 0.45368282
v 0.00323358 0.14937500 0.45433939
v 0.00323358 0.12562500 0.45433939
v 0.00291014 0.14937500 0.45494450
v 0.00291014 0.12562500 0.45494450
v 0.00247487 0.14937500 0.45547487
v 0.00247487 0.12562500 0.45547487
v 0.00194450 0.14937500 0.45591014
v 0.00194450 0.12562500 0.45591014
v 0.00133939 0.14937500 0.45623358
v 0.00133939 0.12562500 0.45623358
v 0.00068282 0.14937500 0.45643275
v 0.00068282 0.12562500 0.45643275
v 0.00000000 0.14937500 0.45650000
v 0.00000000 0.12562500 0.45650000
v -0.00068282 0.14937500 0.45643275
v -0.00068282 0.12562500 0.45643275
v -0.00133939 0.14937500 0.45623358
v -0.00133939 0.12562500 0.45623358
v -0.00194450 0.14937500 0.45591014
v -0.00194450 0.12562500 0.45591014
v -0.00247487 0.14937500 0.45547487
v -0.00247487 0.12562500 0.45547487
v -0.00291014 0.14937500 0.45494450
v -0.00291014 0.12562500 0.45494450
v -0.00323358 0.14937500 0.45433939
v -0.00323358 0.12562500 0.45433939
v -0.00343275 0.14937500 0.45368282
v -0.00343275 0.12562500 0.45368282
v -0.00350000 0.14937500 0.45300000
v -0.00350000 0.12562500 0.45300000
v -0.00343275 0.14937500 0.45231718
v -0.00343275 0.12562500 0.45231718
v -0.00323358 0.14937500 0.45166061
v -0.00323358 0.12562500 0.45166061
v -0.00291014 0.14937500 0.45105550
v -0.00291014 0.12562500 0.45105550
v -0.00247487 0.14937500 0.45052513
v -0.00247487 0.12562500 0.45052513
v -0.00194450 0.14937500 0.45008986
v -0.00194450 0.12562500 0.45008986
v -0.00133939 0.14937500 0.44976642
v -0.00133939 0.12562500 0.44976642
v -0.00068282 0.14937500 0.44956725
v -0.00068282 0.12562500 0.44956725
v -0.00000000 0.14937500 0.44950000
v -0.00000000 0.12562500 0.44950000
v 0.00068282 0.14937500 0.44956725
v 0.00068282 0.12562500 0.44956725
v 0.00133939 0.14937500 0.44976642
v 0.00133939 0.12562500 0.44976642
v 0.00194450 0.14937500 0.45008986
v 0.00194450 0.12562500 0.45008986
v 0.00247487 0.14937500 0.45052513
v 0.00247487 0.12562500 0.45052513
v 0.00291014 0.14937500 0.45105550
v 0.00291014 0.12562500 0.45105550
v 0.00323358 0.14937500 0.45166061
v 0.00323358 0.12562500 0.45166061
v 0.00343275 0.14937500 0.45231718
v 0.00343275 0.12562500 0.45231718
v 0.00000000 0.17437500 0.45300000
v 0.00350000 0.17437500 0.45300000
v 0.00350000 0.15062500 0.45300000
v 0.00000000 0.15062500 0.45300000
v 0.00343275 0.17437500 0.45368282
v 0.00343275 0.15062500 0.45368282
v 0.00323358 0.17437500 0.45433939
v 0.00323358 0.15062500 0.45433939
v 0.00291014 0.17437500 0.45494450
v 0.00291014 0.15062500 0.45494450
v 0.00247487 0.17437500 0.45547487
v 0.00247487 0.15062500 0.45547487
v 0.00194450 0.17437500 0.45591014
v 0.00194450 0.15062500 0.45591014
v 0.00133939 0.17437500 0.45623358
v 0.00133939 0.15062500 0.45623358
v 0.00068282 0.17437500 0.45643275
v 0.00068282 0.15062500 0.45643275
v 0.00000000 0.17437500 0.45650000
v 0.00000000 0.15062500 0.45650000
v -0.00068282 0.17437500 0.45643275
v -0.00068282 0.15062500 0.45643275
v -0.00133939 0.17437500 0.45623358
v -0.00133939 0.15062500 0.45623358
v -0.00194450 0.17437500 0.45591014
v -0.00194450 0.15062500 0.45591014
v -0.00247487 0.17437500 0.45547487
v -0.00247487 0.15062500 0.45547487
v -0.00291014 0.17437500 0.45494450
v -0.00291014 0.15062500 0.45494450
v -0.00323358 0.17437500 0.45433939
v -0.00323358 0.15062500 0.45433939
v -0.00343275 0.17437500 0.45368282
v -0.00343275 0.15062500 0.45368282
v -0.00350000 0.17437500 0.45300000
v -0.00350000 0.15062500 0.45300000
v -0.00343275 0.17437500 0.45231718
v -0.00343275 0.15062500 0.45231718
v -0.00323358 0.17437500 0.45166061
v -0.00323358 0.15062500 0.45166061
v -0.00291014 0.17437500 0.45105550
v -0.00291014 0.15062500 0.45105550
v -0.00247487 0.17437500 0.45052513
v -0.00247487 0.15062500 0.45052513
v -0.00194450 0.17437500 0.45008986
v -0.00194450 0.15062500 0.45008986
v -0.00133939 0.17437500 0.44976642
v -0.00133939 0.15062500 0.44976642
v -0.00068282 0.17437500 0.44956725
v -0.00068282 0.15062500 0.44956725
v -0.00000000 0.17437500 0.44950000
v -0.00000000 0.15062500 0.44950000
v 0.00068282 0.17437500 0.44956725
v 0.00068282 0.15062500 0.44956725
v 0.00133939 0.17437500 0.44976642
v 0.00133939 0.15062500 0.44976642
v 0.00194450 0.17437500 0.45008986
v 0.00194450 0.15062500 0.45008986
v 0.00247487 0.17437500 0.45052513
v 0.00247487 0.15062500 0.45052513
v 0.00291014 0.17437500 0.45105550
v 0.00291014 0.15062500 0.45105550
v 0.00323358 0.17437500 0.45166061
v 0.00323358 0.15062500 0.45166061
v 0.00343275 0.17437500 0.45231718
v 0.00343275 0.15062500 0.45231718
v 0.00000000 0.19937500 0.45300000
v 0.00350000 0.19937500 0.45300000
v 0.00350000 0.17562500 0.45300000
v 0.00000000 0.17562500 0.45300000
v 0.00343275 0.19937500 0.45368282
v 0.00343275 0.17562500 0.45368282
v 0.00323358 0.19937500 0.45433939
v 0.00323358 0.17562500 0.45433939
v 0.00291014 0.19937500 0.45494450
v 0.00291014 0.17562500 0.45494450
v 0.00247487 0.19937500 0.45547487
v 0.00247487 0.17562500 0.45547487
v 0.00194450 0.19937500 0.45591014
v 0.00194450 0.17562500 0.45591014
v 0.00133939 0.19937500 0.45623358
v 0.00133939 0.17562500 0.45623358
v 0.00068282 0.19937500 0.45643275
v 0.00068282 0.17562500 0.45643275
v 0.00000000 0.19937500 0.45650000
v 0.00000000 0.17562500 0.45650000
v -0.00068282 0.19937500 0.45643275
v -0.00068282 0.17562500 0.45643275
v -0.00133939 0.19937500 0.45623358
v -0.00133939 0.17562500 0.45623358
v -0.00194450 0.19937500 0.45591014
v -0.00194450 0.17562500 0.45591014
v -0.00247487 0.19937500 0.45547487
v -0.00247487 0.17562500 0.45547487
v -0.00291014 0.19937500 0.45494450
v -0.00291014 0.17562500 0.45494450
v -0.00323358 0.19937500 0.45433939
v -0.00323358 0.17562500 0.45433939
v -0.00343275 0.19937500 0.45368282
v -0.00343275 0.17562500 0.45368282
v -0.00350000 0.19937500 0.45300000
v -0.00350000 0.17562500 0.45300000
v -0.00343275 0.19937500 0.45231718
v -0.00343275 0.17562500 0.45231718
v -0.00323358 0.19937500 0.45166061
v -0.00323358 0.17562500 0.45166061
v -0.00291014 0.19937500 0.45105550
v -0.00291014 0.17562500 0.45105550
v -0.00247487 0.19937500 0.45052513
v -0.00247487 0.17562500 0.45052513
v -0.00194450 0.19937500 0.45008986
v -0.00194450 0.17562500 0.45008986
v -0.00133939 0.19937500 0.44976642
v -0.00133939 0.17562500 0.44976642
v -0.00068282 0.19937500 0.44956725
v -0.00068282 0.17562500 0.44956725
v -0.00000000 0.19937500 0.44950000
v -0.00000000 0.17562500 0.44950000
v 0.00068282 0.19937500 0.44956725
v 0.00068282 0.17562500 0.44956725
v 0.00133939 0.19937500 0.44976642
v 0.00133939 0.17562500 0.44976642
v 0.00194450 0.19937500 0.45008986
v 0.00194450 0.17562500 0.45008986
v 0.00247487 0.19937500 0.45052513
v 0.00247487 0.17562500 0.45052513
v 0.00291014 0.19937500 0.45105550
v 0.00291014 0.17562500 0.45105550
v 0.00323358 0.19937500 0.45166061
v 0.00323358 0.17562500 0.45166061
v 0.00343275 0.19937500 0.45231718
v 0.00343275 0.17562500 0.45231718
v 0.00000000 0.22437500 0.45300000
v 0.00350000 0.22437500 0.45300000
v 0.00350000 0.20062500 0.45300000
v 0.00000000 0.20062500 0.45300000
v 0.00343275 0.22437500 0.45368282
v 0.00343275 0.20062500 0.45368282
v 0.00323358 0.22437500 0.45433939
v 0.00323358 0.20062500 0.45433939
v 0.00291014 0.22437500 0.45494450
v 0.00291014 0.20062500 0.45494450
v 0.00247487 0.22437500 0.45547487
v 0.00247487 0.20062500 0.45547487
v 0.00194450 0.22437500 0.45591014
v 0.00194450 0.20062500 0.45591014
v 0.00133939 0.22437500 0.45623358
v 0.00133939 0.20062500 0.45623358
v 0.00068282 0.22437500 0.45643275
v 0.00068282 0.20062500 0.45643275
v 0.00000000 0.22437500 0.45650000
v 0.00000000 0.20062500 0.45650000
v -0.00068282 0.22437500 0.45643275
v -0.00068282 0.20062500 0.45643275
v -0.00133939 0.22437500 0.45623358
v -0.00133939 0.20062500 0.45623358
v -0.00194450 0.22437500 0.45591014
v -0.00194450 0.20062500 0.45591014
v -0.00247487 0.22437500 0.45547487
v -0.00247487 0.20062500 0.45547487
v -0.00291014 0.22437500 0.45494450
v -0.00291014 0.20062500 0.45494450
v -0.00323358 0.22437500 0.45433939
v -0.00323358 0.20062500 0.45433939
v -0.00343275 0.22437500 0.45368282
v -0.00343275 0.20062500 0.45368282
v -0.00350000 0.22437500 0.45300000
v -0.00350000 0.20062500 0.45300000
v -0.00343275 0.22437500 0.45231718
v -0.00343275 0.20062500 0.45231718
v -0.00323358 0.22437500 0.45166061
v -0.00323358 0.20062500 0.45166061
v -0.00291014 0.22437500 0.45105550
v -0.00291014 0.20062500 0.45105550
v -0.00247487 0.22437500 0.45052513
v -0.00247487 0.20062500 0.45052513
v -0.00194450 0.22437500 0.45008986
v -0.00194450 0.20062500 0.45008986
v -0.00133939 0.22437500 0.44976642
v -0.00133939 0.20062500 0.44976642
v -0.00068282 0.22437500 0.44956725
v -0.00068282 0.20062500 0.44956725
v -0.00000000 0.22437500 0.44950000
v -0.00000000 0.20062500 0.44950000
v 0.00068282 0.22437500 0.44956725
v 0.00068282 0.20062500 0.44956725
v 0.00133939 0.22437500 0.44976642
v 0.00133939 0.20062500 0.44976642
v 0.00194450 0.22437500 0.45008986
v 0.00194450 0.20062500 0.45008986
v 0.00247487 0.22437500 0.45052513
v 0.00247487 0.20062500 0.45052513
v 0.00291014 0.22437500 0.45105550
v 0.00291014 0.20062500 0.45105550
v 0.00323358 0.22437500 0.45166061
v 0.00323358 0.20062500 0.45166061
v 0.00343275 0.22437500 0.45231718
v 0.00343275 0.20062500 0.45231718
v -0.02400000 -0.22500000 0.45085000
v -0.02400000 -0.22500000 0.45235000
v -0.02400000 0.22500000 0.45085000
v -0.02400000 0.22500000 0.45235000
v 0.00000000 -0.22500000 0.45085000
v 0.00000000 -0.22500000 0.45235000
v 0.00000000 0.22500000 0.45085000
v 0.00000000 0.22500000 0.45235000
v 0.00000000 -0.22500000 0.45085000
v 0.00000000 -0.22500000 0.45235000
v 0.00000000 0.22500000 0.45085000
v 0.00000000 0.22500000 0.45235000
v 0.02400000 -0.22500000 0.45085000
v 0.02400000 -0.22500000 0.45235000
v 0.02400000 0.22500000 0.45085000
v 0.02400000 0.22500000 0.45235000
f 2 4 1
f 5 2 1
f 1 4 3
f 3 5 1
f 2 8 4
f 6 2 5
f 6 8 2
f 4 8 3
f 7 5 3
f 3 8 7
f 7 6 5
f 8 6 7
f 10 12 9
f 13 10 9
f 9 12 11
f 11 13 9
f 10 16 12
f 14 10 13
f 14 16 10
f 12 16 11
f 15 13 11
f 11 16 15
f 15 14 13
f 16 14 15
f 18 20 17
f 21 18 17
f 17 20 19
f 19 21 17
f 18 24 20
f 22 18 21
f 22 24 18
f 20 24 19
f 23 21 19
f 19 24 23
f 23 22 21
f 24 22 23
f 26 28 25
f 29 26 25
f 25 28 27
f 27 29 25
f 26 32 28
f 30 26 29
f 30 32 26
f 28 32 27
f 31 29 27
f 27 32 31
f 31 30 29
f 32 30 31
f 34 36 33
f 37 34 33
f 33 36 35
f 35 37 33
f 34 40 36
f 38 34 37
f 38 40 34
f 36 40 35
f 39 37 35
f 35 40 39
f 39 38 37
f 40 38 39
f 42 44 41
f 45 42 41
f 41 44 43
f 43 45 41
f 42 48 44
f 46 42 45
f 46 48 42
f 44 48 43
f 47 45 43
f 43 48 47
f 47 46 45
f 48 46 47
f 50 52 49
f 53 50 49
f 49 52 51
f 51 53 49
f 50 56 52
f 54 50 53
f 54 56 50
f 52 56 51
f 55 53 51
f 51 56 55
f 55 54 53
f 56 54 55
f 58 60 57
f 61 58 57
f 57 60 59
f 59 61 57
f 58 64 60
f 62 58 61
f 62 64 58
f 60 64 59
f 63 61 59
f 59 64 63
f 63 62 61
f 64 62 63
f 66 68 65
f 69 66 65
f 65 68 67
f 67 69 65
f 66 72 68
f 70 66 69
f 70 72 66
f 68 72 67
f 71 69 67
f 67 72 71
f 71 70 69
f 72 70 71
f 74 76 73
f 77 74 73
f 73 76 75
f 75 77 73
f 74 80 76
f 78 74 77
f 78 80 74
f 76 80 75
f 79 77 75
f 75 80 79
f 79 78 77
f 80 78 79
f 82 84 81
f 85 82 81
f 81 84 83
f 83 85 81
f 82 88 84
f 86 82 85
f 86 88 82
f 84 88 83
f 87 85 83
f 83 88 87
f 87 86 85
f 88 86 87
f 90 92 89
f 93 90 89
f 89 92 91
f 91 93 89
f 90 96 92
f 94 90 93
f 94 96 90
f 92 96 91
f 95 93 91
f 91 96 95
f 95 94 93
f 96 94 95
f 98 97 101
f 98 101 99
f 99 101 102
f 99 102 100
f 101 97 103
f 101 103 102
f 102 103 104
f 102 104 100
f 103 97 105
f 103 105 104
f 104 105 106
f 104 106 100
f 105 97 107
f 105 107 106
f 106 107 108
f 106 108 100
f 107 97 109
f 107 109 108
f 108 109 110
f 108 110 100
f 109 97 111
f 109 111 110
f 110 111 112
f 110 112 100
f 111 97 113
f 111 113 112
f 112 113 114
f 112 114 100
f 113 97 115
f 113 115 114
f 114 115 116
f 114 116 100
f 115 97 117
f 115 117 116
f 116 117 118
f 116 118 100
f 117 97 119
f 117 119 118
f 118 119 120
f 118 120 100
f 119 97 121
f 119 121 120
f 120 121 122
f 120 122 100
f 121 97 123
f 121 123 122
f 122 123 124
f 122 124 100
f 123 97 125
f 123 125 124
f 124 125 126
f 124 126 100
f 125 97 127
f 125 127 126
f 126 127 128
f 126 128 100
f 127 97 129
f 127 129 128
f 128 129 130
f 128 130 100
f 129 97 131
f 129 131 130
f 130 131 132
f 130 132 100
f 131 97 133
f 131 133 132
f 132 133 134
f 132 134 100
f 133 97 135
f 133 135 134
f 134 135 136
f 134 136 100
f 135 97 137
f 135 137 136
f 136 137 138
f 136 138 100
f 137 97 139
f 137 139 138
f 138 139 140
f 138 140 100
f 139 97 141
f 139 141 140
f 140 141 142
f 140 142 100
f 141 97 143
f 141 143 142
f 142 143 144
f 142 144 100
f 143 97 145
f 143 145 144
f 144 145 146
f 144 146 100
f 145 97 147
f 145 147 146
f 146 147 148
f 146 148 100
f 147 97 149
f 147 149 148
f 148 149 150
f 148 150 100
f 149 97 151
f 149 151 150
f 150 151 152
f 150 152 100
f 151 97 153
f 151 153 152
f 152 153 154
f 152 154 100
f 153 97 155
f 153 155 154
f 154 155 156
f 154 156 100
f 155 97 157
f 155 157 156
f 156 157 158
f 156 158 100
f 157 97 159
f 157 159 158
f 158 159 160
f 158 160 100
f 159 97 161
f 159 161 160
f 160 161 162
f 160 162 100
f 161 97 98
f 161 98 162
f 162 98 99
f 162 99 100
f 164 163 167
f 164 167 165
f 165 167 168
f 165 168 166
f 167 163 169
f 167 169 168
f 168 169 170
f 168 170 166
f 169 163 171
f 169 171 170
f 170 171 172
f 170 172 166
f 171 163 173
f 171 173 172
f 172 173 174
f 172 174 166
f 173 163 175
f 173 175 174
f 174 175 176
f 174 176 166
f 175 163 177
f 175 177 176
f 176 177 178
f 176 178 166
f 177 163 179
f 177 179 178
f 178 179 180
f 178 180 166
f 179 163 181
f 179 181 180
f 180 181 182
f 180 182 166
f 181 163 183
f 181 183 182
f 182 183 184
f 182 184 166
f 183 163 185
f 183 185 184
f 184 185 186
f 184 186 166
f 185 163 187
f 185 187 186
f 186 187 188
f 186 188 166
f 187 163 189
f 187 189 188
f 188 189 190
f 188 190 166
f 189 163 191
f 189 191 190
f 190 191 192
f 190 192 166
f 191 163 193
f 191 193 192
f 192 193 194
f 192 194 166
f 193 163 195
f 193 195 194
f 194 195 196
f 194 196 166
f 195 163 197
f 195 197 196
f 196 197 198
f 196 198 166
f 197 163 199
f 197 199 198
f 198 199 200
f 198 200 166
f 199 163 201
f 199 201 200
f 200 201 202
f 200 202 166
f 201 163 203
f 201 203 202
f 202 203 204
f 202 204 166
f 203 163 205
f 203 205 204
f 204 205 206
f 204 206 166
f 205 163 207
f 205 207 206
f 206 207 208
f 206 208 166
f 207 163 209
f 207 209 208
f 208 209 210
f 208 210 166
f 209 163 211
f 209 211 210
f 210 211 212
f 210 212 166
f 211 163 213
f 211 213 212
f 212 213 214
f 212 214 166
f 213 163 215
f 213 215 214
f 214 215 216
f 214 216 166
f 215 163 217
f 215 217 216
f 216 217 218
f 216 218 166
f 217 163 219
f 217 219 218
f 218 219 220
f 218 220 166
f 219 163 221
f 219 221 220
f 220 221 222
f 220 222 166
f 221 163 223
f 221 223 222
f 222 223 224
f 222 224 166
f 223 163 225
f 223 225 224
f 224 225 226
f 224 226 166
f 225 163 227
f 225 227 226
f 226 227 228
f 226 228 166
f 227 163 164
f 227 164 228
f 228 164 165
f 228 165 166
f 230 229 233
f 230 233 231
f 231 233 234
f 231 234 232
f 233 229 235
f 233 235 234
f 234 235 236
f 234 236 232
f 235 229 237
f 235 237 236
f 236 237 238
f 236 238 232
f 237 229 239
f 237 239 238
f 238 239 240
f 238 240 232
f 239 229 241
f 239 241 240
f 240 241 242
f 240 242 232
f 241 229 243
f 241 243 242
f 242 243 244
f 242 244 232
f 243 229 245
f 243 245 244
f 244 245 246
f 244 246 232
f 245 229 247
f 245 247 246
f 246 247 248
f 246 248 232
f 247 229 249
f 247 249 248
f 248 249 250
f 248 250 232
f 249 229 251
f 249 251 250
f 250 251 252
f 250 252 232
f 251 229 253
f 251 253 252
f 252 253 254
f 252 254 232
f 253 229 255
f 253 255 254
f 254 255 256
f 254 256 232
f 255 229 257
f 255 257 256
f 256 257 258
f 256 258 232
f 257 229 259
f 257 259 258
f 258 259 260
f 258 260 232
f 259 229 261
f 259 261 260
f 260 261 262
f 260 262 232
f 261 229 263
f 261 263 262
f 262 263 264
f 262 264 232
f 263 229 265
f 263 265 264
f 264 265 266
f 264 266 232
f 265 229 267
f 265 267 266
f 266 267 268
f 266 268 232
f 267 229 269
f 267 269 268
f 268 269 270
f 268 270 232
f 269 229 271
f 269 271 270
f 270 271 272
f 270 272 232
f 271 229 273
f 271 273 272
f 272 273 274
f 272 274 232
f 273 229 275
f 273 275 274
f 274 275 276
f 274 276 232
f 275 229 277
f 275 277 276
f 276 277 278
f 276 278 232
f 277 229 279
f 277 279 278
f 278 279 280
f 278 280 232
f 279 229 281
f 279 281 280
f 280 281 282
f 280 282 232
f 281 229 283
f 281 283 282
f 282 283 284
f 282 284 232
f 283 229 285
f 283 285 284
f 284 285 286
f 284 286 232
f 285 229 287
f 285 287 286
f 286 287 288
f 286 288 232
f 287 229 289
f 287 289 288
f 288 289 290
f 288 290 232
f 289 229 291
f 289 291 290
f 290 291 292
f 290 292 232
f 291 229 293
f 291 293 292
f 292 293 294
f 292 294 232
f 293 229 230
f 293 230 294
f 294 230 231
f 294 231 232
f 296 295 299
f 296 299 297
f 297 299 300
f 297 300 298
f 299 295 301
f 299 301 300
f 300 301 302
f 300 302 298
f 301 295 303
f 301 303 302
f 302 303 304
f 302 304 298
f 303 295 305
f 303 305 304
f 304 305 306
f 304 306 298
f 305 295 307
f 305 307 306
f 306 307 308
f 306 308 298
f 307 295 309
f 307 309 308
f 308 309 310
f 308 310 298
f 309 295 311
f 309 311 310
f 310 311 312
f 310 312 298
f 311 295 313
f 311 313 312
f 312 313 314
f 312 314 298
f 313 295 315
f 313 315 314
f 314 315 316
f 314 316 298
f 315 295 317
f 315 317 316
f 316 317 318
f 316 318 298
f 317 295 319
f 317 319 318
f 318 319 320
f 318 320 298
f 319 295 321
f 319 321 320
f 320 321 322
f 320 322 298
f 321 295 323
f 321 323 322
f 322 323 324
f 322 324 298
f 323 295 325
f 323 325 324
f 324 325 326
f 324 326 298
f 325 295 327
f 325 327 326
f 326 327 328
f 326 328 298
f 327 295 329
f 327 329 328
f 328 329 330
f 328 330 298
f 329 295 331
f 329 331 330
f 330 331 332
f 330 332 298
f 331 295 333
f 331 333 332
f 332 333 334
f 332 334 298
f 333 295 335
f 333 335 334
f 334 335 336
f 334 336 298
f 335 295 337
f 335 337 336
f 336 337 338
f 336 338 298
f 337 295 339
f 337 339 338
f 338 339 340
f 338 340 298
f 339 295 341
f 339 341 340
f 340 341 342
f 340 342 298
f 341 295 343
f 341 343 342
f 342 343 344
f 342 344 298
f 343 295 345
f 343 345 344
f 344 345 346
f 344 346 298
f 345 295 347
f 345 347 346
f 346 347 348
f 346 348 298
f 347 295 349
f 347 349 348
f 348 349 350
f 348 350 298
f 349 295 351
f 349 351 350
f 350 351 352
f 350 352 298
f 351 295 353
f 351 353 352
f 352 353 354
f 352 354 298
f 353 295 355
f 353 355 354
f 354 355 356
f 354 356 298
f 355 295 357
f 355 357 356
f 356 357 358
f 356 358 298
f 357 295 359
f 357 359 358
f 358 359 360
f 358 360 298
f 359 295 296
f 359 296 360
f 360 296 297
f 360 297 298
f 362 361 365
f 362 365 363
f 363 365 366
f 363 366 364
f 365 361 367
f 365 367 366
f 366 367 368
f 366 368 364
f 367 361 369
f 367 369 368
f 368 369 370
f 368 370 364
f 369 361 371
f 369 371 370
f 370 371 372
f 370 372 364
f 371 361 373
f 371 373 372
f 372 373 374
f 372 374 364
f 373 361 375
f 373 375 374
f 374 375 376
f 374 376 364
f 375 361 377
f 375 377 376
f 376 377 378
f 376 378 364
f 377 361 379
f 377 379 378
f 378 379 380
f 378 380 364
f 379 361 381
f 379 381 380
f 380 381 382
f 380 382 364
f 381 361 383
f 381 383 382
f 382 383 384
f 382 384 364
f 383 361 385
f 383 385 384
f 384 385 386
f 384 386 364
f 385 361 387
f 385 387 386
f 386 387 388
f 386 388 364
f 387 361 389
f 387 389 388
f 388 389 390
f 388 390 364
f 389 361 391
f 389 391 390
f 390 391 392
f 390 392 364
f 391 361 393
f 391 393 392
f 392 393 394
f 392 394 364
f 393 361 395
f 393 395 394
f 394 395 396
f 394 396 364
f 395 361 397
f 395 397 396
f 396 397 398
f 396 398 364
f 397 361 399
f 397 399 398
f 398 399 400
f 398 400 364
f 399 361 401
f 399 401 400
f 400 401 402
f 400 402 364
f 401 361 403
f 401 403 402
f 402 403 404
f 402 404 364
f 403 361 405
f 403 405 404
f 404 405 406
f 404 406 364
f 405 361 407
f 405 407 406
f 406 407 408
f 406 408 364
f 407 361 409
f 407 409 408
f 408 409 410
f 408 410 364
f 409 361 411
f 409 411 410
f 410 411 412
f 410 412 364
f 411 361 413
f 411 413 412
f 412 413 414
f 412 414 364
f 413 361 415
f 413 415 414
f 414 415 416
f 414 416 364
f 415 361 417
f 415 417 416
f 416 417 418
f 416 418 364
f 417 361 419
f 417 419 418
f 418 419 420
f 418 420 364
f 419 361 421
f 419 421 420
f 420 421 422
f 420 422 364
f 421 361 423
f 421 423 422
f 422 423 424
f 422 424 364
f 423 361 425
f 423 425 424
f 424 425 426
f 424 426 364
f 425 361 362
f 425 362 426
f 426 362 363
f 426 363 364
f 428 427 431
f 428 431 429
f 429 431 432
f 429 432 430
f 431 427 433
f 431 433 432
f 432 433 434
f 432 434 430
f 433 427 435
f 433 435 434
f 434 435 436
f 434 436 430
f 435 427 437
f 435 437 436
f 436 437 438
f 436 438 430
f 437 427 439
f 437 439 438
f 438 439 440
f 438 440 430
f 439 427 441
f 439 441 440
f 440 441 442
f 440 442 430
f 441 427 443
f 441 443 442
f 442 443 444
f 442 444 430
f 443 427 445
f 443 445 444
f 444 445 446
f 444 446 430
f 445 427 447
f 445 447 446
f 446 447 448
f 446 448 430
f 447 427 449
f 447 449 448
f 448 449 450
f 448 450 430
f 449 427 451
f 449 451 450
f 450 451 452
f 450 452 430
f 451 427 453
f 451 453 452
f 452 453 454
f 452 454 430
f 453 427 455
f 453 455 454
f 454 455 456
f 454 456 430
f 455 427 457
f 455 457 456
f 456 457 458
f 456 458 430
f 457 427 459
f 457 459 458
f 458 459 460
f 458 460 430
f 459 427 461
f 459 461 460
f 460 461 462
f 460 462 430
f 461 427 463
f 461 463 462
f 462 463 464
f 462 464 430
f 463 427 465
f 463 465 464
f 464 465 466
f 464 466 430
f 465 427 467
f 465 467 466
f 466 467 468
f 466 468 430
f 467 427 469
f 467 469 468
f 468 469 470
f 468 470 430
f 469 427 471
f 469 471 470
f 470 471 472
f 470 472 430
f 471 427 473
f 471 473 472
f 472 473 474
f 472 474 430
f 473 427 475
f 473 475 474
f 474 475 476
f 474 476 430
f 475 427 477
f 475 477 476
f 476 477 478
f 476 478 430
f 477 427 479
f 477 479 478
f 478 479 480
f 478 480 430
f 479 427 481
f 479 481 480
f 480 481 482
f 480 482 430
f 481 427 483
f 481 483 482
f 482 483 484
f 482 484 430
f 483 427 485
f 483 485 484
f 484 485 486
f 484 486 430
f 485 427 487
f 485 487 486
f 486 487 488
f 486 488 430
f 487 427 489
f 487 489 488
f 488 489 490
f 488 490 430
f 489 427 491
f 489 491 490
f 490 491 492
f 490 492 430
f 491 427 428
f 491 428 492
f 492 428 429
f 492 429 430
f 494 493 497
f 494 497 495
f 495 497 498
f 495 498 496
f 497 493 499
f 497 499 498
f 498 499 500
f 498 500 496
f 499 493 501
f 499 501 500
f 500 501 502
f 500 502 496
f 501 493 503
f 501 503 502
f 502 503 504
f 502 504 496
f 503 493 505
f 503 505 504
f 504 505 506
f 504 506 496
f 505 493 507
f 505 507 506
f 506 507 508
f 506 508 496
f 507 493 509
f 507 509 508
f 508 509 510
f 508 510 496
f 509 493 511
f 509 511 510
f 510 511 512
f 510 512 496
f 511 493 513
f 511 513 512
f 512 513 514
f 512 514 496
f 513 493 515
f 513 515 514
f 514 515 516
f 514 516 496
f 515 493 517
f 515 517 516
f 516 517 518
f 516 518 496
f 517 493 519
f 517 519 518
f 518 519 520
f 518 520 496
f 519 493 521
f 519 521 520
f 520 521 522
f 520 522 496
f 521 493 523
f 521 523 522
f 522 523 524
f 522 524 496
f 523 493 525
f 523 525 524
f 524 525 526
f 524 526 496
f 525 493 527
f 525 527 526
f 526 527 528
f 526 528 496
f 527 493 529
f 527 529 528
f 528 529 530
f 528 530 496
f 529 493 531
f 529 531 530
f 530 531 532
f 530 532 496
f 531 493 533
f 531 533 532
f 532 533 534
f 532 534 496
f 533 493 535
f 533 535 534
f 534 535 536
f 534 536 496
f 535 493 537
f 535 537 536
f 536 537 538
f 536 538 496
f 537 493 539
f 537 539 538
f 538 539 540
f 538 540 496
f 539 493 541
f 539 541 540
f 540 541 542
f 540 542 496
f 541 493 543
f 541 543 542
f 542 543 544
f 542 544 496
f 543 493 545
f 543 545 544
f 544 545 546
f 544 546 496
f 545 493 547
f 545 547 546
f 546 547 548
f 546 548 496
f 547 493 549
f 547 549 548
f 548 549 550
f 548 550 496
f 549 493 551
f 549 551 550
f 550 551 552
f 550 552 496
f 551 493 553
f 551 553 552
f 552 553 554
f 552 554 496
f 553 493 555
f 553 555 554
f 554 555 556
f 554 556 496
f 555 493 557
f 555 557 556
f 556 557 558
f 556 558 496
f 557 493 494
f 557 494 558
f 558 494 495
f 558 495 496
f 560 559 563
f 560 563 561
f 561 563 564
f 561 564 562
f 563 559 565
f 563 565 564
f 564 565 566
f 564 566 562
f 565 559 567
f 565 567 566
f 566 567 568
f 566 568 562
f 567 559 569
f 567 569 568
f 568 569 570
f 568 570 562
f 569 559 571
f 569 571 570
f 570 571 572
f 570 572 562
f 571 559 573
f 571 573 572
f 572 573 574
f 572 574 562
f 573 559 575
f 573 575 574
f 574 575 576
f 574 576 562
f 575 559 577
f 575 577 576
f 576 577 578
f 576 578 562
f 577 559 579
f 577 579 578
f 578 579 580
f 578 580 562
f 579 559 581
f 579 581 580
f 580 581 582
f 580 582 562
f 581 559 583
f 581 583 582
f 582 583 584
f 582 584 562
f 583 559 585
f 583 585 584
f 584 585 586
f 584 586 562
f 585 559 587
f 585 587 586
f 586 587 588
f 586 588 562
f 587 559 589
f 587 589 588
f 588 589 590
f 588 590 562
f 589 559 591
f 589 591 590
f 590 591 592
f 590 592 562
f 591 559 593
f 591 593 592
f 592 593 594
f 592 594 562
f 593 559 595
f 593 595 594
f 594 595 596
f 594 596 562
f 595 559 597
f 595 597 596
f 596 597 598
f 596 598 562
f 597 559 599
f 597 599 598
f 598 599 600
f 598 600 562
f 599 559 601
f 599 601 600
f 600 601 602
f 600 602 562
f 601 559 603
f 601 603 602
f 602 603 604
f 602 604 562
f 603 559 605
f 603 605 604
f 604 605 606
f 604 606 562
f 605 559 607
f 605 607 606
f 606 607 608
f 606 608 562
f 607 559 609
f 607 609 608
f 608 609 610
f 608 610 562
f 609 559 611
f 609 611 610
f 610 611 612
f 610 612 562
f 611 559 613
f 611 613 612
f 612 613 614
f 612 614 562
f 613 559 615
f 613 615 614
f 614 615 616
f 614 616 562
f 615 559 617
f 615 617 616
f 616 617 618
f 616 618 562
f 617 559 619
f 617 619 618
f 618 619 620
f 618 620 562
f 619 559 621
f 619 621 620
f 620 621 622
f 620 622 562
f 621 559 623
f 621 623 622
f 622 623 624
f 622 624 562
f 623 559 560
f 623 560 624
f 624 560 561
f 624 561 562
f 626 625 629
f 626 629 627
f 627 629 630
f 627 630 628
f 629 625 631
f 629 631 630
f 630 631 632
f 630 632 628
f 631 625 633
f 631 633 632
f 632 633 634
f 632 634 628
f 633 625 635
f 633 635 634
f 634 635 636
f 634 636 628
f 635 625 637
f 635 637 636
f 636 637 638
f 636 638 628
f 637 625 639
f 637 639 638
f 638 639 640
f 638 640 628
f 639 625 641
f 639 641 640
f 640 641 642
f 640 642 628
f 641 625 643
f 641 643 642
f 642 643 644
f 642 644 628
f 643 625 645
f 643 645 644
f 644 645 646
f 644 646 628
f 645 625 647
f 645 647 646
f 646 647 648
f 646 648 628
f 647 625 649
f 647 649 648
f 648 649 650
f 648 650 628
f 649 625 651
f 649 651 650
f 650 651 652
f 650 652 628
f 651 625 653
f 651 653 652
f 652 653 654
f 652 654 628
f 653 625 655
f 653 655 654
f 654 655 656
f 654 656 628
f 655 625 657
f 655 657 656
f 656 657 658
f 656 658 628
f 657 625 659
f 657 659 658
f 658 659 660
f 658 660 628
f 659 625 661
f 659 661 660
f 660 661 662
f 660 662 628
f 661 625 663
f 661 663 662
f 662 663 664
f 662 664 628
f 663 625 665
f 663 665 664
f 664 665 666
f 664 666 628
f 665 625 667
f 665 667 666
f 666 667 668
f 666 668 628
f 667 625 669
f 667 669 668
f 668 669 670
f 668 670 628
f 669 625 671
f 669 671 670
f 670 671 672
f 670 672 628
f 671 625 673
f 671 673 672
f 672 673 674
f 672 674 628
f 673 625 675
f 673 675 674
f 674 675 676
f 674 676 628
f 675 625 677
f 675 677 676
f 676 677 678
f 676 678 628
f 677 625 679
f 677 679 678
f 678 679 680
f 678 680 628
f 679 625 681
f 679 681 680
f 680 681 682
f 680 682 628
f 681 625 683
f 681 683 682
f 682 683 684
f 682 684 628
f 683 625 685
f 683 685 684
f 684 685 686
f 684 686 628
f 685 625 687
f 685 687 686
f 686 687 688
f 686 688 628
f 687 625 689
f 687 689 688
f 688 689 690
f 688 690 628
f 689 625 626
f 689 626 690
f 690 626 627
f 690 627 628
f 692 691 695
f 692 695 693
f 693 695 696
f 693 696 694
f 695 691 697
f 695 697 696
f 696 697 698
f 696 698 694
f 697 691 699
f 697 699 698
f 698 699 700
f 698 700 694
f 699 691 701
f 699 701 700
f 700 701 702
f 700 702 694
f 701 691 703
f 701 703 702
f 702 703 704
f 702 704 694
f 703 691 705
f 703 705 704
f 704 705 706
f 704 706 694
f 705 691 707
f 705 707 706
f 706 707 708
f 706 708 694
f 707 691 709
f 707 709 708
f 708 709 710
f 708 710 694
f 709 691 711
f 709 711 710
f 710 711 712
f 710 712 694
f 711 691 713
f 711 713 712
f 712 713 714
f 712 714 694
f 713 691 715
f 713 715 714
f 714 715 716
f 714 716 694
f 715 691 717
f 715 717 716
f 716 717 718
f 716 718 694
f 717 691 719
f 717 719 718
f 718 719 720
f 718 720 694
f 719 691 721
f 719 721 720
f 720 721 722
f 720 722 694
f 721 691 723
f 721 723 722
f 722 723 724
f 722 724 694
f 723 691 725
f 723 725 724
f 724 725 726
f 724 726 694
f 725 691 727
f 725 727 726
f 726 727 728
f 726 728 694
f 727 691 729
f 727 729 728
f 728 729 730
f 728 730 694
f 729 691 731
f 729 731 730
f 730 731 732
f 730 732 694
f 731 691 733
f 731 733 732
f 732 733 734
f 732 734 694
f 733 691 735
f 733 735 734
f 734 735 736
f 734 736 694
f 735 691 737
f 735 737 736
f 736 737 738
f 736 738 694
f 737 691 739
f 737 739 738
f 738 739 740
f 738 740 694
f 739 691 741
f 739 741 740
f 740 741 742
f 740 742 694
f 741 691 743
f 741 743 742
f 742 743 744
f 742 744 694
f 743 691 745
f 743 745 744
f 744 745 746
f 744 746 694
f 745 691 747
f 745 747 746
f 746 747 748
f 746 748 694
f 747 691 749
f 747 749 748
f 748 749 750
f 748 750 694
f 749 691 751
f 749 751 750
f 750 751 752
f 750 752 694
f 751 691 753
f 751 753 752
f 752 753 754
f 752 754 694
f 753 691 755
f 753 755 754
f 754 755 756
f 754 756 694
f 755 691 692
f 755 692 756
f 756 692 693
f 756 693 694
f 758 757 761
f 758 761 759
f 759 761 762
f 759 762 760
f 761 757 763
f 761 763 762
f 762 763 764
f 762 764 760
f 763 757 765
f 763 765 764
f 764 765 766
f 764 766 760
f 765 757 767
f 765 767 766
f 766 767 768
f 766 768 760
f 767 757 769
f 767 769 768
f 768 769 770
f 768 770 760
f 769 757 771
f 769 771 770
f 770 771 772
f 770 772 760
f 771 757 773
f 771 773 772
f 772 773 774
f 772 774 760
f 773 757 775
f 773 775 774
f 774 775 776
f 774 776 760
f 775 757 777
f 775 777 776
f 776 777 778
f 776 778 760
f 777 757 779
f 777 779 778
f 778 779 780
f 778 780 760
f 779 757 781
f 779 781 780
f 780 781 782
f 780 782 760
f 781 757 783
f 781 783 782
f 782 783 784
f 782 784 760
f 783 757 785
f 783 785 784
f 784 785 786
f 784 786 760
f 785 757 787
f 785 787 786
f 786 787 788
f 786 788 760
f 787 757 789
f 787 789 788
f 788 789 790
f 788 790 760
f 789 757 791
f 789 791 790
f 790 791 792
f 790 792 760
f 791 757 793
f 791 793 792
f 792 793 794
f 792 794 760
f 793 757 795
f 793 795 794
f 794 795 796
f 794 796 760
f 795 757 797
f 795 797 796
f 796 797 798
f 796 798 760
f 797 757 799
f 797 799 798
f 798 799 800
f 798 800 760
f 799 757 801
f 799 801 800
f 800 801 802
f 800 802 760
f 801 757 803
f 801 803 802
f 802 803 804
f 802 804 760
f 803 757 805
f 803 805 804
f 804 805 806
f 804 806 760
f 805 757 807
f 805 807 806
f 806 807 808
f 806 808 760
f 807 757 809
f 807 809 808
f 808 809 810
f 808 810 760
f 809 757 811
f 809 811 810
f 810 811 812
f 810 812 760
f 811 757 813
f 811 813 812
f 812 813 814
f 812 814 760
f 813 757 815
f 813 815 814
f 814 815 816
f 814 816 760
f 815 757 817
f 815 817 816
f 816 817 818
f 816 818 760
f 817 757 819
f 817 819 818
f 818 819 820
f 818 820 760
f 819 757 821
f 819 821 820
f 820 821 822
f 820 822 760
f 821 757 758
f 821 758 822
f 822 758 759
f 822 759 760
f 824 823 827
f 824 827 825
f 825 827 828
f 825 828 826
f 827 823 829
f 827 829 828
f 828 829 830
f 828 830 826
f 829 823 831
f 829 831 830
f 830 831 832
f 830 832 826
f 831 823 833
f 831 833 832
f 832 833 834
f 832 834 826
f 833 823 835
f 833 835 834
f 834 835 836
f 834 836 826
f 835 823 837
f 835 837 836
f 836 837 838
f 836 838 826
f 837 823 839
f 837 839 838
f 838 839 840
f 838 840 826
f 839 823 841
f 839 841 840
f 840 841 842
f 840 842 826
f 841 823 843
f 841 843 842
f 842 843 844
f 842 844 826
f 843 823 845
f 843 845 844
f 844 845 846
f 844 846 826
f 845 823 847
f 845 847 846
f 846 847 848
f 846 848 826
f 847 823 849
f 847 849 848
f 848 849 850
f 848 850 826
f 849 823 851
f 849 851 850
f 850 851 852
f 850 852 826
f 851 823 853
f 851 853 852
f 852 853 854
f 852 854 826
f 853 823 855
f 853 855 854
f 854 855 856
f 854 856 826
f 855 823 857
f 855 857 856
f 856 857 858
f 856 858 826
f 857 823 859
f 857 859 858
f 858 859 860
f 858 860 826
f 859 823 861
f 859 861 860
f 860 861 862
f 860 862 826
f 861 823 863
f 861 863 862
f 862 863 864
f 862 864 826
f 863 823 865
f 863 865 864
f 864 865 866
f 864 866 826
f 865 823 867
f 865 867 866
f 866 867 868
f 866 868 826
f 867 823 869
f 867 869 868
f 868 869 870
f 868 870 826
f 869 823 871
f 869 871 870
f 870 871 872
f 870 872 826
f 871 823 873
f 871 873 872
f 872 873 874
f 872 874 826
f 873 823 875
f 873 875 874
f 874 875 876
f 874 876 826
f 875 823 877
f 875 877 876
f 876 877 878
f 876 878 826
f 877 823 879
f 877 879 878
f 878 879 880
f 878 880 826
f 879 823 881
f 879 881 880
f 880 881 882
f 880 882 826
f 881 823 883
f 881 883 882
f 882 883 884
f 882 884 826
f 883 823 885
f 883 885 884
f 884 885 886
f 884 886 826
f 885 823 887
f 885 887 886
f 886 887 888
f 886 888 826
f 887 823 824
f 887 824 888
f 888 824 825
f 888 825 826
f 890 889 893
f 890 893 891
f 891 893 894
f 891 894 892
f 893 889 895
f 893 895 894
f 894 895 896
f 894 896 892
f 895 889 897
f 895 897 896
f 896 897 898
f 896 898 892
f 897 889 899
f 897 899 898
f 898 899 900
f 898 900 892
f 899 889 901
f 899 901 900
f 900 901 902
f 900 902 892
f 901 889 903
f 901 903 902
f 902 903 904
f 902 904 892
f 903 889 905
f 903 905 904
f 904 905 906
f 904 906 892
f 905 889 907
f 905 907 906
f 906 907 908
f 906 908 892
f 907 889 909
f 907 909 908
f 908 909 910
f 908 910 892
f 909 889 911
f 909 911 910
f 910 911 912
f 910 912 892
f 911 889 913
f 911 913 912
f 912 913 914
f 912 914 892
f 913 889 915
f 913 915 914
f 914 915 916
f 914 916 892
f 915 889 917
f 915 917 916
f 916 917 918
f 916 918 892
f 917 889 919
f 917 919 918
f 918 919 920
f 918 920 892
f 919 889 921
f 919 921 920
f 920 921 922
f 920 922 892
f 921 889 923
f 921 923 922
f 922 923 924
f 922 924 892
f 923 889 925
f 923 925 924
f 924 925 926
f 924 926 892
f 925 889 927
f 925 927 926
f 926 927 928
f 926 928 892
f 927 889 929
f 927 929 928
f 928 929 930
f 928 930 892
f 929 889 931
f 929 931 930
f 930 931 932
f 930 932 892
f 931 889 933
f 931 933 932
f 932 933 934
f 932 934 892
f 933 889 935
f 933 935 934
f 934 935 936
f 934 936 892
f 935 889 937
f 935 937 936
f 936 937 938
f 936 938 892
f 937 889 939
f 937 939 938
f 938 939 940
f 938 940 892
f 939 889 941
f 939 941 940
f 940 941 942
f 940 942 892
f 941 889 943
f 941 943 942
f 942 943 944
f 942 944 892
f 943 889 945
f 943 945 944
f 944 945 946
f 944 946 892
f 945 889 947
f 945 947 946
f 946 947 948
f 946 948 892
f 947 889 949
f 947 949 948
f 948 949 950
f 948 950 892
f 949 889 951
f 949 951 950
f 950 951 952
f 950 952 892
f 951 889 953
f 951 953 952
f 952 953 954
f 952 954 892
f 953 889 890
f 953 890 954
f 954 890 891
f 954 891 892
f 956 955 959
f 956 959 957
f 957 959 960
f 957 960 958
f 959 955 961
f 959 961 960
f 960 961 962
f 960 962 958
f 961 955 963
f 961 963 962
f 962 963 964
f 962 964 958
f 963 955 965
f 963 965 964
f 964 965 966
f 964 966 958
f 965 955 967
f 965 967 966
f 966 967 968
f 966 968 958
f 967 955 969
f 967 969 968
f 968 969 970
f 968 970 958
f 969 955 971
f 969 971 970
f 970 971 972
f 970 972 958
f 971 955 973
f 971 973 972
f 972 973 974
f 972 974 958
f 973 955 975
f 973 975 974
f 974 975 976
f 974 976 958
f 975 955 977
f 975 977 976
f 976 977 978
f 976 978 958
f 977 955 979
f 977 979 978
f 978 979 980
f 978 980 958
f 979 955 981
f 979 981 980
f 980 981 982
f 980 982 958
f 981 955 983
f 981 983 982
f 982 983 984
f 982 984 958
f 983 955 985
f 983 985 984
f 984 985 986
f 984 986 958
f 985 955 987
f 985 987 986
f 986 987 988
f 986 988 958
f 987 955 989
f 987 989 988
f 988 989 990
f 988 990 958
f 989 955 991
f 989 991 990
f 990 991 992
f 990 992 958
f 991 955 993
f 991 993 992
f 992 993 994
f 992 994 958
f 993 955 995
f 993 995 994
f 994 995 996
f 994 996 958
f 995 955 997
f 995 997 996
f 996 997 998
f 996 998 958
f 997 955 999
f 997 999 998
f 998 999 1000
f 998 1000 958
f 999 955 1001
f 999 1001 1000
f 1000 1001 1002
f 1000 1002 958
f 1001 955 1003
f 1001 1003 1002
f 1002 1003 1004
f 1002 1004 958
f 1003 955 1005
f 1003 1005 1004
f 1004 1005 1006
f 1004 1006 958
f 1005 955 1007
f 1005 1007 1006
f 1006 1007 1008
f 1006 1008 958
f 1007 955 1009
f 1007 1009 1008
f 1008 1009 1010
f 1008 1010 958
f 1009 955 1011
f 1009 1011 1010
f 1010 1011 1012
f 1010 1012 958
f 1011 955 1013
f 1011 1013 1012
f 1012 1013 1014
f 1012 1014 958
f 1013 955 1015
f 1013 1015 1014
f 1014 1015 1016
f 1014 1016 958
f 1015 955 1017
f 1015 1017 1016
f 1016 1017 1018
f 1016 1018 958
f 1017 955 1019
f 1017 1019 1018
f 1018 1019 1020
f 1018 1020 958
f 1019 955 956
f 1019 956 1020
f 1020 956 957
f 1020 957 958
f 1022 1021 1025
f 1022 1025 1023
f 1023 1025 1026
f 1023 1026 1024
f 1025 1021 1027
f 1025 1027 1026
f 1026 1027 1028
f 1026 1028 1024
f 1027 1021 1029
f 1027 1029 1028
f 1028 1029 1030
f 1028 1030 1024
f 1029 1021 1031
f 1029 1031 1030
f 1030 1031 1032
f 1030 1032 1024
f 1031 1021 1033
f 1031 1033 1032
f 1032 1033 1034
f 1032 1034 1024
f 1033 1021 1035
f 1033 1035 1034
f 1034 1035 1036
f 1034 1036 1024
f 1035 1021 1037
f 1035 1037 1036
f 1036 1037 1038
f 1036 1038 1024
f 1037 1021 1039
f 1037 1039 1038
f 1038 1039 1040
f 1038 1040 1024
f 1039 1021 1041
f 1039 1041 1040
f 1040 1041 1042
f 1040 1042 1024
f 1041 1021 1043
f 1041 1043 1042
f 1042 1043 1044
f 1042 1044 1024
f 1043 1021 1045
f 1043 1045 1044
f 1044 1045 1046
f 1044 1046 1024
f 1045 1021 1047
f 1045 1047 1046
f 1046 1047 1048
f 1046 1048 1024
f 1047 1021 1049
f 1047 1049 1048
f 1048 1049 1050
f 1048 1050 1024
f 1049 1021 1051
f 1049 1051 1050
f 1050 1051 1052
f 1050 1052 1024
f 1051 1021 1053
f 1051 1053 1052
f 1052 1053 1054
f 1052 1054 1024
f 1053 1021 1055
f 1053 1055 1054
f 1054 1055 1056
f 1054 1056 1024
f 1055 1021 1057
f 1055 1057 1056
f 1056 1057 1058
f 1056 1058 1024
f 1057 1021 1059
f 1057 1059 1058
f 1058 1059 1060
f 1058 1060 1024
f 1059 1021 1061
f 1059 1061 1060
f 1060 1061 1062
f 1060 1062 1024
f 1061 1021 1063
f 1061 1063 1062
f 1062 1063 1064
f 1062 1064 1024
f 1063 1021 1065
f 1063 1065 1064
f 1064 1065 1066
f 1064 1066 1024
f 1065 1021 1067
f 1065 1067 1066
f 1066 1067 1068
f 1066 1068 1024
f 1067 1021 1069
f 1067 1069 1068
f 1068 1069 1070
f 1068 1070 1024
f 1069 1021 1071
f 1069 1071 1070
f 1070 1071 1072
f 1070 1072 1024
f 1071 1021 1073
f 1071 1073 1072
f 1072 1073 1074
f 1072 1074 1024
f 1073 1021 1075
f 1073 1075 1074
f 1074 1075 1076
f 1074 1076 1024
f 1075 1021 1077
f 1075 1077 1076
f 1076 1077 1078
f 1076 1078 1024
f 1077 1021 1079
f 1077 1079 1078
f 1078 1079 1080
f 1078 1080 1024
f 1079 1021 1081
f 1079 1081 1080
f 1080 1081 1082
f 1080 1082 1024
f 1081 1021 1083
f 1081 1083 1082
f 1082 1083 1084
f 1082 1084 1024
f 1083 1021 1085
f 1083 1085 1084
f 1084 1085 1086
f 1084 1086 1024
f 1085 1021 1022
f 1085 1022 1086
f 1086 1022 1023
f 1086 1023 1024
f 1088 1087 1091
f 1088 1091 1089
f 1089 1091 1092
f 1089 1092 1090
f 1091 1087 1093
f 1091 1093 1092
f 1092 1093 1094
f 1092 1094 1090
f 1093 1087 1095
f 1093 1095 1094
f 1094 1095 1096
f 1094 1096 1090
f 1095 1087 1097
f 1095 1097 1096
f 1096 1097 1098
f 1096 1098 1090
f 1097 1087 1099
f 1097 1099 1098
f 1098 1099 1100
f 1098 1100 1090
f 1099 1087 1101
f 1099 1101 1100
f 1100 1101 1102
f 1100 1102 1090
f 1101 1087 1103
f 1101 1103 1102
f 1102 1103 1104
f 1102 1104 1090
f 1103 1087 1105
f 1103 1105 1104
f 1104 1105 1106
f 1104 1106 1090
f 1105 1087 1107
f 1105 1107 1106
f 1106 1107 1108
f 1106 1108 1090
f 1107 1087 1109
f 1107 1109 1108
f 1108 1109 1110
f 1108 1110 1090
f 1109 1087 1111
f 1109 1111 1110
f 1110 1111 1112
f 1110 1112 1090
f 1111 1087 1113
f 1111 1113 1112
f 1112 1113 1114
f 1112 1114 1090
f 1113 1087 1115
f 1113 1115 1114
f 1114 1115 1116
f 1114 1116 1090
f 1115 1087 1117
f 1115 1117 1116
f 1116 1117 1118
f 1116 1118 1090
f 1117 1087 1119
f 1117 1119 1118
f 1118 1119 1120
f 1118 1120 1090
f 1119 1087 1121
f 1119 1121 1120
f 1120 1121 1122
f 1120 1122 1090
f 1121 1087 1123
f 1121 1123 1122
f 1122 1123 1124
f 1122 1124 1090
f 1123 1087 1125
f 1123 1125 1124
f 1124 1125 1126
f 1124 1126 1090
f 1125 1087 1127
f 1125 1127 1126
f 1126 1127 1128
f 1126 1128 1090
f 1127 1087 1129
f 1127 1129 1128
f 1128 1129 1130
f 1128 1130 1090
f 1129 1087 1131
f 1129 1131 1130
f 1130 1131 1132
f 1130 1132 1090
f 1131 1087 1133
f 1131 1133 1132
f 1132 1133 1134
f 1132 1134 1090
f 1133 1087 1135
f 1133 1135 1134
f 1134 1135 1136
f 1134 1136 1090
f 1135 1087 1137
f 1135 1137 1136
f 1136 1137 1138
f 1136 1138 1090
f 1137 1087 1139
f 1137 1139 1138
f 1138 1139 1140
f 1138 1140 1090
f 1139 1087 1141
f 1139 1141 1140
f 1140 1141 1142
f 1140 1142 1090
f 1141 1087 1143
f 1141 1143 1142
f 1142 1143 1144
f 1142 1144 1090
f 1143 1087 1145
f 1143 1145 1144
f 1144 1145 1146
f 1144 1146 1090
f 1145 1087 1147
f 1145 1147 1146
f 1146 1147 1148
f 1146 1148 1090
f 1147 1087 1149
f 1147 1149 1148
f 1148 1149 1150
f 1148 1150 1090
f 1149 1087 1151
f 1149 1151 1150
f 1150 1151 1152
f 1150 1152 1090
f 1151 1087 1088
f 1151 1088 1152
f 1152 1088 1089
f 1152 1089 1090
f 1154 1153 1157
f 1154 1157 1155
f 1155 1157 1158
f 1155 1158 1156
f 1157 1153 1159
f 1157 1159 1158
f 1158 1159 1160
f 1158 1160 1156
f 1159 1153 1161
f 1159 1161 1160
f 1160 1161 1162
f 1160 1162 1156
f 1161 1153 1163
f 1161 1163 1162
f 1162 1163 1164
f 1162 1164 1156
f 1163 1153 1165
f 1163 1165 1164
f 1164 1165 1166
f 1164 1166 1156
f 1165 1153 1167
f 1165 1167 1166
f 1166 1167 1168
f 1166 1168 1156
f 1167 1153 1169
f 1167 1169 1168
f 1168 1169 1170
f 1168 1170 1156
f 1169 1153 1171
f 1169 1171 1170
f 1170 1171 1172
f 1170 1172 1156
f 1171 1153 1173
f 1171 1173 1172
f 1172 1173 1174
f 1172 1174 1156
f 1173 1153 1175
f 1173 1175 1174
f 1174 1175 1176
f 1174 1176 1156
f 1175 1153 1177
f 1175 1177 1176
f 1176 1177 1178
f 1176 1178 1156
f 1177 1153 1179
f 1177 1179 1178
f 1178 1179 1180
f 1178 1180 1156
f 1179 1153 1181
f 1179 1181 1180
f 1180 1181 1182
f 1180 1182 1156
f 1181 1153 1183
f 1181 1183 1182
f 1182 1183 1184
f 1182 1184 1156
f 1183 1153 1185
f 1183 1185 1184
f 1184 1185 1186
f 1184 1186 1156
f 1185 1153 1187
f 1185 1187 1186
f 1186 1187 1188
f 1186 1188 1156
f 1187 1153 1189
f 1187 1189 1188
f 1188 1189 1190
f 1188 1190 1156
f 1189 1153 1191
f 1189 1191 1190
f 1190 1191 1192
f 1190 1192 1156
f 1191 1153 1193
f 1191 1193 1192
f 1192 1193 1194
f 1192 1194 1156
f 1193 1153 1195
f 1193 1195 1194
f 1194 1195 1196
f 1194 1196 1156
f 1195 1153 1197
f 1195 1197 1196
f 1196 1197 1198
f 1196 1198 1156
f 1197 1153 1199
f 1197 1199 1198
f 1198 1199 1200
f 1198 1200 1156
f 1199 1153 1201
f 1199 1201 1200
f 1200 1201 1202
f 1200 1202 1156
f 1201 1153 1203
f 1201 1203 1202
f 1202 1203 1204
f 1202 1204 1156
f 1203 1153 1205
f 1203 1205 1204
f 1204 1205 1206
f 1204 1206 1156
f 1205 1153 1207
f 1205 1207 1206
f 1206 1207 1208
f 1206 1208 1156
f 1207 1153 1209
f 1207 1209 1208
f 1208 1209 1210
f 1208 1210 1156
f 1209 1153 1211
f 1209 1211 1210
f 1210 1211 1212
f 1210 1212 1156
f 1211 1153 1213
f 1211 1213 1212
f 1212 1213 1214
f 1212 1214 1156
f 1213 1153 1215
f 1213 1215 1214
f 1214 1215 1216
f 1214 1216 1156
f 1215 1153 1217
f 1215 1217 1216
f 1216 1217 1218
f 1216 1218 1156
f 1217 1153 1154
f 1217 1154 1218
f 1218 1154 1155
f 1218 1155 1156
f 1220 1219 1223
f 1220 1223 1221
f 1221 1223 1224
f 1221 1224 1222
f 1223 1219 1225
f 1223 1225 1224
f 1224 1225 1226
f 1224 1226 1222
f 1225 1219 1227
f 1225 1227 1226
f 1226 1227 1228
f 1226 1228 1222
f 1227 1219 1229
f 1227 1229 1228
f 1228 1229 1230
f 1228 1230 1222
f 1229 1219 1231
f 1229 1231 1230
f 1230 1231 1232
f 1230 1232 1222
f 1231 1219 1233
f 1231 1233 1232
f 1232 1233 1234
f 1232 1234 1222
f 1233 1219 1235
f 1233 1235 1234
f 1234 1235 1236
f 1234 1236 1222
f 1235 1219 1237
f 1235 1237 1236
f 1236 1237 1238
f 1236 1238 1222
f 1237 1219 1239
f 1237 1239 1238
f 1238 1239 1240
f 1238 1240 1222
f 1239 1219 1241
f 1239 1241 1240
f 1240 1241 1242
f 1240 1242 1222
f 1241 1219 1243
f 1241 1243 1242
f 1242 1243 1244
f 1242 1244 1222
f 1243 1219 1245
f 1243 1245 1244
f 1244 1245 1246
f 1244 1246 1222
f 1245 1219 1247
f 1245 1247 1246
f 1246 1247 1248
f 1246 1248 1222
f 1247 1219 1249
f 1247 1249 1248
f 1248 1249 1250
f 1248 1250 1222
f 1249 1219 1251
f 1249 1251 1250
f 1250 1251 1252
f 1250 1252 1222
f 1251 1219 1253
f 1251 1253 1252
f 1252 1253 1254
f 1252 1254 1222
f 1253 1219 1255
f 1253 1255 1254
f 1254 1255 1256
f 1254 1256 1222
f 1255 1219 1257
f 1255 1257 1256
f 1256 1257 1258
f 1256 1258 1222
f 1257 1219 1259
f 1257 1259 1258
f 1258 1259 1260
f 1258 1260 1222
f 1259 1219 1261
f 1259 1261 1260
f 1260 1261 1262
f 1260 1262 1222
f 1261 1219 1263
f 1261 1263 1262
f 1262 1263 1264
f 1262 1264 1222
f 1263 1219 1265
f 1263 1265 1264
f 1264 1265 1266
f 1264 1266 1222
f 1265 1219 1267
f 1265 1267 1266
f 1266 1267 1268
f 1266 1268 1222
f 1267 1219 1269
f 1267 1269 1268
f 1268 1269 1270
f 1268 1270 1222
f 1269 1219 1271
f 1269 1271 1270
f 1270 1271 1272
f 1270 1272 1222
f 1271 1219 1273
f 1271 1273 1272
f 1272 1273 1274
f 1272 1274 1222
f 1273 1219 1275
f 1273 1275 1274
f 1274 1275 1276
f 1274 1276 1222
f 1275 1219 1277
f 1275 1277 1276
f 1276 1277 1278
f 1276 1278 1222
f 1277 1219 1279
f 1277 1279 1278
f 1278 1279 1280
f 1278 1280 1222
f 1279 1219 1281
f 1279 1281 1280
f 1280 1281 1282
f 1280 1282 1222
f 1281 1219 1283
f 1281 1283 1282
f 1282 1283 1284
f 1282 1284 1222
f 1283 1219 1220
f 1283 1220 1284
f 1284 1220 1221
f 1284 1221 1222
f 1286 1285 1289
f 1286 1289 1287
f 1287 1289 1290
f 1287 1290 1288
f 1289 1285 1291
f 1289 1291 1290
f 1290 1291 1292
f 1290 1292 1288
f 1291 1285 1293
f 1291 1293 1292
f 1292 1293 1294
f 1292 1294 1288
f 1293 1285 1295
f 1293 1295 1294
f 1294 1295 1296
f 1294 1296 1288
f 1295 1285 1297
f 1295 1297 1296
f 1296 1297 1298
f 1296 1298 1288
f 1297 1285 1299
f 1297 1299 1298
f 1298 1299 1300
f 1298 1300 1288
f 1299 1285 1301
f 1299 1301 1300
f 1300 1301 1302
f 1300 1302 1288
f 1301 1285 1303
f 1301 1303 1302
f 1302 1303 1304
f 1302 1304 1288
f 1303 1285 1305
f 1303 1305 1304
f 1304 1305 1306
f 1304 1306 1288
f 1305 1285 1307
f 1305 1307 1306
f 1306 1307 1308
f 1306 1308 1288
f 1307 1285 1309
f 1307 1309 1308
f 1308 1309 1310
f 1308 1310 1288
f 1309 1285 1311
f 1309 1311 1310
f 1310 1311 1312
f 1310 1312 1288
f 1311 1285 1313
f 1311 1313 1312
f 1312 1313 1314
f 1312 1314 1288
f 1313 1285 1315
f 1313 1315 1314
f 1314 1315 1316
f 1314 1316 1288
f 1315 1285 1317
f 1315 1317 1316
f 1316 1317 1318
f 1316 1318 1288
f 1317 1285 1319
f 1317 1319 1318
f 1318 1319 1320
f 1318 1320 1288
f 1319 1285 1321
f 1319 1321 1320
f 1320 1321 1322
f 1320 1322 1288
f 1321 1285 1323
f 1321 1323 1322
f 1322 1323 1324
f 1322 1324 1288
f 1323 1285 1325
f 1323 1325 1324
f 1324 1325 1326
f 1324 1326 1288
f 1325 1285 1327
f 1325 1327 1326
f 1326 1327 1328
f 1326 1328 1288
f 1327 1285 1329
f 1327 1329 1328
f 1328 1329 1330
f 1328 1330 1288
f 1329 1285 1331
f 1329 1331 1330
f 1330 1331 1332
f 1330 1332 1288
f 1331 1285 1333
f 1331 1333 1332
f 1332 1333 1334
f 1332 1334 1288
f 1333 1285 1335
f 1333 1335 1334
f 1334 1335 1336
f 1334 1336 1288
f 1335 1285 1337
f 1335 1337 1336
f 1336 1337 1338
f 1336 1338 1288
f 1337 1285 1339
f 1337 1339 1338
f 1338 1339 1340
f 1338 1340 1288
f 1339 1285 1341
f 1339 1341 1340
f 1340 1341 1342
f 1340 1342 1288
f 1341 1285 1343
f 1341 1343 1342
f 1342 1343 1344
f 1342 1344 1288
f 1343 1285 1345
f 1343 1345 1344
f 1344 1345 1346
f 1344 1346 1288
f 1345 1285 1347
f 1345 1347 1346
f 1346 1347 1348
f 1346 1348 1288
f 1347 1285 1349
f 1347 1349 1348
f 1348 1349 1350
f 1348 1350 1288
f 1349 1285 1286
f 1349 1286 1350
f 1350 1286 1287
f 1350 1287 1288
f 1352 1354 1351
f 1355 1352 1351
f 1351 1354 1353
f 1353 1355 1351
f 1352 1358 1354
f 1356 1352 1355
f 1356 1358 1352
f 1354 1358 1353
f 1357 1355 1353
f 1353 1358 1357
f 1357 1356 1355
f 1358 1356 1357
f 1360 1362 1359
f 1363 1360 1359
f 1359 1362 1361
f 1361 1363 1359
f 1360 1366 1362
f 1364 1360 1363
f 1364 1366 1360
f 1362 1366 1361
f 1365 1363 1361
f 1361 1366 1365
f 1365 1364 1363
f 1366 1364 1365

