# https://github.com/mikedh/trimesh
v -0.20500000 -0.22500000 0.45900000
v -0.20500000 -0.22320000 0.45900000
v 0.20500000 -0.22320000 0.45900000
v 0.20500000 -0.22500000 0.45900000
v -0.20500000 -0.22323459 0.45935116
v 0.20500000 -0.22323459 0.45935116
v -0.20500000 -0.22333702 0.45968883
v 0.20500000 -0.22333702 0.45968883
v -0.20500000 -0.22350335 0.46000003
v 0.20500000 -0.22350335 0.46000003
v -0.20500000 -0.22372721 0.46027279
v 0.20500000 -0.22372721 0.46027279
v -0.20500000 -0.22399997 0.46049665
v 0.20500000 -0.22399997 0.46049665
v -0.20500000 -0.22431117 0.46066298
v 0.20500000 -0.22431117 0.46066298
v -0.20500000 -0.22464884 0.46076541
v 0.20500000 -0.22464884 0.46076541
v -0.20500000 -0.22500000 0.46080000
v 0.20500000 -0.22500000 0.46080000
v -0.20500000 -0.22535116 0.46076541
v 0.20500000 -0.22535116 0.46076541
v -0.20500000 -0.22568883 0.46066298
v 0.20500000 -0.22568883 0.46066298
v -0.20500000 -0.22600003 0.46049665
v 0.20500000 -0.22600003 0.46049665
v -0.20500000 -0.22627279 0.46027279
v 0.20500000 -0.22627279 0.46027279
v -0.20500000 -0.22649665 0.46000003
v 0.20500000 -0.22649665 0.46000003
v -0.20500000 -0.22666298 0.45968883
v 0.20500000 -0.22666298 0.45968883
v -0.20500000 -0.22676541 0.45935116
v 0.20500000 -0.22676541 0.45935116
v -0.20500000 -0.22680000 0.45900000
v 0.20500000 -0.22680000 0.45900000
v -0.20500000 -0.22676541 0.45864884
v 0.20500000 -0.22676541 0.45864884
v -0.20500000 -0.22666298 0.45831117
v 0.20500000 -0.22666298 0.45831117
v -0.20500000 -0.22649665 0.45799997
v 0.20500000 -0.22649665 0.45799997
v -0.20500000 -0.22627279 0.45772721
v 0.20500000 -0.22627279 0.45772721
v -0.20500000 -0.22600003 0.45750335
v 0.20500000 -0.22600003 0.45750335
v -0.20500000 -0.22568883 0.45733702
v 0.20500000 -0.22568883 0.45733702
v -0.20500000 -0.22535116 0.45723459
v 0.20500000 -0.22535116 0.45723459
v -0.20500000 -0.22500000 0.45720000
v 0.20500000 -0.22500000 0.45720000
v -0.20500000 -0.22464884 0.45723459
v 0.20500000 -0.22464884 0.45723459
v -0.20500000 -0.22431117 0.45733702
v 0.20500000 -0.22431117 0.45733702
v -0.20500000 -0.22399997 0.45750335
v 0.20500000 -0.22399997 0.45750335
v -0.20500000 -0.22372721 0.45772721
v 0.20500000 -0.22372721 0.45772721
v -0.20500000 -0.22350335 0.45799997
v 0.20500000 -0.22350335 0.45799997
v -0.20500000 -0.22333702 0.45831117
v 0.20500000 -0.22333702 0.45831117
v -0.20500000 -0.22323459 0.45864884
v 0.20500000 -0.22323459 0.45864884
v 0.18279167 -0.22500000 0.45900000
v 0.18279167 -0.22150000 0.45900000
v 0.20443056 -0.22150000 0.45900000
v 0.20443056 -0.22500000 0.45900000
v 0.18279167 -0.22156725 0.45968282
v 0.20443056 -0.22156725 0.45968282
v 0.18279167 -0.22176642 0.46033939
v 0.20443056 -0.22176642 0.46033939
v 0.18279167 -0.22208986 0.46094450
v 0.20443056 -0.22208986 0.46094450
v 0.18279167 -0.22252513 0.46147487
v 0.20443056 -0.22252513 0.46147487
v 0.18279167 -0.22305550 0.46191014
v 0.20443056 -0.22305550 0.46191014
v 0.18279167 -0.22366061 0.46223358
v 0.20443056 -0.22366061 0.46223358
v 0.18279167 -0.22431718 0.46243275
v 0.20443056 -0.22431718 0.46243275
v 0.18279167 -0.22500000 0.46250000
v 0.20443056 -0.22500000 0.46250000
v 0.18279167 -0.22568282 0.46243275
v 0.20443056 -0.22568282 0.46243275
v 0.18279167 -0.22633939 0.46223358
v 0.20443056 -0.22633939 0.46223358
v 0.18279167 -0.22694450 0.46191014
v 0.20443056 -0.22694450 0.46191014
v 0.18279167 -0.22747487 0.46147487
v 0.20443056 -0.22747487 0.46147487
v 0.18279167 -0.22791014 0.46094450
v 0.20443056 -0.22791014 0.46094450
v 0.18279167 -0.22823358 0.46033939
v 0.20443056 -0.22823358 0.46033939
v 0.18279167 -0.22843275 0.45968282
v 0.20443056 -0.22843275 0.45968282
v 0.18279167 -0.22850000 0.45900000
v 0.20443056 -0.22850000 0.45900000
v 0.18279167 -0.22843275 0.45831718
v 0.20443056 -0.22843275 0.45831718
v 0.18279167 -0.22823358 0.45766061
v 0.20443056 -0.22823358 0.45766061
v 0.18279167 -0.22791014 0.45705550
v 0.20443056 -0.22791014 0.45705550
v 0.18279167 -0.22747487 0.45652513
v 0.20443056 -0.22747487 0.45652513
v 0.18279167 -0.22694450 0.45608986
v 0.20443056 -0.22694450 0.45608986
v 0.18279167 -0.22633939 0.45576642
v 0.20443056 -0.22633939 0.45576642
v 0.18279167 -0.22568282 0.45556725
v 0.20443056 -0.22568282 0.45556725
v 0.18279167 -0.22500000 0.45550000
v 0.20443056 -0.22500000 0.45550000
v 0.18279167 -0.22431718 0.45556725
v 0.20443056 -0.22431718 0.45556725
v 0.18279167 -0.22366061 0.45576642
v 0.20443056 -0.22366061 0.45576642
v 0.18279167 -0.22305550 0.45608986
v 0.20443056 -0.22305550 0.45608986
v 0.18279167 -0.22252513 0.45652513
v 0.20443056 -0.22252513 0.45652513
v 0.18279167 -0.22208986 0.45705550
v 0.20443056 -0.22208986 0.45705550
v 0.18279167 -0.22176642 0.45766061
v 0.20443056 -0.22176642 0.45766061
v 0.18279167 -0.22156725 0.45831718
v 0.20443056 -0.22156725 0.45831718
v 0.16001389 -0.22500000 0.45900000
v 0.16001389 -0.22150000 0.45900000
v 0.18165278 -0.22150000 0.45900000
v 0.18165278 -0.22500000 0.45900000
v 0.16001389 -0.22156725 0.45968282
v 0.18165278 -0.22156725 0.45968282
v 0.16001389 -0.22176642 0.46033939
v 0.18165278 -0.22176642 0.46033939
v 0.16001389 -0.22208986 0.46094450
v 0.18165278 -0.22208986 0.46094450
v 0.16001389 -0.22252513 0.46147487
v 0.18165278 -0.22252513 0.46147487
v 0.16001389 -0.22305550 0.46191014
v 0.18165278 -0.22305550 0.46191014
v 0.16001389 -0.22366061 0.46223358
v 0.18165278 -0.22366061 0.46223358
v 0.16001389 -0.22431718 0.46243275
v 0.18165278 -0.22431718 0.46243275
v 0.16001389 -0.22500000 0.46250000
v 0.18165278 -0.22500000 0.46250000
v 0.16001389 -0.22568282 0.46243275
v 0.18165278 -0.22568282 0.46243275
v 0.16001389 -0.22633939 0.46223358
v 0.18165278 -0.22633939 0.46223358
v 0.16001389 -0.22694450 0.46191014
v 0.18165278 -0.22694450 0.46191014
v 0.16001389 -0.22747487 0.46147487
v 0.18165278 -0.22747487 0.46147487
v 0.16001389 -0.22791014 0.46094450
v 0.18165278 -0.22791014 0.46094450
v 0.16001389 -0.22823358 0.46033939
v 0.18165278 -0.22823358 0.46033939
v 0.16001389 -0.22843275 0.45968282
v 0.18165278 -0.22843275 0.45968282
v 0.16001389 -0.22850000 0.45900000
v 0.18165278 -0.22850000 0.45900000
v 0.16001389 -0.22843275 0.45831718
v 0.18165278 -0.22843275 0.45831718
v 0.16001389 -0.22823358 0.45766061
v 0.18165278 -0.22823358 0.45766061
v 0.16001389 -0.22791014 0.45705550
v 0.18165278 -0.22791014 0.45705550
v 0.16001389 -0.22747487 0.45652513
v 0.18165278 -0.22747487 0.45652513
v 0.16001389 -0.22694450 0.45608986
v 0.18165278 -0.22694450 0.45608986
v 0.16001389 -0.22633939 0.45576642
v 0.18165278 -0.22633939 0.45576642
v 0.16001389 -0.22568282 0.45556725
v 0.18165278 -0.22568282 0.45556725
v 0.16001389 -0.22500000 0.45550000
v 0.18165278 -0.22500000 0.45550000
v 0.16001389 -0.22431718 0.45556725
v 0.18165278 -0.22431718 0.45556725
v 0.16001389 -0.22366061 0.45576642
v 0.18165278 -0.22366061 0.45576642
v 0.16001389 -0.22305550 0.45608986
v 0.18165278 -0.22305550 0.45608986
v 0.16001389 -0.22252513 0.45652513
v 0.18165278 -0.22252513 0.45652513
v 0.16001389 -0.22208986 0.45705550
v 0.18165278 -0.22208986 0.45705550
v 0.16001389 -0.22176642 0.45766061
v 0.18165278 -0.22176642 0.45766061
v 0.16001389 -0.22156725 0.45831718
v 0.18165278 -0.22156725 0.45831718
v 0.13723611 -0.22500000 0.45900000
v 0.13723611 -0.22150000 0.45900000
v 0.15887500 -0.22150000 0.45900000
v 0.15887500 -0.22500000 0.45900000
v 0.13723611 -0.22156725 0.45968282
v 0.15887500 -0.22156725 0.45968282
v 0.13723611 -0.22176642 0.46033939
v 0.15887500 -0.22176642 0.46033939
v 0.13723611 -0.22208986 0.46094450
v 0.15887500 -0.22208986 0.46094450
v 0.13723611 -0.22252513 0.46147487
v 0.15887500 -0.22252513 0.46147487
v 0.13723611 -0.22305550 0.46191014
v 0.15887500 -0.22305550 0.46191014
v 0.13723611 -0.22366061 0.46223358
v 0.15887500 -0.22366061 0.46223358
v 0.13723611 -0.22431718 0.46243275
v 0.15887500 -0.22431718 0.46243275
v 0.13723611 -0.22500000 0.46250000
v 0.15887500 -0.22500000 0.46250000
v 0.13723611 -0.22568282 0.46243275
v 0.15887500 -0.22568282 0.46243275
v 0.13723611 -0.22633939 0.46223358
v 0.15887500 -0.22633939 0.46223358
v 0.13723611 -0.22694450 0.46191014
v 0.15887500 -0.22694450 0.46191014
v 0.13723611 -0.22747487 0.46147487
v 0.15887500 -0.22747487 0.46147487
v 0.13723611 -0.22791014 0.46094450
v 0.15887500 -0.22791014 0.46094450
v 0.13723611 -0.22823358 0.46033939
v 0.15887500 -0.22823358 0.46033939
v 0.13723611 -0.22843275 0.45968282
v 0.15887500 -0.22843275 0.45968282
v 0.13723611 -0.22850000 0.45900000
v 0.15887500 -0.22850000 0.45900000
v 0.13723611 -0.22843275 0.45831718
v 0.15887500 -0.22843275 0.45831718
v 0.13723611 -0.22823358 0.45766061
v 0.15887500 -0.22823358 0.45766061
v 0.13723611 -0.22791014 0.45705550
v 0.15887500 -0.22791014 0.45705550
v 0.13723611 -0.22747487 0.45652513
v 0.15887500 -0.22747487 0.45652513
v 0.13723611 -0.22694450 0.45608986
v 0.15887500 -0.22694450 0.45608986
v 0.13723611 -0.22633939 0.45576642
v 0.15887500 -0.22633939 0.45576642
v 0.13723611 -0.22568282 0.45556725
v 0.15887500 -0.22568282 0.45556725
v 0.13723611 -0.22500000 0.45550000
v 0.15887500 -0.22500000 0.45550000
v 0.13723611 -0.22431718 0.45556725
v 0.15887500 -0.22431718 0.45556725
v 0.13723611 -0.22366061 0.45576642
v 0.15887500 -0.22366061 0.45576642
v 0.13723611 -0.22305550 0.45608986
v 0.15887500 -0.22305550 0.45608986
v 0.13723611 -0.22252513 0.45652513
v 0.15887500 -0.22252513 0.45652513
v 0.13723611 -0.22208986 0.45705550
v 0.15887500 -0.22208986 0.45705550
v 0.13723611 -0.22176642 0.45766061
v 0.15887500 -0.22176642 0.45766061
v 0.13723611 -0.22156725 0.45831718
v 0.15887500 -0.22156725 0.45831718
v 0.11445833 -0.22500000 0.45900000
v 0.11445833 -0.22150000 0.45900000
v 0.13609722 -0.22150000 0.45900000
v 0.13609722 -0.22500000 0.45900000
v 0.11445833 -0.22156725 0.45968282
v 0.13609722 -0.22156725 0.45968282
v 0.11445833 -0.22176642 0.46033939
v 0.13609722 -0.22176642 0.46033939
v 0.11445833 -0.22208986 0.46094450
v 0.13609722 -0.22208986 0.46094450
v 0.11445833 -0.22252513 0.46147487
v 0.13609722 -0.22252513 0.46147487
v 0.11445833 -0.22305550 0.46191014
v 0.13609722 -0.22305550 0.46191014
v 0.11445833 -0.22366061 0.46223358
v 0.13609722 -0.22366061 0.46223358
v 0.11445833 -0.22431718 0.46243275
v 0.13609722 -0.22431718 0.46243275
v 0.11445833 -0.22500000 0.46250000
v 0.13609722 -0.22500000 0.46250000
v 0.11445833 -0.22568282 0.46243275
v 0.13609722 -0.22568282 0.46243275
v 0.11445833 -0.22633939 0.46223358
v 0.13609722 -0.22633939 0.46223358
v 0.11445833 -0.22694450 0.46191014
v 0.13609722 -0.22694450 0.46191014
v 0.11445833 -0.22747487 0.46147487
v 0.13609722 -0.22747487 0.46147487
v 0.11445833 -0.22791014 0.46094450
v 0.13609722 -0.22791014 0.46094450
v 0.11445833 -0.22823358 0.46033939
v 0.13609722 -0.22823358 0.46033939
v 0.11445833 -0.22843275 0.45968282
v 0.13609722 -0.22843275 0.45968282
v 0.11445833 -0.22850000 0.45900000
v 0.13609722 -0.22850000 0.45900000
v 0.11445833 -0.22843275 0.45831718
v 0.13609722 -0.22843275 0.45831718
v 0.11445833 -0.22823358 0.45766061
v 0.13609722 -0.22823358 0.45766061
v 0.11445833 -0.22791014 0.45705550
v 0.13609722 -0.22791014 0.45705550
v 0.11445833 -0.22747487 0.45652513
v 0.13609722 -0.22747487 0.45652513
v 0.11445833 -0.22694450 0.45608986
v 0.13609722 -0.22694450 0.45608986
v 0.11445833 -0.22633939 0.45576642
v 0.13609722 -0.22633939 0.45576642
v 0.11445833 -0.22568282 0.45556725
v 0.13609722 -0.22568282 0.45556725
v 0.11445833 -0.22500000 0.45550000
v 0.13609722 -0.22500000 0.45550000
v 0.11445833 -0.22431718 0.45556725
v 0.13609722 -0.22431718 0.45556725
v 0.11445833 -0.22366061 0.45576642
v 0.13609722 -0.22366061 0.45576642
v 0.11445833 -0.22305550 0.45608986
v 0.13609722 -0.22305550 0.45608986
v 0.11445833 -0.22252513 0.45652513
v 0.13609722 -0.22252513 0.45652513
v 0.11445833 -0.22208986 0.45705550
v 0.13609722 -0.22208986 0.45705550
v 0.11445833 -0.22176642 0.45766061
v 0.13609722 -0.22176642 0.45766061
v 0.11445833 -0.22156725 0.45831718
v 0.13609722 -0.22156725 0.45831718
v 0.09168056 -0.22500000 0.45900000
v 0.09168056 -0.22150000 0.45900000
v 0.11331944 -0.22150000 0.45900000
v 0.11331944 -0.22500000 0.45900000
v 0.09168056 -0.22156725 0.45968282
v 0.11331944 -0.22156725 0.45968282
v 0.09168056 -0.22176642 0.46033939
v 0.11331944 -0.22176642 0.46033939
v 0.09168056 -0.22208986 0.46094450
v 0.11331944 -0.22208986 0.46094450
v 0.09168056 -0.22252513 0.46147487
v 0.11331944 -0.22252513 0.46147487
v 0.09168056 -0.22305550 0.46191014
v 0.11331944 -0.22305550 0.46191014
v 0.09168056 -0.22366061 0.46223358
v 0.11331944 -0.22366061 0.46223358
v 0.09168056 -0.22431718 0.46243275
v 0.11331944 -0.22431718 0.46243275
v 0.09168056 -0.22500000 0.46250000
v 0.11331944 -0.22500000 0.46250000
v 0.09168056 -0.22568282 0.46243275
v 0.11331944 -0.22568282 0.46243275
v 0.09168056 -0.22633939 0.46223358
v 0.11331944 -0.22633939 0.46223358
v 0.09168056 -0.22694450 0.46191014
v 0.11331944 -0.22694450 0.46191014
v 0.09168056 -0.22747487 0.46147487
v 0.11331944 -0.22747487 0.46147487
v 0.09168056 -0.22791014 0.46094450
v 0.11331944 -0.22791014 0.46094450
v 0.09168056 -0.22823358 0.46033939
v 0.11331944 -0.22823358 0.46033939
v 0.09168056 -0.22843275 0.45968282
v 0.11331944 -0.22843275 0.45968282
v 0.09168056 -0.22850000 0.45900000
v 0.11331944 -0.22850000 0.45900000
v 0.09168056 -0.22843275 0.45831718
v 0.11331944 -0.22843275 0.45831718
v 0.09168056 -0.22823358 0.45766061
v 0.11331944 -0.22823358 0.45766061
v 0.09168056 -0.22791014 0.45705550
v 0.11331944 -0.22791014 0.45705550
v 0.09168056 -0.22747487 0.45652513
v 0.11331944 -0.22747487 0.45652513
v 0.09168056 -0.22694450 0.45608986
v 0.11331944 -0.22694450 0.45608986
v 0.09168056 -0.22633939 0.45576642
v 0.11331944 -0.22633939 0.45576642
v 0.09168056 -0.22568282 0.45556725
v 0.11331944 -0.22568282 0.45556725
v 0.09168056 -0.22500000 0.45550000
v 0.11331944 -0.22500000 0.45550000
v 0.09168056 -0.22431718 0.45556725
v 0.11331944 -0.22431718 0.45556725
v 0.09168056 -0.22366061 0.45576642
v 0.11331944 -0.22366061 0.45576642
v 0.09168056 -0.22305550 0.45608986
v 0.11331944 -0.22305550 0.45608986
v 0.09168056 -0.22252513 0.45652513
v 0.11331944 -0.22252513 0.45652513
v 0.09168056 -0.22208986 0.45705550
v 0.11331944 -0.22208986 0.45705550
v 0.09168056 -0.22176642 0.45766061
v 0.11331944 -0.22176642 0.45766061
v 0.09168056 -0.22156725 0.45831718
v 0.11331944 -0.22156725 0.45831718
v 0.06890278 -0.22500000 0.45900000
v 0.06890278 -0.22150000 0.45900000
v 0.09054167 -0.22150000 0.45900000
v 0.09054167 -0.22500000 0.45900000
v 0.06890278 -0.22156725 0.45968282
v 0.09054167 -0.22156725 0.45968282
v 0.06890278 -0.22176642 0.46033939
v 0.09054167 -0.22176642 0.46033939
v 0.06890278 -0.22208986 0.46094450
v 0.09054167 -0.22208986 0.46094450
v 0.06890278 -0.22252513 0.46147487
v 0.09054167 -0.22252513 0.46147487
v 0.06890278 -0.22305550 0.46191014
v 0.09054167 -0.22305550 0.46191014
v 0.06890278 -0.22366061 0.46223358
v 0.09054167 -0.22366061 0.46223358
v 0.06890278 -0.22431718 0.46243275
v 0.09054167 -0.22431718 0.46243275
v 0.06890278 -0.22500000 0.46250000
v 0.09054167 -0.22500000 0.46250000
v 0.06890278 -0.22568282 0.46243275
v 0.09054167 -0.22568282 0.46243275
v 0.06890278 -0.22633939 0.46223358
v 0.09054167 -0.22633939 0.46223358
v 0.06890278 -0.22694450 0.46191014
v 0.09054167 -0.22694450 0.46191014
v 0.06890278 -0.22747487 0.46147487
v 0.09054167 -0.22747487 0.46147487
v 0.06890278 -0.22791014 0.46094450
v 0.09054167 -0.22791014 0.46094450
v 0.06890278 -0.22823358 0.46033939
v 0.09054167 -0.22823358 0.46033939
v 0.06890278 -0.22843275 0.45968282
v 0.09054167 -0.22843275 0.45968282
v 0.06890278 -0.22850000 0.45900000
v 0.09054167 -0.22850000 0.45900000
v 0.06890278 -0.22843275 0.45831718
v 0.09054167 -0.22843275 0.45831718
v 0.06890278 -0.22823358 0.45766061
v 0.09054167 -0.22823358 0.45766061
v 0.06890278 -0.22791014 0.45705550
v 0.09054167 -0.22791014 0.45705550
v 0.06890278 -0.22747487 0.45652513
v 0.09054167 -0.22747487 0.45652513
v 0.06890278 -0.22694450 0.45608986
v 0.09054167 -0.22694450 0.45608986
v 0.06890278 -0.22633939 0.45576642
v 0.09054167 -0.22633939 0.45576642
v 0.06890278 -0.22568282 0.45556725
v 0.09054167 -0.22568282 0.45556725
v 0.06890278 -0.22500000 0.45550000
v 0.09054167 -0.22500000 0.45550000
v 0.06890278 -0.22431718 0.45556725
v 0.09054167 -0.22431718 0.45556725
v 0.06890278 -0.22366061 0.45576642
v 0.09054167 -0.22366061 0.45576642
v 0.06890278 -0.22305550 0.45608986
v 0.09054167 -0.22305550 0.45608986
v 0.06890278 -0.22252513 0.45652513
v 0.09054167 -0.22252513 0.45652513
v 0.06890278 -0.22208986 0.45705550
v 0.09054167 -0.22208986 0.45705550
v 0.06890278 -0.22176642 0.45766061
v 0.09054167 -0.22176642 0.45766061
v 0.06890278 -0.22156725 0.45831718
v 0.09054167 -0.22156725 0.45831718
v 0.04612500 -0.22500000 0.45900000
v 0.04612500 -0.22150000 0.45900000
v 0.06776389 -0.22150000 0.45900000
v 0.06776389 -0.22500000 0.45900000
v 0.04612500 -0.22156725 0.45968282
v 0.06776389 -0.22156725 0.45968282
v 0.04612500 -0.22176642 0.46033939
v 0.06776389 -0.22176642 0.46033939
v 0.04612500 -0.22208986 0.46094450
v 0.06776389 -0.22208986 0.46094450
v 0.04612500 -0.22252513 0.46147487
v 0.06776389 -0.22252513 0.46147487
v 0.04612500 -0.22305550 0.46191014
v 0.06776389 -0.22305550 0.46191014
v 0.04612500 -0.22366061 0.46223358
v 0.06776389 -0.22366061 0.46223358
v 0.04612500 -0.22431718 0.46243275
v 0.06776389 -0.22431718 0.46243275
v 0.04612500 -0.22500000 0.46250000
v 0.06776389 -0.22500000 0.46250000
v 0.04612500 -0.22568282 0.46243275
v 0.06776389 -0.22568282 0.46243275
v 0.04612500 -0.22633939 0.46223358
v 0.06776389 -0.22633939 0.46223358
v 0.04612500 -0.22694450 0.46191014
v 0.06776389 -0.22694450 0.46191014
v 0.04612500 -0.22747487 0.46147487
v 0.06776389 -0.22747487 0.46147487
v 0.04612500 -0.22791014 0.46094450
v 0.06776389 -0.22791014 0.46094450
v 0.04612500 -0.22823358 0.46033939
v 0.06776389 -0.22823358 0.46033939
v 0.04612500 -0.22843275 0.45968282
v 0.06776389 -0.22843275 0.45968282
v 0.04612500 -0.22850000 0.45900000
v 0.06776389 -0.22850000 0.45900000
v 0.04612500 -0.22843275 0.45831718
v 0.06776389 -0.22843275 0.45831718
v 0.04612500 -0.22823358 0.45766061
v 0.06776389 -0.22823358 0.45766061
v 0.04612500 -0.22791014 0.45705550
v 0.06776389 -0.22791014 0.45705550
v 0.04612500 -0.22747487 0.45652513
v 0.06776389 -0.22747487 0.45652513
v 0.04612500 -0.22694450 0.45608986
v 0.06776389 -0.22694450 0.45608986
v 0.04612500 -0.22633939 0.45576642
v 0.06776389 -0.22633939 0.45576642
v 0.04612500 -0.22568282 0.45556725
v 0.06776389 -0.22568282 0.45556725
v 0.04612500 -0.22500000 0.45550000
v 0.06776389 -0.22500000 0.45550000
v 0.04612500 -0.22431718 0.45556725
v 0.06776389 -0.22431718 0.45556725
v 0.04612500 -0.22366061 0.45576642
v 0.06776389 -0.22366061 0.45576642
v 0.04612500 -0.22305550 0.45608986
v 0.06776389 -0.22305550 0.45608986
v 0.04612500 -0.22252513 0.45652513
v 0.06776389 -0.22252513 0.45652513
v 0.04612500 -0.22208986 0.45705550
v 0.06776389 -0.22208986 0.45705550
v 0.04612500 -0.22176642 0.45766061
v 0.06776389 -0.22176642 0.45766061
v 0.04612500 -0.22156725 0.45831718
v 0.06776389 -0.22156725 0.45831718
v 0.02334722 -0.22500000 0.45900000
v 0.02334722 -0.22150000 0.45900000
v 0.04498611 -0.22150000 0.45900000
v 0.04498611 -0.22500000 0.45900000
v 0.02334722 -0.22156725 0.45968282
v 0.04498611 -0.22156725 0.45968282
v 0.02334722 -0.22176642 0.46033939
v 0.04498611 -0.22176642 0.46033939
v 0.02334722 -0.22208986 0.46094450
v 0.04498611 -0.22208986 0.46094450
v 0.02334722 -0.22252513 0.46147487
v 0.04498611 -0.22252513 0.46147487
v 0.02334722 -0.22305550 0.46191014
v 0.04498611 -0.22305550 0.46191014
v 0.02334722 -0.22366061 0.46223358
v 0.04498611 -0.22366061 0.46223358
v 0.02334722 -0.22431718 0.46243275
v 0.04498611 -0.22431718 0.46243275
v 0.02334722 -0.22500000 0.46250000
v 0.04498611 -0.22500000 0.46250000
v 0.02334722 -0.22568282 0.46243275
v 0.04498611 -0.22568282 0.46243275
v 0.02334722 -0.22633939 0.46223358
v 0.04498611 -0.22633939 0.46223358
v 0.02334722 -0.22694450 0.46191014
v 0.04498611 -0.22694450 0.46191014
v 0.02334722 -0.22747487 0.46147487
v 0.04498611 -0.22747487 0.46147487
v 0.02334722 -0.22791014 0.46094450
v 0.04498611 -0.22791014 0.46094450
v 0.02334722 -0.22823358 0.46033939
v 0.04498611 -0.22823358 0.46033939
v 0.02334722 -0.22843275 0.45968282
v 0.04498611 -0.22843275 0.45968282
v 0.02334722 -0.22850000 0.45900000
v 0.04498611 -0.22850000 0.45900000
v 0.02334722 -0.22843275 0.45831718
v 0.04498611 -0.22843275 0.45831718
v 0.02334722 -0.22823358 0.45766061
v 0.04498611 -0.22823358 0.45766061
v 0.02334722 -0.22791014 0.45705550
v 0.04498611 -0.22791014 0.45705550
v 0.02334722 -0.22747487 0.45652513
v 0.04498611 -0.22747487 0.45652513
v 0.02334722 -0.22694450 0.45608986
v 0.04498611 -0.22694450 0.45608986
v 0.02334722 -0.22633939 0.45576642
v 0.04498611 -0.22633939 0.45576642
v 0.02334722 -0.22568282 0.45556725
v 0.04498611 -0.22568282 0.45556725
v 0.02334722 -0.22500000 0.45550000
v 0.04498611 -0.22500000 0.45550000
v 0.02334722 -0.22431718 0.45556725
v 0.04498611 -0.22431718 0.45556725
v 0.02334722 -0.22366061 0.45576642
v 0.04498611 -0.22366061 0.45576642
v 0.02334722 -0.22305550 0.45608986
v 0.04498611 -0.22305550 0.45608986
v 0.02334722 -0.22252513 0.45652513
v 0.04498611 -0.22252513 0.45652513
v 0.02334722 -0.22208986 0.45705550
v 0.04498611 -0.22208986 0.45705550
v 0.02334722 -0.22176642 0.45766061
v 0.04498611 -0.22176642 0.45766061
v 0.02334722 -0.22156725 0.45831718
v 0.04498611 -0.22156725 0.45831718
v 0.00056944 -0.22500000 0.45900000
v 0.00056944 -0.22150000 0.45900000
v 0.02220833 -0.22150000 0.45900000
v 0.02220833 -0.22500000 0.45900000
v 0.00056944 -0.22156725 0.45968282
v 0.02220833 -0.22156725 0.45968282
v 0.00056944 -0.22176642 0.46033939
v 0.02220833 -0.22176642 0.46033939
v 0.00056944 -0.22208986 0.46094450
v 0.02220833 -0.22208986 0.46094450
v 0.00056944 -0.22252513 0.46147487
v 0.02220833 -0.22252513 0.46147487
v 0.00056944 -0.22305550 0.46191014
v 0.02220833 -0.22305550 0.46191014
v 0.00056944 -0.22366061 0.46223358
v 0.02220833 -0.22366061 0.46223358
v 0.00056944 -0.22431718 0.46243275
v 0.02220833 -0.22431718 0.46243275
v 0.00056944 -0.22500000 0.46250000
v 0.02220833 -0.22500000 0.46250000
v 0.00056944 -0.22568282 0.46243275
v 0.02220833 -0.22568282 0.46243275
v 0.00056944 -0.22633939 0.46223358
v 0.02220833 -0.22633939 0.46223358
v 0.00056944 -0.22694450 0.46191014
v 0.02220833 -0.22694450 0.46191014
v 0.00056944 -0.22747487 0.46147487
v 0.02220833 -0.22747487 0.46147487
v 0.00056944 -0.22791014 0.46094450
v 0.02220833 -0.22791014 0.46094450
v 0.00056944 -0.22823358 0.46033939
v 0.02220833 -0.22823358 0.46033939
v 0.00056944 -0.22843275 0.45968282
v 0.02220833 -0.22843275 0.45968282
v 0.00056944 -0.22850000 0.45900000
v 0.02220833 -0.22850000 0.45900000
v 0.00056944 -0.22843275 0.45831718
v 0.02220833 -0.22843275 0.45831718
v 0.00056944 -0.22823358 0.45766061
v 0.02220833 -0.22823358 0.45766061
v 0.00056944 -0.22791014 0.45705550
v 0.02220833 -0.22791014 0.45705550
v 0.00056944 -0.22747487 0.45652513
v 0.02220833 -0.22747487 0.45652513
v 0.00056944 -0.22694450 0.45608986
v 0.02220833 -0.22694450 0.45608986
v 0.00056944 -0.22633939 0.45576642
v 0.02220833 -0.22633939 0.45576642
v 0.00056944 -0.22568282 0.45556725
v 0.02220833 -0.22568282 0.45556725
v 0.00056944 -0.22500000 0.45550000
v 0.02220833 -0.22500000 0.45550000
v 0.00056944 -0.22431718 0.45556725
v 0.02220833 -0.22431718 0.45556725
v 0.00056944 -0.22366061 0.45576642
v 0.02220833 -0.22366061 0.45576642
v 0.00056944 -0.22305550 0.45608986
v 0.02220833 -0.22305550 0.45608986
v 0.00056944 -0.22252513 0.45652513
v 0.02220833 -0.22252513 0.45652513
v 0.00056944 -0.22208986 0.45705550
v 0.02220833 -0.22208986 0.45705550
v 0.00056944 -0.22176642 0.45766061
v 0.02220833 -0.22176642 0.45766061
v 0.00056944 -0.22156725 0.45831718
v 0.02220833 -0.22156725 0.45831718
v -0.02220833 -0.22500000 0.45900000
v -0.02220833 -0.22150000 0.45900000
v -0.00056944 -0.22150000 0.45900000
v -0.00056944 -0.22500000 0.45900000
v -0.02220833 -0.22156725 0.45968282
v -0.00056944 -0.22156725 0.45968282
v -0.02220833 -0.22176642 0.46033939
v -0.00056944 -0.22176642 0.46033939
v -0.02220833 -0.22208986 0.46094450
v -0.00056944 -0.22208986 0.46094450
v -0.02220833 -0.22252513 0.46147487
v -0.00056944 -0.22252513 0.46147487
v -0.02220833 -0.22305550 0.46191014
v -0.00056944 -0.22305550 0.46191014
v -0.02220833 -0.22366061 0.46223358
v -0.00056944 -0.22366061 0.46223358
v -0.02220833 -0.22431718 0.46243275
v -0.00056944 -0.22431718 0.46243275
v -0.02220833 -0.22500000 0.46250000
v -0.00056944 -0.22500000 0.46250000
v -0.02220833 -0.22568282 0.46243275
v -0.00056944 -0.22568282 0.46243275
v -0.02220833 -0.22633939 0.46223358
v -0.00056944 -0.22633939 0.46223358
v -0.02220833 -0.22694450 0.46191014
v -0.00056944 -0.22694450 0.46191014
v -0.02220833 -0.22747487 0.46147487
v -0.00056944 -0.22747487 0.46147487
v -0.02220833 -0.22791014 0.46094450
v -0.00056944 -0.22791014 0.46094450
v -0.02220833 -0.22823358 0.46033939
v -0.00056944 -0.22823358 0.46033939
v -0.02220833 -0.22843275 0.45968282
v -0.00056944 -0.22843275 0.45968282
v -0.02220833 -0.22850000 0.45900000
v -0.00056944 -0.22850000 0.45900000
v -0.02220833 -0.22843275 0.45831718
v -0.00056944 -0.22843275 0.45831718
v -0.02220833 -0.22823358 0.45766061
v -0.00056944 -0.22823358 0.45766061
v -0.02220833 -0.22791014 0.45705550
v -0.00056944 -0.22791014 0.45705550
v -0.02220833 -0.22747487 0.45652513
v -0.00056944 -0.22747487 0.45652513
v -0.02220833 -0.22694450 0.45608986
v -0.00056944 -0.22694450 0.45608986
v -0.02220833 -0.22633939 0.45576642
v -0.00056944 -0.22633939 0.45576642
v -0.02220833 -0.22568282 0.45556725
v -0.00056944 -0.22568282 0.45556725
v -0.02220833 -0.22500000 0.45550000
v -0.00056944 -0.22500000 0.45550000
v -0.02220833 -0.22431718 0.45556725
v -0.00056944 -0.22431718 0.45556725
v -0.02220833 -0.22366061 0.45576642
v -0.00056944 -0.22366061 0.45576642
v -0.02220833 -0.22305550 0.45608986
v -0.00056944 -0.22305550 0.45608986
v -0.02220833 -0.22252513 0.45652513
v -0.00056944 -0.22252513 0.45652513
v -0.02220833 -0.22208986 0.45705550
v -0.00056944 -0.22208986 0.45705550
v -0.02220833 -0.22176642 0.45766061
v -0.00056944 -0.22176642 0.45766061
v -0.02220833 -0.22156725 0.45831718
v -0.00056944 -0.22156725 0.45831718
v -0.04498611 -0.22500000 0.45900000
v -0.04498611 -0.22150000 0.45900000
v -0.02334722 -0.22150000 0.45900000
v -0.02334722 -0.22500000 0.45900000
v -0.04498611 -0.22156725 0.45968282
v -0.02334722 -0.22156725 0.45968282
v -0.04498611 -0.22176642 0.46033939
v -0.02334722 -0.22176642 0.46033939
v -0.04498611 -0.22208986 0.46094450
v -0.02334722 -0.22208986 0.46094450
v -0.04498611 -0.22252513 0.46147487
v -0.02334722 -0.22252513 0.46147487
v -0.04498611 -0.22305550 0.46191014
v -0.02334722 -0.22305550 0.46191014
v -0.04498611 -0.22366061 0.46223358
v -0.02334722 -0.22366061 0.46223358
v -0.04498611 -0.22431718 0.46243275
v -0.02334722 -0.22431718 0.46243275
v -0.04498611 -0.22500000 0.46250000
v -0.02334722 -0.22500000 0.46250000
v -0.04498611 -0.22568282 0.46243275
v -0.02334722 -0.22568282 0.46243275
v -0.04498611 -0.22633939 0.46223358
v -0.02334722 -0.22633939 0.46223358
v -0.04498611 -0.22694450 0.46191014
v -0.02334722 -0.22694450 0.46191014
v -0.04498611 -0.22747487 0.46147487
v -0.02334722 -0.22747487 0.46147487
v -0.04498611 -0.22791014 0.46094450
v -0.02334722 -0.22791014 0.46094450
v -0.04498611 -0.22823358 0.46033939
v -0.02334722 -0.22823358 0.46033939
v -0.04498611 -0.22843275 0.45968282
v -0.02334722 -0.22843275 0.45968282
v -0.04498611 -0.22850000 0.45900000
v -0.02334722 -0.22850000 0.45900000
v -0.04498611 -0.22843275 0.45831718
v -0.02334722 -0.22843275 0.45831718
v -0.04498611 -0.22823358 0.45766061
v -0.02334722 -0.22823358 0.45766061
v -0.04498611 -0.22791014 0.45705550
v -0.02334722 -0.22791014 0.45705550
v -0.04498611 -0.22747487 0.45652513
v -0.02334722 -0.22747487 0.45652513
v -0.04498611 -0.22694450 0.45608986
v -0.02334722 -0.22694450 0.45608986
v -0.04498611 -0.22633939 0.45576642
v -0.02334722 -0.22633939 0.45576642
v -0.04498611 -0.22568282 0.45556725
v -0.02334722 -0.22568282 0.45556725
v -0.04498611 -0.22500000 0.45550000
v -0.02334722 -0.22500000 0.45550000
v -0.04498611 -0.22431718 0.45556725
v -0.02334722 -0.22431718 0.45556725
v -0.04498611 -0.22366061 0.45576642
v -0.02334722 -0.22366061 0.45576642
v -0.04498611 -0.22305550 0.45608986
v -0.02334722 -0.22305550 0.45608986
v -0.04498611 -0.22252513 0.45652513
v -0.02334722 -0.22252513 0.45652513
v -0.04498611 -0.22208986 0.45705550
v -0.02334722 -0.22208986 0.45705550
v -0.04498611 -0.22176642 0.45766061
v -0.02334722 -0.22176642 0.45766061
v -0.04498611 -0.22156725 0.45831718
v -0.02334722 -0.22156725 0.45831718
v -0.06776389 -0.22500000 0.45900000
v -0.06776389 -0.22150000 0.45900000
v -0.04612500 -0.22150000 0.45900000
v -0.04612500 -0.22500000 0.45900000
v -0.06776389 -0.22156725 0.45968282
v -0.04612500 -0.22156725 0.45968282
v -0.06776389 -0.22176642 0.46033939
v -0.04612500 -0.22176642 0.46033939
v -0.06776389 -0.22208986 0.46094450
v -0.04612500 -0.22208986 0.46094450
v -0.06776389 -0.22252513 0.46147487
v -0.04612500 -0.22252513 0.46147487
v -0.06776389 -0.22305550 0.46191014
v -0.04612500 -0.22305550 0.46191014
v -0.06776389 -0.22366061 0.46223358
v -0.04612500 -0.22366061 0.46223358
v -0.06776389 -0.22431718 0.46243275
v -0.04612500 -0.22431718 0.46243275
v -0.06776389 -0.22500000 0.46250000
v -0.04612500 -0.22500000 0.46250000
v -0.06776389 -0.22568282 0.46243275
v -0.04612500 -0.22568282 0.46243275
v -0.06776389 -0.22633939 0.46223358
v -0.04612500 -0.22633939 0.46223358
v -0.06776389 -0.22694450 0.46191014
v -0.04612500 -0.22694450 0.46191014
v -0.06776389 -0.22747487 0.46147487
v -0.04612500 -0.22747487 0.46147487
v -0.06776389 -0.22791014 0.46094450
v -0.04612500 -0.22791014 0.46094450
v -0.06776389 -0.22823358 0.46033939
v -0.04612500 -0.22823358 0.46033939
v -0.06776389 -0.22843275 0.45968282
v -0.04612500 -0.22843275 0.45968282
v -0.06776389 -0.22850000 0.45900000
v -0.04612500 -0.22850000 0.45900000
v -0.06776389 -0.22843275 0.45831718
v -0.04612500 -0.22843275 0.45831718
v -0.06776389 -0.22823358 0.45766061
v -0.04612500 -0.22823358 0.45766061
v -0.06776389 -0.22791014 0.45705550
v -0.04612500 -0.22791014 0.45705550
v -0.06776389 -0.22747487 0.45652513
v -0.04612500 -0.22747487 0.45652513
v -0.06776389 -0.22694450 0.45608986
v -0.04612500 -0.22694450 0.45608986
v -0.06776389 -0.22633939 0.45576642
v -0.04612500 -0.22633939 0.45576642
v -0.06776389 -0.22568282 0.45556725
v -0.04612500 -0.22568282 0.45556725
v -0.06776389 -0.22500000 0.45550000
v -0.04612500 -0.22500000 0.45550000
v -0.06776389 -0.22431718 0.45556725
v -0.04612500 -0.22431718 0.45556725
v -0.06776389 -0.22366061 0.45576642
v -0.04612500 -0.22366061 0.45576642
v -0.06776389 -0.22305550 0.45608986
v -0.04612500 -0.22305550 0.45608986
v -0.06776389 -0.22252513 0.45652513
v -0.04612500 -0.22252513 0.45652513
v -0.06776389 -0.22208986 0.45705550
v -0.04612500 -0.22208986 0.45705550
v -0.06776389 -0.22176642 0.45766061
v -0.04612500 -0.22176642 0.45766061
v -0.06776389 -0.22156725 0.45831718
v -0.04612500 -0.22156725 0.45831718
v -0.09054167 -0.22500000 0.45900000
v -0.09054167 -0.22150000 0.45900000
v -0.06890278 -0.22150000 0.45900000
v -0.06890278 -0.22500000 0.45900000
v -0.09054167 -0.22156725 0.45968282
v -0.06890278 -0.22156725 0.45968282
v -0.09054167 -0.22176642 0.46033939
v -0.06890278 -0.22176642 0.46033939
v -0.09054167 -0.22208986 0.46094450
v -0.06890278 -0.22208986 0.46094450
v -0.09054167 -0.22252513 0.46147487
v -0.06890278 -0.22252513 0.46147487
v -0.09054167 -0.22305550 0.46191014
v -0.06890278 -0.22305550 0.46191014
v -0.09054167 -0.22366061 0.46223358
v -0.06890278 -0.22366061 0.46223358
v -0.09054167 -0.22431718 0.46243275
v -0.06890278 -0.22431718 0.46243275
v -0.09054167 -0.22500000 0.46250000
v -0.06890278 -0.22500000 0.46250000
v -0.09054167 -0.22568282 0.46243275
v -0.06890278 -0.22568282 0.46243275
v -0.09054167 -0.22633939 0.46223358
v -0.06890278 -0.22633939 0.46223358
v -0.09054167 -0.22694450 0.46191014
v -0.06890278 -0.22694450 0.46191014
v -0.09054167 -0.22747487 0.46147487
v -0.06890278 -0.22747487 0.46147487
v -0.09054167 -0.22791014 0.46094450
v -0.06890278 -0.22791014 0.46094450
v -0.09054167 -0.22823358 0.46033939
v -0.06890278 -0.22823358 0.46033939
v -0.09054167 -0.22843275 0.45968282
v -0.06890278 -0.22843275 0.45968282
v -0.09054167 -0.22850000 0.45900000
v -0.06890278 -0.22850000 0.45900000
v -0.09054167 -0.22843275 0.45831718
v -0.06890278 -0.22843275 0.45831718
v -0.09054167 -0.22823358 0.45766061
v -0.06890278 -0.22823358 0.45766061
v -0.09054167 -0.22791014 0.45705550
v -0.06890278 -0.22791014 0.45705550
v -0.09054167 -0.22747487 0.45652513
v -0.06890278 -0.22747487 0.45652513
v -0.09054167 -0.22694450 0.45608986
v -0.06890278 -0.22694450 0.45608986
v -0.09054167 -0.22633939 0.45576642
v -0.06890278 -0.22633939 0.45576642
v -0.09054167 -0.22568282 0.45556725
v -0.06890278 -0.22568282 0.45556725
v -0.09054167 -0.22500000 0.45550000
v -0.06890278 -0.22500000 0.45550000
v -0.09054167 -0.22431718 0.45556725
v -0.06890278 -0.22431718 0.45556725
v -0.09054167 -0.22366061 0.45576642
v -0.06890278 -0.22366061 0.45576642
v -0.09054167 -0.22305550 0.45608986
v -0.06890278 -0.22305550 0.45608986
v -0.09054167 -0.22252513 0.45652513
v -0.06890278 -0.22252513 0.45652513
v -0.09054167 -0.22208986 0.45705550
v -0.06890278 -0.22208986 0.45705550
v -0.09054167 -0.22176642 0.45766061
v -0.06890278 -0.22176642 0.45766061
v -0.09054167 -0.22156725 0.45831718
v -0.06890278 -0.22156725 0.45831718
v -0.11331944 -0.22500000 0.45900000
v -0.11331944 -0.22150000 0.45900000
v -0.09168056 -0.22150000 0.45900000
v -0.09168056 -0.22500000 0.45900000
v -0.11331944 -0.22156725 0.45968282
v -0.09168056 -0.22156725 0.45968282
v -0.11331944 -0.22176642 0.46033939
v -0.09168056 -0.22176642 0.46033939
v -0.11331944 -0.22208986 0.46094450
v -0.09168056 -0.22208986 0.46094450
v -0.11331944 -0.22252513 0.46147487
v -0.09168056 -0.22252513 0.46147487
v -0.11331944 -0.22305550 0.46191014
v -0.09168056 -0.22305550 0.46191014
v -0.11331944 -0.22366061 0.46223358
v -0.09168056 -0.22366061 0.46223358
v -0.11331944 -0.22431718 0.46243275
v -0.09168056 -0.22431718 0.46243275
v -0.11331944 -0.22500000 0.46250000
v -0.09168056 -0.22500000 0.46250000
v -0.11331944 -0.22568282 0.46243275
v -0.09168056 -0.22568282 0.46243275
v -0.11331944 -0.22633939 0.46223358
v -0.09168056 -0.22633939 0.46223358
v -0.11331944 -0.22694450 0.46191014
v -0.09168056 -0.22694450 0.46191014
v -0.11331944 -0.22747487 0.46147487
v -0.09168056 -0.22747487 0.46147487
v -0.11331944 -0.22791014 0.46094450
v -0.09168056 -0.22791014 0.46094450
v -0.11331944 -0.22823358 0.46033939
v -0.09168056 -0.22823358 0.46033939
v -0.11331944 -0.22843275 0.45968282
v -0.09168056 -0.22843275 0.45968282
v -0.11331944 -0.22850000 0.45900000
v -0.09168056 -0.22850000 0.45900000
v -0.11331944 -0.22843275 0.45831718
v -0.09168056 -0.22843275 0.45831718
v -0.11331944 -0.22823358 0.45766061
v -0.09168056 -0.22823358 0.45766061
v -0.11331944 -0.22791014 0.45705550
v -0.09168056 -0.22791014 0.45705550
v -0.11331944 -0.22747487 0.45652513
v -0.09168056 -0.22747487 0.45652513
v -0.11331944 -0.22694450 0.45608986
v -0.09168056 -0.22694450 0.45608986
v -0.11331944 -0.22633939 0.45576642
v -0.09168056 -0.22633939 0.45576642
v -0.11331944 -0.22568282 0.45556725
v -0.09168056 -0.22568282 0.45556725
v -0.11331944 -0.22500000 0.45550000
v -0.09168056 -0.22500000 0.45550000
v -0.11331944 -0.22431718 0.45556725
v -0.09168056 -0.22431718 0.45556725
v -0.11331944 -0.22366061 0.45576642
v -0.09168056 -0.22366061 0.45576642
v -0.11331944 -0.22305550 0.45608986
v -0.09168056 -0.22305550 0.45608986
v -0.11331944 -0.22252513 0.45652513
v -0.09168056 -0.22252513 0.45652513
v -0.11331944 -0.22208986 0.45705550
v -0.09168056 -0.22208986 0.45705550
v -0.11331944 -0.22176642 0.45766061
v -0.09168056 -0.22176642 0.45766061
v -0.11331944 -0.22156725 0.45831718
v -0.09168056 -0.22156725 0.45831718
v -0.13609722 -0.22500000 0.45900000
v -0.13609722 -0.22150000 0.45900000
v -0.11445833 -0.22150000 0.45900000
v -0.11445833 -0.22500000 0.45900000
v -0.13609722 -0.22156725 0.45968282
v -0.11445833 -0.22156725 0.45968282
v -0.13609722 -0.22176642 0.46033939
v -0.11445833 -0.22176642 0.46033939
v -0.13609722 -0.22208986 0.46094450
v -0.11445833 -0.22208986 0.46094450
v -0.13609722 -0.22252513 0.46147487
v -0.11445833 -0.22252513 0.46147487
v -0.13609722 -0.22305550 0.46191014
v -0.11445833 -0.22305550 0.46191014
v -0.13609722 -0.22366061 0.46223358
v -0.11445833 -0.22366061 0.46223358
v -0.13609722 -0.22431718 0.46243275
v -0.11445833 -0.22431718 0.46243275
v -0.13609722 -0.22500000 0.46250000
v -0.11445833 -0.22500000 0.46250000
v -0.13609722 -0.22568282 0.46243275
v -0.11445833 -0.22568282 0.46243275
v -0.13609722 -0.22633939 0.46223358
v -0.11445833 -0.22633939 0.46223358
v -0.13609722 -0.22694450 0.46191014
v -0.11445833 -0.22694450 0.46191014
v -0.13609722 -0.22747487 0.46147487
v -0.11445833 -0.22747487 0.46147487
v -0.13609722 -0.22791014 0.46094450
v -0.11445833 -0.22791014 0.46094450
v -0.13609722 -0.22823358 0.46033939
v -0.11445833 -0.22823358 0.46033939
v -0.13609722 -0.22843275 0.45968282
v -0.11445833 -0.22843275 0.45968282
v -0.13609722 -0.22850000 0.45900000
v -0.11445833 -0.22850000 0.45900000
v -0.13609722 -0.22843275 0.45831718
v -0.11445833 -0.22843275 0.45831718
v -0.13609722 -0.22823358 0.45766061
v -0.11445833 -0.22823358 0.45766061
v -0.13609722 -0.22791014 0.45705550
v -0.11445833 -0.22791014 0.45705550
v -0.13609722 -0.22747487 0.45652513
v -0.11445833 -0.22747487 0.45652513
v -0.13609722 -0.22694450 0.45608986
v -0.11445833 -0.22694450 0.45608986
v -0.13609722 -0.22633939 0.45576642
v -0.11445833 -0.22633939 0.45576642
v -0.13609722 -0.22568282 0.45556725
v -0.11445833 -0.22568282 0.45556725
v -0.13609722 -0.22500000 0.45550000
v -0.11445833 -0.22500000 0.45550000
v -0.13609722 -0.22431718 0.45556725
v -0.11445833 -0.22431718 0.45556725
v -0.13609722 -0.22366061 0.45576642
v -0.11445833 -0.22366061 0.45576642
v -0.13609722 -0.22305550 0.45608986
v -0.11445833 -0.22305550 0.45608986
v -0.13609722 -0.22252513 0.45652513
v -0.11445833 -0.22252513 0.45652513
v -0.13609722 -0.22208986 0.45705550
v -0.11445833 -0.22208986 0.45705550
v -0.13609722 -0.22176642 0.45766061
v -0.11445833 -0.22176642 0.45766061
v -0.13609722 -0.22156725 0.45831718
v -0.11445833 -0.22156725 0.45831718
v -0.15887500 -0.22500000 0.45900000
v -0.15887500 -0.22150000 0.45900000
v -0.13723611 -0.22150000 0.45900000
v -0.13723611 -0.22500000 0.45900000
v -0.15887500 -0.22156725 0.45968282
v -0.13723611 -0.22156725 0.45968282
v -0.15887500 -0.22176642 0.46033939
v -0.13723611 -0.22176642 0.46033939
v -0.15887500 -0.22208986 0.46094450
v -0.13723611 -0.22208986 0.46094450
v -0.15887500 -0.22252513 0.46147487
v -0.13723611 -0.22252513 0.46147487
v -0.15887500 -0.22305550 0.46191014
v -0.13723611 -0.22305550 0.46191014
v -0.15887500 -0.22366061 0.46223358
v -0.13723611 -0.22366061 0.46223358
v -0.15887500 -0.22431718 0.46243275
v -0.13723611 -0.22431718 0.46243275
v -0.15887500 -0.22500000 0.46250000
v -0.13723611 -0.22500000 0.46250000
v -0.15887500 -0.22568282 0.46243275
v -0.13723611 -0.22568282 0.46243275
v -0.15887500 -0.22633939 0.46223358
v -0.13723611 -0.22633939 0.46223358
v -0.15887500 -0.22694450 0.46191014
v -0.13723611 -0.22694450 0.46191014
v -0.15887500 -0.22747487 0.46147487
v -0.13723611 -0.22747487 0.46147487
v -0.15887500 -0.22791014 0.46094450
v -0.13723611 -0.22791014 0.46094450
v -0.15887500 -0.22823358 0.46033939
v -0.13723611 -0.22823358 0.46033939
v -0.15887500 -0.22843275 0.45968282
v -0.13723611 -0.22843275 0.45968282
v -0.15887500 -0.22850000 0.45900000
v -0.13723611 -0.22850000 0.45900000
v -0.15887500 -0.22843275 0.45831718
v -0.13723611 -0.22843275 0.45831718
v -0.15887500 -0.22823358 0.45766061
v -0.13723611 -0.22823358 0.45766061
v -0.15887500 -0.22791014 0.45705550
v -0.13723611 -0.22791014 0.45705550
v -0.15887500 -0.22747487 0.45652513
v -0.13723611 -0.22747487 0.45652513
v -0.15887500 -0.22694450 0.45608986
v -0.13723611 -0.22694450 0.45608986
v -0.15887500 -0.22633939 0.45576642
v -0.13723611 -0.22633939 0.45576642
v -0.15887500 -0.22568282 0.45556725
v -0.13723611 -0.22568282 0.45556725
v -0.15887500 -0.22500000 0.45550000
v -0.13723611 -0.22500000 0.45550000
v -0.15887500 -0.22431718 0.45556725
v -0.13723611 -0.22431718 0.45556725
v -0.15887500 -0.22366061 0.45576642
v -0.13723611 -0.22366061 0.45576642
v -0.15887500 -0.22305550 0.45608986
v -0.13723611 -0.22305550 0.45608986
v -0.15887500 -0.22252513 0.45652513
v -0.13723611 -0.22252513 0.45652513
v -0.15887500 -0.22208986 0.45705550
v -0.13723611 -0.22208986 0.45705550
v -0.15887500 -0.22176642 0.45766061
v -0.13723611 -0.22176642 0.45766061
v -0.15887500 -0.22156725 0.45831718
v -0.13723611 -0.22156725 0.45831718
v -0.18165278 -0.22500000 0.45900000
v -0.18165278 -0.22150000 0.45900000
v -0.16001389 -0.22150000 0.45900000
v -0.16001389 -0.22500000 0.45900000
v -0.18165278 -0.22156725 0.45968282
v -0.16001389 -0.22156725 0.45968282
v -0.18165278 -0.22176642 0.46033939
v -0.16001389 -0.22176642 0.46033939
v -0.18165278 -0.22208986 0.46094450
v -0.16001389 -0.22208986 0.46094450
v -0.18165278 -0.22252513 0.46147487
v -0.16001389 -0.22252513 0.46147487
v -0.18165278 -0.22305550 0.46191014
v -0.16001389 -0.22305550 0.46191014
v -0.18165278 -0.22366061 0.46223358
v -0.16001389 -0.22366061 0.46223358
v -0.18165278 -0.22431718 0.46243275
v -0.16001389 -0.22431718 0.46243275
v -0.18165278 -0.22500000 0.46250000
v -0.16001389 -0.22500000 0.46250000
v -0.18165278 -0.22568282 0.46243275
v -0.16001389 -0.22568282 0.46243275
v -0.18165278 -0.22633939 0.46223358
v -0.16001389 -0.22633939 0.46223358
v -0.18165278 -0.22694450 0.46191014
v -0.16001389 -0.22694450 0.46191014
v -0.18165278 -0.22747487 0.46147487
v -0.16001389 -0.22747487 0.46147487
v -0.18165278 -0.22791014 0.46094450
v -0.16001389 -0.22791014 0.46094450
v -0.18165278 -0.22823358 0.46033939
v -0.16001389 -0.22823358 0.46033939
v -0.18165278 -0.22843275 0.45968282
v -0.16001389 -0.22843275 0.45968282
v -0.18165278 -0.22850000 0.45900000
v -0.16001389 -0.22850000 0.45900000
v -0.18165278 -0.22843275 0.45831718
v -0.16001389 -0.22843275 0.45831718
v -0.18165278 -0.22823358 0.45766061
v -0.16001389 -0.22823358 0.45766061
v -0.18165278 -0.22791014 0.45705550
v -0.16001389 -0.22791014 0.45705550
v -0.18165278 -0.22747487 0.45652513
v -0.16001389 -0.22747487 0.45652513
v -0.18165278 -0.22694450 0.45608986
v -0.16001389 -0.22694450 0.45608986
v -0.18165278 -0.22633939 0.45576642
v -0.16001389 -0.22633939 0.45576642
v -0.18165278 -0.22568282 0.45556725
v -0.16001389 -0.22568282 0.45556725
v -0.18165278 -0.22500000 0.45550000
v -0.16001389 -0.22500000 0.45550000
v -0.18165278 -0.22431718 0.45556725
v -0.16001389 -0.22431718 0.45556725
v -0.18165278 -0.22366061 0.45576642
v -0.16001389 -0.22366061 0.45576642
v -0.18165278 -0.22305550 0.45608986
v -0.16001389 -0.22305550 0.45608986
v -0.18165278 -0.22252513 0.45652513
v -0.16001389 -0.22252513 0.45652513
v -0.18165278 -0.22208986 0.45705550
v -0.16001389 -0.22208986 0.45705550
v -0.18165278 -0.22176642 0.45766061
v -0.16001389 -0.22176642 0.45766061
v -0.18165278 -0.22156725 0.45831718
v -0.16001389 -0.22156725 0.45831718
v -0.20443056 -0.22500000 0.45900000
v -0.20443056 -0.22150000 0.45900000
v -0.18279167 -0.22150000 0.45900000
v -0.18279167 -0.22500000 0.45900000
v -0.20443056 -0.22156725 0.45968282
v -0.18279167 -0.22156725 0.45968282
v -0.20443056 -0.22176642 0.46033939
v -0.18279167 -0.22176642 0.46033939
v -0.20443056 -0.22208986 0.46094450
v -0.18279167 -0.22208986 0.46094450
v -0.20443056 -0.22252513 0.46147487
v -0.18279167 -0.22252513 0.46147487
v -0.20443056 -0.22305550 0.46191014
v -0.18279167 -0.22305550 0.46191014
v -0.20443056 -0.22366061 0.46223358
v -0.18279167 -0.22366061 0.46223358
v -0.20443056 -0.22431718 0.46243275
v -0.18279167 -0.22431718 0.46243275
v -0.20443056 -0.22500000 0.46250000
v -0.18279167 -0.22500000 0.46250000
v -0.20443056 -0.22568282 0.46243275
v -0.18279167 -0.22568282 0.46243275
v -0.20443056 -0.22633939 0.46223358
v -0.18279167 -0.22633939 0.46223358
v -0.20443056 -0.22694450 0.46191014
v -0.18279167 -0.22694450 0.46191014
v -0.20443056 -0.22747487 0.46147487
v -0.18279167 -0.22747487 0.46147487
v -0.20443056 -0.22791014 0.46094450
v -0.18279167 -0.22791014 0.46094450
v -0.20443056 -0.22823358 0.46033939
v -0.18279167 -0.22823358 0.46033939
v -0.20443056 -0.22843275 0.45968282
v -0.18279167 -0.22843275 0.45968282
v -0.20443056 -0.22850000 0.45900000
v -0.18279167 -0.22850000 0.45900000
v -0.20443056 -0.22843275 0.45831718
v -0.18279167 -0.22843275 0.45831718
v -0.20443056 -0.22823358 0.45766061
v -0.18279167 -0.22823358 0.45766061
v -0.20443056 -0.22791014 0.45705550
v -0.18279167 -0.22791014 0.45705550
v -0.20443056 -0.22747487 0.45652513
v -0.18279167 -0.22747487 0.45652513
v -0.20443056 -0.22694450 0.45608986
v -0.18279167 -0.22694450 0.45608986
v -0.20443056 -0.22633939 0.45576642
v -0.18279167 -0.22633939 0.45576642
v -0.20443056 -0.22568282 0.45556725
v -0.18279167 -0.22568282 0.45556725
v -0.20443056 -0.22500000 0.45550000
v -0.18279167 -0.22500000 0.45550000
v -0.20443056 -0.22431718 0.45556725
v -0.18279167 -0.22431718 0.45556725
v -0.20443056 -0.22366061 0.45576642
v -0.18279167 -0.22366061 0.45576642
v -0.20443056 -0.22305550 0.45608986
v -0.18279167 -0.22305550 0.45608986
v -0.20443056 -0.22252513 0.45652513
v -0.18279167 -0.22252513 0.45652513
v -0.20443056 -0.22208986 0.45705550
v -0.18279167 -0.22208986 0.45705550
v -0.20443056 -0.22176642 0.45766061
v -0.18279167 -0.22176642 0.45766061
v -0.20443056 -0.22156725 0.45831718
v -0.18279167 -0.22156725 0.45831718
v 0.20500000 -0.24900000 0.45685000
v 0.20500000 -0.24900000 0.45835000
v -0.20500000 -0.24900000 0.45685000
v -0.20500000 -0.24900000 0.45835000
v 0.20500000 -0.22500000 0.45685000
v 0.20500000 -0.22500000 0.45835000
v -0.20500000 -0.22500000 0.45685000
v -0.20500000 -0.22500000 0.45835000
v 0.20500000 -0.22500000 0.45685000
v 0.20500000 -0.22500000 0.45835000
v -0.20500000 -0.22500000 0.45685000
v -0.20500000 -0.22500000 0.45835000
v 0.20500000 -0.20100000 0.45685000
v 0.20500000 -0.20100000 0.45835000
v -0.20500000 -0.20100000 0.45685000
v -0.20500000 -0.20100000 0.45835000
v -0.19000000 -0.33618202 0.38492349
v -0.19000000 -0.26538095 0.47554473
v -0.19000000 -0.33381798 0.38307651
v -0.19000000 -0.26301691 0.47369774
v -0.17600000 -0.33618202 0.38492349
v -0.17600000 -0.26538095 0.47554473
v -0.17600000 -0.33381798 0.38307651
v -0.17600000 -0.26301691 0.47369774
v -0.19000000 -0.26569893 0.47462124
v -0.19000000 -0.26569893 0.58962124
v -0.19000000 -0.26269893 0.47462124
v -0.19000000 -0.26269893 0.58962124
v -0.17600000 -0.26569893 0.47462124
v -0.17600000 -0.26569893 0.58962124
v -0.17600000 -0.26269893 0.47462124
v -0.17600000 -0.26269893 0.58962124
v -0.18750000 -0.26419893 0.47462124
v -0.18750000 -0.26666158 0.47146919
v -0.17850000 -0.26666158 0.47146919
v -0.17850000 -0.26419893 0.47462124
v -0.18750000 -0.26599932 0.47104932
v -0.17850000 -0.26599932 0.47104932
v -0.18750000 -0.26526788 0.47076671
v -0.17850000 -0.26526788 0.47076671
v -0.18750000 -0.26449536 0.47063224
v -0.17850000 -0.26449536 0.47063224
v -0.18750000 -0.26371145 0.47065105
v -0.17850000 -0.26371145 0.47065105
v -0.18750000 -0.26294628 0.47082244
v -0.17850000 -0.26294628 0.47082244
v -0.18750000 -0.26222924 0.47113981
v -0.17850000 -0.26222924 0.47113981
v -0.18750000 -0.26158789 0.47159098
v -0.17850000 -0.26158789 0.47159098
v -0.18750000 -0.26104689 0.47215859
v -0.17850000 -0.26104689 0.47215859
v -0.18750000 -0.26062701 0.47282084
v -0.17850000 -0.26062701 0.47282084
v -0.18750000 -0.26034441 0.47355228
v -0.17850000 -0.26034441 0.47355228
v -0.18750000 -0.26020993 0.47432480
v -0.17850000 -0.26020993 0.47432480
v -0.18750000 -0.26022875 0.47510871
v -0.17850000 -0.26022875 0.47510871
v -0.18750000 -0.26040013 0.47587389
v -0.17850000 -0.26040013 0.47587389
v -0.18750000 -0.26071751 0.47659093
v -0.17850000 -0.26071751 0.47659093
v -0.18750000 -0.26116867 0.47723228
v -0.17850000 -0.26116867 0.47723228
v -0.18750000 -0.26173628 0.47777328
v -0.17850000 -0.26173628 0.47777328
v -0.18750000 -0.26239854 0.47819315
v -0.17850000 -0.26239854 0.47819315
v -0.18750000 -0.26312998 0.47847576
v -0.17850000 -0.26312998 0.47847576
v -0.18750000 -0.26390250 0.47861024
v -0.17850000 -0.26390250 0.47861024
v -0.18750000 -0.26468641 0.47859142
v -0.17850000 -0.26468641 0.47859142
v -0.18750000 -0.26545159 0.47842003
v -0.17850000 -0.26545159 0.47842003
v -0.18750000 -0.26616862 0.47810266
v -0.17850000 -0.26616862 0.47810266
v -0.18750000 -0.26680997 0.47765150
v -0.17850000 -0.26680997 0.47765150
v -0.18750000 -0.26735097 0.47708388
v -0.17850000 -0.26735097 0.47708388
v -0.18750000 -0.26777085 0.47642163
v -0.17850000 -0.26777085 0.47642163
v -0.18750000 -0.26805345 0.47569019
v -0.17850000 -0.26805345 0.47569019
v -0.18750000 -0.26818793 0.47491767
v -0.17850000 -0.26818793 0.47491767
v -0.18750000 -0.26816911 0.47413376
v -0.17850000 -0.26816911 0.47413376
v -0.18750000 -0.26799773 0.47336858
v -0.17850000 -0.26799773 0.47336858
v -0.18750000 -0.26768035 0.47265154
v -0.17850000 -0.26768035 0.47265154
v -0.18750000 -0.26722919 0.47201020
v -0.17850000 -0.26722919 0.47201020
v -0.19350000 -0.33907554 0.38528063
v -0.19350000 -0.33722855 0.38764466
v -0.19350000 -0.31701123 0.36804211
v -0.19350000 -0.31516425 0.37040614
v -0.17250000 -0.33907554 0.38528063
v -0.17250000 -0.33722855 0.38764466
v -0.17250000 -0.31701123 0.36804211
v -0.17250000 -0.31516425 0.37040614
v -0.19350000 -0.22296178 0.53389946
v -0.19350000 -0.22111480 0.53626349
v -0.19350000 -0.20089748 0.51666094
v -0.19350000 -0.19905050 0.51902497
v -0.17250000 -0.22296178 0.53389946
v -0.17250000 -0.22111480 0.53626349
v -0.17250000 -0.20089748 0.51666094
v -0.17250000 -0.19905050 0.51902497
v 0.17600000 -0.33618202 0.38492349
v 0.17600000 -0.26538095 0.47554473
v 0.17600000 -0.33381798 0.38307651
v 0.17600000 -0.26301691 0.47369774
v 0.19000000 -0.33618202 0.38492349
v 0.19000000 -0.26538095 0.47554473
v 0.19000000 -0.33381798 0.38307651
v 0.19000000 -0.26301691 0.47369774
v 0.17600000 -0.26569893 0.47462124
v 0.17600000 -0.26569893 0.58962124
v 0.17600000 -0.26269893 0.47462124
v 0.17600000 -0.26269893 0.58962124
v 0.19000000 -0.26569893 0.47462124
v 0.19000000 -0.26569893 0.58962124
v 0.19000000 -0.26269893 0.47462124
v 0.19000000 -0.26269893 0.58962124
v 0.17850000 -0.26419893 0.47462124
v 0.17850000 -0.26666158 0.47146919
v 0.18750000 -0.26666158 0.47146919
v 0.18750000 -0.26419893 0.47462124
v 0.17850000 -0.26599932 0.47104932
v 0.18750000 -0.26599932 0.47104932
v 0.17850000 -0.26526788 0.47076671
v 0.18750000 -0.26526788 0.47076671
v 0.17850000 -0.26449536 0.47063224
v 0.18750000 -0.26449536 0.47063224
v 0.17850000 -0.26371145 0.47065105
v 0.18750000 -0.26371145 0.47065105
v 0.17850000 -0.26294628 0.47082244
v 0.18750000 -0.26294628 0.47082244
v 0.17850000 -0.26222924 0.47113981
v 0.18750000 -0.26222924 0.47113981
v 0.17850000 -0.26158789 0.47159098
v 0.18750000 -0.26158789 0.47159098
v 0.17850000 -0.26104689 0.47215859
v 0.18750000 -0.26104689 0.47215859
v 0.17850000 -0.26062701 0.47282084
v 0.18750000 -0.26062701 0.47282084
v 0.17850000 -0.26034441 0.47355228
v 0.18750000 -0.26034441 0.47355228
v 0.17850000 -0.26020993 0.47432480
v 0.18750000 -0.26020993 0.47432480
v 0.17850000 -0.26022875 0.47510871
v 0.18750000 -0.26022875 0.47510871
v 0.17850000 -0.26040013 0.47587389
v 0.18750000 -0.26040013 0.47587389
v 0.17850000 -0.26071751 0.47659093
v 0.18750000 -0.26071751 0.47659093
v 0.17850000 -0.26116867 0.47723228
v 0.18750000 -0.26116867 0.47723228
v 0.17850000 -0.26173628 0.47777328
v 0.18750000 -0.26173628 0.47777328
v 0.17850000 -0.26239854 0.47819315
v 0.18750000 -0.26239854 0.47819315
v 0.17850000 -0.26312998 0.47847576
v 0.18750000 -0.26312998 0.47847576
v 0.17850000 -0.26390250 0.47861024
v 0.18750000 -0.26390250 0.47861024
v 0.17850000 -0.26468641 0.47859142
v 0.18750000 -0.26468641 0.47859142
v 0.17850000 -0.26545159 0.47842003
v 0.18750000 -0.26545159 0.47842003
v 0.17850000 -0.26616862 0.47810266
v 0.18750000 -0.26616862 0.47810266
v 0.17850000 -0.26680997 0.47765150
v 0.18750000 -0.26680997 0.47765150
v 0.17850000 -0.26735097 0.47708388
v 0.18750000 -0.26735097 0.47708388
v 0.17850000 -0.26777085 0.47642163
v 0.18750000 -0.26777085 0.47642163
v 0.17850000 -0.26805345 0.47569019
v 0.18750000 -0.26805345 0.47569019
v 0.17850000 -0.26818793 0.47491767
v 0.18750000 -0.26818793 0.47491767
v 0.17850000 -0.26816911 0.47413376
v 0.18750000 -0.26816911 0.47413376
v 0.17850000 -0.26799773 0.47336858
v 0.18750000 -0.26799773 0.47336858
v 0.17850000 -0.26768035 0.47265154
v 0.18750000 -0.26768035 0.47265154
v 0.17850000 -0.26722919 0.47201020
v 0.18750000 -0.26722919 0.47201020
v 0.17250000 -0.33907554 0.38528063
v 0.17250000 -0.33722855 0.38764466
v 0.17250000 -0.31701123 0.36804211
v 0.17250000 -0.31516425 0.37040614
v 0.19350000 -0.33907554 0.38528063
v 0.19350000 -0.33722855 0.38764466
v 0.19350000 -0.31701123 0.36804211
v 0.19350000 -0.31516425 0.37040614
v 0.17250000 -0.22296178 0.53389946
v 0.17250000 -0.22111480 0.53626349
v 0.17250000 -0.20089748 0.51666094
v 0.17250000 -0.19905050 0.51902497
v 0.19350000 -0.22296178 0.53389946
v 0.19350000 -0.22111480 0.53626349
v 0.19350000 -0.20089748 0.51666094
v 0.19350000 -0.19905050 0.51902497
v -0.24700000 0.00850000 0.42500000
v -0.24700000 0.00850000 0.44500000
v -0.24700000 0.01550000 0.42500000
v -0.24700000 0.01550000 0.44500000
v -0.22300000 0.00850000 0.42500000
v -0.22300000 0.00850000 0.44500000
v -0.22300000 0.01550000 0.42500000
v -0.22300000 0.01550000 0.44500000
v -0.24400000 0.01150000 0.44200000
v -0.24400000 0.01150000 0.47800000
v -0.24400000 0.01650000 0.44200000
v -0.24400000 0.01650000 0.47800000
v -0.22600000 0.01150000 0.44200000
v -0.22600000 0.01150000 0.47800000
v -0.22600000 0.01650000 0.44200000
v -0.22600000 0.01650000 0.47800000
v 0.22300000 0.00850000 0.42500000
v 0.22300000 0.00850000 0.44500000
v 0.22300000 0.01550000 0.42500000
v 0.22300000 0.01550000 0.44500000
v 0.24700000 0.00850000 0.42500000
v 0.24700000 0.00850000 0.44500000
v 0.24700000 0.01550000 0.42500000
v 0.24700000 0.01550000 0.44500000
v 0.22600000 0.01150000 0.44200000
v 0.22600000 0.01150000 0.47800000
v 0.22600000 0.01650000 0.44200000
v 0.22600000 0.01650000 0.47800000
v 0.24400000 0.01150000 0.44200000
v 0.24400000 0.01150000 0.47800000
v 0.24400000 0.01650000 0.44200000
v 0.24400000 0.01650000 0.47800000
f 2 1 5
f 2 5 3
f 3 5 6
f 3 6 4
f 5 1 7
f 5 7 6
f 6 7 8
f 6 8 4
f 7 1 9
f 7 9 8
f 8 9 10
f 8 10 4
f 9 1 11
f 9 11 10
f 10 11 12
f 10 12 4
f 11 1 13
f 11 13 12
f 12 13 14
f 12 14 4
f 13 1 15
f 13 15 14
f 14 15 16
f 14 16 4
f 15 1 17
f 15 17 16
f 16 17 18
f 16 18 4
f 17 1 19
f 17 19 18
f 18 19 20
f 18 20 4
f 19 1 21
f 19 21 20
f 20 21 22
f 20 22 4
f 21 1 23
f 21 23 22
f 22 23 24
f 22 24 4
f 23 1 25
f 23 25 24
f 24 25 26
f 24 26 4
f 25 1 27
f 25 27 26
f 26 27 28
f 26 28 4
f 27 1 29
f 27 29 28
f 28 29 30
f 28 30 4
f 29 1 31
f 29 31 30
f 30 31 32
f 30 32 4
f 31 1 33
f 31 33 32
f 32 33 34
f 32 34 4
f 33 1 35
f 33 35 34
f 34 35 36
f 34 36 4
f 35 1 37
f 35 37 36
f 36 37 38
f 36 38 4
f 37 1 39
f 37 39 38
f 38 39 40
f 38 40 4
f 39 1 41
f 39 41 40
f 40 41 42
f 40 42 4
f 41 1 43
f 41 43 42
f 42 43 44
f 42 44 4
f 43 1 45
f 43 45 44
f 44 45 46
f 44 46 4
f 45 1 47
f 45 47 46
f 46 47 48
f 46 48 4
f 47 1 49
f 47 49 48
f 48 49 50
f 48 50 4
f 49 1 51
f 49 51 50
f 50 51 52
f 50 52 4
f 51 1 53
f 51 53 52
f 52 53 54
f 52 54 4
f 53 1 55
f 53 55 54
f 54 55 56
f 54 56 4
f 55 1 57
f 55 57 56
f 56 57 58
f 56 58 4
f 57 1 59
f 57 59 58
f 58 59 60
f 58 60 4
f 59 1 61
f 59 61 60
f 60 61 62
f 60 62 4
f 61 1 63
f 61 63 62
f 62 63 64
f 62 64 4
f 63 1 65
f 63 65 64
f 64 65 66
f 64 66 4
f 65 1 2
f 65 2 66
f 66 2 3
f 66 3 4
f 68 67 71
f 68 71 69
f 69 71 72
f 69 72 70
f 71 67 73
f 71 73 72
f 72 73 74
f 72 74 70
f 73 67 75
f 73 75 74
f 74 75 76
f 74 76 70
f 75 67 77
f 75 77 76
f 76 77 78
f 76 78 70
f 77 67 79
f 77 79 78
f 78 79 80
f 78 80 70
f 79 67 81
f 79 81 80
f 80 81 82
f 80 82 70
f 81 67 83
f 81 83 82
f 82 83 84
f 82 84 70
f 83 67 85
f 83 85 84
f 84 85 86
f 84 86 70
f 85 67 87
f 85 87 86
f 86 87 88
f 86 88 70
f 87 67 89
f 87 89 88
f 88 89 90
f 88 90 70
f 89 67 91
f 89 91 90
f 90 91 92
f 90 92 70
f 91 67 93
f 91 93 92
f 92 93 94
f 92 94 70
f 93 67 95
f 93 95 94
f 94 95 96
f 94 96 70
f 95 67 97
f 95 97 96
f 96 97 98
f 96 98 70
f 97 67 99
f 97 99 98
f 98 99 100
f 98 100 70
f 99 67 101
f 99 101 100
f 100 101 102
f 100 102 70
f 101 67 103
f 101 103 102
f 102 103 104
f 102 104 70
f 103 67 105
f 103 105 104
f 104 105 106
f 104 106 70
f 105 67 107
f 105 107 106
f 106 107 108
f 106 108 70
f 107 67 109
f 107 109 108
f 108 109 110
f 108 110 70
f 109 67 111
f 109 111 110
f 110 111 112
f 110 112 70
f 111 67 113
f 111 113 112
f 112 113 114
f 112 114 70
f 113 67 115
f 113 115 114
f 114 115 116
f 114 116 70
f 115 67 117
f 115 117 116
f 116 117 118
f 116 118 70
f 117 67 119
f 117 119 118
f 118 119 120
f 118 120 70
f 119 67 121
f 119 121 120
f 120 121 122
f 120 122 70
f 121 67 123
f 121 123 122
f 122 123 124
f 122 124 70
f 123 67 125
f 123 125 124
f 124 125 126
f 124 126 70
f 125 67 127
f 125 127 126
f 126 127 128
f 126 128 70
f 127 67 129
f 127 129 128
f 128 129 130
f 128 130 70
f 129 67 131
f 129 131 130
f 130 131 132
f 130 132 70
f 131 67 68
f 131 68 132
f 132 68 69
f 132 69 70
f 134 133 137
f 134 137 135
f 135 137 138
f 135 138 136
f 137 133 139
f 137 139 138
f 138 139 140
f 138 140 136
f 139 133 141
f 139 141 140
f 140 141 142
f 140 142 136
f 141 133 143
f 141 143 142
f 142 143 144
f 142 144 136
f 143 133 145
f 143 145 144
f 144 145 146
f 144 146 136
f 145 133 147
f 145 147 146
f 146 147 148
f 146 148 136
f 147 133 149
f 147 149 148
f 148 149 150
f 148 150 136
f 149 133 151
f 149 151 150
f 150 151 152
f 150 152 136
f 151 133 153
f 151 153 152
f 152 153 154
f 152 154 136
f 153 133 155
f 153 155 154
f 154 155 156
f 154 156 136
f 155 133 157
f 155 157 156
f 156 157 158
f 156 158 136
f 157 133 159
f 157 159 158
f 158 159 160
f 158 160 136
f 159 133 161
f 159 161 160
f 160 161 162
f 160 162 136
f 161 133 163
f 161 163 162
f 162 163 164
f 162 164 136
f 163 133 165
f 163 165 164
f 164 165 166
f 164 166 136
f 165 133 167
f 165 167 166
f 166 167 168
f 166 168 136
f 167 133 169
f 167 169 168
f 168 169 170
f 168 170 136
f 169 133 171
f 169 171 170
f 170 171 172
f 170 172 136
f 171 133 173
f 171 173 172
f 172 173 174
f 172 174 136
f 173 133 175
f 173 175 174
f 174 175 176
f 174 176 136
f 175 133 177
f 175 177 176
f 176 177 178
f 176 178 136
f 177 133 179
f 177 179 178
f 178 179 180
f 178 180 136
f 179 133 181
f 179 181 180
f 180 181 182
f 180 182 136
f 181 133 183
f 181 183 182
f 182 183 184
f 182 184 136
f 183 133 185
f 183 185 184
f 184 185 186
f 184 186 136
f 185 133 187
f 185 187 186
f 186 187 188
f 186 188 136
f 187 133 189
f 187 189 188
f 188 189 190
f 188 190 136
f 189 133 191
f 189 191 190
f 190 191 192
f 190 192 136
f 191 133 193
f 191 193 192
f 192 193 194
f 192 194 136
f 193 133 195
f 193 195 194
f 194 195 196
f 194 196 136
f 195 133 197
f 195 197 196
f 196 197 198
f 196 198 136
f 197 133 134
f 197 134 198
f 198 134 135
f 198 135 136
f 200 199 203
f 200 203 201
f 201 203 204
f 201 204 202
f 203 199 205
f 203 205 204
f 204 205 206
f 204 206 202
f 205 199 207
f 205 207 206
f 206 207 208
f 206 208 202
f 207 199 209
f 207 209 208
f 208 209 210
f 208 210 202
f 209 199 211
f 209 211 210
f 210 211 212
f 210 212 202
f 211 199 213
f 211 213 212
f 212 213 214
f 212 214 202
f 213 199 215
f 213 215 214
f 214 215 216
f 214 216 202
f 215 199 217
f 215 217 216
f 216 217 218
f 216 218 202
f 217 199 219
f 217 219 218
f 218 219 220
f 218 220 202
f 219 199 221
f 219 221 220
f 220 221 222
f 220 222 202
f 221 199 223
f 221 223 222
f 222 223 224
f 222 224 202
f 223 199 225
f 223 225 224
f 224 225 226
f 224 226 202
f 225 199 227
f 225 227 226
f 226 227 228
f 226 228 202
f 227 199 229
f 227 229 228
f 228 229 230
f 228 230 202
f 229 199 231
f 229 231 230
f 230 231 232
f 230 232 202
f 231 199 233
f 231 233 232
f 232 233 234
f 232 234 202
f 233 199 235
f 233 235 234
f 234 235 236
f 234 236 202
f 235 199 237
f 235 237 236
f 236 237 238
f 236 238 202
f 237 199 239
f 237 239 238
f 238 239 240
f 238 240 202
f 239 199 241
f 239 241 240
f 240 241 242
f 240 242 202
f 241 199 243
f 241 243 242
f 242 243 244
f 242 244 202
f 243 199 245
f 243 245 244
f 244 245 246
f 244 246 202
f 245 199 247
f 245 247 246
f 246 247 248
f 246 248 202
f 247 199 249
f 247 249 248
f 248 249 250
f 248 250 202
f 249 199 251
f 249 251 250
f 250 251 252
f 250 252 202
f 251 199 253
f 251 253 252
f 252 253 254
f 252 254 202
f 253 199 255
f 253 255 254
f 254 255 256
f 254 256 202
f 255 199 257
f 255 257 256
f 256 257 258
f 256 258 202
f 257 199 259
f 257 259 258
f 258 259 260
f 258 260 202
f 259 199 261
f 259 261 260
f 260 261 262
f 260 262 202
f 261 199 263
f 261 263 262
f 262 263 264
f 262 264 202
f 263 199 200
f 263 200 264
f 264 200 201
f 264 201 202
f 266 265 269
f 266 269 267
f 267 269 270
f 267 270 268
f 269 265 271
f 269 271 270
f 270 271 272
f 270 272 268
f 271 265 273
f 271 273 272
f 272 273 274
f 272 274 268
f 273 265 275
f 273 275 274
f 274 275 276
f 274 276 268
f 275 265 277
f 275 277 276
f 276 277 278
f 276 278 268
f 277 265 279
f 277 279 278
f 278 279 280
f 278 280 268
f 279 265 281
f 279 281 280
f 280 281 282
f 280 282 268
f 281 265 283
f 281 283 282
f 282 283 284
f 282 284 268
f 283 265 285
f 283 285 284
f 284 285 286
f 284 286 268
f 285 265 287
f 285 287 286
f 286 287 288
f 286 288 268
f 287 265 289
f 287 289 288
f 288 289 290
f 288 290 268
f 289 265 291
f 289 291 290
f 290 291 292
f 290 292 268
f 291 265 293
f 291 293 292
f 292 293 294
f 292 294 268
f 293 265 295
f 293 295 294
f 294 295 296
f 294 296 268
f 295 265 297
f 295 297 296
f 296 297 298
f 296 298 268
f 297 265 299
f 297 299 298
f 298 299 300
f 298 300 268
f 299 265 301
f 299 301 300
f 300 301 302
f 300 302 268
f 301 265 303
f 301 303 302
f 302 303 304
f 302 304 268
f 303 265 305
f 303 305 304
f 304 305 306
f 304 306 268
f 305 265 307
f 305 307 306
f 306 307 308
f 306 308 268
f 307 265 309
f 307 309 308
f 308 309 310
f 308 310 268
f 309 265 311
f 309 311 310
f 310 311 312
f 310 312 268
f 311 265 313
f 311 313 312
f 312 313 314
f 312 314 268
f 313 265 315
f 313 315 314
f 314 315 316
f 314 316 268
f 315 265 317
f 315 317 316
f 316 317 318
f 316 318 268
f 317 265 319
f 317 319 318
f 318 319 320
f 318 320 268
f 319 265 321
f 319 321 320
f 320 321 322
f 320 322 268
f 321 265 323
f 321 323 322
f 322 323 324
f 322 324 268
f 323 265 325
f 323 325 324
f 324 325 326
f 324 326 268
f 325 265 327
f 325 327 326
f 326 327 328
f 326 328 268
f 327 265 329
f 327 329 328
f 328 329 330
f 328 330 268
f 329 265 266
f 329 266 330
f 330 266 267
f 330 267 268
f 332 331 335
f 332 335 333
f 333 335 336
f 333 336 334
f 335 331 337
f 335 337 336
f 336 337 338
f 336 338 334
f 337 331 339
f 337 339 338
f 338 339 340
f 338 340 334
f 339 331 341
f 339 341 340
f 340 341 342
f 340 342 334
f 341 331 343
f 341 343 342
f 342 343 344
f 342 344 334
f 343 331 345
f 343 345 344
f 344 345 346
f 344 346 334
f 345 331 347
f 345 347 346
f 346 347 348
f 346 348 334
f 347 331 349
f 347 349 348
f 348 349 350
f 348 350 334
f 349 331 351
f 349 351 350
f 350 351 352
f 350 352 334
f 351 331 353
f 351 353 352
f 352 353 354
f 352 354 334
f 353 331 355
f 353 355 354
f 354 355 356
f 354 356 334
f 355 331 357
f 355 357 356
f 356 357 358
f 356 358 334
f 357 331 359
f 357 359 358
f 358 359 360
f 358 360 334
f 359 331 361
f 359 361 360
f 360 361 362
f 360 362 334
f 361 331 363
f 361 363 362
f 362 363 364
f 362 364 334
f 363 331 365
f 363 365 364
f 364 365 366
f 364 366 334
f 365 331 367
f 365 367 366
f 366 367 368
f 366 368 334
f 367 331 369
f 367 369 368
f 368 369 370
f 368 370 334
f 369 331 371
f 369 371 370
f 370 371 372
f 370 372 334
f 371 331 373
f 371 373 372
f 372 373 374
f 372 374 334
f 373 331 375
f 373 375 374
f 374 375 376
f 374 376 334
f 375 331 377
f 375 377 376
f 376 377 378
f 376 378 334
f 377 331 379
f 377 379 378
f 378 379 380
f 378 380 334
f 379 331 381
f 379 381 380
f 380 381 382
f 380 382 334
f 381 331 383
f 381 383 382
f 382 383 384
f 382 384 334
f 383 331 385
f 383 385 384
f 384 385 386
f 384 386 334
f 385 331 387
f 385 387 386
f 386 387 388
f 386 388 334
f 387 331 389
f 387 389 388
f 388 389 390
f 388 390 334
f 389 331 391
f 389 391 390
f 390 391 392
f 390 392 334
f 391 331 393
f 391 393 392
f 392 393 394
f 392 394 334
f 393 331 395
f 393 395 394
f 394 395 396
f 394 396 334
f 395 331 332
f 395 332 396
f 396 332 333
f 396 333 334
f 398 397 401
f 398 401 399
f 399 401 402
f 399 402 400
f 401 397 403
f 401 403 402
f 402 403 404
f 402 404 400
f 403 397 405
f 403 405 404
f 404 405 406
f 404 406 400
f 405 397 407
f 405 407 406
f 406 407 408
f 406 408 400
f 407 397 409
f 407 409 408
f 408 409 410
f 408 410 400
f 409 397 411
f 409 411 410
f 410 411 412
f 410 412 400
f 411 397 413
f 411 413 412
f 412 413 414
f 412 414 400
f 413 397 415
f 413 415 414
f 414 415 416
f 414 416 400
f 415 397 417
f 415 417 416
f 416 417 418
f 416 418 400
f 417 397 419
f 417 419 418
f 418 419 420
f 418 420 400
f 419 397 421
f 419 421 420
f 420 421 422
f 420 422 400
f 421 397 423
f 421 423 422
f 422 423 424
f 422 424 400
f 423 397 425
f 423 425 424
f 424 425 426
f 424 426 400
f 425 397 427
f 425 427 426
f 426 427 428
f 426 428 400
f 427 397 429
f 427 429 428
f 428 429 430
f 428 430 400
f 429 397 431
f 429 431 430
f 430 431 432
f 430 432 400
f 431 397 433
f 431 433 432
f 432 433 434
f 432 434 400
f 433 397 435
f 433 435 434
f 434 435 436
f 434 436 400
f 435 397 437
f 435 437 436
f 436 437 438
f 436 438 400
f 437 397 439
f 437 439 438
f 438 439 440
f 438 440 400
f 439 397 441
f 439 441 440
f 440 441 442
f 440 442 400
f 441 397 443
f 441 443 442
f 442 443 444
f 442 444 400
f 443 397 445
f 443 445 444
f 444 445 446
f 444 446 400
f 445 397 447
f 445 447 446
f 446 447 448
f 446 448 400
f 447 397 449
f 447 449 448
f 448 449 450
f 448 450 400
f 449 397 451
f 449 451 450
f 450 451 452
f 450 452 400
f 451 397 453
f 451 453 452
f 452 453 454
f 452 454 400
f 453 397 455
f 453 455 454
f 454 455 456
f 454 456 400
f 455 397 457
f 455 457 456
f 456 457 458
f 456 458 400
f 457 397 459
f 457 459 458
f 458 459 460
f 458 460 400
f 459 397 461
f 459 461 460
f 460 461 462
f 460 462 400
f 461 397 398
f 461 398 462
f 462 398 399
f 462 399 400
f 464 463 467
f 464 467 465
f 465 467 468
f 465 468 466
f 467 463 469
f 467 469 468
f 468 469 470
f 468 470 466
f 469 463 471
f 469 471 470
f 470 471 472
f 470 472 466
f 471 463 473
f 471 473 472
f 472 473 474
f 472 474 466
f 473 463 475
f 473 475 474
f 474 475 476
f 474 476 466
f 475 463 477
f 475 477 476
f 476 477 478
f 476 478 466
f 477 463 479
f 477 479 478
f 478 479 480
f 478 480 466
f 479 463 481
f 479 481 480
f 480 481 482
f 480 482 466
f 481 463 483
f 481 483 482
f 482 483 484
f 482 484 466
f 483 463 485
f 483 485 484
f 484 485 486
f 484 486 466
f 485 463 487
f 485 487 486
f 486 487 488
f 486 488 466
f 487 463 489
f 487 489 488
f 488 489 490
f 488 490 466
f 489 463 491
f 489 491 490
f 490 491 492
f 490 492 466
f 491 463 493
f 491 493 492
f 492 493 494
f 492 494 466
f 493 463 495
f 493 495 494
f 494 495 496
f 494 496 466
f 495 463 497
f 495 497 496
f 496 497 498
f 496 498 466
f 497 463 499
f 497 499 498
f 498 499 500
f 498 500 466
f 499 463 501
f 499 501 500
f 500 501 502
f 500 502 466
f 501 463 503
f 501 503 502
f 502 503 504
f 502 504 466
f 503 463 505
f 503 505 504
f 504 505 506
f 504 506 466
f 505 463 507
f 505 507 506
f 506 507 508
f 506 508 466
f 507 463 509
f 507 509 508
f 508 509 510
f 508 510 466
f 509 463 511
f 509 511 510
f 510 511 512
f 510 512 466
f 511 463 513
f 511 513 512
f 512 513 514
f 512 514 466
f 513 463 515
f 513 515 514
f 514 515 516
f 514 516 466
f 515 463 517
f 515 517 516
f 516 517 518
f 516 518 466
f 517 463 519
f 517 519 518
f 518 519 520
f 518 520 466
f 519 463 521
f 519 521 520
f 520 521 522
f 520 522 466
f 521 463 523
f 521 523 522
f 522 523 524
f 522 524 466
f 523 463 525
f 523 525 524
f 524 525 526
f 524 526 466
f 525 463 527
f 525 527 526
f 526 527 528
f 526 528 466
f 527 463 464
f 527 464 528
f 528 464 465
f 528 465 466
f 530 529 533
f 530 533 531
f 531 533 534
f 531 534 532
f 533 529 535
f 533 535 534
f 534 535 536
f 534 536 532
f 535 529 537
f 535 537 536
f 536 537 538
f 536 538 532
f 537 529 539
f 537 539 538
f 538 539 540
f 538 540 532
f 539 529 541
f 539 541 540
f 540 541 542
f 540 542 532
f 541 529 543
f 541 543 542
f 542 543 544
f 542 544 532
f 543 529 545
f 543 545 544
f 544 545 546
f 544 546 532
f 545 529 547
f 545 547 546
f 546 547 548
f 546 548 532
f 547 529 549
f 547 549 548
f 548 549 550
f 548 550 532
f 549 529 551
f 549 551 550
f 550 551 552
f 550 552 532
f 551 529 553
f 551 553 552
f 552 553 554
f 552 554 532
f 553 529 555
f 553 555 554
f 554 555 556
f 554 556 532
f 555 529 557
f 555 557 556
f 556 557 558
f 556 558 532
f 557 529 559
f 557 559 558
f 558 559 560
f 558 560 532
f 559 529 561
f 559 561 560
f 560 561 562
f 560 562 532
f 561 529 563
f 561 563 562
f 562 563 564
f 562 564 532
f 563 529 565
f 563 565 564
f 564 565 566
f 564 566 532
f 565 529 567
f 565 567 566
f 566 567 568
f 566 568 532
f 567 529 569
f 567 569 568
f 568 569 570
f 568 570 532
f 569 529 571
f 569 571 570
f 570 571 572
f 570 572 532
f 571 529 573
f 571 573 572
f 572 573 574
f 572 574 532
f 573 529 575
f 573 575 574
f 574 575 576
f 574 576 532
f 575 529 577
f 575 577 576
f 576 577 578
f 576 578 532
f 577 529 579
f 577 579 578
f 578 579 580
f 578 580 532
f 579 529 581
f 579 581 580
f 580 581 582
f 580 582 532
f 581 529 583
f 581 583 582
f 582 583 584
f 582 584 532
f 583 529 585
f 583 585 584
f 584 585 586
f 584 586 532
f 585 529 587
f 585 587 586
f 586 587 588
f 586 588 532
f 587 529 589
f 587 589 588
f 588 589 590
f 588 590 532
f 589 529 591
f 589 591 590
f 590 591 592
f 590 592 532
f 591 529 593
f 591 593 592
f 592 593 594
f 592 594 532
f 593 529 530
f 593 530 594
f 594 530 531
f 594 531 532
f 596 595 599
f 596 599 597
f 597 599 600
f 597 600 598
f 599 595 601
f 599 601 600
f 600 601 602
f 600 602 598
f 601 595 603
f 601 603 602
f 602 603 604
f 602 604 598
f 603 595 605
f 603 605 604
f 604 605 606
f 604 606 598
f 605 595 607
f 605 607 606
f 606 607 608
f 606 608 598
f 607 595 609
f 607 609 608
f 608 609 610
f 608 610 598
f 609 595 611
f 609 611 610
f 610 611 612
f 610 612 598
f 611 595 613
f 611 613 612
f 612 613 614
f 612 614 598
f 613 595 615
f 613 615 614
f 614 615 616
f 614 616 598
f 615 595 617
f 615 617 616
f 616 617 618
f 616 618 598
f 617 595 619
f 617 619 618
f 618 619 620
f 618 620 598
f 619 595 621
f 619 621 620
f 620 621 622
f 620 622 598
f 621 595 623
f 621 623 622
f 622 623 624
f 622 624 598
f 623 595 625
f 623 625 624
f 624 625 626
f 624 626 598
f 625 595 627
f 625 627 626
f 626 627 628
f 626 628 598
f 627 595 629
f 627 629 628
f 628 629 630
f 628 630 598
f 629 595 631
f 629 631 630
f 630 631 632
f 630 632 598
f 631 595 633
f 631 633 632
f 632 633 634
f 632 634 598
f 633 595 635
f 633 635 634
f 634 635 636
f 634 636 598
f 635 595 637
f 635 637 636
f 636 637 638
f 636 638 598
f 637 595 639
f 637 639 638
f 638 639 640
f 638 640 598
f 639 595 641
f 639 641 640
f 640 641 642
f 640 642 598
f 641 595 643
f 641 643 642
f 642 643 644
f 642 644 598
f 643 595 645
f 643 645 644
f 644 645 646
f 644 646 598
f 645 595 647
f 645 647 646
f 646 647 648
f 646 648 598
f 647 595 649
f 647 649 648
f 648 649 650
f 648 650 598
f 649 595 651
f 649 651 650
f 650 651 652
f 650 652 598
f 651 595 653
f 651 653 652
f 652 653 654
f 652 654 598
f 653 595 655
f 653 655 654
f 654 655 656
f 654 656 598
f 655 595 657
f 655 657 656
f 656 657 658
f 656 658 598
f 657 595 659
f 657 659 658
f 658 659 660
f 658 660 598
f 659 595 596
f 659 596 660
f 660 596 597
f 660 597 598
f 662 661 665
f 662 665 663
f 663 665 666
f 663 666 664
f 665 661 667
f 665 667 666
f 666 667 668
f 666 668 664
f 667 661 669
f 667 669 668
f 668 669 670
f 668 670 664
f 669 661 671
f 669 671 670
f 670 671 672
f 670 672 664
f 671 661 673
f 671 673 672
f 672 673 674
f 672 674 664
f 673 661 675
f 673 675 674
f 674 675 676
f 674 676 664
f 675 661 677
f 675 677 676
f 676 677 678
f 676 678 664
f 677 661 679
f 677 679 678
f 678 679 680
f 678 680 664
f 679 661 681
f 679 681 680
f 680 681 682
f 680 682 664
f 681 661 683
f 681 683 682
f 682 683 684
f 682 684 664
f 683 661 685
f 683 685 684
f 684 685 686
f 684 686 664
f 685 661 687
f 685 687 686
f 686 687 688
f 686 688 664
f 687 661 689
f 687 689 688
f 688 689 690
f 688 690 664
f 689 661 691
f 689 691 690
f 690 691 692
f 690 692 664
f 691 661 693
f 691 693 692
f 692 693 694
f 692 694 664
f 693 661 695
f 693 695 694
f 694 695 696
f 694 696 664
f 695 661 697
f 695 697 696
f 696 697 698
f 696 698 664
f 697 661 699
f 697 699 698
f 698 699 700
f 698 700 664
f 699 661 701
f 699 701 700
f 700 701 702
f 700 702 664
f 701 661 703
f 701 703 702
f 702 703 704
f 702 704 664
f 703 661 705
f 703 705 704
f 704 705 706
f 704 706 664
f 705 661 707
f 705 707 706
f 706 707 708
f 706 708 664
f 707 661 709
f 707 709 708
f 708 709 710
f 708 710 664
f 709 661 711
f 709 711 710
f 710 711 712
f 710 712 664
f 711 661 713
f 711 713 712
f 712 713 714
f 712 714 664
f 713 661 715
f 713 715 714
f 714 715 716
f 714 716 664
f 715 661 717
f 715 717 716
f 716 717 718
f 716 718 664
f 717 661 719
f 717 719 718
f 718 719 720
f 718 720 664
f 719 661 721
f 719 721 720
f 720 721 722
f 720 722 664
f 721 661 723
f 721 723 722
f 722 723 724
f 722 724 664
f 723 661 725
f 723 725 724
f 724 725 726
f 724 726 664
f 725 661 662
f 725 662 726
f 726 662 663
f 726 663 664
f 728 727 731
f 728 731 729
f 729 731 732
f 729 732 730
f 731 727 733
f 731 733 732
f 732 733 734
f 732 734 730
f 733 727 735
f 733 735 734
f 734 735 736
f 734 736 730
f 735 727 737
f 735 737 736
f 736 737 738
f 736 738 730
f 737 727 739
f 737 739 738
f 738 739 740
f 738 740 730
f 739 727 741
f 739 741 740
f 740 741 742
f 740 742 730
f 741 727 743
f 741 743 742
f 742 743 744
f 742 744 730
f 743 727 745
f 743 745 744
f 744 745 746
f 744 746 730
f 745 727 747
f 745 747 746
f 746 747 748
f 746 748 730
f 747 727 749
f 747 749 748
f 748 749 750
f 748 750 730
f 749 727 751
f 749 751 750
f 750 751 752
f 750 752 730
f 751 727 753
f 751 753 752
f 752 753 754
f 752 754 730
f 753 727 755
f 753 755 754
f 754 755 756
f 754 756 730
f 755 727 757
f 755 757 756
f 756 757 758
f 756 758 730
f 757 727 759
f 757 759 758
f 758 759 760
f 758 760 730
f 759 727 761
f 759 761 760
f 760 761 762
f 760 762 730
f 761 727 763
f 761 763 762
f 762 763 764
f 762 764 730
f 763 727 765
f 763 765 764
f 764 765 766
f 764 766 730
f 765 727 767
f 765 767 766
f 766 767 768
f 766 768 730
f 767 727 769
f 767 769 768
f 768 769 770
f 768 770 730
f 769 727 771
f 769 771 770
f 770 771 772
f 770 772 730
f 771 727 773
f 771 773 772
f 772 773 774
f 772 774 730
f 773 727 775
f 773 775 774
f 774 775 776
f 774 776 730
f 775 727 777
f 775 777 776
f 776 777 778
f 776 778 730
f 777 727 779
f 777 779 778
f 778 779 780
f 778 780 730
f 779 727 781
f 779 781 780
f 780 781 782
f 780 782 730
f 781 727 783
f 781 783 782
f 782 783 784
f 782 784 730
f 783 727 785
f 783 785 784
f 784 785 786
f 784 786 730
f 785 727 787
f 785 787 786
f 786 787 788
f 786 788 730
f 787 727 789
f 787 789 788
f 788 789 790
f 788 790 730
f 789 727 791
f 789 791 790
f 790 791 792
f 790 792 730
f 791 727 728
f 791 728 792
f 792 728 729
f 792 729 730
f 794 793 797
f 794 797 795
f 795 797 798
f 795 798 796
f 797 793 799
f 797 799 798
f 798 799 800
f 798 800 796
f 799 793 801
f 799 801 800
f 800 801 802
f 800 802 796
f 801 793 803
f 801 803 802
f 802 803 804
f 802 804 796
f 803 793 805
f 803 805 804
f 804 805 806
f 804 806 796
f 805 793 807
f 805 807 806
f 806 807 808
f 806 808 796
f 807 793 809
f 807 809 808
f 808 809 810
f 808 810 796
f 809 793 811
f 809 811 810
f 810 811 812
f 810 812 796
f 811 793 813
f 811 813 812
f 812 813 814
f 812 814 796
f 813 793 815
f 813 815 814
f 814 815 816
f 814 816 796
f 815 793 817
f 815 817 816
f 816 817 818
f 816 818 796
f 817 793 819
f 817 819 818
f 818 819 820
f 818 820 796
f 819 793 821
f 819 821 820
f 820 821 822
f 820 822 796
f 821 793 823
f 821 823 822
f 822 823 824
f 822 824 796
f 823 793 825
f 823 825 824
f 824 825 826
f 824 826 796
f 825 793 827
f 825 827 826
f 826 827 828
f 826 828 796
f 827 793 829
f 827 829 828
f 828 829 830
f 828 830 796
f 829 793 831
f 829 831 830
f 830 831 832
f 830 832 796
f 831 793 833
f 831 833 832
f 832 833 834
f 832 834 796
f 833 793 835
f 833 835 834
f 834 835 836
f 834 836 796
f 835 793 837
f 835 837 836
f 836 837 838
f 836 838 796
f 837 793 839
f 837 839 838
f 838 839 840
f 838 840 796
f 839 793 841
f 839 841 840
f 840 841 842
f 840 842 796
f 841 793 843
f 841 843 842
f 842 843 844
f 842 844 796
f 843 793 845
f 843 845 844
f 844 845 846
f 844 846 796
f 845 793 847
f 845 847 846
f 846 847 848
f 846 848 796
f 847 793 849
f 847 849 848
f 848 849 850
f 848 850 796
f 849 793 851
f 849 851 850
f 850 851 852
f 850 852 796
f 851 793 853
f 851 853 852
f 852 853 854
f 852 854 796
f 853 793 855
f 853 855 854
f 854 855 856
f 854 856 796
f 855 793 857
f 855 857 856
f 856 857 858
f 856 858 796
f 857 793 794
f 857 794 858
f 858 794 795
f 858 795 796
f 860 859 863
f 860 863 861
f 861 863 864
f 861 864 862
f 863 859 865
f 863 865 864
f 864 865 866
f 864 866 862
f 865 859 867
f 865 867 866
f 866 867 868
f 866 868 862
f 867 859 869
f 867 869 868
f 868 869 870
f 868 870 862
f 869 859 871
f 869 871 870
f 870 871 872
f 870 872 862
f 871 859 873
f 871 873 872
f 872 873 874
f 872 874 862
f 873 859 875
f 873 875 874
f 874 875 876
f 874 876 862
f 875 859 877
f 875 877 876
f 876 877 878
f 876 878 862
f 877 859 879
f 877 879 878
f 878 879 880
f 878 880 862
f 879 859 881
f 879 881 880
f 880 881 882
f 880 882 862
f 881 859 883
f 881 883 882
f 882 883 884
f 882 884 862
f 883 859 885
f 883 885 884
f 884 885 886
f 884 886 862
f 885 859 887
f 885 887 886
f 886 887 888
f 886 888 862
f 887 859 889
f 887 889 888
f 888 889 890
f 888 890 862
f 889 859 891
f 889 891 890
f 890 891 892
f 890 892 862
f 891 859 893
f 891 893 892
f 892 893 894
f 892 894 862
f 893 859 895
f 893 895 894
f 894 895 896
f 894 896 862
f 895 859 897
f 895 897 896
f 896 897 898
f 896 898 862
f 897 859 899
f 897 899 898
f 898 899 900
f 898 900 862
f 899 859 901
f 899 901 900
f 900 901 902
f 900 902 862
f 901 859 903
f 901 903 902
f 902 903 904
f 902 904 862
f 903 859 905
f 903 905 904
f 904 905 906
f 904 906 862
f 905 859 907
f 905 907 906
f 906 907 908
f 906 908 862
f 907 859 909
f 907 909 908
f 908 909 910
f 908 910 862
f 909 859 911
f 909 911 910
f 910 911 912
f 910 912 862
f 911 859 913
f 911 913 912
f 912 913 914
f 912 914 862
f 913 859 915
f 913 915 914
f 914 915 916
f 914 916 862
f 915 859 917
f 915 917 916
f 916 917 918
f 916 918 862
f 917 859 919
f 917 919 918
f 918 919 920
f 918 920 862
f 919 859 921
f 919 921 920
f 920 921 922
f 920 922 862
f 921 859 923
f 921 923 922
f 922 923 924
f 922 924 862
f 923 859 860
f 923 860 924
f 924 860 861
f 924 861 862
f 926 925 929
f 926 929 927
f 927 929 930
f 927 930 928
f 929 925 931
f 929 931 930
f 930 931 932
f 930 932 928
f 931 925 933
f 931 933 932
f 932 933 934
f 932 934 928
f 933 925 935
f 933 935 934
f 934 935 936
f 934 936 928
f 935 925 937
f 935 937 936
f 936 937 938
f 936 938 928
f 937 925 939
f 937 939 938
f 938 939 940
f 938 940 928
f 939 925 941
f 939 941 940
f 940 941 942
f 940 942 928
f 941 925 943
f 941 943 942
f 942 943 944
f 942 944 928
f 943 925 945
f 943 945 944
f 944 945 946
f 944 946 928
f 945 925 947
f 945 947 946
f 946 947 948
f 946 948 928
f 947 925 949
f 947 949 948
f 948 949 950
f 948 950 928
f 949 925 951
f 949 951 950
f 950 951 952
f 950 952 928
f 951 925 953
f 951 953 952
f 952 953 954
f 952 954 928
f 953 925 955
f 953 955 954
f 954 955 956
f 954 956 928
f 955 925 957
f 955 957 956
f 956 957 958
f 956 958 928
f 957 925 959
f 957 959 958
f 958 959 960
f 958 960 928
f 959 925 961
f 959 961 960
f 960 961 962
f 960 962 928
f 961 925 963
f 961 963 962
f 962 963 964
f 962 964 928
f 963 925 965
f 963 965 964
f 964 965 966
f 964 966 928
f 965 925 967
f 965 967 966
f 966 967 968
f 966 968 928
f 967 925 969
f 967 969 968
f 968 969 970
f 968 970 928
f 969 925 971
f 969 971 970
f 970 971 972
f 970 972 928
f 971 925 973
f 971 973 972
f 972 973 974
f 972 974 928
f 973 925 975
f 973 975 974
f 974 975 976
f 974 976 928
f 975 925 977
f 975 977 976
f 976 977 978
f 976 978 928
f 977 925 979
f 977 979 978
f 978 979 980
f 978 980 928
f 979 925 981
f 979 981 980
f 980 981 982
f 980 982 928
f 981 925 983
f 981 983 982
f 982 983 984
f 982 984 928
f 983 925 985
f 983 985 984
f 984 985 986
f 984 986 928
f 985 925 987
f 985 987 986
f 986 987 988
f 986 988 928
f 987 925 989
f 987 989 988
f 988 989 990
f 988 990 928
f 989 925 926
f 989 926 990
f 990 926 927
f 990 927 928
f 992 991 995
f 992 995 993
f 993 995 996
f 993 996 994
f 995 991 997
f 995 997 996
f 996 997 998
f 996 998 994
f 997 991 999
f 997 999 998
f 998 999 1000
f 998 1000 994
f 999 991 1001
f 999 1001 1000
f 1000 1001 1002
f 1000 1002 994
f 1001 991 1003
f 1001 1003 1002
f 1002 1003 1004
f 1002 1004 994
f 1003 991 1005
f 1003 1005 1004
f 1004 1005 1006
f 1004 1006 994
f 1005 991 1007
f 1005 1007 1006
f 1006 1007 1008
f 1006 1008 994
f 1007 991 1009
f 1007 1009 1008
f 1008 1009 1010
f 1008 1010 994
f 1009 991 1011
f 1009 1011 1010
f 1010 1011 1012
f 1010 1012 994
f 1011 991 1013
f 1011 1013 1012
f 1012 1013 1014
f 1012 1014 994
f 1013 991 1015
f 1013 1015 1014
f 1014 1015 1016
f 1014 1016 994
f 1015 991 1017
f 1015 1017 1016
f 1016 1017 1018
f 1016 1018 994
f 1017 991 1019
f 1017 1019 1018
f 1018 1019 1020
f 1018 1020 994
f 1019 991 1021
f 1019 1021 1020
f 1020 1021 1022
f 1020 1022 994
f 1021 991 1023
f 1021 1023 1022
f 1022 1023 1024
f 1022 1024 994
f 1023 991 1025
f 1023 1025 1024
f 1024 1025 1026
f 1024 1026 994
f 1025 991 1027
f 1025 1027 1026
f 1026 1027 1028
f 1026 1028 994
f 1027 991 1029
f 1027 1029 1028
f 1028 1029 1030
f 1028 1030 994
f 1029 991 1031
f 1029 1031 1030
f 1030 1031 1032
f 1030 1032 994
f 1031 991 1033
f 1031 1033 1032
f 1032 1033 1034
f 1032 1034 994
f 1033 991 1035
f 1033 1035 1034
f 1034 1035 1036
f 1034 1036 994
f 1035 991 1037
f 1035 1037 1036
f 1036 1037 1038
f 1036 1038 994
f 1037 991 1039
f 1037 1039 1038
f 1038 1039 1040
f 1038 1040 994
f 1039 991 1041
f 1039 1041 1040
f 1040 1041 1042
f 1040 1042 994
f 1041 991 1043
f 1041 1043 1042
f 1042 1043 1044
f 1042 1044 994
f 1043 991 1045
f 1043 1045 1044
f 1044 1045 1046
f 1044 1046 994
f 1045 991 1047
f 1045 1047 1046
f 1046 1047 1048
f 1046 1048 994
f 1047 991 1049
f 1047 1049 1048
f 1048 1049 1050
f 1048 1050 994
f 1049 991 1051
f 1049 1051 1050
f 1050 1051 1052
f 1050 1052 994
f 1051 991 1053
f 1051 1053 1052
f 1052 1053 1054
f 1052 1054 994
f 1053 991 1055
f 1053 1055 1054
f 1054 1055 1056
f 1054 1056 994
f 1055 991 992
f 1055 992 1056
f 1056 992 993
f 1056 993 994
f 1058 1057 1061
f 1058 1061 1059
f 1059 1061 1062
f 1059 1062 1060
f 1061 1057 1063
f 1061 1063 1062
f 1062 1063 1064
f 1062 1064 1060
f 1063 1057 1065
f 1063 1065 1064
f 1064 1065 1066
f 1064 1066 1060
f 1065 1057 1067
f 1065 1067 1066
f 1066 1067 1068
f 1066 1068 1060
f 1067 1057 1069
f 1067 1069 1068
f 1068 1069 1070
f 1068 1070 1060
f 1069 1057 1071
f 1069 1071 1070
f 1070 1071 1072
f 1070 1072 1060
f 1071 1057 1073
f 1071 1073 1072
f 1072 1073 1074
f 1072 1074 1060
f 1073 1057 1075
f 1073 1075 1074
f 1074 1075 1076
f 1074 1076 1060
f 1075 1057 1077
f 1075 1077 1076
f 1076 1077 1078
f 1076 1078 1060
f 1077 1057 1079
f 1077 1079 1078
f 1078 1079 1080
f 1078 1080 1060
f 1079 1057 1081
f 1079 1081 1080
f 1080 1081 1082
f 1080 1082 1060
f 1081 1057 1083
f 1081 1083 1082
f 1082 1083 1084
f 1082 1084 1060
f 1083 1057 1085
f 1083 1085 1084
f 1084 1085 1086
f 1084 1086 1060
f 1085 1057 1087
f 1085 1087 1086
f 1086 1087 1088
f 1086 1088 1060
f 1087 1057 1089
f 1087 1089 1088
f 1088 1089 1090
f 1088 1090 1060
f 1089 1057 1091
f 1089 1091 1090
f 1090 1091 1092
f 1090 1092 1060
f 1091 1057 1093
f 1091 1093 1092
f 1092 1093 1094
f 1092 1094 1060
f 1093 1057 1095
f 1093 1095 1094
f 1094 1095 1096
f 1094 1096 1060
f 1095 1057 1097
f 1095 1097 1096
f 1096 1097 1098
f 1096 1098 1060
f 1097 1057 1099
f 1097 1099 1098
f 1098 1099 1100
f 1098 1100 1060
f 1099 1057 1101
f 1099 1101 1100
f 1100 1101 1102
f 1100 1102 1060
f 1101 1057 1103
f 1101 1103 1102
f 1102 1103 1104
f 1102 1104 1060
f 1103 1057 1105
f 1103 1105 1104
f 1104 1105 1106
f 1104 1106 1060
f 1105 1057 1107
f 1105 1107 1106
f 1106 1107 1108
f 1106 1108 1060
f 1107 1057 1109
f 1107 1109 1108
f 1108 1109 1110
f 1108 1110 1060
f 1109 1057 1111
f 1109 1111 1110
f 1110 1111 1112
f 1110 1112 1060
f 1111 1057 1113
f 1111 1113 1112
f 1112 1113 1114
f 1112 1114 1060
f 1113 1057 1115
f 1113 1115 1114
f 1114 1115 1116
f 1114 1116 1060
f 1115 1057 1117
f 1115 1117 1116
f 1116 1117 1118
f 1116 1118 1060
f 1117 1057 1119
f 1117 1119 1118
f 1118 1119 1120
f 1118 1120 1060
f 1119 1057 1121
f 1119 1121 1120
f 1120 1121 1122
f 1120 1122 1060
f 1121 1057 1058
f 1121 1058 1122
f 1122 1058 1059
f 1122 1059 1060
f 1124 1123 1127
f 1124 1127 1125
f 1125 1127 1128
f 1125 1128 1126
f 1127 1123 1129
f 1127 1129 1128
f 1128 1129 1130
f 1128 1130 1126
f 1129 1123 1131
f 1129 1131 1130
f 1130 1131 1132
f 1130 1132 1126
f 1131 1123 1133
f 1131 1133 1132
f 1132 1133 1134
f 1132 1134 1126
f 1133 1123 1135
f 1133 1135 1134
f 1134 1135 1136
f 1134 1136 1126
f 1135 1123 1137
f 1135 1137 1136
f 1136 1137 1138
f 1136 1138 1126
f 1137 1123 1139
f 1137 1139 1138
f 1138 1139 1140
f 1138 1140 1126
f 1139 1123 1141
f 1139 1141 1140
f 1140 1141 1142
f 1140 1142 1126
f 1141 1123 1143
f 1141 1143 1142
f 1142 1143 1144
f 1142 1144 1126
f 1143 1123 1145
f 1143 1145 1144
f 1144 1145 1146
f 1144 1146 1126
f 1145 1123 1147
f 1145 1147 1146
f 1146 1147 1148
f 1146 1148 1126
f 1147 1123 1149
f 1147 1149 1148
f 1148 1149 1150
f 1148 1150 1126
f 1149 1123 1151
f 1149 1151 1150
f 1150 1151 1152
f 1150 1152 1126
f 1151 1123 1153
f 1151 1153 1152
f 1152 1153 1154
f 1152 1154 1126
f 1153 1123 1155
f 1153 1155 1154
f 1154 1155 1156
f 1154 1156 1126
f 1155 1123 1157
f 1155 1157 1156
f 1156 1157 1158
f 1156 1158 1126
f 1157 1123 1159
f 1157 1159 1158
f 1158 1159 1160
f 1158 1160 1126
f 1159 1123 1161
f 1159 1161 1160
f 1160 1161 1162
f 1160 1162 1126
f 1161 1123 1163
f 1161 1163 1162
f 1162 1163 1164
f 1162 1164 1126
f 1163 1123 1165
f 1163 1165 1164
f 1164 1165 1166
f 1164 1166 1126
f 1165 1123 1167
f 1165 1167 1166
f 1166 1167 1168
f 1166 1168 1126
f 1167 1123 1169
f 1167 1169 1168
f 1168 1169 1170
f 1168 1170 1126
f 1169 1123 1171
f 1169 1171 1170
f 1170 1171 1172
f 1170 1172 1126
f 1171 1123 1173
f 1171 1173 1172
f 1172 1173 1174
f 1172 1174 1126
f 1173 1123 1175
f 1173 1175 1174
f 1174 1175 1176
f 1174 1176 1126
f 1175 1123 1177
f 1175 1177 1176
f 1176 1177 1178
f 1176 1178 1126
f 1177 1123 1179
f 1177 1179 1178
f 1178 1179 1180
f 1178 1180 1126
f 1179 1123 1181
f 1179 1181 1180
f 1180 1181 1182
f 1180 1182 1126
f 1181 1123 1183
f 1181 1183 1182
f 1182 1183 1184
f 1182 1184 1126
f 1183 1123 1185
f 1183 1185 1184
f 1184 1185 1186
f 1184 1186 1126
f 1185 1123 1187
f 1185 1187 1186
f 1186 1187 1188
f 1186 1188 1126
f 1187 1123 1124
f 1187 1124 1188
f 1188 1124 1125
f 1188 1125 1126
f 1190 1189 1193
f 1190 1193 1191
f 1191 1193 1194
f 1191 1194 1192
f 1193 1189 1195
f 1193 1195 1194
f 1194 1195 1196
f 1194 1196 1192
f 1195 1189 1197
f 1195 1197 1196
f 1196 1197 1198
f 1196 1198 1192
f 1197 1189 1199
f 1197 1199 1198
f 1198 1199 1200
f 1198 1200 1192
f 1199 1189 1201
f 1199 1201 1200
f 1200 1201 1202
f 1200 1202 1192
f 1201 1189 1203
f 1201 1203 1202
f 1202 1203 1204
f 1202 1204 1192
f 1203 1189 1205
f 1203 1205 1204
f 1204 1205 1206
f 1204 1206 1192
f 1205 1189 1207
f 1205 1207 1206
f 1206 1207 1208
f 1206 1208 1192
f 1207 1189 1209
f 1207 1209 1208
f 1208 1209 1210
f 1208 1210 1192
f 1209 1189 1211
f 1209 1211 1210
f 1210 1211 1212
f 1210 1212 1192
f 1211 1189 1213
f 1211 1213 1212
f 1212 1213 1214
f 1212 1214 1192
f 1213 1189 1215
f 1213 1215 1214
f 1214 1215 1216
f 1214 1216 1192
f 1215 1189 1217
f 1215 1217 1216
f 1216 1217 1218
f 1216 1218 1192
f 1217 1189 1219
f 1217 1219 1218
f 1218 1219 1220
f 1218 1220 1192
f 1219 1189 1221
f 1219 1221 1220
f 1220 1221 1222
f 1220 1222 1192
f 1221 1189 1223
f 1221 1223 1222
f 1222 1223 1224
f 1222 1224 1192
f 1223 1189 1225
f 1223 1225 1224
f 1224 1225 1226
f 1224 1226 1192
f 1225 1189 1227
f 1225 1227 1226
f 1226 1227 1228
f 1226 1228 1192
f 1227 1189 1229
f 1227 1229 1228
f 1228 1229 1230
f 1228 1230 1192
f 1229 1189 1231
f 1229 1231 1230
f 1230 1231 1232
f 1230 1232 1192
f 1231 1189 1233
f 1231 1233 1232
f 1232 1233 1234
f 1232 1234 1192
f 1233 1189 1235
f 1233 1235 1234
f 1234 1235 1236
f 1234 1236 1192
f 1235 1189 1237
f 1235 1237 1236
f 1236 1237 1238
f 1236 1238 1192
f 1237 1189 1239
f 1237 1239 1238
f 1238 1239 1240
f 1238 1240 1192
f 1239 1189 1241
f 1239 1241 1240
f 1240 1241 1242
f 1240 1242 1192
f 1241 1189 1243
f 1241 1243 1242
f 1242 1243 1244
f 1242 1244 1192
f 1243 1189 1245
f 1243 1245 1244
f 1244 1245 1246
f 1244 1246 1192
f 1245 1189 1247
f 1245 1247 1246
f 1246 1247 1248
f 1246 1248 1192
f 1247 1189 1249
f 1247 1249 1248
f 1248 1249 1250
f 1248 1250 1192
f 1249 1189 1251
f 1249 1251 1250
f 1250 1251 1252
f 1250 1252 1192
f 1251 1189 1253
f 1251 1253 1252
f 1252 1253 1254
f 1252 1254 1192
f 1253 1189 1190
f 1253 1190 1254
f 1254 1190 1191
f 1254 1191 1192
f 1256 1258 1255
f 1259 1256 1255
f 1255 1258 1257
f 1257 1259 1255
f 1256 1262 1258
f 1260 1256 1259
f 1260 1262 1256
f 1258 1262 1257
f 1261 1259 1257
f 1257 1262 1261
f 1261 1260 1259
f 1262 1260 1261
f 1264 1266 1263
f 1267 1264 1263
f 1263 1266 1265
f 1265 1267 1263
f 1264 1270 1266
f 1268 1264 1267
f 1268 1270 1264
f 1266 1270 1265
f 1269 1267 1265
f 1265 1270 1269
f 1269 1268 1267
f 1270 1268 1269
f 1272 1274 1271
f 1275 1272 1271
f 1271 1274 1273
f 1273 1275 1271
f 1272 1278 1274
f 1276 1272 1275
f 1276 1278 1272
f 1274 1278 1273
f 1277 1275 1273
f 1273 1278 1277
f 1277 1276 1275
f 1278 1276 1277
f 1280 1282 1279
f 1283 1280 1279
f 1279 1282 1281
f 1281 1283 1279
f 1280 1286 1282
f 1284 1280 1283
f 1284 1286 1280
f 1282 1286 1281
f 1285 1283 1281
f 1281 1286 1285
f 1285 1284 1283
f 1286 1284 1285
f 1288 1287 1291
f 1288 1291 1289
f 1289 1291 1292
f 1289 1292 1290
f 1291 1287 1293
f 1291 1293 1292
f 1292 1293 1294
f 1292 1294 1290
f 1293 1287 1295
f 1293 1295 1294
f 1294 1295 1296
f 1294 1296 1290
f 1295 1287 1297
f 1295 1297 1296
f 1296 1297 1298
f 1296 1298 1290
f 1297 1287 1299
f 1297 1299 1298
f 1298 1299 1300
f 1298 1300 1290
f 1299 1287 1301
f 1299 1301 1300
f 1300 1301 1302
f 1300 1302 1290
f 1301 1287 1303
f 1301 1303 1302
f 1302 1303 1304
f 1302 1304 1290
f 1303 1287 1305
f 1303 1305 1304
f 1304 1305 1306
f 1304 1306 1290
f 1305 1287 1307
f 1305 1307 1306
f 1306 1307 1308
f 1306 1308 1290
f 1307 1287 1309
f 1307 1309 1308
f 1308 1309 1310
f 1308 1310 1290
f 1309 1287 1311
f 1309 1311 1310
f 1310 1311 1312
f 1310 1312 1290
f 1311 1287 1313
f 1311 1313 1312
f 1312 1313 1314
f 1312 1314 1290
f 1313 1287 1315
f 1313 1315 1314
f 1314 1315 1316
f 1314 1316 1290
f 1315 1287 1317
f 1315 1317 1316
f 1316 1317 1318
f 1316 1318 1290
f 1317 1287 1319
f 1317 1319 1318
f 1318 1319 1320
f 1318 1320 1290
f 1319 1287 1321
f 1319 1321 1320
f 1320 1321 1322
f 1320 1322 1290
f 1321 1287 1323
f 1321 1323 1322
f 1322 1323 1324
f 1322 1324 1290
f 1323 1287 1325
f 1323 1325 1324
f 1324 1325 1326
f 1324 1326 1290
f 1325 1287 1327
f 1325 1327 1326
f 1326 1327 1328
f 1326 1328 1290
f 1327 1287 1329
f 1327 1329 1328
f 1328 1329 1330
f 1328 1330 1290
f 1329 1287 1331
f 1329 1331 1330
f 1330 1331 1332
f 1330 1332 1290
f 1331 1287 1333
f 1331 1333 1332
f 1332 1333 1334
f 1332 1334 1290
f 1333 1287 1335
f 1333 1335 1334
f 1334 1335 1336
f 1334 1336 1290
f 1335 1287 1337
f 1335 1337 1336
f 1336 1337 1338
f 1336 1338 1290
f 1337 1287 1339
f 1337 1339 1338
f 1338 1339 1340
f 1338 1340 1290
f 1339 1287 1341
f 1339 1341 1340
f 1340 1341 1342
f 1340 1342 1290
f 1341 1287 1343
f 1341 1343 1342
f 1342 1343 1344
f 1342 1344 1290
f 1343 1287 1345
f 1343 1345 1344
f 1344 1345 1346
f 1344 1346 1290
f 1345 1287 1347
f 1345 1347 1346
f 1346 1347 1348
f 1346 1348 1290
f 1347 1287 1349
f 1347 1349 1348
f 1348 1349 1350
f 1348 1350 1290
f 1349 1287 1351
f 1349 1351 1350
f 1350 1351 1352
f 1350 1352 1290
f 1351 1287 1288
f 1351 1288 1352
f 1352 1288 1289
f 1352 1289 1290
f 1354 1356 1353
f 1357 1354 1353
f 1353 1356 1355
f 1355 1357 1353
f 1354 1360 1356
f 1358 1354 1357
f 1358 1360 1354
f 1356 1360 1355
f 1359 1357 1355
f 1355 1360 1359
f 1359 1358 1357
f 1360 1358 1359
f 1362 1364 1361
f 1365 1362 1361
f 1361 1364 1363
f 1363 1365 1361
f 1362 1368 1364
f 1366 1362 1365
f 1366 1368 1362
f 1364 1368 1363
f 1367 1365 1363
f 1363 1368 1367
f 1367 1366 1365
f 1368 1366 1367
f 1370 1372 1369
f 1373 1370 1369
f 1369 1372 1371
f 1371 1373 1369
f 1370 1376 1372
f 1374 1370 1373
f 1374 1376 1370
f 1372 1376 1371
f 1375 1373 1371
f 1371 1376 1375
f 1375 1374 1373
f 1376 1374 1375
f 1378 1380 1377
f 1381 1378 1377
f 1377 1380 1379
f 1379 1381 1377
f 1378 1384 1380
f 1382 1378 1381
f 1382 1384 1378
f 1380 1384 1379
f 1383 1381 1379
f 1379 1384 1383
f 1383 1382 1381
f 1384 1382 1383
f 1386 1385 1389
f 1386 1389 1387
f 1387 1389 1390
f 1387 1390 1388
f 1389 1385 1391
f 1389 1391 1390
f 1390 1391 1392
f 1390 1392 1388
f 1391 1385 1393
f 1391 1393 1392
f 1392 1393 1394
f 1392 1394 1388
f 1393 1385 1395
f 1393 1395 1394
f 1394 1395 1396
f 1394 1396 1388
f 1395 1385 1397
f 1395 1397 1396
f 1396 1397 1398
f 1396 1398 1388
f 1397 1385 1399
f 1397 1399 1398
f 1398 1399 1400
f 1398 1400 1388
f 1399 1385 1401
f 1399 1401 1400
f 1400 1401 1402
f 1400 1402 1388
f 1401 1385 1403
f 1401 1403 1402
f 1402 1403 1404
f 1402 1404 1388
f 1403 1385 1405
f 1403 1405 1404
f 1404 1405 1406
f 1404 1406 1388
f 1405 1385 1407
f 1405 1407 1406
f 1406 1407 1408
f 1406 1408 1388
f 1407 1385 1409
f 1407 1409 1408
f 1408 1409 1410
f 1408 1410 1388
f 1409 1385 1411
f 1409 1411 1410
f 1410 1411 1412
f 1410 1412 1388
f 1411 1385 1413
f 1411 1413 1412
f 1412 1413 1414
f 1412 1414 1388
f 1413 1385 1415
f 1413 1415 1414
f 1414 1415 1416
f 1414 1416 1388
f 1415 1385 1417
f 1415 1417 1416
f 1416 1417 1418
f 1416 1418 1388
f 1417 1385 1419
f 1417 1419 1418
f 1418 1419 1420
f 1418 1420 1388
f 1419 1385 1421
f 1419 1421 1420
f 1420 1421 1422
f 1420 1422 1388
f 1421 1385 1423
f 1421 1423 1422
f 1422 1423 1424
f 1422 1424 1388
f 1423 1385 1425
f 1423 1425 1424
f 1424 1425 1426
f 1424 1426 1388
f 1425 1385 1427
f 1425 1427 1426
f 1426 1427 1428
f 1426 1428 1388
f 1427 1385 1429
f 1427 1429 1428
f 1428 1429 1430
f 1428 1430 1388
f 1429 1385 1431
f 1429 1431 1430
f 1430 1431 1432
f 1430 1432 1388
f 1431 1385 1433
f 1431 1433 1432
f 1432 1433 1434
f 1432 1434 1388
f 1433 1385 1435
f 1433 1435 1434
f 1434 1435 1436
f 1434 1436 1388
f 1435 1385 1437
f 1435 1437 1436
f 1436 1437 1438
f 1436 1438 1388
f 1437 1385 1439
f 1437 1439 1438
f 1438 1439 1440
f 1438 1440 1388
f 1439 1385 1441
f 1439 1441 1440
f 1440 1441 1442
f 1440 1442 1388
f 1441 1385 1443
f 1441 1443 1442
f 1442 1443 1444
f 1442 1444 1388
f 1443 1385 1445
f 1443 1445 1444
f 1444 1445 1446
f 1444 1446 1388
f 1445 1385 1447
f 1445 1447 1446
f 1446 1447 1448
f 1446 1448 1388
f 1447 1385 1449
f 1447 1449 1448
f 1448 1449 1450
f 1448 1450 1388
f 1449 1385 1386
f 1449 1386 1450
f 1450 1386 1387
f 1450 1387 1388
f 1452 1454 1451
f 1455 1452 1451
f 1451 1454 1453
f 1453 1455 1451
f 1452 1458 1454
f 1456 1452 1455
f 1456 1458 1452
f 1454 1458 1453
f 1457 1455 1453
f 1453 1458 1457
f 1457 1456 1455
f 1458 1456 1457
f 1460 1462 1459
f 1463 1460 1459
f 1459 1462 1461
f 1461 1463 1459
f 1460 1466 1462
f 1464 1460 1463
f 1464 1466 1460
f 1462 1466 1461
f 1465 1463 1461
f 1461 1466 1465
f 1465 1464 1463
f 1466 1464 1465
f 1468 1470 1467
f 1471 1468 1467
f 1467 1470 1469
f 1469 1471 1467
f 1468 1474 1470
f 1472 1468 1471
f 1472 1474 1468
f 1470 1474 1469
f 1473 1471 1469
f 1469 1474 1473
f 1473 1472 1471
f 1474 1472 1473
f 1476 1478 1475
f 1479 1476 1475
f 1475 1478 1477
f 1477 1479 1475
f 1476 1482 1478
f 1480 1476 1479
f 1480 1482 1476
f 1478 1482 1477
f 1481 1479 1477
f 1477 1482 1481
f 1481 1480 1479
f 1482 1480 1481
f 1484 1486 1483
f 1487 1484 1483
f 1483 1486 1485
f 1485 1487 1483
f 1484 1490 1486
f 1488 1484 1487
f 1488 1490 1484
f 1486 1490 1485
f 1489 1487 1485
f 1485 1490 1489
f 1489 1488 1487
f 1490 1488 1489
f 1492 1494 1491
f 1495 1492 1491
f 1491 1494 1493
f 1493 1495 1491
f 1492 1498 1494
f 1496 1492 1495
f 1496 1498 1492
f 1494 1498 1493
f 1497 1495 1493
f 1493 1498 1497
f 1497 1496 1495
f 1498 1496 1497

