0
SECTION
2
HEADER
0
ENDSEC
0
SECTION
2
TABLES
0
TABLE
2
LAYER
0
LAYER
2
CUT
70
0
62
1
6
CONTINUOUS
0
ENDTAB
0
ENDSEC
0
SECTION
2
ENTITIES
0
LINE
8
CUT
10
45.000
20
90.000
30
0.0
11
815.000
21
90.000
31
0.0
0
LINE
8
CUT
10
45.000
20
0.000
30
0.0
11
815.000
21
0.000
31
0.0
0
LINE
8
CUT
10
45.000
20
90.000
30
0.0
11
36.221
21
89.135
31
0.0
0
LINE
8
CUT
10
815.000
20
0.000
30
0.0
11
823.779
21
0.865
31
0.0
0
LINE
8
CUT
10
36.221
20
89.135
30
0.0
11
27.779
21
86.575
31
0.0
0
LINE
8
CUT
10
823.779
20
0.865
30
0.0
11
832.221
21
3.425
31
0.0
0
LINE
8
CUT
10
27.779
20
86.575
30
0.0
11
19.999
21
82.416
31
0.0
0
LINE
8
CUT
10
832.221
20
3.425
30
0.0
11
840.001
21
7.584
31
0.0
0
LINE
8
CUT
10
19.999
20
82.416
30
0.0
11
13.180
21
76.820
31
0.0
0
LINE
8
CUT
10
840.001
20
7.584
30
0.0
11
846.820
21
13.180
31
0.0
0
LINE
8
CUT
10
13.180
20
76.820
30
0.0
11
7.584
21
70.001
31
0.0
0
LINE
8
CUT
10
846.820
20
13.180
30
0.0
11
852.416
21
19.999
31
0.0
0
LINE
8
CUT
10
7.584
20
70.001
30
0.0
11
3.425
21
62.221
31
0.0
0
LINE
8
CUT
10
852.416
20
19.999
30
0.0
11
856.575
21
27.779
31
0.0
0
LINE
8
CUT
10
3.425
20
62.221
30
0.0
11
0.865
21
53.779
31
0.0
0
LINE
8
CUT
10
856.575
20
27.779
30
0.0
11
859.135
21
36.221
31
0.0
0
LINE
8
CUT
10
0.865
20
53.779
30
0.0
11
0.000
21
45.000
31
0.0
0
LINE
8
CUT
10
859.135
20
36.221
30
0.0
11
860.000
21
45.000
31
0.0
0
LINE
8
CUT
10
0.000
20
45.000
30
0.0
11
0.865
21
36.221
31
0.0
0
LINE
8
CUT
10
860.000
20
45.000
30
0.0
11
859.135
21
53.779
31
0.0
0
LINE
8
CUT
10
0.865
20
36.221
30
0.0
11
3.425
21
27.779
31
0.0
0
LINE
8
CUT
10
859.135
20
53.779
30
0.0
11
856.575
21
62.221
31
0.0
0
LINE
8
CUT
10
3.425
20
27.779
30
0.0
11
7.584
21
19.999
31
0.0
0
LINE
8
CUT
10
856.575
20
62.221
30
0.0
11
852.416
21
70.001
31
0.0
0
LINE
8
CUT
10
7.584
20
19.999
30
0.0
11
13.180
21
13.180
31
0.0
0
LINE
8
CUT
10
852.416
20
70.001
30
0.0
11
846.820
21
76.820
31
0.0
0
LINE
8
CUT
10
13.180
20
13.180
30
0.0
11
19.999
21
7.584
31
0.0
0
LINE
8
CUT
10
846.820
20
76.820
30
0.0
11
840.001
21
82.416
31
0.0
0
LINE
8
CUT
10
19.999
20
7.584
30
0.0
11
27.779
21
3.425
31
0.0
0
LINE
8
CUT
10
840.001
20
82.416
30
0.0
11
832.221
21
86.575
31
0.0
0
LINE
8
CUT
10
27.779
20
3.425
30
0.0
11
36.221
21
0.865
31
0.0
0
LINE
8
CUT
10
832.221
20
86.575
30
0.0
11
823.779
21
89.135
31
0.0
0
LINE
8
CUT
10
36.221
20
0.865
30
0.0
11
45.000
21
0.000
31
0.0
0
LINE
8
CUT
10
823.779
20
89.135
30
0.0
11
815.000
21
90.000
31
0.0
0
CIRCLE
8
CUT
10
45.000
20
45.000
30
0.0
40
3.000
0
CIRCLE
8
CUT
10
430.000
20
45.000
30
0.0
40
3.000
0
CIRCLE
8
CUT
10
815.000
20
45.000
30
0.0
40
3.000
0
LINE
8
CUT
10
90.000
20
42.000
30
0.0
11
375.000
21
42.000
31
0.0
0
LINE
8
CUT
10
90.000
20
48.000
30
0.0
11
375.000
21
48.000
31
0.0
0
LINE
8
CUT
10
90.000
20
42.000
30
0.0
11
90.000
21
48.000
31
0.0
0
LINE
8
CUT
10
375.000
20
42.000
30
0.0
11
375.000
21
48.000
31
0.0
0
LINE
8
CUT
10
485.000
20
42.000
30
0.0
11
770.000
21
42.000
31
0.0
0
LINE
8
CUT
10
485.000
20
48.000
30
0.0
11
770.000
21
48.000
31
0.0
0
LINE
8
CUT
10
485.000
20
42.000
30
0.0
11
485.000
21
48.000
31
0.0
0
LINE
8
CUT
10
770.000
20
42.000
30
0.0
11
770.000
21
48.000
31
0.0
0
LINE
8
KERF
10
260.000
20
6.000
30
0.0
11
260.000
21
35.000
31
0.0
0
LINE
8
KERF
10
260.000
20
55.000
30
0.0
11
260.000
21
84.000
31
0.0
0
LINE
8
KERF
10
280.000
20
6.000
30
0.0
11
280.000
21
35.000
31
0.0
0
LINE
8
KERF
10
280.000
20
55.000
30
0.0
11
280.000
21
84.000
31
0.0
0
LINE
8
KERF
10
300.000
20
6.000
30
0.0
11
300.000
21
35.000
31
0.0
0
LINE
8
KERF
10
300.000
20
55.000
30
0.0
11
300.000
21
84.000
31
0.0
0
LINE
8
KERF
10
320.000
20
6.000
30
0.0
11
320.000
21
35.000
31
0.0
0
LINE
8
KERF
10
320.000
20
55.000
30
0.0
11
320.000
21
84.000
31
0.0
0
LINE
8
KERF
10
600.000
20
6.000
30
0.0
11
600.000
21
35.000
31
0.0
0
LINE
8
KERF
10
600.000
20
55.000
30
0.0
11
600.000
21
84.000
31
0.0
0
LINE
8
KERF
10
620.000
20
6.000
30
0.0
11
620.000
21
35.000
31
0.0
0
LINE
8
KERF
10
620.000
20
55.000
30
0.0
11
620.000
21
84.000
31
0.0
0
LINE
8
KERF
10
640.000
20
6.000
30
0.0
11
640.000
21
35.000
31
0.0
0
LINE
8
KERF
10
640.000
20
55.000
30
0.0
11
640.000
21
84.000
31
0.0
0
LINE
8
KERF
10
660.000
20
6.000
30
0.0
11
660.000
21
35.000
31
0.0
0
LINE
8
KERF
10
660.000
20
55.000
30
0.0
11
660.000
21
84.000
31
0.0
0
LINE
8
KERF
10
270.000
20
12.000
30
0.0
11
270.000
21
78.000
31
0.0
0
LINE
8
KERF
10
290.000
20
12.000
30
0.0
11
290.000
21
78.000
31
0.0
0
LINE
8
KERF
10
310.000
20
12.000
30
0.0
11
310.000
21
78.000
31
0.0
0
LINE
8
KERF
10
610.000
20
12.000
30
0.0
11
610.000
21
78.000
31
0.0
0
LINE
8
KERF
10
630.000
20
12.000
30
0.0
11
630.000
21
78.000
31
0.0
0
LINE
8
KERF
10
650.000
20
12.000
30
0.0
11
650.000
21
78.000
31
0.0
0
ENDSEC
0
EOF
